<?xml version="1.0" encoding="UTF-8"?> <svg xmlns="http://www.w3.org/2000/svg" width="125" height="21" viewBox="0 0 125 21" fill="none"> <path d="M11.313 20.378C9.333 20.378 7.551 19.964 5.967 19.136C4.401 18.29 3.168 17.12 2.268 15.626C1.368 14.132 0.918 12.44 0.918 10.55C0.918 8.66 1.368 6.968 2.268 5.474C3.168 3.98 4.401 2.819 5.967 1.991C7.551 1.145 9.333 0.721999 11.313 0.721999C13.041 0.721999 14.598 1.028 15.984 1.64C17.37 2.252 18.522 3.134 19.44 4.286L16.038 7.364C14.814 5.888 13.329 5.15 11.583 5.15C10.557 5.15 9.639 5.375 8.829 5.825C8.037 6.275 7.416 6.914 6.966 7.742C6.534 8.552 6.318 9.488 6.318 10.55C6.318 11.612 6.534 12.557 6.966 13.385C7.416 14.195 8.037 14.825 8.829 15.275C9.639 15.725 10.557 15.95 11.583 15.95C13.329 15.95 14.814 15.212 16.038 13.736L19.44 16.814C18.522 17.966 17.37 18.848 15.984 19.46C14.598 20.072 13.041 20.378 11.313 20.378ZM34.1702 16.328H26.1782L24.6932 20H19.2392L27.5822 1.1H32.8472L41.2172 20H35.6552L34.1702 16.328ZM32.6042 12.386L30.1742 6.338L27.7442 12.386H32.6042ZM59.7968 20L59.7428 9.983L54.8828 18.137H52.5068L47.6738 10.253V20H42.7328V1.1H47.1338L53.7758 12.008L60.2558 1.1H64.6568L64.7108 20H59.7968ZM77.1335 1.1C78.8435 1.1 80.3285 1.388 81.5885 1.964C82.8485 2.522 83.8205 3.332 84.5045 4.394C85.1885 5.438 85.5305 6.671 85.5305 8.093C85.5305 9.515 85.1885 10.748 84.5045 11.792C83.8205 12.836 82.8485 13.646 81.5885 14.222C80.3285 14.78 78.8435 15.059 77.1335 15.059H73.8395V20H68.4935V1.1H77.1335ZM76.8095 10.847C77.9075 10.847 78.7355 10.613 79.2935 10.145C79.8515 9.659 80.1305 8.975 80.1305 8.093C80.1305 7.211 79.8515 6.527 79.2935 6.041C78.7355 5.555 77.9075 5.312 76.8095 5.312H73.8395V10.847H76.8095ZM96.6735 20.378C93.8655 20.378 91.6785 19.613 90.1125 18.083C88.5645 16.553 87.7905 14.384 87.7905 11.576V1.1H93.1365V11.414C93.1365 14.438 94.3335 15.95 96.7275 15.95C99.1035 15.95 100.292 14.438 100.292 11.414V1.1H105.557V11.576C105.557 14.384 104.774 16.553 103.208 18.083C101.66 19.613 99.4815 20.378 96.6735 20.378ZM115.82 20.378C114.29 20.378 112.805 20.189 111.365 19.811C109.925 19.433 108.755 18.929 107.855 18.299L109.61 14.357C110.456 14.915 111.437 15.365 112.553 15.707C113.669 16.049 114.767 16.22 115.847 16.22C117.899 16.22 118.925 15.707 118.925 14.681C118.925 14.141 118.628 13.745 118.034 13.493C117.458 13.223 116.522 12.944 115.226 12.656C113.804 12.35 112.616 12.026 111.662 11.684C110.708 11.324 109.889 10.757 109.205 9.983C108.521 9.209 108.179 8.165 108.179 6.851C108.179 5.699 108.494 4.664 109.124 3.746C109.754 2.81 110.69 2.072 111.932 1.532C113.192 0.991999 114.731 0.721999 116.549 0.721999C117.791 0.721999 119.015 0.865999 120.221 1.154C121.427 1.424 122.489 1.829 123.407 2.369L121.76 6.338C119.96 5.366 118.214 4.88 116.522 4.88C115.46 4.88 114.686 5.042 114.2 5.366C113.714 5.672 113.471 6.077 113.471 6.581C113.471 7.085 113.759 7.463 114.335 7.715C114.911 7.967 115.838 8.228 117.116 8.498C118.556 8.804 119.744 9.137 120.68 9.497C121.634 9.839 122.453 10.397 123.137 11.171C123.839 11.927 124.19 12.962 124.19 14.276C124.19 15.41 123.875 16.436 123.245 17.354C122.615 18.272 121.67 19.01 120.41 19.568C119.15 20.108 117.62 20.378 115.82 20.378Z" fill="#424655"></path> </svg> 