<?xml version="1.0" encoding="UTF-8"?> <!-- Generator: Adobe Illustrator 16.0.0, SVG Export Plug-In . SVG Version: 6.00 Build 0) --> <svg xmlns="http://www.w3.org/2000/svg" xmlns:xlink="http://www.w3.org/1999/xlink" id="Layer_1" x="0px" y="0px" width="192.481px" height="176.349px" viewBox="0 0 192.481 176.349" xml:space="preserve"> <path fill="#403B3D" d="M79.757,75c-0.904,2.025-1.458,3.274-1.652,3.713c-5.927,13.502-10.324,20.358-17.909,20.358 c-4.517,0-7.554-3.103-7.554-7.716c0-4.234,2.301-8.232,6.479-11.259c2.206-1.598,4.839-2.852,7.83-3.726 c3.212-0.937,6.756-1.414,10.541-1.414C78.233,74.957,78.991,74.971,79.757,75 M129.972,86.013 c-5.785-4.66-13.294-9.188-21.911-12.615l8.013-17.817C119.017,62.001,127.01,79.516,129.972,86.013 M115.872,36.451l-1.032,2.298 l-14.308,32.047c-3.029-0.897-6.157-1.647-9.365-2.209c5.75-12.889,14.079-31.538,14.336-32.123l0.009-0.013H78.138H77.03 l-3.435,7.72h1.119h18.775c-1.706,3.818-6.658,14.947-10.269,23.054l-0.163,0.368c-1.752-0.122-3.519-0.194-5.302-0.194 c-21.282,0-33.175,11.727-33.175,24.35c0,9.567,7.242,14.954,15.552,14.954c13.386,0,19.748-12.574,25.047-24.681 c0.153-0.353,1.208-2.722,2.758-6.2l0.291,0.046c3.011,0.497,6.067,1.2,9.102,2.088l-11.891,26.628l-0.296,0.666l-0.204,0.455h1.225 h7.304h0.003l11.356-25.144l0.043,0.018c12.789,5.148,24.335,13.422,33.53,24.005c0.32,0.37,0.639,0.743,0.955,1.121h1.461h7.084 C147.9,105.706,116.61,38.118,115.872,36.451"></path> <path fill="#403B3D" d="M144.358,126.118c0.38-0.118,0.712-0.284,0.985-0.51c0.273-0.214,0.489-0.486,0.644-0.809 c0.156-0.313,0.225-0.674,0.225-1.075v-0.029c0-0.351-0.059-0.663-0.176-0.926c-0.107-0.263-0.281-0.499-0.526-0.703 c-0.234-0.195-0.526-0.373-0.878-0.507c-0.342-0.138-0.751-0.264-1.211-0.381c-0.418-0.1-0.761-0.197-1.024-0.284 c-0.271-0.089-0.479-0.186-0.645-0.283c-0.157-0.106-0.264-0.225-0.323-0.352c-0.059-0.125-0.087-0.264-0.087-0.43v-0.027 c0-0.284,0.126-0.53,0.381-0.723c0.243-0.197,0.595-0.294,1.045-0.294c0.399,0,0.789,0.078,1.18,0.225 c0.391,0.156,0.781,0.37,1.183,0.653l0.83-1.142c-0.45-0.352-0.938-0.616-1.446-0.799c-0.508-0.187-1.082-0.276-1.729-0.276 c-0.429,0-0.826,0.06-1.19,0.177c-0.37,0.128-0.681,0.304-0.947,0.519c-0.253,0.214-0.457,0.478-0.612,0.781 c-0.148,0.311-0.226,0.643-0.226,1.013v0.032c0,0.39,0.067,0.722,0.194,1.003c0.128,0.273,0.312,0.508,0.567,0.705 c0.242,0.194,0.546,0.36,0.906,0.488c0.362,0.135,0.772,0.263,1.241,0.37c0.398,0.087,0.73,0.176,0.986,0.263 c0.253,0.09,0.456,0.196,0.595,0.294c0.146,0.106,0.253,0.224,0.301,0.342c0.059,0.117,0.079,0.253,0.079,0.409v0.03 c0,0.312-0.135,0.573-0.411,0.78c-0.28,0.195-0.653,0.291-1.131,0.291c-0.536,0-1.024-0.087-1.464-0.282 c-0.438-0.194-0.87-0.469-1.289-0.83l-0.917,1.085c0.516,0.458,1.083,0.81,1.699,1.035c0.614,0.225,1.258,0.342,1.933,0.342 C143.557,126.293,143.978,126.234,144.358,126.118 M127.578,126.166h1.542v-7.193h2.764v-1.408h-7.079v1.408h2.773V126.166z M111.268,121.833v-2.893h2.224c0.577,0,1.027,0.128,1.34,0.364c0.311,0.242,0.477,0.594,0.477,1.063v0.029 c0,0.44-0.166,0.792-0.488,1.044c-0.32,0.265-0.761,0.393-1.308,0.393H111.268z M109.732,126.166h1.535v-2.998h1.923l2.138,2.998 h1.815l-2.352-3.251c0.603-0.177,1.1-0.479,1.491-0.906c0.381-0.432,0.577-0.996,0.577-1.698v-0.031c0-0.37-0.06-0.722-0.187-1.023 c-0.125-0.315-0.301-0.587-0.536-0.83c-0.284-0.266-0.634-0.48-1.054-0.636c-0.431-0.146-0.917-0.226-1.465-0.226h-3.887V126.166z M95.404,124.671c-0.36-0.155-0.674-0.38-0.937-0.653c-0.263-0.284-0.467-0.605-0.615-0.976c-0.146-0.37-0.215-0.762-0.215-1.184 v-0.026c0-0.411,0.069-0.813,0.215-1.184c0.148-0.359,0.352-0.681,0.605-0.965c0.255-0.272,0.567-0.488,0.927-0.644 c0.363-0.166,0.764-0.245,1.191-0.245c0.43,0,0.83,0.079,1.201,0.245c0.359,0.166,0.674,0.389,0.937,0.664 c0.264,0.273,0.468,0.596,0.617,0.966c0.134,0.38,0.214,0.77,0.214,1.188v0.021c0,0.419-0.08,0.82-0.214,1.189 c-0.149,0.363-0.354,0.686-0.606,0.957c-0.265,0.274-0.567,0.489-0.927,0.645c-0.362,0.156-0.764,0.245-1.192,0.245 C96.165,124.917,95.773,124.828,95.404,124.671 M98.42,125.961c0.557-0.245,1.035-0.567,1.445-0.968 c0.408-0.408,0.723-0.88,0.947-1.415c0.225-0.536,0.34-1.103,0.34-1.708v-0.028c0-0.606-0.115-1.183-0.34-1.708 c-0.225-0.539-0.539-1.007-0.937-1.418c-0.392-0.399-0.869-0.712-1.426-0.945c-0.557-0.234-1.172-0.352-1.846-0.352 c-0.672,0-1.288,0.117-1.844,0.359c-0.557,0.235-1.045,0.558-1.445,0.957c-0.409,0.411-0.723,0.879-0.948,1.415 c-0.225,0.539-0.343,1.114-0.343,1.72v0.021c0,0.604,0.118,1.179,0.343,1.718c0.225,0.536,0.539,1.003,0.927,1.405 c0.401,0.4,0.878,0.712,1.435,0.947c0.557,0.231,1.172,0.35,1.846,0.35C97.251,126.311,97.863,126.193,98.42,125.961 M82.022,126.118c0.378-0.118,0.71-0.284,0.983-0.51c0.276-0.214,0.49-0.486,0.646-0.809c0.156-0.313,0.225-0.674,0.225-1.075 v-0.029c0-0.351-0.059-0.663-0.166-0.926c-0.118-0.263-0.294-0.499-0.539-0.703c-0.232-0.195-0.526-0.373-0.878-0.507 c-0.34-0.138-0.751-0.264-1.201-0.381c-0.429-0.1-0.771-0.197-1.034-0.284c-0.273-0.089-0.477-0.186-0.643-0.283 c-0.156-0.106-0.264-0.225-0.322-0.352c-0.059-0.125-0.09-0.264-0.09-0.43v-0.027c0-0.284,0.128-0.53,0.381-0.723 c0.245-0.197,0.597-0.294,1.044-0.294c0.401,0,0.792,0.078,1.183,0.225c0.391,0.156,0.789,0.37,1.18,0.653l0.83-1.142 c-0.45-0.352-0.928-0.616-1.443-0.799c-0.509-0.187-1.086-0.276-1.729-0.276c-0.429,0-0.83,0.06-1.19,0.177 c-0.373,0.128-0.685,0.304-0.948,0.519c-0.255,0.214-0.459,0.478-0.615,0.781c-0.146,0.311-0.225,0.643-0.225,1.013v0.032 c0,0.39,0.069,0.722,0.197,1.003c0.125,0.273,0.312,0.508,0.564,0.705c0.245,0.194,0.547,0.36,0.909,0.488 c0.361,0.135,0.772,0.263,1.239,0.37c0.401,0.087,0.733,0.176,0.986,0.263c0.255,0.09,0.459,0.196,0.595,0.294 c0.147,0.106,0.255,0.224,0.304,0.342c0.058,0.117,0.079,0.253,0.079,0.409v0.03c0,0.312-0.138,0.573-0.411,0.78 c-0.284,0.195-0.654,0.291-1.132,0.291c-0.539,0-1.027-0.087-1.465-0.282c-0.44-0.194-0.869-0.469-1.288-0.83l-0.919,1.085 c0.519,0.458,1.085,0.81,1.698,1.035c0.615,0.225,1.262,0.342,1.933,0.342C81.221,126.293,81.64,126.234,82.022,126.118 M62.635,126.166h6.53v-1.35h-4.997v-2.31h4.374v-1.35h-4.374v-2.233h4.938v-1.359h-6.471V126.166z M48.431,121.833v-2.893h2.227 c0.575,0,1.024,0.128,1.336,0.364c0.314,0.242,0.48,0.594,0.48,1.063v0.029c0,0.44-0.166,0.792-0.488,1.044 c-0.324,0.265-0.763,0.393-1.31,0.393H48.431z M46.898,126.166h1.532v-2.998h1.924l2.137,2.998h1.816l-2.352-3.251 c0.605-0.177,1.103-0.479,1.493-0.906c0.381-0.432,0.577-0.996,0.577-1.698v-0.031c0-0.37-0.061-0.722-0.186-1.023 c-0.128-0.315-0.304-0.587-0.536-0.83c-0.283-0.266-0.636-0.48-1.055-0.636c-0.429-0.146-0.916-0.226-1.466-0.226h-3.884V126.166z"></path> <path fill="#403B3D" d="M143.979,139.672c0.38-0.106,0.702-0.283,0.975-0.498c0.274-0.224,0.488-0.498,0.644-0.809 c0.156-0.322,0.235-0.685,0.235-1.082v-0.032c0-0.352-0.058-0.653-0.177-0.926c-0.117-0.263-0.293-0.498-0.525-0.693 c-0.245-0.207-0.539-0.373-0.879-0.507c-0.352-0.146-0.753-0.273-1.21-0.381c-0.43-0.108-0.771-0.197-1.034-0.284 c-0.266-0.096-0.48-0.196-0.637-0.293c-0.155-0.097-0.263-0.214-0.321-0.342c-0.059-0.125-0.09-0.274-0.09-0.44v-0.017 c0-0.294,0.118-0.53,0.373-0.734c0.243-0.192,0.596-0.293,1.045-0.293c0.398,0,0.789,0.079,1.18,0.226 c0.391,0.158,0.792,0.372,1.192,0.664l0.82-1.143c-0.45-0.352-0.927-0.626-1.436-0.809c-0.519-0.188-1.093-0.274-1.729-0.274 c-0.439,0-0.83,0.06-1.2,0.185c-0.36,0.116-0.675,0.294-0.937,0.509c-0.265,0.214-0.469,0.479-0.616,0.791 c-0.156,0.302-0.226,0.643-0.226,1.004v0.03c0,0.391,0.06,0.732,0.187,1.007c0.136,0.28,0.323,0.515,0.567,0.702 c0.242,0.192,0.548,0.358,0.906,0.498c0.363,0.135,0.771,0.253,1.241,0.358c0.409,0.09,0.74,0.178,0.996,0.274 c0.242,0.09,0.448,0.186,0.595,0.294c0.146,0.106,0.243,0.215,0.291,0.332c0.061,0.128,0.09,0.262,0.09,0.419v0.02 c0,0.322-0.148,0.574-0.422,0.782c-0.28,0.204-0.653,0.3-1.131,0.3c-0.536,0-1.024-0.096-1.463-0.291 c-0.431-0.186-0.861-0.469-1.29-0.83l-0.917,1.083c0.527,0.469,1.093,0.811,1.709,1.034c0.613,0.226,1.259,0.344,1.931,0.344 C143.166,139.85,143.587,139.791,143.979,139.672 M125.228,139.721h6.107v-1.377h-4.576v-7.214h-1.531V139.721z M110.145,139.721 h6.529v-1.345h-4.998v-2.313h4.372v-1.35h-4.372v-2.233h4.939v-1.35h-6.471V139.721z M97.483,139.721h1.542v-7.193h2.773v-1.397 H94.72v1.397h2.763V139.721z M81.484,138.228c-0.36-0.155-0.674-0.37-0.938-0.653c-0.262-0.284-0.467-0.606-0.615-0.977 c-0.135-0.359-0.215-0.762-0.215-1.18v-0.02c0-0.419,0.08-0.811,0.215-1.184c0.148-0.37,0.353-0.691,0.605-0.965 c0.266-0.272,0.567-0.498,0.927-0.654c0.363-0.154,0.764-0.244,1.193-0.244c0.439,0,0.83,0.09,1.2,0.256 c0.36,0.154,0.674,0.38,0.938,0.652c0.262,0.274,0.467,0.596,0.615,0.977c0.145,0.37,0.214,0.771,0.214,1.182v0.028 c0,0.419-0.069,0.809-0.214,1.18c-0.148,0.373-0.353,0.695-0.605,0.958c-0.266,0.273-0.567,0.488-0.93,0.644 c-0.36,0.166-0.761,0.244-1.19,0.244S81.854,138.394,81.484,138.228 M84.5,139.518c0.556-0.235,1.044-0.558,1.445-0.967 c0.409-0.399,0.723-0.878,0.948-1.406c0.224-0.536,0.339-1.113,0.339-1.72v-0.026c0-0.605-0.115-1.173-0.339-1.709 c-0.225-0.536-0.539-1.006-0.928-1.407c-0.4-0.399-0.88-0.72-1.435-0.955c-0.556-0.235-1.172-0.342-1.846-0.342 s-1.287,0.117-1.844,0.352c-0.556,0.233-1.037,0.558-1.445,0.965c-0.409,0.402-0.723,0.879-0.948,1.408 c-0.224,0.536-0.342,1.111-0.342,1.715v0.021c0,0.616,0.118,1.18,0.342,1.719c0.225,0.536,0.539,1.003,0.938,1.405 c0.39,0.399,0.868,0.723,1.425,0.957c0.556,0.231,1.172,0.349,1.846,0.349C83.328,139.876,83.943,139.751,84.5,139.518 M62.303,139.721h1.532v-3.62h4.158v3.62h1.532v-8.591h-1.532v3.576h-4.158v-3.576h-1.532V139.721z M48.217,138.249 c-0.274-0.236-0.411-0.537-0.411-0.907v-0.02c0-0.283,0.089-0.547,0.273-0.792c0.186-0.253,0.48-0.467,0.888-0.633l1.944,1.949 c-0.253,0.236-0.508,0.423-0.782,0.548c-0.283,0.138-0.566,0.207-0.868,0.207C48.842,138.601,48.49,138.484,48.217,138.249 M48.978,133.826c-0.098-0.184-0.146-0.381-0.146-0.595v-0.028c0-0.304,0.097-0.547,0.284-0.743 c0.194-0.195,0.447-0.282,0.761-0.282c0.291,0,0.526,0.087,0.712,0.265c0.184,0.184,0.273,0.418,0.273,0.702v0.018 c0,0.314-0.117,0.577-0.352,0.781c-0.235,0.215-0.575,0.4-1.024,0.566C49.251,134.247,49.075,134.022,48.978,133.826 M52.941,139.898l1.142-0.811l-1.377-1.376c0.225-0.293,0.429-0.604,0.626-0.937c0.194-0.332,0.38-0.674,0.556-1.018l-1.161-0.604 c-0.139,0.304-0.294,0.595-0.45,0.878c-0.156,0.272-0.312,0.539-0.478,0.781l-1.504-1.493c0.585-0.215,1.055-0.498,1.397-0.859 c0.35-0.352,0.526-0.809,0.526-1.375v-0.032c0-0.28-0.058-0.553-0.166-0.809c-0.117-0.253-0.273-0.478-0.477-0.664 c-0.204-0.184-0.449-0.332-0.723-0.438c-0.284-0.107-0.605-0.156-0.947-0.156c-0.391,0-0.741,0.058-1.055,0.176 c-0.301,0.118-0.564,0.273-0.779,0.467c-0.214,0.197-0.383,0.433-0.498,0.695c-0.117,0.253-0.176,0.536-0.176,0.82v0.018 c0,0.314,0.059,0.615,0.176,0.898c0.115,0.294,0.291,0.588,0.547,0.899c-0.598,0.252-1.055,0.584-1.377,0.976 c-0.322,0.399-0.48,0.878-0.48,1.435v0.02c0,0.371,0.069,0.703,0.215,1.005c0.148,0.314,0.342,0.566,0.597,0.78 c0.253,0.226,0.557,0.392,0.907,0.498c0.352,0.118,0.723,0.178,1.134,0.178c0.526,0,1.003-0.099,1.443-0.306 c0.439-0.192,0.85-0.466,1.22-0.818L52.941,139.898z"></path> </svg> 