<svg width="125" height="35" viewBox="0 0 125 35" fill="none" xmlns="http://www.w3.org/2000/svg">
<g clip-path="url(#clip0_5386_39745)">
<mask id="mask0_5386_39745" style="mask-type:luminance" maskUnits="userSpaceOnUse" x="0" y="0" width="125" height="35">
<path d="M124.231 0.710938H0.09375V34.2891H124.231V0.710938Z" fill="white"/>
</mask>
<g mask="url(#mask0_5386_39745)">
<path d="M19.7157 15.9553C19.6852 12.3353 22.7015 10.5707 22.8421 10.4918C21.1323 8.0178 18.4823 7.67823 17.548 7.65398C15.3193 7.42358 13.1638 8.97592 12.0282 8.97592C10.8741 8.97592 9.12766 7.67823 7.24092 7.71464C4.81677 7.75099 2.5514 9.14572 1.31188 11.3044C-1.2527 15.7129 0.658537 22.1889 3.1193 25.7545C4.34657 27.5008 5.78157 29.4473 7.66225 29.3806C9.50018 29.3078 10.1902 28.2164 12.4067 28.2164C14.6049 28.2164 15.2522 29.3806 17.1694 29.3382C19.1417 29.3078 20.3874 27.5857 21.5719 25.8272C22.9947 23.8262 23.5626 21.8555 23.587 21.7584C23.5381 21.728 19.7523 20.291 19.7157 15.9553ZM16.0948 5.30729C17.084 4.07636 17.7617 2.40881 17.5724 0.710938C16.1436 0.771543 14.3484 1.69324 13.3225 2.89392C12.4128 3.95507 11.5946 5.68929 11.8084 7.32049C13.408 7.43568 15.0628 6.51397 16.0948 5.30729Z" fill="white"/>
<path d="M46.3556 29.1179H43.7851L42.3746 24.7277H37.4836L36.1401 29.1179H33.6367L38.485 14.1645H41.4769L46.3556 29.1179ZM41.9532 22.8844L40.677 18.9794C40.5427 18.579 40.2862 17.6392 39.9199 16.1596H39.8772C39.7305 16.7963 39.4863 17.7361 39.1627 18.9794L37.911 22.8844H41.9532ZM58.8003 23.5938C58.8003 25.4251 58.2994 26.8744 57.2979 27.9416C56.4 28.8876 55.2828 29.3605 53.9516 29.3605C52.5105 29.3605 51.4788 28.8511 50.8502 27.8324V33.49H48.438V21.8778C48.438 20.7256 48.4077 19.5432 48.3464 18.3365H50.4709L50.6059 20.0465H50.648C51.4545 18.761 52.6758 18.1121 54.3117 18.1121C55.5941 18.1121 56.6626 18.6155 57.5178 19.622C58.3723 20.6287 58.8003 21.9566 58.8003 23.5938ZM56.3453 23.6848C56.3453 22.6358 56.107 21.7687 55.631 21.0895C55.1116 20.38 54.4098 20.0283 53.5303 20.0283C52.9384 20.0283 52.3946 20.2285 51.9121 20.6164C51.4301 21.0106 51.1121 21.5261 50.966 22.1567C50.8989 22.3932 50.862 22.6418 50.8561 22.8844V24.6853C50.8561 25.4675 51.1002 26.1285 51.5828 26.6743C52.0648 27.2139 52.6942 27.4867 53.469 27.4867C54.3789 27.4867 55.0873 27.1351 55.5941 26.4438C56.0886 25.7404 56.3453 24.8247 56.3453 23.6848ZM71.293 23.5938C71.293 25.4251 70.7927 26.8744 69.7907 27.9416C68.8934 28.8876 67.7762 29.3605 66.4449 29.3605C65.0038 29.3605 63.9716 28.8511 63.3428 27.8324V33.49H60.9307V21.8778C60.9307 20.7256 60.9004 19.5432 60.8392 18.3365H62.9643L63.0986 20.0465H63.1415C63.9472 18.761 65.1685 18.1121 66.8051 18.1121C68.0875 18.1121 69.156 18.6155 70.0105 19.622C70.8599 20.6287 71.293 21.9566 71.293 23.5938ZM68.8322 23.6848C68.8322 22.6358 68.5945 21.7687 68.1177 21.0895C67.599 20.38 66.8966 20.0283 66.0177 20.0283C65.4252 20.0283 64.8814 20.2285 64.3929 20.6164C63.911 21.0106 63.593 21.5261 63.4468 22.1567C63.3732 22.4539 63.331 22.6964 63.331 22.8844V24.6853C63.331 25.4675 63.5752 26.1285 64.0571 26.6743C64.5397 27.2139 65.1685 27.4867 65.9506 27.4867C66.8597 27.4867 67.5681 27.1351 68.0751 26.4438C68.5819 25.7404 68.8322 24.8247 68.8322 23.6848ZM85.2578 24.9278C85.2578 26.2012 84.8121 27.2382 83.9207 28.0325C82.9437 28.9058 81.5698 29.3424 79.8172 29.3424C78.199 29.3424 76.8988 29.0331 75.9153 28.4084L76.4709 26.4136C77.5275 27.0381 78.6935 27.3472 79.9575 27.3472C80.8673 27.3472 81.5757 27.1412 82.0826 26.7349C82.5895 26.3286 82.8457 25.7829 82.8457 25.1037C82.8457 24.4974 82.6323 23.988 82.2169 23.5695C81.8015 23.1573 81.1115 22.7691 80.1412 22.4175C77.5032 21.4411 76.1839 20.0101 76.1839 18.1364C76.1839 16.9115 76.6479 15.9049 77.5822 15.1227C78.5105 14.3405 79.7441 13.9463 81.2827 13.9463C82.6507 13.9463 83.7924 14.1828 84.7022 14.6558L84.0977 16.6083C83.2426 16.1475 82.2841 15.9231 81.2031 15.9231C80.3545 15.9231 79.6829 16.1293 79.2063 16.5416C78.8034 16.9115 78.602 17.3603 78.602 17.894C78.602 18.482 78.8344 18.9732 79.2985 19.3552C79.7014 19.707 80.4276 20.095 81.4842 20.5074C82.7784 21.0288 83.7311 21.6292 84.342 22.3265C84.9523 23.0239 85.2578 23.891 85.2578 24.9278ZM93.257 20.1375H90.5944V25.3705C90.5944 26.7046 91.0645 27.3656 92.0056 27.3656C92.4382 27.3656 92.7924 27.3291 93.08 27.2564L93.1465 29.0755C92.671 29.2514 92.0476 29.3424 91.2725 29.3424C90.3198 29.3424 89.5745 29.0512 89.0374 28.4753C88.5002 27.8991 88.2315 26.9289 88.2315 25.5706V20.1375H86.6502V18.3426H88.2315V16.3658L90.6009 15.6563V18.3426H93.2625L93.257 20.1375ZM105.23 23.6423C105.23 25.2978 104.754 26.6621 103.802 27.7233C102.807 28.8208 101.482 29.3666 99.8272 29.3666C98.2335 29.3666 96.9628 28.839 96.0163 27.7961C95.0707 26.747 94.6007 25.419 94.6007 23.8243C94.6007 22.1507 95.089 20.7863 96.0656 19.719C97.0432 18.6518 98.3558 18.1242 100.01 18.1242C101.603 18.1242 102.886 18.6518 103.851 19.7009C104.767 20.7135 105.23 22.0294 105.23 23.6423ZM102.728 23.697C102.728 22.7085 102.514 21.8595 102.08 21.1561C101.573 20.3012 100.852 19.8707 99.9129 19.8707C98.9473 19.8707 98.2025 20.3012 97.7023 21.1561C97.2687 21.8656 97.0551 22.7267 97.0551 23.7454C97.0551 24.7338 97.2687 25.5828 97.7023 26.2923C98.2216 27.1472 98.9536 27.5778 99.8938 27.5778C100.817 27.5778 101.537 27.1412 102.062 26.2741C102.508 25.5403 102.728 24.6853 102.728 23.697ZM113.077 20.4467C112.827 20.4043 112.571 20.38 112.313 20.38C111.465 20.38 110.813 20.6953 110.348 21.3321C109.946 21.896 109.743 22.6054 109.743 23.4604V29.1179H107.331V21.7323C107.331 20.5983 107.312 19.4704 107.265 18.3365H109.365L109.45 20.3982H109.517C109.774 19.6887 110.171 19.1188 110.726 18.6881C111.227 18.3122 111.843 18.1121 112.473 18.1121C112.699 18.1121 112.893 18.1303 113.077 18.1547V20.4467ZM123.867 23.2178C123.874 23.5817 123.842 23.9456 123.781 24.3032H116.539C116.564 25.3705 116.918 26.183 117.589 26.747C118.2 27.2503 118.988 27.499 119.959 27.499C121.034 27.499 122.01 27.3291 122.891 26.9895L123.268 28.651C122.242 29.0937 121.028 29.3181 119.629 29.3181C117.944 29.3181 116.625 28.8269 115.66 27.8446C114.702 26.8622 114.219 25.5403 114.219 23.8849C114.219 22.2598 114.664 20.9076 115.562 19.8282C116.498 18.676 117.767 18.1 119.361 18.1C120.924 18.1 122.108 18.676 122.914 19.8282C123.543 20.7438 123.867 21.8717 123.867 23.2178ZM121.565 22.5993C121.583 21.8899 121.424 21.2774 121.095 20.7559C120.68 20.089 120.032 19.7554 119.171 19.7554C118.384 19.7554 117.742 20.0829 117.247 20.7317C116.844 21.2471 116.606 21.8717 116.533 22.5933L121.565 22.5993Z" fill="white"/>
<path d="M36.781 8.88308C36.1094 8.88308 35.5293 8.85275 35.0469 8.79816V1.56405C35.7247 1.46095 36.4086 1.40636 37.0925 1.41244C39.8585 1.41244 41.1348 2.76467 41.1348 4.96582C41.1286 7.50655 39.6265 8.88308 36.781 8.88308ZM37.1901 2.34023C36.8177 2.34023 36.5001 2.36448 36.2377 2.419V7.91287C36.378 7.93712 36.6528 7.94313 37.0374 7.94313C38.851 7.94313 39.8829 6.9184 39.8829 5.00223C39.8768 3.28618 38.9427 2.34023 37.1901 2.34023ZM45.1037 8.93761C43.5466 8.93761 42.533 7.77943 42.533 6.20891C42.533 4.57165 43.5649 3.40745 45.1892 3.40745C46.7279 3.40745 47.7601 4.51105 47.7601 6.12399C47.7601 7.77943 46.6974 8.93761 45.1037 8.93761ZM45.1464 4.26849C44.2916 4.26849 43.742 5.06284 43.742 6.17858C43.742 7.27006 44.3038 8.06441 45.1342 8.06441C45.9708 8.06441 46.5264 7.21547 46.5264 6.15432C46.5324 5.075 45.983 4.26849 45.1464 4.26849ZM56.6504 3.51658L54.9834 8.81633H53.8964L53.2065 6.51816C53.0353 5.9542 52.8892 5.38423 52.7792 4.80818H52.7549C52.6692 5.38423 52.5041 5.96636 52.3269 6.51816L51.5942 8.81633H50.4955L48.926 3.51658H50.1472L50.7515 6.03304C50.8924 6.63335 51.0142 7.1973 51.1123 7.737H51.1367C51.2222 7.28825 51.3684 6.73646 51.5765 6.0452L52.3335 3.51658H53.298L54.0248 5.99061C54.2019 6.59092 54.3422 7.17913 54.4521 7.737H54.4823C54.5621 7.19122 54.6779 6.61518 54.8431 5.99061L55.4903 3.51658H56.6504ZM62.7992 8.81633H61.615V5.77232C61.615 4.83244 61.254 4.36551 60.5397 4.36551C59.838 4.36551 59.3554 4.96582 59.3554 5.66315V8.81633H58.1711V5.0325C58.1711 4.56564 58.1585 4.06235 58.1283 3.51658H59.1724L59.227 4.33518H59.2573C59.5753 3.77129 60.2225 3.40745 60.9493 3.40745C62.0664 3.40745 62.8051 4.25639 62.8051 5.64496L62.7992 8.81633ZM66.0659 8.81633H64.8815V1.08496H66.0659V8.81633ZM70.3951 8.93761C68.8382 8.93761 67.8244 7.77943 67.8244 6.20891C67.8244 4.57165 68.8566 3.40745 70.4808 3.40745C72.0194 3.40745 73.0516 4.51105 73.0516 6.12399C73.0516 7.77943 71.9831 8.93761 70.3951 8.93761ZM70.438 4.26849C69.5828 4.26849 69.0338 5.06284 69.0338 6.17858C69.0338 7.27006 69.5953 8.06441 70.4255 8.06441C71.2622 8.06441 71.8178 7.21547 71.8178 6.15432C71.8178 5.075 71.2747 4.26849 70.438 4.26849ZM77.7285 8.81633L77.6428 8.20386H77.6126C77.2525 8.69505 76.7212 8.93152 76.0497 8.93152C75.0905 8.93152 74.413 8.26454 74.413 7.37317C74.413 6.06339 75.5547 5.39032 77.5329 5.39032V5.29329C77.5329 4.5959 77.1609 4.24423 76.4282 4.24423C75.9029 4.24423 75.4387 4.37767 75.0359 4.6384L74.7974 3.86223C75.2926 3.559 75.9088 3.40138 76.6297 3.40138C78.0215 3.40138 78.7299 4.12904 78.7299 5.59036V7.54295C78.7299 8.07658 78.7542 8.49494 78.8095 8.81026L77.7285 8.81633ZM77.5639 6.17858C76.2446 6.17858 75.5856 6.4939 75.5856 7.24582C75.5856 7.80368 75.9272 8.07657 76.3973 8.07657C77.0023 8.07657 77.5639 7.62174 77.5639 6.99719V6.17858ZM84.4758 8.81633L84.4212 7.96739H84.3902C84.0485 8.61019 83.4746 8.93761 82.6746 8.93761C81.3862 8.93761 80.4336 7.81584 80.4336 6.23317C80.4336 4.57774 81.423 3.40745 82.7721 3.40745C83.4871 3.40745 83.9933 3.64393 84.2744 4.12904H84.2987V1.08496H85.483V7.38527C85.483 7.89463 85.4956 8.37973 85.5259 8.81026H84.4758V8.81633ZM84.3046 5.69955C84.3046 4.95973 83.8102 4.32308 83.0532 4.32308C82.1737 4.32308 81.6364 5.09926 81.6364 6.18465C81.6364 7.2519 82.1921 7.98564 83.0288 7.98564C83.7734 7.98564 84.3046 7.34284 84.3046 6.57883V5.69955ZM93.0188 8.93761C91.4616 8.93761 90.4476 7.77943 90.4476 6.20891C90.4476 4.57165 91.4789 3.40745 93.1037 3.40745C94.6427 3.40745 95.674 4.51105 95.674 6.12399C95.674 7.77943 94.6124 8.93761 93.0188 8.93761ZM93.0616 4.26849C92.2064 4.26849 91.656 5.06284 91.656 6.17858C91.656 7.27006 92.2183 8.06441 93.0489 8.06441C93.8859 8.06441 94.4409 7.21547 94.4409 6.15432C94.4473 5.075 93.8977 4.26849 93.0616 4.26849ZM102.055 8.81633H100.87V5.77232C100.87 4.83244 100.511 4.36551 99.7961 4.36551C99.0933 4.36551 98.6114 4.96582 98.6114 5.66315V8.81633H97.4266V5.0325C97.4266 4.56564 97.4147 4.06235 97.3837 3.51658H98.4279L98.4836 4.33518H98.5137C98.8314 3.77129 99.4785 3.40745 100.205 3.40745C101.323 3.40745 102.061 4.25639 102.061 5.64496V8.81633H102.055ZM110.031 4.40187H108.723V6.97293C108.723 7.62781 108.95 7.95529 109.413 7.95529C109.62 7.95529 109.798 7.93105 109.939 7.90071L109.969 8.79207C109.737 8.87699 109.431 8.92552 109.048 8.92552C108.113 8.92552 107.551 8.41615 107.551 7.06995V4.39584H106.769V3.5105H107.551V2.54028L108.718 2.18861V3.5105H110.023L110.031 4.40187ZM116.314 8.81633H115.128V5.79657C115.128 4.85062 114.768 4.37159 114.054 4.37159C113.436 4.37159 112.869 4.78393 112.869 5.62679V8.82241H111.684V1.08496H112.869V4.26849H112.894C113.267 3.69244 113.81 3.40745 114.499 3.40745C115.629 3.40745 116.319 4.28058 116.319 5.66315L116.314 8.81633ZM122.742 6.45147H119.182C119.208 7.45202 119.873 8.02198 120.862 8.02198C121.387 8.02198 121.875 7.93712 122.303 7.77335L122.487 8.59195C121.979 8.81026 121.387 8.91944 120.697 8.91944C119.03 8.91944 118.041 7.87037 118.041 6.25135C118.041 4.62624 119.055 3.40745 120.563 3.40745C121.924 3.40745 122.78 4.40794 122.78 5.92394C122.791 6.09372 122.78 6.2756 122.742 6.45147ZM121.656 5.60861C121.656 4.78995 121.241 4.2139 120.485 4.2139C119.8 4.2139 119.262 4.80211 119.189 5.60861H121.656Z" fill="white"/>
</g>
</g>
<defs>
<clipPath id="clip0_5386_39745">
<rect width="124.138" height="33.5782" fill="white" transform="translate(0.0976562 0.710938)"/>
</clipPath>
</defs>
</svg>
