<svg width="136" height="33" viewBox="0 0 136 33" fill="none" xmlns="http://www.w3.org/2000/svg">
<mask id="mask0_5386_39728" style="mask-type:luminance" maskUnits="userSpaceOnUse" x="0" y="0" width="136" height="33">
<path d="M135.721 0.728516H0.390625V32.2717H135.721V0.728516Z" fill="white"/>
</mask>
<g mask="url(#mask0_5386_39728)">
<path d="M44.5614 4.63827C44.5614 5.55913 44.3297 6.36489 43.75 6.9404C43.0543 7.63102 42.2428 7.97634 41.1995 7.97634C40.1561 7.97634 39.3444 7.63102 38.6489 6.9404C37.9534 6.24973 37.6055 5.44404 37.6055 4.40809C37.6055 3.37215 37.9534 2.56646 38.6489 1.87579C39.3444 1.18518 40.1561 0.839844 41.1995 0.839844C41.6631 0.839844 42.1269 0.954934 42.5906 1.18518C43.0543 1.41536 43.4021 1.64561 43.634 1.99088L43.0543 2.56639C42.5906 1.99088 42.0109 1.76069 41.1995 1.76069C40.5038 1.76069 39.8082 1.99088 39.3444 2.56639C38.7648 3.02682 38.533 3.71749 38.533 4.52319C38.533 5.32895 38.7648 6.01956 39.3444 6.47998C39.9241 6.9404 40.5038 7.28568 41.1995 7.28568C42.0109 7.28568 42.5906 7.0555 43.1703 6.47998C43.5181 6.13464 43.75 5.67421 43.75 5.0987H41.1995V4.29301H44.5614V4.63827Z" fill="white" stroke="white" stroke-width="0.203504" stroke-miterlimit="10"/>
<path d="M49.9014 1.76069H46.7712V3.94767H49.6694V4.75344H46.7712V6.9404H49.9014V7.7461H45.8438V0.839844H49.9014V1.76069Z" fill="white" stroke="white" stroke-width="0.203504" stroke-miterlimit="10"/>
<path d="M53.7112 7.7461H52.7833V1.64561H50.8125V0.839844H55.6815V1.64561H53.7112V7.7461Z" fill="white" stroke="white" stroke-width="0.203504" stroke-miterlimit="10"/>
<path d="M59.0508 7.7461V0.839844H59.9777V7.7461H59.0508Z" fill="white" stroke="white" stroke-width="0.203504" stroke-miterlimit="10"/>
<path d="M63.9291 7.7461H63.0022V1.64561H61.0312V0.839844H65.7844V1.64561H63.8134V7.7461H63.9291Z" fill="white" stroke="white" stroke-width="0.203504" stroke-miterlimit="10"/>
<path d="M74.9297 6.9404C74.2343 7.63102 73.4225 7.97634 72.3791 7.97634C71.3357 7.97634 70.5245 7.63102 69.8285 6.9404C69.1331 6.24973 68.7852 5.44404 68.7852 4.40809C68.7852 3.37215 69.1331 2.56646 69.8285 1.87579C70.5245 1.18518 71.3357 0.839844 72.3791 0.839844C73.4225 0.839844 74.2343 1.18518 74.9297 1.87579C75.6251 2.56646 75.973 3.37215 75.973 4.40809C75.973 5.32895 75.6251 6.24973 74.9297 6.9404ZM70.5245 6.36489C70.9884 6.82532 71.6838 7.17059 72.3791 7.17059C73.0751 7.17059 73.7705 6.9404 74.2343 6.36489C74.6982 5.90447 75.0456 5.21387 75.0456 4.40809C75.0456 3.60234 74.8139 2.91172 74.2343 2.45131C73.7705 1.99088 73.0751 1.64561 72.3791 1.64561C71.6838 1.64561 70.9884 1.87579 70.5245 2.45131C70.0608 2.91172 69.7127 3.60234 69.7127 4.40809C69.7127 5.0987 69.9449 5.78938 70.5245 6.36489Z" fill="white" stroke="white" stroke-width="0.203504" stroke-miterlimit="10"/>
<path d="M77.2578 7.7461V0.839844H78.3012L81.663 6.24973V4.86852V0.839844H82.5906V7.7461H81.663L78.069 2.10603V3.48724V7.7461H77.2578Z" fill="white" stroke="white" stroke-width="0.203504" stroke-miterlimit="10"/>
<path d="M68.5596 17.8796C65.7774 17.8796 63.5749 19.9516 63.5749 22.8292C63.5749 25.5917 65.7774 27.7786 68.5596 27.7786C71.3417 27.7786 73.5449 25.7068 73.5449 22.8292C73.5449 19.9516 71.3417 17.8796 68.5596 17.8796ZM68.5596 25.7068C67.0523 25.7068 65.7774 24.4406 65.7774 22.714C65.7774 20.9875 67.0523 19.7214 68.5596 19.7214C70.0667 19.7214 71.3417 20.8723 71.3417 22.714C71.3417 24.5557 70.0667 25.7068 68.5596 25.7068ZM57.7776 17.8796C54.9954 17.8796 52.7928 19.9516 52.7928 22.8292C52.7928 25.5917 54.9954 27.7786 57.7776 27.7786C60.5605 27.7786 62.763 25.7068 62.763 22.8292C62.763 19.9516 60.5605 17.8796 57.7776 17.8796ZM57.7776 25.7068C56.2711 25.7068 54.9954 24.4406 54.9954 22.714C54.9954 20.9875 56.2711 19.7214 57.7776 19.7214C59.2848 19.7214 60.5605 20.8723 60.5605 22.714C60.5605 24.5557 59.2848 25.7068 57.7776 25.7068ZM44.9095 19.3759V21.4479H49.8945C49.7786 22.5989 49.3148 23.5197 48.7351 24.0953C48.0397 24.7859 46.8802 25.5917 44.9095 25.5917C41.7793 25.5917 39.4605 23.1745 39.4605 20.0666C39.4605 16.9588 41.8952 14.5416 44.9095 14.5416C46.5325 14.5416 47.8078 15.2322 48.7351 16.038L50.2423 14.5416C48.967 13.3906 47.344 12.4697 45.0254 12.4697C40.8518 12.4697 37.2578 15.9229 37.2578 20.0666C37.2578 24.2103 40.8518 27.6636 45.0254 27.6636C47.344 27.6636 48.967 26.973 50.3582 25.4766C51.7494 24.0953 52.2131 22.1385 52.2131 20.6421C52.2131 20.1818 52.2131 19.7214 52.0972 19.3759H44.9095ZM97.5431 20.9875C97.0793 19.8364 95.9191 17.8796 93.3693 17.8796C90.8188 17.8796 88.7319 19.8364 88.7319 22.8292C88.7319 25.5917 90.8188 27.7786 93.6009 27.7786C95.8034 27.7786 97.195 26.3973 97.6589 25.5917L96.0358 24.4406C95.4562 25.2463 94.7599 25.8218 93.6009 25.8218C92.4417 25.8218 91.7457 25.3615 91.1662 24.3256L97.7746 21.5629L97.5431 20.9875ZM90.8188 22.5989C90.8188 20.7572 92.326 19.7214 93.3693 19.7214C94.1804 19.7214 94.9923 20.1817 95.2238 20.7572L90.8188 22.5989ZM85.3695 27.3182H87.5722V12.9302H85.3695V27.3182ZM81.892 18.9155C81.3118 18.34 80.3849 17.7646 79.2249 17.7646C76.7909 17.7646 74.4719 19.9516 74.4719 22.714C74.4719 25.4766 76.675 27.5485 79.2249 27.5485C80.3849 27.5485 81.3118 26.973 81.7757 26.3973H81.892V27.0879C81.892 28.9297 80.8487 29.9656 79.2249 29.9656C77.9501 29.9656 77.0224 29.0447 76.7909 28.2391L74.9357 29.0447C75.5153 30.3109 76.9066 31.9224 79.3414 31.9224C81.892 31.9224 83.9788 30.426 83.9788 26.8578V18.1098H81.892V18.9155ZM79.3414 25.7068C77.8343 25.7068 76.5586 24.4406 76.5586 22.714C76.5586 20.9875 77.8343 19.7214 79.3414 19.7214C80.8487 19.7214 82.0079 20.9875 82.0079 22.714C82.0079 24.4406 80.8487 25.7068 79.3414 25.7068ZM107.628 12.9302H102.412V27.3182H104.615V21.9084H107.628C110.063 21.9084 112.382 20.1817 112.382 17.4193C112.382 14.6568 110.063 12.9302 107.628 12.9302ZM107.744 19.9516H104.615V15.002H107.744C109.367 15.002 110.295 16.3833 110.295 17.4193C110.179 18.5703 109.251 19.9516 107.744 19.9516ZM121.078 17.8796C119.454 17.8796 117.831 18.5703 117.251 20.0666L119.222 20.8723C119.686 20.0666 120.382 19.8364 121.194 19.8364C122.353 19.8364 123.396 20.5271 123.512 21.6782V21.7932C123.164 21.5629 122.237 21.2178 121.309 21.2178C119.222 21.2178 117.135 22.3688 117.135 24.4406C117.135 26.3973 118.874 27.6636 120.73 27.6636C122.237 27.6636 122.932 26.973 123.512 26.2824H123.628V27.4334H125.715V21.9084C125.482 19.261 123.512 17.8796 121.078 17.8796ZM120.845 25.7068C120.15 25.7068 119.107 25.3615 119.107 24.4406C119.107 23.2895 120.382 22.9443 121.425 22.9443C122.353 22.9443 122.817 23.1746 123.396 23.4047C123.164 24.786 122.005 25.7068 120.845 25.7068ZM133.017 18.1098L130.583 24.3256H130.467L127.916 18.1098H125.598L129.424 26.8578L127.22 31.6922H129.424L135.336 18.1098H133.017ZM113.541 27.3182H115.744V12.9302H113.541V27.3182Z" fill="white"/>
<path d="M1.0862 30.1916C0.62246 29.9614 0.390625 29.3859 0.390625 28.8104C0.390625 28.6953 0.390625 28.465 0.390625 28.3499C0.390625 19.8322 0.390625 11.3144 0.390625 2.91181C0.390625 2.45138 0.506542 2.10611 0.62246 1.64568C0.738444 1.41544 0.970279 1.18526 1.20218 0.955078C6.18723 5.90455 11.0564 10.854 15.9255 15.8036C10.9404 20.4077 6.07131 25.2421 1.0862 30.1916Z" fill="white"/>
<path d="M20.79 10.7426C19.3987 12.1238 17.8917 13.505 16.5004 15.0014C11.8632 10.2822 7.10995 5.56289 2.47266 0.843605C2.47266 0.843605 2.47266 0.728516 2.58857 0.728516C8.61708 4.06652 14.6455 7.40459 20.79 10.7426Z" fill="white"/>
<path d="M2.47266 30.1934C7.10995 25.5891 11.8632 20.985 16.5004 16.3809C17.7757 17.647 19.1669 18.9132 20.674 20.2943C14.6455 23.6324 8.61708 26.9705 2.58857 30.1934H2.47266Z" fill="white"/>
<path d="M21.4835 19.8388C19.9763 18.4576 18.5853 17.0763 17.0781 15.6951C18.5853 14.1987 20.0923 12.7024 21.5994 11.2061C22.0632 11.4362 22.5269 11.6665 22.9906 12.0117C24.15 12.7024 25.4253 13.2778 26.5846 13.9684C26.9323 14.0836 27.1642 14.3139 27.396 14.6591C27.8598 15.2346 27.8598 15.8102 27.396 16.3856C27.1642 16.6159 26.9323 16.8462 26.5846 16.9613C24.9615 17.9972 23.2225 18.918 21.4835 19.8388Z" fill="white"/>
</g>
</svg>
