<svg width="40" height="40" viewBox="0 0 40 40" fill="none" xmlns="http://www.w3.org/2000/svg">
<path d="M26.6654 28.3332C29.4268 28.3332 31.6654 26.0946 31.6654 23.3332V20M31.6654 20V14.3306C31.6654 13.399 31.6654 12.9325 31.4839 12.5763C31.3241 12.2627 31.0685 12.0079 30.7549 11.8482C30.3983 11.6665 29.9323 11.6665 28.9989 11.6665H25.9989C25.0654 11.6665 24.5984 11.6665 24.2419 11.8482C23.9283 12.0079 23.6735 12.2627 23.5137 12.5763C23.332 12.9329 23.332 13.3999 23.332 14.3333V17.3333C23.332 18.2668 23.332 18.7328 23.5137 19.0893C23.6735 19.4029 23.9283 19.6586 24.2419 19.8184C24.598 19.9998 25.0645 19.9998 25.9961 19.9998L31.6654 20ZM11.6654 28.3332C14.4268 28.3332 16.6654 26.0946 16.6654 23.3332L16.6654 20M16.6654 20V14.3306C16.6654 13.399 16.6654 12.9325 16.4839 12.5763C16.3241 12.2627 16.0685 12.0079 15.7549 11.8482C15.3983 11.6665 14.9323 11.6665 13.9989 11.6665H10.9989C10.0654 11.6665 9.59838 11.6665 9.24186 11.8482C8.92826 12.0079 8.67348 12.2627 8.51369 12.5763C8.33203 12.9329 8.33203 13.3999 8.33203 14.3333V17.3333C8.33203 18.2668 8.33203 18.7328 8.51369 19.0893C8.67348 19.4029 8.92826 19.6586 9.24186 19.8184C9.59803 19.9998 10.0645 19.9998 10.9961 19.9998L16.6654 20Z" stroke="#3968BF" stroke-width="3" stroke-linecap="round" stroke-linejoin="round"/>
</svg>
