<svg width="32" height="32" viewBox="0 0 32 32" fill="none" xmlns="http://www.w3.org/2000/svg">
<path fill-rule="evenodd" clip-rule="evenodd" d="M5.81648 13.7019L6.48314 12.3685C6.59607 12.1427 6.82691 12 7.07943 12H20.2554C20.6236 12 20.922 12.2985 20.922 12.6667C20.922 12.7702 20.898 12.8722 20.8517 12.9648L20.185 14.2981C20.0721 14.524 19.8412 14.6667 19.5887 14.6667H6.41276C6.04457 14.6667 5.74609 14.3682 5.74609 14C5.74609 13.8965 5.77019 13.7944 5.81648 13.7019ZM19.5183 18.2981L18.8517 19.6315C18.7387 19.8573 18.5079 20 18.2554 20H6.41276C6.04457 20 5.74609 19.7015 5.74609 19.3333C5.74609 19.2298 5.77019 19.1278 5.81648 19.0352L6.48314 17.7019C6.59607 17.476 6.82691 17.3333 7.07943 17.3333H18.922C19.2902 17.3333 19.5887 17.6318 19.5887 18C19.5887 18.1035 19.5646 18.2056 19.5183 18.2981Z" fill="#3968BF"/>
<path fill-rule="evenodd" clip-rule="evenodd" d="M24.5433 9.06106C23.7863 9.6603 22.6907 9.47159 21.865 8.97143C21.6307 8.82954 21.3805 8.70686 21.1144 8.60337C20.2744 8.2767 19.4531 8.11337 18.6504 8.11337C17.6238 8.11337 16.6904 8.30004 15.8504 8.67337C15.0104 9.04671 14.2871 9.56003 13.6804 10.2134C13.0738 10.8667 12.6071 11.632 12.2804 12.5094C11.9538 13.3867 11.7904 14.3387 11.7904 15.3654C11.7904 16.448 11.9491 17.4374 12.2664 18.3334C12.5838 19.2294 13.0364 19.9994 13.6244 20.6434C14.2124 21.2874 14.9171 21.7867 15.7384 22.1414C16.5598 22.496 17.4838 22.6734 18.5104 22.6734C19.5744 22.6734 20.5171 22.4634 21.3384 22.0434C21.6302 21.8942 21.902 21.7279 22.1537 21.5445C22.8991 21.0015 23.9311 20.8024 24.6855 21.3328C25.4822 21.8928 25.6507 23.0241 24.9081 23.6539C24.3135 24.1582 23.6556 24.5827 22.9344 24.9274C21.6651 25.534 20.1811 25.8374 18.4824 25.8374C16.9331 25.8374 15.5098 25.5807 14.2124 25.0674C12.9151 24.554 11.7998 23.8354 10.8664 22.9114C9.9331 21.9874 9.20511 20.886 8.68244 19.6074C8.15977 18.3287 7.89844 16.9147 7.89844 15.3654C7.89844 13.7787 8.17377 12.346 8.72444 11.0674C9.27511 9.7887 10.0311 8.70138 10.9924 7.80537C11.9538 6.90937 13.0878 6.21871 14.3944 5.73337C15.7011 5.24804 17.1198 5.00537 18.6504 5.00537C19.2851 5.00537 19.9478 5.06604 20.6384 5.18737C21.3291 5.30871 21.9918 5.49537 22.6264 5.74737C23.2611 5.99937 23.8584 6.31204 24.4184 6.68537C24.5045 6.74275 24.5886 6.80189 24.6707 6.86279C25.4135 7.41385 25.2684 8.48696 24.5433 9.06106Z" fill="#3968BF"/>
</svg>
