<svg width="33" height="32" viewBox="0 0 33 32" fill="none" xmlns="http://www.w3.org/2000/svg">
<path fill-rule="evenodd" clip-rule="evenodd" d="M12.1693 6.66667C8.48737 6.66667 5.5026 9.65143 5.5026 13.3333C5.5026 14.6473 5.88125 15.8686 6.53497 16.899C6.74973 17.2375 6.8008 17.6546 6.67403 18.0349L6.27739 19.2248L7.4678 18.8282C7.84807 18.7014 8.26518 18.7525 8.60364 18.9672C9.63404 19.621 10.8554 19.9998 12.1694 19.9998C12.2959 19.9998 12.4216 19.9962 12.5462 19.9893C16.0522 19.7946 18.8359 16.8887 18.8359 13.3333C18.8359 9.65143 15.8512 6.66667 12.1693 6.66667ZM2.83594 13.3333C2.83594 8.17868 7.01461 4 12.1693 4C15.8965 4 19.1134 6.18477 20.6093 9.34352C25.5597 9.57326 29.5019 13.6597 29.5019 18.6667C29.5019 20.2672 29.099 21.7781 28.3857 23.0983L28.7737 24.2621C28.8697 24.5502 28.9686 24.8466 29.0276 25.0982C29.0848 25.3424 29.1724 25.7971 28.9989 26.2839C28.7988 26.845 28.3576 27.2931 27.7878 27.4962C27.3003 27.6701 26.8448 27.5816 26.6018 27.5245C26.3517 27.4658 26.057 27.3675 25.7711 27.2721C25.766 27.2704 25.7609 27.2687 25.7558 27.267C25.745 27.2637 25.7343 27.2603 25.7237 27.2567L24.6006 26.8824C23.2816 27.5953 21.7715 28.0002 20.1695 28.0002C16.4404 28.0002 13.2248 25.8139 11.7297 22.6562C10.2912 22.5894 8.93572 22.1963 7.73781 21.549L6.61423 21.9234C6.60605 21.9261 6.59784 21.9288 6.5896 21.9314C6.58014 21.9345 6.57067 21.9377 6.56118 21.9408C6.27736 22.0355 5.9842 22.1333 5.73515 22.1917C5.49207 22.2488 5.03836 22.3363 4.55216 22.1629C3.98877 21.962 3.54161 21.5181 3.33924 20.9506C3.16549 20.4634 3.25369 20.0083 3.31085 19.7649C3.36958 19.5149 3.46785 19.2203 3.56323 18.9344C3.56814 18.9196 3.57305 18.9049 3.57794 18.8903C3.57933 18.8861 3.58074 18.8819 3.58217 18.8778L3.95318 17.7647C3.24035 16.4454 2.83594 14.9351 2.83594 13.3333ZM14.6077 22.3445C15.8019 24.1466 17.8482 25.3335 20.1695 25.3335C21.4831 25.3335 22.7042 24.9546 23.7347 24.3006C24.0732 24.0858 24.4904 24.0347 24.8707 24.1615L26.0615 24.5584L25.6648 23.3683C25.5413 22.9979 25.5864 22.592 25.7881 22.2577L25.9691 21.9579C26.5204 20.9889 26.8352 19.8669 26.8352 18.6667C26.8352 15.4136 24.5059 12.705 21.4242 12.1179C21.4759 12.5158 21.5026 12.9214 21.5026 13.3333C21.5026 17.6445 18.5802 21.2722 14.6077 22.3445Z" fill="#3968BF"/>
</svg>
