<svg width="33" height="32" viewBox="0 0 33 32" fill="none" xmlns="http://www.w3.org/2000/svg">
<path fill-rule="evenodd" clip-rule="evenodd" d="M16.5013 5.33317C10.6103 5.33317 5.83464 10.1088 5.83464 15.9998C5.83464 21.8909 10.6103 26.6665 16.5013 26.6665C22.3923 26.6665 27.168 21.8909 27.168 15.9998C27.168 10.1088 22.3923 5.33317 16.5013 5.33317ZM3.16797 15.9998C3.16797 8.63604 9.13751 2.6665 16.5013 2.6665C23.8651 2.6665 29.8346 8.63604 29.8346 15.9998C29.8346 23.3636 23.8651 29.3332 16.5013 29.3332C9.13751 29.3332 3.16797 23.3636 3.16797 15.9998ZM21.4441 12.3904C21.9648 12.9111 21.9648 13.7553 21.4441 14.276L16.1108 19.6093C15.5901 20.13 14.7459 20.13 14.2252 19.6093L11.5585 16.9426C11.0378 16.4219 11.0378 15.5777 11.5585 15.057C12.0792 14.5363 12.9234 14.5363 13.4441 15.057L15.168 16.7809L19.5585 12.3904C20.0792 11.8697 20.9234 11.8697 21.4441 12.3904Z" fill="#3968BF"/>
</svg>
