<svg width="33" height="32" viewBox="0 0 33 32" fill="none" xmlns="http://www.w3.org/2000/svg">
<path fill-rule="evenodd" clip-rule="evenodd" d="M5.91716 14.6665H9.86567C10.0032 11.7278 10.5919 9.04239 11.5117 6.97304C11.592 6.79225 11.6755 6.6148 11.7621 6.44116C8.62776 7.99816 6.36795 11.0514 5.91716 14.6665ZM16.5013 2.6665C9.13751 2.6665 3.16797 8.63604 3.16797 15.9998C3.16797 23.3636 9.13751 29.3332 16.5013 29.3332C23.8651 29.3332 29.8346 23.3636 29.8346 15.9998C29.8346 8.63604 23.8651 2.6665 16.5013 2.6665ZM16.5013 5.33317C16.1988 5.33317 15.8102 5.46557 15.3445 5.90872C14.872 6.3584 14.3858 7.07212 13.9485 8.05607C13.1999 9.74045 12.6711 12.0445 12.5355 14.6665H20.4671C20.3315 12.0445 19.8027 9.74045 19.0541 8.05607C18.6168 7.07212 18.1306 6.3584 17.6581 5.90872C17.1924 5.46557 16.8038 5.33317 16.5013 5.33317ZM23.1369 14.6665C22.9994 11.7278 22.4107 9.04239 21.491 6.97304C21.4106 6.79225 21.3271 6.6148 21.2405 6.44116C24.3748 7.99816 26.6346 11.0514 27.0854 14.6665H23.1369ZM20.4671 17.3332H12.5355C12.6711 19.9552 13.1999 22.2592 13.9485 23.9436C14.3858 24.9275 14.872 25.6413 15.3445 26.091C15.8102 26.5341 16.1988 26.6665 16.5013 26.6665C16.8038 26.6665 17.1924 26.5341 17.6581 26.091C18.1306 25.6413 18.6168 24.9275 19.0541 23.9436C19.8027 22.2592 20.3315 19.9552 20.4671 17.3332ZM21.2405 25.5585C21.3271 25.3849 21.4106 25.2074 21.491 25.0266C22.4107 22.9573 22.9994 20.2719 23.1369 17.3332H27.0854C26.6346 20.9482 24.3748 24.0015 21.2405 25.5585ZM11.7621 25.5585C11.6755 25.3849 11.592 25.2074 11.5117 25.0266C10.5919 22.9573 10.0032 20.2719 9.86567 17.3332H5.91716C6.36795 20.9482 8.62776 24.0015 11.7621 25.5585Z" fill="#3968BF"/>
</svg>
