<svg width="33" height="32" viewBox="0 0 33 32" fill="none" xmlns="http://www.w3.org/2000/svg">
<path fill-rule="evenodd" clip-rule="evenodd" d="M9.0489 5.3335H24.6184C25.3212 5.33347 25.9273 5.33345 26.4265 5.37426C26.9536 5.41735 27.4775 5.51249 27.9819 5.76947C28.7331 6.15223 29.3468 6.76315 29.731 7.51724C29.9879 8.02149 30.0829 8.54557 30.1259 9.07212C30.1667 9.57103 30.1667 10.1766 30.1667 10.878V21.123C30.1667 21.8244 30.1667 22.4297 30.1259 22.9284C30.0829 23.4549 29.9878 23.9786 29.731 24.4827C29.3471 25.236 28.7338 25.848 27.9819 26.2311C27.4778 26.488 26.9541 26.5831 26.4276 26.6261C25.9289 26.6669 25.3236 26.6669 24.6222 26.6668H9.04452C8.34307 26.6669 7.73753 26.6669 7.23862 26.6261C6.71208 26.5831 6.188 26.4881 5.68374 26.2311C4.93034 25.8473 4.31909 25.2346 3.93598 24.4827C3.67895 23.9782 3.58384 23.4541 3.54076 22.927C3.49996 22.4276 3.49998 21.8214 3.5 21.1185V10.8824C3.49998 10.1795 3.49996 9.57303 3.54076 9.07348C3.58382 8.54632 3.67888 8.02183 3.93598 7.51724C4.31947 6.76459 4.9311 6.15297 5.68374 5.76947C6.18833 5.51237 6.71282 5.41731 7.23998 5.37426C7.73953 5.33345 8.34601 5.33347 9.0489 5.3335ZM7.45707 8.03207C7.0946 8.06168 6.96023 8.11194 6.89439 8.14549C6.6435 8.27332 6.43983 8.477 6.31199 8.72788C6.27844 8.79373 6.22818 8.9281 6.19858 9.29056C6.17143 9.62285 6.16735 10.0468 6.16677 10.6668H27.4999C27.4993 10.0459 27.4953 9.62169 27.4681 9.28931C27.4386 8.92755 27.3884 8.7935 27.355 8.72788C27.2279 8.47844 27.0235 8.27406 26.7712 8.14549C26.7051 8.11182 26.571 8.06164 26.2092 8.03206C25.8318 8.0012 25.3357 8.00017 24.5669 8.00017H9.10026C8.33154 8.00017 7.83501 8.0012 7.45707 8.03207ZM27.5 16.0002H6.16667V21.0671C6.16667 21.8358 6.16771 22.3321 6.19857 22.7098C6.22816 23.0718 6.27838 23.206 6.31199 23.272C6.44021 23.5237 6.64426 23.7277 6.89439 23.8551C6.96001 23.8886 7.09406 23.9387 7.45582 23.9683C7.83307 23.9991 8.32862 24.0002 9.09588 24.0002H24.5708C25.3381 24.0002 25.8333 23.9991 26.2103 23.9683C26.5715 23.9388 26.7054 23.8886 26.7712 23.8551C27.0228 23.7269 27.2275 23.5222 27.355 23.272C27.3885 23.2062 27.4386 23.0723 27.4681 22.7111C27.499 22.3341 27.5 21.8389 27.5 21.0716V16.0002ZM8.83334 20.0002C8.83334 19.2638 9.43029 18.6668 10.1667 18.6668H15.5C16.2364 18.6668 16.8333 19.2638 16.8333 20.0002C16.8333 20.7365 16.2364 21.3335 15.5 21.3335H10.1667C9.43029 21.3335 8.83334 20.7365 8.83334 20.0002Z" fill="#3968BF"/>
</svg>
