<svg width="33" height="32" viewBox="0 0 33 32" fill="none" xmlns="http://www.w3.org/2000/svg">
<path fill-rule="evenodd" clip-rule="evenodd" d="M10.0476 5.3335H22.9504C23.6532 5.33347 24.2593 5.33345 24.7585 5.37426C25.2856 5.41735 25.8095 5.51249 26.3139 5.76947C27.0651 6.15223 27.6788 6.76315 28.063 7.51724C28.3199 8.02149 28.4149 8.54557 28.458 9.07212C28.4987 9.57103 28.4987 10.1766 28.4987 10.878V21.4002C30.0202 21.709 31.1654 23.0542 31.1654 24.6668C31.1654 26.5078 29.673 28.0002 27.832 28.0002H5.16536C3.32442 28.0002 1.83203 26.5078 1.83203 24.6668C1.83203 23.0542 2.9772 21.709 4.4987 21.4002L4.4987 10.8824C4.49867 10.1795 4.49865 9.57303 4.53945 9.07348C4.58251 8.54632 4.67757 8.02182 4.93467 7.51724C5.31817 6.76459 5.92979 6.15297 6.68244 5.76947C7.18702 5.51237 7.71152 5.41731 8.23868 5.37426C8.73823 5.33345 9.3447 5.33347 10.0476 5.3335ZM7.16536 21.3335H25.832V10.9294C25.832 10.1621 25.831 9.66656 25.8002 9.28931C25.7706 8.92755 25.7204 8.7935 25.687 8.72788C25.5599 8.47844 25.3556 8.27406 25.1032 8.14549C25.0372 8.11182 24.903 8.06164 24.5413 8.03206C24.1638 8.0012 23.6677 8.00017 22.899 8.00017H10.099C9.33023 8.00017 8.83371 8.0012 8.45576 8.03207C8.0933 8.06168 7.95893 8.11194 7.89308 8.14549C7.6422 8.27332 7.43852 8.477 7.31069 8.72788C7.27714 8.79373 7.22688 8.9281 7.19727 9.29056C7.1664 9.66851 7.16536 10.165 7.16536 10.9338V21.3335ZM5.16536 24.0002C4.79717 24.0002 4.4987 24.2986 4.4987 24.6668C4.4987 25.035 4.79717 25.3335 5.16536 25.3335H27.832C28.2002 25.3335 28.4987 25.035 28.4987 24.6668C28.4987 24.2986 28.2002 24.0002 27.832 24.0002H5.16536Z" fill="#3968BF"/>
</svg>
