<svg width="33" height="32" viewBox="0 0 33 32" fill="none" xmlns="http://www.w3.org/2000/svg">
<path fill-rule="evenodd" clip-rule="evenodd" d="M14.6841 3.42065C15.3988 1.87131 17.6015 1.87042 18.3165 3.42056L21.5366 10.4015L29.1703 11.3067C30.868 11.5079 31.5429 13.6045 30.2922 14.7612L24.649 19.9809L26.1468 27.5212C26.4787 29.1921 24.7003 30.4921 23.2084 29.657L16.5011 25.9015L9.79219 29.656C8.30572 30.4879 6.5195 29.1982 6.85271 27.5212L8.35087 19.9808L2.70703 14.7611C1.45405 13.6024 2.13465 11.5076 3.82939 11.3067L11.4643 10.4011L14.6841 3.42065ZM16.5003 5.84974L13.7293 11.8573C13.4369 12.4913 12.8363 12.9237 12.1483 13.0053L5.57857 13.7845L10.4358 18.2768C10.9488 18.7511 11.1739 19.456 11.039 20.1352L9.74979 26.6239L15.5242 23.3924C16.1291 23.0538 16.8681 23.0509 17.4771 23.3919L23.2498 26.624L21.9608 20.1347C21.8256 19.454 22.0523 18.7501 22.564 18.2769L27.4209 13.7846L20.8511 13.0056C20.1582 12.9234 19.5617 12.4867 19.2714 11.8572L16.5003 5.84974Z" fill="#3968BF"/>
</svg>
