<svg width="32" height="32" viewBox="0 0 32 32" fill="none" xmlns="http://www.w3.org/2000/svg">
<path fill-rule="evenodd" clip-rule="evenodd" d="M8.21687 6.66651H23.7863C24.4892 6.66648 25.0953 6.66646 25.5945 6.70727C26.1215 6.75036 26.6455 6.8455 27.1498 7.10248C27.901 7.48524 28.5147 8.09616 28.899 8.85025C29.1559 9.3545 29.2509 9.87858 29.2939 10.4051C29.3347 10.904 29.3347 11.5096 29.3346 12.211V19.7886C29.3347 20.4901 29.3347 21.0954 29.2939 21.5941C29.2509 22.1206 29.1558 22.6443 28.8989 23.1484C28.5155 23.901 27.9025 24.514 27.1498 24.8975C26.6457 25.1543 26.122 25.2494 25.5955 25.2924C25.0969 25.3332 24.4916 25.3332 23.7902 25.3332L8.00029 25.3331C7.3551 25.3326 6.78806 25.3293 6.30993 25.2839C5.81652 25.2371 5.3259 25.1391 4.85171 24.8975C4.09762 24.5133 3.4867 23.8996 3.10395 23.1484C2.84696 22.644 2.75182 22.1201 2.70874 21.593C2.66793 21.0938 2.66795 20.4877 2.66797 19.7849V12.2154C2.66795 11.5125 2.66793 10.906 2.70873 10.4065C2.75178 9.87933 2.84685 9.35483 3.10395 8.85025C3.48744 8.0976 4.09906 7.48597 4.85171 7.10248C5.3563 6.84538 5.88079 6.75032 6.40795 6.70726C6.9075 6.66646 7.51398 6.66648 8.21687 6.66651ZM6.62503 9.36508C6.26257 9.39468 6.1282 9.44495 6.06235 9.4785C5.81147 9.60633 5.60779 9.81001 5.47996 10.0609C5.44641 10.1267 5.39615 10.2611 5.36654 10.6236C5.33567 11.0015 5.33464 11.498 5.33464 12.2668V19.7334C5.33464 20.5022 5.33568 20.9983 5.36654 21.3757C5.39611 21.7375 5.4463 21.8716 5.47996 21.9377C5.60853 22.19 5.81291 22.3944 6.06235 22.5215C6.12355 22.5526 6.24622 22.5993 6.56167 22.6292C6.68084 22.6405 6.81385 22.6484 6.96671 22.6539C7.28578 21.9665 7.82806 21.4083 8.43332 21.0048C9.40487 20.3571 10.6702 19.9998 12.0013 19.9998C13.3324 19.9998 14.5978 20.3571 15.5693 21.0048C16.1783 21.4108 16.7234 21.9734 17.0417 22.6665H23.7388C24.506 22.6665 25.0013 22.6655 25.3782 22.6346C25.7395 22.6051 25.8734 22.555 25.9392 22.5215C26.1901 22.3936 26.3951 22.1886 26.5229 21.9377C26.5564 21.8719 26.6066 21.738 26.6361 21.3768C26.6669 20.9998 26.668 20.5046 26.668 19.7373V12.2624C26.668 11.4951 26.6669 10.9996 26.6361 10.6223C26.6065 10.2606 26.5564 10.1265 26.5229 10.0609C26.3958 9.81145 26.1915 9.60706 25.9392 9.4785C25.8731 9.44483 25.739 9.39464 25.3772 9.36507C24.9997 9.33421 24.5037 9.33317 23.7349 9.33317H8.26823C7.49951 9.33317 7.00298 9.33421 6.62503 9.36508ZM12.0013 13.3332C11.2649 13.3332 10.668 13.9301 10.668 14.6665C10.668 15.4029 11.2649 15.9998 12.0013 15.9998C12.7377 15.9998 13.3346 15.4029 13.3346 14.6665C13.3346 13.9301 12.7377 13.3332 12.0013 13.3332ZM8.0013 14.6665C8.0013 12.4574 9.79217 10.6665 12.0013 10.6665C14.2104 10.6665 16.0013 12.4574 16.0013 14.6665C16.0013 16.8756 14.2104 18.6665 12.0013 18.6665C9.79217 18.6665 8.0013 16.8756 8.0013 14.6665Z" fill="#3968BF"/>
<path d="M18.6654 14.6663C18.6654 13.93 19.2623 13.333 19.9987 13.333H23.9987C24.7351 13.333 25.332 13.93 25.332 14.6663C25.332 15.4027 24.7351 15.9997 23.9987 15.9997H19.9987C19.2623 15.9997 18.6654 15.4027 18.6654 14.6663Z" fill="#3968BF"/>
<path d="M17.332 18.6663C17.332 17.93 17.929 17.333 18.6654 17.333H23.9987C24.7351 17.333 25.332 17.93 25.332 18.6663C25.332 19.4027 24.7351 19.9997 23.9987 19.9997H18.6654C17.929 19.9997 17.332 19.4027 17.332 18.6663Z" fill="#3968BF"/>
</svg>
