<svg width="18" height="17" viewBox="0 0 18 17" fill="none" xmlns="http://www.w3.org/2000/svg">
<path fill-rule="evenodd" clip-rule="evenodd" d="M9.00028 14L4.9159 16.1473C4.42705 16.4043 3.82242 16.2163 3.56542 15.7275C3.46308 15.5328 3.42777 15.3099 3.46495 15.0931L4.24499 10.5451L0.940661 7.32417C0.545177 6.93866 0.537085 6.30555 0.922586 5.91007C1.07609 5.75258 1.27724 5.6501 1.49487 5.61847L6.06135 4.95493L8.10354 0.816996C8.34796 0.321742 8.94759 0.118403 9.44284 0.362825C9.64005 0.460156 9.79968 0.619783 9.89701 0.816996L11.9392 4.95493L16.5057 5.61847C17.0522 5.69789 17.4309 6.20533 17.3515 6.75188C17.3199 6.96952 17.2174 7.17066 17.0599 7.32417L13.7556 10.5451L14.5356 15.0931C14.629 15.6375 14.2634 16.1544 13.719 16.2478C13.5023 16.2849 13.2793 16.2496 13.0847 16.1473L9.00028 14Z" fill="#F9B411"/>
</svg>
