<svg width="152" height="40" viewBox="0 0 152 40" fill="none" xmlns="http://www.w3.org/2000/svg">
<g clip-path="url(#clip0_4665_26588)">
<path d="M23.9442 18.6024C23.907 14.1849 27.5878 12.0316 27.7592 11.9354C25.6729 8.9164 22.4391 8.50202 21.299 8.47243C18.5794 8.19129 15.9491 10.0856 14.5633 10.0856C13.155 10.0856 11.0239 8.50202 8.72153 8.54646C5.76339 8.59081 2.99901 10.2928 1.48645 12.927C-1.64305 18.3065 0.689197 26.209 3.69201 30.56C5.18962 32.6911 6.94072 35.0664 9.23567 34.9849C11.4785 34.8961 12.3204 33.5642 15.0252 33.5642C17.7076 33.5642 18.4975 34.9849 20.837 34.9332C23.2438 34.8961 24.7639 32.7946 26.2093 30.6488C27.9455 28.207 28.6385 25.8023 28.6683 25.6837C28.6087 25.6467 23.9888 23.8931 23.9442 18.6024ZM19.5257 5.60883C20.7328 4.10674 21.5598 2.07188 21.3288 0C19.5853 0.0739557 17.3946 1.19869 16.1428 2.66384C15.0326 3.95874 14.0342 6.07497 14.2951 8.06548C16.2471 8.20605 18.2664 7.08131 19.5257 5.60883Z" fill="black"/>
<path d="M56.4542 34.665H53.3174L51.5962 29.3077H45.6278L43.9884 34.665H40.9336L46.8498 16.4177H50.5008L56.4542 34.665ZM51.082 27.0583L49.5247 22.2931C49.3608 21.8045 49.0478 20.6577 48.6008 18.8522H48.5487C48.3698 19.6291 48.0718 20.776 47.6768 22.2931L46.1494 27.0583H51.082ZM71.6401 27.924C71.6401 30.1587 71.0289 31.9272 69.8068 33.2295C68.7111 34.3839 67.3479 34.961 65.7234 34.961C63.9648 34.961 62.7059 34.3394 61.9388 33.0963V40.0001H58.9952V25.83C58.9952 24.424 58.9582 22.9811 58.8835 21.5086H61.4759L61.6407 23.5953H61.6921C62.6763 22.0266 64.1665 21.2348 66.1628 21.2348C67.7277 21.2348 69.0316 21.8491 70.0752 23.0773C71.1179 24.3057 71.6401 25.9262 71.6401 27.924ZM68.6444 28.035C68.6444 26.755 68.3536 25.6969 67.7728 24.868C67.1389 24.0022 66.2825 23.5731 65.2092 23.5731C64.487 23.5731 63.8234 23.8174 63.2346 24.2908C62.6465 24.7718 62.2584 25.4008 62.0801 26.1703C61.9982 26.459 61.9532 26.7623 61.946 27.0583V29.2559C61.946 30.2104 62.2439 31.017 62.8328 31.683C63.421 32.3416 64.189 32.6745 65.1345 32.6745C66.2448 32.6745 67.1092 32.2454 67.7277 31.4018C68.3311 30.5434 68.6444 29.426 68.6444 28.035ZM86.8847 27.924C86.8847 30.1587 86.2742 31.9272 85.0514 33.2295C83.9565 34.3839 82.5932 34.961 80.9687 34.961C79.2102 34.961 77.9505 34.3394 77.1833 33.0963V40.0001H74.2398V25.83C74.2398 24.424 74.2028 22.9811 74.1282 21.5086H76.7214L76.8853 23.5953H76.9376C77.9208 22.0266 79.4111 21.2348 81.4083 21.2348C82.9731 21.2348 84.277 21.8491 85.3197 23.0773C86.3561 24.3057 86.8847 25.9262 86.8847 27.924ZM83.8818 28.035C83.8818 26.755 83.5917 25.6969 83.01 24.868C82.377 24.0022 81.5199 23.5731 80.4473 23.5731C79.7243 23.5731 79.0608 23.8174 78.4647 24.2908C77.8766 24.7718 77.4886 25.4008 77.3102 26.1703C77.2203 26.533 77.1689 26.8289 77.1689 27.0583V29.2559C77.1689 30.2104 77.4669 31.017 78.0549 31.683C78.6438 32.3416 79.4111 32.6745 80.3655 32.6745C81.4748 32.6745 82.3393 32.2454 82.958 31.4018C83.5764 30.5434 83.8818 29.426 83.8818 28.035ZM103.926 29.5518C103.926 31.1058 103.382 32.3711 102.294 33.3405C101.102 34.4061 99.4252 34.9389 97.2866 34.9389C95.312 34.9389 93.7253 34.5614 92.5252 33.7992L93.2031 31.3649C94.4925 32.127 95.9153 32.5042 97.4578 32.5042C98.568 32.5042 99.4324 32.2528 100.051 31.757C100.67 31.2612 100.982 30.5953 100.982 29.7665C100.982 29.0266 100.722 28.405 100.215 27.8943C99.7079 27.3913 98.866 26.9177 97.6819 26.4885C94.4628 25.2972 92.853 23.5509 92.853 21.2645C92.853 19.7698 93.4192 18.5414 94.5593 17.587C95.692 16.6324 97.1974 16.1514 99.0749 16.1514C100.744 16.1514 102.137 16.4399 103.248 17.0172L102.51 19.3998C101.466 18.8374 100.297 18.5637 98.9777 18.5637C97.9422 18.5637 97.1227 18.8152 96.5411 19.3183C96.0494 19.7698 95.8037 20.3174 95.8037 20.9686C95.8037 21.6862 96.0873 22.2857 96.6536 22.7518C97.1453 23.181 98.0314 23.6545 99.3208 24.1577C100.9 24.794 102.063 25.5266 102.808 26.3775C103.553 27.2286 103.926 28.2867 103.926 29.5518ZM113.687 23.7064H110.438V30.0921C110.438 31.72 111.011 32.5266 112.16 32.5266C112.688 32.5266 113.12 32.4821 113.471 32.3934L113.552 34.6132C112.972 34.8279 112.211 34.9389 111.265 34.9389C110.103 34.9389 109.193 34.5835 108.538 33.8807C107.882 33.1777 107.554 31.9938 107.554 30.3363V23.7064H105.625V21.5161H107.554V19.1038L110.446 18.2381V21.5161H113.694L113.687 23.7064ZM128.298 27.9832C128.298 30.0033 127.717 31.6682 126.555 32.9632C125.34 34.3024 123.724 34.9684 121.704 34.9684C119.76 34.9684 118.209 34.3246 117.054 33.0519C115.9 31.7718 115.326 30.1513 115.326 28.2052C115.326 26.163 115.922 24.498 117.114 23.1957C118.307 21.8934 119.909 21.2496 121.927 21.2496C123.872 21.2496 125.437 21.8934 126.614 23.1736C127.732 24.4093 128.298 26.015 128.298 27.9832ZM125.245 28.0499C125.245 26.8436 124.983 25.8077 124.454 24.9494C123.835 23.9061 122.955 23.3808 121.809 23.3808C120.631 23.3808 119.722 23.9061 119.111 24.9494C118.582 25.8151 118.322 26.8659 118.322 28.109C118.322 29.3152 118.582 30.3511 119.111 31.2169C119.745 32.2601 120.638 32.7856 121.786 32.7856C122.912 32.7856 123.79 32.2528 124.431 31.1947C124.975 30.2993 125.245 29.2559 125.245 28.0499ZM137.872 24.0837C137.568 24.0319 137.255 24.0022 136.941 24.0022C135.905 24.0022 135.11 24.387 134.542 25.1641C134.052 25.8522 133.805 26.7179 133.805 27.7612V34.665H130.861V25.6524C130.861 24.2687 130.838 22.8923 130.78 21.5086H133.343L133.447 24.0245H133.529C133.842 23.1587 134.326 22.4632 135.004 21.9377C135.615 21.4789 136.367 21.2348 137.136 21.2348C137.412 21.2348 137.649 21.2571 137.872 21.2867V24.0837ZM151.04 27.4652C151.047 27.9092 151.009 28.3533 150.934 28.7897H142.098C142.127 30.0921 142.56 31.0835 143.379 31.7718C144.124 32.3859 145.086 32.6894 146.271 32.6894C147.582 32.6894 148.774 32.4821 149.848 32.0677L150.309 34.0952C149.057 34.6354 147.575 34.9092 145.869 34.9092C143.812 34.9092 142.202 34.3099 141.025 33.1112C139.855 31.9123 139.267 30.2993 139.267 28.2793C139.267 26.2962 139.809 24.646 140.906 23.3289C142.047 21.923 143.596 21.2201 145.541 21.2201C147.448 21.2201 148.893 21.923 149.877 23.3289C150.644 24.4463 151.04 25.8225 151.04 27.4652ZM148.23 26.7104C148.253 25.8447 148.059 25.0974 147.657 24.461C147.15 23.6471 146.36 23.2401 145.309 23.2401C144.349 23.2401 143.565 23.6397 142.962 24.4315C142.47 25.0604 142.18 25.8225 142.09 26.7031L148.23 26.7104Z" fill="black"/>
<path d="M44.7685 9.97204C43.9489 9.97204 43.241 9.93503 42.6523 9.86841V1.0408C43.4795 0.91499 44.3141 0.848373 45.1486 0.855792C48.5239 0.855792 50.0813 2.50588 50.0813 5.1919C50.0737 8.29229 48.2408 9.97204 44.7685 9.97204ZM45.2676 1.98795C44.8132 1.98795 44.4257 2.01754 44.1055 2.08408V8.78812C44.2767 8.81771 44.612 8.82505 45.0814 8.82505C47.2944 8.82505 48.5537 7.57459 48.5537 5.23634C48.5462 3.14227 47.4063 1.98795 45.2676 1.98795ZM54.9245 10.0386C53.0244 10.0386 51.7875 8.62528 51.7875 6.70882C51.7875 4.7109 53.0468 3.29026 55.0288 3.29026C56.9064 3.29026 58.166 4.63695 58.166 6.60519C58.166 8.62528 56.8692 10.0386 54.9245 10.0386ZM54.9765 4.34096C53.9334 4.34096 53.2628 5.31029 53.2628 6.6718C53.2628 8.00372 53.9483 8.97304 54.9616 8.97304C55.9825 8.97304 56.6606 7.9371 56.6606 6.6422C56.6679 5.32513 55.9974 4.34096 54.9765 4.34096ZM69.0146 3.42343L66.9804 9.89059H65.654L64.8121 7.08618C64.6032 6.39799 64.4249 5.70248 64.2907 4.99954H64.261C64.1565 5.70248 63.955 6.41283 63.7388 7.08618L62.8447 9.89059H61.5039L59.5887 3.42343H61.0789L61.8163 6.49421C61.9883 7.22675 62.1369 7.91493 62.2566 8.57351H62.2864C62.3907 8.0259 62.5691 7.35257 62.8231 6.50905L63.7469 3.42343H64.9238L65.8106 6.44243C66.0268 7.17497 66.198 7.89275 66.3321 8.57351H66.369C66.4663 7.9075 66.6076 7.20457 66.8093 6.44243L67.599 3.42343H69.0146ZM76.5179 9.89059H75.0728V6.17605C75.0728 5.02914 74.6323 4.45936 73.7607 4.45936C72.9043 4.45936 72.3155 5.1919 72.3155 6.04283V9.89059H70.8702V5.27326C70.8702 4.70357 70.855 4.08942 70.8181 3.42343H72.0922L72.1588 4.42234H72.1957C72.5839 3.73424 73.3735 3.29026 74.2605 3.29026C75.6237 3.29026 76.5251 4.3262 76.5251 6.02064L76.5179 9.89059ZM80.5041 9.89059H79.0588V0.456177H80.5041V9.89059ZM85.787 10.0386C83.8872 10.0386 82.65 8.62528 82.65 6.70882C82.65 4.7109 83.9096 3.29026 85.8916 3.29026C87.7691 3.29026 89.0286 4.63695 89.0286 6.60519C89.0286 8.62528 87.7247 10.0386 85.787 10.0386ZM85.8393 4.34096C84.7957 4.34096 84.1258 5.31029 84.1258 6.6718C84.1258 8.00372 84.811 8.97304 85.824 8.97304C86.845 8.97304 87.5231 7.9371 87.5231 6.6422C87.5231 5.32513 86.8603 4.34096 85.8393 4.34096ZM94.7358 9.89059L94.6312 9.14321H94.5943C94.1549 9.7426 93.5065 10.0312 92.6872 10.0312C91.5166 10.0312 90.6899 9.21725 90.6899 8.12953C90.6899 6.53124 92.0831 5.7099 94.4971 5.7099V5.5915C94.4971 4.74049 94.0432 4.31136 93.1491 4.31136C92.508 4.31136 91.9415 4.47419 91.45 4.79236L91.159 3.84521C91.7632 3.47519 92.5152 3.28285 93.3949 3.28285C95.0932 3.28285 95.9577 4.1708 95.9577 5.95401V8.33672C95.9577 8.98789 95.9874 9.4984 96.0549 9.88317L94.7358 9.89059ZM94.5349 6.6718C92.9249 6.6718 92.1208 7.05658 92.1208 7.97413C92.1208 8.65488 92.5377 8.98788 93.1113 8.98788C93.8496 8.98788 94.5349 8.43286 94.5349 7.67073V6.6718ZM102.969 9.89059L102.903 8.85465H102.865C102.448 9.63904 101.748 10.0386 100.771 10.0386C99.1992 10.0386 98.0367 8.66972 98.0367 6.73842C98.0367 4.71833 99.2441 3.29026 100.89 3.29026C101.763 3.29026 102.381 3.57882 102.724 4.1708H102.753V0.456177H104.198V8.1443C104.198 8.76586 104.214 9.35782 104.251 9.88317H102.969V9.89059ZM102.76 6.08726C102.76 5.18447 102.157 4.40758 101.233 4.40758C100.16 4.40758 99.5045 5.35473 99.5045 6.67922C99.5045 7.98155 100.183 8.87691 101.204 8.87691C102.112 8.87691 102.76 8.09252 102.76 7.16022V6.08726ZM113.394 10.0386C111.494 10.0386 110.257 8.62528 110.257 6.70882C110.257 4.7109 111.515 3.29026 113.498 3.29026C115.376 3.29026 116.634 4.63695 116.634 6.60519C116.634 8.62528 115.339 10.0386 113.394 10.0386ZM113.446 4.34096C112.403 4.34096 111.731 5.31029 111.731 6.6718C111.731 8.00372 112.417 8.97304 113.431 8.97304C114.452 8.97304 115.129 7.9371 115.129 6.6422C115.137 5.32513 114.467 4.34096 113.446 4.34096ZM124.421 9.89059H122.975V6.17605C122.975 5.02914 122.536 4.45936 121.664 4.45936C120.807 4.45936 120.219 5.1919 120.219 6.04283V9.89059H118.773V5.27326C118.773 4.70357 118.758 4.08942 118.72 3.42343H119.995L120.063 4.42234H120.099C120.487 3.73424 121.277 3.29026 122.163 3.29026C123.528 3.29026 124.428 4.3262 124.428 6.02064V9.89059H124.421ZM134.153 4.50372H132.558V7.64113C132.558 8.44027 132.835 8.83989 133.399 8.83989C133.653 8.83989 133.869 8.8103 134.041 8.77328L134.079 9.86099C133.796 9.96462 133.422 10.0238 132.954 10.0238C131.813 10.0238 131.127 9.40226 131.127 7.75952V4.49637H130.174V3.416H131.127V2.23207L132.551 1.80293V3.416H134.144L134.153 4.50372ZM141.82 9.89059H140.374V6.20565C140.374 5.05133 139.934 4.46677 139.063 4.46677C138.309 4.46677 137.617 4.96994 137.617 5.99847V9.89801H136.171V0.456177H137.617V4.34096H137.647C138.103 3.63803 138.765 3.29026 139.607 3.29026C140.985 3.29026 141.827 4.35572 141.827 6.04283L141.82 9.89059ZM149.665 7.0048H145.321C145.352 8.22575 146.164 8.92126 147.371 8.92126C148.011 8.92126 148.607 8.81771 149.129 8.61786L149.354 9.61678C148.734 9.88317 148.011 10.0164 147.169 10.0164C145.136 10.0164 143.929 8.73626 143.929 6.76061C143.929 4.77752 145.165 3.29026 147.006 3.29026C148.667 3.29026 149.711 4.51113 149.711 6.36107C149.725 6.56825 149.711 6.7902 149.665 7.0048ZM148.339 5.97628C148.339 4.97729 147.832 4.27435 146.91 4.27435C146.074 4.27435 145.419 4.99213 145.329 5.97628H148.339Z" fill="black"/>
</g>
<defs>
<clipPath id="clip0_4665_26588">
<rect width="151.036" height="40" fill="white"/>
</clipPath>
</defs>
</svg>
