<svg width="174" height="40" viewBox="0 0 174 40" fill="none" xmlns="http://www.w3.org/2000/svg">
<g clip-path="url(#clip0_4665_26601)">
<path d="M56.6423 5.01356C56.6423 6.19437 56.3451 7.2276 55.6018 7.96558C54.7097 8.85115 53.6691 9.29397 52.3312 9.29397C50.9933 9.29397 49.9525 8.85115 49.0607 7.96558C48.1688 7.07993 47.7227 6.04679 47.7227 4.71839C47.7227 3.39001 48.1688 2.35686 49.0607 1.47121C49.9525 0.585648 50.9933 0.142822 52.3312 0.142822C52.9258 0.142822 53.5205 0.290402 54.1151 0.585648C54.7097 0.880807 55.1557 1.17605 55.453 1.6188L54.7097 2.35677C54.1151 1.6188 53.3718 1.32363 52.3312 1.32363C51.4392 1.32363 50.5472 1.6188 49.9525 2.35677C49.2093 2.94718 48.9121 3.83283 48.9121 4.86599C48.9121 5.89921 49.2093 6.78478 49.9525 7.37517C50.6958 7.96558 51.4392 8.40833 52.3312 8.40833C53.3718 8.40833 54.1151 8.11316 54.8584 7.37517C55.3044 6.93235 55.6018 6.34194 55.6018 5.60396H52.3312V4.57082H56.6423V5.01356Z" fill="black" stroke="black" stroke-width="0.153439" stroke-miterlimit="10"/>
<path d="M63.4766 1.32363H59.4627V4.128H63.1791V5.16123H59.4627V7.96558H63.4766V8.99872H58.2734V0.142822H63.4766V1.32363Z" fill="black" stroke="black" stroke-width="0.153439" stroke-miterlimit="10"/>
<path d="M68.3772 8.99872H67.1874V1.17605H64.6602V0.142822H70.9037V1.17605H68.3772V8.99872Z" fill="black" stroke="black" stroke-width="0.153439" stroke-miterlimit="10"/>
<path d="M75.2227 8.99872V0.142822H76.4113V8.99872H75.2227Z" fill="black" stroke="black" stroke-width="0.153439" stroke-miterlimit="10"/>
<path d="M81.4699 8.99872H80.2812V1.17605H77.7539V0.142822H83.8489V1.17605H81.3214V8.99872H81.4699Z" fill="black" stroke="black" stroke-width="0.153439" stroke-miterlimit="10"/>
<path d="M95.5861 7.96558C94.6945 8.85115 93.6535 9.29397 92.3156 9.29397C90.9776 9.29397 89.9374 8.85115 89.0449 7.96558C88.1533 7.07993 87.707 6.04679 87.707 4.71839C87.707 3.39001 88.1533 2.35686 89.0449 1.47121C89.9374 0.585648 90.9776 0.142822 92.3156 0.142822C93.6535 0.142822 94.6945 0.585648 95.5861 1.47121C96.4779 2.35686 96.924 3.39001 96.924 4.71839C96.924 5.89921 96.4779 7.07993 95.5861 7.96558ZM89.9374 7.2276C90.5322 7.81801 91.4239 8.26075 92.3156 8.26075C93.2081 8.26075 94.0997 7.96558 94.6945 7.2276C95.2893 6.6372 95.7347 5.75164 95.7347 4.71839C95.7347 3.68517 95.4377 2.7996 94.6945 2.2092C94.0997 1.6188 93.2081 1.17605 92.3156 1.17605C91.4239 1.17605 90.5322 1.47121 89.9374 2.2092C89.3428 2.7996 88.8965 3.68517 88.8965 4.71839C88.8965 5.60396 89.1942 6.48961 89.9374 7.2276Z" fill="black" stroke="black" stroke-width="0.153439" stroke-miterlimit="10"/>
<path d="M98.5664 8.99872V0.142822H99.9043L104.215 7.07993V5.3088V0.142822H105.405V8.99872H104.215L99.6066 1.76646V3.53759V8.99872H98.5664Z" fill="black" stroke="black" stroke-width="0.153439" stroke-miterlimit="10"/>
<path d="M87.4118 21.9928C83.8441 21.9928 81.0198 24.6497 81.0198 28.3398C81.0198 31.8821 83.8441 34.6864 87.4118 34.6864C90.9793 34.6864 93.8045 32.0296 93.8045 28.3398C93.8045 24.6497 90.9793 21.9928 87.4118 21.9928ZM87.4118 32.0296C85.479 32.0296 83.8441 30.406 83.8441 28.1921C83.8441 25.9781 85.479 24.3546 87.4118 24.3546C89.3444 24.3546 90.9793 25.8304 90.9793 28.1921C90.9793 30.5537 89.3444 32.0296 87.4118 32.0296ZM73.586 21.9928C70.0184 21.9928 67.194 24.6497 67.194 28.3398C67.194 31.8821 70.0184 34.6864 73.586 34.6864C77.1545 34.6864 79.9788 32.0296 79.9788 28.3398C79.9788 24.6497 77.1545 21.9928 73.586 21.9928ZM73.586 32.0296C71.6542 32.0296 70.0184 30.406 70.0184 28.1921C70.0184 25.9781 71.6542 24.3546 73.586 24.3546C75.5187 24.3546 77.1545 25.8304 77.1545 28.1921C77.1545 30.5537 75.5187 32.0296 73.586 32.0296ZM57.0852 23.9116V26.5685H63.4775C63.3289 28.0445 62.7342 29.2252 61.9908 29.9633C61.099 30.8488 59.6122 31.8821 57.0852 31.8821C53.0713 31.8821 50.098 28.7825 50.098 24.7973C50.098 20.8122 53.2199 17.7126 57.0852 17.7126C59.1664 17.7126 60.8017 18.5981 61.9908 19.6313L63.9235 17.7126C62.2882 16.2366 60.207 15.0558 57.2338 15.0558C51.882 15.0558 47.2734 19.4838 47.2734 24.7973C47.2734 30.1107 51.882 34.5388 57.2338 34.5388C60.207 34.5388 62.2882 33.6533 64.0721 31.7345C65.8561 29.9633 66.4507 27.4541 66.4507 25.5353C66.4507 24.945 66.4507 24.3546 66.302 23.9116H57.0852ZM124.577 25.9781C123.983 24.502 122.495 21.9928 119.225 21.9928C115.955 21.9928 113.279 24.502 113.279 28.3398C113.279 31.8821 115.955 34.6864 119.522 34.6864C122.347 34.6864 124.131 32.9152 124.726 31.8821L122.645 30.406C121.901 31.4392 121.009 32.1772 119.522 32.1772C118.036 32.1772 117.143 31.5869 116.4 30.2586L124.874 26.716L124.577 25.9781ZM115.955 28.0445C115.955 25.6829 117.888 24.3546 119.225 24.3546C120.265 24.3546 121.307 24.9449 121.603 25.6829L115.955 28.0445ZM108.967 34.096H111.792V15.6462H108.967V34.096ZM104.508 23.3212C103.764 22.5833 102.575 21.8454 101.088 21.8454C97.9668 21.8454 94.9931 24.6497 94.9931 28.1921C94.9931 31.7345 97.8182 34.3913 101.088 34.3913C102.575 34.3913 103.764 33.6533 104.359 32.9152H104.508V33.8007C104.508 36.1624 103.17 37.4908 101.088 37.4908C99.4532 37.4908 98.2637 36.3099 97.9668 35.2768L95.5878 36.3099C96.331 37.9336 98.1152 40 101.237 40C104.508 40 107.184 38.0812 107.184 33.5056V22.2881H104.508V23.3212ZM101.237 32.0296C99.3047 32.0296 97.6689 30.406 97.6689 28.1921C97.6689 25.9781 99.3047 24.3546 101.237 24.3546C103.17 24.3546 104.656 25.9781 104.656 28.1921C104.656 30.406 103.17 32.0296 101.237 32.0296ZM137.509 15.6462H130.821V34.096H133.646V27.1589H137.509C140.632 27.1589 143.605 24.9449 143.605 21.4026C143.605 17.8603 140.632 15.6462 137.509 15.6462ZM137.658 24.6497H133.646V18.303H137.658C139.739 18.303 140.929 20.0742 140.929 21.4026C140.78 22.8785 139.59 24.6497 137.658 24.6497ZM154.756 21.9928C152.673 21.9928 150.592 22.8785 149.849 24.7973L152.376 25.8304C152.971 24.7973 153.863 24.502 154.905 24.502C156.391 24.502 157.728 25.3877 157.877 26.8638V27.0112C157.431 26.716 156.242 26.2734 155.052 26.2734C152.376 26.2734 149.7 27.7494 149.7 30.406C149.7 32.9152 151.93 34.5388 154.31 34.5388C156.242 34.5388 157.133 33.6533 157.877 32.7678H158.026V34.2437H160.702V27.1589C160.403 23.7642 157.877 21.9928 154.756 21.9928ZM154.457 32.0296C153.566 32.0296 152.228 31.5869 152.228 30.406C152.228 28.93 153.863 28.4873 155.201 28.4873C156.391 28.4873 156.986 28.7826 157.728 29.0777C157.431 30.849 155.944 32.0296 154.457 32.0296ZM170.066 22.2881L166.945 30.2586H166.796L163.525 22.2881H160.552L165.459 33.5056L162.633 39.7048H165.459L173.04 22.2881H170.066ZM145.091 34.096H147.916V15.6462H145.091V34.096Z" fill="black"/>
<path d="M0.891932 37.7807C0.297282 37.4856 0 36.7476 0 36.0097C0 35.8621 0 35.5668 0 35.4192C0 24.4969 0 13.5745 0 2.79989C0 2.20948 0.148641 1.76674 0.297282 1.17634C0.446009 0.881092 0.743291 0.585931 1.04066 0.290771C7.43299 6.63748 13.6767 12.9841 19.9204 19.3311C13.528 25.2349 7.28435 31.4341 0.891932 37.7807Z" fill="#4E82E7"/>
<path d="M26.1641 12.8411C24.3801 14.6122 22.4476 16.3833 20.6636 18.3021C14.7173 12.2507 8.62218 6.19912 2.67578 0.14758C2.67578 0.14758 2.67578 0 2.82442 0C10.5548 4.28033 18.285 8.56074 26.1641 12.8411Z" fill="#55A05B"/>
<path d="M2.67578 37.7835C8.62218 31.8794 14.7173 25.9756 20.6636 20.0717C22.2989 21.6952 24.0829 23.3188 26.0154 25.0899C18.285 29.3704 10.5548 33.6508 2.82442 37.7835H2.67578Z" fill="#D14D3D"/>
<path d="M27.0552 24.5051C25.1226 22.734 23.3389 20.9628 21.4062 19.1915C23.3389 17.2728 25.2714 15.3541 27.2039 13.4353C27.7986 13.7304 28.3933 14.0257 28.9879 14.4684C30.4745 15.3541 32.1098 16.0919 33.5964 16.9775C34.0423 17.1252 34.3396 17.4205 34.6369 17.8632C35.2316 18.6011 35.2316 19.3392 34.6369 20.0771C34.3396 20.3724 34.0423 20.6676 33.5964 20.8152C31.5151 22.1436 29.2852 23.3244 27.0552 24.5051Z" fill="#E8B63F"/>
</g>
<defs>
<clipPath id="clip0_4665_26601">
<rect width="173.041" height="40" fill="white"/>
</clipPath>
</defs>
</svg>
