<svg width="112" height="36" viewBox="0 0 112 36" fill="none" xmlns="http://www.w3.org/2000/svg">
<rect width="112" height="36" rx="18" fill="#19191E"/>
<mask id="mask0_4665_24630" style="mask-type:luminance" maskUnits="userSpaceOnUse" x="17" y="9" width="78" height="18">
<path d="M94.0608 9.12854H17.9375V26.8716H94.0608V9.12854Z" fill="white"/>
</mask>
<g mask="url(#mask0_4665_24630)">
<path d="M42.7838 11.3279C42.7838 11.8459 42.6534 12.2991 42.3274 12.6228C41.9361 13.0113 41.4796 13.2056 40.8927 13.2056C40.3058 13.2056 39.8492 13.0113 39.458 12.6228C39.0668 12.2343 38.8711 11.7811 38.8711 11.1984C38.8711 10.6157 39.0668 10.1625 39.458 9.774C39.8492 9.38554 40.3058 9.19128 40.8927 9.19128C41.1535 9.19128 41.4144 9.25602 41.6752 9.38554C41.9361 9.51501 42.1317 9.64453 42.2621 9.83874L41.9361 10.1625C41.6752 9.83874 41.3492 9.70926 40.8927 9.70926C40.5014 9.70926 40.1101 9.83874 39.8492 10.1625C39.5232 10.4215 39.3929 10.81 39.3929 11.2632C39.3929 11.7164 39.5232 12.1049 39.8492 12.3639C40.1753 12.6228 40.5014 12.8171 40.8927 12.8171C41.3492 12.8171 41.6752 12.6876 42.0013 12.3639C42.1969 12.1696 42.3274 11.9106 42.3274 11.5869H40.8927V11.1337H42.7838V11.3279Z" fill="white" stroke="white" stroke-width="0.114471" stroke-miterlimit="10"/>
<path d="M45.7863 9.70926H44.0256V10.9394H45.6558V11.3927H44.0256V12.6228H45.7863V13.0761H43.5039V9.19128H45.7863V9.70926Z" fill="white" stroke="white" stroke-width="0.114471" stroke-miterlimit="10"/>
<path d="M47.9313 13.0761H47.4094V9.64453H46.3008V9.19128H49.0396V9.64453H47.9313V13.0761Z" fill="white" stroke="white" stroke-width="0.114471" stroke-miterlimit="10"/>
<path d="M50.9336 13.0761V9.19128H51.455V13.0761H50.9336Z" fill="white" stroke="white" stroke-width="0.114471" stroke-miterlimit="10"/>
<path d="M53.6769 13.0761H53.1555V9.64453H52.0469V9.19128H54.7205V9.64453H53.6118V13.0761H53.6769Z" fill="white" stroke="white" stroke-width="0.114471" stroke-miterlimit="10"/>
<path d="M59.8664 12.6228C59.4753 13.0113 59.0187 13.2056 58.4318 13.2056C57.8448 13.2056 57.3885 13.0113 56.997 12.6228C56.6059 12.2343 56.4102 11.7811 56.4102 11.1984C56.4102 10.6157 56.6059 10.1625 56.997 9.774C57.3885 9.38554 57.8448 9.19128 58.4318 9.19128C59.0187 9.19128 59.4753 9.38554 59.8664 9.774C60.2576 10.1625 60.4533 10.6157 60.4533 11.1984C60.4533 11.7164 60.2576 12.2343 59.8664 12.6228ZM57.3885 12.2991C57.6495 12.5581 58.0406 12.7523 58.4318 12.7523C58.8233 12.7523 59.2144 12.6228 59.4753 12.2991C59.7362 12.0401 59.9316 11.6517 59.9316 11.1984C59.9316 10.7452 59.8013 10.3567 59.4753 10.0977C59.2144 9.83874 58.8233 9.64453 58.4318 9.64453C58.0406 9.64453 57.6495 9.774 57.3885 10.0977C57.1277 10.3567 56.9319 10.7452 56.9319 11.1984C56.9319 11.5869 57.0625 11.9754 57.3885 12.2991Z" fill="white" stroke="white" stroke-width="0.114471" stroke-miterlimit="10"/>
<path d="M61.1758 13.0761V9.19128H61.7627L63.6537 12.2343V11.4574V9.19128H64.1755V13.0761H63.6537L61.6321 9.90351V10.6804V13.0761H61.1758Z" fill="white" stroke="white" stroke-width="0.114471" stroke-miterlimit="10"/>
<path d="M56.283 18.7761C54.718 18.7761 53.4791 19.9416 53.4791 21.5602C53.4791 23.1141 54.718 24.3443 56.283 24.3443C57.848 24.3443 59.0873 23.1789 59.0873 21.5602C59.0873 19.9416 57.848 18.7761 56.283 18.7761ZM56.283 23.1789C55.4352 23.1789 54.718 22.4666 54.718 21.4955C54.718 20.5243 55.4352 19.8121 56.283 19.8121C57.1308 19.8121 57.848 20.4595 57.848 21.4955C57.848 22.5314 57.1308 23.1789 56.283 23.1789ZM50.2182 18.7761C48.6532 18.7761 47.4142 19.9416 47.4142 21.5602C47.4142 23.1141 48.6532 24.3443 50.2182 24.3443C51.7835 24.3443 53.0224 23.1789 53.0224 21.5602C53.0224 19.9416 51.7835 18.7761 50.2182 18.7761ZM50.2182 23.1789C49.3708 23.1789 48.6532 22.4666 48.6532 21.4955C48.6532 20.5243 49.3708 19.8121 50.2182 19.8121C51.066 19.8121 51.7835 20.4595 51.7835 21.4955C51.7835 22.5314 51.066 23.1789 50.2182 23.1789ZM42.9798 19.6178V20.7833H45.7839C45.7187 21.4307 45.4578 21.9486 45.1318 22.2724C44.7406 22.6609 44.0884 23.1141 42.9798 23.1141C41.2191 23.1141 39.9148 21.7544 39.9148 20.0063C39.9148 18.2581 41.2843 16.8985 42.9798 16.8985C43.8928 16.8985 44.6101 17.2869 45.1318 17.7402L45.9796 16.8985C45.2622 16.251 44.3493 15.733 43.045 15.733C40.6974 15.733 38.6758 17.6754 38.6758 20.0063C38.6758 22.3371 40.6974 24.2796 43.045 24.2796C44.3493 24.2796 45.2622 23.8911 46.0447 23.0494C46.8273 22.2724 47.0881 21.1717 47.0881 20.33C47.0881 20.0711 47.0881 19.8121 47.023 19.6178H42.9798ZM72.5862 20.5243C72.3254 19.8768 71.6728 18.7761 70.2385 18.7761C68.8038 18.7761 67.63 19.8768 67.63 21.5602C67.63 23.1141 68.8038 24.3443 70.3688 24.3443C71.6077 24.3443 72.3904 23.5673 72.6514 23.1141L71.7384 22.4666C71.4124 22.9199 71.0207 23.2436 70.3688 23.2436C69.7167 23.2436 69.3252 22.9847 68.9992 22.4019L72.7164 20.8479L72.5862 20.5243ZM68.8038 21.4307C68.8038 20.3948 69.6517 19.8121 70.2385 19.8121C70.6947 19.8121 71.1515 20.071 71.2817 20.3948L68.8038 21.4307ZM65.7386 24.0853H66.9776V15.992H65.7386V24.0853ZM63.7825 19.3588C63.4561 19.0351 62.9348 18.7114 62.2823 18.7114C60.9132 18.7114 59.6087 19.9416 59.6087 21.4955C59.6087 23.0494 60.848 24.2148 62.2823 24.2148C62.9348 24.2148 63.4561 23.8911 63.7171 23.5673H63.7825V23.9558C63.7825 24.9917 63.1957 25.5745 62.2823 25.5745C61.5652 25.5745 61.0434 25.0565 60.9132 24.6033L59.8696 25.0565C60.1956 25.7687 60.9782 26.6752 62.3478 26.6752C63.7825 26.6752 64.9563 25.8334 64.9563 23.8263V18.9056H63.7825V19.3588ZM62.3478 23.1789C61.5001 23.1789 60.7825 22.4666 60.7825 21.4955C60.7825 20.5243 61.5001 19.8121 62.3478 19.8121C63.1957 19.8121 63.8477 20.5243 63.8477 21.4955C63.8477 22.4666 63.1957 23.1789 62.3478 23.1789ZM78.2591 15.992H75.3252V24.0853H76.5643V21.0423H78.2591C79.6287 21.0423 80.9331 20.071 80.9331 18.5171C80.9331 16.9633 79.6287 15.992 78.2591 15.992ZM78.3243 19.9416H76.5643V17.1575H78.3243C79.2372 17.1575 79.7592 17.9344 79.7592 18.5171C79.694 19.1646 79.172 19.9416 78.3243 19.9416ZM85.8245 18.7761C84.911 18.7761 83.9981 19.1646 83.6718 20.0063L84.7805 20.4595C85.0415 20.0063 85.433 19.8768 85.8897 19.8768C86.5416 19.8768 87.1283 20.2653 87.1935 20.9128V20.9775C86.9978 20.8479 86.4764 20.6538 85.9544 20.6538C84.7805 20.6538 83.6066 21.3012 83.6066 22.4666C83.6066 23.5673 84.5848 24.2796 85.6287 24.2796C86.4764 24.2796 86.8673 23.8911 87.1935 23.5026H87.2588V24.1501H88.4327V21.0423C88.3016 19.5531 87.1935 18.7761 85.8245 18.7761ZM85.6934 23.1789C85.3025 23.1789 84.7158 22.9847 84.7158 22.4666C84.7158 21.8192 85.433 21.625 86.0196 21.625C86.5416 21.625 86.8026 21.7545 87.1283 21.884C86.9978 22.6609 86.3459 23.1789 85.6934 23.1789ZM92.5405 18.9056L91.1714 22.4019H91.1062L89.6713 18.9056H88.3669L90.5195 23.8263L89.2798 26.5457H90.5195L93.8449 18.9056H92.5405ZM81.585 24.0853H82.8242V15.992H81.585V24.0853Z" fill="white"/>
<path d="M18.3288 25.7016C18.0679 25.5722 17.9375 25.2484 17.9375 24.9247C17.9375 24.86 17.9375 24.7304 17.9375 24.6657C17.9375 19.8745 17.9375 15.0832 17.9375 10.3568C17.9375 10.0978 18.0027 9.90356 18.0679 9.64457C18.1331 9.51506 18.2636 9.38558 18.394 9.2561C21.1981 12.0402 23.937 14.8242 26.6759 17.6084C23.8717 20.1982 21.1329 22.9176 18.3288 25.7016Z" fill="white"/>
<path d="M29.4129 14.7615C28.6303 15.5384 27.7826 16.3153 27 17.157C24.3915 14.5025 21.7179 11.8479 19.1094 9.19328C19.1094 9.19328 19.1094 9.12854 19.1746 9.12854C22.5656 11.0062 25.9566 12.8838 29.4129 14.7615Z" fill="white"/>
<path d="M19.1094 25.7029C21.7179 23.113 24.3915 20.5232 27 17.9333C27.7173 18.6455 28.4999 19.3578 29.3476 20.1347C25.9566 22.0124 22.5656 23.89 19.1746 25.7029H19.1094Z" fill="white"/>
<path d="M29.8022 19.878C28.9545 19.1011 28.172 18.3241 27.3242 17.5472C28.172 16.7054 29.0197 15.8638 29.8674 15.0221C30.1283 15.1516 30.3892 15.2811 30.65 15.4753C31.3021 15.8638 32.0195 16.1875 32.6716 16.5759C32.8672 16.6407 32.9976 16.7702 33.128 16.9644C33.3889 17.2882 33.3889 17.6119 33.128 17.9356C32.9976 18.0651 32.8672 18.1947 32.6716 18.2594C31.7586 18.8421 30.7804 19.3601 29.8022 19.878Z" fill="white"/>
</g>
</svg>
