<svg width="64" height="64" viewBox="0 0 64 64" fill="none" xmlns="http://www.w3.org/2000/svg">
<path d="M40.8845 0C28.1245 0 17.7778 10.3467 17.7778 23.1133C17.7778 35.8733 28.1245 46.22 40.8845 46.22C53.6511 46.22 63.9978 35.8733 63.9978 23.1133C63.9978 10.3467 53.6511 0 40.8845 0Z" fill="#D28147"/>
<path d="M23.1133 17.78C10.3467 17.78 0 28.1267 0 40.8867C0 53.6533 10.3467 64 23.1133 64C35.8733 64 46.22 53.6533 46.22 40.8867C46.22 28.1267 35.8733 17.78 23.1133 17.78Z" fill="#F6B059"/>
<path d="M20.4478 35.5526C17.9878 35.5526 16.0012 37.546 16.0012 39.9993C16.0012 42.4526 17.9878 44.446 20.4478 44.446C22.9012 44.446 24.8878 42.4526 24.8878 39.9993C24.8878 37.546 22.9012 35.5526 20.4478 35.5526ZM24.0012 24.886C22.5278 24.886 21.3345 26.0793 21.3345 27.5527C21.3345 29.026 22.5278 30.2193 24.0012 30.2193C25.4745 30.2193 26.6678 29.026 26.6678 27.5527C26.6678 26.0793 25.4745 24.886 24.0012 24.886ZM30.2211 46.2193C28.2612 46.2193 26.6678 47.8126 26.6678 49.7793C26.6678 51.7393 28.2612 53.3326 30.2211 53.3326C32.1878 53.3326 33.7811 51.7393 33.7811 49.7793C33.7811 47.8126 32.1878 46.2193 30.2211 46.2193ZM9.78117 40.886C8.30783 40.886 7.1145 42.0793 7.1145 43.5526C7.1145 45.026 8.30783 46.2193 9.78117 46.2193C11.2545 46.2193 12.4478 45.026 12.4478 43.5526C12.4478 42.0793 11.2545 40.886 9.78117 40.886ZM34.6678 35.5526C33.1945 35.5526 32.0011 36.746 32.0011 38.2193C32.0011 39.6926 33.1945 40.886 34.6678 40.886C36.1411 40.886 37.3345 39.6926 37.3345 38.2193C37.3345 36.746 36.1411 35.5526 34.6678 35.5526ZM17.7812 51.5526C16.7945 51.5526 16.0012 52.3526 16.0012 53.3326C16.0012 54.3126 16.7945 55.1126 17.7812 55.1126C18.7612 55.1126 19.5545 54.3126 19.5545 53.3326C19.5545 52.3526 18.7612 51.5526 17.7812 51.5526Z" fill="#6D420D"/>
<path d="M35.5538 7.11435C33.5938 7.11435 32.0005 8.70101 32.0005 10.6677C32.0005 12.6343 33.5938 14.221 35.5538 14.221C37.5205 14.221 39.1138 12.6343 39.1138 10.6677C39.1138 8.70101 37.5205 7.11435 35.5538 7.11435ZM45.3338 16.001C43.8605 16.001 42.6671 17.1943 42.6671 18.6677C42.6671 20.141 43.8605 21.3343 45.3338 21.3343C46.8071 21.3343 48.0005 20.141 48.0005 18.6677C48.0005 17.1943 46.8071 16.001 45.3338 16.001ZM47.1071 5.33435C45.6338 5.33435 44.4405 6.52768 44.4405 8.00101C44.4405 9.47435 45.6338 10.6677 47.1071 10.6677C48.5805 10.6677 49.7738 9.47435 49.7738 8.00101C49.7738 6.52768 48.5805 5.33435 47.1071 5.33435ZM53.3338 24.8877C52.3538 24.8877 51.5538 25.6877 51.5538 26.6677C51.5538 27.6477 52.3538 28.4477 53.3338 28.4477C54.3138 28.4477 55.1138 27.6477 55.1138 26.6677C55.1138 25.6877 54.3138 24.8877 53.3338 24.8877Z" fill="#7A441D"/>
</svg>
