<svg width="112" height="36" viewBox="0 0 112 36" fill="none" xmlns="http://www.w3.org/2000/svg">
<rect width="112" height="36" rx="18" fill="#19191E"/>
<g clip-path="url(#clip0_4665_24647)">
<mask id="mask0_4665_24647" style="mask-type:luminance" maskUnits="userSpaceOnUse" x="21" y="8" width="70" height="20">
<path d="M90.9133 8.55591H21.0859V27.4436H90.9133V8.55591Z" fill="white"/>
</mask>
<g mask="url(#mask0_4665_24647)">
<path d="M32.1233 17.1309C32.1061 15.0946 33.8028 14.102 33.8819 14.0576C32.9201 12.666 31.4295 12.475 30.904 12.4614C29.6503 12.3318 28.4378 13.205 27.799 13.205C27.1499 13.205 26.1675 12.475 25.1062 12.4955C23.7426 12.5159 22.4684 13.3005 21.7711 14.5148C20.3286 16.9945 21.4036 20.6372 22.7878 22.6429C23.4781 23.6252 24.2853 24.7201 25.3432 24.6826C26.3771 24.6417 26.7652 24.0277 28.012 24.0277C29.2485 24.0277 29.6125 24.6826 30.691 24.6587C31.8004 24.6417 32.5011 23.673 33.1674 22.6838C33.9677 21.5582 34.2871 20.4497 34.3009 20.3951C34.2734 20.378 32.1438 19.5697 32.1233 17.1309ZM30.0865 11.1414C30.643 10.449 31.0241 9.51096 30.9177 8.55591C30.114 8.59 29.1042 9.10846 28.5271 9.78383C28.0154 10.3807 27.5552 11.3562 27.6754 12.2738C28.5752 12.3386 29.506 11.8201 30.0865 11.1414Z" fill="white"/>
<path d="M47.1075 24.535H45.6616L44.8682 22.0655H42.117L41.3613 24.535H39.9531L42.6803 16.1237H44.3632L47.1075 24.535ZM44.6312 21.0287L43.9133 18.8321C43.8378 18.6069 43.6935 18.0782 43.4874 17.246H43.4634C43.3809 17.6041 43.2435 18.1328 43.0615 18.8321L42.3574 21.0287H44.6312ZM54.1076 21.4277C54.1076 22.4578 53.8259 23.273 53.2626 23.8733C52.7575 24.4054 52.1291 24.6715 51.3803 24.6715C50.5696 24.6715 49.9893 24.385 49.6357 23.8119V26.9943H48.2788V20.4624C48.2788 19.8144 48.2618 19.1492 48.2273 18.4705H49.4223L49.4983 19.4324H49.522C49.9756 18.7092 50.6626 18.3443 51.5828 18.3443C52.3042 18.3443 52.9052 18.6274 53.3863 19.1936C53.8669 19.7598 54.1076 20.5068 54.1076 21.4277ZM52.7267 21.4789C52.7267 20.8888 52.5927 20.4011 52.3249 20.019C52.0327 19.6199 51.638 19.4221 51.1432 19.4221C50.8103 19.4221 50.5044 19.5347 50.233 19.7529C49.9619 19.9747 49.783 20.2646 49.7009 20.6193C49.6631 20.7524 49.6424 20.8922 49.639 21.0287V22.0417C49.639 22.4816 49.7763 22.8534 50.0478 23.1605C50.3189 23.464 50.6729 23.6175 51.1088 23.6175C51.6206 23.6175 52.0191 23.4197 52.3042 23.0308C52.5823 22.6351 52.7267 22.1201 52.7267 21.4789ZM61.1348 21.4277C61.1348 22.4578 60.8534 23.273 60.2897 23.8733C59.785 24.4054 59.1566 24.6715 58.4078 24.6715C57.5971 24.6715 57.0165 24.385 56.6628 23.8119V26.9943H55.306V20.4624C55.306 19.8144 55.2889 19.1492 55.2545 18.4705H56.4499L56.5254 19.4324H56.5495C57.0028 18.7092 57.6897 18.3443 58.6104 18.3443C59.3317 18.3443 59.9327 18.6274 60.4134 19.1936C60.8911 19.7598 61.1348 20.5068 61.1348 21.4277ZM59.7506 21.4789C59.7506 20.8888 59.6169 20.4011 59.3487 20.019C59.0569 19.6199 58.6618 19.4221 58.1674 19.4221C57.8341 19.4221 57.5283 19.5347 57.2535 19.7529C56.9824 19.9747 56.8036 20.2646 56.7213 20.6193C56.6799 20.7865 56.6562 20.9229 56.6562 21.0287V22.0417C56.6562 22.4816 56.7935 22.8534 57.0646 23.1605C57.3361 23.464 57.6897 23.6175 58.1297 23.6175C58.641 23.6175 59.0395 23.4197 59.3247 23.0308C59.6098 22.6351 59.7506 22.1201 59.7506 21.4789ZM68.99 22.1781C68.99 22.8944 68.7393 23.4777 68.2378 23.9245C67.6883 24.4157 66.9155 24.6613 65.9296 24.6613C65.0194 24.6613 64.288 24.4873 63.7348 24.1359L64.0473 23.0138C64.6417 23.3651 65.2975 23.539 66.0086 23.539C66.5203 23.539 66.9188 23.4231 67.2039 23.1946C67.4891 22.966 67.6332 22.6591 67.6332 22.277C67.6332 21.936 67.5131 21.6494 67.2795 21.414C67.0458 21.1822 66.6577 20.9638 66.1119 20.766C64.628 20.2168 63.8859 19.4119 63.8859 18.3579C63.8859 17.6689 64.1469 17.1027 64.6725 16.6627C65.1946 16.2227 65.8886 16.001 66.754 16.001C67.5235 16.001 68.1657 16.134 68.6775 16.4001L68.3374 17.4984C67.8564 17.2392 67.3173 17.1129 66.7092 17.1129C66.2319 17.1129 65.8541 17.2289 65.586 17.4608C65.3594 17.6689 65.2461 17.9213 65.2461 18.2215C65.2461 18.5523 65.3768 18.8286 65.6379 19.0435C65.8645 19.2414 66.273 19.4596 66.8673 19.6916C67.5953 19.9849 68.1312 20.3226 68.4749 20.7148C68.8182 21.1071 68.99 21.5949 68.99 22.1781ZM73.4896 19.4835H71.9918V22.4271C71.9918 23.1775 72.2562 23.5493 72.7856 23.5493C73.029 23.5493 73.2282 23.5288 73.39 23.4879L73.4274 24.5112C73.1599 24.6101 72.8092 24.6613 72.3732 24.6613C71.8373 24.6613 71.4181 24.4975 71.116 24.1735C70.8138 23.8495 70.6627 23.3037 70.6627 22.5397V19.4835H69.7732V18.4739H70.6627V17.3619L71.9955 16.9629V18.4739H73.4926L73.4896 19.4835ZM80.2246 21.455C80.2246 22.3862 79.9568 23.1536 79.421 23.7506C78.8613 24.3679 78.1161 24.6749 77.1852 24.6749C76.2888 24.6749 75.5741 24.3781 75.0417 23.7915C74.5097 23.2014 74.2453 22.4544 74.2453 21.5573C74.2453 20.6159 74.52 19.8485 75.0694 19.2481C75.6193 18.6478 76.3576 18.3511 77.2879 18.3511C78.1844 18.3511 78.9059 18.6478 79.4485 19.2379C79.9636 19.8075 80.2246 20.5477 80.2246 21.455ZM78.8172 21.4857C78.8172 20.9297 78.6964 20.4522 78.4526 20.0565C78.1675 19.5756 77.7618 19.3335 77.2335 19.3335C76.6903 19.3335 76.2714 19.5756 75.99 20.0565C75.7461 20.4556 75.626 20.9399 75.626 21.513C75.626 22.069 75.7461 22.5465 75.99 22.9456C76.2821 23.4265 76.6939 23.6687 77.2227 23.6687C77.7418 23.6687 78.1469 23.4231 78.4423 22.9353C78.693 22.5226 78.8172 22.0417 78.8172 21.4857ZM84.6381 19.6575C84.4978 19.6336 84.3536 19.6199 84.2088 19.6199C83.7314 19.6199 83.3646 19.7973 83.103 20.1555C82.8769 20.4727 82.763 20.8717 82.763 21.3527V24.535H81.406V20.3806C81.406 19.7428 81.3957 19.1083 81.3688 18.4705H82.5501L82.5982 19.6302H82.636C82.7802 19.2311 83.0034 18.9105 83.3159 18.6683C83.5975 18.4568 83.9444 18.3443 84.2987 18.3443C84.4257 18.3443 84.535 18.3545 84.6381 18.3682V19.6575ZM90.7079 21.2162C90.7113 21.4209 90.6936 21.6256 90.6592 21.8268H86.5858C86.5995 22.4271 86.7987 22.8841 87.1765 23.2014C87.5199 23.4845 87.9634 23.6244 88.5095 23.6244C89.1139 23.6244 89.6633 23.5288 90.1584 23.3378L90.3708 24.2724C89.7938 24.5214 89.1104 24.6476 88.324 24.6476C87.3762 24.6476 86.6339 24.3713 86.0913 23.8188C85.5521 23.2662 85.2808 22.5226 85.2808 21.5915C85.2808 20.6773 85.5309 19.9167 86.0363 19.3095C86.5623 18.6615 87.2766 18.3374 88.1729 18.3374C89.0521 18.3374 89.7183 18.6615 90.1716 19.3095C90.5253 19.8246 90.7079 20.459 90.7079 21.2162ZM89.4127 20.8683C89.423 20.4692 89.3337 20.1247 89.1482 19.8314C88.9147 19.4562 88.5507 19.2686 88.0659 19.2686C87.6235 19.2686 87.2623 19.4528 86.9841 19.8178C86.7575 20.1077 86.6236 20.459 86.5824 20.8649L89.4127 20.8683Z" fill="white"/>
<path d="M41.7216 13.1527C41.3437 13.1527 41.0174 13.1356 40.7461 13.1049V9.03572C41.1274 8.97773 41.5121 8.94702 41.8968 8.95044C43.4526 8.95044 44.1706 9.71107 44.1706 10.9492C44.1671 12.3784 43.3222 13.1527 41.7216 13.1527ZM41.9516 9.47232C41.7422 9.47232 41.5635 9.48596 41.4159 9.51663V12.6069C41.4948 12.6206 41.6494 12.624 41.8658 12.624C42.8859 12.624 43.4664 12.0475 43.4664 10.9697C43.463 10.0044 42.9375 9.47232 41.9516 9.47232ZM46.4031 13.1834C45.5272 13.1834 44.957 12.5319 44.957 11.6485C44.957 10.7275 45.5375 10.0726 46.4512 10.0726C47.3167 10.0726 47.8973 10.6934 47.8973 11.6007C47.8973 12.5319 47.2995 13.1834 46.4031 13.1834ZM46.4271 10.557C45.9462 10.557 45.6371 11.0038 45.6371 11.6314C45.6371 12.2454 45.9531 12.6922 46.4202 12.6922C46.8908 12.6922 47.2034 12.2146 47.2034 11.6178C47.2067 11.0106 46.8977 10.557 46.4271 10.557ZM52.8981 10.134L51.9604 13.1151H51.349L50.9609 11.8224C50.8646 11.5052 50.7824 11.1846 50.7205 10.8605H50.7069C50.6587 11.1846 50.5658 11.512 50.4661 11.8224L50.054 13.1151H49.4359L48.5531 10.134H49.24L49.5799 11.5495C49.6592 11.8872 49.7277 12.2044 49.7829 12.508H49.7966C49.8447 12.2556 49.927 11.9452 50.044 11.5564L50.4698 10.134H51.0124L51.4212 11.5257C51.5208 11.8633 51.5997 12.1942 51.6615 12.508H51.6785C51.7234 12.201 51.7885 11.877 51.8815 11.5257L52.2455 10.134H52.8981ZM56.3568 13.1151H55.6906V11.4029C55.6906 10.8742 55.4876 10.6115 55.0858 10.6115C54.6911 10.6115 54.4197 10.9492 54.4197 11.3415V13.1151H53.7534V10.9867C53.7534 10.7241 53.7464 10.441 53.7294 10.134H54.3167L54.3474 10.5945H54.3644C54.5434 10.2773 54.9074 10.0726 55.3162 10.0726C55.9446 10.0726 56.3601 10.5502 56.3601 11.3312L56.3568 13.1151ZM58.1943 13.1151H57.5281V8.76624H58.1943V13.1151ZM60.6295 13.1834C59.7537 13.1834 59.1834 12.5319 59.1834 11.6485C59.1834 10.7275 59.7641 10.0726 60.6777 10.0726C61.5431 10.0726 62.1237 10.6934 62.1237 11.6007C62.1237 12.5319 61.5227 13.1834 60.6295 13.1834ZM60.6536 10.557C60.1725 10.557 59.8637 11.0038 59.8637 11.6314C59.8637 12.2454 60.1796 12.6922 60.6466 12.6922C61.1172 12.6922 61.4298 12.2146 61.4298 11.6178C61.4298 11.0106 61.1242 10.557 60.6536 10.557ZM64.7545 13.1151L64.7063 12.7706H64.6893C64.4868 13.0469 64.1879 13.1799 63.8102 13.1799C63.2706 13.1799 62.8896 12.8047 62.8896 12.3034C62.8896 11.5666 63.5317 11.188 64.6445 11.188V11.1334C64.6445 10.7411 64.4353 10.5433 64.0231 10.5433C63.7276 10.5433 63.4665 10.6184 63.2399 10.765L63.1058 10.3284C63.3843 10.1579 63.7309 10.0692 64.1364 10.0692C64.9193 10.0692 65.3178 10.4785 65.3178 11.3005V12.3989C65.3178 12.699 65.3315 12.9343 65.3626 13.1117L64.7545 13.1151ZM64.6619 11.6314C63.9198 11.6314 63.5491 11.8088 63.5491 12.2317C63.5491 12.5455 63.7413 12.699 64.0057 12.699C64.346 12.699 64.6619 12.4432 64.6619 12.0919V11.6314ZM68.5499 13.1151L68.5191 12.6376H68.5017C68.3095 12.9992 67.9867 13.1834 67.5367 13.1834C66.812 13.1834 66.2761 12.5524 66.2761 11.6621C66.2761 10.7309 66.8327 10.0726 67.5915 10.0726C67.9937 10.0726 68.2785 10.2057 68.4366 10.4785H68.4503V8.76624H69.1164V12.3102C69.1164 12.5967 69.1235 12.8695 69.1405 13.1117H68.5499V13.1151ZM68.4536 11.3619C68.4536 10.9458 68.1755 10.5877 67.7497 10.5877C67.2549 10.5877 66.9527 11.0243 66.9527 11.6348C66.9527 12.2351 67.2653 12.6479 67.7359 12.6479C68.1548 12.6479 68.4536 12.2863 68.4536 11.8565V11.3619ZM73.3553 13.1834C72.4794 13.1834 71.909 12.5319 71.909 11.6485C71.909 10.7275 72.4891 10.0726 73.403 10.0726C74.2687 10.0726 74.8489 10.6934 74.8489 11.6007C74.8489 12.5319 74.2517 13.1834 73.3553 13.1834ZM73.3794 10.557C72.8983 10.557 72.5887 11.0038 72.5887 11.6314C72.5887 12.2454 72.905 12.6922 73.3722 12.6922C73.8431 12.6922 74.1552 12.2146 74.1552 11.6178C74.1588 11.0106 73.8497 10.557 73.3794 10.557ZM78.4383 13.1151H77.7719V11.4029C77.7719 10.8742 77.5696 10.6115 77.1675 10.6115C76.7722 10.6115 76.5011 10.9492 76.5011 11.3415V13.1151H75.8347V10.9867C75.8347 10.7241 75.828 10.441 75.8105 10.134H76.3979L76.4292 10.5945H76.4462C76.6249 10.2773 76.9889 10.0726 77.3976 10.0726C78.0265 10.0726 78.4417 10.5502 78.4417 11.3312V13.1151H78.4383ZM82.9244 10.632H82.1889V12.0782C82.1889 12.4466 82.3166 12.6308 82.577 12.6308C82.6937 12.6308 82.7933 12.6172 82.8729 12.6001L82.8901 13.1015C82.7596 13.1493 82.5873 13.1765 82.3715 13.1765C81.8455 13.1765 81.5296 12.89 81.5296 12.1328V10.6286H81.09V10.1306H81.5296V9.58485L82.1861 9.38704V10.1306H82.9204L82.9244 10.632ZM86.4587 13.1151H85.7919V11.4165C85.7919 10.8844 85.5893 10.615 85.1875 10.615C84.8401 10.615 84.5213 10.8469 84.5213 11.321V13.1186H83.8545V8.76624H84.5213V10.557H84.535C84.7451 10.2329 85.0501 10.0726 85.4382 10.0726C86.0735 10.0726 86.4616 10.5638 86.4616 11.3415L86.4587 13.1151ZM90.0748 11.7849H88.0722C88.0865 12.3477 88.4608 12.6683 89.0171 12.6683C89.3125 12.6683 89.5872 12.6206 89.8276 12.5285L89.9312 12.9889C89.6456 13.1117 89.3125 13.1731 88.9244 13.1731C87.9869 13.1731 87.4305 12.583 87.4305 11.6723C87.4305 10.7582 88.0006 10.0726 88.8489 10.0726C89.6147 10.0726 90.096 10.6354 90.096 11.4882C90.1023 11.5837 90.096 11.686 90.0748 11.7849ZM89.4636 11.3108C89.4636 10.8503 89.23 10.5263 88.8048 10.5263C88.4196 10.5263 88.1174 10.8571 88.0762 11.3108H89.4636Z" fill="white"/>
</g>
</g>
<defs>
<clipPath id="clip0_4665_24647">
<rect width="69.8274" height="18.8877" fill="white" transform="translate(21.0859 8.55615)"/>
</clipPath>
</defs>
</svg>
