<svg width="24" height="24" viewBox="0 0 24 24" fill="none" xmlns="http://www.w3.org/2000/svg">
<path d="M12 0C18.6274 0 24 5.37258 24 12C24 18.6274 18.6274 24 12 24C5.37258 24 0 18.6274 0 12C0 5.37258 5.37258 0 12 0Z" fill="#E7EDF8"/>
<path d="M5.54555 17.504H7.98515V11.5792L4.5 8.96533V16.4584C4.5 17.0361 4.96788 17.504 5.54555 17.504Z" fill="#4285F4"/>
<path d="M16.3516 17.504H18.7912C19.3688 17.504 19.8367 17.0361 19.8367 16.4584V8.96533L16.3516 11.5792V17.504Z" fill="#34A853"/>
<path d="M16.3516 7.04836V11.5791L19.8367 8.9652V7.57114C19.8367 6.27902 18.3616 5.54103 17.3274 6.31648L16.3516 7.04836Z" fill="#FBBC04"/>
<path fill-rule="evenodd" clip-rule="evenodd" d="M7.98438 11.579V7.04834L12.1666 10.185L16.3487 7.04834V11.579L12.1666 14.7157L7.98438 11.579Z" fill="#EA4335"/>
<path d="M4.5 7.57114V8.9652L7.98515 11.5791V7.04836L7.00931 6.31648C5.97509 5.54103 4.5 6.27902 4.5 7.57114Z" fill="#C5221F"/>
</svg>
