<svg width="16" height="16" viewBox="0 0 16 16" fill="none" xmlns="http://www.w3.org/2000/svg">
<g clip-path="url(#clip0_3848_20055)">
<path fill-rule="evenodd" clip-rule="evenodd" d="M8.00018 11.9998L5.27726 13.4313C4.95137 13.6027 4.54828 13.4774 4.37695 13.1515C4.30872 13.0217 4.28518 12.873 4.30996 12.7285L4.83 9.69653L2.62711 7.54924C2.36345 7.29224 2.35806 6.87016 2.61506 6.60651C2.7174 6.50152 2.85149 6.43319 2.99658 6.41211L6.0409 5.96975L7.40236 3.21113C7.56531 2.88096 7.96506 2.7454 8.29523 2.90835C8.4267 2.97323 8.53312 3.07965 8.59801 3.21113L9.95947 5.96975L13.0038 6.41211C13.3681 6.46506 13.6206 6.80335 13.5677 7.16772C13.5466 7.31281 13.4783 7.4469 13.3733 7.54924L11.1704 9.69653L11.6904 12.7285C11.7526 13.0914 11.5089 13.4361 11.146 13.4983C11.0015 13.5231 10.8529 13.4996 10.7231 13.4313L8.00018 11.9998Z" fill="#F9B411"/>
</g>
<defs>
<clipPath id="clip0_3848_20055">
<rect width="16" height="16" fill="white"/>
</clipPath>
</defs>
</svg>
