<svg width="25" height="24" viewBox="0 0 25 24" fill="none" xmlns="http://www.w3.org/2000/svg">
<path d="M12.5 0C19.1274 0 24.5 5.37258 24.5 12C24.5 18.6274 19.1274 24 12.5 24C5.87258 24 0.5 18.6274 0.5 12C0.5 5.37258 5.87258 0 12.5 0Z" fill="#7F4DA0"/>
<path d="M15.6355 10.5933C15.5836 10.1717 15.454 9.84062 15.2239 9.5474C14.925 9.16983 14.5432 8.94374 13.9778 8.80962C13.6094 8.72022 13.4605 8.73049 13.3273 8.85221C13.2031 8.96625 13.1789 9.19487 13.2738 9.34292C13.3405 9.45037 13.4174 9.48886 13.6315 9.53088C13.9165 9.58332 14.1135 9.65138 14.2926 9.75383C14.6729 9.97342 14.85 10.317 14.869 10.8734C14.8779 11.1346 14.9004 11.2149 14.9917 11.3075C15.1608 11.4769 15.4617 11.4439 15.5894 11.2413C15.6362 11.1649 15.6433 11.1317 15.6483 10.9543C15.6515 10.8445 15.6468 10.681 15.6355 10.5933Z" fill="white"/>
<path d="M17.126 11.0681C17.0509 9.77645 16.5457 8.73725 15.6415 8.00609C15.1321 7.59525 14.5163 7.31275 13.8413 7.17536C13.5941 7.12622 13.1389 7.08639 13.0608 7.10917C12.9871 7.13027 12.8828 7.21007 12.8364 7.28223C12.7872 7.36049 12.7762 7.53521 12.8181 7.63627C12.8857 7.80522 13.0116 7.86491 13.364 7.89575C13.9073 7.94328 14.4677 8.13417 14.8911 8.41676C15.3745 8.73851 15.7588 9.1786 16.0074 9.69574C16.2222 10.1401 16.3543 10.7804 16.3506 11.3538C16.3494 11.5612 16.3814 11.6783 16.4648 11.7639C16.5907 11.8956 16.7742 11.9244 16.9362 11.8369C17.1156 11.7425 17.1576 11.5769 17.126 11.0681Z" fill="white"/>
<path d="M18.7733 16.0422C18.748 15.9683 18.6891 15.8545 18.647 15.7891C18.3816 15.3884 16.956 14.2727 16.2442 13.9078C15.8378 13.6991 15.5367 13.6295 15.3135 13.6948C15.0734 13.7623 14.947 13.8741 14.5448 14.3739C14.3827 14.5743 14.2163 14.762 14.1721 14.7915C14.0626 14.8674 13.8478 14.9286 13.6962 14.9286C13.3445 14.9265 12.7065 14.6987 12.2158 14.3992C11.8346 14.1673 11.3461 13.7518 10.9713 13.3405C10.529 12.8576 10.2279 12.4315 9.98994 11.9507C9.68251 11.3328 9.60459 10.9552 9.73303 10.6789C9.76462 10.6093 9.80675 10.5356 9.82567 10.5123C9.84464 10.4913 10.0426 10.3289 10.2616 10.1517C10.6912 9.81005 10.7607 9.73201 10.8407 9.49791C10.9418 9.20052 10.9144 8.89683 10.7586 8.59104C10.6385 8.35903 10.3248 7.85288 10.0973 7.52599C9.79621 7.09577 9.04654 6.17624 8.897 6.05177C8.62746 5.83246 8.28214 5.79447 7.90095 5.94213C7.49877 6.0982 6.74487 6.70559 6.42267 7.12951C6.13207 7.51334 6.02049 7.78539 6.00363 8.14392C5.9889 8.43917 6.01416 8.5615 6.16999 8.93902C7.38927 11.9001 9.20867 14.2643 11.7083 16.1413C13.0139 17.122 14.3679 17.8686 15.7725 18.379C16.5917 18.6763 16.9476 18.6911 17.3666 18.4465C17.5435 18.341 17.9815 17.8918 18.2258 17.5649C18.6301 17.0207 18.7796 16.7698 18.8217 16.5694C18.8512 16.4323 18.8281 16.194 18.7733 16.0422Z" fill="white"/>
<path d="M18.6415 11.3646C18.6146 10.6339 18.4915 10.0346 18.235 9.36647C17.9818 8.70921 17.7255 8.28032 17.2414 7.70023C16.7838 7.15632 16.4284 6.84576 15.8646 6.50007C15.0781 6.01842 14.121 5.69968 13.0483 5.56563C12.6825 5.51878 12.5997 5.52213 12.4875 5.59701C12.27 5.73887 12.2729 6.0927 12.4911 6.23243C12.5633 6.27688 12.6274 6.29307 12.92 6.33137C13.3692 6.39185 13.658 6.44884 14.0007 6.54235C15.3447 6.90974 16.3782 7.66069 17.0692 8.77545C17.6474 9.70461 17.8874 10.6338 17.8533 11.8206C17.8415 12.2218 17.8501 12.2924 17.9114 12.3888C18.0289 12.5685 18.3386 12.6041 18.4975 12.455C18.5964 12.3641 18.615 12.2959 18.6345 11.9525C18.6438 11.7734 18.6458 11.5089 18.6415 11.3646Z" fill="white"/>
</svg>
