<svg width="30" height="32" viewBox="0 0 30 32" fill="none" xmlns="http://www.w3.org/2000/svg">
<path d="M28.1963 21.5885C28.1929 21.5161 28.1692 21.4462 28.1278 21.3867C28.0984 21.3397 28.0519 21.3061 27.9981 21.293C27.8143 21.293 27.6377 21.3542 27.6377 21.5452C27.6377 21.675 27.5693 21.6605 27.4611 21.7326C27.4102 21.7553 27.3673 21.7929 27.3384 21.8406C27.3094 21.8883 27.2956 21.9436 27.299 21.9993C27.303 22.0841 27.2732 22.1671 27.2161 22.2299C27.1909 22.2588 27.1548 22.2768 27.1296 22.302C27.1044 22.3272 27.0683 22.3957 27.0071 22.4281C26.9458 22.4606 26.917 22.4534 26.8701 22.4894C26.8233 22.5254 26.8089 22.5579 26.7728 22.5867C26.7368 22.6155 26.6611 22.702 26.5494 22.6948C26.5087 22.6895 26.4676 22.6895 26.4269 22.6948C26.3908 22.6948 26.3692 22.7597 26.3368 22.7741C26.2215 22.8353 26.0161 22.7417 25.9152 22.8714C25.8143 23.0011 25.8899 23.0912 25.8719 23.1813C25.841 23.268 25.8263 23.3596 25.8287 23.4516C25.8467 23.5669 25.9188 23.6101 25.8899 23.7327C25.8693 23.8008 25.8693 23.8735 25.8899 23.9417C25.9143 24.0349 25.93 24.1302 25.9368 24.2264C25.9368 24.2696 25.908 24.3129 25.8899 24.3561C25.8719 24.3993 25.7854 24.4714 25.7638 24.5471C25.7422 24.6228 25.7638 24.7309 25.7458 24.8138C25.7198 24.8858 25.6779 24.9511 25.6233 25.0048C25.5885 25.0316 25.563 25.0685 25.5501 25.1105C25.5372 25.1524 25.5376 25.1973 25.5512 25.239C25.5799 25.3076 25.5958 25.3809 25.598 25.4552C25.5876 25.4973 25.5923 25.5417 25.6115 25.5806C25.6306 25.6195 25.6628 25.6504 25.7025 25.6678C25.7148 25.6742 25.7258 25.6827 25.735 25.6931C25.735 25.6931 25.735 25.7291 25.735 25.7507C25.735 25.848 25.6989 25.8949 25.6881 25.9814C25.6773 26.0679 25.7782 26.1219 25.8287 26.2048C25.8791 26.2877 25.8647 26.3598 25.962 26.4282C25.995 26.4564 26.0329 26.4784 26.0737 26.4931C26.1278 26.4931 26.1674 26.4643 26.2143 26.4715C26.2611 26.4787 26.308 26.5652 26.38 26.5724C26.4521 26.5796 26.5134 26.5075 26.571 26.4643C26.6287 26.421 26.6215 26.4643 26.6323 26.4354C26.6431 26.4066 26.6323 26.3958 26.6611 26.3814C26.7512 26.3129 26.8882 26.3453 26.9963 26.3021C27.0433 26.278 27.0844 26.2439 27.1168 26.2022C27.1492 26.1605 27.172 26.1122 27.1837 26.0606C27.2298 25.9465 27.2459 25.8224 27.2305 25.7003C27.2053 25.5417 27.3314 25.4264 27.3278 25.2859C27.3388 25.2622 27.3534 25.2403 27.3711 25.221C27.3963 25.1958 27.4179 25.1958 27.4431 25.1633C27.4704 25.1082 27.4863 25.0481 27.49 24.9867C27.4982 24.9153 27.5102 24.8443 27.526 24.7741C27.5366 24.7413 27.5439 24.7075 27.5476 24.6732C27.5476 24.6336 27.508 24.5939 27.508 24.5615C27.508 24.4678 27.5837 24.4642 27.6377 24.3921C27.6645 24.3485 27.6806 24.2991 27.6846 24.248C27.6941 24.15 27.7184 24.054 27.7566 23.9633C27.7927 23.8876 27.8648 23.848 27.8864 23.7651C27.9129 23.6579 27.9215 23.5471 27.9116 23.4372C27.9116 23.2966 27.9657 23.3002 28.0233 23.1849C28.081 23.0696 28.0485 22.893 28.0918 22.7561C28.1218 22.6379 28.1411 22.5173 28.1494 22.3957C28.1494 22.284 28.1819 22.1723 28.2035 22.0642C28.2238 21.9061 28.2214 21.7459 28.1963 21.5885Z" fill="#002F8B"/>
<path d="M28.261 21.7323C28.261 21.689 28.261 21.6422 28.261 21.5917C28.2579 21.5093 28.2317 21.4294 28.1853 21.3611C28.145 21.3023 28.0849 21.2601 28.0159 21.2422H27.9979C27.7564 21.2422 27.6087 21.3539 27.5907 21.5449C27.5907 21.6098 27.5907 21.617 27.5186 21.6458L27.4357 21.6926C27.3785 21.7201 27.3305 21.7638 27.2979 21.8182C27.2652 21.8727 27.2492 21.9355 27.2519 21.999C27.2559 22.0714 27.2313 22.1426 27.1835 22.1972L27.1438 22.2296L27.097 22.2692C27.0792 22.2866 27.0635 22.306 27.0501 22.3269C27.0334 22.3497 27.0126 22.3693 26.9889 22.3846C26.9733 22.3869 26.9575 22.3869 26.942 22.3846C26.9069 22.3955 26.8739 22.4126 26.8447 22.435C26.8262 22.45 26.8092 22.4669 26.7943 22.4855L26.7474 22.5323L26.7042 22.5647C26.6885 22.584 26.6687 22.5995 26.6463 22.6101C26.6238 22.6207 26.5993 22.6262 26.5744 22.626H26.524C26.4885 22.617 26.4514 22.617 26.4159 22.626C26.3853 22.6372 26.3598 22.6589 26.3438 22.6873C26.3438 22.6873 26.3258 22.7089 26.3186 22.7089C26.2817 22.7167 26.2437 22.7167 26.2069 22.7089H26.1312C26.0852 22.7028 26.0385 22.7082 25.9951 22.7245C25.9517 22.7408 25.913 22.7677 25.8825 22.8026C25.8403 22.8716 25.8225 22.9529 25.8321 23.0332C25.8359 23.0667 25.8359 23.1006 25.8321 23.1341C25.8321 23.1557 25.8321 23.181 25.8321 23.2026C25.8075 23.2731 25.7977 23.3479 25.8032 23.4224C25.8116 23.4663 25.8261 23.5088 25.8465 23.5485C25.8694 23.5903 25.8758 23.6392 25.8645 23.6855C25.8428 23.7621 25.8428 23.8432 25.8645 23.9197C25.8841 24.0077 25.8986 24.0967 25.9078 24.1864C25.8953 24.2244 25.8808 24.2616 25.8645 24.2981C25.8518 24.3228 25.8361 24.3458 25.8177 24.3666C25.7811 24.4028 25.7539 24.4473 25.7384 24.4963C25.7331 24.5454 25.7331 24.595 25.7384 24.6441C25.7423 24.6836 25.7423 24.7234 25.7384 24.763C25.715 24.8274 25.6767 24.8855 25.6267 24.9324C25.586 24.9662 25.5561 25.0111 25.5407 25.0617C25.5253 25.1123 25.5252 25.1663 25.5402 25.2171L25.5618 25.2855C25.5819 25.3256 25.5907 25.3705 25.587 25.4153C25.577 25.4668 25.5843 25.5201 25.6078 25.5671C25.6312 25.614 25.6695 25.6518 25.7168 25.6747C25.7168 25.6747 25.7168 25.7 25.7168 25.7144C25.7208 25.7552 25.7133 25.7964 25.6951 25.8333C25.6837 25.8649 25.6753 25.8974 25.6699 25.9306C25.6649 25.9696 25.6711 26.0093 25.6877 26.045C25.7043 26.0807 25.7306 26.111 25.7636 26.1324C25.7844 26.1489 25.8026 26.1683 25.8177 26.1901C25.8334 26.2146 25.8456 26.2413 25.8537 26.2693C25.8709 26.3348 25.9121 26.3913 25.969 26.4279H25.9906C26.0227 26.453 26.0595 26.4714 26.0988 26.4819C26.1329 26.4915 26.1691 26.4915 26.2033 26.4819H26.2393C26.2567 26.4898 26.2726 26.5008 26.2861 26.5144C26.3197 26.5502 26.3639 26.5743 26.4123 26.5829C26.4785 26.576 26.54 26.5453 26.5852 26.4964L26.6249 26.4675C26.6419 26.462 26.6577 26.4534 26.6717 26.4423C26.6858 26.429 26.6947 26.4111 26.697 26.3919C26.7441 26.3648 26.7976 26.3511 26.8519 26.3522C26.9085 26.3475 26.9642 26.3354 27.0177 26.3162C27.0729 26.2905 27.1215 26.2524 27.1596 26.2049C27.1977 26.1574 27.2244 26.1018 27.2375 26.0423C27.2859 25.9199 27.3033 25.7874 27.288 25.6567C27.2824 25.5867 27.2974 25.5165 27.3312 25.4549C27.3605 25.3937 27.3788 25.3278 27.3853 25.2603C27.3937 25.2463 27.4033 25.233 27.4141 25.2207H27.4321C27.4542 25.2074 27.4737 25.1903 27.4898 25.1702C27.5222 25.1156 27.5396 25.0535 27.5402 24.99V24.9216C27.5463 24.8669 27.556 24.8128 27.5691 24.7594C27.5691 24.7594 27.5691 24.7414 27.5691 24.7342C27.5749 24.7056 27.5749 24.6762 27.5691 24.6477C27.5644 24.6186 27.5547 24.5905 27.5402 24.5648V24.5324C27.5402 24.5035 27.5402 24.4963 27.5871 24.4675C27.6158 24.4489 27.6414 24.4258 27.6628 24.399C27.6916 24.3561 27.709 24.3064 27.7132 24.2549V24.19C27.7238 24.1108 27.7444 24.0333 27.7745 23.9594C27.7901 23.9337 27.8082 23.9095 27.8285 23.8873C27.8667 23.8503 27.8951 23.8045 27.9114 23.754C27.94 23.6361 27.9485 23.5143 27.9366 23.3936C27.9313 23.3709 27.9322 23.3473 27.9392 23.3251C27.9462 23.3029 27.959 23.283 27.9763 23.2675C28.0016 23.2377 28.0234 23.205 28.0411 23.1702C28.0775 23.0886 28.0947 22.9999 28.0916 22.9107C28.0926 22.8512 28.0998 22.792 28.1132 22.7341C28.1417 22.6305 28.1598 22.5242 28.1673 22.417V22.3593C28.1788 22.2502 28.1969 22.1419 28.2213 22.035C28.2491 21.9366 28.2625 21.8346 28.261 21.7323ZM28.1492 22.0458C28.124 22.1611 28.106 22.2728 28.0916 22.381V22.4386C28.0845 22.5385 28.0676 22.6375 28.0411 22.7341C28.0219 22.8008 28.0134 22.8702 28.0159 22.9395C28.0184 23.0136 28.0049 23.0874 27.9763 23.1557C27.9609 23.1827 27.9428 23.2081 27.9222 23.2314C27.8969 23.2586 27.8782 23.2913 27.8675 23.327C27.8569 23.3626 27.8547 23.4002 27.861 23.4368C27.8672 23.5396 27.8587 23.6428 27.8357 23.7431C27.8241 23.7785 27.8043 23.8105 27.7781 23.8368C27.7497 23.8636 27.7265 23.8954 27.7096 23.9305C27.6735 24.0132 27.6493 24.1006 27.6375 24.19V24.2549C27.635 24.2895 27.6238 24.3229 27.6051 24.3522C27.5896 24.3705 27.5714 24.3863 27.551 24.399C27.524 24.4146 27.5016 24.4373 27.4864 24.4646C27.4712 24.4918 27.4636 24.5227 27.4645 24.554C27.4669 24.5808 27.4756 24.6067 27.4898 24.6297C27.4917 24.6428 27.4917 24.6562 27.4898 24.6693C27.4927 24.6848 27.4927 24.7007 27.4898 24.7161V24.7522C27.4767 24.8092 27.467 24.867 27.4609 24.9252V24.9936C27.4588 25.0397 27.4478 25.085 27.4285 25.127H27.4033C27.389 25.135 27.3757 25.1447 27.3636 25.1558C27.3424 25.1786 27.3243 25.204 27.3096 25.2315C27.3063 25.2408 27.3063 25.251 27.3096 25.2603C27.3067 25.3179 27.292 25.3744 27.2663 25.4261C27.2232 25.5041 27.2044 25.5932 27.2123 25.6819C27.2277 25.7967 27.2128 25.9135 27.169 26.0207C27.1593 26.0649 27.1401 26.1065 27.1127 26.1426C27.0853 26.1786 27.0504 26.2084 27.0105 26.2297C26.9673 26.2439 26.9225 26.2524 26.8771 26.2549C26.8019 26.2547 26.7282 26.276 26.6645 26.3162C26.6471 26.3308 26.6355 26.3513 26.6321 26.3738H26.5925L26.5456 26.4099C26.5183 26.4411 26.4817 26.4626 26.4411 26.4711C26.4195 26.4711 26.4015 26.4711 26.3762 26.4315C26.3486 26.4033 26.3137 26.3833 26.2753 26.3738H26.2537C26.2323 26.3697 26.2103 26.3697 26.1888 26.3738H26.142C26.116 26.3663 26.0916 26.3541 26.0699 26.3378L26.0483 26.3198C26.0098 26.2952 25.9826 26.2563 25.9726 26.2117C25.961 26.1763 25.9453 26.1425 25.9258 26.1108C25.9053 26.0791 25.8798 26.0511 25.8501 26.0279C25.8033 25.9918 25.7852 25.9738 25.7924 25.927C25.7975 25.9 25.8047 25.8735 25.8141 25.8477C25.8384 25.7948 25.8472 25.736 25.8393 25.6783V25.6207C25.8389 25.6137 25.8371 25.607 25.834 25.6008C25.8309 25.5946 25.8266 25.5891 25.8213 25.5846L25.7816 25.5558C25.7023 25.5054 25.6951 25.4909 25.6987 25.3936C25.7045 25.3344 25.6945 25.2748 25.6699 25.2207C25.6699 25.2207 25.6699 25.1846 25.6519 25.1594C25.6339 25.1342 25.6519 25.0405 25.7132 24.9756C25.7738 24.9163 25.8195 24.8434 25.8465 24.763C25.8534 24.714 25.8534 24.6642 25.8465 24.6152C25.8395 24.5747 25.8395 24.5333 25.8465 24.4927C25.8577 24.4602 25.8762 24.4306 25.9006 24.4062C25.9274 24.3789 25.9493 24.3472 25.9654 24.3125C25.9867 24.2699 26.0036 24.2252 26.0159 24.1792C26.0159 24.1792 26.0159 24.1792 26.0159 24.1576C26.0079 24.0589 25.991 23.9612 25.9654 23.8657C25.9475 23.8057 25.9475 23.7418 25.9654 23.6819C25.9834 23.6127 25.9744 23.5392 25.9402 23.4765C25.9235 23.445 25.9125 23.4109 25.9078 23.3756C25.9028 23.317 25.9102 23.2581 25.9294 23.2026L25.951 23.1269C25.9546 23.0862 25.9546 23.0452 25.951 23.0044C25.9428 22.9479 25.9516 22.8902 25.9762 22.8386C26.0087 22.7954 26.0663 22.7882 26.142 22.7882H26.2177C26.2736 22.7917 26.3296 22.7805 26.3798 22.7557C26.4029 22.7439 26.4227 22.7266 26.4375 22.7053C26.4459 22.6942 26.4571 22.6855 26.4699 22.6801H26.5204H26.5636H26.5852C26.6229 22.6797 26.6602 22.6719 26.6948 22.6571C26.7295 22.6422 26.7608 22.6206 26.7871 22.5936L26.8231 22.5611C26.8447 22.5611 26.8627 22.5215 26.8808 22.5035L26.924 22.4602C26.9424 22.4476 26.9633 22.439 26.9853 22.435L27.0501 22.4098C27.0882 22.3863 27.1203 22.3542 27.1438 22.3161L27.1835 22.2728C27.1938 22.2613 27.206 22.2516 27.2195 22.244L27.2736 22.1972C27.308 22.1442 27.329 22.0835 27.3348 22.0206C27.3348 21.8981 27.3636 21.8728 27.4718 21.8008L27.5438 21.7611C27.5824 21.7464 27.6155 21.7202 27.6387 21.686C27.6619 21.6519 27.6741 21.6114 27.6736 21.5701C27.6736 21.4044 27.8429 21.3683 27.9727 21.3683C28.0128 21.3776 28.0477 21.4022 28.07 21.4368C28.1068 21.4884 28.1269 21.55 28.1276 21.6134V21.7611C28.1491 21.8544 28.1564 21.9504 28.1492 22.0458Z" fill="#002F8B"/>
<path d="M29.884 10.9585C29.7692 11.0485 29.6602 11.1459 29.5577 11.2499C29.4545 11.3222 29.3383 11.3737 29.2155 11.4015C28.997 11.39 28.7781 11.4129 28.5668 11.4694C28.4434 11.5213 28.4434 11.5971 28.32 11.6211C28.1967 11.645 28.137 11.645 28.0415 11.669C27.9099 11.6452 27.7751 11.6452 27.6435 11.669C27.4445 11.6929 27.2455 11.5812 27.0465 11.645C26.9431 11.677 26.8674 11.8247 26.7361 11.7488C26.6724 11.7089 26.6884 11.5373 26.6326 11.4814C26.4575 11.3137 26.2625 11.4814 26.1312 11.198C26.1811 11.1999 26.2305 11.208 26.2785 11.2219C26.3251 11.1465 26.3893 11.0835 26.4655 11.0383C26.3859 10.7189 25.9163 10.5233 25.7133 10.2998C25.5979 10.1681 25.5701 10.0044 25.4188 9.90063C25.2867 9.81121 25.1468 9.73373 25.001 9.66911L24.8497 9.60125C24.726 9.35918 24.6528 9.0943 24.6348 8.82285C24.6348 8.52347 24.3961 8.36779 24.1613 8.22009C24.01 8.1203 23.8827 8.16022 23.8548 7.93668C23.8548 7.79297 23.7832 7.64528 23.7514 7.50157C23.7944 7.2719 23.7695 7.03463 23.6797 6.81898C23.6222 6.73107 23.5525 6.65178 23.4728 6.58347C23.4269 6.44692 23.3568 6.31981 23.2658 6.20824C23.1823 6.11329 23.1065 6.01184 23.039 5.90486C22.9952 5.82503 23.0111 5.76914 22.9753 5.69729C22.9315 5.55334 22.8628 5.41823 22.7724 5.29811C22.7148 5.23976 22.6537 5.1851 22.5893 5.13445C22.5647 4.94061 22.5025 4.75346 22.4062 4.58359C22.2851 4.42709 22.1521 4.28028 22.0083 4.14449C21.9713 4.09733 21.9393 4.0465 21.9127 3.9928C21.9127 3.86906 21.9127 3.74531 21.8928 3.62157L22.0242 3.81717C21.9787 3.69531 21.92 3.57885 21.8491 3.46988C21.7556 3.32957 21.614 3.22868 21.4511 3.18647C21.43 3.17911 21.4119 3.1651 21.3994 3.14655C21.3781 3.10663 21.3582 3.06272 21.3397 3.01482C21.2732 3.06531 21.1952 3.09825 21.1128 3.11062C21.0928 3.11588 21.0715 3.11349 21.0531 3.1039C21.0347 3.09431 21.0205 3.07821 21.0133 3.05873C20.9576 2.91103 20.882 2.7833 20.7387 2.76334L20.6472 2.81523C20.6168 2.81135 20.5861 2.81135 20.5557 2.81523C20.5079 2.81523 20.4602 2.84716 20.4084 2.83918C20.3567 2.8312 20.3447 2.78729 20.3049 2.77132C20.2498 2.75264 20.192 2.74319 20.1338 2.74338C19.6927 2.61999 19.2384 2.55029 18.7807 2.53581C18.6613 2.53581 18.6215 2.59169 18.534 2.49589C18.5101 2.47194 18.534 2.42004 18.534 2.3921C18.534 2.36416 18.4385 2.3921 18.3987 2.3921C18.2395 2.36815 18.0922 2.26836 17.9331 2.26037C17.8375 2.26037 17.7619 2.31626 17.6784 2.26037C17.5948 2.20449 17.5868 2.14062 17.559 2.1007C17.4595 1.957 17.3998 1.97297 17.2207 1.96897C17.1411 1.96897 17.0416 1.91708 16.97 1.94103C16.8983 1.96498 16.8665 2.05679 16.8148 2.09272C16.7482 2.13616 16.6712 2.16096 16.5919 2.16457C16.4486 2.18852 16.4844 2.19251 16.4168 2.28832C16.3491 2.38412 16.2536 2.47593 16.2496 2.58371C16.2496 2.61165 16.3173 2.69548 16.3093 2.7354C16.3093 2.84717 16.2059 2.79527 16.1342 2.85914C16.0855 2.92115 16.0514 2.99351 16.0347 3.0707C15.987 3.0707 15.9074 3.11861 15.8517 3.0707C15.796 3.0228 15.8119 2.96293 15.7562 2.93498C15.7005 2.90704 15.7204 3.00284 15.6766 2.98688C15.6328 2.97091 15.597 2.86313 15.5373 2.82321C15.4776 2.7833 15.402 2.78729 15.3423 2.75535C15.2826 2.72342 15.2269 2.63959 15.1274 2.64358C15.0279 2.64757 14.9483 2.71144 14.8448 2.70745C14.7021 2.7008 14.5612 2.67254 14.427 2.62362C14.3195 2.56375 14.3195 2.37614 14.2518 2.27235C14.1842 2.16856 14.0011 2.11667 13.834 2.06078C13.7087 2.00216 13.5739 1.96698 13.436 1.957C13.1652 1.9751 12.8937 1.93425 12.6401 1.83725C12.5366 1.78934 12.4371 1.66959 12.3257 1.63766C12.2143 1.60572 12.0471 1.70951 11.9675 1.63766C11.8879 1.56581 11.9436 1.33029 11.9993 1.26642C12.0551 1.20255 12.1824 1.21453 12.27 1.13469C12.3575 1.05486 12.4371 0.975022 12.3774 0.843293C12.3177 0.711565 12.2501 0.747491 12.1904 0.659672C12.1546 0.601222 12.1418 0.531472 12.1546 0.464074C12.1546 0.416173 12.2501 0.348313 12.2501 0.32037C12.2501 0.292428 12.0471 0.124773 11.9834 0.0928391C11.8441 0.0289707 11.7327 0.0928391 11.5855 0.0928391C11.4671 0.0964593 11.3502 0.11938 11.2392 0.1607C11.0985 0.201601 10.9513 0.215149 10.8054 0.200617C10.6563 0.195944 10.5071 0.205299 10.3597 0.228559C10.2164 0.228559 10.1607 0.152717 10.0175 0.196626C9.889 0.237729 9.75284 0.248655 9.6195 0.228559C9.46827 0.228559 9.31704 0.25251 9.16184 0.228559C9.03132 0.194758 8.89438 0.194758 8.76387 0.228559C8.62084 0.28435 8.46722 0.307531 8.31416 0.29642C8.20991 0.306823 8.10629 0.322813 8.00375 0.344321C7.8673 0.326048 7.72854 0.34971 7.60578 0.412182C7.49435 0.484034 7.44261 0.607779 7.31924 0.659672C7.19587 0.711565 7.08444 0.687613 6.96903 0.819342C6.89457 0.909352 6.79402 0.973863 6.68133 1.00391C6.56864 1.03396 6.44943 1.02804 6.34024 0.986997C6.24928 0.950207 6.15175 0.932544 6.0537 0.935104C5.85525 0.961756 5.65334 0.929854 5.47267 0.843293C5.44481 0.819343 5.47267 0.775433 5.40899 0.743499C5.34532 0.711565 5.30552 0.743499 5.26572 0.707573C5.15429 0.659672 5.13838 0.575844 5.02694 0.647696C4.91551 0.719548 4.96725 0.787409 4.91949 0.867244C4.87174 0.94708 4.76428 0.975022 4.72051 1.06683C4.67673 1.15864 4.72051 1.20255 4.68867 1.26642C4.65683 1.33029 4.57326 1.34226 4.51356 1.39017C4.37029 1.49794 4.34244 1.60572 4.15539 1.65362C3.96835 1.70152 3.8808 1.68556 3.77732 1.79334C3.67385 1.90111 3.64997 2.06079 3.51864 2.19251C3.44558 2.24079 3.3865 2.30755 3.34737 2.38604C3.30824 2.46454 3.29045 2.552 3.29578 2.63959C3.28184 2.70942 3.28184 2.78133 3.29578 2.85116C3.29578 2.91103 3.3515 2.93099 3.34752 2.98289C3.34354 3.03478 3.28384 3.10663 3.26793 3.15453C3.25201 3.20243 3.26792 3.28227 3.24006 3.32618C3.18037 3.46589 2.96547 3.56968 2.8421 3.66548C2.65864 3.80733 2.45639 3.92287 2.24117 4.00877C2.05412 4.08062 1.80738 4.00877 1.72778 4.26025C1.68401 4.37601 1.72779 4.51573 1.63228 4.61951C1.53676 4.7233 1.53676 4.67141 1.48105 4.70733C1.42372 4.75604 1.36924 4.80801 1.31788 4.86301C1.20247 4.9628 1.08308 5.0147 1.05124 5.18235C1.05124 5.2542 1.07512 5.35001 1.05124 5.41787C1.01911 5.47444 0.981808 5.52789 0.939808 5.57754C0.855333 5.70327 0.759409 5.82086 0.65327 5.92882C0.589596 5.9847 0.502043 6.01264 0.454286 6.08849C0.40653 6.16433 0.434388 6.1763 0.41051 6.22021C0.386631 6.26412 0.326938 6.324 0.30704 6.39585C0.287142 6.4677 0.307041 6.53157 0.283163 6.59145C0.183671 6.72717 0.0125395 6.63536 0.00458018 6.84692C-0.00337918 7.05849 -0.0232735 7.2461 0.151833 7.32993C0.267243 7.38581 0.42643 7.41775 0.406532 7.61335C0.386634 7.80894 0.127953 7.68919 0.243364 7.91672C0.299079 8.02849 0.430409 8.03248 0.486125 8.12828C0.54184 8.22409 0.450308 8.48754 0.462247 8.62326C0.474186 8.75898 0.402554 8.77096 0.315001 8.91466C0.227448 9.05837 0.350815 9.23001 0.354794 9.38569C0.358774 9.54137 0.231426 9.62121 0.119994 9.721C0.0801976 9.87269 0.00458164 10.0084 0.0682566 10.1521C0.124253 10.242 0.160858 10.3426 0.17571 10.4475C0.17571 10.5952 0.151832 10.7469 0.17571 10.8986C0.168931 11.0321 0.176939 11.166 0.199587 11.2978C0.259282 11.4614 0.498064 11.4335 0.617455 11.5413C0.736845 11.649 0.617455 11.6291 0.772662 11.6171C0.92787 11.6051 0.911952 11.5812 0.991546 11.6171C1.15471 11.7169 1.07512 11.8406 1.15869 11.9564C1.24227 12.0722 1.32584 12.0322 1.38155 12.0921C1.43727 12.152 1.5885 12.128 1.5885 12.128L1.72778 12.16C1.48502 12.2638 1.72779 12.4354 1.76758 12.5592C1.80738 12.6829 1.7238 12.8066 1.82728 12.9144C1.98936 13.0429 2.18975 13.1132 2.39637 13.114C2.3128 13.3136 3.22813 13.8166 3.33558 13.9124C3.34408 13.953 3.35885 13.9921 3.37936 14.0281C3.42374 14.0515 3.47042 14.0702 3.51864 14.084C3.59028 14.1239 3.64997 14.1678 3.71365 14.2038C3.86322 14.2995 4.03148 14.3621 4.20713 14.3874C4.31458 14.3874 4.34244 14.2796 4.42203 14.2437C4.50162 14.2078 4.58122 14.2117 4.66081 14.1838C4.8399 14.1199 4.98715 14.1239 5.17419 14.076C5.50315 13.9948 5.84761 14.0017 6.17309 14.096C6.30044 14.1239 6.5034 14.2636 6.62677 14.2636C6.75014 14.2636 6.91729 14.096 7.04862 14.0361C7.21044 13.9512 7.36032 13.8452 7.49435 13.7208C7.66547 13.5731 7.68935 13.5451 7.89232 13.5571C7.98985 13.5666 8.08682 13.5813 8.18283 13.601C8.27239 13.6127 8.36341 13.6045 8.44947 13.5771C8.66837 13.5577 8.88879 13.5644 9.10612 13.597C9.36878 13.597 9.50408 13.597 9.64337 13.8325C9.72695 13.9922 9.86226 14.1638 9.95777 14.3076C10.113 14.5351 10.1448 14.3834 10.3995 14.3714C10.503 14.3714 10.6025 14.4433 10.6861 14.4433C10.7696 14.4433 10.8532 14.3315 10.9447 14.3036C11.1616 14.2586 11.3873 14.2881 11.5855 14.3874L11.7248 14.4912C11.8083 14.7506 12.0272 14.8185 11.9038 15.1338C11.801 15.3031 11.7345 15.4921 11.7088 15.6887C11.7088 16.0879 11.4422 16.4551 11.4342 16.8543C11.4444 16.9751 11.4811 17.0921 11.5416 17.197C11.6022 17.3019 11.6851 17.3921 11.7844 17.4611C11.9635 17.6287 12.075 17.8283 12.2421 17.9999H12.4172L12.457 18.1836L12.5366 18.3033C12.6063 18.3242 12.6787 18.335 12.7515 18.3353L12.7913 18.3752C12.652 18.4989 12.843 18.5468 12.8709 18.6586C12.8988 18.7704 12.8391 18.8262 12.8351 18.9101C12.8351 19.1775 12.9187 19.0618 13.05 19.2055C13.1813 19.3492 13.1256 19.4649 13.1694 19.5767C13.2171 19.7045 13.2426 19.8395 13.245 19.9759C13.245 20.1236 13.3564 20.1954 13.3962 20.3271C13.436 20.4589 13.3962 20.6704 13.436 20.8501C13.4866 20.965 13.5278 21.0838 13.5594 21.2053C13.5721 21.3648 13.5586 21.5253 13.5196 21.6804C13.4798 21.9079 13.3883 21.9239 13.2092 22.0795C13.0369 22.2174 12.9095 22.4036 12.843 22.6144C12.7396 23.0974 12.7873 23.4367 12.6799 23.9078C12.6764 24.1472 12.7339 24.3835 12.847 24.5944C12.9067 24.778 13.0659 24.8698 13.1734 25.0295C13.2808 25.1891 13.2848 25.4805 13.3883 25.6602C13.4917 25.8398 13.7424 25.9755 13.8499 26.1631C13.9574 26.3507 13.8857 26.7858 13.8977 27.0373C13.9195 27.3219 13.9783 27.6024 14.0728 27.8716C14.1524 28.1031 14.0489 28.2708 14.1961 28.4943C14.3434 28.7179 14.5105 28.7338 14.6259 28.9614C14.7413 29.1889 14.817 29.145 14.9364 29.3605C15.0557 29.5761 15.0239 29.8635 15.1353 29.9952C15.2468 30.127 15.4617 30.1669 15.5333 30.4303C15.5688 30.5264 15.5889 30.6274 15.593 30.7297C15.5612 30.8575 15.4696 30.8135 15.4139 30.9253C15.3104 31.1329 15.6248 31.3484 15.7442 31.4642C15.8636 31.58 15.7999 31.6039 15.991 31.6119C16.0387 31.6119 16.0905 31.576 16.1422 31.58C16.1939 31.584 16.2457 31.6398 16.2815 31.6438L16.385 31.584L16.4765 31.5001C16.5601 31.6518 16.8187 31.4482 16.9501 31.4083C17.0814 31.3684 17.1093 31.3285 17.2645 31.3405C17.4197 31.3524 17.4237 31.3923 17.5789 31.3205C17.7341 31.2486 17.7579 31.3205 17.9768 31.3604C18.0575 31.3739 18.1373 31.3926 18.2156 31.4163C18.3748 31.4482 18.2793 31.4562 18.4265 31.4163C18.5138 31.3682 18.6058 31.3294 18.7011 31.3005C18.8924 31.2867 19.0811 31.2478 19.2623 31.1848C19.4294 31.1089 19.6005 31.1528 19.7398 31.0371C19.7971 30.9683 19.8465 30.8933 19.8871 30.8135C19.9906 30.6579 20.0025 30.7138 20.1298 30.6259C20.3251 30.4736 20.4956 30.2918 20.6353 30.087C20.7069 29.9992 20.9417 29.7597 21.0611 29.7557C21.0812 29.504 21.1801 29.2651 21.3436 29.0731C21.4829 28.9574 21.5705 29.0212 21.6342 28.8097C21.658 28.7378 21.6342 28.646 21.6779 28.5742C21.7217 28.5023 21.7854 28.5342 21.8093 28.4903C21.9207 28.2907 21.7177 27.8477 21.857 27.6081C21.9247 27.4924 22.1237 27.5243 22.255 27.4884C22.3863 27.4525 22.454 27.3686 22.5495 27.213C22.6597 27.255 22.7815 27.255 22.8917 27.213C22.9793 27.1451 23.0032 26.8497 22.9992 26.7459C22.9952 26.6421 22.9315 26.5144 22.9156 26.4026C22.9215 26.3003 22.9215 26.1976 22.9156 26.0953C22.8878 25.9955 22.7803 25.9196 22.7763 25.8158C22.7723 25.7121 22.848 25.6322 22.8559 25.5204C22.8559 25.3448 22.8082 25.2849 22.8559 25.1213C22.9099 24.9944 23.0073 24.8911 23.1305 24.8299C23.2499 24.766 23.3136 24.774 23.4091 24.6582C23.466 24.5804 23.5271 24.5057 23.5922 24.4347C23.7076 24.3269 23.8429 24.2032 23.9901 24.0954C24.1204 23.9937 24.2789 23.9351 24.4438 23.9277L24.6985 23.7441C24.8259 23.6802 24.8378 23.5485 24.9333 23.4607C25.0288 23.3729 25.0646 23.3968 25.1164 23.3529C25.1792 23.3079 25.2276 23.2454 25.2557 23.1733C25.2795 23.0266 25.2795 22.8769 25.2557 22.7302C25.1834 22.409 25.1434 22.0814 25.1363 21.7522C25.1825 21.557 25.2104 21.3579 25.2199 21.1574C25.2199 20.906 25.1044 20.9459 24.9612 20.8221C24.8943 20.7615 24.8407 20.6876 24.8037 20.6052C24.7667 20.5227 24.7472 20.4335 24.7463 20.3431C24.7463 20.1076 24.6547 19.8721 24.6667 19.6406C24.6667 19.5128 24.7304 19.4689 24.6667 19.3452C24.603 19.2214 24.5354 19.2334 24.5075 19.1655C24.457 18.9657 24.4855 18.754 24.5871 18.5748C24.6925 18.4092 24.7729 18.229 24.8259 18.0399L24.8856 17.8602C24.8856 17.8203 24.8856 17.7884 24.9174 17.7564C25.0447 17.6367 25.1761 17.5249 25.3154 17.4092C25.5382 17.2029 25.7495 16.9843 25.9481 16.7545C26.1551 16.5429 26.3779 16.3553 26.5769 16.1238C26.868 15.846 27.1978 15.612 27.5559 15.4292C27.7544 15.2935 27.9213 15.1166 28.0454 14.9103C28.2404 14.6269 28.5509 14.4273 28.726 14.1399C28.8428 13.9663 28.919 13.7684 28.9488 13.5611C28.9781 13.4862 29.0113 13.4129 29.0483 13.3415C29.1478 13.1699 29.3269 13.0941 29.4463 12.9184C29.5657 12.7428 29.6174 12.5192 29.7089 12.3077C29.7583 12.1933 29.7905 12.0722 29.8044 11.9484C29.8509 11.8962 29.891 11.8386 29.9238 11.7768C29.9447 11.6857 29.9349 11.5902 29.896 11.5053C29.9557 11.3137 30.1029 11.1181 29.884 10.9585ZM22.442 17.1617C22.3748 17.2463 22.2871 17.3122 22.1873 17.3533C22.0918 17.3932 21.9963 17.3533 21.9048 17.4291C21.8695 17.4611 21.8248 17.4807 21.7774 17.485C21.7628 17.4901 21.7471 17.4911 21.732 17.4878C21.7169 17.4845 21.703 17.477 21.6919 17.4663C21.6807 17.4555 21.6728 17.4419 21.6689 17.4268C21.6651 17.4118 21.6654 17.396 21.67 17.3812C21.7228 17.2147 21.7324 17.0375 21.6978 16.8663C21.6853 16.7624 21.7139 16.6578 21.7774 16.5749C21.8451 16.4711 22.0003 16.3274 22.1396 16.3473C22.2215 16.2824 22.3166 16.2361 22.4182 16.2116C22.5893 16.1757 22.6291 16.4671 22.653 16.5789C22.67 16.686 22.6596 16.7957 22.6227 16.8977C22.5858 16.9996 22.5236 17.0905 22.442 17.1617ZM23.8031 14.4313C23.775 14.5303 23.7349 14.6255 23.6837 14.7147C23.6478 14.8044 23.6478 14.9045 23.6837 14.9941C23.7027 15.0501 23.7012 15.1111 23.6793 15.166C23.6574 15.2209 23.6166 15.2662 23.5643 15.2935C23.5527 15.2994 23.5399 15.3026 23.5269 15.3031C23.5139 15.3036 23.501 15.3014 23.4889 15.2965C23.4769 15.2915 23.466 15.2841 23.4571 15.2747C23.4481 15.2652 23.4412 15.2539 23.437 15.2416C23.3839 15.1156 23.37 14.9765 23.3972 14.8425C23.4409 14.7027 23.5126 14.579 23.5563 14.4433C23.5611 14.4245 23.5728 14.4083 23.5891 14.3979C23.6053 14.3875 23.625 14.3837 23.6439 14.3874V14.3674C23.7195 14.2796 23.823 14.3515 23.8031 14.4313Z" fill="#002F8B"/>
</svg>
