<svg width="40" height="31" viewBox="0 0 40 31" fill="none" xmlns="http://www.w3.org/2000/svg">
<path d="M38.4026 22.5044C38.3163 22.3516 38.0505 22.418 37.9243 22.4446C37.7418 22.4949 37.55 22.5019 37.3643 22.465C37.1786 22.428 37.0041 22.3483 36.8547 22.232V22.0792C36.8509 22.0085 36.8287 21.94 36.7902 21.8805C36.7518 21.8211 36.6984 21.7728 36.6354 21.7404C36.5019 21.6685 36.3548 21.6255 36.2036 21.6141C36.1311 21.5868 36.067 21.541 36.0176 21.4813C36.0176 21.448 36.0176 21.4215 36.0176 21.4015C35.8714 21.3019 35.7585 21.2421 35.7585 21.0428C35.7649 20.9854 35.753 20.9274 35.7243 20.8772C35.6956 20.8271 35.6517 20.7873 35.599 20.7637C35.4462 20.7106 35.2403 20.7638 35.1606 20.591C35.0908 20.4738 34.9954 20.3738 34.8815 20.2987C34.5892 20.0529 34.4164 20.2987 34.4364 20.4847C34.4279 20.5286 34.4279 20.5737 34.4364 20.6176C34.4295 20.6654 34.4358 20.7141 34.4545 20.7586C34.4732 20.803 34.5037 20.8416 34.5427 20.87L34.6158 20.9099C34.6617 20.9248 34.7041 20.9489 34.7405 20.9805C34.7769 21.0122 34.8066 21.051 34.8276 21.0944C34.8487 21.1378 34.8609 21.185 34.8633 21.2332C34.8657 21.2815 34.8583 21.3297 34.8417 21.375C34.8368 21.3817 34.8342 21.3899 34.8342 21.3982C34.8342 21.4066 34.8368 21.4147 34.8417 21.4215C35.0343 21.5809 35.2868 21.5078 35.4529 21.7537C35.6189 21.9995 35.4529 21.9463 35.4927 22.0925C35.536 22.1942 35.5918 22.2902 35.6588 22.3782C35.6331 22.4336 35.613 22.4914 35.599 22.5509C35.5658 22.7635 35.599 23.2153 35.4263 23.3548C35.2536 23.4943 35.041 23.5275 34.9878 23.7468C34.9878 23.78 34.9878 23.8065 34.9878 23.8265C35.0491 23.8823 35.122 23.9238 35.2013 23.9479C35.2806 23.9721 35.3643 23.9782 35.4462 23.966C35.5834 23.958 35.7209 23.958 35.8581 23.966C35.9445 24.0391 36.0242 24.0922 36.1106 24.1587C36.197 24.2251 36.0043 24.4975 35.9777 24.5706C35.8781 24.6437 35.7917 24.7167 35.7784 24.7699C35.7593 24.8282 35.7459 24.8883 35.7385 24.9493C35.8316 25.3279 36.2235 25.1751 36.4826 25.0356C36.8734 24.8211 37.2028 24.51 37.4393 24.1321C37.4725 24.0191 37.4393 23.4677 37.6253 23.4677C37.7229 23.4659 37.8191 23.4443 37.9082 23.4044C37.9973 23.3644 38.0773 23.3069 38.1435 23.2352C38.3362 23.109 38.582 22.8034 38.4026 22.5044Z" fill="#002F8B"/>
<path d="M35.2803 24.9368C35.2803 24.8637 35.2338 24.8571 35.1807 24.8837C34.5894 25.1826 34.3635 24.3787 33.9383 24.7508C33.7058 24.9567 33.5928 25.2424 33.2739 25.4152C33.1448 25.4747 33.0412 25.5784 32.9816 25.7075C32.8089 26.1393 32.5099 26.2788 32.1644 26.4914C31.819 26.704 31.7592 26.9299 31.4336 27.0694C31.1991 27.137 30.9754 27.2376 30.7693 27.3684C30.4769 27.6009 30.2643 27.9065 29.972 28.1391C29.8259 28.2586 29.5136 28.5576 29.7461 28.7503C29.9787 28.9429 30.2976 28.8898 30.5301 28.9429C30.7626 28.9961 31.0284 29.2818 31.3074 29.2618C31.518 29.254 31.7197 29.1742 31.8788 29.0359C32.1644 28.7901 32.5431 28.5908 32.7956 28.3251C32.9138 28.2225 33.0051 28.0925 33.0613 27.9464C33.0925 27.7977 33.1103 27.6465 33.1145 27.4946C33.1145 27.3617 33.2739 27.282 33.4533 27.2355C33.599 27.2523 33.7461 27.2523 33.8918 27.2355C34.0417 27.1903 34.1725 27.0969 34.2638 26.9698C34.3768 26.8369 34.5495 26.7439 34.6359 26.5911C34.6473 26.566 34.6531 26.5389 34.6531 26.5114C34.6531 26.4839 34.6473 26.4567 34.6359 26.4316C34.6297 26.372 34.6297 26.3119 34.6359 26.2523C34.8352 26.126 35.081 26.0264 35.1873 25.8337C35.2936 25.641 35.2604 25.2225 35.2803 24.9368Z" fill="#002F8B"/>
<path d="M25.5055 28.2627C25.4874 28.1951 25.4502 28.1341 25.3983 28.0869C25.3465 28.0398 25.2822 28.0086 25.2132 27.997C25.1183 27.9651 25.0157 27.9651 24.9209 27.997C24.8308 27.9946 24.7416 28.0152 24.6617 28.0568C24.4764 28.08 24.289 28.08 24.1037 28.0568C24.0531 28.0423 24.0073 28.0148 23.9708 27.9771C23.8977 27.8973 23.8047 27.7578 23.6718 27.7578C23.519 27.7578 23.0872 27.7578 23.0075 27.8442C22.9944 27.8723 22.9876 27.9029 22.9876 27.9339C22.9876 27.9649 22.9944 27.9955 23.0075 28.0236C23.0075 28.1963 23.1669 28.369 23.2931 28.5019L23.3994 28.6746C23.4327 28.8141 23.3994 28.9603 23.4393 29.0865C23.518 29.2038 23.6287 29.2961 23.7582 29.3523C23.7843 29.3922 23.8065 29.4344 23.8247 29.4785C23.8297 29.5526 23.855 29.6238 23.8977 29.6845C23.9907 29.9236 24.1502 30.1296 24.4359 29.9967C24.582 29.9303 24.7547 29.9104 24.8677 29.7708C24.9085 29.721 24.936 29.6615 24.9474 29.5981C24.9481 29.587 24.9481 29.576 24.9474 29.5649C25.1135 29.3855 25.2663 29.1795 25.4191 29.04C25.5283 28.9449 25.5977 28.8122 25.6137 28.6682C25.6297 28.5243 25.5911 28.3796 25.5055 28.2627Z" fill="#002F8B"/>
<path d="M38.453 10.9232C38.3666 10.8368 38.1806 10.7305 38.1275 10.6308C38.0467 10.4421 38.0082 10.2381 38.0145 10.0329C38.0145 9.80039 37.7554 9.78046 37.6159 9.90004C37.5697 9.9417 37.5374 9.99645 37.5231 10.057C37.5089 10.1175 37.5134 10.181 37.5362 10.2389C37.5324 10.2764 37.5324 10.3143 37.5362 10.3518C37.5389 10.4424 37.5771 10.5283 37.6425 10.591C37.782 10.7305 37.7156 10.9232 37.8019 11.0959C37.8883 11.2686 38.0012 11.2753 38.081 11.3683C38.1607 11.4613 38.2138 11.4414 38.3068 11.3683C38.3999 11.2952 38.5792 11.0295 38.453 10.9232Z" fill="#002F8B"/>
<path d="M38.9378 11.8672C38.9212 11.8557 38.9015 11.8496 38.8813 11.8496C38.8611 11.8496 38.8415 11.8557 38.8248 11.8672C38.7828 11.882 38.7445 11.9058 38.7124 11.9367C38.6803 11.9676 38.6552 12.0051 38.6388 12.0465C38.5724 12.2458 38.8581 12.3322 38.9909 12.3787C39.1238 12.4252 39.1769 12.2791 39.1836 12.2126C39.1836 12.1366 39.16 12.0625 39.1159 12.0006C39.0718 11.9387 39.0096 11.892 38.9378 11.8672Z" fill="#002F8B"/>
<path d="M27.2927 1.02612C26.9405 1.35166 26.9937 1.76356 26.3958 1.9363C26.0151 2.08264 25.5938 2.08264 25.2132 1.9363C25.1465 1.91301 25.0739 1.91301 25.0072 1.9363C24.8876 1.9363 24.9209 1.9363 24.6883 1.9363C24.6352 1.9363 24.489 2.07582 24.5754 2.12897C24.8729 2.3473 25.2244 2.4805 25.5919 2.51429C25.9657 2.56485 26.3454 2.55137 26.7146 2.47443C26.9572 2.39439 27.1625 2.22918 27.2927 2.00938C27.4701 1.71954 27.6946 1.46132 27.957 1.24536C28.0138 1.19861 28.0593 1.13954 28.0899 1.07262C28.2493 0.607567 27.4455 0.853382 27.2927 1.02612Z" fill="#002F8B"/>
<path d="M30.6732 4.87316C30.5669 4.87316 30.4207 4.80672 30.3609 4.48118C30.3597 4.43271 30.3763 4.38547 30.4074 4.34831C30.4279 4.32551 30.4541 4.30858 30.4833 4.29924C30.5124 4.2899 30.5436 4.28849 30.5735 4.29516H30.6333H30.6665C30.7994 4.29516 30.992 4.4546 30.9788 4.62734C30.9737 4.67556 30.9556 4.72147 30.9263 4.76012C30.897 4.79876 30.8577 4.82866 30.8127 4.84658C30.7693 4.86762 30.7212 4.87679 30.6732 4.87316ZM30.5735 4.50775C30.5735 4.58083 30.62 4.67384 30.6732 4.67384C30.6926 4.67996 30.7135 4.67996 30.7329 4.67384C30.7547 4.66371 30.7732 4.64758 30.7861 4.62734C30.7861 4.58083 30.6997 4.50775 30.6333 4.49447C30.6152 4.50506 30.5943 4.50971 30.5735 4.50775Z" fill="#002F8B"/>
<path d="M29.2792 18.5343C29.2626 18.4055 29.1958 18.2885 29.0932 18.2088C29.0431 17.8032 29.0164 17.395 29.0135 16.9864C29.0135 16.4814 28.6149 16.2821 28.3491 15.8769C28.0692 15.5319 27.7554 15.2158 27.4123 14.9335C27.3575 14.8748 27.3064 14.8127 27.2595 14.7474C27.2173 14.6457 27.159 14.5515 27.0868 14.4684C27.0482 14.421 27.006 14.3765 26.9606 14.3355C26.8577 14.2057 26.7192 14.1087 26.562 14.0565C26.5527 14.0518 26.5424 14.0494 26.5321 14.0494C26.5217 14.0494 26.5114 14.0518 26.5022 14.0565C26.4453 14.0238 26.3991 13.9754 26.3693 13.917C26.3029 13.7841 26.3361 13.6247 26.263 13.4918C26.1899 13.3589 26.0836 13.2128 26.0039 13.06C25.938 12.9222 25.8453 12.799 25.7312 12.6974C25.6171 12.5959 25.484 12.5182 25.3395 12.4687C25.1668 12.3956 24.9808 12.3757 24.808 12.3026C24.6353 12.2295 24.5489 12.0701 24.3895 11.9903L24.2699 11.9239C24.0585 11.5829 23.9162 11.2037 23.8513 10.8078C23.7915 10.4357 23.4461 10.2364 23.3531 9.89093C23.3333 9.81017 23.32 9.72798 23.3132 9.64512C23.3165 9.60089 23.3165 9.55647 23.3132 9.51224C23.3097 9.46802 23.3097 9.42359 23.3132 9.37937C23.3132 9.31293 23.3132 9.2465 23.3132 9.18006C23.3132 9.11362 23.3132 9.00732 23.3132 8.96746C23.278 8.91903 23.2354 8.87644 23.187 8.84124C23.1139 8.78809 23.094 8.68843 23.0275 8.62864C22.9611 8.56885 22.8149 8.57549 22.6821 8.57549C22.4798 8.57352 22.2847 8.50064 22.1306 8.36954C22.0702 8.21901 22.0343 8.05974 22.0243 7.89783C21.9845 7.49921 22.0243 6.96108 21.6324 6.70862C21.5526 6.64883 21.5128 6.70862 21.4862 6.5691C21.4596 6.42959 21.546 6.4163 21.5526 6.34322C21.5526 6.06419 21.3799 5.96453 21.2271 5.78516H21.0145C20.7089 5.90474 20.8551 6.27678 20.8484 6.52924C20.8418 6.7817 20.7089 6.65547 20.5893 6.80827C20.4697 6.96108 20.5162 7.09396 20.4896 7.2069C20.4033 7.61216 20.6557 7.95099 20.5959 8.36954C20.5561 8.61535 20.6557 8.64857 20.7222 8.85452C20.7886 9.06047 20.5627 9.12027 20.4896 9.31293C20.4166 9.5056 20.5362 9.57868 20.5494 9.71155C20.4157 9.83298 20.2934 9.96641 20.184 10.1102C20.1309 10.2032 20.0977 10.3028 20.0445 10.3958C19.9914 10.6018 19.8917 10.7679 19.6592 10.7945C19.4267 10.821 18.9483 10.4689 18.7158 10.3693L18.2906 10.1633H18.1511C18.1542 10.1435 18.1542 10.1233 18.1511 10.1035L17.9053 9.95737C17.6728 9.84443 17.4535 9.7182 17.2409 9.58532C17.208 9.59194 17.1742 9.59194 17.1413 9.58532C16.9951 9.58532 16.9486 9.48567 16.8954 9.39266C16.8112 9.33956 16.7332 9.27716 16.6629 9.20663C16.5367 9.20663 16.3972 9.20663 16.3839 9.04054C16.3839 8.95418 16.4237 8.93425 16.3839 8.83459C16.344 8.73494 16.2909 8.70172 16.2909 8.61535C16.2909 8.52898 16.4702 8.36954 16.5433 8.22338C16.6164 8.07722 16.6031 7.91777 16.6828 7.77161C16.7626 7.62545 16.9021 7.60551 16.9752 7.47929C17.0483 7.35306 17.1014 6.86142 16.829 6.86142C16.7559 6.86142 16.6895 6.90129 16.6031 6.86142C16.5168 6.82156 16.4835 6.79499 16.4237 6.7817C16.2777 6.78705 16.1328 6.80935 15.9919 6.84814C15.8239 6.86512 15.6543 6.83762 15.5003 6.76841C15.2408 6.65752 14.9568 6.6163 14.6765 6.64883C14.4908 6.6321 14.304 6.6321 14.1184 6.64883L14.0254 6.69533C13.7998 6.76313 13.578 6.84297 13.361 6.93451C13.0501 7.00704 12.7566 7.14025 12.4973 7.32648L12.4375 7.39956C12.4202 7.41111 12.4062 7.42699 12.3968 7.44564C12.3875 7.46428 12.3832 7.48505 12.3844 7.50586C12.3379 7.59887 12.3047 7.69188 12.2648 7.79154C12.1851 7.87791 12.1253 7.96427 12.0522 8.05728C12.0136 8.08373 11.971 8.10391 11.926 8.11708C11.876 8.14474 11.8311 8.18068 11.7931 8.22338C11.7436 8.23311 11.6977 8.25607 11.6602 8.28981C11.6148 8.33478 11.5846 8.39287 11.5739 8.4559C11.4949 8.53888 11.4106 8.61656 11.3214 8.68843C11.2327 8.65309 11.1596 8.58708 11.1155 8.50241C10.9947 8.54782 10.8649 8.56377 10.7368 8.54891C10.5906 8.5157 10.5906 8.39611 10.491 8.3031C10.3913 8.21009 10.2385 8.23002 10.099 8.20345C9.95947 8.17687 9.86645 8.09715 9.73357 8.1503C9.6007 8.20344 9.58078 8.32303 9.47448 8.3496C9.36818 8.37618 9.33496 8.3496 9.26188 8.3496C9.17158 8.35762 9.08421 8.38563 9.00607 8.43159C8.92793 8.47756 8.861 8.54032 8.81011 8.61535C8.69717 8.75487 8.71711 8.90767 8.63074 9.04054C8.54438 9.17342 8.33176 9.19999 8.23875 9.31958C8.14574 9.43917 8.18561 9.59197 8.1391 9.73148C8.09259 9.871 7.96638 9.86436 7.80029 9.9308C7.6342 9.99723 7.65411 10.1035 7.58103 10.2231C7.55954 10.2601 7.53268 10.2937 7.50131 10.3228C7.50131 10.3228 7.50132 10.3228 7.4681 10.3228C7.43489 10.3228 7.36844 10.2497 7.30864 10.2231C7.24885 10.1965 7.20235 10.2231 7.10934 10.2231C7.01633 10.2231 7.04291 10.263 7.00969 10.2696C6.97647 10.2763 6.94988 10.2231 6.91002 10.2231C6.73728 10.2231 6.68413 10.2896 6.59777 10.4357C6.5114 10.5819 6.52469 10.635 6.59777 10.8011C6.59777 10.8476 6.66421 10.9207 6.65093 10.9805C6.63764 11.0403 6.55126 11.0669 6.53798 11.1266C6.52469 11.1864 6.66422 11.3193 6.47156 11.419C6.27889 11.5186 6.19251 11.419 6.12607 11.5518C6.05964 11.6847 6.12607 11.7844 6.05963 11.904C6.02792 11.9702 5.99245 12.0345 5.95335 12.0966C5.84705 12.1764 5.73411 12.2627 5.62117 12.3358C5.36871 12.5019 5.00993 12.4222 4.7309 12.482C4.32333 12.578 3.92359 12.7045 3.53505 12.8606C3.1165 13.0134 2.65145 13.0068 2.20632 13.1463C1.77367 13.3759 1.37186 13.6595 1.01047 13.9901C0.805065 14.0968 0.61509 14.2309 0.445756 14.3887C0.405895 14.3887 0.385953 14.3887 0.372666 14.5083C0.246436 14.7674 0.279663 15.0464 0.173364 15.3122C0.153721 15.3074 0.133217 15.3074 0.113574 15.3122C0.0837352 15.3649 0.0677311 15.4243 0.0670633 15.4849C0.0312065 15.5503 0.00916236 15.6224 0.0023055 15.6967C-0.00455136 15.771 0.00392683 15.8459 0.027203 15.9167C0.0193075 15.9495 0.0193075 15.9836 0.027203 16.0164C0.0351144 16.0395 0.0518269 16.0586 0.0737134 16.0695C0.168679 16.2785 0.289169 16.4749 0.432456 16.6542C0.413778 16.7633 0.368115 16.8661 0.299595 16.9531C0.297414 16.9686 0.297414 16.9842 0.299595 16.9996C0.26622 17.0267 0.242832 17.0641 0.233155 17.1059C0.200802 17.212 0.200802 17.3254 0.233155 17.4315C0.239142 17.5864 0.303164 17.7335 0.412526 17.8434C0.497274 17.9371 0.564765 18.045 0.611848 18.1623C0.595206 18.2746 0.595206 18.3888 0.611848 18.5011C0.658353 18.7934 0.897512 18.9263 1.09682 19.1323C1.29613 19.3382 1.21642 19.4179 1.21642 19.6438C1.21642 19.8697 1.38251 20.0225 1.40244 20.2484C1.39994 20.3428 1.41761 20.4367 1.45427 20.5238C1.49093 20.6109 1.54573 20.6891 1.61503 20.7533C1.72505 20.8275 1.80143 20.9421 1.82763 21.0722C1.88078 21.3579 1.75455 21.6303 1.82763 21.9093C1.87081 22.0273 1.87081 22.1567 1.82763 22.2747C1.76119 22.4674 1.72798 22.4873 1.56854 22.5537C1.40909 22.6202 1.38916 22.5936 1.38251 22.7464C1.37806 22.8206 1.39592 22.8944 1.43381 22.9584C1.4717 23.0223 1.52788 23.0734 1.5951 23.1052C1.76119 23.1649 1.84091 23.0653 1.94721 23.165C2.05351 23.2646 2.08009 23.3377 2.17974 23.3776C2.2794 23.4174 2.37241 23.3776 2.49199 23.3377C2.61158 23.2978 2.62486 23.3377 2.73781 23.3908C2.99401 23.464 3.26557 23.464 3.52177 23.3908C3.79416 23.351 3.81409 23.2912 4.00012 23.0852C4.07167 23.014 4.16121 22.9634 4.25921 22.9391C4.31881 22.9059 4.37086 22.8606 4.41202 22.8062C4.75085 22.6933 5.07639 22.6933 5.45508 22.6069H5.86033C6.13936 22.6069 6.33868 22.7996 6.61772 22.8195C6.90297 22.8094 7.1832 22.7416 7.44152 22.6202C7.67405 22.5272 7.70063 22.4341 7.71392 22.2016C7.91811 22.1323 8.12675 22.0768 8.33842 22.0355C8.56431 21.9558 8.6573 21.6568 8.88319 21.6369C9.04459 21.6499 9.20678 21.6499 9.36818 21.6369C9.51434 21.6369 9.66051 21.5439 9.81331 21.5306C9.96612 21.5173 10.3315 21.5771 10.5906 21.5306C10.8497 21.4841 10.9826 21.2516 11.255 21.1652C11.4456 21.1128 11.642 21.0838 11.8396 21.0788C11.9059 21.0853 11.9726 21.0853 12.0389 21.0788C12.5438 21.1519 13.0687 21.1586 13.5736 21.2051C13.5674 21.229 13.5674 21.2542 13.5736 21.2782C13.6334 21.3446 13.7264 21.3313 13.7995 21.3379C13.9564 21.3758 14.1097 21.427 14.2579 21.4908C14.412 21.543 14.5735 21.5699 14.7362 21.5705C14.8558 21.5705 15.0086 21.5306 15.1149 21.617C15.2212 21.7033 15.1814 21.9757 15.301 22.1285C15.4205 22.2813 15.487 22.2016 15.58 22.2614C15.673 22.3212 15.6863 22.4342 15.7727 22.5072C15.859 22.5803 15.8989 22.5072 15.952 22.6069C15.9754 22.6781 15.9754 22.7549 15.952 22.8261C15.952 23.0121 15.8922 23.1052 16.0318 23.2314C16.1035 23.2895 16.1876 23.3304 16.2776 23.351C16.2776 23.351 16.2776 23.3908 16.344 23.351H16.4038C16.4596 23.3479 16.5131 23.3278 16.5571 23.2934C16.601 23.2589 16.6333 23.2118 16.6496 23.1583C16.736 23.0919 16.8157 23.0188 16.8954 22.9457C16.9347 22.95 16.9744 22.9428 17.0097 22.9252C17.0451 22.9075 17.0746 22.88 17.0948 22.8461C17.1124 22.8171 17.1259 22.7858 17.1346 22.753C17.2524 22.6815 17.3541 22.5866 17.4336 22.474C17.43 22.4632 17.43 22.4516 17.4336 22.4408H17.4734C17.5003 22.4018 17.5143 22.3553 17.5133 22.3079V22.2681C17.6014 22.228 17.6925 22.1946 17.7857 22.1684C17.8312 22.1823 17.8797 22.1823 17.9252 22.1684C17.9595 22.3047 17.9429 22.4487 17.8787 22.5737C17.8506 22.6214 17.8147 22.6641 17.7724 22.6999C17.706 22.7663 17.6927 22.7464 17.6262 22.7929C17.5598 22.8394 17.5133 22.9191 17.5133 23.1184C17.5021 23.2573 17.4708 23.3939 17.4203 23.5237C17.3738 23.6566 17.3273 23.7297 17.5133 23.7895C17.6993 23.8492 17.7392 23.7496 17.7923 23.6034C17.8455 23.4573 17.8654 23.3842 18.078 23.3975L18.284 23.4307C18.3246 23.5491 18.3735 23.6645 18.4301 23.7762C18.414 23.8439 18.414 23.9144 18.4301 23.9821C18.4966 24.208 18.842 24.2213 19.0281 24.2744C19.2141 24.3276 19.234 24.4405 19.2407 24.6199C19.2419 24.7414 19.2598 24.8621 19.2938 24.9787C19.3403 25.1049 19.4533 25.1979 19.4865 25.3308C19.5197 25.4637 19.4865 25.5434 19.6725 25.6165C19.8585 25.6895 20.1641 25.6165 20.3369 25.7427C20.5096 25.8689 20.4963 26.0284 20.7421 26.0749C20.9701 26.1035 21.1934 26.1616 21.4065 26.2476C21.5434 26.3001 21.6862 26.3358 21.8317 26.3539C21.9313 26.3539 22.031 26.4403 22.1306 26.4536C22.4562 26.5001 22.6289 26.2144 22.7551 25.9819C22.8016 25.8822 22.7551 25.9221 22.8681 25.849C22.9598 25.7759 23.0664 25.7237 23.1803 25.6962C23.2202 25.8025 23.1803 25.9154 23.2601 26.0151C23.3398 26.1147 23.4261 26.0882 23.5192 26.1745C23.6122 26.2609 23.559 26.3074 23.6321 26.3473C23.772 26.3954 23.924 26.3954 24.0639 26.3473C24.2381 26.3383 24.4092 26.2977 24.5689 26.2277C24.7283 26.1014 24.5689 25.8955 24.6486 25.7493C24.7283 25.6032 24.9608 25.6895 25.0804 25.6763C25.2 25.663 25.4458 25.5434 25.6252 25.5234C25.8046 25.5035 25.9042 25.6098 26.0637 25.6231H26.1368L26.2564 25.6829C26.3228 25.6829 26.4291 25.6297 26.4756 25.5965C26.597 25.5306 26.7051 25.4428 26.7945 25.3374C26.7945 25.3042 26.841 25.2378 26.7945 25.2178C26.841 25.0783 26.748 24.9787 26.6882 24.8524C26.6882 24.8524 26.6882 24.8192 26.6882 24.8059C26.7367 24.4766 26.8694 24.1654 27.0735 23.9024C27.1636 23.7965 27.2375 23.6778 27.2928 23.5503C27.3355 23.3246 27.3955 23.1025 27.4721 22.8859C27.5917 22.6733 27.7977 22.5604 27.9239 22.3677C27.9588 22.3169 27.9899 22.2636 28.0169 22.2083L28.0568 22.175C28.0664 22.1471 28.0664 22.1167 28.0568 22.0887C28.0966 22.009 28.1365 21.9159 28.1697 21.8296C28.2481 21.7907 28.3236 21.7463 28.3956 21.6967C28.4682 21.6301 28.5258 21.5489 28.5647 21.4585C28.6037 21.368 28.623 21.2703 28.6215 21.1719C28.8229 20.8068 28.9472 20.4043 28.9869 19.9893V19.9494C29.0233 19.8777 29.0372 19.7967 29.0268 19.7169V19.5973C29.1313 19.2481 29.2156 18.8932 29.2792 18.5343Z" fill="#002F8B"/>
<path d="M26.8017 5.07766C26.5847 5.00855 26.3944 4.87394 26.257 4.69233C26.2017 4.59842 26.1144 4.52764 26.0111 4.49302C25.865 4.49302 25.7454 4.43987 25.6391 4.40665C25.5358 4.24528 25.4203 4.09203 25.2936 3.94824C25.1807 3.8353 25.1143 3.68249 24.988 3.59613C24.8618 3.50976 24.709 3.50311 24.6027 3.39017H24.5429L24.3901 3.2573C24.3865 3.23976 24.3865 3.22168 24.3901 3.20415C24.523 3.00484 24.8086 3.12443 24.9482 2.97827L25.0345 2.92512C25.0727 2.90579 25.1037 2.87469 25.1228 2.8364C25.142 2.79811 25.1483 2.75467 25.1408 2.71252C25.1076 2.61951 24.9947 2.57965 24.9216 2.5265C24.8485 2.47335 24.7621 2.33383 24.6758 2.29397C24.5829 2.264 24.483 2.264 24.3901 2.29397C24.2307 2.23418 24.0114 2.29397 23.8519 2.18767C23.6925 2.08137 23.7457 2.09466 23.7191 1.97507C23.6925 1.85549 23.646 1.72926 23.6128 1.59638C23.5796 1.46351 23.6128 1.42365 23.4866 1.33064C23.3611 1.24947 23.2213 1.19309 23.0746 1.16455C22.853 1.05805 22.6417 0.931282 22.4435 0.785858C22.1561 0.65861 21.8517 0.573579 21.54 0.533401C21.2828 0.468861 21.0412 0.353669 20.8291 0.194573L20.6829 0.101562C20.5902 0.346654 20.5342 0.604114 20.5168 0.865584C20.5168 1.29078 20.2976 1.45687 20.1049 1.81563C19.924 2.28886 19.7796 2.77527 19.6731 3.27058C19.5867 3.50311 19.4671 3.72235 19.3675 3.93495C19.3768 3.92257 19.3888 3.91253 19.4026 3.90561C19.4165 3.89869 19.4317 3.89509 19.4472 3.89509C19.4627 3.89509 19.4779 3.89869 19.4918 3.90561C19.5056 3.91253 19.5177 3.92257 19.5269 3.93495C19.6256 4.01282 19.7353 4.07552 19.8525 4.12098H19.8923C19.8906 4.22103 19.9159 4.3197 19.9654 4.40665C19.9753 4.44429 19.9909 4.48017 20.0119 4.51295L19.9654 4.57938C19.9467 4.61908 19.9355 4.66186 19.9322 4.70562C19.9322 4.70562 19.9322 4.70562 19.9322 4.75212C19.9214 4.78861 19.92 4.82722 19.9282 4.86439C19.9363 4.90155 19.9537 4.93606 19.9787 4.96472H20.291H20.3242C20.7427 4.70562 21.2742 4.85842 21.7061 4.61925C21.7863 4.57982 21.8549 4.52032 21.9054 4.44651L22.0648 4.34686C22.2309 4.23392 22.191 4.2007 22.2243 4.02132C22.2575 3.84194 22.3306 3.85523 22.4369 3.8353C22.4906 3.76527 22.5616 3.71034 22.6428 3.67585L22.7159 3.62934H22.9218H22.9683L23.3138 3.66921C23.4995 3.68397 23.6839 3.71284 23.8652 3.75557C23.9242 3.75012 23.9833 3.76403 24.0337 3.7952C24.084 3.82637 24.1229 3.8731 24.1443 3.92831C24.2173 4.07447 24.1443 4.29371 24.2041 4.43322C24.2041 4.43322 24.2041 4.43323 24.2041 4.47309C24.2041 4.51295 24.2041 4.51959 24.2041 4.53288C24.4233 4.69897 24.6824 4.76541 24.9083 4.94479C25.14 5.15993 25.428 5.30504 25.7388 5.36334C26.0671 5.42706 26.391 5.51138 26.7087 5.6158C26.8283 5.6158 26.8815 5.6158 26.9745 5.53607C27.0062 5.49923 27.0228 5.45177 27.021 5.4032C27.0184 5.33389 26.9965 5.26669 26.9578 5.20917C26.919 5.15164 26.865 5.10609 26.8017 5.07766Z" fill="#002F8B"/>
<path d="M29.6035 4.38142C29.5617 4.37755 29.5211 4.3649 29.4845 4.34429C29.4479 4.32369 29.416 4.29559 29.3909 4.26184L29.3245 4.18211C29.2515 4.07232 29.1474 3.98675 29.0255 3.9363C28.9482 3.92165 28.877 3.88402 28.8213 3.82832C28.7656 3.77263 28.7279 3.70144 28.7133 3.62405C28.7034 3.57136 28.7034 3.51728 28.7133 3.46459C28.7166 3.4248 28.7166 3.3848 28.7133 3.34501C28.7033 3.27895 28.7033 3.21176 28.7133 3.1457C28.7177 3.11263 28.7312 3.08143 28.7523 3.05561C28.7734 3.02979 28.8013 3.01037 28.8329 2.99954C28.8619 2.98195 28.8952 2.97266 28.9292 2.97266C28.9632 2.97266 28.9965 2.98195 29.0255 2.99954C29.1427 3.06953 29.2355 3.17391 29.2913 3.2985C29.302 3.32419 29.3154 3.34868 29.3312 3.37158C29.3953 3.47075 29.4847 3.55102 29.5902 3.60412H29.6301C29.6999 3.64419 29.7603 3.69871 29.8072 3.76402C29.8542 3.82933 29.8867 3.90392 29.9025 3.9828C29.9052 4.04663 29.8934 4.11024 29.8681 4.1689C29.8428 4.22756 29.8046 4.27976 29.7563 4.32163C29.7368 4.34223 29.713 4.35827 29.6866 4.3686C29.6602 4.37894 29.6318 4.38332 29.6035 4.38142ZM28.8927 3.17892C28.8897 3.22094 28.8897 3.26312 28.8927 3.30515C28.9027 3.36452 28.9027 3.42516 28.8927 3.48453C28.8895 3.52211 28.8895 3.55989 28.8927 3.59747C28.8927 3.67055 28.9458 3.70377 29.0787 3.75027C29.2331 3.81425 29.3666 3.9201 29.464 4.05588L29.5238 4.12896C29.5238 4.16882 29.5836 4.18211 29.5902 4.18211C29.6174 4.1608 29.6393 4.13355 29.6543 4.10245C29.6692 4.07136 29.6769 4.03724 29.6766 4.00273C29.6648 3.95351 29.6427 3.90735 29.6118 3.86727C29.5809 3.8272 29.5419 3.79412 29.4972 3.77021H29.4574C29.325 3.70023 29.2128 3.59725 29.1318 3.47124L29.092 3.39816C29.0551 3.31463 28.998 3.24158 28.9259 3.18556C28.9145 3.18526 28.9033 3.18301 28.8927 3.17892Z" fill="#002F8B"/>
<path d="M32.314 5.4972C32.2856 5.50398 32.256 5.50398 32.2276 5.4972L32.1213 5.41747L32.0482 5.36432C32.0352 5.36063 32.0214 5.36063 32.0084 5.36432C31.9611 5.34708 31.918 5.31989 31.8821 5.2846C31.853 5.23996 31.8332 5.18983 31.8241 5.13728C31.8149 5.08473 31.8166 5.03087 31.829 4.979V4.93249C31.8369 4.8963 31.8559 4.86346 31.8833 4.83848C31.9106 4.81349 31.945 4.7976 31.9818 4.79297C32.0057 4.79636 32.0282 4.80619 32.0469 4.8214C32.0657 4.83662 32.0799 4.85665 32.0881 4.87934C32.1763 4.88776 32.2612 4.91757 32.3352 4.96619C32.4093 5.01482 32.4705 5.08078 32.5133 5.15837C32.5354 5.20622 32.5428 5.25956 32.5345 5.31161C32.5262 5.36366 32.5027 5.41207 32.4668 5.45069C32.4229 5.48375 32.3688 5.50023 32.314 5.4972ZM32.0217 5.05208C32.0166 5.07393 32.0166 5.09666 32.0217 5.11851C32.0217 5.11851 32.0217 5.11851 32.0615 5.11851L32.1479 5.15837L32.2409 5.22481L32.3073 5.27131C32.3073 5.23809 32.3073 5.21152 32.3073 5.19159C32.2783 5.14491 32.2383 5.10599 32.1908 5.07821C32.1434 5.05043 32.0899 5.03462 32.035 5.03214H31.9884L32.0217 5.05208Z" fill="#002F8B"/>
</svg>
