<svg width="16" height="16" viewBox="0 0 16 16" fill="none" xmlns="http://www.w3.org/2000/svg">
<path fill-rule="evenodd" clip-rule="evenodd" d="M6.66667 4.00098H9.33333V3.33398C9.33333 2.5976 8.73638 2.00065 8 2.00065C7.26362 2.00065 6.66667 2.5976 6.66667 3.33398V4.00098ZM6 4.00098H5.33333C4.59695 4.00098 4 4.59793 4 5.33431V12.001C4 12.5032 4.27763 12.9405 4.68777 13.1679C4.6742 13.2209 4.66699 13.2764 4.66699 13.3337V14.0003C4.66699 14.3685 4.96547 14.667 5.33366 14.667C5.70185 14.667 6.00033 14.3685 6.00033 14.0003V13.3343H10V14.0003C10 14.3685 10.2985 14.667 10.6667 14.667C11.0349 14.667 11.3333 14.3685 11.3333 14.0003V13.3337C11.3333 13.2764 11.3261 13.2208 11.3125 13.1677C11.7225 12.9403 12 12.503 12 12.001V5.33431C12 4.59793 11.403 4.00098 10.6667 4.00098H10V3.33398C10 2.22941 9.10457 1.33398 8 1.33398C6.89543 1.33398 6 2.22941 6 3.33398V4.00098Z" fill="#3D7B50"/>
</svg>
