<svg width="24" height="24" viewBox="0 0 24 24" fill="none" xmlns="http://www.w3.org/2000/svg">
<path d="M14.3583 7.0588C14.4207 6.33826 14.7222 6.0064 15.2941 6.00009C15.8659 5.99378 16.1799 6.32203 16.2652 7.06061C16.5262 7.07954 16.7934 7.08946 17.0575 7.12013C18.6681 7.3068 19.9605 8.52152 19.9792 9.93374C20.0069 11.9989 20.0069 14.0643 19.9792 16.13C19.9594 17.6559 18.4549 18.9671 16.6925 18.9824C13.8949 19.0059 11.0966 19.0059 8.29758 18.9824C6.53 18.968 5.02651 17.6387 5.013 16.1003C4.99567 14.0616 4.99567 12.0229 5.013 9.98425C5.02443 8.43946 6.48009 7.16251 8.28094 7.08766C8.42443 7.08135 8.56791 7.08766 8.74467 7.08766C8.74363 6.72153 8.76235 6.37434 9.12834 6.18045C9.31889 6.07438 9.53936 6.01574 9.76571 6.01091C10.3178 6.02263 10.5809 6.35179 10.6453 7.0588H14.3583ZM6.88247 10.8788V11.1404C6.88247 12.7275 6.88247 14.315 6.88247 15.9028C6.88247 16.8046 7.5344 17.3628 8.58455 17.3628C11.1957 17.3628 13.8065 17.3628 16.417 17.3628C17.463 17.3628 18.1139 16.801 18.1149 15.8983C18.1149 14.3111 18.1149 12.7236 18.1149 11.1358V10.8788H6.88247Z" fill="#3968BF"/>
<path d="M11.2226 13.622C10.4395 13.622 9.65556 13.622 8.87248 13.622C8.36605 13.622 8.00651 13.2841 8.0002 12.8227C7.99029 12.3496 8.35073 12 8.87699 12C10.4527 12 12.0285 12 13.6043 12C14.0476 12 14.3315 12.2019 14.4513 12.5758C14.5078 12.7399 14.5071 12.9182 14.4493 13.0818C14.3916 13.2454 14.2802 13.3847 14.1332 13.4769C13.9699 13.5682 13.7868 13.618 13.5998 13.622C12.8077 13.6337 12.0147 13.622 11.2226 13.622Z" fill="#3968BF"/>
<path d="M9.90906 14.7029C10.2596 14.7029 10.611 14.7029 10.9652 14.7029C11.4473 14.7128 11.7915 15.0633 11.7888 15.5193C11.7893 15.6255 11.7686 15.7307 11.7279 15.8289C11.6872 15.927 11.6273 16.016 11.5518 16.0907C11.4763 16.1654 11.3866 16.2242 11.288 16.2638C11.1895 16.3034 11.084 16.3229 10.9778 16.3213C10.2569 16.3327 9.536 16.3327 8.8151 16.3213C8.60001 16.3192 8.39453 16.2318 8.24388 16.0783C8.09322 15.9248 8.00972 15.7177 8.01175 15.5026C8.01379 15.2875 8.10118 15.082 8.25471 14.9314C8.40824 14.7807 8.61533 14.6972 8.83042 14.6993C9.18907 14.7029 9.54861 14.7029 9.90906 14.7029Z" fill="#3968BF"/>
</svg>
