<svg width="24" height="24" viewBox="0 0 24 24" fill="none" xmlns="http://www.w3.org/2000/svg">
<path d="M20.3129 8.24076C20.6734 7.76051 20.9781 7.32417 21.3173 6.91842C21.4619 6.73261 21.6554 6.59073 21.876 6.50869C22.178 6.41955 22.5239 6.41024 22.7474 6.72154C22.9709 7.03283 23.0268 7.42394 22.7886 7.7645C22.0796 8.77554 21.3612 9.78658 20.6229 10.7723C20.3941 11.081 20.0296 11.0996 19.677 11.0078C18.5356 10.7072 17.3955 10.4016 16.2568 10.0912C15.7247 9.94755 15.4293 9.45533 15.5624 8.97642C15.6358 8.7457 15.7961 8.55264 16.0094 8.43815C16.2228 8.32367 16.4723 8.29676 16.7051 8.36314C17.1042 8.4576 17.5033 8.572 17.9024 8.67444C18.0274 8.70637 18.1538 8.73297 18.2789 8.76224L18.3693 8.67577C18.0607 8.21016 17.796 7.70597 17.4381 7.28692C15.5491 5.10254 13.1478 4.26045 10.3475 4.9163C7.63236 5.55352 5.83378 7.28958 4.98903 9.9715C4.94912 10.1045 4.92251 10.2282 4.89058 10.356C4.75755 10.8814 4.2507 11.2207 3.78908 11.093C3.53619 11.0243 3.32059 10.8587 3.18908 10.632C3.05757 10.4054 3.02077 10.136 3.08668 9.88236C3.91413 6.92241 5.70341 4.76464 8.54097 3.57401C12.9749 1.71157 18.0421 3.65649 20.1759 7.97602C20.2025 8.04387 20.2411 8.11038 20.3129 8.24076Z" fill="#BF3939"/>
<path d="M3.76663 15.7733C3.43006 16.2509 3.12675 16.6819 2.82077 17.1103C2.45228 17.6264 1.85895 17.7941 1.45321 17.5027C1.00755 17.1861 0.921083 16.4983 1.28027 16.0048C1.8727 15.1711 2.46913 14.3401 3.06954 13.5118C3.4274 13.0169 3.80787 12.8852 4.38256 13.0382C5.46012 13.3255 6.539 13.6062 7.61257 13.9015C8.19658 14.0625 8.47594 14.5414 8.32429 15.0829C8.20589 15.5086 7.67243 15.7573 7.14297 15.6283C6.6135 15.4993 6.06541 15.3622 5.47741 15.2146C5.50146 15.2979 5.53078 15.3797 5.56521 15.4593C6.1081 16.4637 6.87915 17.3267 7.81633 17.9788C8.75352 18.6309 9.83067 19.054 10.9611 19.2139C12.0916 19.3738 13.2438 19.2662 14.3251 18.8997C15.4065 18.5332 16.3866 17.918 17.1868 17.1036C18.1099 16.1736 18.7442 14.9964 19.0134 13.714C19.1624 13.0342 19.7331 12.7189 20.3251 12.9757C20.7534 13.1619 20.961 13.6235 20.8199 14.1503C19.9818 17.2912 18.0422 19.4836 14.9958 20.589C10.7468 22.1295 6.16918 20.2964 4.05397 16.2974C3.97017 16.1378 3.88103 15.9808 3.76663 15.7733Z" fill="#BF3939"/>
</svg>
