<svg width="25" height="24" viewBox="0 0 25 24" fill="none" xmlns="http://www.w3.org/2000/svg">
<path d="M12.6191 21.1225C10.377 21.1195 8.21266 20.3006 6.53014 18.8187C4.84762 17.3368 3.76196 15.2932 3.47587 13.0694C3.18978 10.8457 3.72282 8.59379 4.97546 6.73427C6.22811 4.87475 8.11472 3.5347 10.283 2.96433C10.4503 2.92141 10.6594 2.84219 10.7914 2.89831C11.0077 2.97862 11.1928 3.12588 11.3196 3.31864C11.4417 3.53871 11.3658 3.8061 11.171 4.01187C10.6389 4.5683 10.2054 5.2113 9.88911 5.91329C8.16815 9.76455 10.4602 14.2243 14.5986 15.0463C16.7355 15.4677 18.637 14.9362 20.2831 13.5058C20.7232 13.1261 20.9972 13.0425 21.2987 13.2197C21.6002 13.3968 21.6839 13.7126 21.5122 14.276C20.3777 17.9919 17.9096 20.2378 14.0881 20.9882C13.9708 21.0149 13.8522 21.0351 13.7327 21.0487C13.3618 21.0729 12.9899 21.0961 12.6191 21.1225Z" fill="#BF3939"/>
</svg>
