<svg width="16" height="16" viewBox="0 0 16 16" fill="none" xmlns="http://www.w3.org/2000/svg">
<path d="M3.69261 12.127C3.93484 12.3692 4.33011 12.3791 4.56728 12.1419L7.85282 8.8564L11.0446 12.0481C11.2817 12.2853 11.6918 12.2906 11.934 12.0483C12.176 11.8063 12.1661 11.4009 11.9289 11.1638L8.73719 7.97203L12.028 4.68122C12.265 4.44426 12.2551 4.04899 12.0128 3.80676C11.7708 3.56475 11.3804 3.55969 11.1432 3.79685L7.8524 7.08767L4.66067 3.89594C4.42351 3.65877 4.01832 3.64865 3.77631 3.89066C3.53429 4.13268 3.53914 4.54314 3.77631 4.7803L6.96804 7.97203L3.68249 11.2576C3.44533 11.4947 3.4506 11.885 3.69261 12.127Z" fill="#B5B5C2"/>
</svg>
