<svg width="17" height="16" viewBox="0 0 17 16" fill="none" xmlns="http://www.w3.org/2000/svg">
<g clip-path="url(#clip0_1316_8758)">
<circle cx="8.5" cy="8" r="8" fill="#3D7B50"/>
<path d="M7.42118 9.57938L10.2504 6.63236L11.9076 4.90432C11.9963 4.80425 12.1129 4.73119 12.2432 4.69391C12.3736 4.65663 12.5122 4.65672 12.6425 4.69416C12.771 4.72613 12.8872 4.79332 12.9775 4.88771C13.0678 4.9821 13.1282 5.09972 13.1517 5.22658C13.1772 5.34921 13.1693 5.47617 13.1289 5.59493C13.0884 5.7137 13.0168 5.82015 12.9211 5.90378C11.6979 7.17724 10.4746 8.4507 9.2513 9.72416C8.82859 10.1492 8.41069 10.6162 8.0024 11.0365C7.93532 11.1281 7.8467 11.2028 7.74393 11.2543C7.64115 11.3058 7.5272 11.3327 7.41157 11.3327C7.29594 11.3327 7.18199 11.3058 7.07921 11.2543C6.97644 11.2028 6.88782 11.1281 6.82074 11.0365C5.89528 10.0215 4.96981 9.00647 4.04434 7.99144C3.97504 7.92414 3.92058 7.84381 3.88429 7.75535C3.848 7.66689 3.83064 7.57217 3.83327 7.47697C3.8359 7.38177 3.85847 7.28809 3.89959 7.20165C3.94072 7.11522 3.99954 7.03784 4.07246 6.97426C4.14538 6.91067 4.23086 6.86221 4.3237 6.83183C4.41653 6.80145 4.51476 6.78979 4.61238 6.79757C4.71 6.80535 4.80497 6.8324 4.89148 6.87707C4.97798 6.92174 5.05421 6.98309 5.11551 7.05737L7.0417 9.18706L7.42118 9.57938Z" fill="white"/>
</g>
<defs>
<clipPath id="clip0_1316_8758">
<rect width="16" height="16" fill="white" transform="translate(0.5)"/>
</clipPath>
</defs>
</svg>
