<svg width="18" height="18" viewBox="0 0 18 18" fill="none" xmlns="http://www.w3.org/2000/svg">
<path d="M0.369597 17.0098C0.854049 17.4943 1.6446 17.5141 2.11894 17.0397L8.69002 10.4687L15.0735 16.8521C15.5478 17.3265 16.3679 17.337 16.8523 16.8525C17.3364 16.3685 17.3166 15.5577 16.8422 15.0834L10.4588 8.69993L17.0404 2.1183C17.5143 1.64439 17.4945 0.853834 17.01 0.369382C16.526 -0.114648 15.7451 -0.124768 15.2708 0.349565L8.68918 6.93119L2.30572 0.54773C1.83139 0.073398 1.02102 0.0531593 0.536987 0.537189C0.052957 1.02122 0.0626533 1.84213 0.536986 2.31646L6.92045 8.69992L0.34936 15.271C-0.124973 15.7453 -0.114433 16.5258 0.369597 17.0098Z" fill="#B5B5C2"/>
</svg>
