<svg width="24" height="24" viewBox="0 0 24 24" fill="none" xmlns="http://www.w3.org/2000/svg">
<path d="M21.8354 5.78899C21.697 6.73915 21.5386 7.73577 21.4185 8.7372C21.403 8.94748 21.4716 9.15553 21.6103 9.31883C22.2623 10.0062 22.9444 10.6631 23.6114 11.3313C24.1334 11.8504 24.13 12.1421 23.5981 12.6724C22.9394 13.3294 22.264 13.9735 21.6287 14.6512C21.4789 14.8241 21.4032 15.0452 21.4169 15.2697C21.5186 16.1926 21.672 17.1107 21.8021 18.0305C21.9005 18.7307 21.717 18.971 21.0067 19.0928C20.0561 19.253 19.1006 19.4004 18.1567 19.5911C17.9276 19.6461 17.7287 19.7823 17.5998 19.9724C17.1345 20.7479 16.7143 21.5491 16.2757 22.3406C15.8755 23.0632 15.617 23.1418 14.8366 22.778C14.0128 22.3919 13.1857 22.0121 12.3719 21.6084C12.2601 21.5438 12.1321 21.5097 12.0017 21.5097C11.8712 21.5097 11.7433 21.5438 11.6315 21.6084C10.7727 22.0346 9.90051 22.4351 9.03002 22.8389C8.39967 23.1321 8.10451 23.0392 7.76933 22.4432C7.31908 21.642 6.86716 20.8409 6.43525 20.0221C6.38146 19.899 6.29401 19.7921 6.18216 19.7128C6.07031 19.6336 5.93822 19.5849 5.7999 19.5719C4.84437 19.4309 3.89552 19.2514 2.94666 19.0912C2.27962 18.9774 2.09285 18.7258 2.18123 18.0962C2.31297 17.1348 2.46639 16.1926 2.57979 15.2393C2.59498 15.0432 2.53176 14.8489 2.40302 14.6961C1.73599 14.0007 1.04227 13.3326 0.361893 12.65C-0.125043 12.1693 -0.12004 11.8248 0.373567 11.3329C1.0406 10.6744 1.70764 10.0318 2.34299 9.35248C2.50591 9.16855 2.58997 8.93199 2.57812 8.69073C2.4764 7.75179 2.31798 6.81766 2.18957 5.88193C2.10786 5.28908 2.27795 5.04553 2.88496 4.93177C3.86383 4.74911 4.85271 4.61131 5.82825 4.40141C6.07015 4.34231 6.27984 4.1975 6.41524 3.99604C6.89718 3.19489 7.32741 2.3585 7.786 1.54133C8.10451 0.972521 8.41302 0.87318 9.01668 1.14877C9.89384 1.55736 10.766 1.99318 11.6615 2.38093C11.8796 2.46351 12.1221 2.46351 12.3402 2.38093C13.2357 1.99318 14.1078 1.55736 14.995 1.14877C15.6003 0.871577 15.9005 0.970919 16.219 1.53813C16.6843 2.36971 17.1295 3.21252 17.6148 4.03449C17.7323 4.21283 17.9158 4.34168 18.1284 4.395C19.1289 4.59369 20.1295 4.74591 21.1301 4.93017C21.6754 5.03111 21.8571 5.25864 21.8354 5.78899ZM12.6854 7.95048C12.6854 7.53709 12.7121 7.18458 12.6854 6.83849C12.681 6.75725 12.6596 6.6777 12.6226 6.60454C12.5856 6.53138 12.5337 6.46611 12.4699 6.41261C12.4061 6.3591 12.3318 6.31846 12.2514 6.29308C12.171 6.2677 12.086 6.25811 12.0017 6.26487C11.8325 6.25748 11.6672 6.31493 11.5421 6.4246C11.4171 6.53427 11.3424 6.68718 11.3346 6.84971C11.3049 7.05623 11.2994 7.26528 11.318 7.473C11.363 7.83031 11.2162 7.95368 10.8477 8.0386C10.2783 8.15775 9.77313 8.47112 9.42575 8.92068C9.07837 9.37024 8.9123 9.92552 8.95832 10.4837C9.00613 11.0571 9.26937 11.5942 9.69892 11.9948C10.1285 12.3955 10.695 12.6323 11.2929 12.6612C11.6581 12.6804 12.0267 12.6612 12.3919 12.6708C13.1556 12.6804 13.6476 13.0762 13.6509 13.6835C13.6542 14.2907 13.1706 14.6865 12.3969 14.6913C11.7482 14.6913 11.0978 14.6913 10.4475 14.6913C9.87549 14.6913 9.55198 14.9557 9.56032 15.3851C9.56865 15.8145 9.87716 16.026 10.4291 16.026C10.706 16.026 10.9828 16.026 11.3113 16.026C11.3113 16.3913 11.2979 16.6942 11.3113 16.9874C11.3346 17.4312 11.6231 17.7244 12.0067 17.7228C12.3902 17.7212 12.6737 17.4264 12.7054 16.989C12.7221 16.6685 12.7054 16.3593 12.7054 16.05C12.8621 16.0212 12.9439 16.01 13.0222 15.9907C14.3563 15.6703 15.1901 14.5952 15.035 13.395C14.8799 12.1949 13.831 11.3217 12.4619 11.3121C12.1634 11.3121 11.8633 11.3121 11.5631 11.3121C10.836 11.3073 10.3508 10.9019 10.3508 10.309C10.3508 9.7162 10.826 9.30761 11.5581 9.298C12.2902 9.28839 12.9905 9.298 13.7059 9.298C14.1562 9.28839 14.463 9.00158 14.4414 8.61703C14.418 8.19723 14.1595 7.97611 13.7326 7.96169C13.4241 7.93926 13.1089 7.95048 12.6854 7.95048Z" fill="#3D7B50"/>
</svg>
