<svg width="145" height="93" viewBox="0 0 145 93" fill="none" xmlns="http://www.w3.org/2000/svg">
<path d="M16.9152 2.16683C18.2583 0.781756 20.1053 0 22.0347 0H137.869C141.807 0 145 3.19272 145 7.13115V85.5738C145 89.5122 141.807 92.7049 137.869 92.7049H7.13115C3.19272 92.7049 0 89.5122 0 85.5738V22.5004C0 20.6471 0.721518 18.8666 2.01169 17.5361L16.9152 2.16683Z" fill="#F2F7FF"/>
<path d="M144.875 7.13115V85.5738C144.875 89.4431 141.738 92.5799 137.869 92.5799H7.13115C3.26176 92.5799 0.125 89.4432 0.125 85.5738V22.5004C0.125 20.6796 0.833871 18.9303 2.10143 17.6231L17.005 2.25385C18.3245 0.893053 20.1392 0.125 22.0347 0.125H137.869C141.738 0.125 144.875 3.26176 144.875 7.13115Z" stroke="#15459D" stroke-opacity="0.3" stroke-width="0.25"/>
<path d="M34.4468 36.8625C36.7529 36.8625 38.7251 37.3024 40.3636 38.1824C42.0324 39.0623 43.322 40.3367 44.2322 42.0055C45.1425 43.6743 45.5976 45.7224 45.5976 48.1498V51.4268H29.5769C29.6376 53.3383 30.1989 54.8403 31.2609 55.9326C32.3532 57.0249 33.8552 57.5711 35.7667 57.5711C37.3749 57.5711 38.8313 57.4194 40.136 57.116C41.4407 56.7822 42.791 56.2816 44.1867 55.614V60.8481C42.973 61.4549 41.6835 61.8949 40.3181 62.168C38.983 62.4714 37.3597 62.6231 35.4481 62.6231C32.9601 62.6231 30.7602 62.168 28.8487 61.2577C26.9371 60.3171 25.4352 58.9062 24.3428 57.0249C23.2505 55.1437 22.7044 52.777 22.7044 49.9248C22.7044 47.012 23.1898 44.5998 24.1608 42.6882C25.1621 40.7463 26.5427 39.2898 28.3025 38.3189C30.0624 37.3479 32.1105 36.8625 34.4468 36.8625ZM34.4924 41.6869C33.1876 41.6869 32.0953 42.1117 31.2154 42.9613C30.3658 43.8109 29.8651 45.1307 29.7134 46.9209H39.2258C39.2258 45.9196 39.0437 45.0245 38.6796 44.2356C38.3458 43.4467 37.83 42.8247 37.1321 42.3696C36.4343 41.9145 35.5543 41.6869 34.4924 41.6869ZM61.7695 62.4866C59.5545 62.4866 57.5519 62.1073 55.7617 61.3487C54.0019 60.5902 52.6061 59.4978 51.5745 58.0718C50.5429 56.6457 50.0119 54.9617 49.9815 53.0198H56.8085C56.8996 54.3245 57.3547 55.3561 58.174 56.1147C59.0235 56.8732 60.1765 57.2525 61.633 57.2525C63.1198 57.2525 64.2879 56.9036 65.1375 56.2057C65.9871 55.4775 66.4119 54.5369 66.4119 53.3839C66.4119 52.4433 66.1236 51.6695 65.5471 51.0627C64.9706 50.4558 64.2424 49.9855 63.3625 49.6518C62.5129 49.2876 61.3296 48.8932 59.8124 48.4684C57.7492 47.8616 56.0652 47.2699 54.7604 46.6934C53.4861 46.0865 52.3786 45.1914 51.438 44.0081C50.5277 42.7944 50.0725 41.1862 50.0725 39.1837C50.0725 37.3024 50.5429 35.6639 51.4835 34.2682C52.4241 32.8724 53.744 31.8105 55.4431 31.0822C57.1423 30.3237 59.0842 29.9444 61.2689 29.9444C64.5458 29.9444 67.2008 30.7485 69.2337 32.3566C71.297 33.9344 72.4349 36.1494 72.6472 39.0016H65.6382C65.5775 37.9093 65.1072 37.0142 64.2272 36.3163C63.3777 35.5881 62.2398 35.224 60.8137 35.224C59.5697 35.224 58.5684 35.5426 57.8098 36.1798C57.0816 36.8169 56.7175 37.7424 56.7175 38.9561C56.7175 39.8057 56.9906 40.5187 57.5368 41.0952C58.1133 41.6414 58.8111 42.0965 59.6304 42.4606C60.48 42.7944 61.6633 43.1888 63.1804 43.644C65.2437 44.2508 66.9277 44.8577 68.2324 45.4645C69.5372 46.0714 70.6598 46.9816 71.6004 48.1953C72.541 49.409 73.0114 51.002 73.0114 52.9742C73.0114 54.6734 72.5714 56.2512 71.6915 57.7076C70.8115 59.1641 69.522 60.3323 67.8228 61.2122C66.1236 62.0618 64.1059 62.4866 61.7695 62.4866ZM85.0212 30.3995V62.168H78.6493V30.3995H85.0212ZM126.066 30.3995V62.168H119.694V41.5048L111.183 62.168H106.359L97.8023 41.5048V62.168H91.4305V30.3995H98.6671L108.771 54.0211L118.875 30.3995H126.066Z" fill="#3968BF"/>
</svg>
