<svg width="42" height="42" viewBox="0 0 42 42" fill="none" xmlns="http://www.w3.org/2000/svg">
<mask id="mask0_1197_2313" style="mask-type:alpha" maskUnits="userSpaceOnUse" x="0" y="0" width="42" height="42">
<circle cx="20.9999" cy="20.9989" r="20.4286" fill="#B1C4FB"/>
</mask>
<g mask="url(#mask0_1197_2313)">
<path d="M13.2818 31.1262C13.4943 31.4014 13.089 31.6308 13.0946 31.6935C13.0693 31.5063 12.9148 31.467 12.7492 31.5007C12.824 31.3574 13.0478 31.1683 13.2022 31.202L13.2818 31.1262ZM6.21127 20.2672C6.23749 20.314 6.30489 20.3608 6.33578 20.4179C6.38333 20.3856 6.42197 20.3418 6.44815 20.2906C6.47432 20.2394 6.48719 20.1824 6.48556 20.1249C6.79167 19.9976 7.20731 20.0931 7.39547 19.8151C7.55087 19.5838 7.54525 19.0783 7.55087 18.7975C7.50859 18.6869 7.50859 18.5646 7.55087 18.4539C7.44134 18.1797 7.82047 18.1403 7.88319 17.9512C7.90846 17.8745 7.81953 17.4308 7.74183 17.3821C7.48159 17.2192 7.30654 17.3137 7.05285 17.2707C6.88154 17.2417 6.8338 17.0778 6.6213 17.1246C6.48556 17.1546 6.54453 17.3736 6.29459 17.3353C6.19442 17.3886 6.02779 17.4354 5.98286 17.5599C5.86678 17.8838 6.27119 17.5749 6.27961 17.8866C6.15043 17.9325 5.96227 17.9185 5.79938 17.9175C5.78066 17.9597 5.76194 17.9952 5.74509 18.0383C5.52978 18.0308 5.29481 18.0383 5.07201 18.0317C4.99806 18.2648 5.18248 18.3921 5.36315 18.482C5.38281 18.6627 5.23584 18.688 5.07201 18.643C5.03176 18.8911 5.83121 19.2225 5.41651 19.3311C5.38842 19.6653 5.8518 19.3067 5.78347 19.7214C5.68049 19.7046 5.4942 19.6278 5.40902 19.6391C5.25362 19.6578 5.23864 19.8263 5.02895 19.7907C5.10759 19.8525 5.12257 19.962 5.17031 20.0257C5.01959 20.0388 5.00742 20.1024 4.95313 20.2232C5.0664 20.3037 5.1469 20.3412 5.28545 20.2766C5.0121 20.4039 5.54008 20.4741 5.50263 20.4638C5.74415 20.5143 6.01937 20.3973 6.21127 20.2672ZM12.1753 32.3825C12.2078 32.2743 12.2094 32.1592 12.18 32.0502C12.2408 32.019 12.3033 31.9912 12.3672 31.9669C12.3646 31.9357 12.3646 31.9044 12.3672 31.8732C12.0583 31.6664 11.8018 32.3525 12.1753 32.3778V32.3825ZM7.67163 15.4406C7.89349 15.6493 7.61265 15.7214 7.69409 15.9704C7.62482 15.9526 7.54899 15.9788 7.47972 15.9629C7.41326 16.27 7.74839 16.2634 7.7849 15.991C8.18275 15.9985 7.87851 16.4151 7.84762 16.6126C7.82074 16.6041 7.79163 16.6061 7.76617 16.6182C7.71959 16.5852 7.66572 16.564 7.60916 16.5563C7.5526 16.5487 7.49502 16.5548 7.44134 16.5742C7.42714 16.6131 7.42624 16.6556 7.43877 16.6951C7.45131 16.7345 7.47657 16.7687 7.51061 16.7923C7.57052 16.7277 7.68192 16.7081 7.73996 16.6322C7.84574 16.7352 7.68941 17.3137 7.92719 17.2407C8.12752 17.1771 8.0208 16.679 8.09475 16.5648C8.1575 16.5811 8.21723 16.6074 8.27168 16.6425C8.47763 16.7745 8.34844 17.3353 8.09288 17.3793C8.18595 17.4651 8.27117 17.5591 8.34751 17.6601C8.25389 17.5496 9.27614 17.5515 9.27427 17.4888C9.28033 17.6157 9.2556 17.7423 9.20218 17.8576C9.25086 18.0514 9.41656 18.1441 9.57663 18.2545C9.57055 18.2854 9.56804 18.3168 9.56914 18.3482C9.48864 18.3594 9.43247 18.423 9.3529 18.4418C9.33558 18.5166 9.33558 18.5944 9.3529 18.6692C9.41936 18.6692 9.45681 18.732 9.5317 18.7366C9.42124 19.2983 8.77625 18.8237 8.66391 18.9763C8.64238 19.0062 8.63302 19.0409 8.60962 19.0699C8.57779 18.9548 8.52162 18.8902 8.54409 18.7544C8.53098 18.7591 8.48512 18.7647 8.47482 18.7544C8.34563 18.9725 8.65549 19.3021 8.64894 19.5511C8.6377 19.9162 8.53192 19.8787 8.30538 20.0575C8.23056 20.1061 8.16677 20.1699 8.11816 20.2447C8.4121 20.4479 8.58622 20.4151 8.92228 20.4731C9.073 20.4984 9.14508 20.5892 9.29673 20.5995C9.39035 20.6061 9.64778 20.2316 9.6431 20.6398C9.38847 20.6398 9.33511 20.8092 9.1638 20.8644C8.81276 20.9777 8.7491 20.8401 8.53567 21.1247C8.39712 21.3119 8.36248 21.5207 8.19773 21.6705C8.24172 21.6152 7.65477 21.8867 7.88319 21.8848C8.00015 21.8951 8.1179 21.8922 8.23423 21.8764C8.3578 21.8427 8.47482 21.6143 8.61992 21.618C8.69106 21.618 8.79029 21.7594 8.84271 21.7519C9.10951 21.7144 9.25648 21.4317 9.5654 21.4102C9.85243 21.4024 10.1366 21.3506 10.4079 21.2567C10.9041 21.0835 11.7288 21.2932 12.1014 20.7493C12.0896 20.7456 12.0789 20.7392 12.0701 20.7306C12.0613 20.722 12.0547 20.7114 12.0508 20.6997C11.94 20.724 11.8242 20.7091 11.7232 20.6576C11.7896 20.549 11.8795 20.3992 11.8458 20.2831C12.1266 20.3149 12.4458 19.9499 12.4449 19.6784C12.2352 19.4706 12.2455 19.3975 11.9553 19.3395C11.7737 19.3039 11.638 19.3685 11.4386 19.3788C11.3253 18.9314 11.3365 18.7067 11.1156 18.3238C10.9284 17.9999 10.6953 17.8951 10.4959 17.6788C10.2422 17.4027 10.3808 16.9664 10.0438 16.7184C9.89491 16.6098 9.4877 16.474 9.30048 16.5864C9.28722 16.5893 9.27348 16.5893 9.26022 16.5864C9.22559 16.5573 9.19189 16.5236 9.16193 16.4928C9.23682 16.2119 9.58038 16.4665 9.61595 16.1614C9.55697 16.1483 9.48957 16.0893 9.43996 16.0799C9.60659 15.8862 9.82377 15.9152 9.95857 15.6839C10.0728 15.4864 9.967 15.2028 10.2188 15.1054C10.1973 14.8339 9.0496 14.9912 8.80152 15.0586C8.76876 14.9145 8.77344 14.8658 8.92322 14.7862C8.79778 14.5185 9.36413 14.4979 9.42779 14.2142C9.30797 13.924 9.02619 14.1852 8.80246 14.1759C8.60868 14.1674 8.41397 14.0485 8.16871 14.0467C8.14998 14.3163 8.02829 14.5344 8.04046 14.7534C7.94685 14.7591 7.91408 14.8143 7.82702 14.8218C7.77285 14.9076 7.73742 15.004 7.72306 15.1045C7.7087 15.205 7.71574 15.3074 7.74371 15.405C7.71071 15.3544 7.68458 15.2996 7.66601 15.2421C7.58457 15.1541 7.46568 15.0202 7.29156 15.0549C7.06127 15.3909 7.52933 15.3058 7.67163 15.4406ZM2.84872 7.72317C2.77851 7.64266 2.35539 7.65202 2.23931 7.61083C2.32262 7.51722 2.2702 7.46854 2.3039 7.35901C2.21871 7.35901 2.14476 7.29161 2.0474 7.30472C2.07362 7.25979 2.08485 7.17741 2.11574 7.12873C1.97774 7.14028 1.84073 7.16156 1.70572 7.19238C1.66266 7.09877 1.53254 6.88159 1.42488 6.86287C1.12813 6.81232 1.30412 6.99767 1.15622 7.11281C1.02609 7.21485 0.923121 7.1849 0.823892 7.23545C0.710413 7.29031 0.585781 7.31819 0.459741 7.31689C0.448647 7.29356 0.440171 7.26907 0.434465 7.24387C0.310456 7.2238 0.184026 7.2238 0.0600166 7.24387C0.0693777 7.29442 0.0834198 7.34216 0.0955894 7.38897C0.0486941 7.44457 0.0211015 7.51388 0.0169551 7.58649C-0.0860183 7.43952 -0.24984 7.27851 -0.442681 7.32344C-0.635522 7.36838 -0.676711 7.61458 -0.863 7.74002C-1.06146 7.32625 -1.33949 7.32438 -1.36663 7.80461C-1.4919 7.82072 -1.61911 7.81213 -1.74108 7.77933C-1.74108 7.86171 -1.78882 7.92256 -1.79163 7.99745C-2.11553 7.87856 -1.78134 7.48071 -2.01256 7.27476C-2.10617 7.19426 -2.7418 6.98176 -2.81107 7.01546C-2.72588 7.55186 -3.45699 6.86006 -3.32126 7.50131C-3.36338 7.49569 -3.38117 7.47977 -3.42049 7.47229C-3.49103 7.56131 -3.54725 7.6608 -3.58712 7.76716C-3.65732 7.74938 -3.73128 7.76716 -3.80617 7.73814C-3.73409 8.44772 -2.74086 7.50505 -2.3636 7.92537C-2.40947 7.95813 -2.43381 8.01898 -2.50496 8.04613C-2.49279 8.10791 -2.52836 8.20059 -2.51713 8.26331C-2.81201 8.23522 -3.04323 8.40653 -3.34653 8.38968C-3.35477 8.42628 -3.35359 8.46436 -3.34312 8.50038C-3.33264 8.5364 -3.3132 8.56917 -3.28662 8.59563C-3.23139 8.55257 -3.2005 8.54883 -3.15275 8.47768C-2.83635 8.34662 -2.45253 8.5975 -2.24191 8.898C-2.24191 8.898 -2.24191 8.90736 -2.24191 8.91204C-2.24353 8.91907 -2.24572 8.92596 -2.24846 8.93264C-2.24819 8.9345 -2.24819 8.93639 -2.24846 8.93825L-2.81013 9.22471C-2.72087 9.26149 -2.6216 9.26612 -2.5293 9.23781C-2.72682 9.58511 -2.51619 9.4915 -2.10991 9.43253C-1.81504 9.3904 -1.54824 9.60103 -1.35446 9.43253C-1.11856 9.82102 -0.241415 9.83693 0.167671 9.70774C0.188265 9.36232 0.549608 9.53082 0.795809 9.47465C1.04476 9.40375 1.26927 9.26542 1.44454 9.07493C1.49082 9.07571 1.53691 9.08104 1.58215 9.09084C1.58777 9.07305 1.59338 9.05433 1.59807 9.03654C1.95379 9.06744 2.15974 9.04965 2.24867 8.70329C2.61469 8.7969 2.62312 8.36441 2.9311 8.30543C2.77664 8.12476 2.99757 7.88699 2.84872 7.72317ZM22.7563 15.1073C22.8359 14.936 22.9931 14.9051 22.9819 14.6963C22.7357 14.6299 22.6121 14.877 22.3828 14.9266C22.3903 15.0727 22.3191 15.2477 22.3397 15.3844C22.3566 15.4902 22.4876 15.6137 22.4989 15.7588C22.6889 15.5454 22.6533 15.3329 22.7582 15.1036L22.7563 15.1073ZM41.6388 25.2174C41.4516 25.1912 41.2924 25.0985 41.094 25.1856C41.0397 25.1575 41.0659 25.1556 41.0172 25.1472C40.9171 24.8795 41.2335 24.9141 41.2981 24.7213C41.0743 24.4779 40.9068 23.9583 40.5801 23.8423C40.5801 23.8423 40.4303 23.9508 40.346 23.9256C40.2112 23.8853 40.2356 23.6597 40.1757 23.5652C40.0755 23.406 39.6655 23.0971 40.0671 22.9389C40.0863 22.8332 40.0891 22.7253 40.0755 22.6187C39.9529 22.4774 40.2047 21.8614 40.3301 21.7126C40.7982 21.1509 40.7476 22.0664 41.0668 22.1048C41.3027 22.1329 41.3477 21.9092 41.372 21.7229C41.4048 21.4916 41.2644 21.5356 41.4478 21.2941C41.6032 21.0901 41.9393 20.7605 42.1967 20.6388V5.30703C42.1359 5.29861 42.0835 5.26959 42.0189 5.40065C41.9932 5.46286 41.9512 5.517 41.8973 5.55736C41.8434 5.59772 41.7797 5.62281 41.7128 5.63L41.3692 5.70676L41.182 5.63C41.1511 5.6745 41.1374 5.72875 41.1436 5.78258C41.1436 5.89773 40.7617 5.96981 40.7617 5.96981L40.5744 6.62229C40.5744 6.62229 39.8864 6.73649 39.6196 6.65973C39.4504 6.60575 39.303 6.49875 39.1993 6.35456C39.1993 6.35456 38.3961 5.93424 39.3519 5.78071L39.8489 5.70489C39.8489 5.70489 40.0362 5.78071 40.0015 5.66651C39.9669 5.5523 39.4286 5.0936 39.4286 5.0936C39.4286 5.0936 38.2435 5.05522 37.9758 4.97846C37.708 4.90169 38.5487 5.13104 38.3961 5.62812C38.2435 6.12521 38.0141 6.23941 38.1284 6.31617C38.2426 6.39294 38.5112 6.23941 38.4729 6.5034C38.4345 6.76739 38.5487 6.27405 38.4345 6.77113L38.3193 7.26821L37.9374 7.08099C37.9374 7.08099 37.6697 6.92746 37.4403 7.00422C37.378 7.02787 37.3111 7.03672 37.2448 7.03006C37.1785 7.02339 37.1147 7.00141 37.0584 6.96584C37.0584 6.96584 36.7906 7.42454 36.4087 7.38616L36.1793 7.57339L35.759 7.68853C35.759 7.68853 35.6439 7.95626 35.9116 8.22305L36.0988 8.52917L35.8704 8.56755L35.6401 8.7969L35.3733 8.64431L35.0289 8.49079C34.9777 8.53801 34.9112 8.56525 34.8416 8.56755H34.7237L34.4176 8.29982L34.2303 8.07047L34.001 8.14723L33.8484 8.22305L33.6949 8.3382C33.7344 8.45758 33.7858 8.57268 33.8484 8.68176C33.9242 8.7969 34.192 8.86898 34.192 8.86898L34.4597 8.90642C34.4597 8.90642 34.689 8.98319 34.6123 9.17416C34.5355 9.36512 34.3024 9.29772 34.3024 9.29772L34.1489 9.45031L33.9196 9.26309C33.8935 9.29752 33.8577 9.32321 33.8167 9.33676C33.7757 9.3503 33.7316 9.35105 33.6902 9.33891C33.5376 9.30147 33.5376 9.10956 33.3466 9.03374C33.1557 8.95791 33.1941 8.91859 32.9647 8.88115C32.7354 8.8437 32.8112 9.22471 32.7354 8.84277L32.6586 8.45989C32.5667 8.36959 32.4896 8.26533 32.4302 8.15097L32.3918 8.03583L32.6212 7.57713C32.6212 7.57713 32.6212 7.42454 32.5069 7.38991C32.3927 7.35527 32.315 7.16149 32.315 7.16149H31.9331L31.7805 7.12311L31.7038 6.93589L31.436 6.82168L31.1308 6.43974L31.436 6.40136C31.436 6.40136 31.5895 6.58859 31.7038 6.63071C31.818 6.67284 31.891 6.51557 31.9715 6.63071C32.052 6.74585 32.2008 6.63071 32.315 6.70654C32.4292 6.78236 32.2392 6.63071 32.4302 6.7833C32.6212 6.93589 33.0798 7.01265 33.0798 7.01265C33.0798 7.01265 33.5769 7.05103 33.8447 7.08941C34.1124 7.12779 34.1882 7.242 34.3034 7.27664C34.4461 7.34668 34.6022 7.38561 34.7611 7.39084C34.9905 7.39084 35.0672 7.39084 35.4492 7.23825C35.8311 7.08567 36.4789 6.85632 36.4789 6.85632C36.5641 6.71375 36.6273 6.5591 36.6661 6.39762C36.6661 6.39762 36.5135 6.35924 36.551 6.24409C36.5884 6.12895 36.5135 5.86215 36.5135 5.86215L36.2458 5.78539L36.0165 5.59817C36.0165 5.59817 35.8292 5.33044 35.7871 5.48396C35.745 5.63749 35.9743 5.67119 35.7487 5.63655L35.5194 5.59817L35.1758 5.36882C35.0887 5.32594 34.9993 5.28782 34.9081 5.25461C34.793 5.21623 34.7209 5.29299 34.6404 5.17785C34.5599 5.06271 34.2584 4.9485 34.2584 4.9485C34.1511 4.9266 34.0478 4.88807 33.9523 4.83429C33.8381 4.75753 33.6846 4.52818 33.4936 4.4898C33.3805 4.4668 33.2655 4.45396 33.1501 4.45142H32.8439L32.0417 4.33721L31.6972 4.26045C31.6165 4.308 31.5203 4.32179 31.4295 4.29883L31.2769 4.26045L31.1243 4.22301C31.4295 4.14624 31.1627 4.03578 31.4295 4.14624C31.6963 4.25671 31.392 3.84013 31.2422 3.87851C31.0925 3.91689 30.9371 3.76431 30.7835 3.87851C30.6369 3.97813 30.4837 4.06758 30.3248 4.14624L30.0197 3.99366L29.7154 3.90847C29.7154 3.90847 29.6387 3.98523 29.4861 3.90847C29.3335 3.83171 29.0658 3.79333 29.1809 3.75588C29.296 3.71844 29.869 3.56866 29.869 3.56866L30.1357 3.45445L29.7154 3.10528C29.5459 3.13205 29.3722 3.10555 29.2183 3.02945C29.0311 3.06783 29.2183 3.06783 29.0311 3.06783C28.9073 3.07159 28.7873 3.11127 28.6857 3.18204L28.6464 2.83848L28.2644 2.76172H28.0772V2.94894C27.9423 3.13034 27.7885 3.29696 27.6185 3.44602L27.5801 2.91056C27.4407 3.02571 26.4671 3.95059 26.5073 3.4816C26.5167 3.36833 26.7882 3.14178 26.8565 3.04349C26.8378 3.03413 26.8228 3.03226 26.8153 3.00417C26.5598 2.95456 26.1104 2.84129 25.8951 3.02102C25.9269 3.06877 25.9241 3.10059 25.97 3.15021C25.9437 3.18748 25.9293 3.23189 25.9288 3.27752C25.9035 3.1371 25.5778 3.89349 25.6255 3.87664C25.457 3.93655 25.2389 3.53589 25.0966 3.49283C24.9749 3.45632 24.4675 3.53121 24.3477 3.57989C24.5462 3.6398 24.842 3.70346 24.709 3.92906C24.622 3.87103 24.5427 3.80213 24.4731 3.72405C24.3973 3.78677 24.344 3.75588 24.2859 3.85417C24.0744 3.8083 23.4706 3.86353 23.3695 4.04795C23.1336 3.77554 23.2318 3.58831 22.9089 3.71375C22.7242 3.81629 22.5609 3.95324 22.4277 4.11722C22.5709 4.1865 22.7535 4.25577 22.6421 4.42802C22.5992 4.38092 22.5405 4.35127 22.4771 4.3447C22.4137 4.33814 22.3502 4.35514 22.2985 4.39244C22.3463 4.18837 22.1871 4.11722 21.9709 4.14437C21.9137 4.19317 21.8508 4.23497 21.7837 4.26888C21.7161 4.3643 21.6634 4.4694 21.6273 4.5806C21.6744 4.52069 21.7406 4.47872 21.8149 4.46169C21.8891 4.44465 21.967 4.45358 22.0355 4.48699C22.0308 4.48699 21.545 5.51673 21.193 4.72477C21.1107 4.74596 21.035 4.78749 20.973 4.84553C20.9541 4.78149 20.9481 4.71436 20.9554 4.648C20.9626 4.58165 20.9829 4.51738 21.0151 4.45891C21.0151 4.45891 20.4899 4.8708 20.4759 4.87642C20.3121 4.94944 20.1333 4.82212 19.9919 4.9822C20.0644 5.0383 20.1501 5.07483 20.2407 5.08827C20.3314 5.10171 20.424 5.09162 20.5096 5.05896C20.4422 5.37912 19.9601 5.05896 19.9105 5.42873C20.2587 5.61034 20.87 5.27989 21.2379 5.2518C21.1864 5.35665 20.8035 5.49613 20.6762 5.56728C20.6626 5.62187 20.6441 5.67513 20.621 5.72642C20.5489 5.6871 20.4525 5.71331 20.3701 5.68242C20.2512 5.82471 20.3336 5.98479 20.2372 6.1121C20.1866 6.1795 20.0734 6.12989 20.0266 6.1795C19.9798 6.22911 19.976 6.36672 19.9133 6.40885C19.7579 6.50714 19.6708 6.42757 19.5304 6.52399C19.39 6.62041 19.3057 6.83666 19.2112 6.96491C19.3863 7.18396 19.3198 7.37306 19.0904 7.48445C19.0979 7.41612 19.0446 7.29723 19.0642 7.20923C19.0642 7.18677 18.891 7.26166 18.8686 7.29161C18.8208 7.35433 18.9322 7.46667 18.9079 7.52377C18.8545 7.6464 18.5887 7.9703 18.789 8.08076C18.772 8.12269 18.7582 8.16589 18.7478 8.20995C18.4866 8.22493 18.2901 8.45334 18.0785 8.39717C17.9156 8.67801 17.9325 8.73511 17.6769 8.93825C17.6507 8.92983 17.6638 8.89425 17.6404 8.89238C17.5739 8.88677 16.8784 10.2713 16.7689 9.50367C16.6809 9.49895 16.5929 9.51266 16.5105 9.54392C16.3972 9.65719 16.4487 9.82476 16.4955 9.9708C16.3457 10.0373 16.0696 9.93148 15.8814 10.0045C15.6933 10.0775 15.6193 10.2451 15.4714 10.3424C15.3572 10.4173 15.1906 10.4145 15.0913 10.5109C15.1278 10.5259 15.1606 10.5109 15.1971 10.5259C15.2038 10.5391 15.2074 10.5537 15.2074 10.5685C15.2074 10.5833 15.2038 10.5979 15.1971 10.6111C15.1561 10.6191 15.1168 10.6343 15.081 10.656C15.0138 10.626 14.9391 10.617 14.8667 10.6304C14.7943 10.6438 14.7277 10.6788 14.6757 10.7309C14.6972 10.7731 14.7047 10.8311 14.7206 10.8676C14.6645 10.8577 14.6067 10.8664 14.556 10.8925C14.5053 10.9185 14.4645 10.9604 14.4398 11.0118C14.5161 11.0238 14.5929 11.0316 14.6701 11.0352H14.6326C14.7515 11.0889 14.8777 11.1245 15.0071 11.1409C14.8058 11.2514 14.5783 11.081 14.3902 11.228C14.0513 11.4911 14.759 11.6099 14.319 11.8571C14.3674 11.8935 14.4244 11.9168 14.4844 11.9246C14.5445 11.9325 14.6055 11.9247 14.6616 11.902C14.6583 11.946 14.6583 11.9901 14.6616 12.034C14.615 12.0401 14.569 12.0501 14.524 12.064C14.4735 12.2512 14.5652 12.474 14.5549 12.6256C14.5489 12.794 14.5058 12.959 14.4286 13.1087L14.5128 13.1321C14.478 13.1813 14.4467 13.2329 14.4192 13.2865C14.5334 13.2865 14.4969 13.3633 14.6345 13.2865C14.6205 13.4616 14.5708 13.558 14.5634 13.7284C14.6256 13.6938 14.6851 13.6543 14.7412 13.6104C14.7787 13.2425 15.0801 13.5299 15.0071 13.792C14.9245 13.7675 14.8356 13.7751 14.7584 13.8133C14.6811 13.8515 14.6212 13.9175 14.5905 13.998C14.5268 14.1674 15.3647 14.5484 15.4967 14.6093C15.6708 14.6898 15.8309 14.8077 16.0696 14.7572C16.4599 14.6767 16.7904 14.277 17.0516 13.9999C17.1021 13.9465 17.1293 13.8398 17.1957 13.8033C17.3137 13.7368 17.383 13.8033 17.4541 13.7677C17.6151 13.6919 17.8108 13.7368 17.8126 13.4681C18.1571 13.7621 18.1281 13.8257 18.1787 14.2376C18.2049 14.4529 18.2901 14.5185 18.3659 14.6963C18.4417 14.8742 18.4267 14.9772 18.4595 15.127C18.5269 15.4237 18.7768 15.6465 18.9107 15.9105C19.0661 16.2166 19.0427 16.5555 19.2852 16.8251C18.9556 17.1995 20.4385 17.1752 20.1511 16.3786C20.3205 16.372 20.5031 16.4722 20.6622 16.5162C20.7558 16.401 20.8176 16.3551 20.9702 16.3626C21.0431 16.1931 21.1318 16.0307 21.2351 15.8777C21.2594 15.9713 21.3212 16.0331 21.3287 16.137C21.4028 16.0587 21.4581 15.9646 21.4906 15.8618C21.523 15.759 21.5317 15.6502 21.5159 15.5435C21.1565 15.5061 21.5599 14.8705 21.5543 14.6261C21.3624 14.6149 21.3671 14.3958 21.4401 14.2517C21.3081 14.218 21.1939 14.1515 21.1761 14.0102C21.5843 13.9877 21.8408 13.8651 22.2059 13.7752C22.3678 13.734 22.6037 13.8688 22.5897 13.6029C22.5897 13.5309 22.3678 13.4279 22.3173 13.3923C22.4895 13.1602 23.1176 13.3202 22.7797 12.8578C22.6505 12.6799 22.2274 12.6921 22.3519 12.3673C22.0467 12.2933 21.7668 12.1744 21.8258 11.8056C21.8158 11.716 21.8158 11.6256 21.8258 11.536C21.4298 11.4648 22.0926 10.8891 22.131 10.6588C22.0757 10.6354 22.013 10.5456 21.9728 10.5269C22.1207 10.3555 22.4193 10.2872 22.6178 10.1047C22.8452 9.89497 22.9875 9.86408 23.2384 9.72553C23.3545 9.66094 23.4331 9.51958 23.552 9.46435C23.6709 9.40912 23.7486 9.50648 23.8871 9.41848C24.0257 9.33049 24.3299 8.97663 24.3486 8.86336C24.3149 8.77818 24.2363 8.59095 24.255 8.48891C24.2494 8.51513 24.4694 8.11446 24.4657 8.11446C24.6763 7.81491 24.959 7.90009 25.1556 7.66232C25.5207 8.01336 26.0411 7.43016 26.4231 7.59866C26.6889 7.71661 26.8743 8.2942 26.5101 8.40373C26.4521 8.34662 26.3978 8.35879 26.3398 8.32322C26.1254 8.4627 26.1394 8.75852 25.9195 8.9654C25.7407 9.13577 25.545 9.24624 25.3465 9.40538C25.1752 9.54299 24.871 9.60009 24.7708 9.71804C24.6117 9.90527 24.7362 10.1973 24.3514 10.1561C24.3039 10.2328 24.2776 10.3207 24.2753 10.4109C24.273 10.501 24.2947 10.5902 24.3383 10.6691C24.2709 10.6804 24.2185 10.7234 24.1595 10.73C24.1296 10.7908 24.1549 10.789 24.1099 10.8236C24.2578 10.9996 24.3075 11.0932 24.3271 11.2804C24.3365 11.3666 24.2606 11.4471 24.2597 11.5491C24.2597 11.6736 24.3664 11.7962 24.3655 11.9301C24.3655 12.1604 24.1633 12.152 24.3655 12.3523C24.3814 12.3682 24.6538 12.4159 24.7016 12.4365C24.7016 12.4365 24.8495 12.6425 24.8635 12.6603C25.0788 12.4637 25.3213 12.9411 25.5899 12.9626C25.8848 12.9832 26.2003 12.8578 26.4605 12.7632C26.9286 12.5919 27.8366 12.7127 28.1989 12.3186C28.4011 12.4356 29.7632 12.6247 29.5198 13.0226C29.2333 13.0759 28.7493 12.6874 28.7933 13.2556C28.7072 13.1789 28.5874 13.134 28.5022 13.0544C28.3824 13.1611 28.3637 13.3053 28.256 13.4363C28.0688 13.2182 27.6232 13.3081 27.3957 13.2893C27.1682 13.2706 26.6178 13.002 26.6908 13.4447C26.3716 13.4064 26.0692 13.339 25.9644 13.7115C25.8708 13.6966 25.8333 13.7387 25.75 13.7424C25.6845 13.9222 25.7781 14.0448 25.6564 14.1693C25.5871 14.1066 25.2071 13.7452 25.1958 13.7443C25.0685 13.734 24.9861 13.793 24.9983 13.9212C25.0329 14.2526 26.1217 14.2601 26.2424 14.6842C26.1301 14.7357 26.1142 14.8218 26.0552 14.8995C26.3267 15.1279 26.1263 15.3722 26.0795 15.6231C25.6021 15.6605 25.5319 15.215 25.2183 15.0839C25.1247 15.0436 24.8298 15.0605 24.7212 15.0839C24.3468 15.1653 24.5162 15.2814 24.3983 15.5248C24.3149 15.6952 24.1492 15.7598 24.1006 15.9442C24.0341 16.1932 24.1624 16.5995 24.1848 16.8616C24.2354 17.4382 24.0613 17.3952 23.5352 17.4897C23.4653 17.6085 23.4207 17.7405 23.4041 17.8773C23.2612 17.9481 23.1143 18.0106 22.9641 18.0645C22.6121 18.0252 22.7825 17.7266 22.5625 17.5637C22.2751 17.3502 21.7472 17.7378 21.4701 17.7444C21.4513 17.7874 21.4317 17.8295 21.4167 17.8745C21.236 17.9138 20.914 18.0842 20.6893 18.1768C20.3682 18.3098 20.2784 18.439 20.1174 18.7544C20.0483 18.7329 19.987 18.6918 19.9408 18.6361C19.8947 18.5805 19.8656 18.5126 19.8571 18.4408C19.5763 18.4717 19.3994 18.0973 19.4387 17.8314C19.273 17.7687 19.111 17.8754 18.9098 17.867C18.8461 18.0673 18.6729 18.0832 18.5091 18.1703C18.4099 18.16 18.3219 18.2499 18.2414 18.3716C18.085 18.2705 17.896 18.13 18.1028 17.9466C18.0371 17.8923 17.9605 17.8527 17.8782 17.8305C17.5805 18.3631 17.3652 17.7116 17.2603 17.4869C17.1976 17.4616 17.1199 17.3802 17.0731 17.3634C17.1864 17.3231 17.2294 17.2875 17.2313 17.1977C17.4185 17.2051 17.6366 17.2435 17.5318 17.4607C17.6815 17.4691 17.8315 17.4691 17.9811 17.4607C17.9811 17.4251 17.9811 17.3905 17.9811 17.3549C17.9603 17.3498 17.9387 17.349 17.9175 17.3527C17.8964 17.3564 17.8763 17.3645 17.8585 17.3765C17.831 17.2444 17.8187 17.1097 17.822 16.9749C17.7434 16.9571 17.588 16.9168 17.5159 16.9084C17.1817 17.061 17.3184 16.7212 17.456 16.5573C17.6282 16.357 18.0045 16.387 17.9465 16.1052C17.3727 16.2494 17.6881 15.3357 17.7172 15.0755C17.6161 15.1026 17.5898 15.0951 17.5159 15.1578C17.5065 15.1578 17.4223 15.1167 17.4391 15.1138C17.0937 15.4537 16.8597 15.5529 16.3476 15.6109C16.3177 15.6518 16.291 15.695 16.268 15.7401C16.3776 15.7813 16.4131 15.8693 16.4964 15.9404C16.1744 16.0855 16.2156 16.5152 16.2315 16.8504C16.6163 16.9187 16.4253 17.1452 16.6013 17.3746C16.5199 17.354 16.429 17.3868 16.3467 17.369C16.3326 17.6919 16.767 17.6067 16.7529 17.9119C16.7202 17.9038 16.6864 17.9013 16.6528 17.9044C16.4927 18.1562 16.8185 18.7385 16.2718 18.7301C16.2531 18.7301 16.0939 18.5691 15.9909 18.5578C15.8728 18.5589 15.758 18.5976 15.6633 18.6683C15.6424 18.7753 15.611 18.8801 15.5697 18.981C15.3952 18.8615 15.1851 18.8053 14.9743 18.8218C14.8067 19.1663 14.4257 19.1916 14.1739 19.3994C13.8875 19.6363 13.7461 20.1109 13.543 20.3992C13.4278 20.5621 13.3221 20.7353 13.1816 20.8401C12.9476 21.0142 12.5647 21.0657 12.2989 21.1912C12.2399 21.7397 12.3616 21.7397 11.8786 21.9569C11.5425 22.1076 11.4601 22.2827 11.2907 22.6122C11.1446 22.5673 11.0023 22.6337 10.8086 22.5963C10.6447 22.5644 10.5006 22.2911 10.3705 22.263C9.80879 22.1441 10.363 23.0213 10.2188 23.3386C10.0971 23.2122 9.92955 23.1804 9.73858 23.1767C9.71986 23.2356 9.65901 23.2927 9.64497 23.3367C9.48583 23.1748 9.10108 22.6815 9.11325 23.2225C9.10016 23.2216 9.08702 23.2216 9.07394 23.2225C9.04772 23.1963 9.02807 23.1626 9.00466 23.1374C8.79965 23.1299 8.25577 23.259 8.61804 23.4744C8.60186 23.5166 8.5881 23.5597 8.57686 23.6035C8.5469 23.611 8.50852 23.5932 8.48324 23.597C8.45413 23.6623 8.44036 23.7334 8.44299 23.8048C8.80433 23.8488 8.97377 24.066 9.30703 24.1643C9.48115 24.2158 9.61876 24.1643 9.77509 24.2214C9.95389 24.2822 9.89211 24.476 10.1495 24.4283C10.1645 24.579 10.0213 24.7643 10.0391 24.842C10.0831 25.0293 10.3096 25.0892 10.4332 25.2165C10.7318 25.5188 10.6953 26.2284 10.6345 26.6207C10.5858 26.9343 10.5408 27.3134 10.4201 27.6064C10.2628 27.9893 9.94734 28.0576 9.50549 28.0576C9.23401 28.0576 9.00466 27.8582 8.73412 28.111C8.70042 28.0539 8.62741 28.0174 8.59651 27.9584C8.05543 28.1091 7.96463 27.7328 7.48814 27.6925C7.25879 28.154 6.83286 27.6345 6.57075 27.5783C6.47713 27.7655 5.94542 28.345 5.72075 28.0717C5.62713 28.4049 5.88457 28.6333 5.9192 28.9404C5.95852 29.2895 5.81717 29.6443 5.9192 30.0047C6.02124 30.3652 6.00533 30.4429 5.88738 30.7433C5.78171 31.0031 5.69444 31.2699 5.6262 31.5419C5.51199 32.0371 5.66177 31.9332 5.84057 32.2982C6.03435 32.6914 5.54195 33.3448 5.9061 33.6491C5.97444 33.7071 6.23374 33.6697 6.30863 33.6669C6.36761 33.6669 6.40786 33.7651 6.45092 33.7548C6.52956 33.7361 6.57168 33.6416 6.63815 33.6303C6.75329 33.6107 6.79073 33.5255 6.99106 33.5695C7.11691 33.6267 7.23566 33.6983 7.34492 33.7829C7.51623 34.0085 7.43853 34.1742 7.66882 34.4111C7.74567 34.4997 7.82789 34.5834 7.91502 34.662C8.22862 34.6994 8.0545 34.4878 8.17339 34.3624C8.54784 33.9683 9.1947 34.0647 9.70582 33.9823C9.73297 33.9776 9.74888 33.9589 9.77135 33.9496C9.80505 33.9945 9.86496 34.0245 9.89492 34.0619C10.0541 33.9374 10.026 33.7811 10.1233 33.636C10.2385 33.4637 10.4042 33.4338 10.5071 33.3626C10.7009 33.2213 10.6944 33.2887 10.8039 32.9882C10.875 32.786 10.8853 32.639 11.0098 32.4593C11.5247 32.4724 11.1755 31.8676 11.1203 31.6673C10.9406 31.3528 11.4685 30.8735 11.5884 30.6226C11.6286 30.5411 11.6904 30.2023 11.7241 30.1648C11.8963 29.9776 12.2418 30.03 12.4543 29.9074C12.6668 29.7848 12.9645 29.2961 13.25 29.3513C13.2837 29.1931 13.2958 29.0331 13.3361 28.8777C13.289 28.8416 13.2506 28.7953 13.2238 28.7423C13.1971 28.6893 13.1827 28.6309 13.1816 28.5715C13.1058 28.3328 13.3267 28.227 13.4934 28.1035C13.7667 27.9041 13.7143 27.9996 13.9811 28.0183C14.1683 28.0323 14.3808 27.9509 14.5559 27.979C14.7309 28.0071 14.832 28.1662 15.052 28.1709C15.7241 28.1952 16.2072 26.9389 16.8466 27.1028C17.4241 27.2516 17.6638 27.6729 17.8576 28.1784C18.1075 28.8795 18.5756 29.1753 19.1017 29.6593C19.2159 29.7651 19.2056 29.9074 19.3301 30.0038C19.4546 30.1002 19.6203 30.1096 19.7701 30.1751C19.9336 30.2617 20.0901 30.3609 20.2381 30.4719C20.3664 30.5655 20.5377 30.6188 20.3982 30.7527C20.4591 31.0036 20.8541 31.2123 20.973 31.5016C21.1022 31.8161 20.943 32.1513 20.9178 32.5107C20.8185 32.4705 20.7006 32.4958 20.5901 32.4733C20.5377 32.8028 19.9863 32.6858 19.7682 32.8908C19.5585 32.7691 19.2589 32.5753 19.1213 32.8609C19.0679 32.8271 19.0033 32.8158 18.9415 32.8295C18.8798 32.8432 18.826 32.8807 18.7918 32.9339C18.8808 33.2147 19.0727 33.1595 19.2833 33.2905C19.4939 33.4216 19.5239 33.5845 19.712 33.7474C19.8466 33.8528 19.9987 33.9336 20.1614 33.9861C20.519 34.0366 20.4328 33.9458 20.4759 33.6116C20.5461 33.0705 20.7015 33.0883 21.0881 32.8487C21.4176 32.6446 21.2548 31.9912 21.6844 31.9547C21.749 31.4679 21.1593 31.2807 21.3914 30.705C21.6554 30.6694 21.6788 30.5571 21.9288 30.6516C22.0757 30.7059 22.1722 30.8772 22.3332 30.9324C22.3332 31.0261 22.3921 31.0897 22.3847 31.1889C22.5326 31.1449 22.5943 30.9942 22.5719 30.8285C22.5148 30.6731 22.3594 30.5842 22.218 30.485C22.0308 30.352 21.9119 30.192 21.7387 30.045C21.4214 29.7754 20.9018 29.8634 21.0834 29.2961C20.8616 29.1285 20.5218 29.2025 20.2859 29.0658C20.0387 28.9226 19.9114 28.5697 19.7364 28.3356C19.58 28.1288 19.5491 27.9284 19.4396 27.7309C19.346 27.5549 19.2468 27.5493 19.1241 27.4257C18.7993 27.0981 18.8087 26.8912 18.8667 26.4297C18.8354 26.3249 18.8141 26.2174 18.8031 26.1086C18.9744 25.956 19.1887 25.8362 19.3713 25.692C19.4176 25.7019 19.4632 25.7148 19.508 25.7304C19.669 26.0468 19.2374 26.1582 19.5828 26.4596C19.7167 26.5767 19.815 26.4877 19.9648 26.5729C20.0781 26.6375 20.1417 26.7995 20.2316 26.8809C20.3411 26.9811 20.4469 26.9745 20.547 27.1018C20.6285 27.2029 20.6163 27.3602 20.7081 27.4828C20.9112 27.7524 21.2042 27.803 21.4869 27.8648C21.3821 27.9219 21.3699 28.0061 21.3072 28.052C21.4298 28.2392 21.5216 28.0782 21.6947 28.169C21.8192 28.2336 21.9269 28.3843 22.0261 28.4854C22.3285 28.7906 22.6992 29.0171 22.9866 29.342C23.1176 29.4899 23.347 29.722 23.347 29.9373C23.3459 30.0161 23.3297 30.094 23.2992 30.1667C23.274 30.2388 23.1504 30.2603 23.1251 30.3296C23.1935 30.1536 23.3798 30.1601 23.332 29.9083C23.3039 29.7567 23.0427 29.6509 22.9931 29.4646C23.0025 30.4288 23.4481 31.4716 24.1801 32.1073C24.1408 32.1241 24.109 32.141 24.0678 32.1588C24.109 32.251 24.1705 32.3326 24.2479 32.3975C24.3253 32.4623 24.4164 32.5087 24.5143 32.5332C24.5251 32.5895 24.5251 32.6473 24.5143 32.7036C24.4348 32.683 24.343 32.7186 24.2635 32.698C24.2069 32.7799 24.1672 32.8721 24.1464 32.9694C24.2213 33.093 24.2288 33.1267 24.3599 33.1071C24.5537 33.3617 24.4329 33.9187 24.7821 34.0516C24.8092 34.0291 24.841 33.9982 24.8663 33.9767C24.901 34.0394 24.9599 34.0778 24.9871 34.1639C24.9777 34.1724 25.0985 34.1714 25.09 34.1639C25.0841 34.1079 25.0908 34.0513 25.1097 33.9982C25.1958 34.0582 25.3465 34.0919 25.4261 34.1405C25.4102 33.9355 25.1191 33.2662 25.5487 33.3224C25.5452 33.2792 25.5478 33.2357 25.5562 33.1932C25.5562 33.1876 25.4945 33.1501 25.4842 33.1398C25.5077 33.0975 25.5193 33.0496 25.5179 33.0013C25.3419 32.8843 24.8317 32.7841 24.8336 32.5697C25.1734 32.4901 25.296 32.5613 25.515 32.7569C25.6826 32.9058 25.9831 33.2091 25.9766 32.7345C25.8763 32.6534 25.7646 32.5875 25.6452 32.5388C25.7865 32.5267 25.9138 32.4611 25.9391 32.3142C25.6377 32.1045 25.0329 32.4789 25.1322 31.9397C25.1462 31.8639 25.3194 31.8171 25.326 31.6411C25.326 31.5475 25.1986 31.3163 25.1734 31.2208C25.1022 30.9568 25.0432 30.704 25.2164 30.4279C25.5263 30.3754 25.2801 30.7228 25.5544 30.7649C25.7238 30.7902 25.8492 30.5777 25.8623 30.4382C25.8577 30.4307 25.8118 30.3792 25.7996 30.3652C25.94 30.1901 26.366 30.3006 26.5869 30.2303C26.8556 30.1461 27.0971 30.0244 27.2356 30.367C27.2834 30.2903 27.3807 30.2229 27.4229 30.1611C27.3293 30.3427 27.509 30.4822 27.6616 30.5758C27.5839 30.6207 27.5783 30.6479 27.4744 30.6563C27.3161 30.8117 27.3283 31.2723 27.4378 31.5231C27.4622 31.5793 27.6007 31.5437 27.6316 31.6027C27.6635 31.6896 27.6858 31.7797 27.6981 31.8714C27.7212 32.0581 27.7178 32.2472 27.6878 32.433C27.6737 32.5547 27.5436 32.448 27.6204 32.7139C27.6391 32.7785 27.8123 33.0303 27.8488 33.1052C28.0669 33.5489 28.0445 33.8906 28.6099 33.8775C28.4629 33.9552 28.5359 33.9308 28.5771 34.0647C28.96 33.7895 29.0592 34.1518 29.3017 34.3278C29.6059 34.5487 29.8118 34.3755 30.1357 34.2828C30.1133 34.2182 30.1414 34.0956 30.1095 34.0291C30.6113 33.7249 30.9989 34.4279 31.4042 34.5562C31.9116 34.7172 32.3029 34.2313 32.5884 33.9009C32.8533 34.3923 32.9544 34.1246 33.2858 33.9102C33.3728 33.9418 33.4573 33.98 33.5386 34.0245C33.5095 34.1555 33.0855 34.3933 33.3204 34.5955C33.5554 34.7977 33.7314 34.3146 33.6949 34.1471C34.0094 34.1302 34.3118 34.001 34.6235 33.9889C34.8379 33.9805 35.0092 34.075 35.2133 34.0937C35.4885 34.1171 35.6139 34.0413 35.8639 33.9365C36.2177 33.7876 36.4574 33.7689 36.8374 33.782C37.1557 33.7923 37.3317 33.6313 37.6313 33.5948C37.9308 33.5583 38.2126 33.7998 38.5112 33.7099C39.0317 33.5517 38.265 32.493 38.3118 32.0249C38.3605 31.5278 38.8876 31.334 38.3193 30.9334C38.1724 30.8285 38.0787 30.851 38.0057 30.6694C37.9121 30.4251 38.0057 30.089 37.9383 29.8269C37.9205 29.7557 36.9807 29.5957 36.8805 29.6134C36.5941 29.6659 36.4003 30.0272 36.0726 30.0104C36.0397 30.0486 35.9968 30.0769 35.9487 30.0922C35.9006 30.1074 35.8491 30.1089 35.8002 30.0965C35.6411 30.2238 35.6523 30.0029 35.496 30.0319C35.3219 30.0609 35.2151 30.1536 35.0382 30.1863C34.7798 30.2322 34.5776 30.162 34.3109 30.0693C33.9795 29.9542 33.0106 29.6883 32.8889 29.3027C32.4601 29.1341 32.2907 29.2839 31.8535 29.3551C31.4791 29.4159 31.2451 29.3551 30.8715 29.5376C30.5907 29.6734 30.3351 29.9729 30.0122 29.9954C29.7313 30.015 29.3092 29.8896 29.0377 29.8082C28.681 29.6977 28.2345 29.298 28.3038 28.8486C28.256 28.8411 28.2429 28.8187 28.1764 28.8168C28.0828 28.608 28.2251 28.5088 28.3122 28.3347C28.3524 28.2523 28.3562 28.1372 28.4161 28.067C28.476 27.9968 28.6155 27.9949 28.6454 27.9443C28.7512 27.7627 28.6454 27.5446 28.7213 27.3405C28.7905 27.158 29.0171 27.2301 28.9909 26.9361C28.6314 26.7274 29.0845 26.7639 29.1425 26.7302C29.3297 26.6225 29.4037 26.6693 29.4524 26.4044C29.121 26.1788 29.7594 25.7313 29.9448 25.5067C30.3305 25.0386 30.4437 24.9675 31.0475 24.9768C31.0372 25.1098 30.9399 25.1594 30.7938 25.1407C30.762 25.6087 32.1306 25.1987 31.847 25.7959C31.7194 25.848 31.5821 25.8717 31.4444 25.8652C31.3807 25.9467 31.3397 26.0436 31.3256 26.146C31.5474 26.2911 31.7421 26.3501 31.8189 26.6141C31.9013 26.8903 31.7206 27.2179 32.1793 27.128C32.4807 27.0681 32.5875 26.7536 32.8196 26.5907C33.1201 26.3848 33.4009 26.5111 33.722 26.3436C33.7435 26.2601 33.7318 26.1715 33.6893 26.0964C33.4234 25.9298 32.9881 26.2837 32.9263 25.9448C32.8603 25.8722 32.8126 25.7849 32.787 25.6901C32.7614 25.5954 32.7588 25.4959 32.7794 25.4C32.9937 25.3166 33.2072 25.1762 33.4215 25.0817C33.6602 24.9759 33.9093 24.8813 34.1395 24.7821C34.2397 24.7391 35.5082 24.0585 35.2891 24.6323C35.2348 24.7737 34.939 24.726 34.865 24.7634C34.5776 24.9104 34.7078 24.8757 34.7218 25.0882C34.7405 25.3756 34.7218 25.2755 34.6151 25.487C34.5482 25.6502 34.4916 25.8175 34.4457 25.9878C34.2584 26.0169 34.0712 26.0655 33.8887 26.0964C33.839 26.6581 34.279 26.6469 34.6376 26.9324C34.8575 27.1084 35.1393 27.1908 35.3602 27.3639C35.5812 27.5371 35.6748 27.8788 35.9865 27.8704C36.0801 27.8704 36.1138 27.7609 36.2149 27.7618C36.4536 27.7618 36.4958 27.8741 36.683 27.9443C37.0209 28.0679 37.3907 28.096 37.7417 28.2617C38.0563 28.4105 38.2482 28.58 38.5842 28.6062C38.8763 28.6296 39.3809 28.7101 39.4726 29.0967C39.5719 29.0555 39.9501 29.3607 40.0746 29.4543C40.2618 29.5938 40.4153 29.9542 40.6465 29.9823C41.0322 30.0291 41.0519 29.5264 40.9948 29.254C40.9377 28.9816 40.6203 28.8795 40.6503 28.6212C40.5379 28.3534 40.6138 27.9387 40.4977 27.6654C40.3919 27.5072 40.2009 27.3331 40.1129 27.1308C39.9604 26.7817 40.1822 26.5458 40.3423 26.235C40.5492 25.8343 40.6278 25.9991 41.0032 25.7856C41.196 25.6752 41.5649 25.4177 41.6847 25.2605C41.6632 25.2474 41.6472 25.2408 41.6407 25.2137L41.6388 25.2174ZM17.1031 29.986C16.8877 29.8924 16.738 30.1133 16.6846 30.2809C16.5442 30.1405 16.3869 30.1339 16.3476 30.338C16.254 30.5589 16.4197 30.7742 16.4525 31.0101C16.4871 31.2685 16.3879 31.5961 16.4525 31.7918C16.4225 31.9715 16.5461 32.0801 16.7108 32.1428C16.7558 32.024 16.7979 31.9107 16.8409 31.7899C16.9606 31.8237 17.0869 31.8263 17.2079 31.7974C17.3268 31.3584 17.2538 30.9502 17.2145 30.514C17.206 30.3708 17.3343 30.0806 17.1049 29.9823L17.1031 29.986ZM18.3547 17.6564C18.2695 17.5627 18.1796 17.4691 18.086 17.3755C18.0521 17.3801 18.0178 17.3801 17.9839 17.3755C18.0261 17.5787 18.2966 17.9372 18.4426 17.6947C18.4342 17.7144 18.3986 17.661 18.3968 17.6545C18.584 17.6919 18.7516 17.4841 18.76 17.3428C18.9182 17.3605 18.994 17.2857 18.9762 17.1209C18.8611 16.9842 18.8985 16.7727 18.9004 16.5854C18.892 16.5714 18.8424 16.4974 18.8227 16.4703C18.6196 16.4263 18.4745 16.5349 18.4707 16.7361C18.3537 16.6856 18.3565 16.7652 18.277 16.6116C18.1178 16.7053 18.0785 16.9047 17.9849 17.0263C18.3125 17.12 18.5466 17.3278 18.394 17.662L18.3547 17.6564ZM27.3845 35.3388C27.2207 35.3977 27.1579 35.291 26.9539 35.306C26.9454 35.2742 26.9389 35.2171 26.9286 35.1843C26.8661 35.1849 26.8036 35.1821 26.7414 35.1759C26.527 35.4754 26.0355 34.9961 25.824 35.0701C25.8043 35.0767 25.8193 35.1347 25.809 35.1534C25.7664 35.1297 25.7197 35.1141 25.6714 35.1075C25.4842 35.4193 25.8174 35.3097 25.9691 35.3687C26.1516 35.4399 26.3014 35.6758 26.4577 35.7151C26.5719 35.7441 26.7863 35.6215 26.9258 35.5887C27.128 35.5354 27.3573 35.6159 27.4238 35.3771C27.3995 35.3818 27.3957 35.3631 27.3845 35.3388ZM16.9935 29.1678C17.0357 28.9198 17.265 28.5191 17.0787 28.3253C16.9673 28.4611 16.7286 28.5388 16.649 28.6886C16.5049 28.9582 16.5798 29.2849 16.649 29.5835C16.9907 29.6949 16.9636 29.3738 16.9973 29.1716L16.9935 29.1678ZM17.2191 17.1312C17.2191 17.1209 17.2191 17.1125 17.2145 17.1022C17.2182 17.1128 17.221 17.1238 17.2229 17.1349L17.2191 17.1312Z" fill="#002F8B"/>
</g>
</svg>
