<svg width="25" height="24" viewBox="0 0 25 24" fill="none" xmlns="http://www.w3.org/2000/svg">
<path d="M11.1445 12.501C10.6001 12.139 10.0894 11.8068 9.58361 11.4617C9.01379 11.0915 8.52765 10.6062 8.15639 10.037C7.78513 9.46781 7.53695 8.82731 7.42777 8.15658C7.36766 7.73588 7.33981 7.31121 7.34447 6.88627C7.33158 6.24368 7.34447 5.59713 7.34447 4.90892C7.06879 4.90892 6.806 4.90892 6.54421 4.90892C5.93633 4.90099 5.50992 4.50929 5.50992 3.95397C5.50992 3.39864 5.93236 3 6.53727 3H19.038C19.6508 3 20.0743 3.38476 20.0812 3.9381C20.0882 4.49144 19.6568 4.90099 19.034 4.90397C18.8298 4.90397 18.6245 4.90397 18.3885 4.90397C18.3885 5.69729 18.3805 6.4559 18.3885 7.21451C18.4005 7.86823 18.2836 8.51792 18.0444 9.12641C17.6328 10.1756 16.9268 10.9778 15.9827 11.5827C15.5325 11.8703 15.0902 12.1708 14.5944 12.499C14.887 12.6973 15.1507 12.8719 15.4185 13.0454C16.192 13.5462 16.9595 14.0519 17.489 14.8373C18.0454 15.6604 18.3676 16.5588 18.3815 17.5564C18.3914 18.3864 18.3815 19.2174 18.3815 20.097C18.6235 20.097 18.8466 20.097 19.0687 20.097C19.6508 20.103 20.0723 20.4937 20.0772 21.0411C20.0822 21.5885 19.6627 22 19.0856 22C14.8889 22 10.691 22 6.49165 22C5.91352 22 5.5 21.5835 5.5 21.0391C5.5 20.4947 5.92641 20.103 6.51049 20.097C6.77724 20.097 7.044 20.097 7.34744 20.097C7.35339 19.981 7.36232 19.8769 7.36331 19.7737C7.36331 19.0112 7.35042 18.2496 7.3762 17.493C7.43074 15.8746 8.14572 14.5934 9.4428 13.6414C9.98622 13.2477 10.5515 12.8986 11.1445 12.501ZM12.866 13.6364C12.0211 14.2076 11.1564 14.7481 10.3432 15.3569C10.0415 15.578 9.79178 15.8624 9.61141 16.19C9.43105 16.5177 9.32443 16.8808 9.29901 17.254C9.23455 18.1593 9.26331 19.0717 9.25438 19.981C9.25888 20.016 9.27035 20.0497 9.2881 20.0802H16.4875C16.4875 19.2581 16.4994 18.4568 16.4875 17.6566C16.4696 16.655 16.0601 15.828 15.2519 15.2419C14.4824 14.6806 13.6761 14.1779 12.866 13.6364Z" fill="#BF3939"/>
</svg>
