<svg width="25" height="24" viewBox="0 0 25 24" fill="none" xmlns="http://www.w3.org/2000/svg">
<path d="M12.0928 6.8429C12.0929 6.84307 12.0929 6.84317 12.0929 6.8432L12.0926 6.84259L12.0922 6.84183L12.092 6.84134C12.0922 6.84186 12.0925 6.84238 12.0928 6.8429ZM12.0928 6.8429C12.2394 7.13425 12.5378 7.31817 12.8642 7.31817C13.1911 7.31817 13.4899 7.13359 13.6363 6.84134M12.0928 6.8429C12.0926 6.84253 12.0922 6.84185 12.0917 6.84086L12.082 6.82244C12.0723 6.80425 12.0562 6.77461 12.0336 6.73516C11.9883 6.65614 11.9177 6.53845 11.8217 6.39501C11.6288 6.10669 11.3389 5.72232 10.954 5.34013C10.1805 4.5721 9.07869 3.86363 7.63269 3.86363C5.29027 3.86363 3.38885 5.83233 3.36414 8.23421L13.6363 6.84134M13.6363 6.84134L13.6361 6.84183L13.6357 6.84259L13.6354 6.84321C13.6354 6.84322 13.6358 6.84243 13.6366 6.84086L13.6463 6.82244C13.656 6.80425 13.6721 6.77461 13.6947 6.73516C13.74 6.65614 13.8106 6.53845 13.9066 6.39501C14.0995 6.10669 14.3894 5.72232 14.7743 5.34013C15.5478 4.5721 16.6496 3.86363 18.0956 3.86363C20.4381 3.86363 22.3395 5.83242 22.3642 8.23438C22.4178 13.6316 18.0832 17.5937 12.8649 21.1359L12.8642 21.1364L12.8634 21.1358C7.64446 17.5937 3.30993 13.6315 3.36414 8.23438L13.6363 6.84134Z" stroke="#B5B5C2" stroke-width="1.72727" stroke-linecap="round" stroke-linejoin="round"/>
</svg>
