<svg width="24" height="24" viewBox="0 0 24 24" fill="none" xmlns="http://www.w3.org/2000/svg">
<path d="M10.1511 14.844L15.0013 9.53943L17.8422 6.42895C17.9943 6.24882 18.194 6.11732 18.4175 6.05022C18.641 5.98311 18.8787 5.98326 19.1021 6.05065C19.3222 6.10821 19.5215 6.22914 19.6763 6.39904C19.831 6.56895 19.9347 6.78068 19.9749 7.00901C20.0186 7.22974 20.0051 7.45828 19.9358 7.67205C19.8664 7.88582 19.7437 8.07744 19.5797 8.22798C17.4826 10.5202 15.3856 12.8124 13.2885 15.1047C12.5639 15.8697 11.8475 16.7103 11.1475 17.4669C11.0325 17.6318 10.8806 17.7662 10.7044 17.8589C10.5282 17.9516 10.3329 18 10.1347 18C9.93646 18 9.74111 17.9516 9.56492 17.8589C9.38873 17.7662 9.23681 17.6318 9.12183 17.4669C7.53532 15.6399 5.9488 13.8128 4.36228 11.9858C4.24348 11.8646 4.15012 11.72 4.08791 11.5608C4.02569 11.4016 3.99593 11.2311 4.00045 11.0597C4.00496 10.8884 4.04364 10.7197 4.11415 10.5641C4.18465 10.4086 4.28548 10.2693 4.41048 10.1548C4.53549 10.0404 4.68204 9.95314 4.84118 9.89846C5.00032 9.84378 5.16871 9.8228 5.33607 9.8368C5.50342 9.8508 5.66622 9.89949 5.81452 9.9799C5.96281 10.0603 6.0935 10.1707 6.19858 10.3044L9.50062 14.1379L10.1511 14.844Z" fill="#3D7B50"/>
</svg>
