<svg width="24" height="24" viewBox="0 0 24 24" fill="none" xmlns="http://www.w3.org/2000/svg">
<path fill-rule="evenodd" clip-rule="evenodd" d="M10.9641 7.5H11.0486C11.3054 7.5 11.5205 7.69465 11.5461 7.95025L12.001 12.5L15.2491 14.356C15.4049 14.4451 15.501 14.6107 15.501 14.7902V15C15.501 15.2109 15.3301 15.3819 15.1191 15.3819C15.0852 15.3819 15.0514 15.3774 15.0187 15.3684L10.3997 14.1087C10.1683 14.0456 10.0143 13.8271 10.0327 13.588L10.4655 7.96165C10.4856 7.70115 10.7028 7.5 10.9641 7.5Z" fill="#3D7B50"/>
<path opacity="0.3" fill-rule="evenodd" clip-rule="evenodd" d="M7.3898 2.83754C8.65217 2.30001 10.0413 2.00258 11.5 2.00258C17.299 2.00258 22 6.70359 22 12.5026C22 18.3016 17.299 23.0026 11.5 23.0026C5.70101 23.0026 1 18.3016 1 12.5026C1 11.5177 1.13559 10.5645 1.38913 9.66064L3.31481 10.2008C3.10672 10.9426 3 11.7145 3 12.5026C3 17.197 6.80558 21.0026 11.5 21.0026C16.1944 21.0026 20 17.197 20 12.5026C20 7.80816 16.1944 4.00258 11.5 4.00258C10.5488 4.00258 9.62236 4.15851 8.74872 4.45704L9.93948 5.87614C10.0088 5.95875 10.0496 6.06157 10.0557 6.16924C10.0713 6.44494 9.86045 6.68111 9.58475 6.69673L4.71778 6.97253C4.66931 6.97528 4.6207 6.97095 4.57348 6.95969C4.30487 6.89562 4.13907 6.62593 4.20314 6.35732L5.33164 1.62619C5.35654 1.52179 5.41438 1.42817 5.4966 1.35918C5.70814 1.18168 6.02352 1.20927 6.20102 1.42081L7.3898 2.83754Z" fill="#3D7B50"/>
</svg>
