<svg width="24" height="24" viewBox="0 0 24 24" fill="none" xmlns="http://www.w3.org/2000/svg">
<path fill-rule="evenodd" clip-rule="evenodd" d="M0 0H24V24H0V0Z" fill="white"/>
<path opacity="0.3" d="M15.9742 13.2C14.8558 13.2 13.9492 12.3208 13.9492 11.2364C13.9492 10.1519 14.8558 9.27273 15.9742 9.27273C17.0926 9.27273 17.9992 10.1519 17.9992 11.2364C17.9992 12.3208 17.0926 13.2 15.9742 13.2ZM9.89922 11.2364C8.40805 11.2364 7.19922 10.0642 7.19922 8.61818C7.19922 7.1722 8.40805 6 9.89922 6C11.3904 6 12.5992 7.1722 12.5992 8.61818C12.5992 10.0642 11.3904 11.2364 9.89922 11.2364Z" fill="#3968BF"/>
<path d="M15.9204 14.3996C18.305 14.4219 20.252 15.4553 20.3986 17.6392C20.4045 17.7272 20.3986 17.9992 20.0188 17.9992H17.3196C17.3196 16.6487 16.799 15.4023 15.9204 14.3996ZM3.60007 17.5187C3.87139 14.6551 6.58295 13.1992 9.88795 13.1992C13.2395 13.1992 15.993 14.5751 16.1981 17.5192C16.2063 17.6365 16.1981 17.9992 15.6723 17.9992C13.0784 17.9992 9.22392 17.9992 4.10886 17.9992C3.93331 17.9992 3.58529 17.6747 3.60007 17.5187Z" fill="#3968BF"/>
</svg>
