<svg width="25" height="24" viewBox="0 0 25 24" fill="none" xmlns="http://www.w3.org/2000/svg">
<g clip-path="url(#clip0_7874_3893)">
<path d="M11.4964 11.0863C11.3657 8.63519 11.2351 6.18457 11.1044 3.73447C11.0676 3.06263 11.3372 2.84789 11.9481 3.11632C12.5556 3.362 13.142 3.65697 13.7015 3.99829C14.5682 4.57196 14.8867 5.5199 15.1899 6.46476C15.8943 8.67661 16.6308 10.8869 17.3398 13.1034C17.5144 13.6464 17.8314 13.9961 18.3933 14.1403C18.8527 14.2568 19.3014 14.4087 19.7501 14.559C21.9505 15.2953 23.4007 16.8475 24.3639 18.8953C24.641 19.4858 24.4787 20.0794 24.0086 20.5426C23.8 20.7607 23.5307 20.9108 23.2357 20.9734C22.9408 21.0361 22.6338 21.0084 22.3548 20.8939C20.1793 20.127 18.0044 19.357 15.83 18.5839C12.1288 17.2755 8.43076 15.9579 4.72351 14.6587C2.66392 13.9455 1.44042 12.2168 1.50014 10.0448C1.53383 8.8484 1.55833 7.65198 1.58742 6.45556C1.60273 5.80366 1.8508 5.6242 2.45413 5.84201C3.05746 6.05982 3.70367 6.25462 4.30546 6.51538C4.52911 6.62268 4.70411 6.81057 4.79548 7.0415C5.10173 7.92194 5.37737 8.81619 5.63616 9.7135C5.67407 9.88362 5.75844 10.0398 5.87985 10.1647C6.00126 10.2896 6.15493 10.3782 6.32371 10.4206C7.73403 10.8716 9.13669 11.3517 10.5409 11.8241C11.3188 12.0803 11.5362 11.9177 11.4964 11.0863Z" fill="#B5B5C2"/>
</g>
<defs>
<clipPath id="clip0_7874_3893">
<rect width="23" height="18" fill="white" transform="translate(1.5 3)"/>
</clipPath>
</defs>
</svg>
