<svg width="25" height="24" viewBox="0 0 25 24" fill="none" xmlns="http://www.w3.org/2000/svg">
<path d="M12.3784 21.8504C12.5216 21.9479 12.6909 22 12.8642 22C13.0374 22 13.2067 21.9479 13.3499 21.8504C18.5458 18.3236 23.2866 14.1268 23.2278 8.22552M12.3784 21.8504L12.8642 21.1364L12.8649 21.1359C18.0832 17.5937 22.4178 13.6316 22.3642 8.23438M12.3784 21.8504C7.18198 18.3236 2.44118 14.1268 2.50055 8.22552M12.3784 21.8504L12.8641 21.1364L12.8634 21.1358C7.64446 17.5937 3.30993 13.6315 3.36414 8.23438L2.50055 8.22552M22.3642 8.23438L23.2278 8.22552M22.3642 8.23438C22.3395 5.83242 20.4381 3.86363 18.0956 3.86363C16.6496 3.86363 15.5478 4.5721 14.7743 5.34013C14.3894 5.72232 14.0995 6.10669 13.9066 6.39501C13.8106 6.53845 13.74 6.65614 13.6947 6.73516C13.6721 6.77461 13.656 6.80425 13.6463 6.82244L13.6366 6.84086C13.6358 6.84243 13.6354 6.84322 13.6354 6.84321L13.6357 6.84259L13.6361 6.84183L13.6363 6.84134M22.3642 8.23438C22.3642 8.23429 22.3642 8.23421 22.3642 8.23413L23.2278 8.22552M23.2278 8.22552C23.1986 5.38255 20.9434 3 18.0956 3C15.7021 3 14.1376 4.61176 13.3863 5.63344L13.6363 6.84134M12.0928 6.8429C12.0929 6.84307 12.0929 6.84317 12.0929 6.8432L12.0926 6.84259L12.0922 6.84183L12.092 6.84134C12.0922 6.84186 12.0925 6.84238 12.0928 6.8429ZM12.0928 6.8429C12.2394 7.13425 12.5378 7.31817 12.8642 7.31817C13.1911 7.31817 13.4899 7.13359 13.6363 6.84134M12.0928 6.8429C12.0926 6.84253 12.0922 6.84185 12.0917 6.84086L12.082 6.82244C12.0723 6.80425 12.0562 6.77461 12.0336 6.73516C11.9883 6.65614 11.9177 6.53845 11.8217 6.39501C11.6288 6.10669 11.3389 5.72232 10.954 5.34013C10.1805 4.5721 9.07869 3.86363 7.63269 3.86363C5.29027 3.86363 3.38885 5.83233 3.36414 8.23421L2.50055 8.22552M13.6363 6.84134L12.342 5.63344C11.5907 4.61176 10.0262 3 7.63269 3C4.78486 3 2.5297 5.38255 2.50055 8.22552" stroke="#B5B5C2" stroke-width="1.72727" stroke-linecap="round" stroke-linejoin="round"/>
</svg>
