<svg width="145" height="101" viewBox="0 0 145 101" fill="none" xmlns="http://www.w3.org/2000/svg">
<path d="M142.354 0H2.02539V100.155H142.354V0Z" fill="url(#paint0_linear_824_6243)"/>
<path d="M6.02689 87.7488L66.6536 44.4869C68.2736 43.3354 70.2118 42.7168 72.1993 42.7168C74.1868 42.7168 76.1251 43.3354 77.7451 44.4869L138.372 87.7488C139.608 88.6336 140.616 89.8001 141.312 91.1518C142.007 92.5035 142.371 94.0015 142.373 95.5218V100.155H2V95.5218C2.00471 93.9993 2.37251 92.4999 3.07286 91.148C3.7732 89.7961 4.7859 88.6308 6.02689 87.7488Z" fill="url(#paint1_linear_824_6243)"/>
<path d="M2.0001 95.5203C1.99418 94.2322 2.2483 92.9561 2.74724 91.7685C3.24618 90.5809 3.97968 89.5063 4.9038 88.6089C5.68237 87.875 3.11691 89.7193 64.5413 45.7298C66.8388 44.0834 68.6193 42.4752 72.1994 42.4688C75.7796 42.4624 77.6048 44.1025 79.8575 45.7298C141.429 89.8405 138.64 87.8494 139.438 88.6089C140.362 89.5063 141.095 90.5809 141.594 91.7685C142.093 92.9561 142.347 94.2322 142.341 95.5203C142.338 94.2369 142.073 92.9676 141.564 91.7894C141.055 90.6112 140.312 89.5487 139.38 88.6663C138.602 87.9196 143.407 91.4679 79.6023 46.0936C77.2602 44.4343 75.6073 42.9474 72.1803 42.9474C68.7533 42.9474 67.0302 44.479 64.7647 46.0936C1.32363 91.2062 5.82915 87.8431 4.98676 88.6663C4.05456 89.5499 3.30973 90.6122 2.79662 91.7897C2.28352 92.9672 2.01263 94.2359 2.0001 95.5203Z" fill="white"/>
<g filter="url(#filter0_d_824_6243)">
<path d="M6.02689 12.4061L66.6536 55.6681C68.2736 56.8195 70.2118 57.4381 72.1993 57.4381C74.1868 57.4381 76.1251 56.8195 77.7451 55.6681L138.372 12.4061C139.608 11.5213 140.616 10.3548 141.312 9.00311C142.007 7.65142 142.371 6.15343 142.373 4.63316V0H2V4.63316C2.00471 6.15565 2.37251 7.65507 3.07286 9.00693C3.7732 10.3588 4.7859 11.5241 6.02689 12.4061Z" fill="url(#paint2_linear_824_6243)"/>
</g>
<path d="M2.00002 4.63281C2.01 5.91762 2.27973 7.18713 2.79299 8.365C3.30625 9.54287 4.05244 10.6048 4.98668 11.4868C5.7844 12.2462 1.15763 8.84477 64.771 54.0595C71.4272 58.7948 74.1649 57.9205 79.6086 54.0595C143.426 8.69799 138.608 12.2335 139.386 11.4868C140.316 10.6026 141.058 9.53971 141.566 8.36194C142.075 7.18418 142.341 5.91578 142.348 4.63281C142.354 5.92094 142.099 7.19701 141.6 8.3846C141.102 9.57219 140.368 10.6469 139.444 11.5443C138.653 12.3164 141.486 10.2679 79.8638 54.4233C74.3117 58.4055 71.3952 59.3564 64.5093 54.4233C2.82326 10.2105 5.68867 12.2845 4.92925 11.5443C4.00051 10.649 3.26228 9.57533 2.75891 8.38763C2.25554 7.19994 1.99741 5.92277 2.00002 4.63281Z" fill="#D6D6D6"/>
<defs>
<filter id="filter0_d_824_6243" x="0.1" y="0" width="144.173" height="61.3385" filterUnits="userSpaceOnUse" color-interpolation-filters="sRGB">
<feFlood flood-opacity="0" result="BackgroundImageFix"/>
<feColorMatrix in="SourceAlpha" type="matrix" values="0 0 0 0 0 0 0 0 0 0 0 0 0 0 0 0 0 0 127 0" result="hardAlpha"/>
<feOffset dy="2"/>
<feGaussianBlur stdDeviation="0.95"/>
<feComposite in2="hardAlpha" operator="out"/>
<feColorMatrix type="matrix" values="0 0 0 0 0.858567 0 0 0 0 0.925122 0 0 0 0 0.998333 0 0 0 1 0"/>
<feBlend mode="normal" in2="BackgroundImageFix" result="effect1_dropShadow_824_6243"/>
<feBlend mode="normal" in="SourceGraphic" in2="effect1_dropShadow_824_6243" result="shape"/>
</filter>
<linearGradient id="paint0_linear_824_6243" x1="72.1864" y1="100.155" x2="72.1864" y2="0" gradientUnits="userSpaceOnUse">
<stop stop-color="#EFF8FF"/>
<stop offset="0.98" stop-color="#ECF3FF"/>
</linearGradient>
<linearGradient id="paint1_linear_824_6243" x1="72.1866" y1="100.155" x2="72.1866" y2="42.7127" gradientUnits="userSpaceOnUse">
<stop stop-color="#DDEDFA"/>
<stop offset="1" stop-color="#ECF1FC"/>
</linearGradient>
<linearGradient id="paint2_linear_824_6243" x1="72.1866" y1="0" x2="72.1866" y2="57.4422" gradientUnits="userSpaceOnUse">
<stop stop-color="#F5FAFF"/>
<stop offset="1" stop-color="#E8F5FF"/>
</linearGradient>
</defs>
</svg>
