<svg width="37" height="33" viewBox="0 0 37 33" fill="none" xmlns="http://www.w3.org/2000/svg">
<path d="M28.4347 32.9864C28.485 32.8892 28.53 32.786 28.5692 32.6778C28.4959 32.5767 28.4169 32.4856 28.3331 32.4055C28.2441 32.3457 28.1653 32.2557 28.1029 32.1422C28.0073 31.938 27.8279 31.7565 27.7801 31.5069C27.7323 31.2573 27.8548 31.2391 27.8608 31.053C27.8608 30.9532 27.81 30.8579 27.804 30.758C27.798 30.6582 27.8249 30.6264 27.8459 30.5311C27.8805 30.3581 27.9035 30.1802 27.9146 30.0001C27.9371 29.8667 27.9482 29.7294 27.9475 29.5917C27.9296 29.4873 27.9206 29.5009 27.8758 29.4328C27.8309 29.3647 27.7801 29.1741 27.7173 29.1423C27.6546 29.1106 27.5619 29.1832 27.5021 29.1741C27.4423 29.165 27.3796 29.1287 27.3198 29.1106C27.2294 29.0631 27.1323 29.0537 27.0388 29.0833C26.9611 29.1242 26.8834 29.215 26.8026 29.2059C26.7219 29.1968 26.6263 29.1605 26.5456 29.1423C26.4467 29.1187 26.3466 29.1096 26.2467 29.1151C26.157 29.1151 26.157 29.1832 26.1151 29.0743C26.1002 28.9895 26.1002 28.9003 26.1151 28.8156C26.2257 28.7611 26.2676 28.7747 26.3005 28.6204C26.3296 28.486 26.3397 28.3437 26.3304 28.2029C26.3304 28.0531 26.2586 27.8897 26.3483 27.7491C26.438 27.6084 26.4978 27.7037 26.5157 27.5267C26.5157 27.4586 26.5157 27.4087 26.5157 27.3451C26.5157 27.2816 26.5516 27.2907 26.5635 27.2544C26.6024 27.1228 26.5635 26.9321 26.5964 26.8005C26.6293 26.6689 26.9401 26.5328 26.7997 26.2378C26.6601 26.268 26.518 26.2572 26.3812 26.206C26.3083 26.2023 26.2355 26.2176 26.166 26.2514C26.098 26.267 26.031 26.2913 25.9657 26.324C25.9119 26.3648 25.9119 26.4783 25.8581 26.5055C25.8043 26.5328 25.7535 26.4329 25.6698 26.5464C25.5861 26.6598 25.6399 26.7052 25.6518 26.8459C25.6573 26.9557 25.6461 27.066 25.6189 27.1681C25.5681 27.3361 25.4665 27.3179 25.3977 27.4314C25.329 27.5448 25.3439 27.5811 25.2274 27.622C25.1676 27.622 25.1108 27.6447 25.054 27.6537C24.9972 27.6628 24.9673 27.6946 24.8986 27.7854C24.8298 27.8761 24.764 27.7944 24.6534 27.7944C24.5966 27.7944 24.5966 27.8761 24.5458 27.9034C24.506 27.9074 24.4661 27.9074 24.4263 27.9034C24.3695 27.9034 24.3276 27.9487 24.2678 27.9034C24.2081 27.858 24.235 27.799 24.1991 27.7536C24.0437 27.5494 23.7477 27.7536 23.6192 27.4586C23.5594 27.327 23.6192 27.1273 23.5564 27.0048C23.4937 26.8822 23.4847 26.9548 23.4249 26.914C23.3743 26.8682 23.333 26.8023 23.3053 26.7234C23.2366 26.5418 23.3053 26.3966 23.2844 26.2105C23.2635 26.0245 23.1648 26.0789 23.0961 25.9428C23.0273 25.8066 23.0961 25.616 23.117 25.4889C23.1379 25.3618 23.1678 25.1485 23.1828 24.9761C23.1802 24.7742 23.1882 24.5724 23.2067 24.3725C23.389 24.4769 23.3083 23.8052 23.2934 23.6826C23.2784 23.5601 23.2187 23.3196 23.2605 23.197C23.3023 23.0745 23.3263 23.1426 23.389 22.9928L23.4309 22.961C23.4727 22.8884 23.5146 22.9293 23.5714 22.902C23.6282 22.8748 23.6551 22.8158 23.7089 22.784C23.7627 22.7523 23.8165 22.7568 23.8643 22.7069C23.9121 22.6569 23.948 22.5616 24.0227 22.5163C24.0718 22.499 24.1219 22.4884 24.1722 22.4845C24.238 22.4618 24.2409 22.4255 24.2918 22.3665C24.3795 22.2758 24.4848 22.2326 24.5907 22.244C24.6418 22.2256 24.695 22.2256 24.7461 22.244C24.7969 22.2803 24.7969 22.3574 24.8298 22.3892C24.8627 22.4209 25.0121 22.3483 25.1048 22.3892C25.1975 22.43 25.2722 22.4936 25.3888 22.4618C25.4773 22.4129 25.5682 22.3749 25.6608 22.3483C25.885 22.3483 25.9597 22.2757 25.9896 21.8945C26.1047 21.856 26.2217 21.8318 26.3393 21.8219C26.4439 21.8219 26.5426 21.8219 26.6382 21.8219C26.7339 21.8219 26.8564 21.7039 26.9372 21.7674C27.0179 21.831 26.976 21.8945 27.0179 21.9399C27.0597 21.9853 27.1016 21.9399 27.1584 21.9399C27.266 21.9399 27.3646 22.067 27.4573 22.0715C27.5499 22.076 27.6426 21.9126 27.7741 21.9853C27.9056 22.0579 27.8608 22.2485 27.9684 22.3438C27.9983 22.371 28.076 22.3665 28.0969 22.4119C28.1179 22.4573 28.0969 22.4845 28.0969 22.5526C28.1063 22.6862 28.1233 22.8183 28.1478 22.9474C28.1747 23.1653 28.1478 23.3377 28.2434 23.5147C28.3391 23.6917 28.3122 23.7462 28.369 23.8732C28.4258 24.0003 28.5573 24.0049 28.5961 24.1682V24.2182C28.5899 24.2693 28.5924 24.322 28.6033 24.3713C28.6143 24.4206 28.6335 24.4647 28.6589 24.4995C28.6698 24.5173 28.683 24.5314 28.6977 24.5411C28.7123 24.5507 28.7281 24.5557 28.7441 24.5557C28.7601 24.5557 28.7759 24.5507 28.7905 24.5411C28.8052 24.5314 28.8184 24.5173 28.8293 24.4995C28.8551 24.4709 28.8732 24.429 28.8801 24.3815C28.9328 24.1498 28.9552 23.9047 28.9459 23.6599C28.9459 23.4557 28.8353 23.3967 28.8412 23.1562C28.8458 23.0852 28.8458 23.0138 28.8412 22.9429C28.8473 22.8812 28.8473 22.8185 28.8412 22.7568C28.8135 22.6122 28.7633 22.4799 28.6948 22.371C28.641 22.253 28.5603 22.2213 28.5662 22.0443C28.5797 21.9058 28.5797 21.7652 28.5662 21.6267C28.5648 21.6132 28.5648 21.5994 28.5662 21.5859C28.7008 20.9006 29.1641 20.5647 29.5437 20.1744C29.6724 20.0305 29.7906 19.8662 29.8964 19.6843C30.0013 19.6202 30.1015 19.5396 30.1953 19.4437C30.2671 19.3757 30.3597 19.3666 30.3836 19.2214C30.4076 19.0761 30.4554 18.8855 30.3836 18.7902C30.3119 18.6949 30.2103 18.5951 30.1415 18.4725C30.143 18.4453 30.143 18.418 30.1415 18.3908C30.1415 18.3137 30.0937 18.2456 30.0817 18.1685C30.0519 17.9869 30.1236 17.8825 30.1595 17.7146C30.1774 17.6329 30.2432 17.2608 30.3209 17.5331C30.3508 17.6329 30.2701 17.7418 30.2731 17.8372C30.276 17.9325 30.3029 17.9415 30.3508 18.0096C30.4524 18.1594 30.4793 18.1548 30.5271 17.9506C30.5961 17.6728 30.6973 17.4161 30.826 17.1927C30.8839 17.0701 30.9339 16.9394 30.9755 16.8024C31.0443 16.7434 31.116 16.6572 31.1638 16.6254C31.2605 16.5555 31.3604 16.4963 31.4627 16.4484C31.6365 16.3882 31.8036 16.2904 31.9589 16.1579C32.0366 16.0853 32.0426 15.8811 32.0396 15.7676C32.0544 15.5889 32.092 15.4163 32.1502 15.2593C32.1788 15.2239 32.2099 15.1935 32.2429 15.1686C32.3296 15.1005 32.3774 14.9916 32.4761 14.9779C32.7 14.9426 32.9195 14.8586 33.1277 14.7283C33.1701 14.7105 33.2104 14.683 33.2473 14.6466C33.2801 14.5967 33.2801 14.5196 33.325 14.4787C33.4094 14.4466 33.4977 14.4466 33.582 14.4787C33.6956 14.4787 33.6956 14.4787 33.7763 14.3743C33.8107 14.3306 33.8466 14.2896 33.8839 14.2518L33.9587 14.329L34.0035 14.3653C33.9557 14.4742 33.7913 14.5559 33.7464 14.6013C33.6467 14.7188 33.5701 14.8758 33.5252 15.0551C33.4864 15.1913 33.5252 15.2866 33.6209 15.3047C33.6747 15.3047 33.7076 15.2684 33.7584 15.2548C33.8092 15.2412 33.8481 15.2548 33.8869 15.2548C33.9258 15.2548 33.9497 15.1595 33.9796 15.1368C34.0224 15.1068 34.0676 15.0854 34.1141 15.0733C34.2019 15.0275 34.2845 14.9617 34.3592 14.8781C34.4433 14.8181 34.5331 14.7783 34.6253 14.7601C34.7508 14.7086 34.8736 14.6434 34.9929 14.5649C35.1035 14.4923 35.1334 14.3153 35.2201 14.27C35.3068 14.2246 35.4293 14.27 35.4921 14.1111C35.519 14.034 35.5071 14.043 35.4921 13.9659C35.4772 13.8887 35.4413 13.9659 35.4353 13.9069C35.4293 13.8479 35.4353 13.8524 35.4353 13.8343C35.4353 13.8161 35.4891 13.7163 35.4144 13.6663C35.3397 13.6164 35.3576 13.6663 35.3158 13.6981C35.236 13.7226 35.1647 13.7903 35.1155 13.8887C35.0587 13.9795 34.9869 14.1111 34.9032 14.1156C34.9047 14.093 34.9047 14.0702 34.9032 14.0476C34.7986 14.0793 34.8494 13.8933 34.8106 13.8206C34.7717 13.748 34.6731 13.7526 34.6013 13.7571C34.5296 13.7616 34.428 13.8252 34.3562 13.7571C34.2845 13.689 34.2935 13.6391 34.1679 13.6709C34.1081 13.6709 33.9706 13.6709 33.9497 13.5665C33.9288 13.4621 34.0364 13.4258 34.0214 13.3214C34.0065 13.217 33.8541 13.1626 33.7225 13.1717L33.6598 13.1263C33.643 13.1217 33.6257 13.1217 33.6089 13.1263C33.585 13.1263 33.5731 13.1263 33.585 13.1263C33.5903 13.1094 33.5973 13.0941 33.606 13.0809L33.6388 13.031H33.6956C33.8271 13.031 34.2755 12.913 34.0424 12.6134C33.9612 12.5485 33.8723 12.5091 33.7809 12.4974C33.6895 12.4857 33.5975 12.502 33.5103 12.5454C33.4744 12.5454 33.4565 12.6044 33.4206 12.6225C33.3622 12.6362 33.3027 12.6362 33.2443 12.6225C33.1533 12.6273 33.0652 12.6714 32.9902 12.7496C32.9065 12.8086 32.8019 12.7496 32.6913 12.8177C32.5995 12.9055 32.4983 12.9685 32.3924 13.0037C32.5096 12.7799 32.6616 12.6037 32.8348 12.4909C32.9214 12.441 33.0081 12.4455 33.0888 12.4001C33.1695 12.3547 33.1815 12.2821 33.2473 12.1914C33.316 12.0978 33.3988 12.0312 33.4884 11.9971C33.578 11.9631 33.6717 11.9628 33.7614 11.9962C33.9819 12.0471 34.205 12.0684 34.428 12.0597C34.54 12.0847 34.6538 12.0847 34.7657 12.0597C34.8445 12.0186 34.929 12.0092 35.0109 12.0325C35.1979 12.0529 35.3857 12.0529 35.5728 12.0325C35.6834 12.0325 35.7193 11.9417 35.809 11.8646C35.8986 11.7874 35.9554 11.7965 36.0182 11.6876C36.081 11.5787 36.1527 11.4107 36.2902 11.4017C36.4277 11.3926 36.4815 11.4017 36.5891 11.4017C36.6967 11.4017 36.7685 11.2564 36.8342 11.1884C36.8953 11.1304 36.9433 11.0453 36.9716 10.9447C36.9999 10.8441 37.0073 10.7327 36.9927 10.6256C36.9927 10.5121 36.9927 10.3306 36.9418 10.2489C36.8767 10.2074 36.8085 10.1784 36.7386 10.1627C36.6549 10.1627 36.5652 10.2035 36.5054 10.0765C36.4456 9.94938 36.5054 9.8223 36.4397 9.71792C36.3739 9.61353 36.2842 9.67707 36.1916 9.64077C36.0989 9.60446 36.0331 9.55454 35.9405 9.53184C35.8493 9.53879 35.7583 9.51395 35.6744 9.45923C35.6038 9.3877 35.5299 9.324 35.4532 9.26862C35.381 9.23511 35.3186 9.16452 35.2769 9.06892C35.2289 8.95388 35.1859 8.8341 35.1484 8.71039C35.0803 8.45216 34.9678 8.22644 34.8225 8.05686C34.7455 7.97204 34.6822 7.86188 34.6372 7.73463C34.5954 7.60755 34.5804 7.49863 34.4967 7.4124C34.413 7.32617 34.3503 7.33525 34.2994 7.21271C34.2486 7.09018 34.2127 6.82695 34.1141 6.78156C34.0155 6.73618 34.0065 6.85418 33.9497 6.93133C33.8929 7.00848 33.7973 7.00395 33.7554 7.07656C33.7136 7.14918 33.7554 7.19002 33.7554 7.22633C33.7554 7.26264 33.7255 7.27171 33.6986 7.32163C33.6717 7.37156 33.6089 7.55309 33.5462 7.61209C33.4834 7.67109 33.4326 7.66202 33.3788 7.73463C33.3546 7.76598 33.3326 7.80095 33.313 7.83902H33.1905C33.0993 7.8439 33.0081 7.83325 32.9184 7.80724C32.9002 7.79386 32.8831 7.77709 32.8676 7.75732C32.8049 7.67563 32.7809 7.56217 32.6913 7.53494C32.6016 7.50771 32.5269 7.57579 32.4641 7.49409C32.4013 7.4124 32.4462 7.28987 32.4342 7.17641C32.4223 7.06295 32.3953 7.01302 32.4342 6.86779C32.4731 6.72256 32.491 6.68172 32.4013 6.6091C32.3064 6.55004 32.2013 6.54046 32.1024 6.58187L32.0755 6.55464C32.0239 6.52695 31.9755 6.48713 31.932 6.43664C31.8915 6.36911 31.8464 6.30827 31.7975 6.25511C31.7312 6.22043 31.6632 6.19313 31.5943 6.17342C31.5106 6.12803 31.4358 6.04634 31.3551 5.99642C31.3513 5.96899 31.3442 5.94284 31.3342 5.91926C31.2654 5.79673 31.1698 5.8285 31.0741 5.83303C30.9277 5.83303 30.8798 5.76042 30.7573 5.89203H30.7394H30.7423C30.5929 5.83303 30.4434 5.81034 30.291 5.75588L30.2282 5.72411C30.1565 5.72411 30.0877 5.69688 30.016 5.67873C30.016 5.67873 30.016 5.70142 29.998 5.70596C29.8906 5.76945 29.7899 5.85661 29.6991 5.96465C29.6669 6.05989 29.6594 6.17005 29.6782 6.27326C29.726 6.47749 29.6394 6.67718 29.6782 6.89049C29.7948 7.44417 29.5826 7.38517 29.463 7.56671V7.73917C29.5168 7.83901 29.5766 7.93432 29.6364 8.02509C29.713 8.03407 29.7899 8.03407 29.8665 8.02509C29.897 8.0885 29.93 8.14912 29.9652 8.20663C30.025 8.28832 30.0279 8.24293 30.0459 8.38362C30.0681 8.52033 30.0801 8.66038 30.0817 8.80116C30.0817 8.94185 29.9771 9.09162 29.9861 9.21415C29.8751 9.31399 29.7592 9.40048 29.6393 9.47284C29.5697 9.5441 29.4872 9.58059 29.4032 9.57723H29.2717C29.2209 9.65438 29.1671 9.73153 29.1192 9.81776C29.123 9.86409 29.1363 9.90744 29.1573 9.94165C29.1782 9.97586 29.2057 9.99921 29.2358 10.0084C29.2747 10.0084 29.3285 10.0084 29.3464 10.0583C29.3643 10.1082 29.2926 10.258 29.2956 10.3397C29.2956 10.5076 29.448 10.7935 29.3673 10.9841C29.3404 11.0386 29.2747 11.0386 29.2388 11.0976C29.2029 11.1566 29.1581 11.2564 29.1162 11.3245C28.9758 11.2383 28.7157 11.1158 28.7247 10.8434C28.7247 10.6483 28.7725 10.4758 28.6081 10.4577C28.5154 10.4577 28.5423 10.4849 28.4945 10.3941C28.4814 10.3938 28.4688 10.3869 28.4586 10.3746C28.4483 10.3623 28.441 10.3453 28.4377 10.3261C28.3971 10.207 28.3708 10.0779 28.36 9.94484V9.87676C28.36 9.87676 28.36 9.87676 28.36 9.84953C28.3585 9.82235 28.3585 9.79503 28.36 9.76784C28.366 9.6773 28.366 9.58608 28.36 9.49554L28.3391 9.45923C28.1508 9.39569 27.9565 9.35938 27.7652 9.31854H27.6665C27.5858 9.31854 27.52 9.27769 27.4483 9.27315C27.3766 9.26862 27.3078 9.32308 27.2211 9.27315C27.1344 9.22323 27.1105 9.10977 27.0209 9.09162C26.9312 9.07346 26.8385 9.11885 26.7488 9.09162C26.6592 9.06439 26.6711 9.05985 26.6233 8.97362C26.5924 8.91349 26.551 8.86786 26.5037 8.842C26.4327 8.77581 26.3666 8.69821 26.3064 8.61055C26.16 8.44262 26.0344 8.61055 25.879 8.55155C25.8312 8.52885 25.7893 8.48801 25.7445 8.46532L25.598 8.38362C25.4576 8.326 25.3103 8.31823 25.1676 8.36093C25.1233 8.3664 25.0789 8.35518 25.0382 8.32826C24.9976 8.30133 24.9619 8.25955 24.9344 8.20663C24.8687 8.11132 24.8089 8.07955 24.7999 7.92524C24.7999 7.87986 24.8298 7.81178 24.8178 7.74825C24.785 7.51225 24.6505 7.59848 24.5189 7.61209C24.3874 7.62571 24.2559 7.66655 24.22 7.52133C24.22 7.45779 24.2499 7.34887 24.2499 7.28079C24.2499 7.21271 24.217 7.09925 24.217 7.00848C24.217 6.91772 24.2409 6.89502 24.2678 6.81787C24.2877 6.74018 24.3107 6.6644 24.3366 6.59095C24.3814 6.50018 24.4562 6.49564 24.513 6.43211C24.5674 6.36505 24.6156 6.2872 24.6564 6.20065H24.6803C24.6803 6.10988 24.773 6.08265 24.8089 6.0418C24.8448 6.00096 24.9524 5.97372 25.0151 5.8875C25.04 5.85515 25.0612 5.81682 25.0779 5.77403C25.0988 5.71957 25.0779 5.65604 25.1377 5.64696C25.1751 5.65518 25.212 5.66731 25.2483 5.68327C25.2871 5.68327 25.329 5.72411 25.3679 5.71504C25.4179 5.69256 25.4618 5.64645 25.4934 5.58342C25.5098 5.56306 25.5248 5.54026 25.5382 5.51534C25.5382 5.48358 25.5382 5.44273 25.5532 5.41096C25.5681 5.37919 25.6518 5.34289 25.6877 5.29296C25.7236 5.24304 25.7325 5.12504 25.7953 5.10689C25.8581 5.08873 25.9238 5.10689 25.9806 5.10689C26.0946 5.11001 26.2085 5.09939 26.3214 5.07512C26.3991 5.04789 26.423 4.9662 26.4888 4.91627C26.5545 4.86635 26.5396 4.91627 26.5635 4.83458C26.5874 4.75289 26.5874 4.77104 26.6233 4.74381C26.6592 4.71658 26.707 4.68481 26.71 4.56682C26.71 4.53505 26.71 4.47151 26.7279 4.44882C26.7459 4.42612 26.7787 4.44882 26.7997 4.44882C26.8206 4.44882 26.8624 4.29905 26.8983 4.24459C26.9342 4.19013 26.9551 4.1992 26.976 4.15382C26.9969 4.10844 26.976 4.0812 27.0029 4.03582C27.0298 3.99044 27.0896 3.92236 27.1374 3.86336C27.1853 3.80436 27.2211 3.86336 27.2421 3.95867C27.2505 3.9908 27.2565 4.0243 27.26 4.05851C27.1746 4.12388 27.0936 4.20138 27.0179 4.28997C27.0031 4.3034 26.991 4.32284 26.9831 4.34609C26.9752 4.36934 26.9717 4.39549 26.973 4.42159C26.973 4.42159 26.973 4.42159 26.973 4.44882C26.973 4.72566 26.8385 4.81643 26.7578 5.01158C26.7505 5.02543 26.7445 5.0407 26.7399 5.05696C26.7189 5.08419 26.698 5.1205 26.701 5.14773C26.704 5.17496 26.7219 5.18858 26.7429 5.20219C26.8448 5.26362 26.9511 5.30628 27.0597 5.32927H27.1016C27.1016 5.37465 27.1016 5.39735 27.1285 5.43365C27.1615 5.4697 27.2013 5.48878 27.2421 5.48811C27.2679 5.48373 27.2939 5.48373 27.3198 5.48811C27.3198 5.48811 27.3437 5.5335 27.3556 5.54257C27.3749 5.55375 27.3962 5.55375 27.4154 5.54257C27.4751 5.53529 27.5326 5.50567 27.5828 5.45635C27.6277 5.39735 27.6187 5.30204 27.6635 5.24304C27.7084 5.18404 27.7502 5.24304 27.795 5.20673C27.8399 5.17042 27.8399 5.07966 27.8787 5.03881C27.934 4.99077 27.9995 4.97773 28.0611 5.0025H28.1597C28.2105 5.0025 28.1926 5.0025 28.2135 5.07966C28.2344 5.15681 28.2972 5.16589 28.372 5.20219C28.4467 5.2385 28.4437 5.27935 28.4945 5.30204C28.5634 5.34196 28.6361 5.36494 28.7097 5.37012C28.7665 5.37012 28.7815 5.29296 28.8293 5.26573C28.8771 5.2385 29.0027 5.18404 28.9339 5.05243C28.9033 4.99998 28.8641 4.96082 28.8203 4.93897C28.7815 4.93897 28.7456 4.97527 28.7037 4.93897C28.6679 4.91549 28.6354 4.88157 28.6081 4.83912C28.5842 4.80735 28.5782 4.75289 28.5513 4.72112C28.5244 4.68935 28.4855 4.68481 28.4556 4.62582C28.4258 4.56682 28.4198 4.53958 28.3839 4.53051C28.348 4.52143 28.2733 4.5532 28.2135 4.53051C28.1926 4.51489 28.1696 4.50677 28.1463 4.50677C28.1229 4.50677 28.0999 4.51489 28.079 4.53051C28.0092 4.55528 27.9366 4.55528 27.8668 4.53051C27.8459 4.53051 27.8668 4.47151 27.8399 4.44428C27.813 4.41705 27.7801 4.41705 27.7562 4.38528C27.7323 4.35351 27.7353 4.31266 27.7113 4.30359C27.6874 4.29451 27.6426 4.33989 27.6127 4.34443C27.538 4.34443 27.4872 4.29451 27.4931 4.19013C27.4991 4.08574 27.544 4.1039 27.5978 4.05851C27.6516 4.01313 27.6277 4.00405 27.6605 4.00859C27.6934 4.01313 27.7203 4.08574 27.7562 4.09482C27.7875 4.09207 27.8186 4.08447 27.8488 4.07213C27.8789 4.07126 27.9085 4.06042 27.9355 4.04036C27.9423 4.03199 27.9479 4.02166 27.952 4.00997C27.9561 3.99828 27.9586 3.98547 27.9594 3.97228C28.0371 3.94407 28.1131 3.90612 28.1866 3.85882C28.2472 3.84158 28.3038 3.80094 28.351 3.74082C28.3829 3.71763 28.4121 3.68701 28.4377 3.65005C28.4642 3.64683 28.4893 3.63094 28.5095 3.60467C28.5481 3.54251 28.5723 3.46278 28.5782 3.37775C28.5796 3.3445 28.5796 3.31115 28.5782 3.2779C28.53 3.20024 28.496 3.10481 28.4796 3.00106C28.4758 2.96926 28.4777 2.93651 28.485 2.9062C28.4924 2.87588 28.505 2.84909 28.5214 2.8286C28.534 2.80625 28.5451 2.7819 28.5543 2.75599C28.5529 2.74703 28.5529 2.73771 28.5543 2.72876L28.5812 2.63345C28.5702 2.58627 28.5478 2.54728 28.5184 2.52453C28.4602 2.47454 28.3939 2.45092 28.3271 2.45645C28.2344 2.45645 28.2733 2.3793 28.2165 2.30668C28.1903 2.27887 28.1602 2.26071 28.1285 2.25362C28.0969 2.24653 28.0646 2.25071 28.0342 2.26584C27.9466 2.27629 27.8587 2.2561 27.7771 2.20684C27.6546 2.16145 27.538 2.27945 27.4154 2.2613C27.3736 2.2613 27.3377 2.20684 27.2988 2.21592C27.26 2.22499 27.2809 2.25676 27.263 2.29761C27.245 2.33845 27.1823 2.38837 27.2301 2.48822C27.4005 2.84222 26.8893 2.96929 26.8415 3.1826C26.836 3.22913 26.836 3.27676 26.8415 3.32329C26.7941 3.32719 26.7471 3.33783 26.701 3.35506C26.5695 3.23252 26.4021 3.14629 26.4589 2.90122C26.4589 2.81499 26.4977 2.64253 26.4141 2.60622C26.2518 2.52882 26.0803 2.50712 25.9119 2.54268C25.8755 2.5563 25.8417 2.58273 25.8132 2.61983C25.7448 2.70114 25.6729 2.77543 25.598 2.84222C25.5993 2.83325 25.5993 2.82396 25.598 2.81499C25.598 2.72876 25.5741 2.6743 25.6189 2.60168C25.6364 2.57987 25.6502 2.55197 25.659 2.52037C25.6678 2.48876 25.6715 2.45438 25.6698 2.42014C25.6698 2.34753 25.6369 2.33845 25.595 2.32484C25.5532 2.31122 25.4366 2.32484 25.3589 2.27945C25.2812 2.23407 25.323 2.27945 25.2812 2.27945C25.2576 2.28868 25.233 2.28868 25.2094 2.27945C25.1825 2.27945 25.1168 2.24768 25.1018 2.20684C25.0869 2.16599 25.1646 2.12969 25.1616 2.07069C25.1586 2.01169 25.1347 2.04346 25.1257 2.02076C25.1198 1.99427 25.1198 1.96556 25.1257 1.93907C25.1257 1.89823 25.1437 1.88915 25.1257 1.8483C25.1098 1.832 25.0928 1.81831 25.0749 1.80746C25.0211 1.74846 24.9464 1.71215 24.9165 1.62138C24.8866 1.53061 24.8806 1.53061 24.8597 1.48069C24.8388 1.43077 24.8358 1.38538 24.779 1.36723C24.7222 1.34908 24.7222 1.33546 24.7072 1.26285C24.6923 1.19023 24.6116 1.17662 24.5578 1.16754C24.5243 1.15619 24.4896 1.15619 24.4562 1.16754C24.4322 1.16754 24.4053 1.19931 24.3814 1.16754C24.3067 1.11308 24.4442 1.0087 24.4741 0.995081C24.504 0.981465 24.5608 0.995081 24.6026 0.958773C24.6445 0.922466 24.6385 0.858928 24.6594 0.809005C24.6803 0.759083 24.7401 0.759083 24.7999 0.777237C24.8988 0.802628 24.9999 0.802628 25.0988 0.777237C25.1209 0.771939 25.1421 0.759972 25.1611 0.742044C25.1801 0.724115 25.1965 0.700588 25.2094 0.672853C25.2094 0.645622 25.2393 0.586623 25.2573 0.573008C25.2752 0.559393 25.2961 0.573008 25.314 0.573008C25.332 0.573008 25.3798 0.477701 25.4067 0.441393C25.4443 0.404132 25.4875 0.382244 25.5323 0.377856C25.5861 0.355164 25.6189 0.377856 25.6279 0.273472C25.6369 0.169088 25.6279 0.141858 25.5681 0.141858C25.5028 0.155482 25.4364 0.146166 25.3738 0.114628C25.3283 0.0813841 25.2772 0.0702885 25.2274 0.0828585C25.1545 0.10782 25.079 0.10782 25.0062 0.0828585C24.9823 0.0601664 24.9793 0.0238591 24.9524 0.0102439C24.9206 0.0034757 24.8884 0.0034757 24.8567 0.0102439C24.8089 0.00575953 24.761 0.00575953 24.7132 0.0102439C24.6505 0.0102439 24.5907 0.0783204 24.5279 0.0964741C24.4297 0.0235198 24.3205 -0.00900842 24.2114 0.00214155C24.1023 0.0132915 23.9971 0.0677288 23.9062 0.160012C23.8135 0.282549 23.8822 0.441394 23.8434 0.613853C23.8045 0.786313 23.942 0.849851 24.0377 0.917928C24.0377 0.958773 24.0018 0.999619 23.9958 1.03593C23.9899 1.07223 23.9958 1.15393 23.939 1.19477C23.8822 1.23562 23.8673 1.19477 23.8434 1.24016C23.8195 1.28554 23.8165 1.34908 23.7836 1.38085C23.7507 1.41262 23.685 1.35362 23.6401 1.38085C23.5958 1.44017 23.5653 1.51983 23.5534 1.60777C23.5566 1.6313 23.5616 1.65416 23.5684 1.67584C23.5765 1.70601 23.5865 1.73489 23.5983 1.76207C23.5983 1.85738 23.5803 1.97084 23.6341 2.04799C23.688 2.12515 23.7716 2.08884 23.8344 2.16599C23.8972 2.24315 23.8852 2.28399 23.9988 2.28853C24.1124 2.29307 24.2021 2.25222 24.2589 2.32938C24.3157 2.40653 24.2589 2.5336 24.2589 2.64706C24.2589 2.76053 24.3396 2.80137 24.3426 2.90122C24.3426 3.19621 24.0825 2.97383 23.9809 3.09637C23.8793 3.21891 23.9091 3.4549 23.8015 3.24614C23.7785 3.18719 23.7671 3.11947 23.7687 3.05098C23.7896 2.96475 23.8165 3.01014 23.8673 2.97383C24.0048 2.86945 23.954 2.84675 23.9091 2.70606C23.8821 2.57739 23.8349 2.46059 23.7716 2.36568C23.6999 2.28399 23.5923 2.3203 23.5116 2.2613C23.423 2.17512 23.3166 2.14121 23.2127 2.16599C23.1566 2.16438 23.1009 2.18096 23.0493 2.21461C22.9978 2.24826 22.9516 2.29822 22.9138 2.36114C22.8659 2.44284 22.8958 2.46099 22.8151 2.50184C22.7792 2.50184 22.6776 2.47914 22.6507 2.52907C22.6238 2.57899 22.6507 2.74237 22.6776 2.77868C22.7208 2.80759 22.7682 2.81856 22.8151 2.81045C22.9048 2.81045 23.1888 2.81045 22.9735 3.00106C22.9377 3.03283 22.8988 3.00106 22.857 3.05098C22.8151 3.10091 22.8061 3.16444 22.7673 3.18714C22.7284 3.20983 22.6776 3.15537 22.6388 3.15537C22.5851 3.1605 22.532 3.17419 22.4803 3.19621C22.3712 3.21886 22.2606 3.21886 22.1515 3.19621C22.0385 3.18388 21.9249 3.19457 21.8137 3.22798C21.6978 3.19752 21.5845 3.14728 21.476 3.07821C21.3756 3.08224 21.2753 3.06854 21.1771 3.03737C21.1173 3.01014 21.0724 2.95114 21.0186 2.91937C20.9648 2.8876 20.923 2.91937 20.8811 2.86945C20.7765 2.77414 20.8124 2.66976 20.6689 2.66068C20.4629 2.5948 20.2502 2.5948 20.0442 2.66068C20.0073 2.69288 19.9682 2.71875 19.9276 2.73783C19.8618 2.73783 19.8021 2.73783 19.7363 2.73783C19.6705 2.73783 19.5958 2.77414 19.5898 2.83768C19.6173 2.90816 19.6472 2.97634 19.6795 3.04191C19.7034 3.13267 19.6795 3.15083 19.7542 3.20075C19.829 3.25067 19.8798 3.20075 19.9276 3.29606C19.9586 3.35719 19.9754 3.43219 19.9754 3.50936C19.9754 3.58654 19.9586 3.66154 19.9276 3.72267C19.829 3.63644 19.8469 3.4186 19.7602 3.31875C19.6735 3.21891 19.6556 3.26429 19.6107 3.20075C19.5659 3.13721 19.6107 3.13268 19.5659 3.10091C19.5211 3.06914 19.5241 3.10091 19.4972 3.10091C19.3829 3.0573 19.2645 3.045 19.1474 3.0646L19.0936 3.03283C18.9591 3.03283 18.8246 3.03283 18.6901 3.03283C18.462 3.05613 18.2329 3.02395 18.0115 2.93752C17.9129 2.8876 17.8262 2.93752 17.8352 2.74237C17.8352 2.47914 17.1836 2.49276 17.0939 2.48822C16.6544 2.40501 16.2198 2.2715 15.7936 2.08884C15.5835 2.07072 15.373 2.07072 15.1629 2.08884C15.0314 2.08884 14.9477 1.97992 14.8311 2.08884C14.8123 2.1083 14.7961 2.13293 14.7833 2.16145C14.6906 2.31122 14.6458 2.04799 14.6248 1.97992C14.6039 1.91184 14.4066 1.85284 14.3259 1.85738C14.2452 1.86192 14.1765 1.85738 14.1436 1.97992C14.1305 2.00866 14.1214 2.04106 14.1167 2.07522C14.1017 2.46553 13.9224 2.21138 13.8507 2.16145C13.7789 2.11153 13.7371 1.84376 13.6504 1.82561C13.5361 1.80966 13.423 1.77776 13.3126 1.7303C13.3305 1.7303 13.3126 1.7303 13.2708 1.7303C13.2708 1.69854 13.2857 1.66223 13.2708 1.65315C13.2186 1.63507 13.1645 1.63507 13.1123 1.65315C13.0982 1.66215 13.0859 1.67646 13.0765 1.69473C13.0671 1.713 13.0609 1.73462 13.0585 1.75753C13.0227 1.97992 12.8493 1.75753 12.7596 1.75753C12.6469 1.74891 12.5343 1.77997 12.4308 1.8483C12.2963 1.92999 12.3202 1.99353 12.1319 2.01169C11.9572 2.07199 11.7789 2.10544 11.5998 2.11153C11.3402 2.07973 11.0793 2.07973 10.8196 2.11153C10.7165 2.10707 10.614 2.13973 10.5207 2.20684C10.3223 2.36413 10.0942 2.41224 9.87508 2.34299C9.7585 2.31576 9.65986 2.15692 9.5373 2.12515C9.41475 2.09338 9.22344 2.12515 9.07697 2.12515C8.75768 2.01297 8.43428 1.92962 8.10849 1.87553C7.611 1.81868 7.1114 1.81868 6.61391 1.87553C6.51715 1.85495 6.42324 1.81049 6.33592 1.74392C6.27766 1.68921 6.21249 1.65365 6.14462 1.63954C5.9025 1.63954 5.54679 1.81653 5.34651 1.56238C5.2957 1.49431 5.22994 1.52154 5.17015 1.53061C5.0207 1.53061 4.87124 1.53061 4.71879 1.53061C4.50058 1.53061 4.25547 1.34 4.01634 1.32639C3.86107 1.28365 3.70098 1.33586 3.57096 1.47161C3.43346 1.64407 2.97313 1.49431 2.80573 1.517C2.74329 1.53307 2.68403 1.5703 2.63236 1.62592C2.50247 1.75085 2.35266 1.81988 2.19894 1.82561C2.09462 1.81342 1.99034 1.84983 1.90002 1.92999C1.87235 1.94539 1.84539 1.96359 1.81931 1.98446C1.76686 2.01847 1.72068 2.07144 1.6848 2.13876C1.63761 2.2315 1.57809 2.30812 1.51011 2.36364C1.44213 2.41916 1.36721 2.45232 1.29023 2.46099C0.991319 2.51091 0.665502 2.29761 0.486152 2.79229C0.375554 3.09183 0.686426 3.1826 0.808981 3.13268C1.00073 3.12324 1.18839 3.21821 1.33806 3.40044C1.37393 3.49121 1.37692 3.54567 1.45763 3.57744C1.61963 3.63126 1.76863 3.75222 1.88806 3.9269C1.83259 3.96308 1.7712 3.97291 1.71197 3.95509C1.65274 3.93726 1.59846 3.89263 1.55627 3.82705C1.53114 3.77075 1.49585 3.72663 1.45464 3.69998C1.31713 3.65899 1.17497 3.67307 1.04213 3.74082C0.84784 3.81344 0.647567 3.74082 0.462239 3.85882C0.35463 3.91328 0.118487 3.97682 0.0437581 4.13567C-0.0907537 4.41705 0.112509 4.48966 0.279901 4.43066C0.56387 4.33536 0.504088 4.7302 0.629632 4.91174C0.668491 4.9662 0.731263 4.95258 0.7761 4.95258C0.894499 4.93892 1.01341 4.93892 1.13181 4.95258H1.14974C1.21493 4.97125 1.28184 4.97125 1.34703 4.95258C1.38262 4.94285 1.41633 4.92114 1.44567 4.88904C1.62095 4.80826 1.80628 4.79116 1.98671 4.83912C2.21986 4.83912 2.24377 4.95258 2.37231 5.17496C2.37231 5.17496 2.37231 5.20673 2.37231 5.22942C2.30324 5.25803 2.23537 5.29289 2.16904 5.33381C1.90899 5.50173 2.00464 5.28389 1.83725 5.30204C1.77852 5.30115 1.72037 5.31974 1.66687 5.3565C1.34703 5.52896 1.49649 5.30204 1.29322 5.30658C1.02719 5.30658 0.871753 5.76042 0.722295 6.01911C0.63561 6.18249 0.596751 6.55918 0.773111 6.63633C0.850758 6.66133 0.922874 6.71619 0.982544 6.79566C1.04221 6.87513 1.08744 6.97655 1.11387 7.09018C1.15572 7.22179 1.41279 7.28987 1.47556 7.33071C1.47556 7.33071 1.4935 7.33071 1.50246 7.33071C1.72067 7.35794 2.21388 7.29894 2.05546 7.65748C2.04518 7.6844 2.03989 7.71504 2.04015 7.74616C2.0404 7.77727 2.0462 7.8077 2.05693 7.83422C2.06765 7.86074 2.0829 7.88236 2.10106 7.89678C2.11922 7.91121 2.13961 7.91791 2.16008 7.91617C2.32448 7.91617 2.61742 7.97063 2.75791 7.81632C2.82965 7.73917 2.97612 7.92071 3.05682 7.95701C3.15927 7.97533 3.26303 7.94855 3.35574 7.87986C3.49623 7.93886 3.48128 8.23386 3.3378 8.3337C3.19432 8.43355 3.11063 8.69678 2.8715 8.74216C2.64424 8.81911 2.42285 8.93166 2.21089 9.078C2.11823 9.12792 1.98372 9.078 1.89404 9.15969C1.76388 9.32895 1.60378 9.43628 1.43371 9.46831C1.26333 9.46831 1.18561 9.65438 1.1348 9.86769C1.13017 9.87591 1.12762 9.88637 1.12762 9.89719C1.12762 9.908 1.13017 9.91847 1.1348 9.92669C1.27977 9.98759 1.43454 9.96328 1.56823 9.85861C1.65512 9.75553 1.75809 9.6883 1.86714 9.66346C1.97724 9.64972 2.08573 9.61465 2.18997 9.55907C2.21687 9.55907 2.26171 9.52277 2.27665 9.47284C2.2916 9.42292 2.46198 9.50008 2.52475 9.47284C2.63356 9.35709 2.75094 9.26113 2.87448 9.18692C2.92231 9.18692 2.96715 9.18692 3.01199 9.15969C3.11255 9.19295 3.21751 9.17542 3.3109 9.10977C3.46036 8.94185 3.62775 8.842 3.77123 8.65593C3.91471 8.46985 3.98047 8.52432 4.09705 8.41993C4.2162 8.28718 4.3433 8.17169 4.47667 8.07501C4.63414 8.00884 4.77874 7.88583 4.89814 7.71648C4.92803 7.66202 4.99379 7.53494 4.95194 7.46233C5.09188 7.29198 5.22559 7.11017 5.35249 6.91772C5.47206 6.73618 5.48401 6.7271 5.39135 6.89502C5.372 6.92197 5.35493 6.95246 5.34054 6.98579C5.3124 7.0566 5.30082 7.13975 5.30765 7.22179C5.30765 7.40787 5.36146 7.51679 5.45412 7.53494C5.51445 7.55087 5.57613 7.55087 5.63646 7.53494C5.72207 7.52348 5.80337 7.47284 5.86962 7.38971C6.01608 7.22633 6.11174 7.3534 6.2313 7.23994C6.35087 7.12648 6.57206 7.07656 6.63484 6.91318C6.68574 6.78086 6.76642 6.68093 6.86201 6.6318C6.95481 6.6041 7.05061 6.61023 7.14155 6.64968C7.23248 6.68913 7.31596 6.76077 7.38512 6.85872C7.57941 7.19456 7.80658 7.03571 8.07561 7.10833C8.32366 7.153 8.57312 7.17724 8.8229 7.18094C9.14674 7.2473 9.46336 7.37855 9.76448 7.57125C9.90618 7.64624 10.0401 7.75169 10.162 7.8844C10.2607 7.99332 10.3115 8.1794 10.4281 8.25201C10.6881 8.41539 10.7957 8.70585 11.0259 8.91916C11.0947 8.99177 11.1843 8.87377 11.1903 8.76939C11.2654 8.87907 11.3093 9.02884 11.3129 9.18692C11.3286 9.31902 11.3703 9.44082 11.4324 9.53638C11.5161 9.65892 11.7044 9.8223 11.824 9.70884C11.8618 9.68088 11.8923 9.63455 11.9107 9.57723C11.9138 9.53652 11.9138 9.4954 11.9107 9.45469C11.9107 9.491 12.0721 9.61807 12.105 9.64984C12.23 9.77843 12.3453 9.92759 12.4487 10.0946C12.5653 10.2761 12.5922 10.5121 12.7058 10.6891C12.8194 10.8661 13.0047 10.8434 13.0944 10.9524C13.1841 11.0613 13.2648 11.2474 13.3784 11.3517C13.4106 11.3816 13.4372 11.4236 13.4555 11.4737C13.4739 11.5239 13.4833 11.5803 13.483 11.6377C13.4526 11.6242 13.4206 11.6217 13.3894 11.6304C13.3583 11.6391 13.3289 11.6586 13.3036 11.6876C13.2289 11.792 13.3036 11.969 13.3485 12.0597C13.4265 12.1904 13.5197 12.2981 13.6235 12.3774C13.7928 12.441 13.9595 12.5198 14.1227 12.6134C14.2572 12.7405 14.2333 12.8767 14.4216 12.9357L14.4634 12.9856C14.4642 13.0366 14.4703 13.0871 14.4814 13.1353C14.5625 13.3627 14.5889 13.6259 14.5561 13.8796C14.5243 14.2304 14.5044 14.5833 14.4963 14.9371C14.4724 15.3138 14.4216 15.6859 14.4066 16.0581C14.3917 16.4302 14.5023 16.7525 14.5083 17.1155C14.5094 17.2507 14.531 17.3836 14.5715 17.504C14.6119 17.6244 14.6701 17.7291 14.7414 17.8099C14.9143 18.1103 15.0675 18.4356 15.1988 18.7811C15.42 19.235 15.5664 19.7251 15.9072 19.8704C15.9575 19.9184 16.0105 19.9594 16.0656 19.9929C16.1989 20.0375 16.3276 20.1092 16.4482 20.2062C16.5789 20.3982 16.6916 20.6165 16.783 20.8552C16.8577 21.0095 16.9474 21.1366 17.0251 21.2863C17.0985 21.4771 17.1491 21.6861 17.1746 21.9036C17.2017 22.0573 17.2505 22.2002 17.3176 22.3224C17.3847 22.4447 17.4685 22.5433 17.5632 22.6116C17.8621 22.8566 17.605 23.2106 17.7156 23.5192C17.8262 23.8279 18.0414 23.7598 18.1999 23.9141C18.4211 24.1365 18.4241 24.6902 18.5974 24.9897C18.7657 25.235 18.9709 25.4142 19.1953 25.5116C19.203 25.5119 19.2106 25.5091 19.2174 25.5035C19.2242 25.4979 19.23 25.4898 19.2341 25.4798L19.258 25.439C19.258 25.439 19.276 25.3936 19.258 25.3755C19.1803 25.0895 18.98 24.8808 18.8694 24.6266C18.7588 24.3725 18.6602 23.964 18.5287 23.6463C18.3972 23.3286 18.3045 22.9928 18.161 22.6933C18.0175 22.3937 17.611 21.9716 17.6588 21.5133C17.7222 21.5199 17.7851 21.5335 17.8471 21.5541C17.8847 21.5551 17.9214 21.5376 17.9518 21.5042C18.0282 21.5723 18.0943 21.664 18.1458 21.7735C18.1973 21.883 18.233 22.0077 18.2507 22.1396C18.3028 22.3527 18.3832 22.5473 18.4868 22.7114C18.7857 23.2197 19.1803 23.4376 19.3148 24.1274C19.3507 24.318 19.6137 24.4269 19.7004 24.5449C19.8329 24.7576 19.952 24.9885 20.0561 25.2348C20.2086 25.4935 20.4298 25.5933 20.5374 25.9246C20.6002 26.1243 20.6599 26.029 20.6958 26.3013C20.6958 26.3512 20.6958 26.4011 20.6958 26.4511C20.651 26.6598 20.5613 26.9503 20.645 27.1409C20.6786 27.1939 20.7227 27.229 20.7705 27.2407C20.9059 27.3243 21.0296 27.446 21.1352 27.5993C21.3337 27.8218 21.5548 27.9935 21.7898 28.1076C22.0589 28.2483 22.298 28.5024 22.573 28.634C22.6866 28.684 22.8061 28.7203 22.9227 28.7657C23.0393 28.811 23.1439 28.9063 23.2575 28.9563C23.522 29.062 23.7987 29.0775 24.0676 29.0017C24.2116 28.9927 24.3553 29.0315 24.4884 29.1153C24.6216 29.1992 24.7412 29.3261 24.8388 29.4873C24.9322 29.6298 25.039 29.7506 25.1556 29.8458C25.2931 29.9593 25.4336 30.0455 25.5651 30.1771C25.7432 30.3642 25.9482 30.484 26.163 30.5266C26.4272 30.6336 26.6671 30.8486 26.8564 31.1483C26.922 31.269 26.9819 31.3963 27.0358 31.5296C27.1267 31.6908 27.1939 31.8795 27.2331 32.0832C27.251 32.1785 27.3706 32.2466 27.4274 32.2829C27.5469 32.3601 27.6546 32.4599 27.7711 32.5462C27.9774 32.705 28.2075 32.8139 28.4198 33L28.4347 32.9864ZM29.4451 15.1141C29.4644 15.0932 29.4864 15.0787 29.5096 15.0712C29.5329 15.0638 29.5569 15.0637 29.5801 15.0709C29.6034 15.0782 29.6254 15.0926 29.6449 15.1133C29.6643 15.134 29.6807 15.1605 29.6932 15.1913C29.7171 15.2412 29.6932 15.3002 29.6573 15.3229C29.6273 15.3433 29.594 15.3499 29.5616 15.3418C29.5292 15.3338 29.4991 15.3114 29.4749 15.2775C29.4735 15.2701 29.4735 15.2622 29.4749 15.2548C29.4648 15.2528 29.4553 15.2465 29.4474 15.2366C29.4396 15.2267 29.4337 15.2136 29.4306 15.1988C29.4275 15.1841 29.4272 15.1683 29.4297 15.1533C29.4323 15.1383 29.4376 15.1247 29.4451 15.1141ZM29.1222 15.8402C29.0445 16.108 28.8233 15.9038 28.6948 16.0808C28.64 16.1935 28.5669 16.2826 28.4825 16.3395C28.4229 16.3494 28.3628 16.3494 28.3032 16.3395C28.2543 16.3528 28.2063 16.3725 28.1597 16.3985C28.1268 16.3985 28.094 16.3667 28.091 16.3213H28.073C28.0611 16.3098 28.0509 16.2946 28.0431 16.2765C28.0354 16.2585 28.0303 16.2382 28.0282 16.2169C28.0258 16.1992 28.0268 16.1809 28.0311 16.164C28.0353 16.1471 28.0426 16.1324 28.0521 16.1216C28.1021 16.0841 28.1589 16.0729 28.2135 16.0899C28.2742 16.0972 28.3351 16.0848 28.3923 16.0535C28.4495 16.0222 28.5017 15.9727 28.5453 15.9083C28.7076 15.7756 28.8903 15.7114 29.0744 15.7222C29.0835 15.7223 29.0925 15.726 29.1004 15.7328C29.1084 15.7396 29.1151 15.7493 29.1199 15.7611C29.1246 15.7729 29.1274 15.7864 29.1278 15.8002C29.1282 15.8141 29.1263 15.8278 29.1222 15.8402ZM28.5423 13.9976C28.5462 13.9901 28.5512 13.984 28.5569 13.9798C28.5626 13.9756 28.5689 13.9734 28.5752 13.9734C28.5815 13.9734 28.5878 13.9756 28.5935 13.9798C28.5992 13.984 28.6042 13.9901 28.6081 13.9976C28.6621 14.0106 28.7136 14.0413 28.7591 14.0875C28.8045 14.1338 28.8427 14.1945 28.8711 14.2654C28.901 14.3743 28.9279 14.5786 28.8143 14.5967C28.7008 14.6149 28.6469 14.447 28.5931 14.3607C28.5651 14.3163 28.54 14.2676 28.5184 14.2155C28.5066 14.1801 28.5025 14.1398 28.5068 14.1006C28.5111 14.0614 28.5235 14.0253 28.5423 13.9976ZM27.8309 14.034C27.8554 14.0148 27.8826 14.0049 27.9101 14.0049C27.9377 14.0049 27.9648 14.0148 27.9893 14.034C27.9975 14.0323 28.0057 14.0335 28.0135 14.0374C28.0213 14.0414 28.0283 14.0479 28.0342 14.0566C28.1388 14.2064 28.3002 14.22 28.4018 14.3743C28.4377 14.4268 28.4618 14.4951 28.4706 14.5695C28.4706 14.5967 28.4377 14.7193 28.4287 14.6966C28.5453 14.9779 28.5393 15.4726 28.2673 15.4454C28.2515 15.4454 28.2363 15.4358 28.2251 15.4188C28.2138 15.4018 28.2075 15.3787 28.2075 15.3546C28.1982 15.2639 28.1842 15.1743 28.1657 15.0869C28.0611 15.1096 27.9624 15.1141 27.8967 14.9507C27.8856 14.9113 27.8799 14.8688 27.8799 14.8259C27.8799 14.783 27.8856 14.7406 27.8967 14.7011C27.8967 14.6512 27.9594 14.4923 27.9236 14.4515L27.8578 14.3743C27.798 14.2881 27.7323 14.1202 27.8309 14.034ZM26.8714 14.8645C26.8714 15.1368 26.9252 15.4136 26.9162 15.6814C26.9109 15.7801 26.8919 15.876 26.8605 15.9629C26.8291 16.0497 26.7859 16.1254 26.7339 16.1852C26.7227 16.2018 26.7077 16.2111 26.692 16.2111C26.6764 16.2111 26.6614 16.2018 26.6502 16.1852C26.5456 16.0581 26.4649 15.9673 26.4469 15.7631C26.429 15.5589 26.5844 15.4817 26.5725 15.2684C26.5468 15.0465 26.5591 14.8183 26.6083 14.6058C26.6418 14.5166 26.6963 14.4501 26.7608 14.4197C26.8046 14.3433 26.8651 14.2934 26.9312 14.279C27.0567 14.279 27.1285 14.1383 27.2301 14.1293C27.2402 14.1286 27.2502 14.132 27.2592 14.1392C27.2681 14.1464 27.2756 14.157 27.2809 14.1701C27.4543 14.6013 26.8744 14.4878 26.8714 14.8645ZM26.1779 12.0416C26.1832 12.0328 26.1897 12.0258 26.1969 12.0209C26.2041 12.0161 26.2119 12.0137 26.2198 12.0137C26.2276 12.0137 26.2354 12.0161 26.2426 12.0209C26.2498 12.0258 26.2563 12.0328 26.2616 12.0416C26.2693 12.0559 26.2763 12.0711 26.2825 12.087C26.2935 12.1039 26.2996 12.1268 26.2996 12.1505C26.2996 12.1743 26.2935 12.1971 26.2825 12.214C26.2694 12.2319 26.2542 12.2458 26.2377 12.2549H26.2138C26.2054 12.2653 26.1952 12.2718 26.1845 12.2737C26.1738 12.2756 26.1629 12.2728 26.1532 12.2657C26.1434 12.2585 26.1353 12.2473 26.1296 12.2333C26.1239 12.2194 26.121 12.2032 26.1211 12.1868C26.1267 12.129 26.1471 12.0768 26.1779 12.0416ZM25.3798 13.4031C25.4897 13.2739 25.6212 13.1937 25.7594 13.1717C25.9397 13.1314 26.1053 12.9984 26.2287 12.795C26.417 12.5272 26.5635 12.7178 26.7847 12.795C26.8648 12.8049 26.9415 12.8489 27.0059 12.922C27.0717 13.0173 26.988 13.1807 27.1464 13.1898C27.3048 13.1989 27.3556 13.2261 27.3885 13.3713C27.3904 13.4076 27.3904 13.444 27.3885 13.4803C27.3887 13.4949 27.3864 13.5094 27.3816 13.5222C27.3769 13.5349 27.37 13.5456 27.3616 13.5529C27.3285 13.611 27.283 13.6496 27.2331 13.6618C27.0474 13.7158 26.8568 13.7158 26.6711 13.6618C26.5663 13.5929 26.4718 13.4925 26.3931 13.3668C26.2018 13.1172 26.0763 13.4394 25.9418 13.5574C25.8533 13.6271 25.7537 13.6577 25.6544 13.6457C25.555 13.6336 25.4599 13.5795 25.3798 13.4893C25.3742 13.4757 25.3713 13.46 25.3713 13.444C25.3713 13.4279 25.3742 13.4122 25.3798 13.3986V13.4031ZM22.032 5.55619C22.0219 5.5787 22.0089 5.59777 21.9937 5.61218C21.9785 5.62659 21.9615 5.63602 21.9438 5.63986C21.926 5.64371 21.908 5.64188 21.8907 5.63451C21.8735 5.62713 21.8574 5.61437 21.8436 5.59704C21.8355 5.59597 21.8277 5.59197 21.8208 5.58535C21.814 5.57874 21.8082 5.56972 21.8041 5.55904C21.8 5.54837 21.7977 5.53635 21.7973 5.52401C21.7969 5.51167 21.7984 5.49936 21.8018 5.48811C21.8066 5.4477 21.8198 5.41071 21.8395 5.38264C21.8593 5.35458 21.8845 5.33694 21.9113 5.33235C21.9382 5.32775 21.9653 5.33646 21.9887 5.35717C22.012 5.37788 22.0304 5.40948 22.0409 5.44727C22.0486 5.46387 22.0519 5.48422 22.0503 5.50436C22.0486 5.52449 22.0421 5.54297 22.032 5.55619Z" fill="#002F8B"/>
</svg>
