<svg width="13" height="22" viewBox="0 0 13 22" fill="none" xmlns="http://www.w3.org/2000/svg">
<path d="M3.79288 7.4764C3.18768 7.75078 2.64136 7.98926 2.10883 8.25466C2.03616 8.29184 1.99982 8.47006 1.99731 8.58289C1.98478 9.32397 1.99731 10.065 1.98103 10.8061C1.97471 11.0186 1.90173 11.2233 1.77287 11.39C1.64402 11.5567 1.46614 11.6766 1.26556 11.7318C1.05856 11.7895 0.838872 11.7768 0.639553 11.6956C0.440234 11.6144 0.272077 11.4692 0.160399 11.2818C0.0691791 11.1164 0.0192533 10.9306 0.0150495 10.7407C1.33873e-05 9.89709 -0.0100107 9.05344 0.0163025 8.21107C0.0438688 7.30716 0.526278 6.65198 1.31192 6.30581C2.62758 5.725 3.96956 5.20316 5.30777 4.67749C6.20744 4.3249 6.9843 4.54927 7.56319 5.34163C7.97524 5.90377 8.35834 6.48751 8.71095 7.09048C9.45148 8.37262 10.5604 9.08934 11.9362 9.45218C12.1776 9.50809 12.4072 9.60798 12.6141 9.74707C12.8027 9.89052 12.9343 10.099 12.9845 10.3339C13.0347 10.5688 13.0002 10.8145 12.8872 11.0254C12.6805 11.4536 12.2845 11.6331 11.7971 11.5382C10.2746 11.2463 8.88684 10.4535 7.84512 9.28038C7.78301 9.20037 7.72847 9.11451 7.68223 9.02395L7.58825 9.08293C7.39905 10.042 7.20609 11.0061 7.03066 11.9639C7.01563 12.046 7.10209 12.169 7.17226 12.2421C7.59076 12.6819 8.01678 13.114 8.44281 13.5448C8.6562 13.7516 8.82487 14.0018 8.93796 14.2794C9.05104 14.557 9.10604 14.8558 9.09939 15.1564C9.08811 17.0489 9.09939 18.94 9.09939 20.8325C9.09939 21.5197 8.70093 21.9864 8.12204 21.9954C7.52185 21.9954 7.09206 21.53 7.08956 20.835C7.08956 19.276 7.08956 17.7156 7.07703 16.1565C7.06611 15.9637 6.98732 15.7816 6.85524 15.6436C6.22874 15.0359 5.58845 14.4551 4.90806 13.8243C4.74893 14.5461 4.59857 15.2141 4.45322 15.8834C4.07731 17.6374 3.70141 19.3939 3.31423 21.1479C3.17515 21.789 2.66266 22.1018 2.00734 21.9749C1.44098 21.8646 1.10266 21.3864 1.21669 20.7491C1.45977 19.3824 1.73669 18.0207 2.00358 16.6578C2.4413 14.4201 2.87944 12.1827 3.31799 9.94581C3.4696 9.14575 3.62372 8.34826 3.79288 7.4764Z" fill="#B5B5C2"/>
<path d="M7.48515 4.08362C7.2227 4.08381 6.96283 4.03073 6.72056 3.92746C6.4783 3.82419 6.25846 3.67279 6.07376 3.482C5.88905 3.29122 5.74317 3.06485 5.64453 2.81599C5.5459 2.56713 5.49647 2.30073 5.49912 2.0322C5.50668 1.49142 5.72161 0.97533 6.09757 0.595188C6.47353 0.215045 6.98041 0.00129005 7.50896 0C7.77122 0.00167067 8.03057 0.0563769 8.27209 0.160973C8.51362 0.265568 8.73256 0.41799 8.91631 0.609471C9.10006 0.800953 9.24501 1.02772 9.34282 1.27672C9.44062 1.52573 9.48935 1.79206 9.48621 2.0604C9.4881 2.3287 9.43745 2.59466 9.33726 2.8426C9.23706 3.09054 9.08935 3.31543 8.90284 3.50401C8.71633 3.69259 8.49479 3.84103 8.2513 3.94058C8.00781 4.04013 7.74731 4.08877 7.48515 4.08362Z" fill="#B5B5C2"/>
</svg>
