<svg width="24" height="24" viewBox="0 0 24 24" fill="none" xmlns="http://www.w3.org/2000/svg">
<path d="M6.13598 16.5044C5.83584 16.5044 5.60095 16.5115 5.36606 16.5044C4.59376 16.4712 4.01246 15.9053 4.0089 15.1437C3.99703 12.9561 3.99703 10.7693 4.0089 8.58327C4.01246 7.75996 4.58071 7.21188 5.40165 7.19527C5.62468 7.18815 5.8477 7.19527 6.13124 7.19527C6.13124 7.00665 6.13124 6.84649 6.13124 6.68752C6.13124 6.29841 6.13124 5.90811 6.13124 5.5178C6.1514 4.56044 6.72915 3.99219 7.67821 3.99219C10.2881 3.99219 12.9 3.99219 15.5139 3.99219C15.8093 3.99219 16.1071 3.99219 16.4001 3.99219C17.2222 4.0088 17.8118 4.57349 17.8379 5.39205C17.8569 5.9698 17.8379 6.54754 17.8379 7.18459C18.0894 7.18459 18.3124 7.18459 18.5272 7.18459C19.3944 7.20002 19.9875 7.7659 19.9923 8.62954C20.0026 10.7807 20.0026 12.932 19.9923 15.0832C19.9923 15.9041 19.3991 16.4807 18.5794 16.5068C18.3587 16.5068 18.1369 16.5068 17.8676 16.5068V18.2008C17.8676 19.3872 17.291 19.9613 16.0999 19.9613H7.91547C6.70542 19.9613 6.13598 19.3895 6.13598 18.1819C6.13598 17.635 6.13598 17.0916 6.13598 16.5044ZM16.7809 11.2145H7.20368V11.6298C7.20368 13.8142 7.20368 15.9994 7.20368 18.1854C7.20368 18.7786 7.31045 18.8889 7.90717 18.8889H16.0608C16.6753 18.8889 16.7726 18.7869 16.7726 18.1629V11.2145H16.7809ZM16.7809 7.17273C16.7809 6.65431 16.7809 6.17147 16.7809 5.68864C16.7809 5.1275 16.7157 5.06344 16.1427 5.06344H7.80396C7.71024 5.06344 7.59517 5.03616 7.52517 5.07886C7.40654 5.15123 7.23215 5.2663 7.22622 5.36951C7.19775 5.96268 7.21317 6.56296 7.21317 7.17392L16.7809 7.17273Z" fill="white"/>
<path d="M11.9881 12.5043C12.9443 12.5043 13.9004 12.4877 14.8554 12.5197C14.9615 12.5331 15.0637 12.5683 15.1555 12.623C15.2474 12.6777 15.327 12.7508 15.3893 12.8377C15.4652 12.948 15.4166 13.2149 15.3276 13.3466C15.2722 13.4118 15.2038 13.4647 15.1268 13.5018C15.0498 13.539 14.9658 13.5597 14.8804 13.5625C12.9573 13.5767 11.0331 13.5756 9.11006 13.5696C9.03609 13.5748 8.96184 13.5648 8.89192 13.5401C8.822 13.5154 8.75791 13.4766 8.70362 13.4261C8.64933 13.3756 8.606 13.3144 8.57633 13.2465C8.54666 13.1785 8.53127 13.1052 8.53113 13.031C8.53113 12.7345 8.77551 12.509 9.12429 12.5067C10.0769 12.4996 11.0319 12.5043 11.9881 12.5043Z" fill="white"/>
<path d="M12.0012 14.5064C12.9241 14.5064 13.8471 14.5064 14.7689 14.5064C15.2031 14.5064 15.4629 14.7164 15.4522 15.0497C15.4415 15.3831 15.1912 15.5705 14.7784 15.5705C12.9222 15.5705 11.0655 15.5705 9.20855 15.5705C8.7791 15.5705 8.51574 15.3522 8.52523 15.0224C8.53472 14.6926 8.78029 14.5076 9.19906 14.5064C10.1327 14.5052 11.0675 14.5064 12.0012 14.5064Z" fill="white"/>
<path d="M10.5254 16.5046C10.9857 16.5046 11.4472 16.5046 11.9075 16.5046C12.2765 16.5046 12.5007 16.7051 12.5114 17.0112C12.522 17.3172 12.2812 17.564 11.9111 17.5664C10.9786 17.5735 10.0454 17.5735 9.11134 17.5664C8.76493 17.5664 8.5241 17.3291 8.51817 17.0337C8.51224 16.7383 8.75544 16.5105 9.10422 16.5046C9.58468 16.4987 10.0568 16.5046 10.5254 16.5046Z" fill="white"/>
</svg>
