<svg width="24" height="24" viewBox="0 0 24 24" fill="none" xmlns="http://www.w3.org/2000/svg">
<path d="M19.7045 17.1455H4.28822C4.28822 17.3602 4.29681 17.5549 4.28822 17.7496C4.28955 17.8352 4.27389 17.9203 4.24217 17.9998C4.21044 18.0794 4.16327 18.1519 4.10337 18.2131C4.04348 18.2743 3.97205 18.3231 3.89321 18.3565C3.81437 18.39 3.72968 18.4075 3.64403 18.4081C3.47772 18.4077 3.31831 18.3416 3.20057 18.2241C3.08284 18.1066 3.01634 17.9474 3.01558 17.7811C3.00556 16.2064 2.9798 14.6431 3.0299 13.077C3.05996 12.1337 3.88882 11.4064 4.84509 11.3592C5.1314 11.342 5.41771 11.3592 5.70401 11.3592H18.7095C20.2599 11.3592 21 12.0879 21 13.6268C21 14.9524 21 16.278 21 17.6036C21 18.1232 20.7438 18.4339 20.3386 18.421C19.9335 18.4081 19.7216 18.1132 19.7159 17.6093C19.703 17.4518 19.7045 17.3158 19.7045 17.1455Z" fill="#3968BF"/>
<path d="M19.0663 10.0467H17.1365C17.1365 9.85634 17.1365 9.68742 17.1365 9.51993C17.1251 8.68391 16.6069 8.15424 15.7794 8.14279C15.194 8.1342 14.6099 8.14279 14.0258 8.14279C13.1869 8.15138 12.6701 8.66244 12.6501 9.50132C12.6501 9.66881 12.6501 9.83773 12.6501 10.0739H11.3617C11.3617 9.85491 11.3617 9.66308 11.3617 9.47125C11.3417 8.68677 10.8206 8.1614 10.0361 8.14851C9.45205 8.13849 8.86798 8.14851 8.28248 8.14851C7.39207 8.14851 6.87958 8.66673 6.87099 9.55858C6.87099 9.71318 6.87099 9.86922 6.87099 10.051H4.97563C4.95514 9.94226 4.94175 9.83228 4.93555 9.72177C4.93555 8.60995 4.93555 7.49812 4.93555 6.38629C4.93841 5.78361 5.15744 5.57031 5.77157 5.57031H18.2259C18.8558 5.57031 19.0706 5.78361 19.0734 6.41921C19.0706 7.61598 19.0663 8.80988 19.0663 10.0467Z" fill="#3968BF"/>
</svg>
