<svg width="24" height="37" viewBox="0 0 24 37" fill="none" xmlns="http://www.w3.org/2000/svg">
<path d="M23.9114 10.2463C23.8997 10.0679 23.8716 9.89113 23.8274 9.71859C23.821 9.66355 23.8068 9.60986 23.7855 9.55928C23.7388 9.4597 23.5196 9.42983 23.4357 9.40493C23.2995 9.38482 23.1614 9.38482 23.0253 9.40493C22.8802 9.40842 22.7355 9.38827 22.5962 9.34519C22.5758 9.27699 22.5509 9.21043 22.5216 9.14605C22.4371 9.01301 22.3168 8.91055 22.1764 8.85231L22.0832 8.81248C22.0572 8.7684 22.024 8.72962 21.9852 8.69797C21.8881 8.60237 21.78 8.52039 21.6634 8.45402C21.5488 8.42173 21.4283 8.42173 21.3136 8.45402C21.2703 8.45946 21.2264 8.45946 21.1831 8.45402C21.0887 8.40436 20.9882 8.36916 20.8846 8.34946C20.7279 8.33924 20.5721 8.31761 20.4182 8.28474L20.1104 8.2001C20.0218 8.2001 19.9378 8.12044 19.8632 8.10551C19.7886 8.09057 19.588 8.19015 19.4668 8.14036C19.3455 8.09058 19.3129 7.99598 19.2382 7.95117C19.1636 7.90636 19.0797 7.90138 19.0051 7.82173C18.9304 7.74207 18.9258 7.66241 18.8698 7.59769C18.6142 7.40358 18.3349 7.24779 18.0396 7.13467C17.9883 7.10978 17.9837 7.06995 17.9277 7.05004C17.8348 7.04411 17.7416 7.05591 17.6525 7.08489C17.5546 7.08489 17.4613 7.14961 17.3774 7.08489C17.2934 7.02016 17.3307 6.83596 17.2981 6.71149C17.2663 6.58196 17.2143 6.45909 17.1442 6.34805C17.0789 6.24349 16.9483 6.19869 16.8877 6.09911C16.827 5.99954 16.8877 5.95971 16.841 5.90495C16.7964 5.82269 16.7415 5.74732 16.6778 5.68091C16.5472 5.52159 16.4726 5.30253 16.2627 5.25274C16.0529 5.20296 15.9503 5.25274 15.7963 5.17308C15.6424 5.09343 15.6798 4.959 15.6238 4.80965C15.6008 4.65176 15.5633 4.49667 15.5119 4.34663C15.4139 4.17736 15.1574 4.13753 15.0175 4.01804C14.8637 3.88649 14.6981 3.77143 14.5231 3.67451C14.3412 3.57494 14.2853 3.62473 14.1034 3.60979C13.9215 3.59485 13.693 3.41064 13.4738 3.38077C13.305 3.36534 13.1351 3.38738 12.9747 3.4455C12.8442 3.49528 12.7929 3.56996 12.6483 3.51022C12.5449 3.46134 12.4464 3.40129 12.3544 3.33099C12.2332 3.23639 12.2752 3.20652 12.2052 3.07707C12.1257 2.96871 12.0234 2.88175 11.9067 2.82317C11.7435 2.71364 11.6829 2.49955 11.529 2.40994C11.3751 2.32032 11.403 2.37509 11.3237 2.28049C11.2918 2.2218 11.2543 2.16674 11.2118 2.11619C11.0906 2.0216 10.9506 2.1162 10.8294 2.06641C10.6288 2.0216 10.7175 1.85731 10.6522 1.70297C10.5869 1.54863 10.4423 1.48391 10.4749 1.35944C10.5076 1.23498 10.6009 1.29472 10.6009 1.23C10.6009 1.16527 10.5496 1.18519 10.5216 1.1354C10.4936 1.08561 10.4516 0.996001 10.3956 0.971108C10.2138 0.876514 10.2184 1.13042 10.0925 1.21008H10.0645C9.99991 1.22047 9.93388 1.20931 9.87544 1.17812C9.81701 1.14693 9.76902 1.09723 9.73805 1.03583C9.63544 0.871534 9.63079 0.866556 9.43024 0.896427C9.2297 0.926299 9.15041 0.981063 9.00116 1.01591C8.85192 1.05076 8.87058 1.01592 8.78663 1.06072C8.70268 1.10553 8.70268 1.18021 8.63273 1.21506C8.3529 1.36442 8.11038 1.14038 7.87719 1.03583C7.644 0.931277 7.22891 1.29472 6.99106 1.03583C6.90245 0.931277 6.86047 0.776939 6.74388 0.697281C6.62728 0.617622 6.38477 0.657452 6.23086 0.537964C6.07695 0.418477 5.99767 0.19444 5.8391 0.174525C5.68053 0.15461 5.62923 0.328861 5.60124 0.483199C5.57326 0.637537 5.51263 0.707238 5.35872 0.766982C5.20482 0.826725 5.02293 0.876514 5.03226 0.687325C5.04159 0.498136 5.27478 0.498135 5.2981 0.378648C5.32141 0.25916 5.12554 -0.0096881 5.01827 0.000269202C4.911 0.0102265 4.75243 0.358732 4.61718 0.428433C4.48193 0.498134 4.35601 0.388604 4.20676 0.428433C4.05752 0.468262 4.01088 0.55788 3.91761 0.597709C3.76477 0.6497 3.609 0.691273 3.45123 0.722176C3.3253 0.762005 3.21337 0.781917 3.14341 0.906383C3.07345 1.03085 3.14341 1.0906 3.07812 1.17025C3.01282 1.24991 2.95686 1.28974 2.91022 1.34948C2.86358 1.40923 2.87291 1.4391 2.80762 1.49884C2.74233 1.55859 2.67237 1.60339 2.62573 1.72288C2.60464 1.7987 2.57652 1.87208 2.54178 1.94194C2.43451 2.11122 2.26195 2.25062 2.0754 2.12615C1.88885 2.00169 1.87019 1.78263 1.71628 1.68305C1.56238 1.58348 1.42713 1.65318 1.2499 1.68305C1.04957 1.67545 0.849115 1.69384 0.652935 1.73782C0.570264 1.78627 0.498323 1.85314 0.441994 1.93389C0.385664 2.01464 0.346266 2.10738 0.326469 2.20581L0.195879 2.14109C0.138771 2.25121 0.0732567 2.35612 0 2.45474C0.0994948 2.51449 0.197437 2.57921 0.293823 2.64891C0.322891 2.66683 0.355863 2.67626 0.389428 2.67626C0.422994 2.67626 0.455969 2.66683 0.485037 2.64891C0.529532 2.62594 0.568092 2.5917 0.597356 2.54918C0.626619 2.50666 0.645699 2.45715 0.652935 2.40496C0.694909 2.04649 0.839489 2.13611 1.04003 2.01164C1.0926 1.98241 1.15099 1.96715 1.21026 1.96715C1.26953 1.96715 1.32792 1.98241 1.38049 2.01164C1.581 2.29739 1.73837 2.61489 1.84687 2.95261C1.92149 3.16669 2.01011 3.15673 1.94948 3.48532C1.91881 3.64413 1.94022 3.80936 2.01011 3.95332C2.0937 4.17516 2.10166 4.42129 2.03262 4.64877C1.96358 4.87624 1.82191 5.07062 1.63234 5.19798C1.54627 5.25689 1.48073 5.34435 1.44578 5.44691C1.3152 5.72572 1.31053 5.90993 1.02604 6.08916C0.903158 6.16158 0.795278 6.25981 0.708902 6.37792C0.548626 6.70303 0.44138 7.05491 0.391762 7.41846C0.312478 7.70722 0.121261 8.00594 0.391762 8.24989C0.44551 8.28232 0.496948 8.31893 0.545666 8.35942C0.932763 8.64818 0.298486 8.82741 0.209874 8.92699C0.121261 9.02656 0.0932755 9.03154 0.079284 9.1112C0.0585981 9.24805 0.06898 9.3882 0.109557 9.51989C0.150135 9.65157 0.219722 9.77093 0.312475 9.86795C0.401087 10.1119 0.643606 10.2115 0.778857 10.4455C0.857476 10.6125 0.919982 10.7877 0.96541 10.9682C1.04648 11.187 1.1497 11.3957 1.27322 11.5906C1.4691 11.959 1.67431 12.3125 1.87486 12.6759C2.0754 13.0393 2.31326 13.582 2.59308 13.9853C3.01283 14.5827 3.27867 15.3544 3.99223 15.6631C4.31403 15.8025 4.62651 15.9718 4.92499 16.1211C5.28158 16.3052 5.57753 16.6003 5.77381 16.9675C5.95103 17.6247 5.74582 18.3317 5.67586 19.0237C5.57792 19.9746 5.5173 20.9305 5.39137 21.8814C5.28877 22.688 4.98096 23.4099 5.04159 24.2413C5.06957 24.5799 5.04159 24.9084 5.04159 25.237C5.03382 25.4336 5.00725 25.6288 4.9623 25.8195C4.92954 25.9031 4.88204 25.9792 4.82239 26.0436C4.6485 26.2806 4.49254 26.532 4.35601 26.7954C4.18274 27.0957 4.08476 27.4386 4.07151 27.7911C4.0495 27.8711 4.03236 27.9526 4.02021 28.035C3.95025 28.5777 3.86164 29.1104 3.77769 29.6531C3.69322 29.9772 3.67729 30.3173 3.73105 30.6488C3.73105 30.6737 3.75904 30.6787 3.77769 30.6787C4.02487 30.6787 4.16013 30.3252 4.28605 30.0116C4.28605 30.0862 4.32336 30.1609 4.34202 30.2256C4.30471 30.4447 4.24874 30.6936 4.16012 30.7235C4.10626 30.7548 4.05745 30.7952 4.01555 30.843C3.7637 30.8978 3.70307 31.4454 3.62845 31.6097C3.50719 31.8885 3.26467 32.0279 3.25535 32.3416C3.24602 32.6552 3.72173 32.6702 3.25535 32.9788C3.20059 33.0108 3.15458 33.0575 3.12187 33.1142C3.08915 33.171 3.07086 33.2359 3.06879 33.3024C3.03773 33.5713 3.05836 33.844 3.12942 34.104C3.25534 34.3729 3.5958 34.4625 3.43257 34.8259C3.34862 34.9952 3.51652 35.2342 3.59114 35.3686C3.61912 35.4184 3.6611 35.4084 3.69374 35.3686C3.72639 35.3288 3.78702 35.3686 3.815 35.3686C3.84299 35.3686 3.86631 35.4482 3.87097 35.498C3.87885 35.5595 3.90132 35.6178 3.93626 35.6673C3.97054 35.718 4.01136 35.7633 4.05752 35.8017C4.07798 35.9887 4.15492 36.1635 4.27672 36.2996C4.61718 36.6083 5.06491 36.1702 5.34007 36.7377C5.466 36.9916 5.90439 36.907 6.10494 36.9618C6.4384 37.0464 6.78964 36.9893 7.08434 36.8024C7.40614 36.673 7.76992 36.9866 8.0684 36.8024C8.09061 36.7909 8.11038 36.7746 8.12651 36.7546C8.14263 36.7346 8.15478 36.7114 8.1622 36.6862C8.16961 36.6611 8.17215 36.6345 8.16966 36.6083C8.16717 36.5821 8.15969 36.5566 8.14769 36.5336C8.04042 36.3046 7.52274 36.3046 7.32686 36.2399C6.94909 36.1154 6.83249 35.6225 6.45006 35.4781C6.06763 35.3337 6.08628 35.4184 6.17023 35.3487C6.36267 35.2112 6.4967 34.9984 6.54333 34.7562C6.54333 34.5372 6.47804 34.1737 6.77186 34.1538C6.85492 34.155 6.93632 34.1289 7.00505 34.0791C7.14399 33.9308 7.22415 33.7312 7.22892 33.5215C7.23094 33.5117 7.23094 33.5015 7.22892 33.4916C7.28876 33.4769 7.35096 33.4769 7.4108 33.4916C7.43977 33.4973 7.46957 33.4958 7.49788 33.4871C7.5262 33.4785 7.55226 33.463 7.57404 33.4418C7.65238 33.3732 7.72424 33.2965 7.78858 33.2128C7.87162 33.121 7.9639 33.0392 8.06374 32.9689C8.11285 32.9176 8.14627 32.8516 8.15959 32.7796C8.17291 32.7076 8.16551 32.633 8.13836 32.5656C8.12903 32.5165 8.10632 32.4715 8.07307 32.4362C7.97416 32.3411 7.84696 32.2865 7.71395 32.2818C7.56087 32.2593 7.41606 32.1941 7.29421 32.0926C7.29421 31.9483 7.33618 31.8039 7.3595 31.6645C7.40049 31.6247 7.44995 31.5962 7.50359 31.5815C7.55723 31.5667 7.61343 31.5662 7.66732 31.5798C7.76621 31.5968 7.8676 31.5794 7.95647 31.5301C8.16687 31.4017 8.33103 31.2019 8.42286 30.9625C8.44864 30.8211 8.44864 30.6757 8.42286 30.5343C8.42286 30.365 8.5581 30.2904 8.61407 30.151C8.72134 29.8622 8.61407 29.5585 8.58142 29.2747C8.61407 29.1602 8.70268 29.1503 8.8939 29.2349C9.17839 29.3693 9.36028 29.2648 9.67276 29.2349C9.78451 29.2335 9.89209 29.1894 9.97591 29.1104C10.0374 28.9851 10.0602 28.8422 10.0412 28.7022C10.0602 28.6514 10.0712 28.5975 10.0738 28.5429C10.0738 28.3437 10.2744 28.1993 10.4236 28.045C10.4718 28.0486 10.5201 28.0486 10.5682 28.045C10.904 28.045 11.1652 27.811 11.501 27.7961C11.7181 27.8206 11.9367 27.7662 12.1213 27.6417C12.3311 27.4525 12.4617 27.2036 12.6949 27.0294C12.7461 26.992 12.7897 26.9442 12.8234 26.8886C12.857 26.833 12.8799 26.7709 12.8908 26.7057C12.8908 26.5066 12.7229 26.3672 12.8908 26.2079C12.984 26.1238 13.0426 26.004 13.054 25.8743C13.3935 25.7288 13.7495 25.6317 14.1127 25.5855C14.2806 25.5407 14.3925 25.2968 14.4672 25.1574C14.6826 24.8218 14.9195 24.5024 15.1761 24.2015C15.2237 24.1133 15.2658 24.0218 15.302 23.9277C15.3894 23.9288 15.4761 23.9103 15.5565 23.8734C15.6368 23.8366 15.709 23.7821 15.7684 23.7136C15.8734 23.5832 15.9627 23.4394 16.0342 23.2854C16.0948 23.1908 16.1555 23.1012 16.2068 23.0016C16.2581 22.9021 16.3047 22.7726 16.3653 22.6581C16.5799 22.2499 16.6358 22.449 16.8317 22.2648C16.885 22.2152 16.9241 22.1506 16.9448 22.0785C16.9654 22.0063 16.9666 21.9294 16.9483 21.8565C16.9109 21.5358 16.9109 21.2114 16.9483 20.8907C16.9474 20.8791 16.9474 20.8674 16.9483 20.8558C16.9978 20.7709 17.0523 20.6894 17.1115 20.6119C17.2061 20.5764 17.2944 20.5242 17.3727 20.4575C17.4061 20.416 17.4329 20.3689 17.452 20.3181C17.5919 19.9647 17.7505 20.0244 18.021 19.9497C18.2727 19.8578 18.5065 19.7178 18.7112 19.5365C18.9795 19.3612 19.2748 19.2382 19.5834 19.173C19.6627 19.173 19.7419 19.173 19.8305 19.173C19.9192 19.173 19.9891 19.2228 20.0497 19.173C20.0928 19.1523 20.131 19.1217 20.1617 19.0834C20.2819 18.9664 20.4132 18.8629 20.5534 18.7748C20.6992 18.6642 20.8086 18.5074 20.8659 18.3267C20.8879 18.2416 20.9051 18.1551 20.9172 18.0678L21.0338 17.8437C21.165 17.4707 21.3209 17.108 21.5002 16.7584C21.6352 16.5434 21.7156 16.2946 21.7334 16.0365C21.78 15.688 21.7334 15.3345 21.7894 14.986C21.8453 14.6375 21.5888 14.1695 21.8873 13.816C22.0435 13.5679 22.2116 13.3287 22.391 13.0991C22.6288 12.8601 22.8574 12.6012 23.0672 12.3224C23.445 11.8893 24 11.6951 24 11.018C23.9941 10.7583 23.9644 10.4999 23.9114 10.2463Z" fill="#002F8B"/>
</svg>
