<svg width="25" height="24" viewBox="0 0 25 24" fill="none" xmlns="http://www.w3.org/2000/svg">
<path d="M5.92163 17.8945C5.38616 17.9061 4.85428 17.8033 4.36058 17.5929C3.86689 17.3825 3.42244 17.0691 3.05614 16.6732C2.27813 15.8711 1.52752 15.0467 0.771424 14.2293C0.360504 13.7921 0.412554 13.5548 0.952229 13.2897C1.44533 13.0496 1.94529 12.8248 2.43017 12.5694C2.54739 12.4991 2.68139 12.4627 2.81759 12.4642C2.95379 12.4657 3.08699 12.505 3.2027 12.5777C3.90949 12.9705 4.63271 13.3355 5.33812 13.7296C5.45821 13.8078 5.59712 13.8513 5.73982 13.8552C5.88252 13.8591 6.02355 13.8234 6.14763 13.7519C7.34615 13.1287 8.56522 12.5264 9.77606 11.913C10.3062 11.6451 10.3377 11.3898 9.89112 10.9817C8.27483 9.50139 6.65763 8.02566 5.03952 6.55456C4.53272 6.09242 4.56559 5.83289 5.17649 5.57059C5.97642 5.23196 6.77223 4.85031 7.6653 5.05987C8.12942 5.16901 8.57944 5.33248 9.00627 5.547C10.8792 6.49072 12.7456 7.45156 14.6057 8.42952C15.1536 8.71541 15.6221 8.71958 16.1481 8.41009C17.0959 7.85496 18.0657 7.34424 19.1903 7.24431C20.3481 7.11792 21.5191 7.2603 22.6146 7.66066C22.8783 7.74828 23.1069 7.91996 23.2664 8.15008C23.4259 8.3802 23.5076 8.65641 23.4994 8.93747C23.4994 9.54811 23.1981 9.9825 22.6516 10.2476C20.702 11.1904 18.7538 12.1341 16.8069 13.0788C13.7716 14.5471 10.7431 16.0279 7.69681 17.4712C7.14891 17.728 6.53664 17.8279 5.95313 18L5.92163 17.8945Z" fill="#B5B5C2"/>
</svg>
