<svg width="19" height="20" viewBox="0 0 19 20" fill="none" xmlns="http://www.w3.org/2000/svg">
<path d="M9.6191 19.1225C7.37702 19.1195 5.21266 18.3006 3.53014 16.8187C1.84762 15.3368 0.761957 13.2932 0.475869 11.0694C0.18978 8.84566 0.722821 6.59379 1.97546 4.73427C3.22811 2.87475 5.11472 1.5347 7.28304 0.964327C7.45029 0.921413 7.65936 0.842187 7.7914 0.898306C8.00772 0.978625 8.19275 1.12588 8.31958 1.31864C8.44172 1.53871 8.36579 1.8061 8.17103 2.01187C7.63887 2.5683 7.20536 3.2113 6.88911 3.91329C5.16815 7.76455 7.4602 12.2243 11.5986 13.0463C13.7355 13.4677 15.637 12.9362 17.2831 11.5058C17.7233 11.1261 17.9972 11.0425 18.2987 11.2197C18.6002 11.3968 18.6839 11.7126 18.5122 12.276C17.3777 15.9919 14.9096 18.2378 11.0881 18.9882C10.9708 19.0149 10.8522 19.0351 10.7327 19.0487C10.3618 19.0729 9.98992 19.0961 9.6191 19.1225Z" fill="#BF3939"/>
</svg>
