<svg width="32" height="27" viewBox="0 0 32 27" fill="none" xmlns="http://www.w3.org/2000/svg">
<g clip-path="url(#clip0_2838_15482)">
<path d="M18.712 23.3378C18.4642 23.3378 18.2576 23.5443 18.2576 23.7921C18.2576 24.04 18.4642 24.2465 18.712 24.2465C18.9598 24.2465 19.1664 24.04 19.1664 23.7921C19.1664 23.5856 18.9598 23.3378 18.712 23.3378ZM2.56144 23.7921C2.56144 23.7921 2.80927 23.0073 2.85058 22.8834C2.93319 22.553 3.09841 22.0573 3.09841 22.0573H3.13972C3.13972 22.0573 3.26364 22.553 3.34625 22.8834C3.38756 23.0073 3.59408 23.7921 3.59408 23.7921H2.56144ZM3.96584 25.1965H4.79195L3.51147 21.3138C3.38756 21.2725 3.22233 21.2312 3.0158 21.2312C2.80927 21.2312 2.76797 21.2725 2.60275 21.3138L1.32227 25.1965H2.14838C2.14838 25.1965 2.2723 24.8661 2.39622 24.453H3.80061C3.88322 24.8661 3.96584 25.1965 3.96584 25.1965ZM31.2277 25.1965C31.2277 25.1965 30.8146 24.3291 30.732 24.1639C30.6081 23.9574 30.5255 23.7921 30.2776 23.7508C30.4429 23.7095 30.5668 23.6269 30.6907 23.3378C30.8146 23.0486 30.8559 23.0073 30.9385 22.9247C31.0211 22.8421 31.1037 22.8834 31.1037 22.8834L31.145 22.3877C31.0211 22.3877 30.9385 22.3877 30.8146 22.3877C30.6081 22.3877 30.5255 22.4704 30.4015 22.553C30.3189 22.6356 30.2776 22.7595 30.195 22.8834C30.1124 23.0073 30.0711 23.1312 29.9885 23.2965C29.9059 23.4617 29.8646 23.503 29.6993 23.503H29.5754V22.4704H28.8319V25.1965H29.5754V24.0813H29.658C29.8646 24.0813 29.9059 24.1226 30.0298 24.3704C30.1537 24.6183 30.4015 25.2378 30.4015 25.2378H31.2277V25.1965ZM28.2536 25.1965V22.429H27.5101V23.4617H26.684V22.429H25.9405V25.1965H26.684V24.0813H27.5101V25.1965H28.2536ZM8.09642 22.429V25.0726C8.42686 25.2378 8.83992 25.2791 9.17037 25.2791C9.95518 25.2791 10.3682 24.8661 10.3682 24.2052C10.3682 23.6269 9.99648 23.2552 9.29428 23.2552C9.12906 23.2552 9.00514 23.2965 8.83992 23.3378V22.429H8.09642ZM9.58342 24.2465C9.58342 24.5356 9.50081 24.7009 9.12906 24.7009C9.00514 24.7009 8.96384 24.7009 8.79861 24.6596V23.8748C9.00514 23.8334 9.00514 23.8334 9.12906 23.8334C9.50081 23.8334 9.58342 23.9987 9.58342 24.2465ZM25.5688 24.9487C25.3622 24.6596 25.3209 24.4943 25.3209 24.1226V23.3791C25.3209 22.966 25.2796 22.8421 25.1557 22.6769C24.9905 22.4704 24.7427 22.3877 24.2883 22.3877C23.9578 22.3877 23.6687 22.429 23.3383 22.5117L23.4622 23.0486C23.6687 23.0073 23.8752 23.0073 24.0405 23.0073C24.5361 23.0073 24.5774 23.0899 24.5774 23.4204V23.5443C24.4535 23.503 24.3296 23.503 24.2057 23.503C23.4622 23.503 23.0904 23.8748 23.0904 24.453C23.0904 24.99 23.5035 25.3205 23.9991 25.3205C24.2057 25.3205 24.3709 25.2791 24.5361 25.2378C24.6187 25.1965 24.66 25.1552 24.784 25.1139C24.8666 25.2378 24.9905 25.3205 25.0731 25.3618L25.5688 24.9487ZM24.6187 24.6183C24.4535 24.6596 24.3709 24.7009 24.2057 24.7009C23.9578 24.7009 23.7926 24.6183 23.7926 24.3291C23.7926 24.04 23.9991 23.9574 24.3296 23.9574C24.4122 23.9574 24.4948 23.9574 24.5361 23.9987V24.2052C24.5774 24.3704 24.6187 24.5356 24.6187 24.6183ZM17.4315 24.9487C17.225 24.6596 17.1837 24.4943 17.1837 24.1226V23.3791C17.1837 22.966 17.1424 22.8421 17.0185 22.6769C16.8532 22.4704 16.6054 22.3877 16.151 22.3877C15.8206 22.3877 15.5315 22.429 15.201 22.5117L15.3249 23.0486C15.5315 23.0073 15.738 23.0073 15.9032 23.0073C16.3989 23.0073 16.4402 23.0899 16.4402 23.4204V23.5443C16.3163 23.503 16.1924 23.503 16.0684 23.503C15.3249 23.503 14.9532 23.8748 14.9532 24.453C14.9532 24.99 15.3662 25.3205 15.8619 25.3205C16.0684 25.3205 16.2337 25.2791 16.3989 25.2378C16.4815 25.1965 16.5228 25.1552 16.6467 25.1139C16.7293 25.2378 16.8532 25.3205 16.9359 25.3618L17.4315 24.9487ZM16.5228 24.6183C16.3576 24.6596 16.275 24.7009 16.1097 24.7009C15.8619 24.7009 15.6967 24.6183 15.6967 24.3291C15.6967 24.04 15.9032 23.9574 16.2337 23.9574C16.3163 23.9574 16.3989 23.9574 16.4402 23.9987V24.2052C16.4815 24.3704 16.4815 24.5356 16.5228 24.6183ZM7.51814 25.1965V22.5117C7.10508 22.3877 6.81594 22.3464 6.40288 22.3464C5.98982 22.3464 5.70068 22.3877 5.28762 22.5117V23.8748C5.28762 24.2465 5.28762 24.3704 5.24632 24.4943C5.20501 24.6183 5.1637 24.7422 4.99848 24.8248L5.20501 25.2378C5.78329 25.0726 6.03113 24.8248 6.03113 23.9987V23.0073C6.23766 22.966 6.27896 22.966 6.40288 22.966C6.5681 22.966 6.60941 22.966 6.77463 23.0073V25.1965H7.51814ZM13.0118 26.1053V25.1139C13.0944 25.1552 13.3009 25.2378 13.5901 25.2378C14.2097 25.2378 14.664 24.7422 14.664 23.7921C14.664 22.8008 14.2097 22.3464 13.4662 22.3464C13.2596 22.3464 13.1357 22.3464 13.0118 22.429V21.2312H12.2683V22.429C12.1031 22.3464 11.9792 22.3464 11.8139 22.3464C11.0704 22.3464 10.6161 22.8008 10.6161 23.7921C10.6161 24.7422 11.0291 25.2378 11.69 25.2378C12.0205 25.2378 12.1857 25.1552 12.2683 25.1139V26.1053H13.0118ZM11.4009 23.8334C11.4009 23.2965 11.5661 22.966 11.8965 22.966C12.0205 22.966 12.1444 22.966 12.3096 23.0486V24.5769C12.1444 24.6183 12.0618 24.6183 11.9379 24.6183C11.5248 24.6596 11.4009 24.3291 11.4009 23.8334ZM13.9618 23.7921C13.9618 24.2878 13.7553 24.6183 13.4249 24.6183C13.3009 24.6183 13.2183 24.6183 13.0531 24.5769V23.0486C13.2183 22.966 13.3423 22.966 13.4662 22.966C13.7553 22.966 13.9618 23.2552 13.9618 23.7921ZM22.8426 23.9987C22.8426 23.2965 22.4295 22.8421 21.6034 22.8421C21.3969 22.8421 21.2317 22.8421 21.0251 22.9247V21.9334C21.149 21.9334 21.3969 21.8921 21.686 21.8921C21.9339 21.8921 22.2643 21.8921 22.5121 21.9334V21.3551C22.1817 21.2725 21.7273 21.2312 21.3969 21.2312C21.0664 21.2312 20.4882 21.3138 20.2403 21.3964V25.0313C20.6534 25.1965 21.0251 25.2378 21.4382 25.2378C22.3469 25.2791 22.8426 24.7835 22.8426 23.9987ZM22.0578 24.0813C22.0578 24.453 21.8512 24.7009 21.4795 24.7009C21.3143 24.7009 21.1904 24.7009 21.0251 24.6596V23.5443C21.1077 23.5443 21.273 23.503 21.4795 23.503C21.8512 23.4617 22.0578 23.6682 22.0578 24.0813ZM16.275 2.76749L14.7053 7.43504H17.8446L16.275 2.76749ZM16.275 0C17.4728 0 17.8446 0.867422 18.175 1.69354L21.5208 10.7808C21.5621 10.8634 21.5208 10.9873 21.4382 11.0286L19.5794 11.7308C19.4968 11.7722 19.3729 11.7308 19.3729 11.6069L18.5881 9.50033H13.9618L13.177 11.6482C13.1357 11.7308 13.0531 11.7722 12.9705 11.7722L11.153 11.07C11.0704 11.0286 11.0291 10.946 11.0704 10.8221L14.4162 1.73484C14.7053 0.867422 15.0771 0 16.275 0ZM10.8226 15.1592C10.74 15.1592 10.6574 15.2418 10.6574 15.3244V17.3484C10.6574 17.431 10.74 17.5137 10.8226 17.5137H21.7686C21.8512 17.5137 21.9339 17.431 21.9339 17.3484V15.3658C21.9339 15.2831 21.8512 15.2005 21.7686 15.2005H10.8226V15.1592Z" fill="#19191E"/>
</g>
<defs>
<clipPath id="clip0_2838_15482">
<rect width="31" height="26.1053" fill="white" transform="translate(0.669922)"/>
</clipPath>
</defs>
</svg>
