<svg width="52" height="14" viewBox="0 0 52 14" fill="none" xmlns="http://www.w3.org/2000/svg">
<path fill-rule="evenodd" clip-rule="evenodd" d="M12.7668 7.85463L10.2227 5.25522C10.1674 5.19992 10.1121 5.19992 10.0568 5.25522L8.34226 6.96973C8.28695 7.02503 8.28695 7.08033 8.34226 7.13564L9.17186 7.96524L10.3333 8.07586C10.3886 8.07586 10.4439 8.13115 10.4439 8.18646V9.23729L10.8864 9.67974C10.9417 9.73504 10.997 9.73504 11.0523 9.67974L12.7668 7.96524C12.8221 7.96524 12.8221 7.90994 12.7668 7.85463Z" fill="#19191E"/>
<path fill-rule="evenodd" clip-rule="evenodd" d="M10.4457 11.9474V8.24183C10.4457 8.18652 10.3904 8.13123 10.3351 8.13123H7.90163C7.84632 8.13123 7.79102 8.18652 7.79102 8.24183V9.40327L8.5653 10.3988C8.62061 10.4541 8.62061 10.5094 8.5653 10.5647L7.79102 11.339V11.9474C7.79102 12.0027 7.84632 12.058 7.90163 12.058H10.3351C10.3904 12.058 10.4457 12.0027 10.4457 11.9474Z" fill="#19191E"/>
<path fill-rule="evenodd" clip-rule="evenodd" d="M6.02017 13.164L8.56427 10.5646C8.61958 10.5093 8.61958 10.454 8.56427 10.3987L6.84977 8.68418C6.79446 8.62887 6.73916 8.62887 6.68386 8.68418L5.85426 9.51378L5.68834 10.7305C5.68834 10.7858 5.63303 10.8411 5.57773 10.8411H4.5269L4.08445 11.2836C4.02914 11.3389 4.02914 11.3942 4.08445 11.4495L5.79895 13.164C5.85426 13.2193 5.96487 13.2193 6.02017 13.164Z" fill="#19191E"/>
<path fill-rule="evenodd" clip-rule="evenodd" d="M1.98388 10.8411H5.57879C5.6341 10.8411 5.68941 10.7858 5.68941 10.7305V8.29702C5.68941 8.24171 5.6341 8.1864 5.57879 8.1864H4.36205L3.47715 8.90539C3.42184 8.9607 3.36653 8.9607 3.31123 8.90539L2.59224 8.1864H1.98388C1.92857 8.1864 1.87326 8.24171 1.87326 8.29702V10.7305C1.81795 10.7858 1.87327 10.8411 1.98388 10.8411Z" fill="#19191E"/>
<path fill-rule="evenodd" clip-rule="evenodd" d="M3.03516 2.15805V5.86359C3.03516 5.91889 3.09046 5.97419 3.14577 5.97419H5.57925C5.63456 5.97419 5.68987 5.91889 5.68987 5.86359V4.70215L4.91557 3.76193C4.86026 3.70663 4.86026 3.65133 4.91557 3.59602L5.68987 2.82174V2.21336C5.68987 2.15806 5.63456 2.10274 5.57925 2.10274H3.14577C3.09046 2.04744 3.03516 2.10275 3.03516 2.15805Z" fill="#19191E"/>
<path fill-rule="evenodd" clip-rule="evenodd" d="M7.51331 0.941382L4.96921 3.54077C4.91391 3.59608 4.91391 3.6514 4.96921 3.7067L6.68372 5.42119C6.73902 5.47649 6.79432 5.47649 6.84963 5.42119L7.67922 4.59159L7.78984 3.37486C7.78984 3.31955 7.84515 3.26424 7.90046 3.26424H8.95127L9.39373 2.8218C9.44903 2.76649 9.44903 2.71117 9.39373 2.65587L7.67922 0.941382C7.62392 0.886076 7.56862 0.886076 7.51331 0.941382Z" fill="#19191E"/>
<path fill-rule="evenodd" clip-rule="evenodd" d="M11.5512 3.26416H7.95631C7.90101 3.26416 7.8457 3.31947 7.8457 3.37478V5.80826C7.8457 5.86356 7.90101 5.91888 7.95631 5.91888H9.17306L10.058 5.19988C10.1133 5.14458 10.1686 5.14458 10.2239 5.19988L10.9429 5.91888H11.5512C11.6065 5.91888 11.6619 5.86356 11.6619 5.80826V3.37478C11.6619 3.31947 11.6065 3.26416 11.5512 3.26416Z" fill="#19191E"/>
<path fill-rule="evenodd" clip-rule="evenodd" d="M0.711402 6.25075L3.25549 8.85016C3.3108 8.90547 3.36611 8.90547 3.42141 8.85016L5.13591 7.13566C5.19122 7.08035 5.19122 7.02505 5.13591 6.96975L4.30632 6.08484L3.14488 5.97422C3.08957 5.97422 3.03427 5.91892 3.03427 5.86362V4.8128L2.59182 4.37034C2.53651 4.31503 2.4812 4.31503 2.4259 4.37034L0.711402 6.08484C0.656095 6.14015 0.656095 6.19545 0.711402 6.25075Z" fill="#19191E"/>
<path opacity="0.5" fill-rule="evenodd" clip-rule="evenodd" d="M10.4462 8.24179V9.2926L10.8887 9.73507L10.4462 8.24179ZM10.225 5.19993L10.944 5.91893H11.5524L10.225 5.19993ZM7.90216 3.26421H8.95298L9.39543 2.82176L7.90216 3.26421ZM4.91561 3.54074L5.6899 2.76645V2.15808L4.91561 3.54074ZM3.03519 5.86362V4.8128L2.59274 4.37034L3.03519 5.86362ZM3.31173 8.85016L2.59274 8.13118H1.98438L3.31173 8.85016ZM5.57929 10.8412H4.52846L4.08601 11.2836L5.57929 10.8412ZM8.56583 10.5647L7.79155 11.3389V11.9473L8.56583 10.5647Z" fill="#19191E"/>
<path d="M18.8522 8.07599C18.8522 8.18661 18.8522 8.24191 18.7969 8.35253C18.7969 8.46314 18.7416 8.51845 18.6863 8.62906C18.631 8.73967 18.5204 8.79497 18.4098 8.85028C18.2991 8.90559 18.1885 8.90559 18.0226 8.9609H16.7506V7.30171H18.0226C18.1885 7.30171 18.3544 7.357 18.4651 7.41231C18.5757 7.46762 18.6863 7.57823 18.7416 7.68884C18.7969 7.74415 18.8522 7.91008 18.8522 8.07599ZM24.9359 9.9011V9.12681C24.9359 9.0162 24.9359 8.9609 24.8806 8.9609C24.8806 8.90559 24.8253 8.90559 24.7147 8.90559H22.3918C22.2812 8.90559 22.1706 8.90559 22.06 8.85028C21.9494 8.79497 21.8941 8.73968 21.8941 8.68437C21.8388 8.62906 21.8388 8.51845 21.8388 8.35253V7.357H24.3275C24.3828 7.357 24.4382 7.35701 24.4382 7.30171C24.4382 7.2464 24.4935 7.19109 24.4935 7.13578V6.4168C24.4935 6.3615 24.4935 6.25087 24.4382 6.25087C24.4382 6.19557 24.3828 6.19558 24.3275 6.19558H21.8388V5.5319C21.8388 5.42128 21.8388 5.31067 21.8941 5.25536C21.9494 5.20006 22.0047 5.08945 22.06 5.03414C22.1153 4.97884 22.2812 4.97883 22.3918 4.97883H24.6041C24.6594 4.97883 24.7147 4.97883 24.7147 4.92352C24.7147 4.86822 24.77 4.86822 24.77 4.75761V3.98332C24.77 3.92802 24.77 3.81739 24.7147 3.81739C24.7147 3.76209 24.6594 3.76208 24.6041 3.76208H22.1153C21.8388 3.76208 21.5622 3.8174 21.3963 3.8727C21.1751 3.98332 21.0092 4.09394 20.8985 4.25986C20.7879 4.42578 20.6773 4.59169 20.622 4.81292C20.5667 5.03415 20.5114 5.20005 20.5114 5.42128V8.35253C20.5114 8.57375 20.5114 8.73968 20.5667 8.9609C20.622 9.12682 20.6773 9.34804 20.8432 9.45865C20.9538 9.62457 21.1198 9.73518 21.341 9.84579C21.5622 9.9564 21.8388 10.0117 22.1153 10.0117H24.7147C24.77 10.0117 24.8253 10.0117 24.8806 9.95641C24.9359 10.0117 24.9359 9.95641 24.9359 9.9011ZM34.8911 6.74864C35.057 6.58273 35.2229 6.41679 35.3335 6.25087C35.4441 6.08495 35.5547 5.86374 35.61 5.58721L35.9972 3.98332V3.92801C35.9972 3.87271 35.9972 3.8727 35.9419 3.8727C35.9419 3.8727 35.8866 3.81739 35.8313 3.81739H34.8358C34.7805 3.81739 34.7804 3.81739 34.7251 3.81739C34.6698 3.81739 34.6698 3.87271 34.6698 3.92801L34.2827 5.42128C34.2274 5.5872 34.1721 5.75313 34.1168 5.86374C34.0615 5.97435 33.9509 6.02965 33.8402 6.08496C33.7296 6.14027 33.6743 6.19558 33.5637 6.19558C33.4531 6.19558 33.3978 6.19558 33.2872 6.19558H32.6235V3.92801C32.6235 3.87271 32.6235 3.81739 32.6235 3.81739C32.6235 3.81739 32.5682 3.81739 32.5129 3.81739H31.5174C31.4621 3.81739 31.4068 3.81739 31.4068 3.81739C31.4068 3.81739 31.3515 3.87271 31.3515 3.92801V9.84579C31.3515 9.9011 31.3515 9.95641 31.4068 9.95641C31.4068 9.95641 31.4621 9.95641 31.5174 9.95641H32.5129C32.5682 9.95641 32.6235 9.95641 32.6235 9.95641C32.6235 9.95641 32.6788 9.9011 32.6788 9.84579V7.19109H33.3978C33.619 7.19109 33.7849 7.19109 33.8955 7.2464C34.0615 7.3017 34.1721 7.35701 34.2274 7.46762C34.338 7.57823 34.3933 7.74415 34.4486 7.91007L35.0017 9.84579C35.0017 9.9011 35.057 9.95641 35.057 9.95641C35.1123 9.95641 35.1123 9.95641 35.1676 9.95641H36.1631C36.2184 9.95641 36.2184 9.95641 36.2737 9.9011L36.329 9.84579C36.329 9.79048 36.329 9.7905 36.329 9.7905L35.776 7.74415C35.7207 7.63354 35.7207 7.46761 35.6654 7.357C35.61 7.24639 35.5547 7.13578 35.4994 7.08047C35.4441 6.96986 35.3335 6.91455 35.2782 6.85925C35.1676 6.91455 35.0017 6.80395 34.8911 6.74864ZM38.5413 7.68884L38.8731 6.58272L39.205 5.31067H39.2603L39.5921 6.58272L39.924 7.68884H38.5413ZM40.2005 8.79497L40.5323 9.95641C40.5323 10.0117 40.5876 10.067 40.6429 10.067C40.6982 10.067 40.7535 10.067 40.8088 10.067H41.8597C41.915 10.067 41.915 10.067 41.9703 10.0117L42.0256 9.95641V9.9011L40.2005 4.31515C40.1452 4.14923 40.0899 4.09394 40.0346 3.98332C39.9792 3.92802 39.9239 3.8727 39.8133 3.8727C39.7027 3.8727 39.6474 3.81739 39.4815 3.81739H38.9837C38.8731 3.81739 38.7625 3.8174 38.7072 3.8727C38.6519 3.8727 38.5413 3.928 38.486 4.03862C38.4307 4.09392 38.3754 4.20454 38.3754 4.31515L36.5503 9.9011C36.5503 9.95641 36.5503 10.0117 36.5503 10.0117C36.5503 10.067 36.6056 10.067 36.6609 10.067H37.6564C37.7117 10.067 37.767 10.067 37.8223 10.0117C37.8776 10.0117 37.8776 9.95641 37.8776 9.9011L38.2095 8.79497H40.2005ZM45.6758 5.91905C45.6758 6.08497 45.6205 6.19557 45.5652 6.36149C45.5099 6.47211 45.3993 6.58272 45.2887 6.63802C45.1781 6.69333 45.0121 6.74864 44.7909 6.74864H43.6295V5.03414H44.7356C44.9015 5.03414 45.0674 5.08944 45.1781 5.14475C45.2887 5.20005 45.3993 5.25537 45.4546 5.36598C45.5099 5.4766 45.5652 5.5319 45.5652 5.64252C45.6205 5.69782 45.6758 5.80844 45.6758 5.91905ZM43.6295 9.9011V7.85477H44.7909C45.1227 7.85477 45.3993 7.79946 45.6205 7.74415C45.8417 7.68885 46.063 7.57823 46.2289 7.46762C46.3948 7.35701 46.5054 7.19108 46.616 7.08047C46.7266 6.91455 46.7819 6.80394 46.8373 6.63802C46.8926 6.47211 46.9479 6.3615 46.9479 6.19558C46.9479 6.08497 47.0032 5.91904 47.0032 5.80843C47.0032 5.5319 46.9479 5.25537 46.8373 5.03414C46.7266 4.81292 46.616 4.59169 46.4501 4.42577C46.2842 4.25985 46.063 4.09392 45.7864 4.03862C45.5099 3.928 45.2334 3.8727 44.9568 3.8727H42.7999C42.6893 3.8727 42.5786 3.87271 42.468 3.92801C42.4127 3.98332 42.3574 4.03862 42.3021 4.09393C42.2468 4.14923 42.2468 4.25985 42.2468 4.37046V9.84579C42.2468 9.9011 42.2468 9.95641 42.3021 10.0117C42.3574 10.067 42.3574 10.067 42.468 10.067H43.4083C43.4636 10.067 43.5189 10.067 43.5189 10.067C43.5742 10.067 43.5742 10.067 43.5742 10.0117C43.6295 10.0117 43.6295 9.95641 43.6295 9.9011ZM51.9254 4.81292V4.03862C51.9254 3.98331 51.9254 3.92801 51.8701 3.8727C51.8701 3.8727 51.8148 3.81739 51.7042 3.81739H47.2244C47.1691 3.81739 47.1138 3.8174 47.1138 3.8727C47.1138 3.8727 47.0585 3.928 47.0585 4.03862V4.81292C47.0585 4.86823 47.0585 4.92352 47.1138 4.92352C47.1138 4.97883 47.1691 4.97883 47.2244 4.97883H48.773V9.84579C48.773 9.9011 48.773 9.95641 48.8283 10.0117C48.8836 10.067 48.8836 10.067 48.9942 10.067H49.9344C50.045 10.067 50.1003 10.067 50.1003 10.0117C50.1556 10.0117 50.1556 9.9564 50.1556 9.84579V4.97883H51.7595C51.8148 4.97883 51.8701 4.97883 51.8701 4.92352C51.8701 4.92352 51.9254 4.86823 51.9254 4.81292ZM15.921 10.067H18.1332C18.4098 10.067 18.6863 10.0117 18.9628 9.9011C19.2394 9.79049 19.4606 9.67988 19.6265 9.51396C19.7924 9.34805 19.9583 9.12682 20.0689 8.90559C20.1796 8.68437 20.2349 8.40784 20.2349 8.1313C20.2349 8.02069 20.2349 7.91008 20.2349 7.79946C20.2349 7.68885 20.1796 7.52292 20.1243 7.357C20.0689 7.19108 20.0136 7.08048 19.903 6.91456C19.7924 6.74864 19.6818 6.63802 19.5159 6.52741C19.35 6.41679 19.1287 6.30618 18.9075 6.25087C18.6863 6.19557 18.3545 6.14027 18.0226 6.14027H16.7506V5.03414H19.4053C19.4606 5.03414 19.5159 5.03414 19.5159 4.97883C19.5159 4.97883 19.5712 4.92352 19.5712 4.86821V4.09393C19.5712 4.03862 19.5712 3.98332 19.5159 3.92801C19.5159 3.87271 19.4606 3.8727 19.4053 3.8727H16.0316C15.921 3.8727 15.8104 3.87271 15.6997 3.92801C15.6444 3.98332 15.5338 4.03862 15.5338 4.14924C15.4785 4.25985 15.4785 4.37047 15.4785 4.48108V9.56926C15.4785 9.67987 15.4785 9.79049 15.5338 9.9011C15.5891 9.95641 15.5891 10.0117 15.6997 10.067C15.6997 10.067 15.8104 10.067 15.921 10.067ZM26.2633 4.48108L26.208 5.80843C26.208 6.25088 26.1526 6.69334 26.0973 7.02518C26.042 7.57824 25.9867 8.9609 25.2677 8.9609C25.2124 8.9609 25.1571 8.96089 25.1018 9.01619C25.1018 9.0715 25.0465 9.12682 25.0465 9.18212V9.95641C25.0465 10.0117 25.0465 10.067 25.1018 10.1223C25.1018 10.1776 25.1571 10.1776 25.2677 10.1776C25.8208 10.1776 26.3186 10.1223 26.7057 9.51396C26.8163 9.29274 26.9269 9.07151 27.0376 8.85028C27.0929 8.57375 27.2035 8.29722 27.2035 8.02068C27.2588 7.68885 27.3141 7.35701 27.3141 7.02518C27.3694 6.63803 27.3694 6.25088 27.4247 5.80843L27.48 5.20005H29.1945V10.067C29.1945 10.1223 29.1945 10.1776 29.2498 10.1776C29.2498 10.1776 29.3051 10.2329 29.3604 10.2329H30.3006C30.3559 10.2329 30.4112 10.2329 30.4112 10.2329C30.4666 10.2329 30.4666 10.2329 30.4666 10.1776C30.4666 10.1776 30.4666 10.1223 30.4666 10.067V4.59168C30.4666 4.48107 30.4666 4.37047 30.4112 4.25986C30.3559 4.14924 30.3006 4.09392 30.2453 4.03862C30.19 3.98331 30.0794 3.98332 29.9135 3.98332H26.761C26.6504 3.98332 26.5398 3.98331 26.4292 4.03862C26.3739 4.09392 26.3186 4.14924 26.2633 4.25986C26.3186 4.20455 26.3186 4.31516 26.2633 4.48108Z" fill="#19191E"/>
</svg>
