<svg width="31" height="19" viewBox="0 0 31 19" fill="none" xmlns="http://www.w3.org/2000/svg">
<path d="M30.8699 9.05262C30.8699 13.9827 26.8613 18.0374 21.8851 18.0374C16.955 18.0374 12.9004 13.9827 12.9004 9.05262C12.9004 4.12253 16.909 0.0678711 21.8391 0.0678711C26.8613 0.0678711 30.8699 4.12253 30.8699 9.05262Z" fill="#BCB8C8"/>
<path d="M18.8433 9.0987C18.8433 8.45364 18.7512 7.80858 18.659 7.20959H13.13C13.176 6.88707 13.2682 6.61061 13.3603 6.24201H18.2904C18.1983 5.91948 18.0601 5.59695 17.9218 5.27442H13.7289C13.8672 4.95189 14.0515 4.67543 14.2358 4.30683H17.415C17.2307 3.9843 17.0003 3.66177 16.7239 3.33924H14.973C15.2494 3.01671 15.5259 2.74026 15.8945 2.41773C14.3279 0.943308 12.2085 0.0678711 9.8586 0.0678711C4.97458 0.206098 0.919922 4.12253 0.919922 9.05262C0.919922 13.9827 4.9285 18.0374 9.90467 18.0374C12.2545 18.0374 14.3279 17.1159 15.9406 15.6875C16.2631 15.4111 16.5396 15.0885 16.8621 14.7199H15.0191C14.7887 14.4435 14.5583 14.1209 14.374 13.7984H17.5072C17.6915 13.522 17.8758 13.1994 18.014 12.8308H13.8211C13.6829 12.5544 13.5446 12.2318 13.4525 11.8632H18.3826C18.659 11.0339 18.8433 10.1124 18.8433 9.0987Z" fill="#19191E"/>
<path d="M13.0834 11.3562L13.2217 10.5269C13.1756 10.5269 13.0834 10.5729 12.9913 10.5729C12.6688 10.5729 12.6227 10.3886 12.6688 10.2965L12.9452 8.63775H13.452L13.5903 7.71624H13.1295L13.2217 7.16333H12.2541C12.2541 7.16333 11.7012 10.2965 11.7012 10.6651C11.7012 11.218 12.0237 11.4944 12.4845 11.4944C12.7609 11.4944 12.9913 11.4023 13.0834 11.3562Z" fill="white"/>
<path d="M13.4062 9.836C13.4062 11.1722 14.3278 11.4947 15.065 11.4947C15.7561 11.4947 16.0786 11.3565 16.0786 11.3565L16.2629 10.435C16.2629 10.435 15.7561 10.6654 15.2493 10.6654C14.1895 10.6654 14.3738 9.88208 14.3738 9.88208H16.309C16.309 9.88208 16.4472 9.2831 16.4472 9.00664C16.4472 8.40766 16.1247 7.62437 15.065 7.62437C14.1435 7.5783 13.4062 8.63804 13.4062 9.836ZM15.065 8.45374C15.5718 8.45374 15.4797 9.05272 15.4797 9.09879H14.4199C14.466 9.05272 14.5581 8.45374 15.065 8.45374Z" fill="white"/>
<path d="M21.1009 11.3564L21.2852 10.2967C21.2852 10.2967 20.8245 10.527 20.4559 10.527C19.8108 10.527 19.4883 10.0202 19.4883 9.42122C19.4883 8.26933 20.0412 7.67035 20.7323 7.67035C21.1931 7.67035 21.6078 7.9468 21.6078 7.9468L21.746 6.93314C21.746 6.93314 21.1931 6.70276 20.6402 6.70276C19.5343 6.70276 18.4746 7.67035 18.4746 9.4673C18.4746 10.6653 19.0275 11.4486 20.1794 11.4486C20.5941 11.4946 21.1009 11.3564 21.1009 11.3564Z" fill="white"/>
<path d="M7.87703 7.57812C7.23197 7.57812 6.72514 7.76243 6.72514 7.76243L6.58691 8.59179C6.58691 8.59179 7.00159 8.40749 7.64665 8.40749C7.96918 8.40749 8.24563 8.45356 8.24563 8.73002C8.24563 8.91432 8.19956 8.96039 8.19956 8.96039H7.78488C6.95552 8.96039 6.08008 9.28292 6.08008 10.3887C6.08008 11.2642 6.63299 11.4485 7.00159 11.4485C7.64665 11.4485 7.96918 11.0338 8.01525 11.0338L7.96918 11.4024H8.75247L9.12107 8.77609C9.12107 7.6242 8.19956 7.57812 7.87703 7.57812ZM8.06133 9.6976C8.06133 9.83583 7.96918 10.6191 7.41627 10.6191C7.13982 10.6191 7.04767 10.3887 7.04767 10.2505C7.04767 10.0201 7.18589 9.6976 7.9231 9.6976C8.01525 9.6976 8.06133 9.6976 8.06133 9.6976Z" fill="white"/>
<path d="M10.0425 11.4484C10.2729 11.4484 11.4709 11.4945 11.4709 10.2044C11.4709 9.0064 10.319 9.23678 10.319 8.77602C10.319 8.54565 10.5033 8.4535 10.8258 8.4535C10.964 8.4535 11.4709 8.49957 11.4709 8.49957L11.6091 7.62413C11.6091 7.62413 11.2866 7.53198 10.6876 7.53198C9.99644 7.53198 9.25923 7.80844 9.25923 8.77602C9.25923 9.88184 10.4572 9.78969 10.4572 10.2044C10.4572 10.4808 10.1347 10.5269 9.90429 10.5269C9.48961 10.5269 9.02885 10.3887 9.02885 10.3887L8.89062 11.2641C8.98278 11.3563 9.25923 11.4484 10.0425 11.4484Z" fill="white"/>
<path d="M29.0251 6.84082L28.8408 8.13094C28.8408 8.13094 28.4722 7.67018 27.9193 7.67018C27.0439 7.67018 26.3066 8.72992 26.3066 9.97396C26.3066 10.7572 26.6752 11.5405 27.5046 11.5405C28.0575 11.5405 28.4261 11.1719 28.4261 11.1719L28.38 11.4945H29.3476L30.0388 6.93297L29.0251 6.84082ZM28.5643 9.32891C28.5643 9.83574 28.334 10.5269 27.7811 10.5269C27.4585 10.5269 27.2742 10.2504 27.2742 9.74359C27.2742 8.9603 27.5968 8.49954 28.0575 8.49954C28.38 8.54562 28.5643 8.776 28.5643 9.32891Z" fill="white"/>
<path d="M2.67151 11.4023L3.22442 7.99271L3.31657 11.4023H3.96163L5.20567 7.99271L4.69884 11.4023H5.7125L6.49579 6.84082H4.92922L3.96163 9.65143L3.91555 6.84082H2.53329L1.75 11.4023H2.67151Z" fill="white"/>
<path d="M17.4152 11.4024C17.6917 9.83584 17.7377 8.54573 18.4289 8.7761C18.521 8.17712 18.6593 7.90067 18.7514 7.67029H18.5671C18.1524 7.67029 17.7838 8.2232 17.7838 8.2232L17.876 7.71636H16.9545L16.3555 11.4024H17.4152Z" fill="white"/>
<path d="M23.3126 7.57812C22.6675 7.57812 22.1607 7.76243 22.1607 7.76243L22.0225 8.59179C22.0225 8.59179 22.4371 8.40749 23.0822 8.40749C23.4047 8.40749 23.6812 8.45356 23.6812 8.73002C23.6812 8.91432 23.6351 8.96039 23.6351 8.96039H23.2204C22.3911 8.96039 21.5156 9.28292 21.5156 10.3887C21.5156 11.2642 22.0685 11.4485 22.4371 11.4485C23.0822 11.4485 23.4047 11.0338 23.4508 11.0338L23.4047 11.4024H24.2802L24.6488 8.77609C24.6488 7.6242 23.6351 7.57812 23.3126 7.57812ZM23.543 9.6976C23.543 9.83583 23.4508 10.6191 22.8979 10.6191C22.6214 10.6191 22.5293 10.3887 22.5293 10.2505C22.5293 10.0201 22.6675 9.6976 23.4047 9.6976C23.4969 9.6976 23.4969 9.6976 23.543 9.6976Z" fill="white"/>
<path d="M25.3859 11.4024C25.6624 9.83584 25.7084 8.54573 26.3996 8.7761C26.4917 8.17712 26.63 7.90067 26.7221 7.67029H26.5378C26.1231 7.67029 25.7545 8.2232 25.7545 8.2232L25.8467 7.71636H24.9252L24.3262 11.4024H25.3859Z" fill="white"/>
</svg>
