<svg width="47" height="15" viewBox="0 0 47 15" fill="none" xmlns="http://www.w3.org/2000/svg">
<path d="M4.45986 9.51389C4.23864 9.34797 3.9621 9.23735 3.68557 9.18205C3.40904 9.07143 3.13251 9.07143 2.85598 9.07143C2.69006 9.07143 2.52414 9.07144 2.35822 9.12674C2.1923 9.18205 2.08169 9.23735 1.97107 9.29266C1.86046 9.34797 1.74985 9.45858 1.69454 9.56919C1.63923 9.67981 1.58393 9.79042 1.58393 9.90103C1.58393 10.0116 1.58393 10.1223 1.63923 10.1776C1.69454 10.2329 1.74985 10.3435 1.86046 10.3988C1.97107 10.4541 2.08169 10.5094 2.24761 10.5647C2.41352 10.62 2.57944 10.62 2.74536 10.6753L3.13251 10.7306C3.35373 10.7859 3.57496 10.7859 3.79619 10.8965C4.01741 10.9519 4.18333 11.0625 4.34925 11.1731C4.51517 11.2837 4.68109 11.4496 4.73639 11.6155C4.84701 11.7814 4.90231 12.0027 4.90231 12.2792C4.90231 12.5557 4.84701 12.8323 4.73639 13.0535C4.62578 13.2747 4.45986 13.4406 4.23864 13.6066C4.01741 13.7725 3.79619 13.8831 3.51965 13.9384C3.24312 13.9937 2.96659 14.049 2.63475 14.049C2.46883 14.049 2.24761 14.049 2.02638 13.9937C1.80515 13.9384 1.63923 13.9384 1.41801 13.8278C1.19678 13.7725 1.03086 13.6619 0.864945 13.6066C0.699026 13.4959 0.533107 13.3853 0.367188 13.2747L0.864945 12.5557C0.975558 12.6664 1.08617 12.7217 1.19678 12.777C1.3074 12.8323 1.47332 12.9429 1.63923 12.9982C1.80515 13.0535 1.97107 13.1088 2.13699 13.1088C2.30291 13.1641 2.46883 13.1641 2.63475 13.1641C2.80067 13.1641 2.96659 13.1641 3.13251 13.1088C3.29843 13.0535 3.40904 12.9982 3.51965 12.9429C3.63027 12.8876 3.74088 12.777 3.79619 12.6664C3.85149 12.5557 3.9068 12.4451 3.9068 12.3345C3.9068 12.1133 3.79618 11.9474 3.57496 11.8368C3.35373 11.7261 3.0219 11.6155 2.63475 11.5602L2.35822 11.5049C2.13699 11.4496 1.97107 11.4496 1.74985 11.339C1.52862 11.2837 1.3627 11.1731 1.19678 11.0625C1.03086 10.9519 0.920252 10.7859 0.809639 10.62C0.699026 10.4541 0.64372 10.2329 0.64372 9.95634C0.64372 9.67981 0.699026 9.40327 0.809639 9.23735C0.920252 9.01613 1.08617 8.85021 1.3074 8.68429C1.52862 8.51837 1.74985 8.40776 2.02638 8.35245C2.30291 8.29714 2.57944 8.24184 2.85598 8.24184C3.24312 8.24184 3.63027 8.29714 3.9621 8.40776C4.29394 8.51837 4.57047 8.68429 4.90231 8.85021L4.45986 9.51389ZM7.55702 9.95634C7.83355 9.95634 8.05478 10.0116 8.276 10.1223C8.49723 10.2329 8.66315 10.3435 8.82907 10.5094C8.99499 10.6753 9.1056 10.8965 9.21621 11.1178C9.32683 11.339 9.32683 11.6155 9.32683 11.9474C9.32683 12.0027 9.32683 12.058 9.32683 12.1133C9.32683 12.1686 9.32683 12.2239 9.32683 12.2792H6.5062C6.5062 12.4451 6.5615 12.611 6.67212 12.7217C6.72742 12.8323 6.83804 12.9429 6.94865 12.9982C7.05926 13.0535 7.16988 13.1088 7.28049 13.1641C7.3911 13.2194 7.55702 13.2194 7.66763 13.2194C7.83355 13.2194 8.05478 13.1641 8.2207 13.1088C8.38662 13.0535 8.60784 12.9429 8.77376 12.8323L9.21621 13.4406C8.99499 13.6619 8.71846 13.7725 8.49723 13.8831C8.2207 13.9384 7.94417 13.9937 7.66763 13.9937C7.3911 13.9937 7.11457 13.9384 6.89334 13.8278C6.67212 13.7172 6.45089 13.6066 6.28497 13.4406C6.11905 13.2747 5.95313 13.0535 5.89783 12.8323C5.78722 12.611 5.73191 12.3345 5.73191 12.0027C5.73191 11.7261 5.78722 11.4496 5.89783 11.1731C6.00844 10.9519 6.11905 10.7306 6.28497 10.5094C6.45089 10.3435 6.67212 10.1776 6.89334 10.1223C7.00396 10.0116 7.22518 9.95634 7.55702 9.95634ZM7.50171 10.7306C7.33579 10.7306 7.22518 10.7306 7.11457 10.7859C7.00396 10.8412 6.89334 10.8965 6.83804 11.0072C6.72742 11.1178 6.67212 11.1731 6.61681 11.2837C6.5615 11.3943 6.5062 11.5049 6.5062 11.6708H8.49723C8.44192 11.3943 8.33131 11.1178 8.16539 10.9519C7.99947 10.7859 7.77825 10.7306 7.50171 10.7306ZM11.9262 9.95634C12.2028 9.95634 12.4793 10.0116 12.7005 10.1223C12.9217 10.2329 13.143 10.3988 13.3089 10.5647L12.7558 11.1178C12.6452 11.0072 12.4793 10.8965 12.3134 10.8412C12.1475 10.7859 11.9815 10.7306 11.8156 10.7306C11.6497 10.7306 11.4838 10.7859 11.3732 10.8412C11.2072 10.8965 11.0966 11.0072 11.0413 11.1178C10.9307 11.2284 10.8754 11.339 10.8201 11.5049C10.7648 11.6708 10.7095 11.8368 10.7095 12.0027C10.7095 12.1686 10.7648 12.3345 10.8201 12.5004C10.8754 12.6664 10.9307 12.777 11.0413 12.8876C11.1519 12.9982 11.2625 13.0535 11.3732 13.1641C11.4838 13.2194 11.6497 13.2747 11.8156 13.2747C11.9815 13.2747 12.1475 13.2194 12.3134 13.1641C12.4793 13.1088 12.5899 12.9982 12.7558 12.8876L13.2536 13.4406C13.0877 13.6619 12.8664 13.7725 12.6452 13.8831C12.424 13.9937 12.1475 14.049 11.8709 14.049C11.5944 14.049 11.3179 13.9937 11.0413 13.8831C10.8201 13.7725 10.5989 13.6619 10.433 13.4406C10.267 13.2747 10.1011 13.0535 10.0458 12.777C9.9352 12.5557 9.87989 12.2792 9.87989 12.0027C9.87989 11.7261 9.9352 11.4496 10.0458 11.2284C10.1564 11.0072 10.267 10.7859 10.433 10.5647C10.5989 10.3988 10.8201 10.2329 11.0413 10.1223C11.3732 10.0116 11.6497 9.95634 11.9262 9.95634ZM17.6781 12.2792C17.6781 12.5557 17.6228 12.8323 17.5122 13.0535C17.4016 13.2747 17.2909 13.4406 17.125 13.6066C16.9591 13.7725 16.7932 13.8278 16.572 13.9384C16.3507 13.9937 16.1295 14.049 15.9083 14.049C15.6871 14.049 15.4658 13.9937 15.2446 13.9384C15.0234 13.8831 14.8575 13.7725 14.6915 13.6066C14.5256 13.4959 14.415 13.2747 14.3044 13.0535C14.1938 12.8323 14.1385 12.5557 14.1385 12.2792V10.0669H14.9681V12.1686C14.9681 12.3345 14.9681 12.5004 15.0234 12.611C15.0787 12.7217 15.134 12.8323 15.2446 12.9429C15.3552 12.9982 15.4105 13.0535 15.5211 13.1088C15.6318 13.1641 15.7424 13.1641 15.9083 13.1641C16.0189 13.1641 16.1848 13.1641 16.2954 13.1088C16.406 13.0535 16.5167 12.9982 16.572 12.9429C16.6826 12.8876 16.7379 12.777 16.7932 12.611C16.8485 12.5004 16.8485 12.3345 16.8485 12.1686V10.0669H17.6781V12.2792ZM20.7199 9.95634C20.8306 9.95634 20.9412 9.95634 21.0518 9.95634C21.1624 9.95634 21.273 10.0116 21.3283 10.0116L21.1071 10.8412C20.9965 10.7859 20.9412 10.7859 20.7753 10.7306C20.6646 10.7306 20.554 10.6753 20.4434 10.6753C20.3328 10.6753 20.1669 10.6753 20.0563 10.7306C19.9457 10.7859 19.835 10.8412 19.7797 10.9519C19.7244 11.0625 19.6138 11.1731 19.6138 11.2837C19.5585 11.3943 19.5585 11.5602 19.5585 11.7261V13.8278H18.7289V10.0116H19.5585V10.4541C19.6691 10.2882 19.835 10.1223 20.0563 10.0669C20.2222 10.0116 20.4434 9.95634 20.7199 9.95634ZM23.4853 9.95634C23.7618 9.95634 23.983 10.0116 24.2042 10.1223C24.4255 10.2329 24.5914 10.3435 24.7573 10.5094C24.9232 10.6753 25.0338 10.8965 25.1445 11.1178C25.2551 11.339 25.2551 11.6155 25.2551 11.9474C25.2551 12.0027 25.2551 12.058 25.2551 12.1133C25.2551 12.1686 25.2551 12.2239 25.2551 12.2792H22.4897C22.4897 12.4451 22.5451 12.611 22.6557 12.7217C22.711 12.8323 22.8216 12.9429 22.9322 12.9982C23.0428 13.0535 23.1534 13.1088 23.264 13.1641C23.3747 13.2194 23.5406 13.2194 23.6512 13.2194C23.8171 13.2194 24.0383 13.1641 24.2042 13.1088C24.3702 13.0535 24.5914 12.9429 24.7573 12.8323L25.1445 13.4406C24.9232 13.6619 24.6467 13.7725 24.4255 13.8831C24.1489 13.9384 23.8724 13.9937 23.5959 13.9937C23.3193 13.9937 23.0428 13.9384 22.8216 13.8278C22.6004 13.7172 22.3791 13.6066 22.2132 13.4406C22.0473 13.2747 21.8814 13.0535 21.8261 12.8323C21.7155 12.611 21.6602 12.3345 21.6602 12.0027C21.6602 11.7261 21.7155 11.4496 21.8261 11.1731C21.9367 10.9519 22.0473 10.7306 22.2132 10.5094C22.3791 10.3435 22.6004 10.1776 22.8216 10.1223C22.9322 10.0116 23.2087 9.95634 23.4853 9.95634ZM23.4853 10.7306C23.3193 10.7306 23.2087 10.7306 23.0981 10.7859C22.9875 10.8412 22.8769 10.8965 22.8216 11.0072C22.711 11.1178 22.6557 11.1731 22.6004 11.2837C22.5451 11.3943 22.4897 11.5049 22.4897 11.6708H24.4808C24.4255 11.3943 24.3149 11.1178 24.1489 10.9519C23.983 10.7859 23.7618 10.7306 23.4853 10.7306ZM28.9053 8.18653C29.1265 8.18653 29.4031 8.18653 29.6243 8.24184C29.8455 8.29715 30.0667 8.35245 30.288 8.46306C30.5092 8.57368 30.6751 8.68429 30.841 8.85021C31.0069 9.01613 31.1175 9.18205 31.2282 9.34797L30.4539 9.84572C30.288 9.56919 30.0667 9.40327 29.7902 9.23735C29.5137 9.07143 29.2371 9.01613 28.9053 9.01613C28.6288 9.01613 28.3522 9.07143 28.131 9.18205C27.9098 9.29266 27.6886 9.40327 27.5226 9.6245C27.3567 9.79042 27.1908 10.0116 27.1355 10.2882C27.0249 10.5647 26.9696 10.7859 26.9696 11.1178C26.9696 11.3943 27.0249 11.6708 27.1355 11.9474C27.2461 12.2239 27.3567 12.3898 27.5226 12.611C27.6886 12.777 27.9098 12.9429 28.131 12.9982C28.3522 13.1088 28.6288 13.1641 28.9053 13.1641C29.2371 13.1641 29.5137 13.1088 29.7902 12.9429C30.0667 12.777 30.288 12.611 30.4539 12.3345L31.1729 12.8876C31.0622 13.0535 30.8963 13.2194 30.7304 13.3853C30.5645 13.5513 30.3986 13.6619 30.1773 13.7172C29.9561 13.8278 29.7902 13.8831 29.569 13.9384C29.3477 13.9937 29.1265 13.9937 28.85 13.9937C28.4075 13.9937 28.0204 13.9384 27.6886 13.7725C27.3567 13.6066 27.0249 13.4406 26.7483 13.1641C26.4718 12.8876 26.3059 12.611 26.14 12.2239C25.9741 11.8921 25.9187 11.5049 25.9187 11.0625C25.9187 10.62 25.9741 10.2329 26.14 9.90103C26.3059 9.56919 26.4718 9.23735 26.7483 8.96082C27.0249 8.68429 27.3014 8.51837 27.6886 8.35245C28.0757 8.29714 28.4628 8.18653 28.9053 8.18653ZM33.8276 9.95634C34.1041 9.95634 34.3806 10.0116 34.6572 10.1223C34.9337 10.2329 35.0996 10.3435 35.3208 10.5647C35.4868 10.7306 35.6527 10.9519 35.7633 11.2284C35.8739 11.4496 35.9292 11.7261 35.9292 12.0027C35.9292 12.2792 35.8739 12.5557 35.7633 12.777C35.6527 12.9982 35.5421 13.2194 35.3208 13.4406C35.1549 13.6066 34.9337 13.7725 34.6572 13.8831C34.3806 13.9937 34.1594 14.049 33.8276 14.049C33.551 14.049 33.2745 13.9937 32.998 13.8831C32.7214 13.7725 32.5555 13.6619 32.3343 13.4406C32.1684 13.2747 32.0025 13.0535 31.8918 12.777C31.7812 12.5557 31.7259 12.2792 31.7259 12.0027C31.7259 11.7261 31.7812 11.4496 31.8918 11.2284C32.0025 11.0072 32.1131 10.7859 32.3343 10.5647C32.5002 10.3988 32.7214 10.2329 32.998 10.1223C33.2745 10.0116 33.551 9.95634 33.8276 9.95634ZM33.8276 10.7306C33.6616 10.7306 33.4957 10.7859 33.3298 10.8412C33.1639 10.8965 33.0533 11.0072 32.9427 11.1178C32.832 11.2284 32.7767 11.339 32.6661 11.5049C32.6108 11.6708 32.5555 11.8368 32.5555 12.0027C32.5555 12.1686 32.6108 12.3345 32.6661 12.5004C32.7214 12.6664 32.832 12.777 32.9427 12.8876C33.0533 12.9982 33.1639 13.0535 33.3298 13.1641C33.4957 13.2194 33.6616 13.2747 33.8276 13.2747C33.9935 13.2747 34.1594 13.2194 34.3253 13.1641C34.4912 13.1088 34.6019 12.9982 34.7125 12.8876C34.8231 12.777 34.8784 12.6664 34.989 12.5004C35.0443 12.3345 35.0996 12.1686 35.0996 12.0027C35.0996 11.8368 35.0443 11.6708 34.989 11.5049C34.9337 11.339 34.8231 11.2284 34.7125 11.1178C34.6019 11.0072 34.4912 10.9519 34.3253 10.8412C34.1594 10.7859 33.9935 10.7306 33.8276 10.7306ZM38.418 9.95634C38.6945 9.95634 38.9158 10.0116 39.137 10.1223C39.3582 10.2329 39.5241 10.3435 39.6347 10.5094V8.13123H40.4643V13.8831H39.6347V13.4406C39.5241 13.6066 39.3582 13.7725 39.137 13.8278C38.9158 13.9384 38.6945 13.9937 38.418 13.9937C38.1415 13.9937 37.9202 13.9384 37.6437 13.8278C37.4225 13.7172 37.2013 13.6066 37.0353 13.3853C36.8694 13.2194 36.7035 12.9982 36.6482 12.7217C36.5376 12.5004 36.4823 12.2239 36.4823 11.8921C36.4823 11.6155 36.5376 11.339 36.6482 11.0625C36.7588 10.8412 36.8694 10.62 37.0353 10.3988C37.2013 10.2329 37.4225 10.067 37.6437 9.95634C37.8649 10.0116 38.1415 9.95634 38.418 9.95634ZM38.4733 10.7306C38.3074 10.7306 38.1415 10.7859 37.9755 10.8412C37.8096 10.8965 37.699 11.0072 37.5884 11.1178C37.4778 11.2284 37.4225 11.339 37.3672 11.5049C37.3119 11.6708 37.3119 11.8368 37.3119 12.0027C37.3119 12.1686 37.3119 12.3345 37.3672 12.5004C37.4225 12.6664 37.4778 12.777 37.5884 12.8876C37.699 12.9982 37.8096 13.1088 37.9755 13.1641C38.1415 13.2194 38.2521 13.2747 38.4733 13.2747C38.6392 13.2747 38.8051 13.2194 38.9711 13.1641C39.137 13.1088 39.2476 12.9982 39.3582 12.8876C39.4688 12.777 39.5241 12.6664 39.5794 12.5004C39.6347 12.3345 39.69 12.1686 39.69 12.0027C39.69 11.8368 39.6347 11.6708 39.5794 11.5049C39.5241 11.339 39.4688 11.2284 39.3582 11.1178C39.2476 11.0072 39.137 10.8965 38.9711 10.8412C38.8051 10.7859 38.6945 10.7306 38.4733 10.7306ZM43.2297 9.95634C43.5062 9.95634 43.7274 10.0116 43.9486 10.1223C44.1699 10.2329 44.3358 10.3435 44.5017 10.5094C44.6676 10.6753 44.7782 10.8965 44.8888 11.1178C44.9995 11.339 44.9995 11.6155 44.9995 11.9474C44.9995 12.0027 44.9995 12.058 44.9995 12.1133C44.9995 12.1686 44.9995 12.2239 44.9995 12.2792H42.1788C42.1788 12.4451 42.2341 12.611 42.3447 12.7217C42.4001 12.8323 42.5107 12.9429 42.6213 12.9982C42.7319 13.0535 42.8425 13.1088 42.9531 13.1641C43.0637 13.2194 43.2296 13.2194 43.3403 13.2194C43.5062 13.2194 43.7274 13.1641 43.8933 13.1088C44.0592 13.0535 44.2805 12.9429 44.4464 12.8323L44.8335 13.4406C44.6123 13.6619 44.3358 13.7725 44.1146 13.8831C43.838 13.9384 43.5615 13.9937 43.285 13.9937C43.0084 13.9937 42.7319 13.9384 42.5107 13.8278C42.2894 13.7172 42.0682 13.6066 41.9023 13.4406C41.7364 13.2747 41.5705 13.0535 41.5152 12.8323C41.4045 12.611 41.3492 12.3345 41.3492 12.0027C41.3492 11.7261 41.4045 11.4496 41.5152 11.1731C41.6258 10.9519 41.7364 10.7306 41.9023 10.5094C42.0682 10.3435 42.2894 10.1776 42.5107 10.1223C42.6766 10.0116 42.9531 9.95634 43.2297 9.95634ZM45.3866 13.8831V13.7172H45.4419V13.6619H45.2207V13.7172H45.276L45.3866 13.8831ZM45.7737 13.8831V13.6619H45.7184L45.6631 13.8278L45.6078 13.6619H45.5525V13.8831H45.6078V13.7172L45.6631 13.8831H45.7184L45.7737 13.7172V13.8831ZM43.1743 10.7306C43.0084 10.7306 42.8978 10.7306 42.7872 10.7859C42.6766 10.8412 42.566 10.8965 42.5107 11.0072C42.4001 11.1178 42.3447 11.1731 42.2894 11.2837C42.2341 11.3943 42.1788 11.5049 42.1788 11.6708H44.1699C44.1146 11.3943 44.0039 11.1178 43.838 10.9519C43.6721 10.7859 43.4509 10.7306 43.1743 10.7306Z" fill="#19191E"/>
<path d="M7.22423 6.02937H6.28402V1.27302L4.62483 5.421H3.62932L1.91482 1.27302V5.97406H0.974609V0.222194H2.41258L4.07177 4.37017L5.73096 0.222194H7.16893V6.02937H7.22423ZM12.1465 6.02937H11.2616V5.53161C11.151 5.69753 10.9298 5.86345 10.7638 5.97406C10.5426 6.08467 10.3214 6.13998 10.0449 6.13998C9.76833 6.13998 9.4918 6.08467 9.27057 5.97406C9.04934 5.86345 8.82812 5.75283 8.6622 5.53161C8.49628 5.36569 8.33036 5.14446 8.21975 4.86793C8.10914 4.5914 8.05383 4.31487 8.05383 4.03834C8.05383 3.7618 8.10914 3.42997 8.21975 3.20874C8.33036 2.93221 8.44097 2.71098 8.6622 2.54506C8.82812 2.37914 9.04934 2.21322 9.27057 2.10261C9.4918 1.992 9.76833 1.93669 10.0449 1.93669C10.3214 1.93669 10.5979 1.992 10.7638 2.10261C10.9851 2.21322 11.151 2.32384 11.2616 2.54506V2.0473H12.1465V6.02937ZM10.1555 2.76629C9.98955 2.76629 9.82363 2.82159 9.65771 2.8769C9.4918 2.93221 9.38118 3.04282 9.27057 3.15343C9.15996 3.26405 9.10465 3.37466 9.04935 3.54058C8.99404 3.7065 8.99404 3.87242 8.99404 4.03834C8.99404 4.20425 8.99404 4.37017 9.04935 4.53609C9.10465 4.70201 9.15996 4.81263 9.27057 4.92324C9.38118 5.03385 9.4918 5.14446 9.65771 5.19977C9.82363 5.25508 9.98955 5.31038 10.1555 5.31038C10.3214 5.31038 10.4873 5.25508 10.6532 5.19977C10.8191 5.14446 10.9298 5.03385 11.0404 4.92324C11.151 4.81263 11.2063 4.70201 11.2616 4.53609C11.3169 4.37017 11.3722 4.20425 11.3722 4.03834C11.3722 3.87242 11.3169 3.7065 11.2616 3.54058C11.2063 3.37466 11.0957 3.26405 11.0404 3.15343C10.9298 3.04282 10.8191 2.93221 10.6532 2.8769C10.4873 2.76629 10.3214 2.76629 10.1555 2.76629ZM16.1286 3.04282C16.0733 2.98751 16.018 2.98751 15.9073 2.93221C15.7967 2.8769 15.7414 2.8769 15.6308 2.82159C15.5202 2.76629 15.4096 2.76629 15.299 2.76629C15.1884 2.76629 15.0777 2.71098 14.9118 2.71098C14.6906 2.71098 14.4694 2.76629 14.3588 2.82159C14.2481 2.93221 14.1375 3.04282 14.1375 3.15343C14.1375 3.20874 14.1375 3.26405 14.1928 3.31935C14.2481 3.37466 14.2481 3.42996 14.3588 3.42996C14.4141 3.48527 14.4694 3.48527 14.58 3.48527C14.6353 3.48527 14.7459 3.54058 14.8565 3.54058L15.2437 3.59588C15.6861 3.65119 16.018 3.7618 16.2392 3.98303C16.4604 4.14895 16.6263 4.42548 16.6263 4.75732C16.6263 4.92324 16.571 5.14446 16.5157 5.25508C16.4604 5.421 16.2945 5.53161 16.1839 5.64222C16.018 5.75283 15.852 5.86345 15.6308 5.91875C15.4096 5.97406 15.133 6.02937 14.8565 6.02937C14.7459 6.02937 14.6353 6.02937 14.5247 6.02937C14.4141 6.02937 14.2481 5.97406 14.0822 5.97406C13.9163 5.91875 13.7504 5.86345 13.6398 5.80814C13.4739 5.75283 13.3079 5.64222 13.1973 5.53161L13.5845 4.86793C13.6398 4.92324 13.7504 4.97854 13.8057 5.03385C13.9163 5.08916 13.9716 5.14446 14.0822 5.14446C14.1928 5.19977 14.3035 5.19977 14.4141 5.25508C14.5247 5.25508 14.6906 5.31038 14.8565 5.31038C15.133 5.31038 15.3543 5.25508 15.5202 5.19977C15.6861 5.08916 15.7414 4.97854 15.7414 4.86793C15.7414 4.75732 15.6861 4.64671 15.5755 4.5914C15.4649 4.53609 15.299 4.48079 15.0777 4.42548L14.6906 4.37017C14.2481 4.31487 13.9163 4.20425 13.6951 3.98303C13.4739 3.7618 13.3632 3.54058 13.3632 3.20874C13.3632 2.98751 13.4186 2.82159 13.4739 2.65568C13.5292 2.48976 13.6398 2.37914 13.8057 2.26853C13.9716 2.15792 14.1375 2.10261 14.3035 1.992C14.5247 1.93669 14.7459 1.88139 14.9671 1.88139C15.299 1.88139 15.5755 1.93669 15.852 1.992C16.1286 2.0473 16.3498 2.15792 16.571 2.32384L16.1286 3.04282ZM20.2212 2.82159H18.728V4.53609C18.728 4.64671 18.728 4.75732 18.7833 4.86793C18.8386 4.97854 18.8386 5.03385 18.8939 5.08916C18.9492 5.14446 19.0045 5.19977 19.1151 5.19977C19.1704 5.19977 19.281 5.25508 19.3363 5.25508C19.4469 5.25508 19.6129 5.25508 19.7235 5.19977C19.8894 5.14446 20 5.08916 20.1106 5.03385L20.4425 5.69753C20.2765 5.80814 20.1106 5.91875 19.8894 5.97406C19.6682 6.02937 19.4469 6.08467 19.2257 6.08467C18.7833 6.08467 18.4514 5.97406 18.1749 5.69753C17.8984 5.421 17.7878 5.03385 17.7878 4.53609V2.76629H17.0135V1.992H17.7878V0.775258H18.6727V1.992H20.1659V2.82159H20.2212ZM22.8759 1.93669C23.1525 1.93669 23.429 1.992 23.6502 2.10261C23.8715 2.21322 24.0927 2.32384 24.2586 2.54506C24.4245 2.71098 24.5351 2.93221 24.6458 3.20874C24.7564 3.48527 24.8117 3.7618 24.8117 4.03834C24.8117 4.09364 24.8117 4.14895 24.8117 4.20425C24.8117 4.25956 24.8117 4.31487 24.8117 4.37017H21.8804C21.8804 4.53609 21.9357 4.70201 22.0463 4.81262C22.1017 4.92324 22.2123 5.03385 22.3229 5.14446C22.4335 5.19977 22.5441 5.31038 22.6547 5.31038C22.7653 5.36569 22.9313 5.36569 23.0419 5.36569C23.2631 5.36569 23.429 5.31038 23.6502 5.25508C23.8715 5.19977 24.0374 5.08916 24.2033 4.92324L24.6458 5.53161C24.4245 5.75283 24.148 5.86345 23.8715 5.97406C23.5949 6.02937 23.3184 6.08467 22.9866 6.08467C22.71 6.08467 22.4335 6.02937 22.157 5.91875C21.9357 5.80814 21.7145 5.69753 21.4933 5.4763C21.3274 5.31038 21.1614 5.08916 21.0508 4.81262C20.9402 4.53609 20.8849 4.25956 20.8849 3.98303C20.8849 3.65119 20.9402 3.37466 21.0508 3.15343C21.1614 2.8769 21.2721 2.65568 21.438 2.48976C21.6039 2.32384 21.8251 2.15792 22.0463 2.0473C22.3229 1.992 22.5994 1.93669 22.8759 1.93669ZM22.8759 2.71098C22.71 2.71098 22.5994 2.71098 22.4888 2.76629C22.3782 2.82159 22.2676 2.8769 22.157 2.98751C22.0464 3.09813 21.991 3.15343 21.9357 3.31935C21.8804 3.42997 21.8251 3.59588 21.8251 3.7065H23.8715C23.8162 3.37466 23.7055 3.15343 23.5396 2.98751C23.3737 2.76629 23.1525 2.71098 22.8759 2.71098ZM27.7429 1.93669C27.8535 1.93669 28.0194 1.93669 28.0747 1.93669C28.1854 1.93669 28.296 1.992 28.4066 2.0473L28.1854 2.8769C28.0747 2.82159 27.9641 2.82159 27.8535 2.76629C27.7429 2.76629 27.6323 2.71098 27.5217 2.71098C27.4111 2.71098 27.2452 2.71098 27.1345 2.76629C27.0239 2.82159 26.9133 2.8769 26.858 2.98751C26.8027 3.09813 26.6921 3.20874 26.6368 3.31935C26.5815 3.42997 26.5815 3.59588 26.5815 3.7618V5.91875H25.6966V1.93669H26.5262V2.37914C26.6368 2.21322 26.8027 2.0473 27.0239 1.93669C27.3005 1.992 27.5217 1.93669 27.7429 1.93669ZM30.7295 1.93669C31.006 1.93669 31.2825 1.992 31.5591 2.10261C31.8356 2.21322 32.0568 2.37914 32.2227 2.60037L31.6697 3.20874C31.5037 3.09813 31.3931 2.98751 31.2272 2.8769C31.0613 2.82159 30.8954 2.76629 30.7295 2.76629C30.5635 2.76629 30.3976 2.82159 30.287 2.8769C30.1211 2.93221 30.0105 3.04282 29.8999 3.15343C29.7892 3.26405 29.7339 3.37466 29.6786 3.54058C29.6233 3.7065 29.568 3.87242 29.568 4.03834C29.568 4.20425 29.6233 4.37017 29.6786 4.53609C29.7339 4.70201 29.8446 4.81263 29.8999 4.92324C30.0105 5.03385 30.1211 5.14446 30.287 5.19977C30.4529 5.25508 30.5635 5.31038 30.7295 5.31038C30.8954 5.31038 31.1166 5.25508 31.2825 5.19977C31.4484 5.14446 31.6144 5.03385 31.725 4.92324L32.278 5.53161C32.1121 5.75283 31.8909 5.91875 31.6144 6.02937C31.3378 6.13998 31.0613 6.19528 30.7848 6.19528C30.4529 6.19528 30.1764 6.13998 29.9552 6.02937C29.6786 5.91875 29.4574 5.75283 29.2915 5.58691C29.1256 5.421 28.9597 5.19977 28.849 4.92324C28.7384 4.64671 28.6831 4.37017 28.6831 4.09364C28.6831 3.81711 28.7384 3.54058 28.849 3.26405C28.9597 2.98751 29.0703 2.76629 29.2915 2.60037C29.4574 2.43445 29.6786 2.26853 29.9552 2.15792C30.1211 1.992 30.3976 1.93669 30.7295 1.93669ZM36.8132 6.02937H35.9283V5.53161C35.8176 5.69753 35.5964 5.86345 35.4305 5.97406C35.2093 6.08467 34.988 6.13998 34.7115 6.13998C34.435 6.13998 34.1585 6.08467 33.9372 5.97406C33.716 5.86345 33.4948 5.75283 33.3289 5.53161C33.1629 5.36569 32.997 5.14446 32.8864 4.86793C32.7758 4.5914 32.7205 4.31487 32.7205 4.03834C32.7205 3.7618 32.7758 3.42997 32.8864 3.20874C32.997 2.93221 33.1076 2.71098 33.3289 2.54506C33.4948 2.37914 33.716 2.21322 33.9372 2.10261C34.1585 1.992 34.435 1.93669 34.7115 1.93669C34.988 1.93669 35.2646 1.992 35.4305 2.10261C35.6517 2.21322 35.8176 2.32384 35.9283 2.54506V2.0473H36.8132V6.02937ZM34.8221 2.76629C34.6562 2.76629 34.4903 2.82159 34.3244 2.8769C34.1585 2.93221 34.0478 3.04282 33.9372 3.15343C33.8266 3.26405 33.7713 3.37466 33.716 3.54058C33.6607 3.7065 33.6607 3.87242 33.6607 4.03834C33.6607 4.20425 33.716 4.37017 33.716 4.53609C33.7713 4.70201 33.8266 4.81263 33.9372 4.92324C34.0478 5.03385 34.1585 5.14446 34.3244 5.19977C34.4903 5.25508 34.6562 5.31038 34.8221 5.31038C34.9881 5.31038 35.154 5.25508 35.3199 5.19977C35.4858 5.14446 35.5964 5.03385 35.707 4.92324C35.8176 4.81263 35.873 4.70201 35.9283 4.53609C35.9836 4.37017 36.0389 4.20425 36.0389 4.03834C36.0389 3.87242 35.9836 3.7065 35.9283 3.54058C35.873 3.37466 35.7623 3.26405 35.707 3.15343C35.5964 3.04282 35.4858 2.93221 35.3199 2.8769C35.154 2.76629 34.9881 2.76629 34.8221 2.76629ZM40.0762 1.93669C40.1869 1.93669 40.3528 1.93669 40.4081 1.93669C40.5187 1.93669 40.6293 1.992 40.7399 2.0473L40.5187 2.8769C40.4081 2.82159 40.2975 2.82159 40.1869 2.76629C40.0762 2.76629 39.9656 2.71098 39.855 2.71098C39.7444 2.71098 39.5785 2.71098 39.4679 2.76629C39.3573 2.82159 39.2466 2.8769 39.1913 2.98751C39.136 3.09813 39.0254 3.20874 38.9701 3.31935C38.9148 3.42997 38.9148 3.59588 38.9148 3.7618V5.91875H38.0299V1.93669H38.8595V2.37914C38.9701 2.21322 39.136 2.0473 39.3573 1.93669C39.6338 1.992 39.855 1.93669 40.0762 1.93669ZM42.9522 1.93669C43.2287 1.93669 43.5052 1.992 43.6712 2.10261C43.8924 2.21322 44.0583 2.32384 44.1689 2.54506V0.0562744H45.0538V6.02937H44.1689V5.53161C44.0583 5.69753 43.8371 5.86345 43.6712 5.97406C43.4499 6.08467 43.2287 6.13998 42.9522 6.13998C42.6756 6.13998 42.3991 6.08467 42.1779 5.97406C41.9567 5.86345 41.7354 5.75283 41.5695 5.53161C41.4036 5.36569 41.2377 5.14446 41.1271 4.86793C41.0164 4.5914 40.9611 4.31487 40.9611 4.03834C40.9611 3.7618 41.0164 3.42997 41.1271 3.20874C41.2377 2.93221 41.3483 2.71098 41.5695 2.54506C41.7354 2.37914 41.9567 2.21322 42.1779 2.10261C42.3991 1.992 42.6756 1.93669 42.9522 1.93669ZM46.0493 5.64222C46.1046 5.64222 46.1046 5.64222 46.1599 5.64222C46.2153 5.64222 46.2153 5.69753 46.2153 5.69753L46.2706 5.75283C46.2706 5.80814 46.2706 5.80814 46.2706 5.86345C46.2706 5.91875 46.2706 5.91875 46.2706 5.97406C46.2706 6.02937 46.2153 6.02937 46.2153 6.02937L46.1599 6.08467C46.1046 6.08467 46.1046 6.08467 46.0493 6.08467C45.994 6.08467 45.994 6.08467 45.9387 6.08467C45.8834 6.08467 45.8834 6.02937 45.8834 6.02937L45.8281 5.97406C45.8281 5.91875 45.8281 5.91875 45.8281 5.86345C45.8281 5.80814 45.8281 5.80814 45.8281 5.75283C45.8281 5.69753 45.8834 5.69753 45.8834 5.69753L45.9387 5.64222C45.994 5.64222 45.994 5.64222 46.0493 5.64222ZM46.0493 6.08467H46.1046C46.1046 6.08467 46.1599 6.08467 46.1599 6.02937L46.2153 5.97406V5.91875V5.86345C46.2153 5.86345 46.2153 5.80814 46.1599 5.80814L46.1046 5.75283H46.0493H45.994C45.994 5.75283 45.9387 5.75283 45.9387 5.80814L45.8834 5.86345V5.91875V5.97406C45.8834 5.97406 45.8834 6.02937 45.9387 6.02937L45.994 6.08467H46.0493ZM46.0493 5.75283C46.1046 5.75283 46.1046 5.75283 46.1046 5.75283V5.80814V5.86345H46.0493L46.1046 5.97406H46.0493L45.994 5.86345V5.97406H45.9387V5.75283H46.0493ZM45.994 5.80814V5.86345H46.0493C46.0493 5.86345 46.0493 5.86345 46.1046 5.86345C46.1046 5.86345 46.1046 5.86345 46.0493 5.86345H45.994V5.80814ZM43.0628 2.76629C42.8969 2.76629 42.7309 2.82159 42.565 2.8769C42.3991 2.93221 42.2885 3.04282 42.1779 3.15343C42.0673 3.26405 42.012 3.37466 41.9567 3.54058C41.846 3.7065 41.846 3.87242 41.846 4.03834C41.846 4.20425 41.9013 4.37017 41.9013 4.53609C41.9567 4.70201 42.012 4.81263 42.1226 4.92324C42.2332 5.03385 42.3438 5.14446 42.5097 5.19977C42.6756 5.25508 42.8416 5.31038 43.0075 5.31038C43.1734 5.31038 43.3393 5.25508 43.5052 5.19977C43.6712 5.14446 43.7818 5.03385 43.8924 4.92324C44.003 4.81263 44.0583 4.70201 44.1136 4.53609C44.1689 4.37017 44.2242 4.20425 44.2242 4.03834C44.2242 3.87242 44.1689 3.7065 44.1136 3.54058C44.0583 3.37466 43.9477 3.26405 43.8924 3.15343C43.7818 3.04282 43.6712 2.93221 43.5052 2.8769C43.3946 2.76629 43.2287 2.76629 43.0628 2.76629Z" fill="#19191E"/>
</svg>
