<svg width="30" height="13" viewBox="0 0 30 13" fill="none" xmlns="http://www.w3.org/2000/svg">
<g clip-path="url(#clip0_2838_15473)">
<path fill-rule="evenodd" clip-rule="evenodd" d="M29.6686 6.24457C29.6686 4.19657 28.6766 2.58057 26.7806 2.58057C24.8766 2.58057 23.7246 4.19657 23.7246 6.22857C23.7246 8.63657 25.0846 9.85257 27.0366 9.85257C27.9886 9.85257 28.7086 9.63657 29.2526 9.33257V7.73257C28.7086 8.00457 28.0846 8.17257 27.2926 8.17257C26.5166 8.17257 25.8286 7.90057 25.7406 6.95657H29.6526C29.6526 6.85257 29.6686 6.43657 29.6686 6.24457ZM25.7166 5.48457C25.7166 4.58057 26.2686 4.20457 26.7726 4.20457C27.2606 4.20457 27.7806 4.58057 27.7806 5.48457H25.7166Z" fill="#19191E"/>
<path fill-rule="evenodd" clip-rule="evenodd" d="M20.6371 2.58057C19.8531 2.58057 19.3491 2.94857 19.0691 3.20457L18.9651 2.70857H17.2051V12.0366L19.2051 11.6126L19.2131 9.34857C19.5011 9.55657 19.9251 9.85257 20.6291 9.85257C22.0611 9.85257 23.3651 8.70057 23.3651 6.16457C23.3571 3.84457 22.0371 2.58057 20.6371 2.58057ZM20.1571 8.09257C19.6851 8.09257 19.4051 7.92457 19.2131 7.71657L19.2051 4.74857C19.4131 4.51657 19.7011 4.35657 20.1571 4.35657C20.8851 4.35657 21.3891 5.17257 21.3891 6.22057C21.3891 7.29257 20.8931 8.09257 20.1571 8.09257Z" fill="#19191E"/>
<path fill-rule="evenodd" clip-rule="evenodd" d="M14.4531 2.10861L16.4611 1.67661V0.0526123L14.4531 0.476612V2.10861Z" fill="#19191E"/>
<path d="M16.4611 2.71655H14.4531V9.71655H16.4611V2.71655Z" fill="#19191E"/>
<path fill-rule="evenodd" clip-rule="evenodd" d="M12.3013 3.3086L12.1733 2.7166H10.4453V9.7166H12.4453V4.9726C12.9173 4.3566 13.7173 4.4686 13.9653 4.5566V2.7166C13.7093 2.6206 12.7733 2.4446 12.3013 3.3086Z" fill="#19191E"/>
<path fill-rule="evenodd" clip-rule="evenodd" d="M8.3018 0.980591L6.3498 1.39659L6.3418 7.80459C6.3418 8.98859 7.2298 9.86059 8.4138 9.86059C9.0698 9.86059 9.5498 9.74059 9.8138 9.59659V7.97259C9.5578 8.07659 8.2938 8.44459 8.2938 7.26059V4.42059H9.8138V2.71659H8.2938L8.3018 0.980591Z" fill="#19191E"/>
<path fill-rule="evenodd" clip-rule="evenodd" d="M2.89314 4.74857C2.89314 4.43657 3.14914 4.31657 3.57314 4.31657C4.18114 4.31657 4.94914 4.50057 5.55714 4.82857V2.94857C4.89314 2.68457 4.23714 2.58057 3.57314 2.58057C1.94914 2.58057 0.869141 3.42857 0.869141 4.84457C0.869141 7.05257 3.90914 6.70057 3.90914 7.65257C3.90914 8.02057 3.58914 8.14057 3.14114 8.14057C2.47714 8.14057 1.62914 7.86857 0.95714 7.50057V9.40457C1.70114 9.72457 2.45314 9.86057 3.14114 9.86057C4.80514 9.86057 5.94914 9.03657 5.94914 7.60457C5.94114 5.22057 2.89314 5.64457 2.89314 4.74857Z" fill="#19191E"/>
</g>
<defs>
<clipPath id="clip0_2838_15473">
<rect width="28.8" height="12" fill="white" transform="translate(0.869141 0.0526123)"/>
</clipPath>
</defs>
</svg>
