<svg width="32" height="20" viewBox="0 0 32 20" fill="none" xmlns="http://www.w3.org/2000/svg">
<path d="M14.4023 11.7041L15.2443 6.32117H16.5673L15.7254 11.7041H14.4023Z" fill="#19191E"/>
<path d="M10.4939 6.32129H12.5987C13.9217 6.32129 14.2825 7.1165 14.1021 8.03405C13.9818 8.82926 13.4406 9.31862 12.7189 9.50213L14.0419 11.7043H12.298L11.2756 9.5633L10.975 11.7043H9.5918L10.4939 6.32129ZM11.6966 7.36118L11.456 8.70692H11.877C12.2378 8.70692 12.5987 8.40107 12.6588 8.03405C12.7189 7.66703 12.4784 7.36118 12.0574 7.36118H11.6966Z" fill="#19191E"/>
<path d="M20.5977 11.7043L21.4396 6.32129H22.8227L21.9808 11.7043H20.5977Z" fill="#19191E"/>
<path d="M25.0486 7.4834L24.8682 8.40095H26.4317L26.2513 9.56318H24.6877L24.5675 10.5419H26.1912L26.0108 11.7041H23.0039L23.8458 6.32117H26.8527L26.6723 7.4834H25.0486Z" fill="#19191E"/>
<path d="M7.84935 7.4834L7.72908 8.40095H9.29264L9.11223 9.56318H7.54866L7.36825 10.5419H8.99195L8.81154 11.7041H5.80469L6.64661 6.32117H9.65346L9.47305 7.4834H7.84935Z" fill="#19191E"/>
<path d="M18.7947 7.48352L18.6744 8.40107H20.1778L19.9974 9.5633H18.494L18.1332 11.7043H16.75L17.5919 6.32129H20.6589L20.4785 7.48352H18.7947Z" fill="#19191E"/>
<path d="M29.437 6.32129H27.6329L26.791 11.7043H28.5951C30.279 11.7043 31.6621 10.542 31.9027 9.01277C32.0229 7.97288 31.5418 6.32129 29.437 6.32129ZM30.4594 8.9516C30.279 9.93032 29.6175 10.542 28.7154 10.542C28.5951 10.542 28.4749 10.542 28.3546 10.542L28.8357 7.48352C28.956 7.48352 29.0161 7.48352 29.1364 7.48352C30.1587 7.48352 30.5797 8.21756 30.4594 8.9516Z" fill="#19191E"/>
<path d="M0.271484 5.58728H2.79724L3.09793 9.50216C4.78177 6.566 6.46561 3.75218 8.20958 0.938354H9.0515C7.24739 4.48622 5.44328 8.09525 3.6993 11.7043H1.83505L1.35395 7.36121C1.23368 6.32132 1.05327 5.83196 0.271484 5.77079V5.58728Z" fill="#19191E"/>
<path d="M3.7 6.7494L5.68452 3.32388V3.20154H1.23438V3.32388L3.39931 4.3026L3.57972 6.7494H3.7Z" fill="#19191E"/>
<path d="M11.577 14.7017C11.2162 14.7017 10.9155 14.8852 10.675 15.1298L10.9757 12.9889H10.0736L9.41211 17.699H10.3142L10.3743 17.332C10.5547 17.5766 10.7953 17.7602 11.1561 17.7602C11.8777 17.7602 12.5392 17.0873 12.6595 16.2309C12.7798 15.3745 12.2987 14.7017 11.577 14.7017ZM11.6973 16.2309C11.6372 16.5979 11.3365 16.9038 11.0358 16.9038C10.7351 16.9038 10.4946 16.5979 10.5547 16.2309C10.6149 15.8639 10.9155 15.558 11.2162 15.558C11.5169 15.558 11.7575 15.8639 11.6973 16.2309Z" fill="#19191E"/>
<path d="M15.1847 14.7628H16.207L13.5008 19.1671H12.4785L13.6211 17.332L12.7191 14.7628H13.7414L14.2225 16.2921L15.1847 14.7628Z" fill="#19191E"/>
<path d="M22.2824 17.699H21.0195L22.4628 12.9889H23.7257L22.2824 17.699Z" fill="#19191E"/>
<path d="M20.4769 12.9889L18.793 16.0474L18.6727 12.9889H16.5078V13.1724C17.2295 13.1724 17.3497 13.2947 17.47 13.8453L17.891 17.699H19.214L21.86 12.9889H20.4769Z" fill="#19191E"/>
<path d="M28.7151 17.0261L28.4144 17.699H27.0312L29.557 12.9889H31.2408L31.6618 17.699H30.6996H30.2787L30.2185 17.0261H28.7151ZM29.136 16.1086H30.2185L30.0982 13.9064L29.136 16.1086Z" fill="#19191E"/>
<path d="M25.0494 17.8214C24.1473 17.8214 23.546 17.5155 23.125 17.2708L23.7264 16.3533C24.0872 16.598 24.3879 16.8426 25.1095 16.8426C25.3501 16.8426 25.5305 16.7815 25.6508 16.598C25.8312 16.2921 25.5906 16.1086 25.1095 15.8639L24.869 15.6192C24.1473 15.1299 23.7865 14.6405 24.1473 13.7841C24.3879 13.2336 24.9291 12.8666 25.8913 12.8666C26.5528 12.8666 27.1542 13.1724 27.515 13.4171L26.7934 14.2123C26.4325 13.9065 26.1319 13.7841 25.8312 13.7841C25.5906 13.7841 25.3501 13.9065 25.2899 14.0288C25.1697 14.2735 25.3501 14.457 25.7109 14.7017L26.0116 14.8852C26.9136 15.4357 27.094 16.0474 26.9136 16.598C26.613 17.6378 25.8312 17.8214 25.0494 17.8214Z" fill="#19191E"/>
</svg>
