<svg width="31" height="10" viewBox="0 0 31 10" fill="none" xmlns="http://www.w3.org/2000/svg">
<path d="M28.9028 0.578979H27.0169C26.4467 0.578979 26.0081 0.754418 25.7449 1.32459L22.1484 9.52635H24.6923C24.6923 9.52635 25.1309 8.42986 25.2186 8.1667C25.4818 8.1667 27.9818 8.1667 28.3326 8.1667C28.4204 8.47372 28.6397 9.48249 28.6397 9.48249H30.9204L28.9028 0.578979ZM25.9204 6.32459C26.1397 5.79828 26.8853 3.82459 26.8853 3.82459C26.8853 3.86845 27.1046 3.29828 27.1923 2.99126L27.3677 3.78073C27.3677 3.78073 27.8502 5.92986 27.9379 6.36845H25.9204V6.32459Z" fill="#19191E"/>
<path d="M22.3233 6.58774C22.3233 8.42984 20.6566 9.65791 18.0689 9.65791C16.9724 9.65791 15.9198 9.43862 15.3496 9.17546L15.7005 7.15791L16.0075 7.28949C16.797 7.64037 17.3233 7.77195 18.2882 7.77195C18.99 7.77195 19.7356 7.50879 19.7356 6.89476C19.7356 6.50002 19.4286 6.23686 18.4636 5.79826C17.5426 5.35967 16.3145 4.65791 16.3145 3.38598C16.3145 1.6316 18.025 0.447388 20.4373 0.447388C21.3584 0.447388 22.1479 0.622826 22.6303 0.842125L22.2794 2.77195L22.104 2.59651C21.6654 2.42107 21.0952 2.24563 20.2619 2.24563C19.3408 2.28949 18.9022 2.68423 18.9022 3.03511C18.9022 3.42984 19.4286 3.73686 20.2619 4.1316C21.6654 4.78949 22.3233 5.53511 22.3233 6.58774Z" fill="#19191E"/>
<path d="M0.919922 0.666772L0.963782 0.491333H4.73571C5.26203 0.491333 5.65676 0.666772 5.78834 1.23695L6.62168 5.18432C5.78834 3.07905 3.85852 1.36853 0.919922 0.666772Z" fill="#19191E"/>
<path d="M11.9285 0.578894L8.11273 9.4824H5.52501L3.33203 2.02626C4.91098 3.03503 6.22677 4.61398 6.70922 5.71047L6.97238 6.63153L9.3408 0.535034H11.9285V0.578894Z" fill="#19191E"/>
<path d="M12.9374 0.535034H15.3497L13.8146 9.4824H11.4023L12.9374 0.535034Z" fill="#19191E"/>
</svg>
