<svg width="24" height="24" viewBox="0 0 24 24" fill="none" xmlns="http://www.w3.org/2000/svg">
<path d="M12 24C18.6274 24 24 18.6274 24 12C24 5.3726 18.6274 0 12 0C5.3726 0 0 5.3726 0 12C0 18.6274 5.3726 24 12 24Z" fill="url(#paint0_linear_2838_15403)"/>
<path d="M4.46882 12.5869C5.87161 11.8142 7.43751 11.1693 8.90061 10.5211C11.4177 9.45944 13.9448 8.41614 16.4974 7.44484C16.9941 7.27934 17.8864 7.11749 17.9739 7.85349C17.926 8.89529 17.7289 9.93099 17.5937 10.9667C17.2506 13.2443 16.854 15.5141 16.4672 17.7842C16.334 18.5403 15.3867 18.9318 14.7806 18.4479C13.324 17.464 11.8562 16.4897 10.4182 15.483C9.94716 15.0043 10.384 14.317 10.8047 13.9752C12.0044 12.7929 13.2767 11.7884 14.4137 10.545C14.7204 9.80434 13.8142 10.4285 13.5153 10.6198C11.8729 11.7516 10.2707 12.9525 8.53906 13.9472C7.65456 14.4341 6.62366 14.018 5.73956 13.7463C4.94685 13.4181 3.78524 13.0874 4.46874 12.587L4.46882 12.5869Z" fill="white"/>
<defs>
<linearGradient id="paint0_linear_2838_15403" x1="9.0014" y1="1.0008" x2="3.0014" y2="15" gradientUnits="userSpaceOnUse">
<stop stop-color="#37AEE2"/>
<stop offset="1" stop-color="#1E96C8"/>
</linearGradient>
</defs>
</svg>
