<?xml version="1.0" encoding="UTF-8"?>
<svg width="14px" height="14px" viewBox="0 0 14 14" version="1.1" xmlns="http://www.w3.org/2000/svg" xmlns:xlink="http://www.w3.org/1999/xlink">
    <!-- Generator: Sketch 41.2 (35397) - http://www.bohemiancoding.com/sketch -->
    <title>Shape</title>
    <desc>Created with Sketch.</desc>
    <defs></defs>
    <g id="Matrix" stroke="none" stroke-width="1" fill="none" fill-rule="evenodd">
        <g id="1280-–-Matrix" transform="translate(-393.000000, -1613.000000)" fill="#4A4A4A">
            <g id="Group-21" transform="translate(-130.000000, 1356.000000)">
                <g id="1">
                    <g id="Group-19" transform="translate(285.000000, 248.000000)">
                        <g id="Group-18">
                            <g id="Group-20" transform="translate(120.000000, 0.000000)">
                                <g id="Group-17" transform="translate(80.000000, 6.000000)">
                                    <path d="M52,11.4 L46.1052632,7.9 L46.1052632,4.05 C46.1052632,3.469 45.6115789,3 45,3 C44.3884211,3 43.8947368,3.469 43.8947368,4.05 L43.8947368,7.9 L38,11.4 L38,12.8 L43.8947368,11.05 L43.8947368,14.9 L42.4210526,15.95 L42.4210526,17 L45,16.3 L47.5789474,17 L47.5789474,15.95 L46.1052632,14.9 L46.1052632,11.05 L52,12.8 L52,11.4 Z" id="Shape" transform="translate(45.000000, 10.000000) rotate(-270.000000) translate(-45.000000, -10.000000) "></path>
                                </g>
                            </g>
                        </g>
                    </g>
                </g>
            </g>
        </g>
    </g>
</svg>