<svg width="34" height="24" viewBox="0 0 34 24" fill="none" xmlns="http://www.w3.org/2000/svg">
<g clip-path="url(#clip0_5802_50311)">
<path d="M2.63632 0.330078H31.0481C32.1684 0.330078 33.0775 1.23921 33.0775 2.36046V21.6399C33.0775 22.7601 32.1684 23.6693 31.0481 23.6693H2.63632C1.51506 23.6694 0.606934 22.7601 0.606934 21.64V2.36046C0.606934 1.23921 1.51607 0.330078 2.63632 0.330078Z" fill="#26A6D1"/>
<path d="M5.84273 8.44727L2.63623 15.5432H6.47486L6.95074 14.4118H8.0385L8.51438 15.5432H12.7396V14.6796L13.1161 15.5432H15.3018L15.6783 14.6614V15.5432H24.4657L25.5342 14.4412L26.5347 15.5432L31.048 15.5523L27.8314 12.015L31.048 8.44727H26.6047L25.5645 9.5289L24.5955 8.44727H15.036L14.2151 10.2788L13.375 8.44727H9.54437V9.28139L9.11824 8.44727H5.84273ZM6.58549 9.45489H8.45662L10.5835 14.2667V9.45489H12.6332L14.276 12.9049L15.79 9.45489H17.8295V14.5467H16.5885L16.5784 10.5568L14.7691 14.5467H13.659L11.8396 10.5568V14.5467H9.28662L8.80262 13.4051H6.18774L5.70473 14.5457H4.33686L6.58549 9.45489ZM18.9649 9.45489H24.011L25.5544 11.122L27.1475 9.45489H28.6909L26.3459 12.014L28.6909 14.5437H27.0775L25.5342 12.8572L23.9329 14.5437H18.9649V9.45489ZM7.49573 10.3164L6.63423 12.3499H8.35623L7.49573 10.3164ZM20.211 10.5091V11.4386H22.9639V12.4746H20.211V13.4894H23.2988L24.7335 11.9948L23.3596 10.5083H20.211V10.5091Z" fill="white"/>
</g>
<defs>
<clipPath id="clip0_5802_50311">
<rect width="32.4706" height="24" fill="white" transform="translate(0.606934)"/>
</clipPath>
</defs>
</svg>
