<svg width="136" height="36" viewBox="0 0 136 36" fill="none" xmlns="http://www.w3.org/2000/svg">
<g clip-path="url(#clip0_344_4002)">
<path d="M21.584 16.7421C21.5505 12.7664 24.8632 10.8284 25.0175 10.7418C23.1398 8.02476 20.2294 7.65182 19.2033 7.62519C16.7557 7.37216 14.3884 9.07701 13.1411 9.07701C11.8737 9.07701 9.95566 7.65182 7.88355 7.69182C5.22123 7.73173 2.73329 9.26349 1.37199 11.6343C-1.44456 16.4758 0.654457 23.5881 3.35699 27.504C4.70484 29.422 6.28082 31.5597 8.34628 31.4864C10.3648 31.4065 11.1225 30.2078 13.5568 30.2078C15.9711 30.2078 16.6819 31.4864 18.7875 31.4398C20.9536 31.4065 22.3217 29.5152 23.6225 27.5839C25.1851 25.3863 25.8088 23.222 25.8356 23.1153C25.782 23.082 21.6241 21.5038 21.584 16.7421ZM17.6073 5.04794C18.6937 3.69607 19.438 1.86469 19.2301 0C17.6609 0.0665601 15.6893 1.07882 14.5627 2.39745C13.5635 3.56286 12.665 5.46747 12.8997 7.25893C14.6566 7.38544 16.4739 6.37318 17.6073 5.04794Z" fill="white"/>
<path d="M50.8426 31.1994H48.0194L46.4704 26.3778H41.0988L39.6234 31.1994H36.874L42.1986 14.7768H45.4845L50.8426 31.1994ZM46.0076 24.3534L44.6061 20.0647C44.4586 19.6249 44.1768 18.5928 43.7745 16.9679H43.7276C43.5666 17.6671 43.2984 18.6993 42.9429 20.0647L41.5683 24.3534H46.0076ZM64.5099 25.1325C64.5099 27.1438 63.9598 28.7354 62.8599 29.9074C61.8738 30.9464 60.6469 31.4658 59.1849 31.4658C57.6021 31.4658 56.4691 30.9063 55.7787 29.7875V36.001H53.1295V23.2478C53.1295 21.9825 53.0962 20.6839 53.0289 19.3586H55.3621L55.5104 21.2367H55.5567C56.4424 19.8249 57.7836 19.1122 59.5803 19.1122C60.9887 19.1122 62.1622 19.6651 63.1014 20.7705C64.0399 21.876 64.5099 23.3344 64.5099 25.1325ZM61.8138 25.2324C61.8138 24.0804 61.552 23.128 61.0293 22.3821C60.4588 21.6029 59.6881 21.2167 58.7221 21.2167C58.0721 21.2167 57.4749 21.4365 56.945 21.8626C56.4156 22.2955 56.0664 22.8616 55.9059 23.5541C55.8322 23.814 55.7917 24.087 55.7852 24.3534V26.3312C55.7852 27.1902 56.0533 27.9162 56.5833 28.5156C57.1127 29.1083 57.8039 29.4079 58.6548 29.4079C59.6541 29.4079 60.4321 29.0217 60.9887 28.2625C61.5318 27.49 61.8138 26.4843 61.8138 25.2324ZM78.23 25.1325C78.23 27.1438 77.6806 28.7354 76.5801 29.9074C75.5947 30.9464 74.3677 31.4658 72.9056 31.4658C71.3229 31.4658 70.1892 30.9063 69.4987 29.7875V36.001H66.8496V23.2478C66.8496 21.9825 66.8163 20.6839 66.7492 19.3586H69.083L69.2305 21.2367H69.2776C70.1625 19.8249 71.5037 19.1122 73.3012 19.1122C74.7096 19.1122 75.8831 19.6651 76.8215 20.7705C77.7543 21.876 78.23 23.3344 78.23 25.1325ZM75.5274 25.2324C75.5274 24.0804 75.2663 23.128 74.7428 22.3821C74.1731 21.6029 73.4017 21.2167 72.4364 21.2167C71.7857 21.2167 71.1885 21.4365 70.652 21.8626C70.1227 22.2955 69.7735 22.8616 69.6129 23.5541C69.532 23.8806 69.4858 24.1469 69.4858 24.3534V26.3312C69.4858 27.1902 69.754 27.9162 70.2832 28.5156C70.8132 29.1083 71.5037 29.4079 72.3628 29.4079C73.3611 29.4079 74.1391 29.0217 74.696 28.2625C75.2526 27.49 75.5274 26.4843 75.5274 25.2324ZM93.5668 26.5975C93.5668 27.9961 93.0774 29.1349 92.0983 30.0073C91.0254 30.9664 89.5165 31.4459 87.5917 31.4459C85.8146 31.4459 84.3865 31.1062 83.3065 30.4201L83.9166 28.2293C85.077 28.9152 86.3576 29.2547 87.7458 29.2547C88.745 29.2547 89.523 29.0284 90.0797 28.5822C90.6364 28.136 90.9177 27.5367 90.9177 26.7907C90.9177 26.1248 90.6834 25.5654 90.2272 25.1058C89.7709 24.6531 89.0132 24.2268 87.9475 23.8406C85.0503 22.7683 83.6015 21.1967 83.6015 19.1389C83.6015 17.7937 84.1111 16.6882 85.1371 15.8292C86.1566 14.97 87.5115 14.5371 89.2012 14.5371C90.7036 14.5371 91.9574 14.7968 92.9567 15.3163L92.2928 17.4607C91.3536 16.9546 90.301 16.7082 89.1137 16.7082C88.1817 16.7082 87.4442 16.9346 86.9208 17.3874C86.4782 17.7937 86.2571 18.2865 86.2571 18.8726C86.2571 19.5184 86.5123 20.058 87.022 20.4775C87.4645 20.8638 88.2621 21.2899 89.4225 21.7428C90.8438 22.3155 91.8901 22.9748 92.5611 23.7407C93.2314 24.5066 93.5668 25.4589 93.5668 26.5975ZM102.352 21.3366H99.4277V27.0837C99.4277 28.5489 99.944 29.2748 100.978 29.2748C101.453 29.2748 101.842 29.2348 102.158 29.1549L102.231 31.1528C101.708 31.346 101.024 31.4459 100.172 31.4459C99.1261 31.4459 98.3077 31.126 97.7177 30.4935C97.1278 29.8608 96.8327 28.7953 96.8327 27.3036V21.3366H95.096V19.3653H96.8327V17.1943L99.4349 16.4152V19.3653H102.358L102.352 21.3366ZM115.502 25.1858C115.502 27.0038 114.979 28.5023 113.933 29.6677C112.84 30.873 111.385 31.4725 109.568 31.4725C107.817 31.4725 106.422 30.893 105.382 29.7476C104.344 28.5955 103.828 27.137 103.828 25.3856C103.828 23.5476 104.364 22.0491 105.436 20.877C106.51 19.7049 107.952 19.1255 109.768 19.1255C111.518 19.1255 112.927 19.7049 113.987 20.8571C114.992 21.9692 115.502 23.4143 115.502 25.1858ZM112.754 25.2458C112.754 24.1602 112.518 23.2278 112.042 22.4553C111.485 21.5164 110.693 21.0436 109.662 21.0436C108.601 21.0436 107.783 21.5164 107.234 22.4553C106.758 23.2344 106.523 24.1802 106.523 25.299C106.523 26.3845 106.758 27.3169 107.234 28.0961C107.804 29.035 108.608 29.5079 109.641 29.5079C110.654 29.5079 111.445 29.0284 112.022 28.0761C112.511 27.2703 112.754 26.3312 112.754 25.2458ZM124.119 21.6762C123.845 21.6296 123.563 21.6029 123.281 21.6029C122.349 21.6029 121.632 21.9492 121.122 22.6485C120.68 23.2678 120.458 24.047 120.458 24.986V31.1994H117.808V23.088C117.808 21.8427 117.788 20.604 117.736 19.3586H120.042L120.136 21.6229H120.21C120.491 20.8437 120.927 20.2178 121.537 19.7448C122.087 19.3319 122.764 19.1122 123.456 19.1122C123.704 19.1122 123.918 19.1322 124.119 19.1589V21.6762ZM135.97 24.7196C135.977 25.1192 135.942 25.5188 135.875 25.9116H127.922C127.948 27.0837 128.337 27.9761 129.075 28.5955C129.745 29.1482 130.611 29.4213 131.678 29.4213C132.858 29.4213 133.93 29.2348 134.897 28.8618L135.312 30.6865C134.185 31.1728 132.851 31.4192 131.315 31.4192C129.465 31.4192 128.016 30.8797 126.956 29.8009C125.903 28.722 125.374 27.2703 125.374 25.4522C125.374 23.6675 125.862 22.1823 126.849 20.9969C127.876 19.7315 129.27 19.0989 131.02 19.0989C132.737 19.0989 134.038 19.7315 134.923 20.9969C135.613 22.0025 135.97 23.2411 135.97 24.7196ZM133.441 24.0403C133.461 23.2611 133.287 22.5885 132.925 22.0158C132.469 21.2833 131.758 20.917 130.811 20.917C129.948 20.917 129.243 21.2766 128.699 21.9892C128.257 22.5552 127.995 23.2411 127.915 24.0337L133.441 24.0403Z" fill="white"/>
<path d="M40.3254 8.97639C39.5878 8.97639 38.9507 8.94307 38.4209 8.88312V0.938272C39.1654 0.825041 39.9164 0.765086 40.6675 0.771763C43.7053 0.771763 45.107 2.25684 45.107 4.67426C45.1001 7.46461 43.4505 8.97639 40.3254 8.97639ZM40.7747 1.7907C40.3657 1.7907 40.0169 1.81733 39.7287 1.87722V7.91086C39.8828 7.93749 40.1846 7.94409 40.607 7.94409C42.5988 7.94409 43.7321 6.81868 43.7321 4.71425C43.7254 2.82959 42.6994 1.7907 40.7747 1.7907ZM49.4658 9.03627C47.7557 9.03627 46.6425 7.7643 46.6425 6.03949C46.6425 4.24136 47.7759 2.96279 49.5597 2.96279C51.2496 2.96279 52.3832 4.17481 52.3832 5.94622C52.3832 7.7643 51.2161 9.03627 49.4658 9.03627ZM49.5127 3.90842C48.5739 3.90842 47.9703 4.78081 47.9703 6.00617C47.9703 7.20489 48.5873 8.07729 49.4993 8.07729C50.4181 8.07729 51.0283 7.14494 51.0283 5.97953C51.0349 4.79416 50.4315 3.90842 49.5127 3.90842ZM62.1469 3.08264L60.3161 8.90308H59.1224L58.3647 6.37911C58.1767 5.75974 58.0162 5.13378 57.8954 4.50114H57.8687C57.7746 5.13378 57.5933 5.7731 57.3987 6.37911L56.594 8.90308H55.3873L53.6636 3.08264H55.0048L55.6685 5.84634C55.8233 6.50562 55.957 7.12498 56.0647 7.71771H56.0916C56.1854 7.22486 56.346 6.61886 56.5745 5.85969L57.406 3.08264H58.4652L59.2633 5.79974C59.4579 6.45903 59.612 7.10502 59.7327 7.71771H59.7659C59.8535 7.1183 59.9807 6.48567 60.1621 5.79974L60.8729 3.08264H62.1469ZM68.8999 8.90308H67.5993V5.55999C67.5993 4.52778 67.2029 4.01497 66.4184 4.01497C65.6477 4.01497 65.1178 4.67426 65.1178 5.4401V8.90308H63.817V4.74749C63.817 4.23476 63.8033 3.68203 63.7701 3.08264H64.9167L64.9767 3.98166H65.0099C65.3593 3.36237 66.07 2.96279 66.8682 2.96279C68.0951 2.96279 68.9064 3.89513 68.9064 5.42013L68.8999 8.90308ZM72.4875 8.90308H71.1868V0.412109H72.4875V8.90308ZM77.2421 9.03627C75.5322 9.03627 74.4188 7.7643 74.4188 6.03949C74.4188 4.24136 75.5525 2.96279 77.3362 2.96279C79.026 2.96279 80.1595 4.17481 80.1595 5.94622C80.1595 7.7643 78.9861 9.03627 77.2421 9.03627ZM77.2892 3.90842C76.3499 3.90842 75.747 4.78081 75.747 6.00617C75.747 7.20489 76.3636 8.07729 77.2754 8.07729C78.1943 8.07729 78.8046 7.14494 78.8046 5.97953C78.8046 4.79416 78.2081 3.90842 77.2892 3.90842ZM85.296 8.90308L85.2019 8.23044H85.1687C84.7732 8.76989 84.1897 9.02959 83.4522 9.02959C82.3988 9.02959 81.6547 8.29707 81.6547 7.31813C81.6547 5.87966 82.9086 5.14046 85.0812 5.14046V5.0339C85.0812 4.26799 84.6726 3.88178 83.8679 3.88178C83.291 3.88178 82.7812 4.02832 82.3388 4.31467L82.0769 3.46224C82.6207 3.12923 83.2975 2.95611 84.0892 2.95611C85.6177 2.95611 86.3957 3.75527 86.3957 5.36016V7.50459C86.3957 8.09065 86.4224 8.55011 86.4832 8.89641L85.296 8.90308ZM85.1152 6.00617C83.6662 6.00617 82.9425 6.35247 82.9425 7.17826C82.9425 7.79094 83.3177 8.09064 83.834 8.09064C84.4984 8.09064 85.1152 7.59112 85.1152 6.90521V6.00617ZM92.7062 8.90308L92.6462 7.97073H92.6122C92.2369 8.67669 91.6066 9.03627 90.728 9.03627C89.313 9.03627 88.2668 7.8043 88.2668 6.06613C88.2668 4.24805 89.3535 2.96279 90.835 2.96279C91.6203 2.96279 92.1763 3.22249 92.485 3.75527H92.5117V0.412109H93.8124V7.33142C93.8124 7.89082 93.8261 8.42359 93.8594 8.89641H92.7062V8.90308ZM92.5182 5.48008C92.5182 4.66757 91.9752 3.96837 91.1438 3.96837C90.1779 3.96837 89.5878 4.8208 89.5878 6.01284C89.5878 7.18495 90.1981 7.99077 91.117 7.99077C91.9348 7.99077 92.5182 7.28482 92.5182 6.44575V5.48008ZM102.089 9.03627C100.378 9.03627 99.2647 7.7643 99.2647 6.03949C99.2647 4.24136 100.397 2.96279 102.182 2.96279C103.872 2.96279 105.005 4.17481 105.005 5.94622C105.005 7.7643 103.839 9.03627 102.089 9.03627ZM102.136 3.90842C101.196 3.90842 100.592 4.78081 100.592 6.00617C100.592 7.20489 101.209 8.07729 102.122 8.07729C103.041 8.07729 103.65 7.14494 103.65 5.97953C103.657 4.79416 103.054 3.90842 102.136 3.90842ZM112.013 8.90308H110.712V5.55999C110.712 4.52778 110.317 4.01497 109.532 4.01497C108.76 4.01497 108.231 4.67426 108.231 5.4401V8.90308H106.929V4.74749C106.929 4.23476 106.916 3.68203 106.882 3.08264H108.029L108.09 3.98166H108.123C108.472 3.36237 109.183 2.96279 109.981 2.96279C111.209 2.96279 112.019 3.89513 112.019 5.42013V8.90308H112.013ZM120.772 4.0549H119.336V6.87856C119.336 7.59779 119.585 7.95745 120.093 7.95745C120.321 7.95745 120.516 7.93082 120.671 7.8975L120.705 8.87644C120.45 8.9697 120.113 9.023 119.692 9.023C118.665 9.023 118.048 8.46358 118.048 6.98512V4.04828H117.19V3.07595H118.048V2.01041L119.33 1.62419V3.07595H120.764L120.772 4.0549ZM127.672 8.90308H126.37V5.58663C126.37 4.54775 125.975 4.02164 125.19 4.02164C124.512 4.02164 123.889 4.47449 123.889 5.40017V8.90976H122.588V0.412109H123.889V3.90842H123.916C124.326 3.27577 124.922 2.96279 125.68 2.96279C126.92 2.96279 127.678 3.92169 127.678 5.4401L127.672 8.90308ZM134.732 6.30587H130.822C130.85 7.40472 131.581 8.03069 132.667 8.03069C133.244 8.03069 133.78 7.93749 134.25 7.75763L134.452 8.65665C133.894 8.89641 133.244 9.01631 132.486 9.01631C130.656 9.01631 129.57 7.86418 129.57 6.0861C129.57 4.30132 130.683 2.96279 132.339 2.96279C133.834 2.96279 134.774 4.06157 134.774 5.72651C134.786 5.91297 134.774 6.11273 134.732 6.30587ZM133.539 5.3802C133.539 4.48111 133.083 3.84846 132.253 3.84846C131.501 3.84846 130.911 4.49446 130.83 5.3802H133.539Z" fill="white"/>
</g>
<defs>
<clipPath id="clip0_344_4002">
<rect width="135.932" height="36" fill="white" transform="translate(0.0341797)"/>
</clipPath>
</defs>
</svg>
