<svg width="170" height="52" viewBox="0 0 170 52" fill="none" xmlns="http://www.w3.org/2000/svg">
<path d="M163.622 49.8661H6.80784C3.62991 49.8661 1.05469 47.2909 1.05469 44.113V6.96409C1.05469 3.78616 3.62991 1.21094 6.80784 1.21094H163.622C166.8 1.21094 169.375 3.78616 169.375 6.96409V44.113C169.375 47.2909 166.8 49.8661 163.622 49.8661Z" fill="black"/>
<mask id="mask0_150_6678" style="mask-type:luminance" maskUnits="userSpaceOnUse" x="0" y="0" width="170" height="52">
<path d="M0.423828 0.585938H169.999V51.238H0.423828V0.585938Z" fill="white"/>
</mask>
<g mask="url(#mask0_150_6678)">
<path d="M6.80404 1.84029C3.97921 1.84029 1.681 4.13851 1.681 6.96333V44.1122C1.681 46.9371 3.97921 49.2353 6.80404 49.2353H163.621C166.446 49.2353 168.745 46.9371 168.745 44.1122V6.96333C168.745 4.13851 166.446 1.84029 163.621 1.84029H6.80404ZM163.621 50.4955H6.80404C3.28518 50.4955 0.423828 47.6311 0.423828 44.1122V6.96333C0.423828 3.44448 3.28518 0.580078 6.80404 0.580078H163.621C167.14 0.580078 170.002 3.44448 170.002 6.96333V44.1122C170.002 47.6311 167.14 50.4955 163.621 50.4955Z" fill="#A7A9AB"/>
</g>
<path d="M59.2284 13.646L58.5831 11.6248C58.4248 11.1256 58.2908 10.5685 58.1691 10.0936H58.1447C58.026 10.5685 57.9012 11.1377 57.7581 11.6248L57.125 13.646H59.2284ZM56.8815 14.7753L56.1753 17.1009H54.6289L57.2589 8.90039H59.1675L61.831 17.1009H60.2268L59.4841 14.7753" fill="white"/>
<path d="M64.0686 11.1777L65.0305 14.1791C65.201 14.7027 65.3197 15.1775 65.4293 15.6646H65.4658C65.5754 15.1775 65.7093 14.7149 65.8676 14.1791L66.8173 11.1777H68.385L66.1233 17.1013H64.6531L62.4492 11.1777" fill="white"/>
<path d="M72.9 14.2046C71.8407 14.1924 70.8301 14.4116 70.8301 15.3126C70.8301 15.897 71.2075 16.1649 71.6824 16.1649C72.2882 16.1649 72.7174 15.7753 72.8604 15.3491C72.9 15.2395 72.9 15.13 72.9 15.0204V14.2046ZM74.3581 15.6779C74.3581 16.2136 74.3824 16.7372 74.4555 17.0994H73.1039L72.9974 16.445H72.9578C72.6078 16.9046 71.9868 17.2334 71.2075 17.2334C70.0143 17.2334 69.3477 16.3719 69.3477 15.4709C69.3477 13.9854 70.6718 13.2214 72.8604 13.2336V13.1361C72.8604 12.7465 72.7052 12.1012 71.658 12.1012C71.0736 12.1012 70.4648 12.2838 70.063 12.5395L69.7708 11.5654C70.2091 11.2976 70.9762 11.0449 71.9137 11.0449C73.8102 11.0449 74.3581 12.2473 74.3581 13.5501" fill="white"/>
<path d="M76.4739 11.1788H77.9685V17.1024H76.4739V11.1788ZM77.2136 10.3264C76.7174 10.3264 76.3887 9.96116 76.3887 9.52282C76.3887 9.06013 76.7266 8.70703 77.2288 8.70703C77.7372 8.70703 78.0537 9.06013 78.0659 9.52282C78.0659 9.96116 77.7372 10.3264 77.2288 10.3264" fill="white"/>
<path d="M80.1191 17.1022H81.6168V8.45117H80.1191V17.1022Z" fill="white"/>
<path d="M86.9195 14.2046C85.8602 14.1924 84.8496 14.4116 84.8496 15.3126C84.8496 15.897 85.2271 16.1649 85.7019 16.1649C86.3107 16.1649 86.7369 15.7753 86.883 15.3491C86.9195 15.2395 86.9195 15.13 86.9195 15.0204V14.2046ZM88.3776 15.6779C88.3776 16.2136 88.402 16.7372 88.475 17.0994H87.1265L87.0169 16.445H86.9804C86.6273 16.9046 86.0063 17.2334 85.2271 17.2334C84.0369 17.2334 83.3672 16.3719 83.3672 15.4709C83.3672 13.9854 84.6944 13.2214 86.883 13.2336V13.1361C86.883 12.7465 86.7247 12.1012 85.6776 12.1012C85.0931 12.1012 84.4843 12.2838 84.0856 12.5395L83.7933 11.5654C84.2317 11.2976 84.9957 11.0449 85.9333 11.0449C87.8297 11.0449 88.3776 12.2473 88.3776 13.5501" fill="white"/>
<path d="M91.9917 14.6548C91.9917 14.7766 92.0038 14.8984 92.0282 15.0079C92.1865 15.6167 92.71 16.0551 93.3523 16.0551C94.2899 16.0551 94.8621 15.3123 94.8621 14.11C94.8621 13.0628 94.3629 12.2105 93.3645 12.2105C92.7557 12.2105 92.1987 12.6488 92.0404 13.3063C92.016 13.4159 91.9917 13.5499 91.9917 13.696V14.6548ZM90.494 8.45117H91.9917V11.9913H92.016C92.3813 11.4191 93.0236 11.0447 93.9124 11.0447C95.3614 11.0447 96.3933 12.247 96.3811 14.0491C96.3811 16.1768 95.0326 17.2361 93.6933 17.2361C92.9262 17.2361 92.2474 16.9439 91.8212 16.2134H91.7968L91.7238 17.1022H90.4453C90.4697 16.7004 90.494 16.0429 90.494 15.4463" fill="white"/>
<path d="M98.1426 17.1022H99.6372V8.45117H98.1426V17.1022Z" fill="white"/>
<path d="M105.463 13.5136C105.475 12.9657 105.232 12.0647 104.236 12.0647C103.311 12.0647 102.921 12.9048 102.861 13.5136H105.463ZM102.861 14.5577C102.897 15.6292 103.737 16.0919 104.687 16.0919C105.378 16.0919 105.865 15.9823 106.328 15.824L106.547 16.8437C106.035 17.0659 105.329 17.2212 104.48 17.2212C102.556 17.2212 101.424 16.0432 101.424 14.232C101.424 12.5882 102.422 11.0449 104.322 11.0449C106.242 11.0449 106.876 12.6248 106.876 13.9276C106.876 14.2076 106.851 14.4268 106.827 14.5577" fill="white"/>
<path d="M114.308 16.1527C115.157 16.1527 115.754 15.3248 115.754 14.1224C115.754 13.197 115.34 12.1255 114.32 12.1255C113.26 12.1255 112.834 13.1605 112.834 14.1468C112.834 15.2882 113.407 16.1527 114.292 16.1527H114.308ZM114.259 17.2364C112.591 17.2364 111.291 16.0919 111.291 14.1833C111.291 12.2351 112.566 11.0449 114.356 11.0449C116.119 11.0449 117.3 12.2838 117.3 14.0859C117.3 16.2623 115.766 17.2364 114.271 17.2364" fill="white"/>
<path d="M119.059 12.9413C119.059 12.2595 119.038 11.6872 119.014 11.1758H120.313L120.387 12.0647H120.423C120.691 11.602 121.336 11.0449 122.322 11.0449C123.354 11.0449 124.426 11.7116 124.426 13.5867V17.0994H122.928V13.7571C122.928 12.9048 122.612 12.2595 121.799 12.2595C121.202 12.2595 120.788 12.6856 120.63 13.1361C120.581 13.2579 120.557 13.4405 120.557 13.611V17.0994H119.059" fill="white"/>
<path d="M131.319 9.65625V11.1752H132.741V12.2954H131.319V14.898C131.319 15.6286 131.514 15.9938 132.083 15.9938C132.351 15.9938 132.497 15.9817 132.668 15.933L132.692 17.0623C132.473 17.1506 132.071 17.2206 131.608 17.2206C131.051 17.2206 130.601 17.0379 130.321 16.7366C129.992 16.3957 129.846 15.8477 129.846 15.0685V12.2954H129.006V11.1752H129.846V10.0702" fill="white"/>
<path d="M134.406 8.45117H135.904V11.9792H135.928C136.111 11.6991 136.367 11.4678 136.671 11.3095C136.975 11.1421 137.325 11.0447 137.703 11.0447C138.714 11.0447 139.77 11.7113 139.77 13.6107V17.1022H138.275V13.769C138.275 12.9167 137.959 12.2592 137.131 12.2592C136.549 12.2592 136.135 12.6488 135.965 13.0994C135.916 13.2333 135.904 13.3916 135.904 13.5499V17.1022H134.406" fill="white"/>
<path d="M145.559 13.5136C145.571 12.9657 145.328 12.0647 144.329 12.0647C143.404 12.0647 143.017 12.9048 142.956 13.5136H145.559ZM142.956 14.5577C142.993 15.6292 143.83 16.0919 144.78 16.0919C145.474 16.0919 145.961 15.9823 146.42 15.824L146.643 16.8437C146.131 17.0659 145.425 17.2212 144.573 17.2212C142.652 17.2212 141.52 16.0432 141.52 14.232C141.52 12.5882 142.518 11.0449 144.414 11.0449C146.335 11.0449 146.968 12.6248 146.968 13.9276C146.968 14.2076 146.944 14.4268 146.92 14.5577" fill="white"/>
<path d="M38.2702 25.0515C38.2306 20.9939 41.5912 19.0183 41.7465 18.927C39.844 16.1509 36.8943 15.7734 35.8563 15.743C33.3816 15.4842 30.9799 17.2284 29.7196 17.2284C28.432 17.2284 26.4869 15.7704 24.3957 15.813C21.6987 15.8556 19.1783 17.4172 17.7963 19.8372C14.9471 24.7776 17.0718 32.0344 19.8054 36.0282C21.1751 37.9824 22.7702 40.168 24.8614 40.0888C26.907 40.0036 27.671 38.786 30.1397 38.786C32.5871 38.786 33.3055 40.0888 35.4393 40.0401C37.634 40.0036 39.016 38.0768 40.334 36.1012C41.9169 33.8608 42.5501 31.6539 42.5744 31.5413C42.5227 31.523 38.3128 29.9158 38.2702 25.0515Z" fill="white"/>
<path d="M34.2408 13.1192C35.3396 11.7433 36.0976 9.8682 35.8845 7.96875C34.2925 8.04181 32.3017 9.07068 31.1541 10.4161C30.1405 11.6033 29.2303 13.5484 29.4678 15.3748C31.2576 15.5087 33.0932 14.4738 34.2408 13.1192Z" fill="white"/>
<path d="M62.9585 32.8002L61.5461 28.4382C61.397 27.9938 61.1169 26.9436 60.7029 25.2937H60.6542C60.4899 26.003 60.222 27.0532 59.8598 28.4382L58.4717 32.8002H62.9585ZM67.8411 39.7679H64.9889L63.4273 34.861H58.0029L56.5144 39.7679H53.7383L59.1201 23.0625H62.438" fill="white"/>
<path d="M78.9436 33.6946C78.9436 32.5196 78.6787 31.5547 78.1491 30.7937C77.5707 30.0022 76.7945 29.6035 75.8204 29.6035C75.1599 29.6035 74.5572 29.8257 74.0245 30.261C73.4887 30.7023 73.1356 31.2746 72.9682 31.9869C72.886 32.3157 72.8464 32.5866 72.8464 32.7996V34.8087C72.8464 35.6854 73.1143 36.425 73.65 37.0278C74.1888 37.6335 74.8859 37.9318 75.7443 37.9318C76.7549 37.9318 77.5403 37.5452 78.0973 36.766C78.6635 35.9898 78.9436 34.967 78.9436 33.6946ZM81.671 33.5941C81.671 35.6427 81.117 37.2652 80.009 38.4523C79.0166 39.5117 77.7838 40.0383 76.3166 40.0383C74.7276 40.0383 73.5892 39.466 72.8951 38.3275H72.8464V44.6743H70.1677V31.6855C70.1677 30.3979 70.1373 29.0768 70.0703 27.7192H72.4233L72.5725 29.6308H72.6242C73.5161 28.191 74.8707 27.4727 76.688 27.4727C78.1065 27.4727 79.2967 28.0358 80.2433 29.159C81.1931 30.2853 81.671 31.7616 81.671 33.5941Z" fill="white"/>
<path d="M92.7979 33.6946C92.7979 32.5196 92.5331 31.5547 92.0035 30.7937C91.4251 30.0022 90.6489 29.6035 89.6748 29.6035C89.0142 29.6035 88.4146 29.8257 87.8788 30.261C87.3401 30.7023 86.993 31.2746 86.8287 31.9869C86.7434 32.3157 86.7039 32.5866 86.7039 32.7996V34.8087C86.7039 35.6854 86.9687 36.425 87.5044 37.0278C88.0432 37.6335 88.7403 37.9318 89.6017 37.9318C90.6093 37.9318 91.3947 37.5452 91.9547 36.766C92.5148 35.9898 92.7979 34.967 92.7979 33.6946ZM95.5223 33.5941C95.5223 35.6427 94.9713 37.2652 93.8633 38.4523C92.871 39.5117 91.6412 40.0383 90.171 40.0383C88.585 40.0383 87.4466 39.466 86.7495 38.3275H86.7039V44.6743H84.0251V31.6855C84.0251 30.3979 83.9917 29.0768 83.9277 27.7192H86.2807L86.4299 29.6308H86.4816C87.3705 28.191 88.7251 27.4727 90.5423 27.4727C91.9639 27.4727 93.148 28.0358 94.1008 29.159C95.0505 30.2853 95.5223 31.7616 95.5223 33.5941Z" fill="white"/>
<path d="M111.016 35.0828C111.016 36.5013 110.523 37.6581 109.531 38.553C108.441 39.5271 106.928 40.0141 104.983 40.0141C103.184 40.0141 101.741 39.6671 100.648 38.9731L101.269 36.7449C102.447 37.4541 103.735 37.8072 105.141 37.8072C106.149 37.8072 106.934 37.582 107.497 37.1284C108.058 36.6718 108.338 36.063 108.338 35.302C108.338 34.6262 108.109 34.0509 107.647 33.5882C107.184 33.1256 106.414 32.6963 105.339 32.2976C102.414 31.2048 100.953 29.6067 100.953 27.5063C100.953 26.1335 101.464 25.0072 102.49 24.1305C103.513 23.2539 104.877 22.8125 106.578 22.8125C108.1 22.8125 109.363 23.0804 110.371 23.607L109.701 25.7895C108.761 25.2781 107.695 25.0194 106.505 25.0194C105.561 25.0194 104.828 25.2507 104.301 25.7134C103.857 26.1274 103.632 26.6327 103.632 27.2263C103.632 27.8868 103.884 28.4317 104.399 28.8609C104.843 29.2566 105.653 29.6858 106.828 30.1516C108.265 30.7299 109.321 31.4057 110 32.1819C110.675 32.9581 111.016 33.9261 111.016 35.0828Z" fill="white"/>
<path d="M119.861 29.7281H116.912V35.5756C116.912 37.0641 117.432 37.8068 118.476 37.8068C118.951 37.8068 119.35 37.7673 119.664 37.6851L119.737 39.7154C119.213 39.9163 118.516 40.0137 117.658 40.0137C116.601 40.0137 115.773 39.6911 115.177 39.0488C114.583 38.4035 114.285 37.3198 114.285 35.8008V29.7281H112.525V27.719H114.285V25.5152L116.912 24.7207V27.719H119.861" fill="white"/>
<path d="M130.398 33.7311C130.398 32.6201 130.158 31.6703 129.677 30.8728C129.12 29.9109 128.316 29.4299 127.275 29.4299C126.201 29.4299 125.382 29.9109 124.822 30.8728C124.341 31.6703 124.106 32.6383 124.106 33.7829C124.106 34.8939 124.341 35.8436 124.822 36.6381C125.4 37.6 126.21 38.081 127.254 38.081C128.274 38.081 129.077 37.5939 129.656 36.6138C130.152 35.8041 130.398 34.8422 130.398 33.7311ZM133.174 33.6459C133.174 35.4966 132.648 37.0156 131.588 38.2058C130.48 39.4295 129.01 40.0383 127.178 40.0383C125.406 40.0383 124 39.4508 122.95 38.2788C121.902 37.1069 121.379 35.6275 121.379 33.8437C121.379 31.9747 121.918 30.4466 123.001 29.2595C124.082 28.0662 125.54 27.4727 127.373 27.4727C129.141 27.4727 130.566 28.0601 131.637 29.2321C132.663 30.3766 133.174 31.8438 133.174 33.6459Z" fill="white"/>
<path d="M141.874 30.0753C141.609 30.0266 141.329 30.0022 141.031 30.0022C140.09 30.0022 139.359 30.3584 138.848 31.0676C138.404 31.6977 138.181 32.4892 138.181 33.445V39.7673H135.506L135.527 31.5151C135.527 30.124 135.494 28.8607 135.43 27.7192H137.761L137.859 30.0266H137.929C138.212 29.2351 138.659 28.5959 139.268 28.118C139.865 27.6888 140.51 27.4727 141.204 27.4727C141.451 27.4727 141.676 27.4909 141.874 27.5214" fill="white"/>
<path d="M151.289 32.479C151.307 31.6875 151.133 30.9996 150.771 30.4212C150.308 29.6785 149.593 29.3041 148.637 29.3041C147.764 29.3041 147.051 29.6694 146.506 30.3969C146.062 30.9753 145.794 31.6693 145.718 32.479H151.289ZM153.839 33.173C153.839 33.654 153.809 34.0558 153.745 34.3876H145.718C145.745 35.5778 146.135 36.4879 146.881 37.115C147.557 37.6781 148.433 37.9551 149.508 37.9551C150.695 37.9551 151.779 37.7664 152.756 37.3859L153.176 39.2458C152.034 39.7389 150.689 39.9916 149.133 39.9916C147.267 39.9916 145.8 39.4406 144.735 38.3387C143.672 37.2428 143.137 35.7665 143.137 33.9158C143.137 32.0985 143.63 30.5856 144.625 29.3802C145.663 28.0895 147.07 27.4473 148.835 27.4473C150.57 27.4473 151.888 28.0895 152.78 29.3802C153.489 30.403 153.839 31.6693 153.839 33.173Z" fill="white"/>
</svg>
