<svg width="256" height="103" viewBox="0 0 256 103" fill="none" xmlns="http://www.w3.org/2000/svg">
<path d="M231.458 16.9835C239.525 24.8322 241.757 30.1031 244.069 41.6615C236.193 41.6615 228.318 41.6615 220.204 41.6615C219.13 39.5137 218.056 37.3659 216.95 35.153C210.987 30.5564 206.007 28.9698 198.509 29.7293C192.876 31.5433 189.106 33.6897 185.492 38.4073C182.174 45.6347 181.58 52.3692 183.323 60.1022C185.46 65.7667 188.768 70.0479 193.98 73.2505C199.659 75.5447 206.333 74.8738 212.001 72.9157C216.582 69.6752 218.795 66.1737 221.289 61.1869C228.806 61.1869 236.323 61.1869 244.069 61.1869C242.526 73.5297 238.818 81.9703 229.052 89.9369C218.133 97.4326 204.834 98.4881 192.018 96.475C180.466 93.7339 169.659 87.2762 163.289 77.0767C156.355 64.0559 155.433 50.3031 159.42 36.1149C163.524 24.6704 170.62 16.8199 181.492 11.492C198.072 4.58192 217.398 4.93735 231.458 16.9835Z" fill="#1F9CB1"/>
<path d="M48.8133 8.03442C52.393 8.03442 55.9726 8.03442 59.6608 8.03442C65.7172 20.0197 71.5743 32.0856 77.2879 44.2378C77.6819 45.0747 78.0758 45.9116 78.4817 46.7738C80.8762 51.8607 83.2658 56.9499 85.6528 62.0403C86.7309 64.3377 87.8112 66.6341 88.8922 68.9301C90.7497 72.8764 92.5962 76.8277 94.4404 80.7802C94.9896 81.9462 95.5388 83.1122 96.1046 84.3136C96.5972 85.375 97.0897 86.4365 97.5972 87.5302C98.0252 88.4462 98.4532 89.3621 98.8941 90.3059C99.7964 92.6446 99.7964 92.6446 99.7964 95.8988C91.9211 95.8988 84.0459 95.8988 75.932 95.8988C71.593 87.2209 71.593 87.2209 71.593 85.0514C54.9476 85.5883 54.9476 85.5883 37.9659 86.1361C36.534 89.3578 35.1021 92.5795 33.6269 95.8988C25.3937 95.8988 17.1604 95.8988 8.67773 95.8988C10.3792 90.7945 12.2838 86.1025 14.5972 81.2802C14.9655 80.5044 15.3338 79.7287 15.7132 78.9294C16.5031 77.2665 17.2946 75.6042 18.0876 73.9428C20.1803 69.5574 22.2608 65.1663 24.343 60.7759C24.7619 59.8934 25.1809 59.0109 25.6126 58.1016C29.5006 49.9063 33.3372 41.6877 37.1523 33.4582C37.7072 32.2624 38.262 31.0667 38.8337 29.8347C42.1933 22.5829 45.5165 15.315 48.8133 8.03442ZM53.1523 46.0005C51.8845 49.0504 50.6193 52.1014 49.3557 55.1531C48.9935 56.0235 48.6314 56.894 48.2582 57.7908C47.9157 58.6193 47.5731 59.4478 47.2201 60.3014C46.902 61.0683 46.5839 61.8351 46.2561 62.6253C45.4943 64.2858 45.4943 64.2858 45.5591 65.5259C51.2865 65.5259 57.014 65.5259 62.915 65.5259C61.9365 60.6332 60.6255 57.172 58.5082 52.7124C57.914 51.4525 57.3197 50.1926 56.7074 48.8946C56.0215 47.462 56.0215 47.462 55.3218 46.0005C54.6059 46.0005 53.8899 46.0005 53.1523 46.0005Z" fill="#1F9CB1"/>
<path d="M75.9316 8.03447C82.3758 7.95349 88.8197 7.89471 95.2643 7.85571C97.4525 7.83943 99.6408 7.81729 101.829 7.78897C104.99 7.7491 108.151 7.73094 111.313 7.71667C112.759 7.69148 112.759 7.69148 114.235 7.66577C124.579 7.66305 133.968 10.0153 141.656 17.2506C147.835 23.792 149.83 30.5937 150.101 39.4921C149.756 50.361 146.474 56.7728 138.847 64.4412C140.36 68.5391 142.254 72.1021 144.55 75.8141C145.568 77.469 145.568 77.469 146.605 79.1573C147.312 80.297 148.018 81.4366 148.745 82.6107C150.151 84.8863 151.555 87.163 152.957 89.4412C153.579 90.4463 154.202 91.4513 154.843 92.4868C156.203 94.8141 156.203 94.8141 156.203 95.8989C151.639 96.1833 147.078 96.3561 142.508 96.509C140.572 96.6317 140.572 96.6317 138.597 96.7569C129.226 96.9925 129.226 96.9925 125.788 93.9277C124.093 91.4036 122.771 88.8911 121.491 86.1362C120.741 84.8852 119.977 83.6422 119.194 82.4116C118.25 80.7986 118.25 80.7986 117.288 79.1531C116.642 78.0582 115.996 76.9634 115.33 75.8353C113.898 73.1192 113.898 73.1192 113.898 70.9497C111.392 70.9497 108.886 70.9497 106.305 70.9497C104.67 67.9253 103.046 64.8957 101.423 61.865C100.958 61.0036 100.492 60.1423 100.012 59.2548C99.5717 58.4298 99.1312 57.6048 98.6774 56.7548C98.2684 55.9936 97.8594 55.2324 97.438 54.4481C96.5418 52.509 96.5418 52.509 96.5418 50.3396C97.485 50.3073 97.485 50.3073 98.4473 50.2744C101.315 50.1706 104.183 50.0518 107.05 49.9328C108.534 49.8824 108.534 49.8824 110.048 49.8311C117.118 49.5826 117.118 49.5826 123.66 47.0853C125.781 43.7118 125.834 41.7313 125.627 37.7294C124.651 33.4495 124.651 33.4495 121.491 30.8141C118.694 30.4553 116.144 30.2844 113.343 30.259C112.158 30.2298 112.158 30.2298 110.949 30.2C108.429 30.1413 105.909 30.1046 103.389 30.0684C101.679 30.0324 99.9697 29.995 98.26 29.9561C94.0716 29.8639 89.8833 29.7915 85.6944 29.7294C84.0602 26.5239 82.4357 23.3136 80.813 20.1023C80.3474 19.1892 79.8817 18.2761 79.402 17.3353C78.9615 16.4614 78.521 15.5874 78.0672 14.687C77.6582 13.8804 77.2492 13.0737 76.8278 12.2426C75.9316 10.204 75.9316 10.204 75.9316 8.03447Z" fill="#1F9CB1"/>
</svg>
