<svg width="24" height="24" viewBox="0 0 24 24" fill="none" xmlns="http://www.w3.org/2000/svg">
<path d="M5.42561 17.9099C4.88975 17.9214 4.35748 17.8186 3.86342 17.608C3.36936 17.3975 2.92459 17.0839 2.55802 16.6877C1.77944 15.8849 1.02827 15.0599 0.271624 14.2419C-0.139599 13.8044 -0.0875108 13.5669 0.452562 13.3017C0.946029 13.0614 1.44635 12.8364 1.93159 12.5808C2.0489 12.5105 2.18299 12.4741 2.31929 12.4756C2.45559 12.477 2.58889 12.5163 2.70469 12.5892C3.41199 12.9822 4.13575 13.3475 4.84168 13.7419C4.96185 13.8202 5.10087 13.8636 5.24367 13.8675C5.38647 13.8715 5.52761 13.8357 5.65179 13.7641C6.85119 13.1406 8.07115 12.5378 9.28288 11.9239C9.81336 11.6559 9.84489 11.4003 9.39803 10.992C7.78055 9.51056 6.16216 8.03375 4.54286 6.56157C4.03568 6.09908 4.06858 5.83936 4.67993 5.57687C5.48044 5.23799 6.27685 4.85606 7.17057 5.06577C7.63503 5.17499 8.08538 5.33859 8.51253 5.55326C10.3868 6.49768 12.2547 7.45923 14.1161 8.4379C14.6644 8.72401 15.1332 8.72817 15.6596 8.41846C16.6081 7.86292 17.5786 7.35182 18.704 7.25182C19.8627 7.12534 21.0346 7.26783 22.1309 7.66848C22.3947 7.75616 22.6236 7.92797 22.7832 8.15826C22.9428 8.38854 23.0246 8.66496 23.0163 8.94622C23.0163 9.55732 22.7148 9.99203 22.1679 10.2573C20.2168 11.2008 18.2672 12.1452 16.3189 13.0906C13.2813 14.56 10.2506 16.0419 7.2021 17.4863C6.6538 17.7432 6.04108 17.8432 5.45714 18.0154L5.42561 17.9099Z" fill="white"/>
</svg>
