<svg width="362" height="300" viewBox="0 0 362 300" fill="none" xmlns="http://www.w3.org/2000/svg">
<path d="M359.865 204.291C349.991 154.499 292.142 114.703 280.859 62.8159C260.352 -3.19877 192.76 -13.6358 148.837 15.0343C79.2416 60.4625 153.486 71.7358 17.0314 179.216C-16.6623 205.755 -5.92594 322.905 100.072 296.019C157.116 281.551 174.457 279.52 200.115 277.138C264.789 271.134 376.44 287.874 359.865 204.291Z" fill="#E7EDF8"/>
<path d="M252.64 254.872H108.821C102.256 254.872 95.9012 252.551 90.8812 248.319C85.8612 244.088 82.4986 238.218 81.3878 231.747L61.624 116.619H299.837L280.073 231.747C278.962 238.218 275.6 244.088 270.58 248.32C265.56 252.551 259.206 254.872 252.64 254.872Z" fill="#3968BF"/>
<path d="M300.353 105.515H61.1098C55.4389 105.515 50.8418 110.112 50.8418 115.783C50.8418 121.453 55.4389 126.051 61.1098 126.051H300.353C306.024 126.051 310.621 121.453 310.621 115.783C310.621 110.112 306.024 105.515 300.353 105.515Z" fill="#CFE2D4"/>
<path d="M212.412 109.481C209.737 112.844 210.295 117.738 213.657 120.413C217.02 123.088 221.914 122.53 224.589 119.167L270.377 61.6023C273.051 58.2397 272.494 53.3454 269.131 50.6707C265.768 47.996 260.874 48.5538 258.199 51.9164L212.412 109.481Z" fill="#A1C5AC"/>
<path d="M217.978 117.912C219.597 117.912 220.91 116.599 220.91 114.98C220.91 113.36 219.597 112.048 217.978 112.048C216.359 112.048 215.046 113.36 215.046 114.98C215.046 116.599 216.359 117.912 217.978 117.912Z" fill="white"/>
<path d="M103.266 51.9164C100.592 48.5537 95.6974 47.996 92.3347 50.6707C88.9721 53.3454 88.4144 58.2397 91.0891 61.6023L136.877 119.167C139.551 122.53 144.446 123.088 147.808 120.413C151.171 117.738 151.729 112.844 149.054 109.481L103.266 51.9164Z" fill="#A1C5AC"/>
<path d="M143.486 117.912C145.105 117.912 146.417 116.599 146.417 114.98C146.417 113.36 145.105 112.048 143.486 112.048C141.866 112.048 140.554 113.36 140.554 114.98C140.554 116.599 141.866 117.912 143.486 117.912Z" fill="white"/>
<path d="M186.793 162.16C186.793 158.812 184.079 156.098 180.731 156.098C177.383 156.098 174.669 158.812 174.669 162.16V219.476C174.669 222.825 177.383 225.539 180.731 225.539C184.079 225.539 186.793 222.825 186.793 219.476V162.16Z" fill="white"/>
<path d="M128.84 161.57C128.325 158.262 125.226 155.997 121.918 156.511C118.61 157.025 116.345 160.124 116.859 163.433L125.665 220.069C126.18 223.377 129.279 225.642 132.587 225.128C135.895 224.613 138.16 221.514 137.646 218.206L128.84 161.57Z" fill="white"/>
<path d="M225.068 218.205C224.554 221.514 226.819 224.613 230.127 225.127C233.435 225.642 236.534 223.377 237.049 220.068L245.855 163.432C246.369 160.124 244.104 157.025 240.796 156.51C237.488 155.996 234.389 158.261 233.874 161.569L225.068 218.205Z" fill="white"/>
<path d="M279.479 278.353C299.237 278.353 315.254 262.336 315.254 242.577C315.254 222.819 299.237 206.802 279.479 206.802C259.72 206.802 243.703 222.819 243.703 242.577C243.703 262.336 259.72 278.353 279.479 278.353Z" fill="white"/>
<path d="M279.452 260.904C277.718 260.943 276.004 260.529 274.479 259.703C272.953 258.878 271.669 257.669 270.753 256.197C268.623 253.059 267.559 248.517 267.56 242.571C267.56 236.626 268.625 232.138 270.753 229.11C271.729 227.706 273.031 226.559 274.547 225.768C276.063 224.977 277.749 224.565 279.459 224.567C281.169 224.57 282.853 224.987 284.367 225.783C285.881 226.579 287.179 227.73 288.151 229.137C290.278 232.184 291.343 236.662 291.343 242.571C291.343 248.517 290.279 253.058 288.151 256.197C287.234 257.669 285.95 258.877 284.425 259.703C282.899 260.528 281.185 260.942 279.452 260.904ZM279.452 255.95C280.282 255.954 281.095 255.715 281.791 255.261C282.605 254.684 283.244 253.894 283.636 252.977C284.225 251.661 284.632 250.272 284.847 248.847C285.169 246.771 285.317 244.672 285.287 242.571C285.316 240.498 285.169 238.426 284.847 236.377C284.636 234.978 284.228 233.615 283.636 232.33C283.243 231.443 282.602 230.688 281.791 230.155C281.081 229.741 280.274 229.522 279.452 229.522C278.629 229.522 277.822 229.741 277.112 230.155C276.3 230.687 275.66 231.443 275.268 232.33C274.674 233.615 274.266 234.978 274.056 236.377C273.734 238.426 273.587 240.498 273.616 242.571C273.586 244.671 273.733 246.77 274.056 248.845C274.269 250.27 274.677 251.66 275.267 252.975C275.659 253.892 276.297 254.683 277.111 255.259C277.807 255.714 278.621 255.954 279.452 255.95Z" fill="#3D7B50"/>
</svg>
