<svg width="58" height="24" viewBox="0 0 58 24" fill="none" xmlns="http://www.w3.org/2000/svg">
<path d="M7.67247 6.5V9.23636C7.67247 9.55256 7.66293 9.8639 7.64385 10.1704C7.62954 10.472 7.61523 10.7079 7.60092 10.8782H7.67247C7.88711 10.5279 8.18523 10.2336 8.56682 9.99524C8.95318 9.75201 9.44686 9.63039 10.0479 9.63039C10.9875 9.63039 11.7435 9.98308 12.3159 10.6885C12.8883 11.389 13.1745 12.4276 13.1745 13.8043C13.1745 14.7188 13.0433 15.4874 12.781 16.1101C12.5186 16.7328 12.149 17.2046 11.672 17.5257C11.1998 17.8419 10.6441 18 10.0049 18C9.40393 18 8.9174 17.8881 8.54535 17.6643C8.17807 17.4357 7.8895 17.1706 7.67962 16.869H7.55799L7.25033 17.8541H5.99109V6.5H7.67247ZM9.60426 11.0241C9.12728 11.0241 8.74807 11.1214 8.46665 11.316C8.19 11.5106 7.98966 11.8025 7.86565 12.1916C7.74163 12.5759 7.67724 13.0648 7.67247 13.6583V13.8115C7.67247 14.7115 7.81079 15.3999 8.08744 15.8766C8.36887 16.3533 8.87924 16.5917 9.61857 16.5917C10.2053 16.5917 10.656 16.3509 10.9708 15.8693C11.2856 15.3828 11.443 14.6872 11.443 13.7824C11.443 12.8678 11.2856 12.1795 10.9708 11.7173C10.6608 11.2552 10.2053 11.0241 9.60426 11.0241Z" fill="#E79C49"/>
<path d="M18.2026 9.6231C18.9086 9.6231 19.5143 9.77147 20.0199 10.0682C20.5255 10.365 20.9143 10.7857 21.1862 11.3306C21.458 11.8754 21.594 12.5273 21.594 13.2862V14.2056H16.3066C16.3257 14.9888 16.5308 15.592 16.9219 16.0152C17.3178 16.4385 17.8711 16.6501 18.5818 16.6501C19.0874 16.6501 19.5406 16.6014 19.9412 16.5041C20.3467 16.402 20.764 16.2536 21.1933 16.059V17.4527C20.7974 17.6424 20.3944 17.7811 19.9842 17.8687C19.5739 17.9562 19.0827 18 18.5103 18C17.7328 18 17.0483 17.8468 16.4568 17.5403C15.8701 17.229 15.4099 16.7668 15.076 16.1539C14.7468 15.5409 14.5823 14.7796 14.5823 13.8699C14.5823 12.9651 14.7325 12.1965 15.033 11.5641C15.3335 10.9317 15.7557 10.4501 16.2994 10.1193C16.8432 9.78849 17.4776 9.6231 18.2026 9.6231ZM18.2026 10.9147C17.6732 10.9147 17.2439 11.0898 16.9147 11.44C16.5904 11.7903 16.3996 12.3035 16.3424 12.9797H19.9484C19.9436 12.5759 19.8768 12.2184 19.748 11.907C19.624 11.5957 19.4332 11.3525 19.1757 11.1773C18.9229 11.0022 18.5985 10.9147 18.2026 10.9147Z" fill="#E79C49"/>
<path d="M26.8724 7.18591C28.2223 7.18591 29.2073 7.48266 29.8274 8.07614C30.4474 8.66476 30.7575 9.47716 30.7575 10.5133C30.7575 10.9803 30.6883 11.4279 30.55 11.856C30.4117 12.2792 30.1851 12.6562 29.8703 12.987C29.5602 13.3178 29.1453 13.5805 28.6253 13.7751C28.1054 13.9648 27.4639 14.0596 26.7007 14.0596H25.7491V17.8541H23.5311V7.18591H26.8724ZM26.7579 9.03934H25.7491V12.2062H26.4789C26.8939 12.2062 27.254 12.1503 27.5593 12.0384C27.8645 11.9265 28.1007 11.7514 28.2676 11.513C28.4345 11.2746 28.518 10.9682 28.518 10.5936C28.518 10.0682 28.3749 9.67904 28.0887 9.42608C27.8025 9.16825 27.3589 9.03934 26.7579 9.03934Z" fill="#6D737E"/>
<path d="M35.7641 9.52824C36.8373 9.52824 37.6601 9.7666 38.2325 10.2433C38.8049 10.7201 39.0911 11.4449 39.0911 12.4178V17.8541H37.5671L37.145 16.7449H37.0878C36.8588 17.0368 36.6251 17.2752 36.3866 17.46C36.1481 17.6449 35.8738 17.7811 35.5638 17.8687C35.2537 17.9562 34.8769 18 34.4333 18C33.9611 18 33.5366 17.9076 33.1598 17.7227C32.7877 17.5379 32.4944 17.2557 32.2797 16.8763C32.0651 16.492 31.9578 16.0055 31.9578 15.4169C31.9578 14.551 32.2559 13.9137 32.8521 13.5051C33.4483 13.0916 34.3427 12.8629 35.5352 12.8192L36.9232 12.7754V12.4178C36.9232 11.9897 36.8135 11.676 36.5941 11.4765C36.3747 11.2771 36.0694 11.1773 35.6783 11.1773C35.2919 11.1773 34.9127 11.2333 34.5406 11.3452C34.1686 11.4571 33.7965 11.5981 33.4245 11.7684L32.7019 10.2652C33.1264 10.0366 33.601 9.8566 34.1257 9.72525C34.6551 9.59391 35.2013 9.52824 35.7641 9.52824ZM36.9232 14.0742L36.0789 14.1034C35.373 14.1229 34.8817 14.2518 34.605 14.4902C34.3332 14.7285 34.1972 15.0423 34.1972 15.4315C34.1972 15.772 34.295 16.0152 34.4906 16.1612C34.6861 16.3022 34.9413 16.3728 35.2561 16.3728C35.7236 16.3728 36.1171 16.2317 36.4367 15.9496C36.761 15.6674 36.9232 15.2661 36.9232 14.7456V14.0742Z" fill="#6D737E"/>
<path d="M43.4538 9.69607V17.8541H41.2716V9.69607H43.4538ZM42.3663 6.5C42.6906 6.5 42.9697 6.57783 43.2034 6.7335C43.4371 6.88431 43.554 7.16889 43.554 7.58725C43.554 8.00074 43.4371 8.28775 43.2034 8.44829C42.9697 8.60396 42.6906 8.68179 42.3663 8.68179C42.0372 8.68179 41.7557 8.60396 41.522 8.44829C41.2931 8.28775 41.1786 8.00074 41.1786 7.58725C41.1786 7.16889 41.2931 6.88431 41.522 6.7335C41.7557 6.57783 42.0372 6.5 42.3663 6.5Z" fill="#6D737E"/>
<path d="M48.21 18C47.3181 18 46.5907 17.6449 46.0278 16.9346C45.4697 16.2195 45.1907 15.1712 45.1907 13.7897C45.1907 12.3935 45.4745 11.3379 46.0421 10.6228C46.6097 9.90281 47.3515 9.54283 48.2673 9.54283C48.6489 9.54283 48.9851 9.59634 49.2761 9.70336C49.5671 9.81038 49.8175 9.95389 50.0273 10.1339C50.242 10.3139 50.4233 10.5158 50.5711 10.7395H50.6427C50.614 10.5839 50.5783 10.3552 50.5353 10.0536C50.4972 9.74714 50.4781 9.43338 50.4781 9.11231V6.5H52.6675V17.8541H50.9933L50.5711 16.796H50.4781C50.3398 17.0198 50.1657 17.2241 49.9558 17.4089C49.7507 17.5889 49.5051 17.7324 49.2189 17.8395C48.9327 17.9465 48.5964 18 48.21 18ZM48.9756 16.2268C49.5718 16.2268 49.9916 16.0468 50.2348 15.6869C50.4829 15.322 50.614 14.7747 50.6284 14.0451V13.8043C50.6284 13.0113 50.5091 12.4057 50.2706 11.9873C50.0321 11.5641 49.5885 11.3525 48.9398 11.3525C48.4581 11.3525 48.0812 11.5641 47.8094 11.9873C47.5375 12.4105 47.4015 13.021 47.4015 13.8188C47.4015 14.6166 47.5375 15.2174 47.8094 15.6212C48.086 16.025 48.4748 16.2268 48.9756 16.2268Z" fill="#6D737E"/>
</svg>
