<svg width="17" height="18" viewBox="0 0 17 18" fill="none" xmlns="http://www.w3.org/2000/svg">
<g clip-path="url(#clip0_43_5525)">
<path d="M2.28628 3.802C2.19976 3.55576 2.12721 3.30483 2.06896 3.05039C1.99177 2.61119 2.05273 2.15882 2.24342 1.75583C2.43411 1.35284 2.74511 1.01915 3.1334 0.800901C3.52493 0.569821 3.9791 0.467878 4.43165 0.50949C4.88421 0.551101 5.31225 0.734162 5.65523 1.03278C6.19544 1.50364 6.71967 1.99139 7.25189 2.46936C8.30303 1.77461 8.82106 1.77461 9.74712 2.47469C10.2731 1.99938 10.7965 1.51253 11.3358 1.04522C11.7136 0.709821 12.1967 0.517342 12.7013 0.501116C13.206 0.484891 13.7004 0.645942 14.0989 0.956375C14.4958 1.25213 14.7792 1.67535 14.9019 2.1553C15.0246 2.63524 14.9791 3.14283 14.7731 3.59322C14.7482 3.6483 14.7252 3.70427 14.6843 3.802H15.7603C16.564 3.802 17.0022 4.24621 17.0022 5.05556C17.0022 5.51695 17.0022 5.97775 17.0022 6.43795C17.0022 6.94969 16.8106 7.13714 16.2925 7.13714C15.1063 7.13714 13.92 7.13714 12.7338 7.13714H0.754372C0.16893 7.13537 0.000393451 6.96657 0.000393451 6.3731C0.000393451 5.89424 0.000393451 5.41538 0.000393451 4.93652C-0.0035852 4.78739 0.0226456 4.639 0.0775028 4.5003C0.13236 4.36161 0.214706 4.23548 0.319571 4.12954C0.424437 4.0236 0.549647 3.94003 0.687645 3.88389C0.825643 3.82775 0.973567 3.80019 1.12249 3.80289C1.50835 3.79489 1.89953 3.802 2.28628 3.802ZM6.89087 3.802C6.83233 3.67673 6.81813 3.59233 6.76846 3.54702C6.13601 2.96866 5.51153 2.38141 4.85956 1.82703C4.50032 1.5223 3.99559 1.54807 3.60264 1.8217C3.41718 1.9516 3.27722 2.13663 3.20255 2.3506C3.12789 2.56457 3.12232 2.79665 3.18662 3.01397C3.24602 3.23327 3.37438 3.42757 3.55269 3.56807C3.731 3.70857 3.94976 3.7878 4.17655 3.794C4.82142 3.80644 5.46541 3.79844 6.11028 3.79933L6.89087 3.802ZM10.1126 3.78156C11.0972 3.78156 12.025 3.81799 12.9511 3.76735C13.4585 3.73981 13.8381 3.25029 13.8559 2.77054C13.8736 2.29079 13.6722 1.94786 13.2527 1.73463C12.8047 1.50897 12.3869 1.59782 12.025 1.91232C11.4272 2.43649 10.8426 2.97843 10.2572 3.51593C10.2013 3.57456 10.1747 3.67051 10.1126 3.78156Z" fill="white"/>
<path d="M7.89427 17.4857C7.81976 17.491 7.24694 17.4972 7.19638 17.4972C5.55892 17.4972 3.92145 17.5017 2.28487 17.4972C1.57525 17.4972 1.11488 17.0353 1.11399 16.3352C1.11044 13.7203 1.11044 11.1056 1.11399 8.49128C1.11399 8.42199 1.1202 8.35269 1.12552 8.26562H7.89427V17.4857Z" fill="white"/>
<path d="M9.06498 8.25684H15.8905V8.54913C15.8905 11.1374 15.8905 13.7254 15.8905 16.3131C15.8905 17.0185 15.4417 17.492 14.7374 17.4964C13.0822 17.5044 11.427 17.4964 9.76999 17.4964C9.72741 17.4964 9.11732 17.4893 9.06055 17.4849L9.06498 8.25684Z" fill="white"/>
</g>
<defs>
<clipPath id="clip0_43_5525">
<rect width="17" height="17" fill="white" transform="translate(0 0.5)"/>
</clipPath>
</defs>
</svg>
