<svg width="24" height="24" viewBox="0 0 24 24" fill="none" xmlns="http://www.w3.org/2000/svg">
<path d="M13.8642 3.84961H10.1306C9.04989 3.84961 8.17383 4.77331 8.17383 5.91274V8.47772C8.17383 9.61716 9.04989 10.5409 10.1306 10.5409H13.8642C14.9449 10.5409 15.821 9.61716 15.821 8.47772V5.91274C15.821 4.77331 14.9449 3.84961 13.8642 3.84961Z" stroke="#306DDE" stroke-width="1.43384" stroke-miterlimit="10"/>
<path d="M4.58197 7.6381H19.4131C19.5972 7.6381 19.7763 7.71305 19.9104 7.8507C20.0449 7.98878 20.1226 8.17867 20.1226 8.37922V11.0343H3.87248V8.37922C3.87248 8.17867 3.9502 7.98878 4.0847 7.8507C4.21878 7.71305 4.39792 7.6381 4.58197 7.6381Z" fill="#306DDE" stroke="#306DDE" stroke-width="0.955892"/>
<mask id="path-3-inside-1_43_5617" fill="white">
<path fill-rule="evenodd" clip-rule="evenodd" d="M10.0866 13.9639H3.39551V19.0319C3.39551 19.3286 3.52061 19.6132 3.7433 19.823C3.96599 20.0328 4.26802 20.1506 4.58295 20.1506L19.4141 20.1506C19.729 20.1506 20.0311 20.0328 20.2538 19.823C20.4765 19.6132 20.6016 19.3286 20.6016 19.0319V13.9639H13.9088C13.8813 14.9958 13.0362 15.8238 11.9977 15.8238C10.9592 15.8238 10.1141 14.9958 10.0866 13.9639Z"/>
</mask>
<path fill-rule="evenodd" clip-rule="evenodd" d="M10.0866 13.9639H3.39551V19.0319C3.39551 19.3286 3.52061 19.6132 3.7433 19.823C3.96599 20.0328 4.26802 20.1506 4.58295 20.1506L19.4141 20.1506C19.729 20.1506 20.0311 20.0328 20.2538 19.823C20.4765 19.6132 20.6016 19.3286 20.6016 19.0319V13.9639H13.9088C13.8813 14.9958 13.0362 15.8238 11.9977 15.8238C10.9592 15.8238 10.1141 14.9958 10.0866 13.9639Z" fill="#306DDE"/>
<path d="M3.39551 13.9639V13.008H2.43962V13.9639H3.39551ZM10.0866 13.9639L11.0422 13.9384L11.0174 13.008H10.0866V13.9639ZM3.7433 19.823L3.08783 20.5187L3.08783 20.5187L3.7433 19.823ZM4.58295 20.1506L4.58295 19.1947H4.58295V20.1506ZM19.4141 20.1506L19.4141 21.1065H19.4141V20.1506ZM20.2538 19.823L20.9092 20.5187L20.9092 20.5187L20.2538 19.823ZM20.6016 13.9639H21.5575V13.008H20.6016V13.9639ZM13.9088 13.9639V13.008H12.978L12.9533 13.9384L13.9088 13.9639ZM3.39551 14.9198H10.0866V13.008H3.39551V14.9198ZM4.3514 19.0319V13.9639H2.43962V19.0319H4.3514ZM4.39878 19.1272C4.36106 19.0917 4.3514 19.0561 4.3514 19.0319H2.43962C2.43962 19.6012 2.68017 20.1347 3.08783 20.5187L4.39878 19.1272ZM4.58295 19.1947C4.50376 19.1947 4.43843 19.1646 4.39878 19.1272L3.08783 20.5187C3.49356 20.901 4.03229 21.1065 4.58295 21.1065V19.1947ZM19.4141 19.1947L4.58295 19.1947L4.58295 21.1065L19.4141 21.1065L19.4141 19.1947ZM19.5983 19.1272C19.5586 19.1646 19.4933 19.1947 19.4141 19.1947V21.1065C19.9648 21.1065 20.5035 20.901 20.9092 20.5187L19.5983 19.1272ZM19.6457 19.0319C19.6457 19.0561 19.636 19.0917 19.5983 19.1272L20.9092 20.5187C21.3169 20.1347 21.5575 19.6012 21.5575 19.0319H19.6457ZM19.6457 13.9639V19.0319H21.5575V13.9639H19.6457ZM13.9088 14.9198H20.6016V13.008H13.9088V14.9198ZM12.9533 13.9384C12.9395 14.4539 12.5168 14.8679 11.9977 14.8679V16.7797C13.5556 16.7797 14.8232 15.5376 14.8644 13.9893L12.9533 13.9384ZM11.9977 14.8679C11.4786 14.8679 11.0559 14.4539 11.0422 13.9384L9.13107 13.9893C9.17229 15.5376 10.4398 16.7797 11.9977 16.7797V14.8679Z" fill="#306DDE" mask="url(#path-3-inside-1_43_5617)"/>
</svg>
