<svg width="24" height="24" viewBox="0 0 24 24" fill="none" xmlns="http://www.w3.org/2000/svg">
<path d="M6.90928 5.12218C6.95984 4.26889 7.09567 4.0111 7.47738 4.00111C7.85909 3.99112 8.00285 4.23591 8.06531 5.1002H10.2762C10.2762 4.91735 10.2673 4.7405 10.2762 4.56464C10.2801 4.41295 10.343 4.26888 10.4513 4.16347C10.5596 4.05806 10.7047 3.99975 10.8552 4.00111C10.9998 4.01087 11.135 4.07668 11.2324 4.18474C11.3298 4.2928 11.3819 4.43469 11.3777 4.58063C11.3777 4.74749 11.3777 4.91535 11.3777 5.1022H13.6283C13.6283 4.92135 13.6224 4.7365 13.6283 4.55165C13.628 4.4096 13.6822 4.27294 13.7796 4.17023C13.877 4.06752 14.01 4.00672 14.1508 4.00052C14.2916 3.99433 14.4294 4.04323 14.5352 4.137C14.6411 4.23077 14.7069 4.36216 14.7189 4.50369C14.7378 4.70353 14.7189 4.89737 14.7189 5.1032H16.9526C16.9526 4.93234 16.9477 4.76548 16.9526 4.60361C16.9655 4.2579 17.1846 4.0171 17.492 4.00411C17.7993 3.99112 18.0551 4.2489 18.075 4.60361C18.0839 4.76148 18.075 4.92135 18.075 5.12817C18.2386 5.12817 18.3922 5.12817 18.5459 5.12817C19.2469 5.14316 19.9548 5.1032 20.6468 5.19112C21.4508 5.29104 21.9833 5.98347 21.9952 6.80279C22.0061 7.54018 21.9952 8.27856 21.9952 9.01595C21.9952 12.3359 21.9952 15.6558 21.9952 18.9757C21.9952 20.1587 21.3081 20.8551 20.1372 20.8551H4.86095C3.68807 20.8551 3 20.1557 3 18.9787V6.97864C3 5.8156 3.69401 5.12418 4.84806 5.12218H6.90928ZM20.8788 9.63244H4.12331V19.0107C4.12331 19.5312 4.3216 19.7221 4.8431 19.7221H20.163C20.6864 19.7221 20.8778 19.5292 20.8778 19.0057C20.8778 15.9855 20.8778 12.965 20.8778 9.94418L20.8788 9.63244ZM4.13025 8.46241H20.8758C20.8758 7.88189 20.8837 7.32535 20.8758 6.76881C20.8786 6.70563 20.8689 6.64251 20.8474 6.58311C20.8258 6.5237 20.7928 6.4692 20.7502 6.42274C20.7076 6.37629 20.6563 6.3388 20.5992 6.31245C20.5422 6.2861 20.4805 6.27141 20.4178 6.26923C19.6494 6.25424 18.881 6.26923 18.0849 6.26923C18.0849 6.46307 18.0948 6.63093 18.0849 6.79779C18.0818 6.94915 18.0221 7.09374 17.9176 7.20253C17.8132 7.31132 17.6717 7.37626 17.5217 7.3843C17.2124 7.3843 16.9735 7.12652 16.9626 6.77181C16.9576 6.60695 16.9626 6.44209 16.9626 6.27922H14.7308C14.7308 6.46107 14.7387 6.62993 14.7308 6.79679C14.71 7.1505 14.4562 7.40129 14.1478 7.38331C13.8395 7.36532 13.6353 7.11852 13.6303 6.77081C13.6303 6.60595 13.6303 6.44209 13.6303 6.28522H11.3777C11.3777 6.46407 11.3777 6.62294 11.3777 6.7848C11.3708 7.12852 11.1527 7.37731 10.8503 7.3843C10.7003 7.38485 10.5561 7.32579 10.449 7.21992C10.3419 7.11406 10.2806 6.96993 10.2782 6.81877C10.2663 6.64092 10.2782 6.46307 10.2782 6.28522H8.05639C8.02763 6.74184 8.1704 7.34933 7.5101 7.36332C6.81608 7.37731 6.94795 6.74284 6.9073 6.27023C6.12108 6.27023 5.35171 6.25724 4.58334 6.27822C4.52287 6.27831 4.46304 6.29068 4.40741 6.31459C4.35179 6.33851 4.30152 6.37347 4.2596 6.41739C4.21768 6.46132 4.18497 6.5133 4.16343 6.57025C4.14189 6.62719 4.13195 6.68793 4.13422 6.74883C4.12034 7.31137 4.13025 7.8779 4.13025 8.46241Z" fill="#3968BF"/>
<path d="M9.71206 12.4507C9.71206 12.8094 9.71801 13.1681 9.71206 13.5258C9.70611 13.8835 9.50385 14.0943 9.13504 14.0973C8.41326 14.1027 7.69182 14.1027 6.9707 14.0973C6.58404 14.0973 6.3917 13.8975 6.38872 13.4978C6.3841 12.7818 6.3841 12.065 6.38872 11.3476C6.38872 10.94 6.58701 10.7481 6.9945 10.7481C7.69644 10.7441 8.39839 10.7441 9.10033 10.7481C9.51873 10.7481 9.71007 10.9479 9.71404 11.3756C9.71503 11.7333 9.71305 12.094 9.71206 12.4507ZM8.57685 12.9613V11.8942H7.5279V12.9613H8.57685Z" fill="#3968BF"/>
<path d="M14.1667 12.4377C14.1667 12.7854 14.1667 13.1371 14.1667 13.4828C14.1667 13.8955 13.9743 14.0953 13.5718 14.0983C12.8612 14.1043 12.1497 14.1043 11.4372 14.0983C11.0406 14.0983 10.8423 13.8985 10.8423 13.4868C10.8384 12.7794 10.8384 12.0724 10.8423 11.3656C10.8423 10.941 11.0406 10.7511 11.466 10.7481C12.1567 10.7441 12.848 10.7441 13.5401 10.7481C13.9803 10.7481 14.1647 10.9479 14.1676 11.3916C14.1686 11.7403 14.1667 12.089 14.1667 12.4377ZM11.9795 11.8952V12.9533H13.0314V11.8952H11.9795Z" fill="#3968BF"/>
<path d="M16.9438 14.1002C16.5977 14.1002 16.2497 14.1002 15.9057 14.1002C15.4972 14.1002 15.298 13.9004 15.295 13.5007C15.2897 12.7833 15.2897 12.0662 15.295 11.3495C15.295 10.9498 15.4933 10.75 15.9047 10.75C16.6057 10.75 17.3076 10.75 18.0096 10.75C18.4171 10.75 18.6163 10.9498 18.6193 11.3495C18.6253 12.0656 18.6253 12.7823 18.6193 13.4997C18.6193 13.9074 18.421 14.0992 18.0115 14.0992C17.6556 14.1032 17.2997 14.1002 16.9438 14.1002ZM16.4342 11.8951V12.9512H17.4831V11.8951H16.4342Z" fill="#3968BF"/>
<path d="M8.03357 18.5895C7.68755 18.5895 7.33955 18.5895 6.99552 18.5895C6.58704 18.5895 6.38875 18.3896 6.38677 17.99C6.38214 17.2732 6.38214 16.5565 6.38677 15.8397C6.38677 15.4341 6.58506 15.2402 6.99651 15.2402C7.6978 15.2402 8.39908 15.2402 9.10036 15.2402C9.52173 15.2402 9.70911 15.4401 9.71209 15.8707C9.71209 16.5668 9.71209 17.2636 9.71209 17.961C9.71209 18.4026 9.5138 18.5885 9.07062 18.5915C8.72461 18.5895 8.37859 18.5895 8.03357 18.5895ZM8.57886 16.3863H7.52396V17.4444H8.57886V16.3863Z" fill="#3968BF"/>
<path d="M14.1667 16.9265C14.1667 17.2752 14.1667 17.6259 14.1667 17.9717C14.1617 18.3853 13.9743 18.5821 13.5718 18.5851C12.8599 18.5911 12.1484 18.5911 11.4372 18.5851C11.0476 18.5851 10.8424 18.3853 10.8424 18.0016C10.8364 17.2749 10.8364 16.5482 10.8424 15.8214C10.8424 15.4378 11.0486 15.2379 11.4372 15.2359C12.1491 15.2313 12.8606 15.2313 13.5718 15.2359C13.9684 15.2359 14.1667 15.4358 14.1667 15.8514C14.1697 16.2091 14.1667 16.5678 14.1667 16.9265ZM13.0335 16.385H11.9766V17.4441H13.0335V16.385Z" fill="#3968BF"/>
<path d="M18.6203 16.928C18.6203 17.2857 18.6203 17.6444 18.6203 18.0031C18.6134 18.3778 18.422 18.5826 18.0532 18.5856C17.3215 18.5923 16.5901 18.5923 15.8591 18.5856C15.4952 18.5856 15.2989 18.3758 15.296 18.0001C15.29 17.2741 15.29 16.5473 15.296 15.8199C15.296 15.4462 15.4943 15.2424 15.8631 15.2384C16.5948 15.2304 17.3261 15.2304 18.0571 15.2384C18.42 15.2384 18.6133 15.4472 18.6193 15.8229C18.6252 16.1986 18.6203 16.5593 18.6203 16.928ZM17.4841 17.4506V16.3915H16.4341V17.4506H17.4841Z" fill="#3968BF"/>
</svg>
