<svg width="20" height="20" viewBox="0 0 20 20" fill="none" xmlns="http://www.w3.org/2000/svg">
<g clip-path="url(#clip0_243_26116)">
<path fill-rule="evenodd" clip-rule="evenodd" d="M9.13672 6.25H9.20713C9.42119 6.25 9.60042 6.41221 9.62172 6.62521L10.0009 10.4167L12.7076 11.9634C12.8374 12.0376 12.9175 12.1756 12.9175 12.3251V12.5C12.9175 12.6758 12.7751 12.8182 12.5993 12.8182C12.571 12.8182 12.5428 12.8145 12.5156 12.807L8.66642 11.7573C8.47361 11.7047 8.34529 11.5226 8.36061 11.3233L8.72128 6.63471C8.73798 6.41763 8.91899 6.25 9.13672 6.25Z" fill="#306DDE"/>
<path opacity="0.3" fill-rule="evenodd" clip-rule="evenodd" d="M6.15686 2.36242C7.20884 1.91448 8.36649 1.66662 9.58203 1.66662C14.4145 1.66662 18.332 5.58413 18.332 10.4166C18.332 15.2491 14.4145 19.1666 9.58203 19.1666C4.74954 19.1666 0.832031 15.2491 0.832031 10.4166C0.832031 9.5959 0.945027 8.80156 1.15631 8.04833L2.76104 8.49846C2.58763 9.11667 2.4987 9.75989 2.4987 10.4166C2.4987 14.3286 5.67001 17.5 9.58203 17.5C13.494 17.5 16.6654 14.3286 16.6654 10.4166C16.6654 6.5046 13.494 3.33329 9.58203 3.33329C8.78933 3.33329 8.01733 3.46323 7.2893 3.71201L8.2816 4.89458C8.33937 4.96343 8.37333 5.04911 8.37841 5.13884C8.39143 5.36859 8.21574 5.56539 7.98599 5.57841L3.93018 5.80825C3.88979 5.81053 3.84928 5.80693 3.80993 5.79754C3.58609 5.74415 3.44792 5.51941 3.50131 5.29557L4.44173 1.35296C4.46248 1.26596 4.51068 1.18794 4.5792 1.13045C4.75548 0.982533 5.01829 1.00553 5.16621 1.18181L6.15686 2.36242Z" fill="#306DDE"/>
</g>
<defs>
<clipPath id="clip0_243_26116">
<rect width="20" height="20" fill="white"/>
</clipPath>
</defs>
</svg>
