<svg width="24" height="24" viewBox="0 0 24 24" fill="none" xmlns="http://www.w3.org/2000/svg">
<path d="M16.2414 6.34317L6.34187 16.2427C5.95135 16.6332 5.95135 17.2664 6.34187 17.6569C6.7324 18.0474 7.36556 18.0474 7.75609 17.6569L17.6556 7.75738C18.0461 7.36686 18.0461 6.73369 17.6556 6.34317C17.2651 5.95264 16.6319 5.95264 16.2414 6.34317Z" fill="#191C30"/>
<path opacity="0.3" d="M17.6554 16.2426L7.75593 6.34315C7.36541 5.95263 6.73225 5.95263 6.34172 6.34315C5.9512 6.73368 5.9512 7.36684 6.34172 7.75737L16.2412 17.6569C16.6317 18.0474 17.2649 18.0474 17.6554 17.6569C18.046 17.2663 18.046 16.6332 17.6554 16.2426Z" fill="#191C30"/>
</svg>
