<svg width="17" height="16" viewBox="0 0 17 16" fill="none" xmlns="http://www.w3.org/2000/svg">
<path d="M4.56223 5.17112L11.1619 11.7708C11.4222 12.0311 11.8444 12.0311 12.1047 11.7708C12.3651 11.5104 12.3651 11.0883 12.1047 10.828L5.50504 4.22831C5.24469 3.96796 4.82258 3.96796 4.56223 4.22831C4.30188 4.48866 4.30188 4.91077 4.56223 5.17112Z" fill="#3968BF"/>
<path opacity="0.3" d="M11.1619 4.22874L4.56222 10.8284C4.30188 11.0887 4.30188 11.5109 4.56222 11.7712C4.82257 12.0316 5.24468 12.0316 5.50503 11.7712L12.1047 5.17155C12.365 4.9112 12.365 4.48909 12.1047 4.22874C11.8443 3.96839 11.4222 3.96839 11.1619 4.22874Z" fill="#3968BF"/>
</svg>
