<svg width="24" height="24" viewBox="0 0 24 24" fill="none" xmlns="http://www.w3.org/2000/svg">
<path d="M11.1743 9.90378C10.4374 9.54898 9.70248 9.19034 8.9618 8.84896C8.87519 8.82907 8.78457 8.83677 8.70251 8.87102C8.41081 8.95444 8.13056 9.0791 7.83123 9.12993C7.41466 9.20089 7.24212 9.01006 7.29836 8.58526C7.31838 8.43566 7.367 8.28895 7.41085 8.10579L5.68069 7.25523C4.91808 6.88316 4.15547 6.51142 3.39287 6.14C2.92768 5.91081 2.87525 5.58286 3.23749 5.21559C3.74843 4.69681 4.3671 4.56544 5.04868 4.73613C6.31714 5.04874 7.58053 5.37317 8.83883 5.70944C9.07237 5.77177 9.23157 5.74971 9.40411 5.55505C9.72726 5.19162 10.0838 4.85791 10.4308 4.51653C10.6862 4.26338 10.8588 4.26721 11.1085 4.5242C11.3821 4.80421 11.6557 5.08422 11.9245 5.36902C12.2105 5.67108 12.2105 5.81492 11.9121 6.11698C11.8263 6.20424 11.7291 6.28 11.5861 6.40466C12.1018 6.53795 12.5394 6.65302 12.976 6.76426C13.1514 6.80837 13.342 6.81604 13.5022 6.89179C13.9626 7.10947 14.2648 6.96275 14.5984 6.59453C15.1885 5.93287 15.8195 5.30381 16.4668 4.69681C17.381 3.84145 18.4448 3.245 19.6907 3.01869C20.2312 2.9228 20.5057 3.20089 20.3914 3.73789C20.1478 4.93577 19.569 6.03868 18.7232 6.91673C18.0063 7.65702 17.2466 8.35511 16.4983 9.06568C16.4304 9.11603 16.3811 9.18758 16.358 9.26912C16.3349 9.35066 16.3393 9.43761 16.3705 9.51637C16.5612 10.1656 16.7308 10.8215 16.9101 11.4735C16.9302 11.5269 16.9541 11.5789 16.9816 11.6289C17.1121 11.5052 17.2218 11.392 17.3409 11.2894C17.5182 11.137 17.6974 11.1274 17.87 11.3048C18.1769 11.6193 18.4877 11.929 18.7908 12.2464C19.0025 12.467 18.9958 12.678 18.7784 12.8947C18.4334 13.2389 18.0892 13.5841 17.7346 13.9178C17.6762 13.9646 17.634 14.0287 17.6142 14.1011C17.5943 14.1735 17.5977 14.2503 17.624 14.3206C17.9806 15.6861 18.339 17.0516 18.6726 18.4238C18.7611 18.745 18.7577 19.0847 18.6627 19.404C18.5678 19.7232 18.3852 20.009 18.1359 20.2285C17.8147 20.5316 17.4687 20.4606 17.2694 20.0473C16.6431 18.748 16.013 17.4524 15.3991 16.1483C15.2971 15.9325 15.199 15.8501 14.9759 15.9565C14.9046 15.9836 14.8298 16.0004 14.7538 16.0064C14.2876 16.0821 14.0665 15.8731 14.1713 15.4099C14.2381 15.1155 14.383 14.8403 14.4812 14.5527C14.5218 14.4624 14.5309 14.361 14.5069 14.265C14.1866 13.5832 13.852 12.9081 13.5126 12.2119C13.4549 12.2509 13.4004 12.2945 13.3496 12.3423C12.3297 13.5208 11.0752 14.4107 9.80734 15.2738C9.42603 15.5384 9.04473 15.8136 8.66343 16.0841C8.13151 16.4676 7.95611 16.9768 8.07431 17.6183C8.15534 18.0594 8.21349 18.5053 8.27355 18.9503C8.30691 19.2034 7.94372 19.6877 7.69492 19.705C7.58279 19.707 7.47422 19.6654 7.39178 19.5889C6.21356 18.4219 5.04296 17.2424 3.8695 16.0668C3.69219 15.8884 3.73223 15.736 3.8695 15.5394C4.14594 15.1366 4.51199 15.1395 4.92666 15.2229C5.28985 15.2958 5.65876 15.3447 6.02672 15.3898C6.59867 15.4608 7.0448 15.2373 7.37462 14.7627C8.01045 13.845 8.62625 12.9062 9.30402 12.023C9.7978 11.3844 10.385 10.8176 10.9369 10.225C11.0289 10.1407 11.1284 10.0653 11.2344 9.99967L11.1743 9.90378Z" fill="#306DDE"/>
</svg>
