<svg width="16" height="16" viewBox="0 0 16 16" fill="none" xmlns="http://www.w3.org/2000/svg">
<path d="M13.2831 5.62659L7.65076 11.2589C7.46081 11.4489 7.20243 11.5544 6.93381 11.5518L4.58493 11.5286C4.04625 11.5233 3.60858 11.0923 3.59508 10.5538L3.53778 8.26901C3.53092 7.99518 3.63668 7.73052 3.83036 7.53683L9.51184 1.85535C9.90237 1.46483 10.5355 1.46483 10.9261 1.85535L13.2831 4.21238C13.6736 4.6029 13.6736 5.23606 13.2831 5.62659Z" fill="#B5B5C2"/>
<path opacity="0.3" d="M12.6668 13.334H4.00016C3.63197 13.334 3.3335 13.6325 3.3335 14.0007C3.3335 14.3688 3.63197 14.6673 4.00016 14.6673H12.6668C13.035 14.6673 13.3335 14.3688 13.3335 14.0007C13.3335 13.6325 13.035 13.334 12.6668 13.334Z" fill="#B5B5C2"/>
</svg>
