<svg width="24" height="24" viewBox="0 0 24 24" fill="none" xmlns="http://www.w3.org/2000/svg">
<path d="M8.77294 7.7619V18.7192L5.79191 19.9118C5.28059 20.1173 4.76718 20.3213 4.25167 20.5238C3.76335 20.7218 3.41211 20.4888 3.41211 19.9602C3.41211 16.7614 3.41211 13.563 3.41211 10.3648C3.41211 10.0414 3.53128 9.82721 3.84219 9.70356C5.43351 9.07187 7.02034 8.42764 8.60897 7.79416C8.66265 7.77895 8.71749 7.76816 8.77294 7.7619Z" fill="#306DDE"/>
<path d="M14.1459 20.427C13.9461 20.35 13.7732 20.2845 13.602 20.2164C12.4184 19.7425 11.2357 19.2649 10.0493 18.7954C9.91852 18.7443 9.84863 18.6959 9.84863 18.5373C9.85401 14.979 9.8558 11.4215 9.85401 7.86494C9.85644 7.83041 9.86063 7.79601 9.86655 7.7619C9.93326 7.77517 9.9991 7.79252 10.0637 7.81387C10.7679 8.09343 11.4731 8.37208 12.1747 8.6615C12.2689 8.70165 12.3458 8.77408 12.3915 8.86579C12.8089 9.81492 13.3344 10.7127 13.9577 11.5413C14.0871 11.7102 14.1551 11.9181 14.1504 12.1308C14.1444 14.795 14.1444 17.4585 14.1504 20.1215L14.1459 20.427Z" fill="#306DDE"/>
<path d="M16.8238 3.41156C18.8702 3.44113 20.553 5.09516 20.5807 7.13538C20.5888 7.76886 20.3594 8.3432 20.0817 8.89514C19.338 10.3754 18.3174 11.6611 17.2386 12.903C17.1899 12.9659 17.1274 13.0168 17.056 13.0518C16.9845 13.0868 16.906 13.105 16.8264 13.105C16.7469 13.105 16.6684 13.0868 16.5969 13.0518C16.5255 13.0168 16.463 12.9659 16.4143 12.903C15.2665 11.5653 14.1886 10.1854 13.4207 8.57975C12.4127 6.47233 13.8033 4.08357 15.8767 3.56836C16.1867 3.4913 16.5075 3.46263 16.8238 3.41156ZM18.4366 7.20527C18.4385 6.88738 18.3461 6.57606 18.1711 6.31071C17.996 6.04536 17.7461 5.83791 17.4531 5.71462C17.1601 5.59133 16.8371 5.55774 16.525 5.61811C16.2129 5.67847 15.9257 5.83008 15.6998 6.05373C15.4739 6.27738 15.3194 6.56303 15.2559 6.87452C15.1924 7.18601 15.2227 7.50934 15.3431 7.80358C15.4634 8.09781 15.6683 8.34974 15.9319 8.52746C16.1955 8.70518 16.5059 8.80071 16.8238 8.80196C17.2483 8.80127 17.6554 8.63325 17.9568 8.33435C18.2582 8.03544 18.4296 7.62975 18.4339 7.20527H18.4366Z" fill="#306DDE"/>
<path d="M15.2373 20.5866V13.1883C15.3887 13.3585 15.5061 13.4902 15.6208 13.6183C15.7721 13.7929 15.9594 13.9326 16.1697 14.028C16.3801 14.1234 16.6086 14.1721 16.8396 14.171C17.0705 14.1698 17.2985 14.1186 17.5079 14.0211C17.7173 13.9235 17.9031 13.7819 18.0526 13.6058C18.9329 12.6306 19.7276 11.5814 20.4279 10.4698C20.4628 10.4124 20.5049 10.3587 20.5892 10.2386V10.5656C20.5892 13.0225 20.5892 15.4797 20.5892 17.9371C20.5892 18.3699 20.4996 18.5016 20.0973 18.6629L15.4497 20.5158C15.3798 20.5427 15.3126 20.5606 15.2373 20.5866Z" fill="#306DDE"/>
</svg>
