<svg width="12" height="12" viewBox="0 0 12 12" fill="none" xmlns="http://www.w3.org/2000/svg">
<ellipse cx="6" cy="5.7931" rx="6" ry="5.7931" fill="#C2C2CD"/>
<path d="M6.096 3.36C6.64 3.36 7.07467 3.50933 7.4 3.808C7.73067 4.10667 7.896 4.51467 7.896 5.032C7.896 5.57067 7.72533 5.976 7.384 6.248C7.04267 6.52 6.58933 6.656 6.024 6.656L5.992 7.288H5.2L5.16 6.032H5.424C5.94133 6.032 6.336 5.96267 6.608 5.824C6.88533 5.68533 7.024 5.42133 7.024 5.032C7.024 4.74933 6.94133 4.528 6.776 4.368C6.616 4.208 6.392 4.128 6.104 4.128C5.816 4.128 5.58933 4.20533 5.424 4.36C5.25867 4.51467 5.176 4.73067 5.176 5.008H4.32C4.32 4.688 4.392 4.40267 4.536 4.152C4.68 3.90133 4.88533 3.70667 5.152 3.568C5.424 3.42933 5.73867 3.36 6.096 3.36ZM5.584 9.056C5.41867 9.056 5.28 9 5.168 8.888C5.056 8.776 5 8.63733 5 8.472C5 8.30667 5.056 8.168 5.168 8.056C5.28 7.944 5.41867 7.888 5.584 7.888C5.744 7.888 5.88 7.944 5.992 8.056C6.104 8.168 6.16 8.30667 6.16 8.472C6.16 8.63733 6.104 8.776 5.992 8.888C5.88 9 5.744 9.056 5.584 9.056Z" fill="#191C30"/>
</svg>
