<svg width="41" height="41" viewBox="0 0 41 41" fill="none" xmlns="http://www.w3.org/2000/svg">
<path d="M22.6971 0.611429L4.11496 22.8399C3.59911 23.4569 4.04484 24.0319 4.46557 24.0319C8.29886 24.0553 16.26 24.088 17.438 24.0319C18.616 23.9758 18.7236 24.8033 18.6301 25.224C17.5549 29.5248 15.3624 38.4208 15.1941 39.5988C15.0258 40.7769 15.9187 40.6974 16.3862 40.5104L35.8799 17.5107C36.0148 17.3305 36.3707 16.8796 36.3707 16.529C36.3707 16.0241 36.1748 15.7576 35.7396 15.7576H21.9258C21.0282 15.7576 21.0376 14.8694 21.1544 14.4253L24.2398 1.73337C24.3333 1.31264 24.4693 0.381432 23.9593 0.12058C23.4881 -0.120416 23.0197 0.243805 22.6971 0.611429Z" fill="url(#paint0_linear_43_2650)"/>
<path d="M16.8532 7.51068L4.11496 22.8374C3.59911 23.4545 4.04484 24.0294 4.46557 24.0294C8.29886 24.0528 16.2586 24.0294 17.438 24.0294C18.2934 24.0294 25.0848 24.4768 23.7058 31.8888L35.8799 17.5082C36.0148 17.3281 36.3707 16.8771 36.3707 16.5265C36.3707 16.0216 36.1748 15.7551 35.7396 15.7551H21.9258C21.0282 15.7551 15.3975 15.1342 16.8532 7.51068Z" fill="#FEDD00"/>
<defs>
<linearGradient id="paint0_linear_43_2650" x1="20.1268" y1="0.0429687" x2="20.1268" y2="40.6192" gradientUnits="userSpaceOnUse">
<stop stop-color="#FEDD00"/>
<stop offset="0.478125" stop-color="#B4A059"/>
<stop offset="1" stop-color="#FEDD00"/>
</linearGradient>
</defs>
</svg>
