<svg width="320" height="154" viewBox="0 0 320 154" fill="none" xmlns="http://www.w3.org/2000/svg">
<g clip-path="url(#clip0_148_5012)">
<rect width="320" height="154.335" rx="15.3694" fill="white"/>
<rect x="11.5269" y="11.527" width="296.946" height="35.1439" rx="6.57195" fill="#F4F7FD"/>
<path d="M28.7541 28.0785C28.337 27.8777 27.921 27.6747 27.5018 27.4814C27.4528 27.4702 27.4015 27.4745 27.355 27.4939C27.1899 27.5411 27.0313 27.6117 26.8619 27.6405C26.6261 27.6806 26.5285 27.5726 26.5603 27.3321C26.5716 27.2475 26.5991 27.1644 26.624 27.0607L25.6447 26.5793C25.2131 26.3687 24.7814 26.1582 24.3498 25.948C24.0865 25.8182 24.0568 25.6326 24.2619 25.4247C24.5511 25.131 24.9012 25.0567 25.287 25.1533C26.0049 25.3302 26.72 25.5139 27.4322 25.7042C27.5644 25.7395 27.6545 25.727 27.7521 25.6169C27.935 25.4111 28.1368 25.2222 28.3332 25.029C28.4778 24.8857 28.5755 24.8879 28.7168 25.0333C28.8717 25.1918 29.0265 25.3503 29.1787 25.5115C29.3405 25.6825 29.3405 25.764 29.1717 25.9349C29.1231 25.9843 29.0681 26.0272 28.9871 26.0978C29.279 26.1732 29.5267 26.2384 29.7738 26.3013C29.8731 26.3263 29.981 26.3307 30.0716 26.3735C30.3322 26.4968 30.5032 26.4137 30.6921 26.2053C31.0261 25.8307 31.3832 25.4746 31.7496 25.131C32.267 24.6468 32.8691 24.3092 33.5743 24.1811C33.8802 24.1268 34.0356 24.2842 33.9709 24.5882C33.833 25.2663 33.5054 25.8906 33.0267 26.3877C32.6209 26.8067 32.1909 27.2019 31.7674 27.6041C31.729 27.6326 31.7011 27.6731 31.688 27.7193C31.6749 27.7654 31.6774 27.8146 31.6951 27.8592C31.803 28.2267 31.899 28.598 32.0005 28.9671C32.0119 28.9973 32.0254 29.0267 32.0409 29.055C32.1148 28.985 32.1769 28.921 32.2443 28.8629C32.3447 28.7766 32.4461 28.7711 32.5438 28.8716C32.7175 29.0496 32.8934 29.2249 33.065 29.4046C33.1847 29.5295 33.181 29.6489 33.058 29.7716C32.8626 29.9664 32.6679 30.1618 32.4672 30.3507C32.4341 30.3772 32.4102 30.4135 32.399 30.4545C32.3877 30.4954 32.3897 30.5389 32.4046 30.5787C32.6064 31.3517 32.8092 32.1247 32.9981 32.9014C33.0481 33.0832 33.0462 33.2755 32.9925 33.4562C32.9387 33.637 32.8354 33.7987 32.6943 33.923C32.5125 34.0945 32.3166 34.0544 32.2039 33.8204C31.8494 33.0849 31.4928 32.3516 31.1453 31.6133C31.0876 31.4912 31.032 31.4445 30.9057 31.5048C30.8654 31.5201 30.823 31.5296 30.78 31.533C30.5162 31.5759 30.391 31.4575 30.4504 31.1954C30.4881 31.0287 30.5701 30.8729 30.6257 30.7101C30.6487 30.659 30.6539 30.6016 30.6403 30.5472C30.459 30.1613 30.2696 29.7792 30.0775 29.3851C30.0448 29.4071 30.014 29.4318 29.9853 29.4589C29.408 30.126 28.6979 30.6297 27.9804 31.1183C27.7645 31.2681 27.5487 31.4239 27.3329 31.577C27.0318 31.7941 26.9326 32.0823 26.9995 32.4455C27.0453 32.6952 27.0782 32.9476 27.1122 33.1994C27.1311 33.3427 26.9256 33.6169 26.7847 33.6266C26.7213 33.6278 26.6598 33.6042 26.6132 33.5609C25.9463 32.9003 25.2837 32.2327 24.6196 31.5672C24.5192 31.4662 24.5419 31.3799 24.6196 31.2686C24.776 31.0407 24.9832 31.0423 25.2179 31.0895C25.4235 31.1308 25.6323 31.1584 25.8405 31.184C26.1643 31.2241 26.4168 31.0976 26.6035 30.829C26.9633 30.3095 27.3119 29.7781 27.6955 29.2781C27.975 28.9166 28.3073 28.5958 28.6197 28.2604C28.6717 28.2126 28.7281 28.1699 28.788 28.1328L28.7541 28.0785Z" fill="#306DDE"/>
<path d="M47.1248 20.0603V20.849H44.0392V27.0989H43.152V20.0603H47.1248ZM50.2508 21.7165C50.9014 21.7165 51.4239 21.9432 51.8182 22.3966C52.2191 22.8501 52.4195 23.5336 52.4195 24.4471C52.4195 25.0451 52.3275 25.5512 52.1435 25.9652C51.9661 26.3727 51.7131 26.6816 51.3845 26.8919C51.0624 27.0956 50.6813 27.1975 50.2409 27.1975C49.9715 27.1975 49.7316 27.1613 49.5213 27.089C49.311 27.0167 49.1303 26.9247 48.9791 26.813C48.8345 26.6947 48.7097 26.5665 48.6045 26.4285H48.5454C48.5585 26.5403 48.5717 26.6816 48.5848 26.8524C48.598 27.0233 48.6045 27.1712 48.6045 27.296V29.4648H47.737V21.815H48.4468L48.5651 22.5347H48.6045C48.7097 22.3835 48.8345 22.2455 48.9791 22.1206C49.1303 21.9958 49.3077 21.8972 49.5115 21.8249C49.7218 21.7526 49.9682 21.7165 50.2508 21.7165ZM50.0931 22.4459C49.7382 22.4459 49.4523 22.5149 49.2354 22.653C49.0186 22.7844 48.8608 22.9848 48.7623 23.2543C48.6637 23.5237 48.6111 23.8655 48.6045 24.2795V24.4471C48.6045 24.8808 48.6505 25.2489 48.7425 25.5512C48.8345 25.8535 48.989 26.0835 49.2059 26.2412C49.4293 26.399 49.7316 26.4778 50.1128 26.4778C50.4348 26.4778 50.6977 26.3891 50.9014 26.2117C51.1117 26.0342 51.2662 25.7943 51.3647 25.492C51.4699 25.1832 51.5225 24.8316 51.5225 24.4372C51.5225 23.8326 51.4042 23.3496 51.1676 22.9881C50.9376 22.6267 50.5794 22.4459 50.0931 22.4459ZM52.9023 21.815H53.8289L54.9724 24.8217C55.0382 24.9991 55.0973 25.17 55.1499 25.3343C55.209 25.4986 55.2616 25.6596 55.3076 25.8173C55.3536 25.9685 55.3898 26.1164 55.416 26.261H55.4555C55.4949 26.0967 55.5573 25.8831 55.6428 25.6202C55.7282 25.3507 55.8169 25.0813 55.9089 24.8118L56.9835 21.815H57.92L55.6428 27.8284C55.5179 28.157 55.37 28.4428 55.1992 28.686C55.0349 28.9357 54.8311 29.1263 54.588 29.2578C54.3514 29.3958 54.0622 29.4648 53.7205 29.4648C53.5628 29.4648 53.4247 29.4549 53.3065 29.4352C53.1882 29.4221 53.0863 29.4056 53.0009 29.3859V28.6959C53.0731 28.709 53.1586 28.7221 53.2572 28.7353C53.3623 28.7484 53.4708 28.755 53.5825 28.755C53.7862 28.755 53.9604 28.7156 54.1049 28.6367C54.2561 28.5644 54.3843 28.456 54.4894 28.3114C54.5946 28.1734 54.6833 28.0091 54.7556 27.8185L55.0316 27.1186L52.9023 21.815ZM63.2459 21.815V27.0989H62.3784V22.5544H59.6477V27.0989H58.7802V21.815H63.2459ZM69.4221 21.815V27.0989H68.5546V22.5544H65.8239V27.0989H64.9564V21.815H69.4221ZM75.7265 24.4471C75.7265 24.8874 75.6673 25.2784 75.549 25.6202C75.4373 25.9554 75.273 26.2412 75.0561 26.4778C74.8458 26.7144 74.5862 26.8951 74.2773 27.02C73.975 27.1383 73.6366 27.1975 73.262 27.1975C72.9137 27.1975 72.5916 27.1383 72.2959 27.02C72.0002 26.8951 71.7439 26.7144 71.527 26.4778C71.3101 26.2412 71.1392 25.9554 71.0144 25.6202C70.8961 25.2784 70.8369 24.8874 70.8369 24.4471C70.8369 23.8622 70.9355 23.3693 71.1327 22.9684C71.3298 22.5609 71.6124 22.2521 71.9804 22.0418C72.3485 21.8249 72.7855 21.7165 73.2915 21.7165C73.7713 21.7165 74.1919 21.8249 74.5534 22.0418C74.9214 22.2521 75.2073 22.5609 75.411 22.9684C75.6213 23.3693 75.7265 23.8622 75.7265 24.4471ZM71.734 24.4471C71.734 24.8611 71.7866 25.2226 71.8917 25.5315C72.0034 25.8338 72.1743 26.0671 72.4043 26.2314C72.6344 26.3957 72.9268 26.4778 73.2817 26.4778C73.6366 26.4778 73.929 26.3957 74.159 26.2314C74.3891 26.0671 74.5566 25.8338 74.6618 25.5315C74.7735 25.2226 74.8294 24.8611 74.8294 24.4471C74.8294 24.0265 74.7735 23.6683 74.6618 23.3726C74.5501 23.0768 74.3792 22.8501 74.1492 22.6924C73.9257 22.5281 73.6333 22.4459 73.2718 22.4459C72.7329 22.4459 72.3419 22.6234 72.0987 22.9783C71.8556 23.3331 71.734 23.8228 71.734 24.4471ZM81.3747 23.1458C81.3747 23.4744 81.2762 23.7308 81.079 23.9148C80.8818 24.0988 80.6288 24.2236 80.3199 24.2894V24.3288C80.6485 24.3748 80.9344 24.4931 81.1776 24.6837C81.4207 24.8677 81.5423 25.1569 81.5423 25.5512C81.5423 25.7746 81.4996 25.9816 81.4142 26.1722C81.3353 26.3628 81.2104 26.5271 81.0396 26.6651C80.8687 26.8031 80.6485 26.9116 80.3791 26.9904C80.1096 27.0627 79.7843 27.0989 79.4032 27.0989H77.126V21.815H79.3933C79.7679 21.815 80.1031 21.8577 80.3988 21.9432C80.7011 22.022 80.9377 22.1601 81.1086 22.3572C81.286 22.5478 81.3747 22.8107 81.3747 23.1458ZM80.6453 25.5512C80.6453 25.2489 80.5302 25.032 80.3002 24.9006C80.0702 24.7691 79.7317 24.7034 79.2849 24.7034H77.9935V26.399H79.3046C79.7383 26.399 80.0702 26.3365 80.3002 26.2117C80.5302 26.0802 80.6453 25.8601 80.6453 25.5512ZM80.4974 23.2543C80.4974 23.0046 80.4054 22.8238 80.2214 22.7121C80.0439 22.5938 79.7515 22.5347 79.344 22.5347H77.9935V23.9838H79.1863C79.6135 23.9838 79.9388 23.9246 80.1622 23.8063C80.3857 23.688 80.4974 23.504 80.4974 23.2543ZM87.4243 24.4471C87.4243 24.8874 87.3651 25.2784 87.2468 25.6202C87.1351 25.9554 86.9708 26.2412 86.7539 26.4778C86.5436 26.7144 86.284 26.8951 85.9752 27.02C85.6728 27.1383 85.3344 27.1975 84.9598 27.1975C84.6115 27.1975 84.2894 27.1383 83.9937 27.02C83.698 26.8951 83.4417 26.7144 83.2248 26.4778C83.0079 26.2412 82.837 25.9554 82.7122 25.6202C82.5939 25.2784 82.5347 24.8874 82.5347 24.4471C82.5347 23.8622 82.6333 23.3693 82.8305 22.9684C83.0276 22.5609 83.3102 22.2521 83.6783 22.0418C84.0463 21.8249 84.4833 21.7165 84.9894 21.7165C85.4691 21.7165 85.8897 21.8249 86.2512 22.0418C86.6192 22.2521 86.9051 22.5609 87.1088 22.9684C87.3191 23.3693 87.4243 23.8622 87.4243 24.4471ZM83.4318 24.4471C83.4318 24.8611 83.4844 25.2226 83.5895 25.5315C83.7013 25.8338 83.8721 26.0671 84.1021 26.2314C84.3322 26.3957 84.6246 26.4778 84.9795 26.4778C85.3344 26.4778 85.6268 26.3957 85.8569 26.2314C86.0869 26.0671 86.2545 25.8338 86.3596 25.5315C86.4713 25.2226 86.5272 24.8611 86.5272 24.4471C86.5272 24.0265 86.4713 23.6683 86.3596 23.3726C86.2479 23.0768 86.077 22.8501 85.847 22.6924C85.6236 22.5281 85.3311 22.4459 84.9696 22.4459C84.4307 22.4459 84.0397 22.6234 83.7966 22.9783C83.5534 23.3331 83.4318 23.8228 83.4318 24.4471ZM93.1021 19.6266C93.0758 19.9552 92.9937 20.2312 92.8557 20.4546C92.7242 20.6781 92.5271 20.8457 92.2642 20.9574C92.0013 21.0691 91.6596 21.125 91.239 21.125C90.8118 21.125 90.4668 21.0691 90.2039 20.9574C89.9476 20.8457 89.7603 20.6814 89.642 20.4645C89.5237 20.241 89.4514 19.9617 89.4251 19.6266H90.2335C90.2663 19.9815 90.3583 20.2213 90.5095 20.3462C90.6672 20.4645 90.9169 20.5236 91.2587 20.5236C91.561 20.5236 91.7976 20.4612 91.9685 20.3363C92.1459 20.2049 92.2511 19.9683 92.2839 19.6266H93.1021ZM89.642 25.0386C89.642 25.0977 89.6387 25.1832 89.6321 25.2949C89.6321 25.4 89.6288 25.515 89.6223 25.6399C89.6157 25.7582 89.6091 25.8732 89.6026 25.9849C89.596 26.0901 89.5894 26.1755 89.5828 26.2412L92.4121 21.815H93.4767V27.0989H92.6684V23.9838C92.6684 23.8786 92.6684 23.7406 92.6684 23.5697C92.6749 23.3989 92.6815 23.2313 92.6881 23.067C92.6947 22.8961 92.7012 22.768 92.7078 22.6825L89.8983 27.0989H88.8238V21.815H89.642V25.0386ZM102.301 21.815V27.0989H101.434V22.5544H98.7032V27.0989H97.8357V21.815H102.301ZM106.053 21.7165C106.506 21.7165 106.894 21.815 107.216 22.0122C107.544 22.2093 107.794 22.4887 107.965 22.8501C108.142 23.205 108.231 23.6223 108.231 24.1021V24.6245H104.613C104.626 25.2226 104.778 25.6793 105.067 25.9948C105.362 26.3037 105.773 26.4581 106.299 26.4581C106.634 26.4581 106.93 26.4285 107.186 26.3694C107.449 26.3037 107.718 26.2117 107.995 26.0934V26.8524C107.725 26.9707 107.459 27.0562 107.196 27.1087C106.933 27.1679 106.621 27.1975 106.26 27.1975C105.76 27.1975 105.316 27.0956 104.929 26.8919C104.548 26.6881 104.249 26.3858 104.032 25.9849C103.821 25.5775 103.716 25.0813 103.716 24.4964C103.716 23.9181 103.811 23.4219 104.002 23.0078C104.199 22.5938 104.472 22.2751 104.82 22.0516C105.175 21.8282 105.586 21.7165 106.053 21.7165ZM106.043 22.4262C105.629 22.4262 105.3 22.5609 105.057 22.8304C104.82 23.0933 104.679 23.4613 104.633 23.9345H107.324C107.324 23.6322 107.278 23.3693 107.186 23.1458C107.094 22.9224 106.953 22.7482 106.762 22.6234C106.578 22.4919 106.338 22.4262 106.043 22.4262ZM112.115 21.7165C112.765 21.7165 113.288 21.9432 113.682 22.3966C114.083 22.8501 114.283 23.5336 114.283 24.4471C114.283 25.0451 114.191 25.5512 114.007 25.9652C113.83 26.3727 113.577 26.6816 113.248 26.8919C112.926 27.0956 112.545 27.1975 112.105 27.1975C111.835 27.1975 111.595 27.1613 111.385 27.089C111.175 27.0167 110.994 26.9247 110.843 26.813C110.698 26.6947 110.574 26.5665 110.468 26.4285H110.409C110.422 26.5403 110.436 26.6816 110.449 26.8524C110.462 27.0233 110.468 27.1712 110.468 27.296V29.4648H109.601V21.815H110.311L110.429 22.5347H110.468C110.574 22.3835 110.698 22.2455 110.843 22.1206C110.994 21.9958 111.172 21.8972 111.375 21.8249C111.586 21.7526 111.832 21.7165 112.115 21.7165ZM111.957 22.4459C111.602 22.4459 111.316 22.5149 111.099 22.653C110.882 22.7844 110.725 22.9848 110.626 23.2543C110.528 23.5237 110.475 23.8655 110.468 24.2795V24.4471C110.468 24.8808 110.514 25.2489 110.606 25.5512C110.698 25.8535 110.853 26.0835 111.07 26.2412C111.293 26.399 111.595 26.4778 111.977 26.4778C112.299 26.4778 112.562 26.3891 112.765 26.2117C112.976 26.0342 113.13 25.7943 113.229 25.492C113.334 25.1832 113.386 24.8316 113.386 24.4372C113.386 23.8326 113.268 23.3496 113.031 22.9881C112.801 22.6267 112.443 22.4459 111.957 22.4459ZM117.731 21.7165C118.185 21.7165 118.572 21.815 118.894 22.0122C119.223 22.2093 119.473 22.4887 119.644 22.8501C119.821 23.205 119.91 23.6223 119.91 24.1021V24.6245H116.292C116.305 25.2226 116.456 25.6793 116.745 25.9948C117.041 26.3037 117.452 26.4581 117.978 26.4581C118.313 26.4581 118.608 26.4285 118.865 26.3694C119.128 26.3037 119.397 26.2117 119.673 26.0934V26.8524C119.404 26.9707 119.137 27.0562 118.875 27.1087C118.612 27.1679 118.3 27.1975 117.938 27.1975C117.439 27.1975 116.995 27.0956 116.607 26.8919C116.226 26.6881 115.927 26.3858 115.71 25.9849C115.5 25.5775 115.395 25.0813 115.395 24.4964C115.395 23.9181 115.49 23.4219 115.681 23.0078C115.878 22.5938 116.151 22.2751 116.499 22.0516C116.854 21.8282 117.264 21.7165 117.731 21.7165ZM117.721 22.4262C117.307 22.4262 116.979 22.5609 116.735 22.8304C116.499 23.0933 116.358 23.4613 116.312 23.9345H119.003C119.003 23.6322 118.957 23.3693 118.865 23.1458C118.773 22.9224 118.631 22.7482 118.441 22.6234C118.257 22.4919 118.017 22.4262 117.721 22.4262ZM125.301 27.0989H124.424V22.5347H122.867C122.801 23.3693 122.719 24.0824 122.62 24.6738C122.522 25.2587 122.397 25.7352 122.246 26.1032C122.094 26.4713 121.914 26.7407 121.703 26.9116C121.493 27.0824 121.247 27.1679 120.964 27.1679C120.879 27.1679 120.793 27.1613 120.708 27.1482C120.629 27.1416 120.563 27.1252 120.511 27.0989V26.4483C120.55 26.4614 120.593 26.4713 120.639 26.4778C120.685 26.4844 120.731 26.4877 120.777 26.4877C120.921 26.4877 121.053 26.4285 121.171 26.3102C121.289 26.1919 121.394 26.0112 121.486 25.7681C121.585 25.5249 121.674 25.2193 121.753 24.8513C121.832 24.4767 121.901 24.0363 121.96 23.5303C122.019 23.0243 122.071 22.4525 122.117 21.815H125.301V27.0989ZM129.044 21.7165C129.497 21.7165 129.885 21.815 130.207 22.0122C130.536 22.2093 130.785 22.4887 130.956 22.8501C131.134 23.205 131.222 23.6223 131.222 24.1021V24.6245H127.605C127.618 25.2226 127.769 25.6793 128.058 25.9948C128.354 26.3037 128.764 26.4581 129.29 26.4581C129.625 26.4581 129.921 26.4285 130.177 26.3694C130.44 26.3037 130.71 26.2117 130.986 26.0934V26.8524C130.716 26.9707 130.45 27.0562 130.187 27.1087C129.924 27.1679 129.612 27.1975 129.251 27.1975C128.751 27.1975 128.308 27.0956 127.92 26.8919C127.539 26.6881 127.24 26.3858 127.023 25.9849C126.813 25.5775 126.707 25.0813 126.707 24.4964C126.707 23.9181 126.803 23.4219 126.993 23.0078C127.191 22.5938 127.463 22.2751 127.812 22.0516C128.166 21.8282 128.577 21.7165 129.044 21.7165ZM129.034 22.4262C128.62 22.4262 128.291 22.5609 128.048 22.8304C127.812 23.0933 127.67 23.4613 127.624 23.9345H130.315C130.315 23.6322 130.269 23.3693 130.177 23.1458C130.085 22.9224 129.944 22.7482 129.754 22.6234C129.57 22.4919 129.33 22.4262 129.034 22.4262ZM136.24 22.5445H134.514V27.0989H133.657V22.5445H131.951V21.815H136.24V22.5445Z" fill="#24223E"/>
<path opacity="0.8" d="M47.024 35.7417C47.024 36.1331 46.9714 36.4807 46.8663 36.7845C46.767 37.0824 46.6209 37.3365 46.4281 37.5468C46.2412 37.7571 46.0105 37.9178 45.7359 38.0288C45.4672 38.1339 45.1663 38.1865 44.8333 38.1865C44.5237 38.1865 44.2375 38.1339 43.9746 38.0288C43.7117 37.9178 43.4839 37.7571 43.2911 37.5468C43.0983 37.3365 42.9465 37.0824 42.8355 36.7845C42.7303 36.4807 42.6777 36.1331 42.6777 35.7417C42.6777 35.2218 42.7654 34.7837 42.9406 34.4273C43.1159 34.0652 43.3671 33.7906 43.6942 33.6037C44.0213 33.4109 44.4098 33.3145 44.8596 33.3145C45.2861 33.3145 45.6599 33.4109 45.9812 33.6037C46.3084 33.7906 46.5625 34.0652 46.7436 34.4273C46.9305 34.7837 47.024 35.2218 47.024 35.7417ZM43.4751 35.7417C43.4751 36.1098 43.5219 36.4311 43.6153 36.7056C43.7147 36.9743 43.8665 37.1817 44.071 37.3278C44.2755 37.4738 44.5354 37.5468 44.8509 37.5468C45.1663 37.5468 45.4263 37.4738 45.6307 37.3278C45.8352 37.1817 45.9842 36.9743 46.0776 36.7056C46.1769 36.4311 46.2266 36.1098 46.2266 35.7417C46.2266 35.3679 46.1769 35.0495 46.0776 34.7866C45.9783 34.5237 45.8264 34.3222 45.622 34.182C45.4234 34.036 45.1634 33.9629 44.8421 33.9629C44.3631 33.9629 44.0155 34.1207 43.7994 34.4361C43.5832 34.7516 43.4751 35.1868 43.4751 35.7417ZM51.4246 34.0506H49.8911V38.0989H49.1288V34.0506H47.6129V33.4021H51.4246V34.0506ZM54.5003 37.6169C55.5751 36.8108 56.4047 36.0893 56.9888 35.4526C57.5789 34.81 57.8739 34.182 57.8739 33.5686C57.8739 33.1655 57.7716 32.8442 57.5672 32.6047C57.3686 32.3594 57.0414 32.2367 56.5858 32.2367C56.1418 32.2367 55.7971 32.3769 55.5518 32.6573C55.3123 32.9319 55.1779 33.2999 55.1487 33.7614H54.5528C54.5879 33.113 54.7865 32.6106 55.1487 32.2542C55.5167 31.892 55.9958 31.7109 56.5858 31.7109C57.1524 31.7109 57.611 31.8716 57.9615 32.1929C58.312 32.5083 58.4873 32.9582 58.4873 33.5423C58.4873 34.2492 58.1922 34.9356 57.6022 35.6015C57.0181 36.2617 56.2966 36.9072 55.4379 37.5381H58.68V38.0551H54.5003V37.6169ZM59.6594 34.9005C59.6594 33.8958 59.8142 33.1159 60.1238 32.5609C60.4334 32.0059 60.9884 31.7285 61.7887 31.7285C62.589 31.7285 63.144 32.0059 63.4536 32.5609C63.7632 33.1159 63.918 33.8958 63.918 34.9005C63.918 35.9228 63.7632 36.7144 63.4536 37.2752C63.144 37.836 62.589 38.1164 61.7887 38.1164C60.9825 38.1164 60.4247 37.836 60.115 37.2752C59.8113 36.7144 59.6594 35.9228 59.6594 34.9005ZM63.3134 34.9005C63.3134 34.3572 63.2754 33.8987 63.1995 33.5248C63.1235 33.1509 62.9746 32.8501 62.7526 32.6223C62.5306 32.3944 62.2093 32.2805 61.7887 32.2805C61.3681 32.2805 61.0468 32.3944 60.8248 32.6223C60.6028 32.8501 60.4539 33.1509 60.3779 33.5248C60.302 33.8987 60.264 34.3572 60.264 34.9005C60.264 35.4613 60.302 35.9316 60.3779 36.3113C60.4539 36.6852 60.6028 36.986 60.8248 37.2139C61.0468 37.4417 61.3681 37.5556 61.7887 37.5556C62.2093 37.5556 62.5306 37.4417 62.7526 37.2139C62.9746 36.986 63.1235 36.6852 63.1995 36.3113C63.2754 35.9316 63.3134 35.4613 63.3134 34.9005ZM68.3574 35.1108C68.3574 35.3854 68.4333 35.5899 68.5852 35.7242C68.7429 35.8527 68.9678 35.917 69.2599 35.917C69.552 35.917 69.8178 35.8732 70.0573 35.7856C70.2968 35.6921 70.5422 35.5694 70.7934 35.4175V33.4021H71.5645V38.0989H70.7934V36.0046C70.5305 36.174 70.2705 36.3084 70.0135 36.4077C69.7623 36.5012 69.4585 36.5479 69.1022 36.5479C68.6232 36.5479 68.2493 36.4223 67.9806 36.1711C67.7177 35.9199 67.5863 35.584 67.5863 35.1634V33.4021H68.3574V35.1108ZM74.8923 33.3145C75.2954 33.3145 75.6401 33.4021 75.9263 33.5774C76.2184 33.7526 76.4404 34.0009 76.5923 34.3222C76.75 34.6377 76.8289 35.0086 76.8289 35.435V35.8995H73.613C73.6247 36.4311 73.759 36.8371 74.0161 37.1175C74.279 37.392 74.6441 37.5293 75.1114 37.5293C75.4093 37.5293 75.6722 37.503 75.9 37.4504C76.1337 37.392 76.3732 37.3102 76.6186 37.2051V37.8798C76.3791 37.985 76.1425 38.0609 75.9088 38.1076C75.6751 38.1602 75.3977 38.1865 75.0764 38.1865C74.6324 38.1865 74.2381 38.096 73.8934 37.9149C73.5546 37.7338 73.2888 37.465 73.096 37.1087C72.9091 36.7465 72.8156 36.3055 72.8156 35.7856C72.8156 35.2715 72.9003 34.8304 73.0697 34.4624C73.245 34.0944 73.4874 33.811 73.797 33.6124C74.1125 33.4138 74.4776 33.3145 74.8923 33.3145ZM74.8836 33.9454C74.5156 33.9454 74.2235 34.0652 74.0073 34.3047C73.797 34.5383 73.6714 34.8655 73.6305 35.2861H76.0227C76.0227 35.0174 75.9818 34.7837 75.9 34.5851C75.8183 34.3865 75.6927 34.2316 75.5233 34.1207C75.3597 34.0038 75.1465 33.9454 74.8836 33.9454ZM81.6216 38.0989H80.8417V34.0418H79.4572C79.3988 34.7837 79.3258 35.4175 79.2382 35.9433C79.1506 36.4632 79.0396 36.8867 78.9052 37.2139C78.7708 37.541 78.6102 37.7805 78.4233 37.9324C78.2363 38.0843 78.0173 38.1602 77.7661 38.1602C77.6901 38.1602 77.6142 38.1544 77.5382 38.1427C77.4681 38.1368 77.4097 38.1222 77.363 38.0989V37.5205C77.398 37.5322 77.436 37.541 77.4769 37.5468C77.5178 37.5527 77.5587 37.5556 77.5996 37.5556C77.7281 37.5556 77.8449 37.503 77.9501 37.3979C78.0552 37.2927 78.1487 37.1321 78.2305 36.9159C78.3181 36.6998 78.397 36.4281 78.4671 36.101C78.5372 35.768 78.5985 35.3766 78.6511 34.9268C78.7037 34.477 78.7504 33.9688 78.7913 33.4021H81.6216V38.0989ZM87.2176 35.7417C87.2176 36.1331 87.165 36.4807 87.0599 36.7845C86.9606 37.0824 86.8145 37.3365 86.6218 37.5468C86.4348 37.7571 86.2041 37.9178 85.9295 38.0288C85.6608 38.1339 85.36 38.1865 85.027 38.1865C84.7174 38.1865 84.4311 38.1339 84.1682 38.0288C83.9054 37.9178 83.6775 37.7571 83.4848 37.5468C83.292 37.3365 83.1401 37.0824 83.0291 36.7845C82.9239 36.4807 82.8714 36.1331 82.8714 35.7417C82.8714 35.2218 82.959 34.7837 83.1343 34.4273C83.3095 34.0652 83.5607 33.7906 83.8878 33.6037C84.215 33.4109 84.6034 33.3145 85.0533 33.3145C85.4797 33.3145 85.8536 33.4109 86.1749 33.6037C86.502 33.7906 86.7561 34.0652 86.9372 34.4273C87.1242 34.7837 87.2176 35.2218 87.2176 35.7417ZM83.6688 35.7417C83.6688 36.1098 83.7155 36.4311 83.809 36.7056C83.9083 36.9743 84.0602 37.1817 84.2646 37.3278C84.4691 37.4738 84.729 37.5468 85.0445 37.5468C85.36 37.5468 85.6199 37.4738 85.8244 37.3278C86.0288 37.1817 86.1778 36.9743 86.2713 36.7056C86.3706 36.4311 86.4202 36.1098 86.4202 35.7417C86.4202 35.3679 86.3706 35.0495 86.2713 34.7866C86.172 34.5237 86.0201 34.3222 85.8156 34.182C85.617 34.036 85.357 33.9629 85.0357 33.9629C84.5567 33.9629 84.2091 34.1207 83.993 34.4361C83.7768 34.7516 83.6688 35.1868 83.6688 35.7417ZM92.2383 34.5851C92.2383 34.8772 92.1507 35.105 91.9754 35.2686C91.8002 35.4321 91.5753 35.5431 91.3007 35.6015V35.6366C91.5928 35.6775 91.8469 35.7826 92.0631 35.952C92.2792 36.1156 92.3873 36.3726 92.3873 36.7231C92.3873 36.9218 92.3493 37.1058 92.2734 37.2752C92.2033 37.4446 92.0923 37.5906 91.9404 37.7133C91.7885 37.836 91.5928 37.9324 91.3533 38.0025C91.1138 38.0667 90.8246 38.0989 90.4858 38.0989H88.4616V33.4021H90.477C90.81 33.4021 91.1079 33.4401 91.3708 33.516C91.6395 33.5861 91.8498 33.7088 92.0017 33.8841C92.1595 34.0535 92.2383 34.2871 92.2383 34.5851ZM91.5899 36.7231C91.5899 36.4544 91.4877 36.2617 91.2832 36.1448C91.0787 36.028 90.7779 35.9696 90.3807 35.9696H89.2327V37.4767H90.3982C90.7837 37.4767 91.0787 37.4212 91.2832 37.3102C91.4877 37.1934 91.5899 36.9977 91.5899 36.7231ZM91.4584 34.6815C91.4584 34.4595 91.3767 34.2988 91.2131 34.1995C91.0554 34.0944 90.7954 34.0418 90.4332 34.0418H89.2327V35.3299H90.293C90.6727 35.3299 90.9619 35.2773 91.1605 35.1722C91.3591 35.067 91.4584 34.9034 91.4584 34.6815ZM95.3462 33.3145C95.7492 33.3145 96.0939 33.4021 96.3802 33.5774C96.6722 33.7526 96.8942 34.0009 97.0461 34.3222C97.2038 34.6377 97.2827 35.0086 97.2827 35.435V35.8995H94.0668C94.0785 36.4311 94.2129 36.8371 94.4699 37.1175C94.7328 37.392 95.0979 37.5293 95.5652 37.5293C95.8632 37.5293 96.126 37.503 96.3539 37.4504C96.5875 37.392 96.827 37.3102 97.0724 37.2051V37.8798C96.8329 37.985 96.5963 38.0609 96.3626 38.1076C96.129 38.1602 95.8515 38.1865 95.5302 38.1865C95.0862 38.1865 94.6919 38.096 94.3472 37.9149C94.0084 37.7338 93.7426 37.465 93.5498 37.1087C93.3629 36.7465 93.2694 36.3055 93.2694 35.7856C93.2694 35.2715 93.3541 34.8304 93.5235 34.4624C93.6988 34.0944 93.9412 33.811 94.2508 33.6124C94.5663 33.4138 94.9314 33.3145 95.3462 33.3145ZM95.3374 33.9454C94.9694 33.9454 94.6773 34.0652 94.4611 34.3047C94.2508 34.5383 94.1252 34.8655 94.0844 35.2861H96.4765C96.4765 35.0174 96.4356 34.7837 96.3539 34.5851C96.2721 34.3865 96.1465 34.2316 95.9771 34.1207C95.8135 34.0038 95.6003 33.9454 95.3374 33.9454ZM101.278 33.4021H102.119L100.113 35.6629L102.286 38.0989H101.392L99.2714 35.7154V38.0989H98.5003V33.4021H99.2714V35.6804L101.278 33.4021Z" fill="#ABABC8"/>
<rect x="272.613" y="22.5145" width="24.6199" height="13.1688" rx="6.5844" fill="#12CC52" stroke="#0FC121" stroke-width="0.572556"/>
<circle cx="290.649" cy="29.099" r="5.43928" fill="#FEFEFE" stroke="#0FC121" stroke-width="0.572556"/>
<rect x="11.5269" y="58.6709" width="296.946" height="35.1439" rx="6.57195" fill="#F4F7FD"/>
<path d="M34.2198 79.6486H24.2749C24.2749 79.7871 24.2804 79.9127 24.2749 80.0383C24.2757 80.0936 24.2656 80.1484 24.2452 80.1998C24.2247 80.2511 24.1943 80.2978 24.1556 80.3373C24.117 80.3768 24.0709 80.4083 24.02 80.4299C23.9692 80.4515 23.9146 80.4628 23.8593 80.4631C23.752 80.4629 23.6492 80.4202 23.5732 80.3444C23.4973 80.2687 23.4544 80.1659 23.4539 80.0586C23.4474 79.0428 23.4308 78.0344 23.4631 77.0241C23.4825 76.4155 24.0172 75.9464 24.6341 75.9159C24.8188 75.9049 25.0035 75.9159 25.1882 75.9159H33.5779C34.5781 75.9159 35.0555 76.386 35.0555 77.3787C35.0555 78.2339 35.0555 79.089 35.0555 79.9441C35.0555 80.2793 34.8902 80.4797 34.6289 80.4714C34.3675 80.4631 34.2308 80.2729 34.2271 79.9478C34.2188 79.8462 34.2198 79.7585 34.2198 79.6486Z" fill="#306DDE"/>
<path d="M33.8056 75.0708H32.5607C32.5607 74.948 32.5607 74.839 32.5607 74.731C32.5533 74.1917 32.219 73.85 31.6853 73.8426C31.3076 73.837 30.9308 73.8426 30.554 73.8426C30.0128 73.8481 29.6795 74.1778 29.6665 74.719C29.6665 74.827 29.6665 74.936 29.6665 75.0884H28.8354C28.8354 74.9471 28.8354 74.8233 28.8354 74.6996C28.8225 74.1935 28.4863 73.8546 27.9803 73.8463C27.6035 73.8398 27.2267 73.8463 26.849 73.8463C26.2746 73.8463 25.944 74.1806 25.9385 74.7559C25.9385 74.8556 25.9385 74.9563 25.9385 75.0736H24.7158C24.7026 75.0034 24.6939 74.9325 24.6899 74.8612C24.6899 74.1439 24.6899 73.4267 24.6899 72.7095C24.6918 72.3207 24.8331 72.1831 25.2293 72.1831H33.2635C33.6698 72.1831 33.8083 72.3207 33.8102 72.7307C33.8083 73.5027 33.8056 74.2729 33.8056 75.0708Z" fill="#306DDE"/>
<path d="M49.2935 70.7137C49.2935 71.2591 49.2245 71.7553 49.0865 72.2022C48.9485 72.6425 48.7415 73.0237 48.4654 73.3457C48.196 73.6678 47.8575 73.9142 47.4501 74.0851C47.0492 74.2559 46.5826 74.3414 46.0502 74.3414C45.4982 74.3414 45.0185 74.2559 44.611 74.0851C44.2035 73.9076 43.8651 73.6612 43.5956 73.3457C43.3262 73.0237 43.1257 72.6392 42.9943 72.1923C42.8629 71.7455 42.7971 71.2493 42.7971 70.7038C42.7971 69.9809 42.9154 69.35 43.152 68.8111C43.3886 68.2722 43.7468 67.8516 44.2265 67.5493C44.7129 67.247 45.324 67.0958 46.0601 67.0958C46.7633 67.0958 47.3548 67.247 47.8345 67.5493C48.3143 67.845 48.6757 68.2656 48.9189 68.8111C49.1686 69.35 49.2935 69.9842 49.2935 70.7137ZM43.7336 70.7137C43.7336 71.3051 43.8158 71.8145 43.9801 72.2416C44.1444 72.6688 44.3974 72.9974 44.7391 73.2274C45.0875 73.4574 45.5245 73.5725 46.0502 73.5725C46.5826 73.5725 47.0163 73.4574 47.3515 73.2274C47.6932 72.9974 47.9463 72.6688 48.1106 72.2416C48.2749 71.8145 48.357 71.3051 48.357 70.7137C48.357 69.8264 48.173 69.1331 47.805 68.6336C47.4369 68.1276 46.8553 67.8746 46.0601 67.8746C45.5278 67.8746 45.0875 67.9896 44.7391 68.2196C44.3974 68.4431 44.1444 68.7684 43.9801 69.1955C43.8158 69.6161 43.7336 70.1222 43.7336 70.7137ZM54.4073 69.6884H52.6822V74.2428H51.8245V69.6884H50.1191V68.959H54.4073V69.6884ZM57.4171 68.8604C57.8706 68.8604 58.2583 68.959 58.5804 69.1561C58.909 69.3533 59.1587 69.6326 59.3296 69.994C59.507 70.3489 59.5957 70.7662 59.5957 71.246V71.7685H55.9779C55.991 72.3665 56.1422 72.8233 56.4313 73.1387C56.7271 73.4476 57.1378 73.602 57.6636 73.602C57.9987 73.602 58.2945 73.5725 58.5508 73.5133C58.8137 73.4476 59.0831 73.3556 59.3591 73.2373V73.9963C59.0897 74.1146 58.8235 74.2001 58.5606 74.2527C58.2978 74.3118 57.9856 74.3414 57.6241 74.3414C57.1247 74.3414 56.6811 74.2395 56.2933 74.0358C55.9122 73.8321 55.6131 73.5297 55.3963 73.1289C55.186 72.7214 55.0808 72.2252 55.0808 71.6403C55.0808 71.062 55.1761 70.5658 55.3667 70.1518C55.5638 69.7377 55.8366 69.419 56.1849 69.1955C56.5398 68.9721 56.9505 68.8604 57.4171 68.8604ZM57.4073 69.5701C56.9932 69.5701 56.6646 69.7049 56.4215 69.9743C56.1849 70.2372 56.0436 70.6052 55.9976 71.0784H58.6888C58.6888 70.7761 58.6428 70.5132 58.5508 70.2898C58.4588 70.0663 58.3175 69.8922 58.1269 69.7673C57.9429 69.6359 57.703 69.5701 57.4073 69.5701ZM64.9876 74.2428H64.1102V69.6786H62.5526C62.4869 70.5132 62.4048 71.2263 62.3062 71.8177C62.2076 72.4027 62.0828 72.8791 61.9316 73.2471C61.7804 73.6152 61.5997 73.8846 61.3894 74.0555C61.1791 74.2264 60.9327 74.3118 60.6501 74.3118C60.5646 74.3118 60.4792 74.3052 60.3938 74.2921C60.3149 74.2855 60.2492 74.2691 60.1966 74.2428V73.5922C60.236 73.6053 60.2788 73.6152 60.3248 73.6217C60.3708 73.6283 60.4168 73.6316 60.4628 73.6316C60.6073 73.6316 60.7388 73.5725 60.8571 73.4542C60.9754 73.3359 61.0805 73.1551 61.1725 72.912C61.2711 72.6688 61.3598 72.3632 61.4387 71.9952C61.5176 71.6206 61.5866 71.1803 61.6457 70.6742C61.7049 70.1682 61.7574 69.5964 61.8034 68.959H64.9876V74.2428ZM69.1242 71.1277C69.5842 71.1277 69.9654 71.1836 70.2677 71.2953C70.57 71.407 70.7967 71.5746 70.9479 71.798C71.1056 72.0149 71.1845 72.2909 71.1845 72.6261C71.1845 72.9547 71.1089 73.2406 70.9578 73.4837C70.8132 73.7269 70.5864 73.9142 70.2776 74.0456C69.9687 74.1771 69.5711 74.2428 69.0848 74.2428H66.6893V68.959H67.5568V71.1277H69.1242ZM70.317 72.6754C70.317 72.3534 70.202 72.1365 69.972 72.0248C69.7485 71.9065 69.4331 71.8473 69.0256 71.8473H67.5568V73.5429H69.0453C69.4133 73.5429 69.7157 73.4772 69.9522 73.3457C70.1954 73.2143 70.317 72.9908 70.317 72.6754ZM79.1433 68.959V73.5133H79.9122V76.0764H79.0743V74.2428H75.3973V76.0764H74.5692V73.5133H74.9931C75.2954 73.0927 75.5452 72.636 75.7423 72.1431C75.946 71.6436 76.0972 71.1244 76.1958 70.5855C76.3009 70.04 76.3568 69.4978 76.3634 68.959H79.1433ZM77.1323 69.6391C77.106 70.086 77.037 70.5494 76.9253 71.0291C76.8135 71.5023 76.669 71.9558 76.4915 72.3895C76.3206 72.8233 76.1202 73.1979 75.8902 73.5133H78.3054V69.6391H77.1323ZM84.9945 74.2428H84.1172V69.6786H82.5596C82.4939 70.5132 82.4117 71.2263 82.3132 71.8177C82.2146 72.4027 82.0897 72.8791 81.9386 73.2471C81.7874 73.6152 81.6067 73.8846 81.3964 74.0555C81.1861 74.2264 80.9396 74.3118 80.657 74.3118C80.5716 74.3118 80.4862 74.3052 80.4007 74.2921C80.3219 74.2855 80.2561 74.2691 80.2036 74.2428V73.5922C80.243 73.6053 80.2857 73.6152 80.3317 73.6217C80.3777 73.6283 80.4237 73.6316 80.4697 73.6316C80.6143 73.6316 80.7458 73.5725 80.864 73.4542C80.9823 73.3359 81.0875 73.1551 81.1795 72.912C81.2781 72.6688 81.3668 72.3632 81.4457 71.9952C81.5245 71.6206 81.5935 71.1803 81.6527 70.6742C81.7118 70.1682 81.7644 69.5964 81.8104 68.959H84.9945V74.2428ZM87.0216 74.2428H86.016L87.5243 72.0248C87.3206 71.9722 87.1234 71.89 86.9328 71.7783C86.7422 71.66 86.5878 71.499 86.4695 71.2953C86.3512 71.085 86.2921 70.8254 86.2921 70.5165C86.2921 70.0105 86.4629 69.626 86.8047 69.3631C87.1464 69.0937 87.5999 68.959 88.1651 68.959H90.531V74.2428H89.6635V72.1431H88.3819L87.0216 74.2428ZM87.13 70.5264C87.13 70.8287 87.2417 71.0554 87.4652 71.2066C87.6952 71.3511 88.0139 71.4234 88.4214 71.4234H89.6635V69.6786H88.2538C87.8529 69.6786 87.5637 69.7574 87.3863 69.9152C87.2154 70.0729 87.13 70.2766 87.13 70.5264ZM98.1038 68.959V69.6884H95.7477V74.2428H94.8802V68.959H98.1038ZM101.683 68.8604C102.334 68.8604 102.856 69.0871 103.251 69.5406C103.652 69.994 103.852 70.6775 103.852 71.591C103.852 72.1891 103.76 72.6951 103.576 73.1091C103.399 73.5166 103.146 73.8255 102.817 74.0358C102.495 74.2395 102.114 74.3414 101.674 74.3414C101.404 74.3414 101.164 74.3052 100.954 74.2329C100.744 74.1606 100.563 74.0686 100.412 73.9569C100.267 73.8386 100.142 73.7105 100.037 73.5725H99.9779C99.9911 73.6842 100.004 73.8255 100.017 73.9963C100.031 74.1672 100.037 74.3151 100.037 74.44V76.6087H99.1696V68.959H99.8794L99.9977 69.6786H100.037C100.142 69.5274 100.267 69.3894 100.412 69.2645C100.563 69.1397 100.74 69.0411 100.944 68.9688C101.154 68.8965 101.401 68.8604 101.683 68.8604ZM101.526 69.5899C101.171 69.5899 100.885 69.6589 100.668 69.7969C100.451 69.9283 100.293 70.1288 100.195 70.3982C100.096 70.6677 100.044 71.0094 100.037 71.4234V71.591C100.037 72.0248 100.083 72.3928 100.175 72.6951C100.267 72.9974 100.422 73.2274 100.638 73.3852C100.862 73.5429 101.164 73.6217 101.545 73.6217C101.867 73.6217 102.13 73.533 102.334 73.3556C102.544 73.1781 102.699 72.9383 102.797 72.636C102.902 72.3271 102.955 71.9755 102.955 71.5812C102.955 70.9765 102.837 70.4935 102.6 70.132C102.37 69.7706 102.012 69.5899 101.526 69.5899ZM104.335 68.959H105.261L106.405 71.9656C106.471 72.1431 106.53 72.3139 106.582 72.4782C106.642 72.6425 106.694 72.8035 106.74 72.9613C106.786 73.1124 106.822 73.2603 106.849 73.4049H106.888C106.927 73.2406 106.99 73.027 107.075 72.7641C107.161 72.4947 107.25 72.2252 107.342 71.9558L108.416 68.959H109.353L107.075 74.9723C106.95 75.3009 106.803 75.5868 106.632 75.8299C106.467 76.0797 106.264 76.2702 106.021 76.4017C105.784 76.5397 105.495 76.6087 105.153 76.6087C104.995 76.6087 104.857 76.5988 104.739 76.5791C104.621 76.566 104.519 76.5496 104.433 76.5298V75.8398C104.506 75.8529 104.591 75.8661 104.69 75.8792C104.795 75.8924 104.903 75.8989 105.015 75.8989C105.219 75.8989 105.393 75.8595 105.538 75.7806C105.689 75.7083 105.817 75.5999 105.922 75.4553C106.027 75.3173 106.116 75.153 106.188 74.9624L106.464 74.2625L104.335 68.959ZM114.678 68.959V74.2428H113.811V69.6983H111.08V74.2428H110.213V68.959H114.678ZM120.855 68.959V74.2428H119.987V69.6983H117.256V74.2428H116.389V68.959H120.855ZM122.565 74.2428V68.959H123.433V71.1277H124.803C125.263 71.1277 125.641 71.1836 125.937 71.2953C126.232 71.407 126.453 71.5746 126.597 71.798C126.742 72.0149 126.814 72.2909 126.814 72.6261C126.814 72.9547 126.742 73.2406 126.597 73.4837C126.459 73.7269 126.239 73.9142 125.937 74.0456C125.641 74.1771 125.25 74.2428 124.764 74.2428H122.565ZM124.685 73.5429C125.059 73.5429 125.365 73.4805 125.601 73.3556C125.838 73.2241 125.956 72.9974 125.956 72.6754C125.956 72.3534 125.848 72.1365 125.631 72.0248C125.414 71.9065 125.102 71.8473 124.695 71.8473H123.433V73.5429H124.685ZM127.691 74.2428V68.959H128.559V74.2428H127.691Z" fill="#24223E"/>
<path opacity="0.8" d="M47.024 82.8857C47.024 83.2771 46.9714 83.6246 46.8663 83.9284C46.767 84.2263 46.6209 84.4805 46.4281 84.6908C46.2412 84.9011 46.0105 85.0617 45.7359 85.1727C45.4672 85.2778 45.1663 85.3304 44.8333 85.3304C44.5237 85.3304 44.2375 85.2778 43.9746 85.1727C43.7117 85.0617 43.4839 84.9011 43.2911 84.6908C43.0983 84.4805 42.9465 84.2263 42.8355 83.9284C42.7303 83.6246 42.6777 83.2771 42.6777 82.8857C42.6777 82.3657 42.7654 81.9276 42.9406 81.5713C43.1159 81.2091 43.3671 80.9345 43.6942 80.7476C44.0213 80.5548 44.4098 80.4584 44.8596 80.4584C45.2861 80.4584 45.6599 80.5548 45.9812 80.7476C46.3084 80.9345 46.5625 81.2091 46.7436 81.5713C46.9305 81.9276 47.024 82.3657 47.024 82.8857ZM43.4751 82.8857C43.4751 83.2537 43.5219 83.575 43.6153 83.8495C43.7147 84.1183 43.8665 84.3256 44.071 84.4717C44.2755 84.6177 44.5354 84.6908 44.8509 84.6908C45.1663 84.6908 45.4263 84.6177 45.6307 84.4717C45.8352 84.3256 45.9842 84.1183 46.0776 83.8495C46.1769 83.575 46.2266 83.2537 46.2266 82.8857C46.2266 82.5118 46.1769 82.1934 46.0776 81.9305C45.9783 81.6677 45.8264 81.4661 45.622 81.3259C45.4234 81.1799 45.1634 81.1069 44.8421 81.1069C44.3631 81.1069 44.0155 81.2646 43.7994 81.58C43.5832 81.8955 43.4751 82.3307 43.4751 82.8857ZM51.4246 81.1945H49.8911V85.2428H49.1288V81.1945H47.6129V80.546H51.4246V81.1945ZM55.4379 83.5691C55.5021 83.9489 55.6482 84.2409 55.876 84.4454C56.1038 84.6499 56.4164 84.7521 56.8136 84.7521C57.3627 84.7521 57.7687 84.5389 58.0316 84.1124C58.3003 83.6801 58.423 82.9674 58.3996 81.9743C58.2886 82.2956 58.0754 82.5498 57.76 82.7367C57.4503 82.9178 57.094 83.0083 56.6909 83.0083C56.0775 83.0083 55.5839 82.8243 55.21 82.4563C54.842 82.0883 54.658 81.5771 54.658 80.9228C54.658 80.5314 54.7339 80.178 54.8858 79.8626C55.0377 79.5471 55.2685 79.2988 55.5781 79.1177C55.8877 78.9366 56.2674 78.8461 56.7172 78.8461C57.5467 78.8461 58.1251 79.1177 58.4522 79.661C58.7793 80.1985 58.9429 80.9725 58.9429 81.9831C58.9429 83.0755 58.7793 83.8963 58.4522 84.4454C58.1309 84.9945 57.5759 85.2691 56.7873 85.2691C56.209 85.2691 55.7592 85.1143 55.4379 84.8047C55.1166 84.4892 54.9267 84.0774 54.8683 83.5691H55.4379ZM56.7873 82.4826C57.0619 82.4826 57.3131 82.4271 57.5409 82.3161C57.7746 82.1993 57.9615 82.0298 58.1017 81.8079C58.2419 81.5859 58.312 81.3201 58.312 81.0105C58.312 80.5314 58.1747 80.1371 57.9002 79.8275C57.6314 79.5179 57.243 79.3631 56.7347 79.3631C56.2849 79.3631 55.9227 79.5033 55.6482 79.7837C55.3795 80.0641 55.2451 80.438 55.2451 80.9053C55.2451 81.396 55.3795 81.7816 55.6482 82.062C55.9169 82.3424 56.2966 82.4826 56.7873 82.4826ZM63.4943 80.546V82.5001H66.0442V80.546H66.8154V85.2428H66.0442V83.1485H63.4943V85.2428H62.7232V80.546H63.4943ZM72.4078 82.8857C72.4078 83.2771 72.3552 83.6246 72.2501 83.9284C72.1508 84.2263 72.0047 84.4805 71.8119 84.6908C71.625 84.9011 71.3943 85.0617 71.1197 85.1727C70.851 85.2778 70.5501 85.3304 70.2172 85.3304C69.9075 85.3304 69.6213 85.2778 69.3584 85.1727C69.0955 85.0617 68.8677 84.9011 68.6749 84.6908C68.4822 84.4805 68.3303 84.2263 68.2193 83.9284C68.1141 83.6246 68.0616 83.2771 68.0616 82.8857C68.0616 82.3657 68.1492 81.9276 68.3244 81.5713C68.4997 81.2091 68.7509 80.9345 69.078 80.7476C69.4052 80.5548 69.7936 80.4584 70.2434 80.4584C70.6699 80.4584 71.0438 80.5548 71.3651 80.7476C71.6922 80.9345 71.9463 81.2091 72.1274 81.5713C72.3143 81.9276 72.4078 82.3657 72.4078 82.8857ZM68.859 82.8857C68.859 83.2537 68.9057 83.575 68.9992 83.8495C69.0985 84.1183 69.2503 84.3256 69.4548 84.4717C69.6593 84.6177 69.9192 84.6908 70.2347 84.6908C70.5501 84.6908 70.8101 84.6177 71.0146 84.4717C71.219 84.3256 71.368 84.1183 71.4614 83.8495C71.5608 83.575 71.6104 83.2537 71.6104 82.8857C71.6104 82.5118 71.5608 82.1934 71.4614 81.9305C71.3621 81.6677 71.2102 81.4661 71.0058 81.3259C70.8072 81.1799 70.5472 81.1069 70.2259 81.1069C69.7469 81.1069 69.3993 81.2646 69.1832 81.58C68.967 81.8955 68.859 82.3307 68.859 82.8857ZM78.6903 80.546V85.2428H77.9981V82.246C77.9981 82.1233 78.001 81.9948 78.0068 81.8604C78.0185 81.7261 78.0302 81.5946 78.0419 81.4661H78.0156L76.4821 85.2428H75.8337L74.3441 81.4661H74.3178C74.3295 81.5946 74.3353 81.7261 74.3353 81.8604C74.3411 81.9948 74.3441 82.1321 74.3441 82.2723V85.2428H73.6518V80.546H74.677L76.1579 84.3227L77.6651 80.546H78.6903ZM82.0253 80.4584C82.4284 80.4584 82.773 80.546 83.0593 80.7213C83.3514 80.8965 83.5734 81.1448 83.7252 81.4661C83.883 81.7816 83.9618 82.1525 83.9618 82.579V83.0434H80.746C80.7576 83.575 80.892 83.981 81.149 84.2614C81.4119 84.5359 81.777 84.6732 82.2444 84.6732C82.5423 84.6732 82.8052 84.6469 83.033 84.5944C83.2667 84.5359 83.5062 84.4542 83.7515 84.349V85.0237C83.512 85.1289 83.2754 85.2048 83.0418 85.2516C82.8081 85.3041 82.5306 85.3304 82.2093 85.3304C81.7653 85.3304 81.371 85.2399 81.0264 85.0588C80.6875 84.8777 80.4217 84.609 80.229 84.2526C80.042 83.8904 79.9486 83.4494 79.9486 82.9295C79.9486 82.4154 80.0333 81.9743 80.2027 81.6063C80.3779 81.2383 80.6204 80.955 80.93 80.7563C81.2454 80.5577 81.6105 80.4584 82.0253 80.4584ZM82.0165 81.0893C81.6485 81.0893 81.3564 81.2091 81.1403 81.4486C80.93 81.6823 80.8044 82.0094 80.7635 82.43H83.1557C83.1557 82.1613 83.1148 81.9276 83.033 81.729C82.9512 81.5304 82.8256 81.3756 82.6562 81.2646C82.4926 81.1477 82.2794 81.0893 82.0165 81.0893ZM87.4139 80.4584C87.9922 80.4584 88.4566 80.66 88.8071 81.063C89.1635 81.4661 89.3417 82.0737 89.3417 82.8857C89.3417 83.4173 89.2599 83.8671 89.0963 84.2351C88.9386 84.5973 88.7137 84.8718 88.4216 85.0588C88.1353 85.2399 87.7965 85.3304 87.4051 85.3304C87.1656 85.3304 86.9524 85.2983 86.7655 85.234C86.5785 85.1698 86.4179 85.088 86.2835 84.9887C86.155 84.8835 86.044 84.7696 85.9505 84.6469H85.898C85.9096 84.7463 85.9213 84.8718 85.933 85.0237C85.9447 85.1756 85.9505 85.3071 85.9505 85.418V87.3458H85.1794V80.546H85.8103L85.9155 81.1857H85.9505C86.044 81.0514 86.155 80.9287 86.2835 80.8177C86.4179 80.7067 86.5756 80.6191 86.7567 80.5548C86.9436 80.4905 87.1627 80.4584 87.4139 80.4584ZM87.2737 81.1069C86.9582 81.1069 86.7041 81.1682 86.5113 81.2909C86.3186 81.4077 86.1784 81.5859 86.0907 81.8254C86.0031 82.0649 85.9564 82.3687 85.9505 82.7367V82.8857C85.9505 83.2712 85.9914 83.5984 86.0732 83.8671C86.155 84.1358 86.2923 84.3403 86.4851 84.4805C86.6837 84.6207 86.9524 84.6908 87.2912 84.6908C87.5775 84.6908 87.8111 84.6119 87.9922 84.4542C88.1792 84.2964 88.3164 84.0832 88.4041 83.8145C88.4975 83.5399 88.5443 83.2274 88.5443 82.8769C88.5443 82.3395 88.4391 81.9101 88.2288 81.5888C88.0244 81.2675 87.706 81.1069 87.2737 81.1069ZM94.6758 82.8857C94.6758 83.2771 94.6232 83.6246 94.518 83.9284C94.4187 84.2263 94.2727 84.4805 94.0799 84.6908C93.893 84.9011 93.6622 85.0617 93.3877 85.1727C93.1189 85.2778 92.8181 85.3304 92.4851 85.3304C92.1755 85.3304 91.8893 85.2778 91.6264 85.1727C91.3635 85.0617 91.1357 84.9011 90.9429 84.6908C90.7501 84.4805 90.5982 84.2263 90.4872 83.9284C90.3821 83.6246 90.3295 83.2771 90.3295 82.8857C90.3295 82.3657 90.4171 81.9276 90.5924 81.5713C90.7676 81.2091 91.0188 80.9345 91.346 80.7476C91.6731 80.5548 92.0616 80.4584 92.5114 80.4584C92.9378 80.4584 93.3117 80.5548 93.633 80.7476C93.9601 80.9345 94.2143 81.2091 94.3954 81.5713C94.5823 81.9276 94.6758 82.3657 94.6758 82.8857ZM91.1269 82.8857C91.1269 83.2537 91.1736 83.575 91.2671 83.8495C91.3664 84.1183 91.5183 84.3256 91.7228 84.4717C91.9272 84.6177 92.1872 84.6908 92.5026 84.6908C92.8181 84.6908 93.078 84.6177 93.2825 84.4717C93.487 84.3256 93.6359 84.1183 93.7294 83.8495C93.8287 83.575 93.8784 83.2537 93.8784 82.8857C93.8784 82.5118 93.8287 82.1934 93.7294 81.9305C93.6301 81.6677 93.4782 81.4661 93.2737 81.3259C93.0751 81.1799 92.8152 81.1069 92.4939 81.1069C92.0149 81.1069 91.6673 81.2646 91.4511 81.58C91.235 81.8955 91.1269 82.3307 91.1269 82.8857ZM99.6965 81.729C99.6965 82.0211 99.6088 82.2489 99.4336 82.4125C99.2583 82.576 99.0334 82.687 98.7589 82.7455V82.7805C99.0509 82.8214 99.3051 82.9266 99.5212 83.096C99.7373 83.2595 99.8454 83.5166 99.8454 83.8671C99.8454 84.0657 99.8074 84.2497 99.7315 84.4191C99.6614 84.5885 99.5504 84.7346 99.3985 84.8572C99.2466 84.9799 99.0509 85.0763 98.8114 85.1464C98.5719 85.2107 98.2828 85.2428 97.9439 85.2428H95.9198V80.546H97.9352C98.2682 80.546 98.5661 80.584 98.829 80.66C99.0977 80.7301 99.308 80.8527 99.4599 81.028C99.6176 81.1974 99.6965 81.4311 99.6965 81.729ZM99.048 83.8671C99.048 83.5984 98.9458 83.4056 98.7413 83.2887C98.5369 83.1719 98.236 83.1135 97.8388 83.1135H96.6909V84.6207H97.8563C98.2419 84.6207 98.5369 84.5652 98.7413 84.4542C98.9458 84.3373 99.048 84.1416 99.048 83.8671ZM98.9166 81.8254C98.9166 81.6034 98.8348 81.4428 98.6712 81.3434C98.5135 81.2383 98.2535 81.1857 97.8914 81.1857H96.6909V82.4738H97.7512C98.1309 82.4738 98.42 82.4212 98.6187 82.3161C98.8173 82.2109 98.9166 82.0474 98.9166 81.8254Z" fill="#ABABC8"/>
<rect x="272.613" y="69.6585" width="24.6199" height="13.1688" rx="6.5844" fill="#12CC52" stroke="#0FC121" stroke-width="0.572556"/>
<circle cx="290.649" cy="76.2429" r="5.43928" fill="#FEFEFE" stroke="#0FC121" stroke-width="0.572556"/>
<rect x="11.5269" y="105.815" width="296.946" height="36.9934" rx="7.92714" fill="#306DDE"/>
<path d="M120.971 127.134C121.613 127.134 122.104 126.988 122.445 126.694C122.794 126.393 123.02 125.997 123.123 125.505L124.55 125.743C124.384 126.615 124.003 127.281 123.409 127.741C122.814 128.201 122.001 128.43 120.971 128.43C120.384 128.43 119.853 128.339 119.378 128.157C118.902 127.975 118.494 127.709 118.153 127.36C117.82 127.004 117.562 126.568 117.38 126.052C117.198 125.537 117.106 124.946 117.106 124.281C117.106 123.599 117.202 122.996 117.392 122.473C117.582 121.95 117.848 121.514 118.188 121.165C118.529 120.816 118.938 120.555 119.413 120.38C119.889 120.198 120.412 120.107 120.983 120.107C122.005 120.107 122.814 120.341 123.409 120.808C124.011 121.276 124.388 121.934 124.538 122.782L123.111 123.02C122.992 122.552 122.766 122.168 122.433 121.867C122.101 121.558 121.617 121.403 120.983 121.403C120.222 121.403 119.627 121.661 119.199 122.176C118.779 122.683 118.569 123.385 118.569 124.281C118.569 125.16 118.783 125.858 119.211 126.373C119.639 126.881 120.226 127.134 120.971 127.134ZM128.393 128.43C127.545 128.43 126.859 128.165 126.336 127.634C125.813 127.103 125.551 126.365 125.551 125.422C125.551 124.479 125.809 123.745 126.324 123.222C126.847 122.699 127.537 122.438 128.393 122.438C129.257 122.438 129.943 122.699 130.45 123.222C130.965 123.745 131.223 124.479 131.223 125.422C131.223 126.357 130.965 127.095 130.45 127.634C129.943 128.165 129.257 128.43 128.393 128.43ZM128.393 127.277C128.869 127.277 129.233 127.118 129.487 126.801C129.741 126.476 129.868 126.017 129.868 125.422C129.868 124.828 129.741 124.376 129.487 124.067C129.233 123.749 128.869 123.591 128.393 123.591C127.933 123.591 127.569 123.749 127.299 124.067C127.038 124.376 126.907 124.828 126.907 125.422C126.907 126.017 127.042 126.476 127.311 126.801C127.581 127.118 127.941 127.277 128.393 127.277ZM134.734 127.336C135.138 127.336 135.443 127.269 135.65 127.134C135.856 126.992 135.959 126.809 135.959 126.587C135.959 126.357 135.879 126.183 135.721 126.064C135.57 125.945 135.305 125.886 134.924 125.886H133.997V124.911H134.936C135.269 124.911 135.503 124.851 135.638 124.732C135.78 124.614 135.852 124.455 135.852 124.257C135.852 124.043 135.764 123.868 135.59 123.734C135.424 123.599 135.158 123.531 134.793 123.531C134.389 123.531 134.072 123.619 133.842 123.793C133.62 123.967 133.47 124.213 133.39 124.53L132.154 124.304C132.28 123.702 132.574 123.242 133.034 122.925C133.493 122.6 134.08 122.438 134.793 122.438C135.554 122.438 136.137 122.592 136.541 122.901C136.954 123.202 137.16 123.607 137.16 124.114C137.16 124.392 137.08 124.641 136.922 124.863C136.771 125.077 136.549 125.236 136.256 125.339C136.565 125.418 136.815 125.565 137.005 125.779C137.195 125.985 137.29 126.27 137.29 126.635C137.29 127.206 137.061 127.65 136.601 127.967C136.149 128.276 135.527 128.43 134.734 128.43C133.949 128.43 133.335 128.264 132.891 127.931C132.447 127.59 132.185 127.111 132.106 126.492L133.355 126.326C133.402 126.619 133.537 126.861 133.759 127.051C133.981 127.241 134.306 127.336 134.734 127.336ZM137.829 127.099H138.447C138.63 126.948 138.78 126.742 138.899 126.48C139.018 126.211 139.085 125.914 139.101 125.589C139.117 125.295 139.129 124.915 139.137 124.447C139.145 123.971 139.153 123.341 139.161 122.556H143.596V127.099H144.476V129.905H143.144V128.312H139.173V129.905H137.829V127.099ZM140.374 125.684C140.35 125.993 140.294 126.262 140.207 126.492C140.12 126.722 140.017 126.924 139.898 127.099H142.229V123.769H140.409C140.409 124.158 140.405 124.526 140.397 124.875C140.397 125.216 140.389 125.485 140.374 125.684ZM148.919 128.312V127.658C148.737 127.903 148.495 128.094 148.194 128.228C147.9 128.363 147.564 128.43 147.183 128.43C146.604 128.43 146.129 128.28 145.756 127.979C145.384 127.677 145.197 127.257 145.197 126.718C145.197 126.124 145.392 125.692 145.78 125.422C146.176 125.145 146.707 124.99 147.373 124.958C147.643 124.942 147.9 124.939 148.146 124.946C148.392 124.946 148.63 124.95 148.86 124.958V124.506C148.86 124.174 148.761 123.932 148.562 123.781C148.364 123.631 148.107 123.555 147.789 123.555C147.472 123.555 147.223 123.635 147.04 123.793C146.858 123.952 146.727 124.166 146.648 124.435L145.388 124.221C145.491 123.706 145.748 123.282 146.16 122.949C146.573 122.608 147.124 122.438 147.813 122.438C148.495 122.438 149.062 122.596 149.514 122.913C149.965 123.222 150.191 123.757 150.191 124.518V128.312H148.919ZM148.86 125.874C148.669 125.866 148.459 125.866 148.229 125.874C148 125.874 147.774 125.878 147.552 125.886C147.243 125.894 146.997 125.961 146.814 126.088C146.64 126.215 146.553 126.397 146.553 126.635C146.553 126.873 146.636 127.059 146.803 127.194C146.969 127.321 147.191 127.384 147.468 127.384C147.873 127.384 148.206 127.289 148.467 127.099C148.729 126.9 148.86 126.643 148.86 126.326V125.874ZM151.131 123.769V122.556H156.374V123.769H154.436V128.312H153.069V123.769H151.131ZM157.455 128.312V122.556H158.823V124.34H160.214C160.888 124.34 161.407 124.503 161.772 124.828C162.136 125.153 162.319 125.636 162.319 126.278C162.319 126.928 162.14 127.432 161.783 127.788C161.435 128.137 160.904 128.312 160.19 128.312H157.455ZM159.929 125.47H158.823V127.182H159.929C160.317 127.182 160.586 127.107 160.737 126.956C160.888 126.805 160.963 126.583 160.963 126.29C160.963 125.997 160.884 125.787 160.725 125.66C160.575 125.533 160.309 125.47 159.929 125.47ZM168.332 127.336C168.736 127.336 169.041 127.269 169.247 127.134C169.453 126.992 169.556 126.809 169.556 126.587C169.556 126.357 169.477 126.183 169.319 126.064C169.168 125.945 168.902 125.886 168.522 125.886H167.595V124.911H168.534C168.867 124.911 169.101 124.851 169.235 124.732C169.378 124.614 169.449 124.455 169.449 124.257C169.449 124.043 169.362 123.868 169.188 123.734C169.021 123.599 168.756 123.531 168.391 123.531C167.987 123.531 167.67 123.619 167.44 123.793C167.218 123.967 167.067 124.213 166.988 124.53L165.751 124.304C165.878 123.702 166.172 123.242 166.631 122.925C167.091 122.6 167.678 122.438 168.391 122.438C169.152 122.438 169.735 122.592 170.139 122.901C170.551 123.202 170.757 123.607 170.757 124.114C170.757 124.392 170.678 124.641 170.52 124.863C170.369 125.077 170.147 125.236 169.854 125.339C170.163 125.418 170.413 125.565 170.603 125.779C170.793 125.985 170.888 126.27 170.888 126.635C170.888 127.206 170.658 127.65 170.199 127.967C169.747 128.276 169.124 128.43 168.332 128.43C167.547 128.43 166.933 128.264 166.489 127.931C166.045 127.59 165.783 127.111 165.704 126.492L166.952 126.326C167 126.619 167.135 126.861 167.357 127.051C167.579 127.241 167.904 127.336 168.332 127.336ZM175.636 128.312V127.658C175.454 127.903 175.212 128.094 174.911 128.228C174.617 128.363 174.281 128.43 173.9 128.43C173.321 128.43 172.846 128.28 172.473 127.979C172.101 127.677 171.914 127.257 171.914 126.718C171.914 126.124 172.108 125.692 172.497 125.422C172.893 125.145 173.424 124.99 174.09 124.958C174.36 124.942 174.617 124.939 174.863 124.946C175.109 124.946 175.347 124.95 175.577 124.958V124.506C175.577 124.174 175.478 123.932 175.279 123.781C175.081 123.631 174.824 123.555 174.506 123.555C174.189 123.555 173.94 123.635 173.757 123.793C173.575 123.952 173.444 124.166 173.365 124.435L172.105 124.221C172.208 123.706 172.465 123.282 172.877 122.949C173.29 122.608 173.841 122.438 174.53 122.438C175.212 122.438 175.779 122.596 176.231 122.913C176.682 123.222 176.908 123.757 176.908 124.518V128.312H175.636ZM175.577 125.874C175.386 125.866 175.176 125.866 174.946 125.874C174.717 125.874 174.491 125.878 174.269 125.886C173.959 125.894 173.714 125.961 173.531 126.088C173.357 126.215 173.27 126.397 173.27 126.635C173.27 126.873 173.353 127.059 173.52 127.194C173.686 127.321 173.908 127.384 174.185 127.384C174.59 127.384 174.923 127.289 175.184 127.099C175.446 126.9 175.577 126.643 175.577 126.326V125.874ZM178.238 124.459C178.238 123.849 178.432 123.381 178.82 123.056C179.209 122.723 179.748 122.556 180.438 122.556H183.256V128.312H181.888V126.314H180.889L179.653 128.312H178.131L179.522 126.207C179.11 126.096 178.793 125.894 178.571 125.6C178.349 125.299 178.238 124.919 178.238 124.459ZM180.604 125.232H181.888V123.662H180.604C180.279 123.662 180.029 123.73 179.855 123.864C179.688 123.999 179.605 124.193 179.605 124.447C179.605 124.701 179.688 124.895 179.855 125.03C180.029 125.164 180.279 125.232 180.604 125.232ZM184.881 128.312V122.556H187.508C188.166 122.556 188.674 122.687 189.03 122.949C189.395 123.202 189.577 123.583 189.577 124.09C189.577 124.312 189.522 124.542 189.411 124.78C189.308 125.018 189.094 125.2 188.769 125.327C189.11 125.43 189.355 125.596 189.506 125.826C189.657 126.048 189.732 126.33 189.732 126.671C189.732 127.178 189.569 127.578 189.244 127.872C188.919 128.165 188.4 128.312 187.687 128.312H184.881ZM187.425 123.591H186.2V124.911H187.473C187.766 124.911 187.98 124.859 188.115 124.756C188.25 124.653 188.317 124.487 188.317 124.257C188.317 124.027 188.25 123.86 188.115 123.757C187.988 123.646 187.758 123.591 187.425 123.591ZM187.592 125.898H186.2V127.277H187.604C187.921 127.277 188.143 127.222 188.269 127.111C188.396 126.992 188.46 126.821 188.46 126.599C188.46 126.354 188.392 126.175 188.258 126.064C188.123 125.953 187.901 125.898 187.592 125.898ZM191.007 128.312V122.556H192.374V124.792H193.183L194.681 122.556H196.203L194.324 125.279L196.298 128.312H194.74L193.171 125.886H192.374V128.312H191.007ZM200.176 128.823C199.922 129.512 199.629 129.984 199.296 130.238C198.971 130.491 198.511 130.618 197.916 130.618H197.239V129.405H197.738C198 129.405 198.218 129.354 198.392 129.251C198.574 129.156 198.717 128.977 198.82 128.716L198.951 128.407L196.537 122.556H198.047L199.664 126.754L201.091 122.556H202.518L200.176 128.823Z" fill="white"/>
</g>
<defs>
<clipPath id="clip0_148_5012">
<rect width="320" height="154" fill="white"/>
</clipPath>
</defs>
</svg>
