<svg width="49" height="60" viewBox="0 0 49 60" fill="none" xmlns="http://www.w3.org/2000/svg">
<g clip-path="url(#clip0_2236_4320)">
<path fill-rule="evenodd" clip-rule="evenodd" d="M17.753 0.343494C16.3532 0.951011 16.0873 1.49175 15.9962 3.91713L15.9135 6.12642H14.5477C12.3802 6.12642 12.3469 6.18498 12.4254 9.89026L12.4926 13.062L15.6009 13.5725C17.3106 13.8535 19.1665 14.1508 19.7256 14.2336L20.7419 14.3841V13.1288C20.7419 11.0599 21.8597 10.1232 24.3285 10.1232C26.7944 10.1232 27.9151 11.0604 27.9151 13.1225V14.3713L29.0509 14.2218C29.6756 14.1396 31.5316 13.8449 33.1755 13.5671L36.1643 13.062L36.2315 9.89026C36.31 6.18498 36.2767 6.12642 34.1092 6.12642H32.7434L32.6607 3.91713C32.5689 1.46918 32.2999 0.936434 30.8519 0.333855C29.7692 -0.116845 18.7947 -0.108851 17.753 0.343494ZM18.5899 4.36313V6.12642H24.3285H30.0671V4.36313V2.59982H24.3285H18.5899V4.36313ZM23.064 12.3854C22.9703 12.4774 22.8938 13.54 22.8938 14.7471V16.9414H24.3371H25.7803L25.7119 14.6491L25.6436 12.3568L24.4389 12.2874C23.7762 12.2494 23.1575 12.2933 23.064 12.3854ZM13.0904 17.5405C13.0904 19.6093 13.1418 19.8602 13.7166 20.6012C14.2389 21.2748 14.4953 21.4083 15.2648 21.4083C16.1711 21.4083 16.1827 21.3974 15.9378 20.7642C15.5675 19.8066 15.876 18.6981 16.7035 18.0134C17.3306 17.4946 17.659 17.4115 19.0865 17.4115C20.5372 17.4115 20.7419 17.358 20.7419 16.9769C20.7419 16.6002 20.3038 16.4737 17.454 16.0275C15.646 15.7442 13.9241 15.4618 13.6283 15.3995C13.0999 15.2886 13.0904 15.3264 13.0904 17.5405ZM31.5616 15.9423C28.3831 16.4554 27.9151 16.5871 27.9151 16.9675C27.9151 17.6554 26.6804 18.8415 25.7746 19.0235L24.9562 19.1883L26.538 20.2982L28.1202 21.4083H31.8434H35.5666V18.352C35.5666 16.671 35.4857 15.3088 35.3873 15.3247C35.2888 15.3407 33.5669 15.6189 31.5616 15.9423ZM17.8725 19.8084C17.8725 19.9632 18.1617 20.3863 18.515 20.7489C19.1431 21.3935 19.2171 21.4083 21.7996 21.4083H24.4418L23.1299 20.4754C21.857 19.5706 21.759 19.5425 19.8451 19.5351C18.4703 19.5299 17.8725 19.6126 17.8725 19.8084ZM8.52385 20.3782C8.24743 20.7057 8.36792 21.0651 9.39132 22.9628C10.9663 25.8841 11.6339 26.821 12.5935 27.4567C13.8302 28.2763 14.8666 28.4588 18.2909 28.4601C20.8219 28.4613 21.4592 28.5267 21.4592 28.7856C21.4592 28.9635 21.2956 29.2428 21.0954 29.406C20.8954 29.5694 20.0694 30.4374 19.26 31.335C17.6164 33.1581 17.6487 33.389 19.548 33.3952C21.3124 33.4011 22.0529 33.0612 25.4056 30.7071L28.6037 28.4616H33.998C39.0736 28.4616 39.4208 28.4339 39.8706 27.9914C40.6038 27.2703 40.4517 26.6962 39.2132 25.506C37.0742 23.4517 37.6793 23.5354 24.9121 23.5296C16.2798 23.5255 13.5711 23.4559 13.2788 23.2305C13.0691 23.0689 12.3453 22.2755 11.67 21.4672C10.6105 20.1988 10.3334 19.9978 9.64381 19.9978C9.19955 19.9978 8.70245 20.1665 8.52385 20.3782ZM0.299432 36.8399C-0.0212132 37.1554 -0.0621008 37.505 0.0720392 38.7796C0.317126 41.1057 1.22622 44.4042 2.16042 46.3577C3.48125 49.1192 3.32822 49.0457 5.53068 47.9811C7.3063 47.123 9.98026 46.1932 12.3424 45.6128L13.3877 45.3559L13.2439 44.3736C13.1647 43.8328 12.9727 41.8306 12.8175 39.923L12.5352 36.4552H6.61309C1.44835 36.4552 0.640879 36.5044 0.299432 36.8399ZM14.8686 38.7475C15.062 41.4902 15.4377 44.7192 15.5797 44.8589C15.6359 44.9143 16.632 44.8449 17.7934 44.7049C18.9547 44.5649 20.6311 44.4498 21.5189 44.4498L23.1329 44.4491V40.4521V36.4552H18.9201H14.7072L14.8686 38.7475ZM25.524 40.4521V44.4491L27.138 44.4498C28.0259 44.4498 29.7022 44.5649 30.8635 44.7049C32.0249 44.8449 33.0112 44.9238 33.0557 44.88C33.1925 44.7457 33.6215 41.1626 33.7898 38.7475L33.9497 36.4552H29.7368H25.524V40.4521ZM35.9466 38.7475C35.8612 40.0083 35.6769 41.9732 35.5367 43.114C35.3969 44.2547 35.3325 45.2374 35.3937 45.2977C35.4546 45.3577 36.4601 45.6604 37.6279 45.9698C39.8898 46.5702 42.7989 47.6857 44.1596 48.4755C44.9604 48.94 44.9992 48.9415 45.326 48.5245C46.5974 46.9015 48.2498 41.9604 48.5849 38.7796C48.8389 36.3666 49.0887 36.4552 42.034 36.4552H36.1018L35.9466 38.7475ZM17.6648 46.8185C16.8271 46.9253 16.0909 47.063 16.0286 47.1238C15.7655 47.3826 17.2671 51.8008 18.3557 53.9706C19.5558 56.3626 21.1149 58.2468 22.4606 58.9306L23.1329 59.2725V52.9189V46.5649L21.1603 46.5947C20.0754 46.6113 18.5024 46.7117 17.6648 46.8185ZM25.524 52.9189V59.2725L26.216 58.9208C27.7174 58.1574 29.3668 56.0774 30.6677 53.3064C31.463 51.6128 32.832 47.3238 32.638 47.1336C32.4412 46.94 28.9854 46.5792 27.2575 46.5721L25.524 46.5649V52.9189ZM12.9708 47.6181C12.8393 47.66 11.7633 47.9796 10.5797 48.3279C8.0994 49.0589 4.96064 50.4211 4.96064 50.7672C4.96064 51.6049 9.14672 55.3789 11.8735 57C13.7038 58.0879 17.379 59.517 19.1625 59.8343L20.0936 60L18.8562 58.6347C16.8818 56.457 15.4549 53.3336 13.905 47.7992C13.8265 47.5189 13.4898 47.4536 12.9708 47.6181ZM34.756 47.7804C34.7051 47.9525 34.4268 48.9392 34.1377 49.974C33.0919 53.717 31.3251 57.1125 29.3974 59.0842C28.2645 60.243 28.6478 60.2396 32.1552 59.0589C35.1453 58.0521 37.9306 56.5083 40.0774 54.6672C41.7128 53.2645 43.6962 51.1306 43.6962 50.7736C43.6962 50.446 40.6717 49.1008 38.3162 48.38C35.5003 47.5181 34.8655 47.4113 34.756 47.7804Z" fill="#FF5700"/>
<path fill-rule="evenodd" clip-rule="evenodd" d="M35.8005 39.7747C35.8808 39.7596 35.9611 39.7449 36.0414 39.7298C36.0881 39.7211 36.1349 39.7124 36.1816 39.7038L36.3456 39.6736L36.4866 39.6472C36.5506 39.6355 36.6145 39.6238 36.6785 39.6117L36.7869 39.5917C36.8302 39.5838 36.8522 39.5796 36.8738 39.574C36.8962 39.5679 36.9181 39.56 36.9628 39.5441C36.6733 38.7894 36.3833 38.0351 36.091 37.2814C36.0576 37.1953 36.0256 37.1126 35.9947 37.033L36.0338 36.4553H41.9659C46.5753 36.4553 48.0663 36.4175 48.4757 37.0642C48.6927 37.4073 48.6052 37.943 48.5169 38.7796C48.1818 41.9604 46.5293 46.9015 45.258 48.5245C44.9316 48.9415 44.8927 48.94 44.0919 48.4755C42.7308 47.6857 39.8221 46.5702 37.56 45.9702C36.3922 45.6604 35.3867 45.3577 35.3258 45.2977C35.2646 45.2373 35.3289 44.2551 35.4687 43.114C35.5747 42.2517 35.7059 40.9185 35.8005 39.7747ZM27.7878 44.4668C27.6832 44.2913 27.5779 44.1158 27.4726 43.9407C27.4393 43.8853 27.4062 43.8302 27.3731 43.7747C27.2695 43.6011 27.1653 43.4283 27.0603 43.2558C26.8353 42.886 26.6112 42.5158 26.3895 42.1438C26.364 42.1011 26.3385 42.0585 26.313 42.0158C26.2773 41.9566 26.2418 41.897 26.2064 41.8374L26.1739 41.7834C26.1008 41.6596 26.1008 41.6596 26.1008 41.5936L26.1513 41.5841C26.9683 41.434 27.7847 41.2815 28.6003 41.1234C29.0341 41.0392 29.4684 40.9585 29.9036 40.8819C30.2297 40.8241 30.5547 40.7626 30.8795 40.6977C31.5906 40.5562 32.3033 40.4238 33.016 40.2913L33.1004 40.2755C33.2686 40.2445 33.4367 40.2132 33.6049 40.1819C33.4045 42.3728 33.0992 44.7706 32.9878 44.8804C32.9433 44.9238 31.957 44.8449 30.7956 44.7049C29.9 44.597 28.6981 44.5038 27.7878 44.4668ZM25.4561 48.4887C26.0683 48.5543 26.6807 48.6181 27.2932 48.6819L27.529 48.7064C27.6528 48.7196 27.7767 48.7324 27.9005 48.7453C28.0708 48.7634 28.241 48.7811 28.4113 48.7989C28.62 48.8207 28.8288 48.8426 29.0375 48.8645C29.1616 48.8773 29.2856 48.8902 29.4096 48.9034C29.5256 48.9155 29.6416 48.9275 29.7577 48.9396C29.8001 48.9441 29.8425 48.9487 29.8849 48.9532C30.0884 48.9747 30.2884 48.9943 30.4931 48.9887C30.2232 48.5321 29.9529 48.0755 29.677 47.6223C29.4846 47.3064 29.2952 46.989 29.1069 46.6709C29.1052 46.6679 29.1034 46.6649 29.1017 46.6619C30.7155 46.783 32.433 46.9989 32.5701 47.1336C32.764 47.3241 31.3951 51.6128 30.5998 53.3068C29.2988 56.0773 27.6494 58.1577 26.1481 58.9211L25.4561 59.2728V52.9189V48.4887ZM19.0104 46.689L19.0697 46.7189L19.1686 46.7683C19.3744 46.8713 19.5817 46.9709 19.79 47.069C20.0295 47.1819 20.2633 47.3034 20.496 47.4298C21.6157 48.0407 21.6157 48.0407 22.8608 48.24C22.929 48.2407 22.997 48.243 23.065 48.2464V52.9189V59.2728L22.3927 58.9309C21.047 58.2468 19.4879 56.3626 18.2878 53.9709C17.1992 51.8007 15.6975 47.383 15.9606 47.1241C16.0229 47.063 16.7592 46.9253 17.5968 46.8185C17.962 46.7721 18.467 46.7268 19.0104 46.689ZM16.8693 59.2173C16.8956 58.7562 16.9244 58.2947 16.9558 57.8336C16.9611 57.7558 16.9664 57.6781 16.9716 57.6004C16.9788 57.4924 16.9862 57.3845 16.9937 57.2762L17.0003 57.1781L17.0066 57.0883L17.0119 57.0102C17.0156 56.98 17.0175 56.9645 17.0218 56.9498C17.0264 56.934 17.0338 56.9192 17.0491 56.8887L16.9743 56.8894C16.7081 56.8906 16.4431 56.883 16.1772 56.8713L16.0481 56.8657C15.9346 56.8607 15.821 56.8558 15.7075 56.8509L15.4968 56.8419C14.9618 56.8185 14.4269 56.7947 13.8921 56.766L13.8267 56.7626C13.6235 56.7521 13.4221 56.7396 13.2207 56.7106C13.2409 56.5377 13.2815 56.3751 13.3283 56.2075L13.352 56.1211C13.4094 55.9139 13.4696 55.7079 13.5304 55.5019C13.6166 55.2102 13.6946 54.9166 13.7701 54.6215C13.8352 54.3672 13.9038 54.114 13.9751 53.8611C14.004 53.7585 14.0324 53.6558 14.0609 53.5532L14.0789 53.4883C14.2112 53.0117 14.3428 52.5343 14.4727 52.057C14.6208 51.5132 14.6595 51.3706 14.7008 51.229C14.7154 51.1789 14.7304 51.1287 14.7506 51.0611C14.7632 51.0189 14.7756 50.9766 14.788 50.9343C16 54.5841 17.2219 56.9072 18.7883 58.6347L20.0257 60L19.0946 59.8343C18.5115 59.7306 17.7262 59.5083 16.8693 59.2173ZM34.0698 49.974C34.3589 48.9396 34.6371 47.9524 34.6881 47.7804C34.7976 47.4117 35.4324 47.5185 38.2486 48.38C40.604 49.1007 43.6285 50.4464 43.6285 50.774C43.6285 51.1306 41.6452 53.2645 40.0093 54.6672C37.8625 56.5083 35.0773 58.0521 32.0873 59.0589C28.5798 60.2396 28.1965 60.2434 29.3294 59.0845C31.2571 57.1124 33.0239 53.717 34.0698 49.974Z" fill="#00B5CF"/>
<path fill-rule="evenodd" clip-rule="evenodd" d="M38.729 25.103C37.4183 25.0705 36.1077 25.0441 34.7969 25.0206C34.7969 25.0405 34.7969 25.0543 34.7991 25.0678C34.8044 25.0991 34.8219 25.1283 34.8797 25.2255C34.8967 25.2536 34.9137 25.2818 34.9305 25.31C34.9394 25.3248 34.9483 25.3396 34.9571 25.3545L34.9996 25.4261C35.0853 25.5701 35.1691 25.7151 35.2526 25.8603C35.485 26.2644 35.7192 26.6674 35.9543 27.0699C36.1679 27.4356 36.3811 27.8017 36.5924 28.1688C36.6468 28.2633 36.7013 28.3578 36.7559 28.4523C39.1724 28.4265 39.4573 28.3314 39.8029 27.9914C40.5365 27.2703 40.3845 26.6961 39.1456 25.506C38.995 25.3613 38.858 25.2272 38.729 25.103Z" fill="#EDE800"/>
<path fill-rule="evenodd" clip-rule="evenodd" d="M24.2737 16.9415C24.3056 16.8736 24.3396 16.8059 24.3761 16.7376C24.4343 16.6254 24.4875 16.5106 24.5407 16.3959C24.551 16.3739 24.5611 16.3519 24.5714 16.3299C24.641 16.1814 24.7134 16.0344 24.7869 15.8879C24.9125 15.6374 25.0353 15.3856 25.1574 15.1334L25.2237 14.9967C25.3595 14.7167 25.4942 14.4363 25.6285 14.1556L25.6433 14.6492L25.7117 16.9415H24.2737ZM22.9591 21.4085C23.0018 21.2572 23.0442 21.1057 23.0864 20.9542C23.1221 20.8262 23.1581 20.6982 23.1945 20.5704L24.3731 21.4085H22.9591ZM23.6596 31.8585C23.5673 31.6826 23.4729 31.508 23.3773 31.3338C23.1733 30.9618 22.9819 30.5837 22.7907 30.205C22.6162 29.8599 22.4382 29.5174 22.2519 29.1784C22.1073 28.9147 21.9698 28.6475 21.8335 28.3794C21.7983 28.3102 21.7631 28.2411 21.7278 28.172C21.7048 28.127 21.682 28.082 21.6593 28.0369C21.6049 27.9297 21.549 27.8243 21.488 27.7208C21.3579 27.4977 21.312 27.4192 21.3071 27.3382C21.3044 27.2941 21.3138 27.2493 21.3284 27.1801L21.3513 27.1005L21.3778 26.9953C21.4091 26.8737 21.444 26.7532 21.4793 26.6327L21.5145 26.5099C21.5377 26.4289 21.561 26.3479 21.5845 26.2668C21.6818 25.9315 21.7764 25.5953 21.8707 25.2591C21.9442 24.9968 22.0182 24.7346 22.0931 24.4728C22.1391 24.3113 22.1844 24.1496 22.2297 23.988L22.2358 23.9663C22.277 23.8196 22.3182 23.6729 22.3596 23.5263C23.1272 23.5282 23.9539 23.5294 24.8434 23.5298C29.7833 23.532 32.7213 23.5209 34.5908 23.6253C34.6102 23.7637 34.6303 23.9019 34.6504 24.0402C34.6543 24.0668 34.6582 24.0934 34.662 24.1201C34.6739 24.2023 34.6858 24.2845 34.6976 24.3668L34.7151 24.4892C34.7237 24.549 34.7321 24.6088 34.7404 24.6686L34.7551 24.7729C34.7766 24.9786 34.7557 25.1598 34.7144 25.3606L34.6979 25.4434C34.6798 25.5338 34.6614 25.624 34.643 25.7143L34.6046 25.9057C34.5708 26.0743 34.5367 26.2428 34.5025 26.4113C34.4708 26.5679 34.4394 26.7246 34.4079 26.8812L34.4013 26.9139C34.3491 27.1734 34.2968 27.4328 34.2444 27.6922C34.1721 28.0486 34.1268 28.272 34.0888 28.4618C34.0362 28.4618 33.9831 28.4618 33.9294 28.4618H28.535L25.337 30.7072C24.689 31.1622 24.1386 31.542 23.6596 31.8585ZM33.699 15.5866C33.6934 15.6173 33.6879 15.648 33.6823 15.6786C33.6222 16.0058 33.5984 16.2809 33.6567 16.6108C33.6741 16.7156 33.6867 16.8211 33.6993 16.9265C33.7019 16.948 33.7044 16.9696 33.707 16.9911L33.7285 17.1612L33.7396 17.2489C33.7977 17.7074 33.8572 18.1657 33.9235 18.6231L33.9327 18.6871L33.951 18.8134L33.96 18.8752L33.9688 18.936C34.0356 19.3981 34.095 19.8611 34.1534 20.3243L34.198 20.6779L34.2093 20.7679C34.2364 20.9816 34.2645 21.1951 34.2936 21.4085H31.7747H28.0516L26.4694 20.2985L24.8875 19.1885L25.7059 19.0237C26.6117 18.8417 27.8464 17.6556 27.8464 16.9677C27.8464 16.5873 28.3144 16.4556 31.4929 15.9426C32.3042 15.8117 33.0691 15.6882 33.699 15.5866ZM34.0691 13.4047L33.1068 13.5673C31.4629 13.8451 29.607 14.1398 28.9822 14.222L27.8464 14.3715V13.1226C27.8464 12.2026 27.6233 11.5065 27.1571 11.0176C27.2108 10.9066 27.2641 10.7954 27.3174 10.6843C27.3394 10.6384 27.3614 10.5925 27.3834 10.5467C27.4319 10.4458 27.4806 10.3449 27.5293 10.2441L27.6151 10.0659L27.6536 9.98638C27.8125 9.65525 27.9466 9.31321 28.0806 8.97132C28.1034 8.91295 28.1263 8.85457 28.1493 8.79627L28.1832 8.71042C28.3197 8.36457 28.4554 8.01842 28.5889 7.6714C28.7351 7.29185 28.8842 6.91351 29.0341 6.5354C29.088 6.39917 29.142 6.26291 29.1959 6.12664H29.9985V4.36332V4.09049L30.0355 4.01457C30.0962 3.85019 30.0902 3.67224 30.0844 3.49764C30.0831 3.4627 30.082 3.4279 30.0813 3.39337C30.0808 3.34447 30.0803 3.29556 30.0798 3.24665C30.0787 3.14165 30.0774 3.03666 30.076 2.93167C30.0738 2.76538 30.0727 2.5991 30.0719 2.43279L30.0715 2.34755L30.0707 2.17504C30.0688 1.78816 30.0661 1.40133 30.0604 1.0145C30.0565 0.75313 30.0544 0.491816 30.0544 0.230423C30.0544 0.219456 30.0544 0.20849 30.0543 0.197525C30.4067 0.237064 30.6595 0.28257 30.7832 0.334063C32.2313 0.936643 32.5002 1.46939 32.5921 3.91732L32.6748 6.12664H34.0405C36.2081 6.12664 36.2414 6.18517 36.1629 9.89045L36.1087 12.4491C36.1033 12.4448 36.098 12.4405 36.0926 12.4362C36.0089 12.3669 35.9288 12.2946 35.8488 12.221C35.7427 12.1232 35.6347 12.0295 35.5224 11.9389C35.4101 11.8482 35.3021 11.7545 35.1959 11.6567C35.0623 11.5337 34.9244 11.4179 34.7832 11.3038C34.676 11.2162 34.5721 11.1251 34.4688 11.033C34.4259 11.1967 34.3921 11.3591 34.3655 11.5262L34.3535 11.6C34.3405 11.6802 34.3277 11.7603 34.3148 11.8405L34.2873 12.0108C34.2173 12.4455 34.1499 12.8806 34.0829 13.3157C34.0783 13.3454 34.0737 13.3751 34.0691 13.4047Z" fill="#FF8C00"/>
<path d="M34.5279 23.5849H22.4524L21.3203 27.3585L23.7731 31.8868L28.4901 28.4906H34.1505L34.7165 25.0943L34.5279 23.5849Z" fill="#FF8C00"/>
<path fill-rule="evenodd" clip-rule="evenodd" d="M12.3676 7.49208C12.3865 7.47694 12.4054 7.46189 12.4244 7.44687C12.5674 7.33211 12.7087 7.21517 12.8501 7.09826C12.882 7.07177 12.914 7.04532 12.946 7.01891C13.0119 6.96449 13.078 6.91015 13.1441 6.85589C13.3679 6.67192 13.5906 6.48698 13.8105 6.29834C13.8794 6.24008 13.95 6.18438 14.0212 6.12902C14.1624 6.12675 14.3151 6.12642 14.4801 6.12642H15.8459L15.9287 3.91713C16.0198 1.49175 16.2856 0.951011 17.6855 0.343494C18.6164 -0.0607442 27.4796 -0.110119 30.1271 0.205604C30.1272 0.219156 30.1273 0.232709 30.1274 0.246262C30.131 0.679113 30.1368 1.11192 30.146 1.5447C30.1809 3.19177 30.1929 3.75811 30.0327 4.27068C30.0224 4.30366 30.0114 4.33645 29.9996 4.36928V4.36313V2.59982H24.261H18.5224V4.36313V6.12642H24.261H29.2294C29.2067 6.18396 29.1838 6.2414 29.1609 6.29887L29.1555 6.31238C29.0621 6.54789 28.9697 6.78377 28.8775 7.01977C28.7898 7.24453 28.7016 7.46917 28.6133 7.69374L28.5307 7.90389L28.4055 8.22223L28.2813 8.5383L28.2404 8.6423C28.1717 8.81751 28.1036 8.99294 28.0366 9.16883L27.9963 9.27426C27.9713 9.33989 27.9464 9.40555 27.9216 9.47125C27.8329 9.7046 27.7301 9.9266 27.6131 10.1469C27.5655 10.2372 27.52 10.3284 27.4744 10.4197L27.4696 10.4292L27.4404 10.4875C27.3498 10.6692 27.2628 10.8527 27.176 11.0363C26.5992 10.4166 25.6407 10.1232 24.261 10.1232C21.7922 10.1232 20.6743 11.0599 20.6743 13.1288V14.3841L19.6581 14.2336C19.099 14.1508 17.243 13.8535 15.5334 13.5725L12.425 13.062L12.3578 9.89026C12.335 8.81106 12.3216 8.04121 12.3676 7.49208ZM13.3147 20.1124C13.3366 20.0774 13.3584 20.0423 13.3802 20.0073C13.5912 19.6686 13.8057 19.3323 14.0212 18.9965C14.1218 18.8398 14.2221 18.6829 14.3224 18.526L14.3821 18.4328C14.5615 18.1522 14.7403 17.8712 14.9189 17.5901C14.9675 17.5135 15.0162 17.4369 15.0649 17.3603C15.1117 17.2867 15.1586 17.2131 15.2054 17.1395L15.3109 16.9735L15.3872 16.8536C15.0357 16.9517 14.6843 17.0499 14.3336 17.1506C14.0698 17.2263 13.8056 17.3005 13.5413 17.3744C13.3849 17.4182 13.2284 17.4621 13.0723 17.507C13.0558 17.5117 13.0393 17.5165 13.0228 17.5212C13.0229 15.3262 13.0339 15.2889 13.5607 15.3995C13.8565 15.4618 15.5784 15.7442 17.3865 16.0275C20.2363 16.4737 20.6743 16.6002 20.6743 16.9769C20.6743 17.358 20.4696 17.4115 19.0189 17.4115C17.5914 17.4115 17.2631 17.4946 16.6359 18.0134C15.8084 18.6981 15.4999 19.8066 15.8703 20.7642C16.1151 21.3974 16.1035 21.4083 15.1972 21.4083C14.4278 21.4083 14.1714 21.2748 13.649 20.6012C13.5086 20.4202 13.3995 20.2685 13.3147 20.1124ZM10.3418 24.7879C10.4139 24.6746 10.486 24.5612 10.5581 24.4478C10.6616 24.2848 10.7652 24.1219 10.8689 23.959C10.9547 23.824 11.0405 23.689 11.1263 23.554C11.3296 23.234 11.5335 22.9145 11.7378 22.5952C11.8559 22.4105 11.9738 22.2256 12.0915 22.0406C12.5969 22.6214 13.0521 23.1078 13.2112 23.2305C13.4739 23.4331 15.6879 23.5098 22.3983 23.5262C22.3723 23.614 22.3457 23.7017 22.3185 23.7892C22.2494 24.0138 22.1898 24.2401 22.1319 24.4678C22.073 24.6978 22.0047 24.9242 21.9342 25.1509C21.8646 25.3768 21.8044 25.6044 21.7463 25.8335C21.6936 26.0391 21.6341 26.242 21.5712 26.4447C21.5102 26.6425 21.4496 26.8403 21.3969 27.0405L21.3681 27.1482C21.3375 27.3426 21.3882 27.4871 21.4784 27.6582L21.5077 27.7146C21.5391 27.7747 21.5709 27.8345 21.6028 27.8944L21.6686 28.02C21.7218 28.1216 21.7754 28.2229 21.829 28.3243C21.8658 28.394 21.9023 28.4639 21.9387 28.5337C22.0441 28.7357 22.1511 28.9368 22.2592 29.1374L22.3744 29.3515L22.4035 29.4055C22.5439 29.6671 22.6795 29.9308 22.8112 30.1969C22.9903 30.5587 23.1809 30.9143 23.3716 31.27L23.4155 31.352C23.4995 31.5087 23.5833 31.6654 23.6672 31.8222L23.6798 31.8457C22.996 32.2981 22.457 32.6225 21.9876 32.8534C21.9535 32.86 21.9204 32.8664 21.8874 32.8727C21.7793 32.8933 21.6712 32.9132 21.5286 32.9396C20.9871 33.0397 20.4478 33.1504 19.9084 33.2611L19.8749 33.268C19.6698 33.3101 19.4646 33.352 19.2594 33.3933C17.5813 33.3677 17.6152 33.0845 19.1925 31.335C20.0018 30.4374 20.8278 29.5694 21.0279 29.406C21.228 29.2428 21.3916 28.9635 21.3916 28.7856C21.3916 28.5267 20.7544 28.4613 18.2234 28.4601C14.7991 28.4588 13.7626 28.2763 12.5259 27.4567C11.8031 26.9778 11.2459 26.328 10.3418 24.7879ZM12.8835 41.4891C12.6135 41.5777 12.3441 41.6679 12.0749 41.7585C11.9948 41.7857 11.9147 41.8125 11.8345 41.8396L11.7616 41.8642C11.6414 41.9045 11.608 41.9158 11.5738 41.9189C11.5607 41.92 11.5474 41.92 11.529 41.92C11.5765 41.7566 11.651 41.6109 11.7279 41.4604L11.7349 41.4468C11.851 41.217 11.9643 40.9868 12.0744 40.7543C12.2051 40.4785 12.3401 40.2053 12.4778 39.9328C12.5576 39.7747 12.6352 39.6155 12.7119 39.4555L12.7499 39.923C12.7927 40.4487 12.8383 40.9815 12.8835 41.4891ZM16.5449 36.4552C16.6308 36.6178 16.7181 36.7796 16.807 36.9408C16.9152 37.1377 17.0159 37.3375 17.1152 37.5389C17.2038 37.7179 17.2976 37.8936 17.3941 38.0683C17.5661 38.38 17.7295 38.6962 17.8917 39.0132L17.9494 39.1257L17.9773 39.1804C18.0502 39.3223 18.1267 39.4619 18.2052 39.6011C18.2218 39.634 18.2295 39.6494 18.2331 39.6657C18.2362 39.68 18.2362 39.6947 18.2362 39.7223C17.5902 39.9389 16.9441 40.1543 16.296 40.3645C15.9172 40.4872 15.5389 40.6117 15.1611 40.7377L15.0996 40.7585C15.0565 40.7728 15.0133 40.7872 14.9702 40.8015C14.9069 40.1226 14.8485 39.4204 14.801 38.7475L14.6397 36.4552H16.5449ZM23.2279 20.5931C23.2035 20.6757 23.1786 20.758 23.1531 20.8404C23.0949 21.029 23.0402 21.2185 22.9868 21.4083H21.7321C19.1495 21.4083 19.0756 21.3935 18.4474 20.7489C18.0941 20.3863 17.8049 19.9632 17.8049 19.8084C17.8049 19.6126 18.4027 19.5299 19.7776 19.5351C21.6914 19.5425 21.7895 19.5706 23.0623 20.4754L23.2279 20.5931ZM25.6316 14.2219C25.5747 14.3423 25.5155 14.4616 25.4558 14.5808C25.3298 14.8318 25.2068 15.0843 25.0843 15.3371L25.018 15.4738C24.8733 15.7723 24.7294 16.0712 24.5867 16.3707C24.5156 16.5194 24.4429 16.6669 24.3672 16.8132C24.3454 16.8555 24.3245 16.8982 24.3044 16.9413H24.2695H22.8263V14.7471C22.8263 13.54 22.9028 12.4774 22.9964 12.3854C23.09 12.2933 23.7086 12.2494 24.3714 12.2874L25.576 12.3568L25.6316 14.2219Z" fill="#FD0076"/>
<path fill-rule="evenodd" clip-rule="evenodd" d="M13.3275 20.1359C13.053 19.646 13.0227 19.1294 13.0227 17.5405C13.0227 17.525 13.0227 17.5095 13.0227 17.4942C13.106 17.4718 13.1893 17.4495 13.2726 17.4272C13.4885 17.3695 13.703 17.3101 13.916 17.2424C14.0763 17.1934 14.238 17.1487 14.3996 17.104C14.4274 17.0963 14.4552 17.0886 14.483 17.0809C14.6949 17.0219 14.9063 16.9612 15.1164 16.8959C15.2129 16.8666 15.2848 16.8536 15.3872 16.8536C15.3398 16.991 15.2665 17.1029 15.1869 17.223L15.098 17.359L15.0503 17.4318C14.9656 17.5621 14.8825 17.6933 14.7992 17.8244L14.7462 17.9079L14.639 18.0767C14.4043 18.4466 14.1691 18.8161 13.933 19.1851L13.6956 19.5563L13.6403 19.6427C13.5355 19.8068 13.4311 19.9711 13.3275 20.1359ZM12.1086 22.0605C11.9427 21.8701 11.771 21.6691 11.6023 21.4672C10.5428 20.1988 10.2657 19.9978 9.57612 19.9978C9.13186 19.9978 8.63476 20.1665 8.45612 20.3782C8.17974 20.7057 8.30023 21.0651 9.32363 22.9628C9.7185 23.6953 10.0563 24.3029 10.356 24.8124C10.4329 24.6914 10.5098 24.5704 10.5867 24.4495C10.6903 24.2866 10.7939 24.1237 10.8975 23.9607C11.0776 23.6771 11.258 23.3936 11.4391 23.1106C11.6628 22.761 11.886 22.4109 12.1086 22.0605Z" fill="#FE0063"/>
<path fill-rule="evenodd" clip-rule="evenodd" d="M16.2852 18.3631C16.2753 18.3456 16.2654 18.3281 16.2555 18.3106L16.2066 18.2246L16.1101 18.0544C16.0277 17.9094 15.9458 17.7643 15.8666 17.6175L15.8133 17.5177C15.7786 17.4528 15.744 17.388 15.7094 17.323L15.6612 17.231L15.6157 17.1454C15.5603 17.0402 15.5017 16.9642 15.4145 16.8831C15.3579 16.9209 15.3372 16.9346 15.3204 16.952C15.3108 16.962 15.3024 16.9732 15.2893 16.9907L15.2535 17.0488L15.2122 17.1151C15.1818 17.1647 15.1512 17.2141 15.1206 17.2635L15.0712 17.3427C14.9883 17.4765 14.9045 17.6096 14.82 17.7423L14.769 17.8223C14.6395 18.026 14.5097 18.2294 14.3797 18.4327L14.3201 18.5258C14.2198 18.6827 14.1195 18.8396 14.0189 18.9963C13.8034 19.3321 13.5888 19.6684 13.3779 20.0071C13.3562 20.042 13.3345 20.0768 13.3127 20.1116C13.3976 20.268 13.5069 20.4199 13.6475 20.6012C14.1699 21.2748 14.4262 21.4083 15.1957 21.4083C16.102 21.4083 16.1136 21.3974 15.8687 20.7642C15.5563 19.9562 15.7271 19.0407 16.2852 18.3631ZM10.3398 24.7872C10.4119 24.674 10.4838 24.5608 10.5557 24.4476C10.6593 24.2846 10.7629 24.1217 10.8666 23.9588C10.9524 23.8238 11.0382 23.6888 11.124 23.5538C11.3273 23.2338 11.5312 22.9143 11.7355 22.595C11.8537 22.4102 11.9717 22.2252 12.0895 22.04C12.5951 22.621 13.0505 23.1078 13.2097 23.2304C13.4247 23.3962 14.9464 23.4777 19.1696 23.5109C19.2053 23.574 19.2411 23.6372 19.2769 23.7003C19.4653 24.0326 19.6512 24.3663 19.8353 24.7009C20.1199 25.2183 20.4084 25.7334 20.6996 26.247C20.7872 26.4017 20.874 26.5569 20.96 26.7125L21.0174 26.8163C21.0543 26.8829 21.0911 26.9496 21.1277 27.0164L21.1779 27.1069L21.2223 27.1875C21.2397 27.2207 21.2481 27.2368 21.2609 27.2481C21.2731 27.2589 21.2891 27.2654 21.3204 27.2779C21.3313 27.3018 21.3374 27.3152 21.343 27.3287C21.3502 27.3461 21.3566 27.3639 21.3711 27.4043C21.4452 27.5969 21.5397 27.7768 21.6357 27.9592L21.6919 28.0667C21.729 28.1378 21.7663 28.2088 21.8036 28.2798C21.8466 28.3616 21.8894 28.4434 21.9321 28.5253C22.0392 28.7301 22.1475 28.9342 22.2571 29.1376C22.4459 29.4883 22.6323 29.8397 22.8089 30.1967C22.988 30.5585 23.1786 30.9142 23.3693 31.2699L23.4132 31.3518C23.4972 31.5085 23.5811 31.6652 23.6649 31.822L23.6778 31.846C22.9948 32.2979 22.4563 32.622 21.9872 32.8529C21.9524 32.8596 21.9187 32.8661 21.8851 32.8725C21.777 32.8931 21.6689 32.913 21.5263 32.9394C20.9849 33.0394 20.4458 33.1501 19.9065 33.2608L19.8726 33.2678C19.6672 33.31 19.4618 33.3519 19.2562 33.3933C17.5798 33.3675 17.6142 33.0839 19.191 31.335C20.0003 30.4374 20.8263 29.5694 21.0263 29.406C21.2265 29.2428 21.3901 28.9635 21.3901 28.7856C21.3901 28.5267 20.7529 28.4613 18.2219 28.4601C14.7975 28.4588 13.7611 28.2763 12.5244 27.4567C11.8015 26.9777 11.2443 26.3278 10.3398 24.7872ZM12.882 41.4887C12.6117 41.5774 12.342 41.6675 12.0726 41.7585C11.9925 41.7857 11.9123 41.8124 11.8322 41.8392L11.7592 41.8641C11.6391 41.9041 11.6057 41.9155 11.5715 41.9185C11.5584 41.9196 11.5451 41.9196 11.5267 41.9196C11.5742 41.7566 11.6487 41.6106 11.7256 41.46L11.7326 41.4464C11.8487 41.217 11.962 40.9864 12.0721 40.754C12.2028 40.4785 12.3378 40.2049 12.4755 39.9328C12.5555 39.774 12.6334 39.6143 12.7102 39.454L12.7484 39.923C12.7912 40.4487 12.8367 40.9815 12.882 41.4887ZM16.5427 36.4552C16.6286 36.6177 16.7158 36.7795 16.8047 36.9406C16.9128 37.1375 17.0137 37.3373 17.1128 37.5387C17.2015 37.7177 17.2953 37.8932 17.3918 38.0683C17.5638 38.38 17.7272 38.6958 17.8894 39.0132L17.9471 39.1257L17.975 39.18C18.0479 39.3223 18.1244 39.4619 18.2029 39.6007C18.2195 39.634 18.2272 39.6494 18.2308 39.6657C18.2339 39.6796 18.2339 39.6943 18.2339 39.7219C17.5879 39.9385 16.9418 40.1543 16.2937 40.3641C15.9149 40.4872 15.5366 40.6113 15.1588 40.7377L15.0973 40.7581C15.0544 40.7724 15.0115 40.7868 14.9686 40.8011C14.9054 40.1226 14.8469 39.4204 14.7995 38.7475L14.6381 36.4552H16.5427Z" fill="#990073"/>
<path fill-rule="evenodd" clip-rule="evenodd" d="M22.1231 32.7852C21.9035 32.8279 21.6778 32.8732 20.9965 33.0099L20.9311 33.023C20.49 33.1116 20.049 33.2001 19.6072 33.2846C19.4304 33.3184 19.254 33.3534 19.0776 33.3891C19.2012 33.3928 19.3356 33.3946 19.4809 33.3951C20.4698 33.3984 21.1371 33.2931 22.1231 32.7852ZM14.968 40.7728C15.1108 40.7253 15.2536 40.6774 15.3964 40.6298C16.0696 40.4045 16.7427 40.1792 17.4173 39.9581C17.4407 39.9506 17.464 39.943 17.4874 39.9351C17.5197 39.9245 17.552 39.914 17.5843 39.9034C17.6608 39.8781 17.7373 39.8532 17.8139 39.8283L17.8814 39.8057C17.9993 39.7676 18.1131 39.7389 18.2364 39.7219C18.0856 39.4272 18.0101 39.2796 17.9331 39.1328C17.8562 38.9864 17.7777 38.8404 17.6206 38.5487C17.4524 38.2445 17.2945 37.9347 17.1365 37.6251L17.116 37.5849C16.9635 37.2863 16.8088 36.9896 16.6465 36.6962C16.6024 36.6162 16.5591 36.5357 16.5164 36.455H18.853H23.0658V40.4521V44.4487L21.4518 44.4494C20.564 44.4494 18.8876 44.5645 17.7263 44.7049C16.7502 44.8223 15.8909 44.8902 15.6082 44.8759C15.5939 44.8657 15.5797 44.8555 15.5654 44.8453L15.4786 44.7823C15.3596 44.3947 15.1445 42.6732 14.968 40.7728ZM13.0282 43.0321C12.9936 43.0076 12.9589 42.9834 12.9241 42.9592C12.711 42.8106 12.4995 42.66 12.2894 42.5072C12.1769 42.4253 12.0639 42.3445 11.9497 42.2649L11.8794 42.2159C11.8577 42.2008 11.836 42.1857 11.8143 42.1709C11.7916 42.1551 11.7688 42.1392 11.7461 42.1238L11.686 42.0819L11.6332 42.0457C11.6175 42.0325 11.6073 42.0242 11.5981 42.0147C11.5812 41.9977 11.5677 41.9774 11.5293 41.9196C12.3669 41.6328 12.611 41.5491 12.8555 41.4668C12.8641 41.4638 12.8726 41.4608 12.8812 41.4581C12.9321 42.0294 12.9825 42.5694 13.0282 43.0321ZM23.0658 48.2657C22.9261 48.2521 22.7873 48.243 22.6459 48.2408C21.9399 48.22 21.4054 47.9479 20.7905 47.6189C20.6608 47.5498 20.5303 47.4826 20.3998 47.4155C20.2483 47.337 20.0968 47.2585 19.9457 47.1792C19.6693 47.034 19.3918 46.8932 19.1092 46.7604C19.0611 46.7377 19.0131 46.7147 18.9653 46.6921C19.6806 46.6415 20.4679 46.6042 21.0932 46.5947L23.0658 46.5645V48.2657ZM29.124 46.6634C29.209 46.8049 29.2944 46.9464 29.3804 47.0875C29.5767 47.4094 29.7699 47.7336 29.9619 48.0581C30.1176 48.3215 30.2743 48.5842 30.4356 48.8438C30.5074 48.96 30.5202 48.9808 30.5225 49.0026C30.523 49.0072 30.523 49.0121 30.523 49.0181C30.2785 49.0245 30.0388 48.9989 29.7961 48.9728L29.6575 48.9585C29.5324 48.9453 29.4073 48.9321 29.2823 48.9189C29.1664 48.9068 29.0504 48.8943 28.9345 48.8823L28.8864 48.8774C28.6356 48.8509 28.3849 48.8245 28.1342 48.7981C27.688 48.7509 27.2418 48.7042 26.7956 48.6574C26.6397 48.6408 26.4838 48.6245 26.328 48.6079C26.0376 48.5774 25.7473 48.5472 25.4569 48.5177V46.5645L27.1904 46.5721C27.7204 46.5743 28.4128 46.6098 29.124 46.6634ZM33.6027 40.2143L33.5276 40.2283L33.0542 40.3162C32.4323 40.4313 31.8105 40.5472 31.189 40.6645L31.0948 40.6826C30.7197 40.7532 30.3449 40.8253 29.9702 40.8989C29.4593 40.9989 28.9475 41.094 28.4356 41.1891C28.1031 41.2506 27.7708 41.3128 27.4384 41.3755L27.4161 41.3796L27.2373 41.4132L27.1511 41.4294L26.9851 41.4604C26.8611 41.4838 26.7372 41.5072 26.6135 41.5313L26.5479 41.5442C26.491 41.5555 26.434 41.5668 26.3771 41.5781C26.2832 41.5925 26.1958 41.5959 26.101 41.5932C26.3113 41.9792 26.5399 42.354 26.7687 42.7291L26.7797 42.7472C26.8758 42.9045 26.9708 43.0626 27.0656 43.2211L27.1043 43.2857L27.1825 43.4166C27.2289 43.494 27.2753 43.5713 27.3218 43.6487C27.4242 43.8192 27.5262 43.9902 27.6276 44.1615L27.6607 44.2174L27.7281 44.3313C27.7549 44.3766 27.7818 44.4219 27.8087 44.4672C27.5306 44.4559 27.2791 44.4494 27.0709 44.4494L25.4569 44.4487V40.4521V36.455H29.6698H33.8826L33.7227 38.7472C33.6908 39.2049 33.6496 39.7045 33.6027 40.2143ZM35.9998 36.9702C36.0496 37.0991 36.0993 37.2281 36.149 37.3571L36.1655 37.3999L36.2478 37.6135L36.3694 37.9287C36.5066 38.2845 36.6439 38.6404 36.7813 38.9962L36.8145 39.0823L36.9927 39.5438C36.8938 39.6004 36.8006 39.6215 36.6889 39.6423L36.5735 39.6638L36.4469 39.6872L36.3133 39.7121C36.1919 39.7347 36.0704 39.757 35.949 39.7792C35.8988 39.7887 35.8487 39.7977 35.7986 39.8072C35.8303 39.4257 35.858 39.0642 35.8794 38.7472L35.9998 36.9702Z" fill="#38BB4E"/>
<path fill-rule="evenodd" clip-rule="evenodd" d="M33.6054 40.1823C33.4373 40.2136 33.2693 40.2449 33.1012 40.2758L33.0168 40.2917C32.304 40.4241 31.5913 40.5566 30.8802 40.6981C30.5555 40.7626 30.2304 40.8245 29.9044 40.8823C29.4691 40.9589 29.0349 41.0396 28.601 41.1238C27.7855 41.2819 26.969 41.4343 26.152 41.5845L26.1016 41.594C26.1016 41.6155 26.1016 41.6298 26.1041 41.6441C26.1093 41.6732 26.1254 41.7004 26.1746 41.7834L26.2071 41.8377C26.2304 41.8766 26.2537 41.9158 26.277 41.9551C26.2892 41.9755 26.3015 41.9958 26.3137 42.0162C26.3393 42.0589 26.3648 42.1015 26.3902 42.1441C26.6119 42.5162 26.8361 42.8864 27.0611 43.2562C27.1661 43.4287 27.2703 43.6015 27.3739 43.7751C27.407 43.8302 27.4401 43.8857 27.4733 43.9411C27.5786 44.1162 27.6838 44.2913 27.7884 44.4668C28.6987 44.5038 29.9005 44.597 30.7961 44.7049C31.9576 44.8449 32.9438 44.9238 32.9884 44.8804C33.0998 44.7706 33.405 42.3732 33.6054 40.1823ZM32.1922 48.8932C32.0716 48.9053 31.9509 48.9173 31.8302 48.9294C31.5524 48.9573 31.2745 48.9841 30.9965 49.0094L30.8709 49.0211L30.7506 49.0321L30.6458 49.0415C30.565 49.0475 30.4858 49.0498 30.4048 49.0483L30.4939 48.989C30.224 48.5321 29.9537 48.0758 29.6777 47.6226C29.4853 47.3068 29.2959 46.9894 29.1077 46.6713C29.1058 46.6679 29.104 46.6649 29.1022 46.6619C30.7161 46.783 32.4336 46.9989 32.5707 47.1336C32.648 47.2094 32.4767 47.9377 32.1922 48.8932ZM38.0733 48.3264L37.6836 48.3641C36.9679 48.434 36.2522 48.503 35.5364 48.5713L35.3872 48.5857L34.6576 48.6555C34.5831 48.6626 34.5086 48.6698 34.4341 48.677C34.5637 48.2166 34.6606 47.8751 34.6886 47.7804C34.7959 47.4192 35.4064 47.514 38.0733 48.3264ZM45.0831 48.7298C44.9967 48.7132 44.9102 48.6962 44.8238 48.6792C44.6884 48.6528 44.5525 48.626 44.4167 48.5996C44.3616 48.589 44.3068 48.5781 44.2518 48.5672C44.2023 48.5389 44.1491 48.5083 44.0925 48.4755C42.7314 47.6857 39.8227 46.5702 37.5605 45.9702C36.3927 45.6604 35.3873 45.3577 35.3263 45.2977C35.2651 45.2373 35.3295 44.2551 35.4693 43.114C35.5753 42.2517 35.7064 40.9189 35.801 39.7751C35.8814 39.76 35.9618 39.7453 36.0421 39.7302C36.1435 39.7113 36.2449 39.6928 36.3463 39.674L36.4873 39.6475C36.5513 39.6358 36.6153 39.6241 36.6792 39.6121L36.7877 39.5921C36.8309 39.5841 36.853 39.58 36.8745 39.5743C36.897 39.5683 36.9189 39.5604 36.9636 39.5445C36.674 38.7898 36.3841 38.0355 36.0918 37.2818C36.0584 37.1955 36.0262 37.1126 35.9953 37.0329L36.0344 36.4553H41.9665C46.5759 36.4553 48.0668 36.4175 48.4763 37.0642C48.6933 37.4073 48.6057 37.943 48.5174 38.7796C48.1823 41.9604 46.5299 46.9015 45.2585 48.5245C45.191 48.6113 45.1355 48.6796 45.0831 48.7298Z" fill="#A3C33F"/>
<path fill-rule="evenodd" clip-rule="evenodd" d="M23.0647 48.2385C23.0343 48.2351 23.0038 48.2313 22.9734 48.2279C22.9028 48.22 22.8323 48.2121 22.7617 48.2041L22.661 48.1928C22.4212 48.1649 22.1868 48.1521 21.9453 48.157C21.9453 48.1834 21.9453 48.1977 21.9484 48.2117C21.9523 48.2294 21.9611 48.246 21.9809 48.283L22.0315 48.3672L22.0885 48.463C22.113 48.5038 22.1375 48.5441 22.1619 48.5849C22.1798 48.6151 22.1978 48.6453 22.2157 48.6751L22.2824 48.7872C22.4048 48.9921 22.5258 49.1977 22.6462 49.4038L22.7737 49.6219L22.805 49.6755C22.8913 49.8226 22.9778 49.9698 23.0647 50.1166V48.2385ZM27.5513 57.8702C27.4747 57.7358 27.398 57.6019 27.3212 57.4675L27.2887 57.4106C27.2287 57.3057 27.1688 57.2007 27.1089 57.0958L27.0793 57.0441L26.9314 56.7849C26.8418 56.6279 26.7523 56.4713 26.6626 56.3147L26.512 56.0513L26.4821 55.9992C26.3422 55.7543 26.204 55.5087 26.0668 55.2626C25.8817 54.9306 25.6912 54.6019 25.4989 54.274C25.4845 54.2494 25.4701 54.2249 25.4558 54.2004V52.9189V48.4887C25.7018 48.5151 25.9478 48.5411 26.1939 48.5664L26.2612 48.5736L26.6821 48.6173L27.0569 48.6562L27.6838 48.7215L28.406 48.7966L29.1814 48.877L29.4027 48.9L29.7504 48.9362L29.8772 48.9494C29.9707 48.9592 30.0642 48.9687 30.1577 48.9785C30.2193 48.9849 30.2808 48.9913 30.3423 48.9981C30.4704 49.0121 30.5913 49.0215 30.7202 49.0098L30.81 49.0019L30.9047 48.9928L31.0072 48.9834C31.0654 48.9781 31.1236 48.9728 31.1818 48.9672C31.2315 48.9626 31.2812 48.9581 31.3309 48.9532L31.5384 48.9343C31.7584 48.9143 31.9783 48.8928 32.1981 48.8706C31.77 50.3124 31.08 52.2834 30.5995 53.3068C29.696 55.2309 28.6246 56.8219 27.5513 57.8702ZM40.3196 49.1026C40.2641 49.1577 40.209 49.2128 40.1535 49.2679C40.1083 49.3128 40.063 49.3581 40.0177 49.403L39.9332 49.4872L39.8596 49.5607C39.8 49.6226 39.7437 49.6853 39.6879 49.7506C39.5592 49.8989 39.4203 50.037 39.2811 50.1755L39.2592 50.197L39.1656 50.2909C39.1332 50.323 39.1011 50.3555 39.0686 50.3875C39.0339 50.4223 38.9992 50.4566 38.9645 50.4913C38.9113 50.5445 38.8577 50.5981 38.8045 50.6513C38.7517 50.7038 38.6992 50.7562 38.6464 50.809C38.5592 50.8962 38.472 50.9834 38.3849 51.0702C38.2279 51.2272 38.0709 51.3838 37.9139 51.5404C37.6899 51.7641 37.466 51.9875 37.2421 52.2113C37.1369 52.3166 37.0317 52.4215 36.9263 52.5264C36.8606 52.5921 36.795 52.6577 36.7294 52.7234C36.6992 52.7536 36.6689 52.7834 36.6387 52.8136C36.4883 52.9634 36.3421 53.1143 36.204 53.2755C36.1509 53.3362 36.0941 53.3909 36.0341 53.4449L35.9655 53.5075L35.8933 53.5736C35.2666 54.1566 34.7965 54.6766 34.4944 55.4815C34.3979 55.7385 34.2815 55.9849 34.1642 56.2328C34.1089 56.3498 34.0546 56.4675 34.0002 56.5853L33.9865 56.6151L33.916 56.7672C33.6243 57.3973 33.3335 58.0283 33.0453 58.66C33.0352 58.6823 33.025 58.7045 33.0149 58.7268C32.7081 58.8434 32.3987 58.954 32.087 59.0589C28.5795 60.2396 28.1962 60.2434 29.3291 59.0845C31.2568 57.1124 33.0237 53.717 34.0695 49.974C34.2032 49.4955 34.3347 49.0268 34.4423 48.6445C34.7343 48.6166 35.0264 48.589 35.3184 48.5611C35.7374 48.5215 36.1563 48.4815 36.5753 48.4415L36.6432 48.4351L36.9555 48.4053C37.3045 48.3721 37.6535 48.3385 38.0026 48.3049C38.0826 48.3294 38.1645 48.3543 38.2483 48.38C38.9128 48.5834 39.6309 48.8366 40.3196 49.1026Z" fill="#056BCB"/>
<path fill-rule="evenodd" clip-rule="evenodd" d="M15.9606 47.1234C16.0229 47.0627 16.7592 46.9249 17.5968 46.8181C17.962 46.7717 18.467 46.7264 19.0103 46.6887C19.4363 46.9011 19.8646 47.1083 20.2953 47.3113C20.4889 47.4027 20.6818 47.4947 20.8743 47.5883C20.9735 47.6366 21.0729 47.6842 21.1728 47.731C21.6961 47.9751 21.8879 48.0649 22.0051 48.2136C22.073 48.2996 22.1158 48.4053 22.1833 48.5725C22.2219 48.6404 22.2614 48.7076 22.3021 48.7744L22.3903 48.9249L22.4858 49.0883L22.6204 49.3185C22.7188 49.4868 22.8172 49.6547 22.9156 49.823L22.9795 49.9321C23.008 49.9808 23.0365 50.0294 23.065 50.0781V52.9185V59.2721L22.3926 58.9306C21.047 58.2464 19.4879 56.3623 18.2878 53.9702C17.1992 51.8004 15.6975 47.3827 15.9606 47.1234ZM25.4561 54.1483V59.2721L26.1481 58.9204C26.6113 58.6849 27.0887 58.3242 27.5655 57.8562C27.5113 57.76 27.4572 57.6638 27.4035 57.5676C27.2655 57.32 27.1267 57.0728 26.9836 56.8283C26.8264 56.5604 26.6712 56.2913 26.52 56.0196C26.3338 55.6853 26.1447 55.3528 25.9546 55.0208C25.8841 54.8977 25.8137 54.7744 25.7436 54.651C25.6484 54.483 25.5527 54.3151 25.4561 54.1483ZM16.8693 59.217C17.7262 59.5076 18.5115 59.7302 19.0946 59.834L20.0257 59.9996L18.7883 58.6344C17.2219 56.9068 16.0001 54.5838 14.788 50.934C14.7756 50.9762 14.7632 51.0185 14.7506 51.0608C14.7304 51.1287 14.7154 51.1789 14.7008 51.2291C14.6595 51.3706 14.6208 51.5128 14.4727 52.0566C14.3428 52.5344 14.2112 53.0113 14.0789 53.4883L14.0609 53.5528L14.0576 53.5649C14.0302 53.6638 14.0029 53.7623 13.9751 53.8608C13.9038 54.1136 13.8352 54.3668 13.7701 54.6215C13.6946 54.9162 13.6166 55.2098 13.5304 55.5019C13.4696 55.7079 13.4094 55.914 13.352 56.1208L13.3283 56.2072C13.2815 56.3747 13.2409 56.5374 13.2207 56.7102C13.4221 56.7393 13.6235 56.7517 13.8267 56.7627L13.8921 56.766C14.4269 56.7947 14.9618 56.8181 15.4968 56.8415L15.7075 56.8506C15.821 56.8559 15.9346 56.8608 16.0481 56.8657L16.1772 56.871C16.4431 56.8827 16.7081 56.8902 16.9743 56.8891L17.0491 56.8883C17.0338 56.9189 17.0264 56.934 17.0218 56.9494C17.0175 56.9642 17.0156 56.9796 17.0119 57.0098L17.0066 57.0883L17.0003 57.1777L16.9937 57.2762C16.9862 57.3842 16.9788 57.4921 16.9716 57.6C16.9664 57.6777 16.9611 57.7559 16.9558 57.8336C16.9244 58.2947 16.8956 58.7559 16.8693 59.217Z" fill="#962EA8"/>
<path fill-rule="evenodd" clip-rule="evenodd" d="M13.1789 45.3906L12.9574 45.3936C11.1355 45.4162 9.31381 45.4453 7.49219 45.4841C7.49219 45.5106 7.49219 45.5253 7.49487 45.5392C7.49823 45.557 7.50581 45.574 7.52287 45.6124L7.56615 45.6985L7.61426 45.7947C7.62947 45.8249 7.64468 45.8551 7.65989 45.8849C7.67098 45.9072 7.68207 45.9291 7.69313 45.9513C7.80204 46.1679 7.9126 46.3838 8.02638 46.5981C8.07343 46.6864 8.11977 46.7755 8.16551 46.8645C9.48773 46.386 10.9316 45.943 12.2746 45.6128L13.1789 45.3906ZM12.488 57.3781C12.5594 57.314 12.6263 57.246 12.6935 57.1777L12.7151 57.1555C12.7929 57.0789 12.8751 57.0079 12.9578 56.9366C13.0289 56.8743 13.0948 56.8083 13.1606 56.7404C13.1136 56.5755 13.0376 56.426 12.9605 56.274C12.953 56.2592 12.9455 56.2445 12.938 56.2298L12.8895 56.1332C12.7844 55.9249 12.6767 55.7181 12.5671 55.5121C12.4495 55.2898 12.3377 55.0649 12.2258 54.8396C12.0931 54.5724 11.9587 54.3068 11.8185 54.0438C11.6909 53.803 11.5703 53.5589 11.4496 53.3147C11.3527 53.1192 11.253 52.9257 11.1509 52.7328C10.9754 52.4011 10.8086 52.0649 10.6419 51.7287L10.6093 51.663C10.4491 51.3404 10.2874 51.0192 10.1188 50.7007C10.0157 50.5064 9.91672 50.3098 9.81913 50.1125C9.67796 49.8272 9.53468 49.543 9.38494 49.2619C9.29921 49.1004 9.21679 48.937 9.13513 48.7732C9.60064 48.6109 10.0669 48.4596 10.5119 48.3283C11.6955 47.9796 12.7715 47.66 12.903 47.6185C13.4221 47.454 13.7588 47.5192 13.8372 47.7992C14.1615 48.9574 14.4803 50.0094 14.7999 50.9698C14.7783 51.0457 14.7577 51.1215 14.7372 51.1977L14.7145 51.2815C14.6681 51.4528 14.6233 51.6245 14.5791 51.7962C14.5033 52.0906 14.422 52.3826 14.3361 52.674C14.2218 53.0623 14.1163 53.4528 14.0154 53.8445C13.9397 54.1385 13.8584 54.4298 13.7723 54.7207C13.7032 54.9555 13.6408 55.1917 13.58 55.4287C13.5313 55.6177 13.4788 55.8057 13.4228 55.9925C13.357 56.2125 13.2961 56.434 13.2352 56.6551L13.22 56.7106L13.2817 56.7128C13.8239 56.7309 14.3657 56.754 14.9075 56.78L15.0896 56.7891C15.7426 56.8204 16.3956 56.8532 17.0484 56.8887C17.0017 57.6687 16.9526 58.4483 16.8995 59.2279C15.4231 58.7287 13.7286 58.0253 12.488 57.3781Z" fill="#1F67CB"/>
<path fill-rule="evenodd" clip-rule="evenodd" d="M4.68163 36.6066C4.65579 36.6727 4.62994 36.7388 4.60412 36.8049C4.43424 37.2402 4.26401 37.6753 4.09224 38.1098L4.06103 38.1887C3.95397 38.4596 3.8468 38.7306 3.73959 39.0011C3.39537 39.8702 3.05234 40.7396 2.71231 41.6106L2.64948 41.7713C2.60195 41.8928 2.55445 42.0147 2.50719 42.1366L2.46956 42.2336C2.39148 42.4336 2.32242 42.6339 2.26367 42.8404C2.46761 42.9675 2.67705 43.0826 2.88954 43.1943C3.24828 43.3826 3.60461 43.5743 3.95646 43.7751C4.10907 43.8622 4.26212 43.9487 4.41624 44.0328C4.62318 44.146 4.82941 44.2604 5.03446 44.377C5.35462 44.5592 5.67688 44.737 6.00111 44.9117C6.0922 44.9607 6.18326 45.0098 6.27413 45.0592C6.63579 45.257 6.99771 45.4517 7.36824 45.6324C7.53001 45.5038 7.68797 45.3732 7.83907 45.2324L7.84752 45.2245C7.95129 45.1272 8.05465 45.0302 8.16397 44.9389C8.2965 44.8324 8.42616 44.7253 8.5505 44.6094C8.68382 44.4845 8.81737 44.3622 8.95971 44.2475C9.0688 44.16 9.17378 44.0694 9.27688 43.9747C9.3845 43.8755 9.49345 43.7785 9.60446 43.6834L9.65899 43.637L9.76586 43.5456C9.90843 43.4238 10.0501 43.3019 10.1871 43.1739C10.3394 43.0321 10.4913 42.8917 10.6532 42.7607C10.7582 42.6762 10.8597 42.5898 10.9592 42.4989C11.0655 42.4019 11.1749 42.3106 11.2875 42.2207C11.3377 42.1811 11.3868 42.1407 11.4341 42.0981C11.449 42.0502 11.4555 42.0294 11.4637 42.009C11.47 41.9936 11.4774 41.9781 11.4904 41.9513L11.5231 41.8845L11.5605 41.8079L11.6016 41.7249L11.6894 41.5456C11.7538 41.4147 11.8182 41.2838 11.8824 41.1524L11.9816 40.9502C12.1352 40.6373 12.2883 40.3238 12.441 40.0106C12.5006 39.8879 12.5603 39.7653 12.62 39.643L12.3726 36.6038H6.4505C5.79292 36.6038 5.20597 36.6046 4.68163 36.6066Z" fill="#F80076"/>
<path fill-rule="evenodd" clip-rule="evenodd" d="M6.77163 47.4004C7.00311 46.7721 7.23254 46.1426 7.46179 45.5136C7.38295 45.4841 7.3368 45.4849 7.25258 45.4985L7.14454 45.5245C7.08103 45.5396 7.01756 45.5551 6.95416 45.5706C6.90794 45.5819 6.86167 45.5932 6.81541 45.6045C6.69039 45.6347 6.56545 45.6649 6.44054 45.6955C6.3348 45.7215 6.22899 45.7472 6.12318 45.7728C5.36273 45.9574 4.60303 46.1449 3.84439 46.3366C3.36591 46.4577 2.88672 46.5743 2.40585 46.6857C2.35845 46.6966 2.31105 46.7075 2.26367 46.7185C2.84697 47.9426 3.12036 48.5106 3.53008 48.6374C3.92088 48.7577 4.43571 48.477 5.46182 47.9811C5.85812 47.7894 6.29922 47.5943 6.77163 47.4004ZM5.75243 50.1664C5.65001 50.446 5.54779 50.7257 5.44579 51.0057C5.38779 51.1645 5.32967 51.3238 5.27145 51.4826C5.02956 51.1679 4.89175 50.9192 4.89175 50.7672C4.89175 50.6551 5.22182 50.4358 5.75243 50.1664Z" fill="#A10077"/>
<path fill-rule="evenodd" clip-rule="evenodd" d="M13.025 43.0026C12.8929 42.9087 12.7605 42.8151 12.6279 42.7215L12.4402 42.5894L12.3775 42.5453C12.2682 42.4683 12.1591 42.3913 12.0512 42.3125L11.9771 42.2581L11.8322 42.1517L11.7639 42.1008L11.6999 42.054C11.6251 41.9985 11.5642 41.9604 11.4705 41.9494C11.4412 41.9796 11.4266 41.9947 11.4111 42.0087C11.3958 42.0226 11.3796 42.0355 11.3475 42.0608C11.2075 42.1725 11.0715 42.2864 10.9404 42.4087L10.9293 42.4192C10.8268 42.5155 10.7246 42.6109 10.6164 42.7011C10.46 42.8264 10.3105 42.9555 10.1646 43.0928C10.0436 43.2068 9.92166 43.3174 9.79181 43.4215C9.68645 43.5057 9.58566 43.5932 9.48698 43.6849L9.47728 43.6943C9.37358 43.7913 9.27034 43.8883 9.16117 43.9792C9.02864 44.0857 8.89898 44.1928 8.77464 44.3087C8.64132 44.434 8.50777 44.5558 8.36543 44.6706C8.25634 44.7585 8.15136 44.8487 8.04826 44.9434L8.03838 44.9528C7.97057 45.0166 7.9034 45.08 7.82849 45.1355C7.62423 45.2815 7.46457 45.4121 7.37645 45.6536L7.3506 45.7294L7.29011 45.8977C7.24751 46.0189 7.20404 46.1392 7.15936 46.2596C7.09853 46.4234 7.03815 46.5875 6.97796 46.7513L6.87804 47.023L6.75177 47.3668C6.74562 47.3834 6.73951 47.4 6.7334 47.4166C8.38441 46.7358 10.4253 46.0672 12.275 45.6128L13.3203 45.3558L13.1765 44.3736C13.1427 44.1426 13.0883 43.6453 13.025 43.0026ZM5.25 51.4525C5.26404 51.4143 5.27811 51.3758 5.29219 51.3377L5.31581 51.2732L5.38094 51.0959L5.41343 51.0072L5.44589 50.9189C5.53547 50.6747 5.62506 50.4306 5.71472 50.1864C6.81245 49.623 8.8163 48.8279 10.5123 48.3279C11.6959 47.9796 12.7719 47.66 12.9034 47.6181C13.4225 47.4536 13.7591 47.5189 13.8376 47.7992C14.162 48.9577 14.4811 50.0106 14.8009 50.9713C14.7795 51.0464 14.7591 51.1215 14.7387 51.197L14.7159 51.2811C14.6697 51.4525 14.6248 51.6238 14.5806 51.7955C14.5048 52.0898 14.4235 52.3819 14.3375 52.6736C14.2233 53.0619 14.1178 53.4521 14.0169 53.8441C13.9412 54.1381 13.8599 54.4294 13.7737 54.7204C13.7047 54.9551 13.6422 55.1913 13.5815 55.4283C13.5328 55.6174 13.4803 55.8049 13.4243 55.9921C13.3585 56.2121 13.2976 56.4332 13.2367 56.6547L13.2214 56.7102L13.2832 56.7121C13.8254 56.7302 14.3672 56.7532 14.909 56.7796L15.0911 56.7883C15.7441 56.8196 16.3971 56.8525 17.0499 56.8883C17.0031 57.6683 16.954 58.4483 16.9009 59.2279C15.1301 58.6294 13.0453 57.7366 11.8061 57C9.55823 55.6638 6.31857 52.8641 5.25 51.4525ZM15.4692 44.7509C15.4904 44.766 15.5117 44.7815 15.5329 44.797C15.57 44.8238 15.6072 44.8506 15.6445 44.8774C15.5691 44.8755 15.5232 44.8694 15.5124 44.8589C15.4997 44.8464 15.4852 44.8094 15.4692 44.7509Z" fill="#E00042"/>
</g>
<defs>
<clipPath id="clip0_2236_4320">
<rect width="48.6792" height="60" fill="white"/>
</clipPath>
</defs>
</svg>
