<svg width="48" height="60" viewBox="0 0 48 60" fill="none" xmlns="http://www.w3.org/2000/svg">
<g clip-path="url(#clip0_2288_1469)">
<path fill-rule="evenodd" clip-rule="evenodd" d="M17.4696 0.329485C16.0948 0.936323 15.8336 1.47646 15.7441 3.89913L15.6629 6.10596H14.3215C12.1926 6.10596 12.1599 6.16444 12.237 9.86559L12.303 13.0338L15.3559 13.5438C17.035 13.8244 18.8579 14.1214 19.407 14.2041L20.4051 14.3544V13.1006C20.4051 11.0339 21.5031 10.0983 23.9278 10.0983C26.3497 10.0983 27.4504 11.0344 27.4504 13.0942V14.3417L28.566 14.1923C29.1796 14.1102 31.0024 13.8159 32.617 13.5384L35.5526 13.0338L35.6186 9.86559C35.6956 6.16444 35.6629 6.10596 33.5341 6.10596H32.1927L32.1114 3.89913C32.0212 1.45392 31.757 0.921763 30.3348 0.319856C29.2714 -0.130341 18.4927 -0.122356 17.4696 0.329485ZM18.2916 4.34462V6.10596H23.9278H29.5641V4.34462V2.58329H23.9278H18.2916V4.34462ZM22.6859 12.358C22.5939 12.4498 22.5187 13.5113 22.5187 14.7171V16.9088H23.9362H25.3538L25.2865 14.6191L25.2195 12.3293L24.0363 12.2601C23.3853 12.2221 22.7777 12.266 22.6859 12.358ZM12.8901 17.5073C12.8901 19.5738 12.9406 19.8244 13.5051 20.5646C14.0182 21.2375 14.27 21.3708 15.0257 21.3708C15.9158 21.3708 15.9273 21.3599 15.6868 20.7274C15.3231 19.7709 15.6261 18.6636 16.4388 17.9797C17.0548 17.4614 17.3773 17.3785 18.7793 17.3785C20.2041 17.3785 20.4051 17.325 20.4051 16.9443C20.4051 16.5681 19.9749 16.4417 17.176 15.9959C15.4001 15.713 13.709 15.4309 13.4185 15.3687C12.8995 15.2579 12.8901 15.2957 12.8901 17.5073ZM31.0319 15.9109C27.9101 16.4234 27.4504 16.5549 27.4504 16.9349C27.4504 17.6221 26.2378 18.8068 25.3481 18.9886L24.5443 19.1532L26.0979 20.262L27.6519 21.3708H31.3087H34.9654V18.3179C34.9654 16.6388 34.8861 15.2781 34.7894 15.294C34.6926 15.31 33.0014 15.5879 31.0319 15.9109ZM17.5869 19.7727C17.5869 19.9273 17.871 20.35 18.218 20.7121C18.8349 21.356 18.9075 21.3708 21.444 21.3708H24.0391L22.7506 20.439C21.5004 19.5351 21.4041 19.5071 19.5244 19.4996C18.1741 19.4945 17.5869 19.5771 17.5869 19.7727ZM8.40501 20.3418C8.13353 20.669 8.2519 21.028 9.25703 22.9236C10.804 25.8416 11.4596 26.7774 12.4021 27.4124C13.6167 28.2311 14.6347 28.4134 17.9979 28.4147C20.4838 28.4159 21.1096 28.4812 21.1096 28.7399C21.1096 28.9176 20.949 29.1965 20.7524 29.3596C20.5559 29.5228 19.7447 30.3898 18.9498 31.2865C17.3354 33.1075 17.3671 33.3381 19.2326 33.3444C20.9655 33.3503 21.6928 33.0107 24.9857 30.6592L28.1267 28.4162H33.4249C38.41 28.4162 38.7507 28.3885 39.1927 27.9465C39.913 27.2263 39.7636 26.6527 38.5469 25.4639C36.4462 23.4119 37.0405 23.4955 24.501 23.4897C16.0226 23.4856 13.3623 23.4161 13.0752 23.1909C12.8692 23.0295 12.1583 22.237 11.4951 21.4296C10.4545 20.1626 10.1823 19.9618 9.50502 19.9618C9.06868 19.9618 8.58044 20.1304 8.40501 20.3418ZM0.327295 36.7852C0.0123682 37.1003 -0.0277902 37.4495 0.103958 38.7226C0.344674 41.0461 1.23755 44.3411 2.15509 46.2923C3.45237 49.0508 3.30207 48.9773 5.46523 47.9139C7.20919 47.0567 9.83545 46.128 12.1554 45.5482L13.1822 45.2915L13.0409 44.3103C12.9631 43.7703 12.7746 41.7702 12.6221 39.8649L12.3448 36.4009H6.52837C1.45573 36.4009 0.662653 36.4501 0.327295 36.7852ZM14.6366 38.6906C14.8266 41.4304 15.1956 44.6557 15.3351 44.7952C15.3903 44.8504 16.3686 44.7812 17.5093 44.6414C18.6499 44.5015 20.2963 44.3865 21.1683 44.3864L22.7536 44.3857V40.3933V36.4009H18.6158H14.4781L14.6366 38.6906ZM25.102 40.3933V44.3857L26.6872 44.3864C27.5592 44.3865 29.2057 44.5015 30.3463 44.6414C31.487 44.7812 32.4556 44.86 32.4994 44.8164C32.6337 44.682 33.055 41.103 33.2204 38.6906L33.3774 36.4009H29.2397H25.102V40.3933ZM35.3387 38.6906C35.2548 39.9501 35.0738 41.9127 34.9361 43.0522C34.7988 44.1919 34.7355 45.1733 34.7956 45.2334C34.8555 45.2935 35.8431 45.5958 36.99 45.905C39.2117 46.5044 42.0686 47.6187 43.4053 48.4076C44.1918 48.8716 44.2301 48.8733 44.5509 48.4567C45.7996 46.8356 47.4223 41.8998 47.7516 38.7226C48.0012 36.3124 48.2465 36.4009 41.3174 36.4009H35.4911L35.3387 38.6906ZM17.3829 46.7526C16.5602 46.8593 15.8371 46.9967 15.7759 47.0577C15.5175 47.3163 16.9924 51.7293 18.0615 53.8968C19.2403 56.2861 20.7715 58.168 22.0932 58.8513L22.7536 59.1928V52.8462V46.4993L20.8161 46.5291C19.7506 46.5456 18.2056 46.646 17.3829 46.7526ZM25.102 52.8462V59.1928L25.7817 58.8415C27.2562 58.0789 28.8762 56.001 30.154 53.2335C30.9351 51.5416 32.2796 47.2575 32.0892 47.0673C31.8958 46.8738 28.5017 46.5138 26.8046 46.5065L25.102 46.4993V52.8462ZM12.7726 47.5514C12.6435 47.5931 11.5867 47.9123 10.4242 48.2606C7.98816 48.9905 4.90535 50.3514 4.90535 50.6969C4.90535 51.5336 9.01678 55.3035 11.6949 56.9228C13.4926 58.0094 17.1023 59.437 18.8539 59.7539L19.7685 59.9194L18.5531 58.5557C16.614 56.3804 15.2124 53.2606 13.6902 47.7322C13.6131 47.4523 13.2825 47.387 12.7726 47.5514ZM34.1693 47.7133C34.1193 47.8853 33.846 48.8711 33.5621 49.9045C32.5349 53.6432 30.7996 57.0351 28.9063 59.0048C27.7936 60.1623 28.17 60.1587 31.6149 58.9794C34.5517 57.9737 37.2871 56.4315 39.3958 54.5924C41.0022 53.1914 42.9502 51.0599 42.9502 50.7035C42.9502 50.3763 39.9797 49.0323 37.6661 48.3123C34.9004 47.4516 34.2769 47.3449 34.1693 47.7133Z" fill="#3968BF"/>
</g>
<defs>
<clipPath id="clip0_2288_1469">
<rect width="47.8557" height="60" fill="white"/>
</clipPath>
</defs>
</svg>
