<svg width="60" height="60" viewBox="0 0 60 60" fill="none" xmlns="http://www.w3.org/2000/svg">
<g clip-path="url(#clip0_2236_4294)">
<path fill-rule="evenodd" clip-rule="evenodd" d="M17.6638 0.254367C16.5891 0.575714 15.4132 1.80274 15.1004 2.92896C14.9488 3.47511 14.843 7.13996 14.8422 11.8687L14.8407 19.8827L12.1586 19.9968C10.3615 20.0728 9.2213 20.244 8.70259 20.5149C7.71708 21.03 6.4212 22.4995 6.17419 23.3819C6.06941 23.7569 5.98359 30.407 5.98359 38.16C5.98359 50.9539 6.02276 52.3281 6.4075 53.0303C6.84186 53.8235 8.44963 55.3754 8.83684 55.3754C8.9556 55.3754 9.03592 55.9281 9.01521 56.6036C8.9683 58.1303 9.61177 59.0984 10.9962 59.5858C11.8419 59.8835 12.0932 59.8777 12.8877 59.544C14.0373 59.0613 14.7046 58.0645 14.7046 56.8297V55.8743H18.8326H22.9605V56.8614C22.9605 58.1326 23.7038 59.141 24.968 59.5858C25.8137 59.8835 26.065 59.8777 26.8594 59.544C28.1169 59.016 28.6968 58.0533 28.65 56.5707C28.6293 55.913 28.7097 55.3754 28.8285 55.3754C29.2913 55.3754 30.908 53.7108 31.3037 52.8267L31.7206 51.8954L39.0147 55.4218C46.1466 58.8697 46.3184 58.9374 46.7543 58.4714C47.1116 58.0897 58.1288 35.4693 59.3954 32.5171C59.6574 31.9061 59.6644 31.6546 59.4275 31.3426C58.9018 30.6502 41.0179 22.1501 40.0057 22.1117C38.188 22.0431 37.956 22.3415 34.8295 28.7725L31.9312 34.7335L31.8052 29.149C31.6715 23.2304 31.6262 22.9969 30.3414 21.6087C29.2151 20.3919 28.3997 20.1195 25.5187 19.9973L22.8487 19.8837L22.7741 11.3701C22.7044 3.37207 22.6696 2.80622 22.2008 2.02828C21.2954 0.525817 19.3282 -0.243379 17.6638 0.254367ZM27.8144 0.152825C25.1933 0.410048 24.8205 0.513097 24.8205 0.979904C24.8205 2.12733 24.8816 2.14356 28.7586 2.02903C32.539 1.9175 32.7932 1.84216 32.8007 0.832692C32.8039 0.383105 32.6131 0.283058 31.4945 0.148826C30.1837 -0.00860269 29.4502 -0.00784904 27.8144 0.152825ZM45.7781 1.47116L42.9089 2.92922L41.388 2.08192C39.3159 0.927503 37.438 0.889591 35.7385 1.96741C34.4666 2.77428 33.7175 3.71911 33.9254 4.25578C33.9992 4.44666 37.9911 7.00173 42.7963 9.93379C50.4015 14.5746 51.6612 15.2633 52.5244 15.2513C53.093 15.2436 53.8084 15.0283 54.2005 14.7471C55.207 14.0259 58.752 10.3205 58.752 9.98996C58.752 9.63418 56.8254 7.52667 56.1883 7.1856C55.8093 6.98276 55.4431 7.11151 54.3677 7.82555C53.6272 8.31732 52.9061 8.71951 52.7655 8.71951C52.3835 8.71951 48.2733 5.93563 48.2733 5.67716C48.2733 5.55441 48.8346 4.71236 49.5205 3.80619C50.2068 2.89977 50.7681 2.05149 50.7681 1.921C50.7681 1.61911 49.1419 -0.0170847 48.8594 0.000134926C48.7428 0.00712243 47.3563 0.669031 45.7781 1.47116ZM17.3791 2.56046C16.8445 3.12981 16.8367 3.2568 16.8367 11.5423V19.9468H18.8326H20.8286V11.5074V3.06818L20.2512 2.52553C19.4599 1.78227 18.0949 1.79874 17.3791 2.56046ZM10.4745 7.20534C6.94912 10.1578 4.07818 14.1176 2.23891 18.5649C-0.726848 25.7349 -0.747055 33.9652 2.18352 41.1689L2.96644 43.0935L3.7965 42.6975C4.25307 42.48 4.5737 42.1839 4.50883 42.0395C3.60989 40.0374 2.79354 37.5191 2.35791 35.4049C1.90284 33.1948 1.83847 32.2236 1.93752 29.0534C2.08422 24.3589 2.77507 21.5142 4.7249 17.5766C6.3965 14.2005 7.95112 12.1249 10.8564 9.38965C12.0872 8.23126 13.0918 7.18537 13.0887 7.06587C13.0858 6.9461 12.8892 6.59954 12.6521 6.29539L12.221 5.74277L10.4745 7.20534ZM29.9849 11.8077C29.3259 11.9914 28.3154 12.5011 27.7394 12.9402C27.1631 13.3793 26.2718 13.9285 25.7587 14.1605C24.9493 14.5267 24.8253 14.6945 24.823 15.4262C24.8205 16.2573 24.8337 16.2675 25.7287 16.1223C26.2281 16.0413 27.0832 15.6617 27.6286 15.2787C29.8716 13.7042 30.4082 13.4681 31.7565 13.4639C33.1984 13.4597 33.9986 13.7901 35.7121 15.0981C37.1079 16.1637 38.2669 16.2334 39.5946 15.3311C40.099 14.9881 40.6455 14.7074 40.8085 14.7074C40.9715 14.7074 41.9299 15.4913 42.9387 16.4496C45.2698 18.6639 46.4357 19.5099 48.8086 20.7091C50.8506 21.7407 54.0418 22.6888 55.493 22.6951C55.9819 22.6972 56.5316 22.7938 56.7147 22.9098C56.8978 23.0262 57.2315 24.2042 57.4583 25.5373L57.8694 27.9537L58.6223 27.8798L59.3756 27.806L59.3152 26.2323C59.2409 24.3042 58.4694 21.1965 57.4455 18.6993C57.0236 17.6702 56.6435 16.7849 56.6005 16.7321C56.4766 16.5797 55.0095 17.2425 55.0095 17.4511C55.0095 17.5547 55.2902 18.2739 55.6332 19.0497C56.4867 20.9792 56.4697 21.0331 55.0719 20.8245C51.3693 20.2722 47.8579 18.5032 44.923 15.7122C43.8151 14.6588 42.6314 13.6089 42.2919 13.3788C41.395 12.7711 40.0637 12.8539 38.988 13.5846C38.4834 13.9277 37.9428 14.2084 37.7871 14.2084C37.6314 14.2084 37.0274 13.818 36.4448 13.3404C34.5007 11.7475 32.1772 11.196 29.9849 11.8077ZM32.8188 37.1705C29.3868 44.3052 28.055 47.3168 28.157 47.7116C28.2711 48.1529 30.0557 49.1067 36.9767 52.4261C41.7488 54.715 45.7297 56.5111 45.8222 56.4178C46.0649 56.1747 55.7903 35.8635 55.7048 35.7794C55.6657 35.7407 52.9386 34.4204 49.6455 32.845C46.3521 31.2698 42.367 29.3511 40.7895 28.5817C39.2121 27.8119 37.8547 27.1822 37.7727 27.1822C37.6908 27.1822 35.4616 31.6769 32.8188 37.1705ZM11.8467 40.4055V51.8822H12.8447H13.8427V40.4055V28.9287H12.8447H11.8467V40.4055ZM17.8346 40.4055V51.8822H18.8326H19.8305V40.4055V28.9287H18.8326H17.8346V40.4055ZM23.8225 40.4055V51.8822H24.8205H25.8185V40.4055V28.9287H24.8205H23.8225V40.4055ZM40.8693 33.0302C37.7576 34.0032 35.971 36.4333 35.9964 39.6569C36.0122 41.6187 36.488 42.8265 37.8105 44.261C40.7946 47.4983 45.9968 47.0791 48.4935 43.3997C51.0894 39.5748 49.1818 34.3757 44.6942 33.0429C43.195 32.5977 42.2625 32.5946 40.8693 33.0302ZM40.6274 35.0656C40.1957 35.2784 39.5915 35.7197 39.2849 36.0463L38.7271 36.6401L39.6178 37.0647L40.5081 37.4894L41.8428 36.0782L43.1768 34.667L42.2946 34.6728C41.8092 34.6759 41.059 34.8528 40.6274 35.0656ZM43.7698 36.7282C43.4199 37.0356 42.9306 37.5341 42.6817 37.8362C42.2354 38.3786 42.24 38.3898 43.0684 38.7368C43.5294 38.9303 43.9846 39.0453 44.0799 38.9926C44.2854 38.8785 44.6206 36.8075 44.4945 36.432C44.4457 36.2878 44.1197 36.421 43.7698 36.7282ZM46.2054 37.5935C46.133 38.3853 46.0003 39.2617 45.9108 39.5412C45.7796 39.9499 45.9232 40.133 46.6448 40.4768C47.1379 40.7121 47.5939 40.9045 47.6578 40.9045C47.7217 40.9045 47.7739 40.3397 47.7739 39.6492C47.7739 38.2997 47.3373 36.9822 46.7206 36.4707C46.3862 36.1935 46.3212 36.335 46.2054 37.5935ZM37.7998 39.5946C37.805 40.7357 38.4819 42.679 38.9818 42.9879C39.1212 43.0742 39.2853 42.5334 39.3705 41.7089C39.4514 40.9235 39.5895 40.0366 39.6782 39.7386C39.8059 39.3062 39.6836 39.1157 39.0782 38.8026C37.9351 38.2115 37.7939 38.2987 37.7998 39.5946ZM41.4248 40.3846C41.1526 40.8252 40.9695 42.9004 41.2026 42.9004C41.3307 42.9004 41.8645 42.461 42.3886 41.9241L43.3421 40.9479L42.5768 40.5519C41.6849 40.0908 41.6133 40.0804 41.4248 40.3846ZM44.4623 42.3735C44.2281 42.7695 43.6386 43.4435 43.1524 43.8705L42.2679 44.647H43.0328C44.3164 44.647 46.776 43.337 46.776 42.6538C46.776 42.5253 45.1846 41.6532 44.9505 41.6532C44.916 41.6532 44.6965 41.9772 44.4623 42.3735ZM33.612 47.4372C33.4471 47.8742 33.3381 48.252 33.3701 48.2768C33.6036 48.4572 41.8997 52.3812 42.048 52.3812C42.228 52.3812 42.8551 50.8634 42.7231 50.748C42.5601 50.6055 34.2056 46.6428 34.0682 46.6428C33.9823 46.6428 33.7769 47.0005 33.612 47.4372ZM11.1202 56.2219C10.6344 56.8072 10.8815 57.7324 11.5485 57.8268C12.3372 57.9387 12.8849 57.4188 12.7951 56.6443C12.7387 56.1604 12.5586 55.9804 12.0748 55.9239C11.72 55.8828 11.2904 56.0168 11.1202 56.2219ZM25.092 56.2219C24.6062 56.8072 24.8532 57.7324 25.5203 57.8268C26.309 57.9387 26.8566 57.4188 26.7668 56.6443C26.7105 56.1604 26.5304 55.9804 26.0466 55.9239C25.6917 55.8828 25.2621 56.0168 25.092 56.2219ZM36.2974 57.1428C35.2682 57.3991 33.6123 57.6824 32.6173 57.7738L30.8085 57.9391V58.7361C30.8085 59.1747 30.8621 59.5874 30.9278 59.6528C31.0914 59.8165 34.6697 59.436 36.0479 59.1085C39.1924 58.361 39.0236 58.4628 38.7263 57.4932C38.5792 57.0143 38.3937 56.635 38.3138 56.6501C38.234 56.6652 37.3265 56.887 36.2974 57.1428Z" fill="#3968BF"/>
<path fill-rule="evenodd" clip-rule="evenodd" d="M51.4792 27.237L51.3708 27.3792L51.3073 27.4623C51.2047 27.597 51.1017 27.7315 51.0007 27.8672C50.8873 28.0195 50.7723 28.1705 50.6558 28.3202C50.4859 28.5379 50.3175 28.7567 50.1522 28.978C49.8866 29.3338 49.6184 29.6876 49.3478 30.0393C49.2305 30.1912 49.114 30.3434 48.9994 30.4971C48.8709 30.6694 48.7412 30.8408 48.6092 31.0103C48.4412 31.2249 48.2755 31.4408 48.1126 31.659C48.0297 31.77 47.9465 31.8808 47.8633 31.9913C48.4675 32.2811 49.0672 32.5684 49.6459 32.8451C49.7562 32.8979 49.8657 32.9504 49.9749 33.0026C50.5474 32.8759 51.1195 32.749 51.6917 32.6212C51.9053 32.5735 52.119 32.5257 52.3327 32.478L52.3939 32.4645C52.9792 32.3339 53.5648 32.2054 54.1521 32.0817C54.574 31.9928 54.9952 31.9003 55.4152 31.8018C55.7059 31.7336 55.9966 31.6668 56.2884 31.6047L56.3856 31.5842C56.5451 31.5505 56.7046 31.5168 56.8641 31.4838C57.0065 31.4543 57.1486 31.4245 57.2903 31.3933C57.3402 31.3822 57.3901 31.3711 57.4397 31.3601C57.5217 31.343 57.6026 31.325 57.6839 31.3056C57.843 31.2576 57.9232 31.2076 58.0041 31.062C58.0269 31.0138 58.0517 30.9663 58.0772 30.9194L58.1186 30.8438C58.1589 30.7671 58.2015 30.6924 58.2456 30.6186C56.8091 29.8406 54.243 28.5658 51.4792 27.237ZM57.6611 11.359C57.6797 11.3313 57.6986 11.3037 57.7176 11.2762C57.7528 11.2242 57.7865 11.1713 57.8182 11.1172C57.8899 11.0027 57.9499 10.9486 58.0625 10.9098C57.9402 11.0499 57.8051 11.2008 57.6611 11.359ZM53.5648 22.4057C53.585 22.2136 53.6047 22.0214 53.6244 21.8291L53.6469 21.6096L53.7061 21.0309L53.7526 20.5745C54.1892 20.6751 54.6293 20.7586 55.0722 20.8246C56.47 21.0332 56.487 20.9793 55.6339 19.0498C55.2905 18.274 55.0099 17.5548 55.0099 17.4512C55.0099 17.2426 56.477 16.5797 56.6008 16.7321C56.6438 16.785 57.0243 17.6703 57.4459 18.6994C58.4701 21.1966 59.2412 24.3043 59.3155 26.2324L59.3763 27.8061L58.623 27.8799L57.8697 27.9538L57.4586 25.5374C57.2318 24.2043 56.8985 23.0263 56.715 22.9099C56.5319 22.7939 55.9823 22.6973 55.4933 22.6951C55.0087 22.693 54.3301 22.5859 53.5648 22.4057Z" fill="#51C254"/>
<path fill-rule="evenodd" clip-rule="evenodd" d="M50.9203 7.65743L50.3552 8.46499L50.3021 8.54117L50.1957 8.69349C50.1062 8.82112 50.0168 8.94875 49.9278 9.07629L49.8179 9.23288L49.7637 9.31045C49.6355 9.49312 49.5086 9.67649 49.3832 9.86075C49.2868 10.0018 49.1884 10.1405 49.0866 10.2775C48.9546 10.4547 48.8346 10.6284 48.7344 10.8261C49.0711 10.849 49.4068 10.8618 49.7443 10.865C49.7973 10.8654 49.8504 10.866 49.903 10.8665C49.9855 10.8674 50.0679 10.8683 50.1504 10.8692C50.2142 10.8698 50.2781 10.8705 50.342 10.8711C50.467 10.8723 50.5924 10.8735 50.7179 10.8749C51.0179 10.878 51.3175 10.881 51.6175 10.8839C51.8896 10.8866 52.1613 10.8892 52.4335 10.8921C54.2648 10.9116 56.0966 10.922 57.9283 10.9175C57.9287 10.8412 57.9287 10.7698 57.9171 10.6943L57.9012 10.6203L57.8834 10.5353L57.8633 10.4434C57.8277 10.2748 57.7917 10.1064 57.7553 9.93793L57.7139 9.74601L57.6922 9.64556C57.619 9.3058 57.549 8.96551 57.4793 8.62498C57.4545 8.50196 57.4293 8.37898 57.4042 8.256C56.93 7.76365 56.4508 7.32549 56.1891 7.18537C55.8101 6.98253 55.4439 7.11128 54.3686 7.82531C53.6281 8.31708 52.9069 8.71928 52.7664 8.71928C52.6077 8.71928 51.8044 8.23819 50.9203 7.65743Z" fill="#90B900"/>
<path fill-rule="evenodd" clip-rule="evenodd" d="M51.4792 27.2373L51.3704 27.3796L51.3073 27.4628C51.2047 27.5975 51.1017 27.732 51.0003 27.8677C50.8873 28.02 50.7723 28.171 50.6554 28.3206C50.4855 28.5383 50.3175 28.7572 50.1522 28.9785C49.8866 29.3343 49.6184 29.6881 49.3474 30.0398C49.2305 30.1917 49.114 30.3439 48.9994 30.4976C48.8709 30.6699 48.7412 30.8413 48.6088 31.0107C48.4412 31.2254 48.2755 31.4412 48.1126 31.6595C48.0297 31.7705 47.9465 31.8811 47.8633 31.9917C48.4675 32.2814 49.0672 32.5687 49.6455 32.8454C49.7562 32.8982 49.8657 32.9507 49.9749 33.0029C50.3372 32.9228 50.6995 32.8426 51.0619 32.762C51.3955 32.6876 51.7296 32.6137 52.0637 32.5398L52.1566 32.5192L52.822 32.3721L53.5881 32.2027L53.681 32.1822C54.0607 32.0982 54.4401 32.0141 54.8198 31.9296C55.1279 31.861 55.4364 31.7929 55.745 31.7251C55.8394 31.7043 55.9339 31.6836 56.0287 31.6627L56.1533 31.6351C56.3968 31.5813 56.6399 31.5276 56.8834 31.4753C56.9899 31.4527 57.0959 31.4299 57.2016 31.407L57.3464 31.3758C57.4141 31.3616 57.4815 31.3475 57.5492 31.3329L57.61 31.3196C57.7811 31.2832 57.8457 31.252 57.9429 31.1095L57.9924 31.0292L58.0482 30.9392C58.0884 30.8737 58.1287 30.8084 58.1693 30.743L58.2317 30.6423C58.2363 30.6346 58.2413 30.6268 58.246 30.619C56.8095 29.8411 54.243 28.5662 51.4792 27.2373ZM55.5332 18.8211C55.6319 18.9799 55.7306 19.139 55.829 19.2982C55.9532 19.4998 56.079 19.7007 56.2048 19.9015C56.3562 20.1435 56.506 20.3866 56.6539 20.6308C56.7948 20.8637 56.938 21.0949 57.0839 21.3247C57.2148 21.5307 57.3425 21.7385 57.4702 21.9466C57.6259 22.2004 57.7826 22.4534 57.9421 22.7049C58.0625 22.8953 58.1821 23.0863 58.3017 23.2776L58.3598 23.3707L58.4771 23.5588C58.5727 23.712 58.6683 23.8651 58.7639 24.0182L58.8781 24.2011L58.935 24.2925L59.1402 24.6209C59.2366 25.2119 59.297 25.758 59.3152 26.2327L59.3759 27.8064L58.6226 27.8802L57.8697 27.954L57.4586 25.5377C57.2318 24.2045 56.8981 23.0265 56.715 22.9101C56.5315 22.7941 55.9819 22.6976 55.4933 22.6954C55.0087 22.6933 54.3297 22.5862 53.5648 22.4059C53.585 22.2139 53.6047 22.0217 53.6241 21.8296L53.6465 21.6101L53.7057 21.0314L53.7526 20.5748C54.1892 20.6753 54.6293 20.7588 55.0722 20.8249C56.47 21.0335 56.487 20.9796 55.6335 19.05C55.5994 18.973 55.5661 18.8965 55.5332 18.8211Z" fill="#00AE6E"/>
<path fill-rule="evenodd" clip-rule="evenodd" d="M31.8645 31.8022C31.7432 31.8228 31.6218 31.8432 31.5004 31.8631L31.4368 31.8736L31.1904 31.914C30.4931 32.0283 29.7969 32.1442 29.1051 32.2889C28.9263 32.3265 28.7472 32.3621 28.5677 32.3964C28.4079 32.4269 28.2995 32.4476 28.1912 32.4686C27.9629 32.5129 27.7348 32.5587 27.0259 32.7009L26.9589 32.7144C26.5787 32.7907 26.1985 32.867 25.8179 32.9409V40.4056V47.1677C25.8613 47.1902 25.9047 47.213 25.9481 47.2359C26.103 47.3172 26.2584 47.3977 26.4139 47.4782C26.5478 47.5471 26.6816 47.616 26.8146 47.6868C27.4455 48.0244 27.9938 48.3035 28.7179 48.3248C28.7632 48.3256 28.8082 48.3271 28.8531 48.329C28.3893 48.0364 28.192 47.8494 28.1565 47.712C28.0544 47.3172 29.3862 44.3056 32.8183 37.1708C33.9064 34.9089 34.9244 32.8163 35.7513 31.1371L35.7347 31.1399L35.1456 31.2396C35.0229 31.2603 34.9002 31.281 34.7775 31.3017C34.3494 31.3739 33.9213 31.4462 33.4935 31.5194L31.9306 34.7337L31.8645 31.8022ZM40.9736 32.9982C40.9388 33.0086 40.9039 33.0194 40.8687 33.0304C37.757 34.0034 35.9704 36.4336 35.9959 39.6573C35.9992 40.0777 36.0237 40.4636 36.0732 40.8244C36.1259 40.8139 36.1786 40.8039 36.2313 40.7934C36.6156 40.7183 37.0001 40.6444 37.3849 40.5716L37.4815 40.5534C37.6204 40.5271 37.7592 40.5008 37.8981 40.4748C37.8367 40.159 37.8004 39.8559 37.7992 39.595C37.7933 38.299 37.9345 38.2118 39.0776 38.803C39.683 39.1161 39.8054 39.3066 39.6776 39.7386C39.6505 39.8303 39.6184 39.9778 39.5851 40.1605L39.8805 40.1056L40.0434 40.0754L40.29 40.0297C40.5974 39.9724 40.9051 39.9155 41.2128 39.8586C41.4645 39.8121 41.7165 39.7653 41.9685 39.7185C42.1005 39.6941 42.2325 39.6693 42.3645 39.6449C42.4887 39.6221 42.6134 39.5992 42.738 39.576L42.875 39.5505L43.0051 39.5265L43.1236 39.5044C43.2377 39.4831 43.3334 39.4614 43.4352 39.4034L43.2521 38.9299L43.218 38.8417C43.2114 38.8243 43.2048 38.8072 43.1979 38.7898C43.1549 38.7732 43.1116 38.7554 43.0678 38.7372C42.2394 38.3901 42.2348 38.3789 42.6811 37.8365C42.7117 37.7991 42.7461 37.7587 42.7837 37.7161L42.671 37.4233L42.5863 37.2042L42.5696 37.1603C42.4241 36.7828 42.2785 36.4053 42.1318 36.0281C42.1086 35.9676 42.085 35.907 42.0614 35.8465L41.8423 36.0785L40.5076 37.4896L39.6172 37.065L38.7265 36.6404L39.2843 36.0465C39.5909 35.72 40.1952 35.2787 40.6268 35.0659C40.8896 34.9363 41.2705 34.82 41.6379 34.7482C41.5624 34.5502 41.4869 34.3521 41.4126 34.1538C41.2674 33.7681 41.1211 33.3829 40.9736 32.9982ZM35.797 47.4236C34.8084 46.9626 34.1066 46.6432 34.0676 46.6432C33.9818 46.6432 33.7763 47.0005 33.6114 47.4376C33.4465 47.8746 33.3376 48.252 33.3695 48.2768C33.4246 48.3197 33.93 48.5714 34.6716 48.9306C34.8209 48.9465 34.9702 48.9623 35.1194 48.9778L35.1688 48.9828C35.2877 48.9956 35.4067 49.008 35.5256 49.0204C35.6539 49.0339 35.7822 49.0479 35.9105 49.061L36.0526 49.0761C36.3016 49.1025 36.5475 49.1288 36.7983 49.1222C36.7983 49.116 36.7983 49.1114 36.7978 49.1063C36.7954 49.0839 36.7823 49.0626 36.7087 48.9437C36.5432 48.677 36.3825 48.4076 36.2227 48.1374C36.0817 47.899 35.94 47.6609 35.797 47.4236ZM23.8219 46.1783V40.4056V39.6751L23.7612 39.6952C23.6827 39.7208 23.6042 39.7463 23.5257 39.7723C23.4926 39.7831 23.4594 39.7939 23.4263 39.8052C23.4023 39.8129 23.3784 39.8206 23.3544 39.8284C22.6624 40.0552 21.9718 40.2863 21.2813 40.5174C21.1249 40.5697 20.9684 40.6219 20.8119 40.6746C20.7405 40.6982 20.6691 40.7222 20.5978 40.7458C20.5063 40.7764 20.4149 40.807 20.3234 40.8376L20.3003 40.8453C20.1437 40.8979 19.9871 40.9506 19.83 41.0013V43.6804C19.994 43.7961 20.1576 43.9123 20.3201 44.0299C20.5199 44.1747 20.7202 44.3187 20.922 44.4608C21.0541 44.5537 21.1859 44.647 21.3168 44.7418L21.4548 44.8417C21.5679 44.923 21.6814 45.0043 21.7929 45.0879C22.0021 45.2454 22.2092 45.3937 22.4474 45.5044C22.7308 45.6333 23.01 45.7707 23.2882 45.9101L23.4116 45.972C23.5484 46.0409 23.6852 46.1094 23.8219 46.1783ZM17.834 42.2566V41.6625C17.69 41.712 17.5196 41.7705 17.3145 41.8405C17.3538 41.8997 17.3677 41.9206 17.385 41.9381C17.3945 41.9477 17.4049 41.9566 17.4211 41.9698L17.4752 42.007L17.5368 42.0499C17.5602 42.0662 17.5835 42.0821 17.6068 42.0983C17.6291 42.1134 17.6513 42.1289 17.6735 42.1444L17.7458 42.1947C17.7753 42.2152 17.8047 42.2361 17.834 42.2566ZM23.8219 38.8653V33.3405C23.7026 33.3638 23.5831 33.3866 23.4636 33.4091L23.3917 33.4226L23.3202 33.436L23.1797 33.4624L23.1113 33.4752C22.9256 33.51 22.7979 33.534 22.6703 33.5587C22.3893 33.6133 22.109 33.6717 21.2112 33.8586C21.2112 33.8878 21.2112 33.903 21.2143 33.9176C21.2176 33.9334 21.2245 33.9486 21.239 33.9802L21.2783 34.0552L21.3225 34.1399L21.371 34.2318C21.4956 34.4693 21.6224 34.7052 21.7516 34.9402C21.901 35.212 22.044 35.4868 22.1854 35.7628C22.309 36.004 22.4329 36.2449 22.5637 36.4824C22.7302 36.7833 22.8889 37.0877 23.0453 37.394L23.0663 37.4352C23.2284 37.753 23.3904 38.0705 23.563 38.3828C23.6832 38.6061 23.7586 38.7461 23.8219 38.8653Z" fill="#00AE6E"/>
<path fill-rule="evenodd" clip-rule="evenodd" d="M17.834 41.6625C17.69 41.7116 17.5196 41.7701 17.3145 41.8405C17.3538 41.8994 17.3677 41.9203 17.385 41.9381C17.3945 41.9474 17.4049 41.9563 17.4211 41.9694L17.4752 42.0066L17.5368 42.0495C17.5616 42.0666 17.5863 42.0836 17.611 42.1006C17.6318 42.1154 17.6527 42.1297 17.6735 42.144L17.7458 42.1947C17.7753 42.2152 17.8047 42.2357 17.834 42.2563V41.6625ZM19.83 43.68V41.0009C19.9871 40.9502 20.1437 40.8975 20.3003 40.8453L20.3234 40.8376C20.4149 40.8066 20.5063 40.776 20.5978 40.7458C20.8257 40.6696 21.0535 40.5933 21.2813 40.517C21.9718 40.2859 22.6624 40.0548 23.3544 39.8284C23.3788 39.8203 23.4031 39.8121 23.4275 39.8044C23.4602 39.7936 23.493 39.7827 23.5257 39.7719C23.5714 39.7568 23.6171 39.7421 23.6628 39.727C23.6956 39.7161 23.7284 39.7057 23.7612 39.6948L23.8219 39.6747V40.4055V46.1779C23.6852 46.109 23.5484 46.0405 23.4116 45.972L23.2882 45.9101C23.01 45.7703 22.7307 45.6333 22.4474 45.504C22.2092 45.3933 22.0021 45.245 21.7929 45.0875C21.6978 45.0163 21.6014 44.9466 21.5049 44.8773C21.4882 44.8653 21.4714 44.8533 21.4548 44.8413L21.3168 44.7414C21.1859 44.6466 21.0541 44.5533 20.922 44.4604C20.7202 44.3183 20.5199 44.1743 20.3201 44.0295C20.1576 43.9119 19.994 43.7957 19.83 43.68ZM25.8179 47.1612V43.2391C25.9301 43.4957 26.0417 43.7524 26.1526 44.009L26.1831 44.0799C26.2775 44.2986 26.3718 44.5169 26.4656 44.736C26.6306 45.1208 26.7985 45.5036 26.9765 45.883C27.1487 46.2495 27.3096 46.6208 27.468 46.9935L27.5248 47.1275L27.5528 47.1933C27.6571 47.4383 27.7649 47.6818 27.8738 47.9249L27.9125 48.0116L27.9462 48.0871C27.9583 48.1177 27.9641 48.1328 27.967 48.1483C27.9697 48.163 27.9697 48.1781 27.9697 48.2079C27.8297 48.1649 27.7009 48.108 27.5706 48.0418L27.5073 48.0101C27.4646 47.9884 27.4218 47.9671 27.379 47.9454L27.301 47.9059L27.1553 47.8328C27.1005 47.8053 27.0457 47.7778 26.9909 47.7503C26.9176 47.7136 26.8443 47.6764 26.771 47.6396C26.5437 47.525 26.3164 47.4108 26.089 47.2966L26.0144 47.2595C25.949 47.2266 25.8835 47.1937 25.8179 47.1612ZM25.8179 37.5539C25.8888 37.4644 25.9594 37.3747 26.0299 37.2847C26.0715 37.2316 26.1131 37.1785 26.1549 37.1254C26.278 36.9691 26.4016 36.8131 26.5223 36.6549C26.6614 36.4724 26.8029 36.2925 26.9479 36.1147C27.101 35.927 27.2519 35.7379 27.401 35.547C27.4699 35.4588 27.5389 35.3707 27.6081 35.2827L27.6919 35.1759L27.7337 35.1226L27.9012 34.9094L27.9849 34.8027C28.0545 34.7141 28.1242 34.6254 28.1937 34.5367C28.3367 34.354 28.4801 34.1715 28.6252 33.9906C28.7645 33.817 28.9023 33.6427 29.0374 33.4659C29.1288 33.3465 29.2208 33.2273 29.3131 33.1085L29.3682 33.0376L29.3715 33.0333C29.4584 32.9214 29.5453 32.8096 29.633 32.6984L29.6806 32.6381L29.7696 32.5254C29.866 32.4046 29.9557 32.2818 30.0398 32.1522C29.8517 32.1424 29.6826 32.17 29.4984 32.2078C29.419 32.2246 29.3396 32.2413 29.2601 32.2576L29.1333 32.2836C28.9473 32.322 28.7611 32.359 28.5745 32.3947C28.4131 32.4255 28.3038 32.4463 28.1945 32.4675C27.9652 32.5121 27.7361 32.5581 27.0259 32.7006L26.9585 32.7141C26.5785 32.7904 26.1984 32.8667 25.8179 32.9405V37.5539ZM23.8219 33.3401C23.7026 33.3634 23.5831 33.3863 23.4636 33.4088L23.3917 33.4222L23.3202 33.4357L23.1797 33.462L23.1113 33.4749C22.9256 33.5097 22.7979 33.5337 22.6703 33.5584C22.3893 33.613 22.109 33.6713 21.2112 33.8583C21.2112 33.8875 21.2112 33.9026 21.2143 33.9172C21.2176 33.9331 21.2245 33.9482 21.239 33.9798L21.2783 34.0549L21.3225 34.1396L21.371 34.2315C21.4956 34.4689 21.6224 34.7049 21.7516 34.9398C21.901 35.2116 22.044 35.4864 22.1854 35.7624C22.309 36.0037 22.4329 36.2446 22.5637 36.4821C22.7302 36.7829 22.8889 37.0873 23.0453 37.3936L23.0663 37.4349C23.2284 37.7526 23.3904 38.0702 23.563 38.3825C23.6832 38.6058 23.7586 38.7457 23.8219 38.8649V33.3401Z" fill="#A4C63F"/>
<path fill-rule="evenodd" clip-rule="evenodd" d="M31.8643 31.8014C31.6299 31.8407 31.3953 31.879 31.1606 31.9164L31.0897 31.9276C30.7474 31.9817 30.4065 32.0356 30.0703 32.122C30.1081 32.3223 30.1528 32.5202 30.2015 32.718C30.29 33.0768 30.3734 33.4363 30.4509 33.7977C30.5062 34.0589 30.5651 34.319 30.6282 34.5785C30.7373 35.027 30.8425 35.4762 30.9453 35.9262L31.0125 36.2195C31.0553 36.4063 31.098 36.593 31.1407 36.7798C31.1985 37.0325 31.2564 37.2851 31.3143 37.5378L31.357 37.7244L31.3711 37.7859L31.4522 38.1404C31.5413 38.5294 31.6304 38.9183 31.7202 39.3074C31.7282 39.3422 31.7363 39.3774 31.7444 39.4123C32.0766 38.7151 32.4342 37.9688 32.8181 37.1708C33.9062 34.9089 34.9242 32.8163 35.7511 31.1371L35.7347 31.1399C35.5383 31.1731 35.342 31.2064 35.1456 31.2395C35.0277 31.2595 34.9098 31.2794 34.7919 31.2993C34.359 31.3723 33.926 31.4454 33.4933 31.5195L31.9304 34.7338L31.8643 31.8014Z" fill="#A4C63F"/>
<path fill-rule="evenodd" clip-rule="evenodd" d="M58.8242 33.7774L58.7832 33.6722L58.7572 33.6058C58.6473 33.3236 58.5381 33.0412 58.4305 32.7583L58.3934 32.6608C58.3322 32.5003 58.2706 32.3397 58.2099 32.179C58.2002 32.1535 58.1905 32.128 58.1808 32.1024C58.0744 31.821 57.9683 31.5402 57.8363 31.2694C57.6459 31.2834 57.4628 31.3113 57.2766 31.3536C57.2092 31.3692 57.1419 31.3847 57.0745 31.4L56.9607 31.4258C56.701 31.485 56.4408 31.542 56.1803 31.599C55.7952 31.6833 55.4096 31.7683 55.0244 31.854C54.6188 31.9444 54.2127 32.0345 53.8066 32.1243L53.7246 32.1425L53.1408 32.2714L52.4715 32.4193L52.3887 32.4376C51.9838 32.5271 51.5785 32.617 51.1736 32.7071C50.8837 32.7717 50.5941 32.836 50.3042 32.8997L50.1935 32.924L50.0847 32.9478L50.0414 32.9573C50.0046 32.9654 49.9674 32.9736 49.9306 32.9817C53.0948 34.4961 55.6666 35.742 55.7046 35.7796C55.7541 35.8283 52.5199 42.6472 49.7379 48.4336C50.1757 48.5206 50.6135 48.607 51.0517 48.6925C51.1906 48.72 51.33 48.7471 51.4694 48.7742C51.5104 48.7823 51.551 48.7905 51.5921 48.7982C54.3277 43.2035 57.4635 36.7075 58.8242 33.7774ZM39.0211 48.9437C37.8854 48.4034 36.6912 47.8401 35.7598 47.4058C35.817 47.501 35.8745 47.5959 35.9322 47.6907C36.2153 48.1552 36.4925 48.6236 36.7694 49.092L36.678 49.1528C36.7611 49.1543 36.8424 49.152 36.9253 49.1458L37.0328 49.1361L37.1562 49.1249L37.285 49.1129C37.5703 49.087 37.8553 49.0595 38.1402 49.0308C38.4338 49.0014 38.7273 48.9724 39.0211 48.9437ZM36.0696 40.7926C36.247 42.1316 36.7633 43.1253 37.8106 44.2614C40.7948 47.4987 45.997 47.0795 48.4937 43.4001C51.0892 39.5752 49.182 34.3759 44.6944 33.0432C43.2242 32.6066 42.299 32.5951 40.9496 33.0056C41.0383 33.2374 41.1261 33.4694 41.2132 33.7016C41.3506 34.0662 41.4428 34.3112 41.5357 34.5559C41.5605 34.621 41.5852 34.6862 41.6112 34.7536C41.8566 34.7042 42.0974 34.6743 42.2948 34.673L43.177 34.6673L42.0412 35.8686C42.1639 36.186 42.3161 36.5782 42.5119 37.0827C42.5963 37.301 42.6811 37.5194 42.7655 37.7379C43.0291 37.4343 43.4561 37.0044 43.77 36.7284C44.1199 36.4213 44.4459 36.288 44.4946 36.4323C44.6208 36.8077 44.2856 38.8788 44.0797 38.993C43.9914 39.0418 43.5915 38.9458 43.1654 38.7766C43.2455 38.9857 43.326 39.1947 43.4061 39.4037C43.3601 39.42 43.3376 39.4281 43.3148 39.4343C43.2927 39.4401 43.2699 39.4444 43.2257 39.4525L43.1143 39.473C43.0488 39.4854 42.983 39.4974 42.9176 39.5098L42.7728 39.5365C42.6687 39.5559 42.565 39.5752 42.4608 39.5942C42.2921 39.6256 42.1233 39.6569 41.9545 39.6883C41.5624 39.761 41.1703 39.8338 40.7785 39.9066C40.3829 39.9797 39.9873 40.0533 39.5921 40.1268C39.5146 40.5395 39.4279 41.1499 39.3706 41.7093C39.2855 42.5334 39.1214 43.0742 38.9816 42.9883C38.5928 42.7479 38.0964 41.5169 37.8931 40.445C37.6505 40.4919 37.408 40.5391 37.1657 40.5871C36.8326 40.6537 36.4992 40.7168 36.1647 40.776C36.133 40.7814 36.1013 40.7872 36.0696 40.7926ZM45.911 39.5416C46.0004 39.2621 46.1332 38.3856 46.2056 37.5937C46.3214 36.3352 46.3864 36.1938 46.7204 36.471C47.3375 36.9825 47.7741 38.3 47.7741 39.6492C47.7741 40.3397 47.7219 40.9049 47.658 40.9049C47.5941 40.9049 47.1381 40.7125 46.645 40.4772C45.9234 40.133 45.7798 39.9503 45.911 39.5416ZM41.2028 42.9008C40.9697 42.9008 41.1528 40.8256 41.425 40.385C41.6131 40.0804 41.6851 40.0908 42.577 40.5523L43.3423 40.9483L42.3888 41.9245C41.8647 42.4614 41.3309 42.9008 41.2028 42.9008ZM43.1526 43.8708C43.6388 43.4435 44.2283 42.7699 44.4621 42.3739C44.6967 41.9776 44.9162 41.6532 44.9506 41.6532C45.1848 41.6532 46.7762 42.5253 46.7762 42.6538C46.7762 43.3374 44.3166 44.647 43.033 44.647H42.2681L43.1526 43.8708Z" fill="#009E9D"/>
<path fill-rule="evenodd" clip-rule="evenodd" d="M40.6759 56.2239C40.7468 56.0686 40.8145 55.9123 40.8749 55.752C41.0475 55.2917 41.2736 54.9224 41.5512 54.5822C40.2106 53.9628 38.6423 53.2246 36.9777 52.4261C32.0885 50.0814 29.7626 48.917 28.7781 48.2799L28.736 48.2752C28.4901 48.2466 28.2497 48.2334 28.002 48.2384C28.002 48.2655 28.002 48.2803 28.0052 48.2946C28.0092 48.3128 28.0181 48.3298 28.0385 48.3677L28.0903 48.4541L28.1489 48.5524C28.174 48.5942 28.1991 48.6356 28.2241 48.6774C28.2425 48.7084 28.261 48.7394 28.2793 48.7699L28.3478 48.8849C28.4733 49.0951 28.5974 49.3061 28.7209 49.5174L28.8517 49.7412L28.8839 49.7961C28.9762 49.9537 29.0688 50.1112 29.1618 50.2684C29.3676 50.616 29.5714 50.9648 29.7747 51.3143L29.7968 51.3523C30.0126 51.7231 30.2285 52.0943 30.447 52.4636C30.6259 52.7659 30.804 53.069 30.9815 53.3725C31.1201 53.1743 31.2326 52.9877 31.3047 52.8267L31.7216 51.8954L39.0157 55.4218C39.6172 55.7125 40.1692 55.9792 40.6759 56.2239ZM34.4273 59.393C34.3038 59.1759 34.1808 58.9579 34.058 58.7404C33.8788 58.4226 33.6977 58.1059 33.5166 57.7893L33.4833 57.7308C33.4726 57.7123 33.462 57.6937 33.4513 57.6751C34.3884 57.545 35.5218 57.3364 36.2983 57.1432C37.3274 56.887 38.2349 56.6652 38.3148 56.6504C38.3946 56.635 38.5802 57.0143 38.7273 57.4932C38.8283 57.8234 38.915 58.0293 38.8604 58.1868C38.7555 58.4919 38.1228 58.6157 36.0489 59.1085C35.6483 59.2037 35.0618 59.3036 34.4273 59.393ZM34.5903 48.8903C36.9561 50.0388 41.9344 52.3815 42.049 52.3815C42.229 52.3815 42.8561 50.8637 42.7241 50.748C42.6501 50.6834 40.8908 49.8325 38.9773 48.9224C38.9503 48.9252 38.9228 48.9283 38.8957 48.931C38.545 48.9689 38.194 49.0037 37.8426 49.0359L37.6297 49.0552C37.5788 49.0603 37.5278 49.0649 37.4768 49.0695C37.4171 49.0754 37.3574 49.0808 37.2976 49.0862L37.1926 49.0959L37.0954 49.1052L37.0033 49.1133C36.8711 49.1253 36.747 49.1156 36.6156 49.1013C36.5525 49.0943 36.4894 49.0877 36.4263 49.0812C36.3304 49.0711 36.2345 49.0614 36.1386 49.0514L36.0085 49.0378L35.6518 49.0006L35.4248 48.977L34.6294 48.8946L34.5903 48.8903Z" fill="#00CCA8"/>
<path fill-rule="evenodd" clip-rule="evenodd" d="M49.6508 52.7539C49.5866 52.5732 49.5223 52.3924 49.4588 52.2112L49.4155 52.0885L49.2506 51.6205C49.2045 51.4893 49.1584 51.3581 49.1127 51.2268C49.0121 50.9392 48.9115 50.6516 48.8077 50.3648C47.1927 53.7112 45.9091 56.3319 45.8228 56.4182C45.762 56.4794 44.0367 55.7311 41.514 54.5652C41.3925 54.6917 41.2884 54.8222 41.2129 54.9917C41.1939 55.037 41.1742 55.0823 41.1533 55.1268C41.1343 55.1671 41.1153 55.2074 41.0967 55.2476L41.0689 55.3096L41.0058 55.4474C40.9489 55.5716 40.892 55.6963 40.8351 55.8205L40.8002 55.8968C40.7515 56.0025 40.7031 56.1081 40.6543 56.2138C46.1774 58.8774 46.3551 58.8987 46.7546 58.4717C46.868 58.351 48.049 56.0021 49.6508 52.7539Z" fill="#0092C8"/>
<path fill-rule="evenodd" clip-rule="evenodd" d="M40.6716 56.2219C40.7304 56.0927 40.79 55.9637 40.8504 55.8348L40.8826 55.7671L40.8895 55.752C40.9383 55.6486 40.9871 55.5453 41.0362 55.4423C41.0455 55.4234 41.0544 55.4044 41.0633 55.3854C41.0734 55.3649 41.0831 55.344 41.0931 55.3231L41.1195 55.267C41.1628 55.1764 41.2039 55.087 41.2368 54.9921L41.2608 54.9186C41.2751 54.8752 41.2894 54.8319 41.3037 54.7881C40.7734 54.7684 40.2439 54.7525 39.7131 54.7448L39.4925 54.7413C39.29 54.7382 39.0872 54.7351 38.8848 54.732C38.6696 54.7289 38.4544 54.7254 38.2392 54.7219C38.0079 54.7185 37.7767 54.715 37.5456 54.7115L39.014 55.4214C39.6144 55.7117 40.1653 55.9781 40.6716 56.2219ZM34.4252 59.3926C34.3016 59.1755 34.1786 58.9579 34.0558 58.74C33.8775 58.4237 33.6973 58.1086 33.5172 57.7939L33.4811 57.7305C33.4705 57.7119 33.4598 57.6933 33.4492 57.6747C34.3863 57.5446 35.52 57.336 36.2968 57.1428C37.3259 56.8866 38.2333 56.6648 38.3132 56.6497C38.393 56.6346 38.5786 57.0139 38.7257 57.4928C38.8267 57.823 38.9134 58.0289 38.8592 58.1865C38.7539 58.4915 38.1212 58.6154 36.0473 59.1081C35.6466 59.2034 35.0598 59.3032 34.4252 59.3926Z" fill="#00ADD3"/>
<path fill-rule="evenodd" clip-rule="evenodd" d="M30.9914 53.3555C30.9518 53.2877 30.9125 53.22 30.8735 53.1519C30.7234 52.8898 30.5725 52.6285 30.4168 52.3699C30.2414 52.0792 30.0683 51.7874 29.8992 51.4928C29.7611 51.252 29.6221 51.0116 29.4806 50.7728C29.34 50.5355 29.2 50.2978 29.0606 50.0597L28.9951 49.9479C28.8941 49.7752 28.7932 49.603 28.6923 49.4303L28.5542 49.1942L28.4561 49.0266L28.3656 48.8721C28.324 48.8036 28.2834 48.7347 28.2439 48.665C28.1746 48.4935 28.1307 48.3852 28.061 48.2969C27.9409 48.1444 27.744 48.0523 27.2073 47.8014C27.1047 47.7538 27.0028 47.705 26.901 47.6555C26.7036 47.5595 26.5056 47.465 26.3072 47.3714C26.1436 47.2943 25.9804 47.2165 25.8175 47.1383V51.8822H24.8196H23.8215V46.1477C23.5937 46.0339 23.3657 45.9209 23.1373 45.8086L22.9562 45.7196C22.871 45.6774 22.7857 45.6352 22.7003 45.5934L22.6229 45.5555L22.5509 45.5195L22.4843 45.487C22.3959 45.4436 22.3131 45.4223 22.2161 45.4053C22.0567 45.9763 21.8976 46.5472 21.7388 47.1186L21.6985 47.2637C21.6145 47.5661 21.5306 47.868 21.4468 48.1703L21.4376 48.2036C21.4063 48.317 21.3749 48.4301 21.3435 48.5435C21.1883 49.1021 21.0358 49.661 20.8935 50.2231C20.8092 50.5568 20.7175 50.8877 20.6193 51.2175C20.5985 51.2872 20.5832 51.3383 20.5682 51.3898C20.5259 51.5354 20.4862 51.6813 20.3343 52.2391C20.201 52.7292 20.066 53.2184 19.9303 53.7077L19.9118 53.7739L19.9084 53.7863C19.8803 53.8874 19.8523 53.9888 19.8238 54.0898C19.7507 54.3492 19.6803 54.6089 19.6135 54.8698C19.536 55.1725 19.4561 55.4737 19.3677 55.7733C19.3577 55.807 19.3478 55.8406 19.3379 55.8743H22.9595V56.8614C22.9595 56.9752 22.9655 57.0863 22.9771 57.1955C23.0964 58.308 23.8157 59.1805 24.967 59.5858C25.8127 59.8835 26.064 59.8777 26.8584 59.544C28.1159 59.016 28.6958 58.0533 28.649 56.5707C28.6283 55.913 28.7087 55.3754 28.8275 55.3754C29.2084 55.3754 30.3713 54.2474 30.9914 53.3555ZM33.4754 57.6712C33.5166 57.7448 33.5577 57.8183 33.5987 57.8923C33.7538 58.1702 33.9113 58.447 34.0696 58.723C34.1475 58.8592 34.2252 58.9955 34.303 59.1317L34.3245 59.1693L34.4176 59.3323C34.4284 59.3512 34.4393 59.3702 34.4501 59.3892C32.8967 59.6094 31.0435 59.7697 30.9268 59.6528C30.8611 59.5874 30.8075 59.1747 30.8075 58.7361V57.9391L32.6163 57.7738C32.8674 57.7506 33.1607 57.7154 33.4754 57.6712ZM25.5193 57.8268C24.8523 57.7324 24.6052 56.8072 25.091 56.2219C25.2612 56.0168 25.6908 55.8828 26.0456 55.9239C26.5294 55.9804 26.7095 56.1604 26.7659 56.6443C26.8557 57.4188 26.308 57.9387 25.5193 57.8268Z" fill="#0077D6"/>
<path fill-rule="evenodd" clip-rule="evenodd" d="M25.7503 59.7941C25.7031 59.7495 25.6559 59.7054 25.6086 59.6613C25.4723 59.5343 25.3361 59.407 25.2002 59.2792C25.0414 59.1302 24.8825 58.9812 24.7233 58.8325C24.5685 58.6881 24.4139 58.5437 24.2594 58.399L24.1987 58.3417C24.1497 58.296 24.1007 58.2499 24.0517 58.2039C23.9962 58.1516 23.9407 58.0997 23.8853 58.0475L23.8184 57.984L23.6849 57.8582L23.6534 57.8284C23.5618 57.7413 23.4702 57.6546 23.376 57.5706L23.3211 57.5222C23.2876 57.4928 23.2542 57.463 23.2207 57.4335C23.1747 57.3956 23.1531 57.3778 23.1332 57.3581C23.1156 57.3406 23.0992 57.3221 23.0685 57.2868C23.0422 57.204 23.0303 57.1556 23.061 57.0732L23.0992 57.0116L23.1424 56.9396C23.1753 56.885 23.2073 56.8301 23.2384 56.7747C23.2925 56.6764 23.3159 56.6342 23.3436 56.5843C23.3645 56.5463 23.388 56.5041 23.4293 56.4298C23.5215 56.2637 23.6137 56.0977 23.7058 55.9316C23.8913 55.5972 24.077 55.2623 24.2639 54.9286C24.588 54.3499 24.91 53.7701 25.23 53.1894C25.4249 52.8352 25.6208 52.4818 25.8171 52.1284C25.9119 51.9581 26.0066 51.7874 26.1014 51.6166L26.1585 51.5137C26.2156 51.4107 26.2728 51.3077 26.3299 51.2048C26.3681 51.1363 26.4062 51.0674 26.4444 50.9985C26.6304 50.6632 26.8164 50.3276 27.0039 49.9932L27.1615 49.7114L27.2697 49.5182C27.3299 49.411 27.3901 49.3034 27.4501 49.1961L27.5094 49.0897C27.6721 48.8001 27.8232 48.5059 27.9699 48.2083C27.7649 48.1053 27.5599 48.0023 27.3548 47.8997C27.2492 47.8467 27.1436 47.7937 27.0381 47.7406L26.9782 47.7108C26.5925 47.5173 26.207 47.3234 25.8175 47.1379V51.8822H24.8196H23.8215V46.1477C23.5937 46.0339 23.3657 45.9209 23.1373 45.8086L22.9562 45.7196C22.871 45.6774 22.7857 45.6352 22.7003 45.5934L22.6229 45.5555L22.5509 45.5195L22.4843 45.487C22.3959 45.4436 22.3131 45.4223 22.2161 45.4053C22.0567 45.9763 21.8976 46.5472 21.7388 47.1186L21.6985 47.2637C21.6145 47.5661 21.5306 47.868 21.4468 48.1703L21.4376 48.2036C21.4063 48.317 21.3749 48.4301 21.3435 48.5435C21.1883 49.1021 21.0358 49.661 20.8935 50.2231C20.8092 50.5568 20.7175 50.8877 20.6193 51.2175C20.5985 51.2872 20.5832 51.3383 20.5682 51.3898C20.5259 51.5354 20.4862 51.6813 20.3343 52.2391C20.201 52.7292 20.066 53.2184 19.9303 53.7077L19.9118 53.7739L19.9084 53.7863C19.8803 53.8874 19.8523 53.9888 19.8238 54.0898C19.7507 54.3492 19.6803 54.6089 19.6135 54.8698C19.536 55.1725 19.4561 55.4737 19.3677 55.7733C19.3577 55.807 19.3478 55.8406 19.3379 55.8743H22.9595V56.8614C22.9595 56.9752 22.9655 57.0863 22.9771 57.1955C23.0964 58.308 23.8157 59.1805 24.967 59.5858C25.2956 59.7015 25.5345 59.7712 25.7503 59.7941Z" fill="#0088D4"/>
<path fill-rule="evenodd" clip-rule="evenodd" d="M45.8942 24.6069C44.3241 24.5654 42.754 24.5332 41.1836 24.505C41.1836 24.5254 41.1836 24.5396 41.1859 24.5534C41.1913 24.5855 41.2091 24.6155 41.2684 24.7152C41.2858 24.744 41.3032 24.7729 41.3206 24.8018C41.3295 24.817 41.3388 24.8323 41.3477 24.8475L41.3915 24.921C41.4793 25.0687 41.5653 25.2174 41.6508 25.3664C41.8893 25.781 42.1297 26.1943 42.3708 26.6072C42.5899 26.9824 42.8086 27.3579 43.0254 27.7344C43.1543 27.9586 43.2836 28.1825 43.414 28.4059C43.637 28.7876 43.858 29.1704 44.0787 29.5535L44.0864 29.5666C44.2482 29.8482 44.4104 30.1297 44.5734 30.4108C45.6201 30.9147 46.7578 31.4615 47.8796 31.9994C47.9291 31.9346 47.9783 31.8699 48.0279 31.8052L48.0813 31.7352L48.1835 31.6017C48.269 31.4901 48.3542 31.3784 48.4386 31.2658C48.5539 31.1108 48.6708 30.957 48.7897 30.8045C48.9596 30.587 49.1276 30.3682 49.2929 30.1469C49.4899 29.8829 49.6889 29.6203 49.889 29.3583C49.9924 29.2225 50.0961 29.0865 50.1995 28.9506L50.2149 28.93C50.345 28.7595 50.4747 28.589 50.6048 28.4188C50.7476 28.2324 50.8904 28.0458 51.0306 27.8576C51.1571 27.6883 51.2845 27.5199 51.4142 27.3533C51.442 27.3176 51.4699 27.2819 51.4978 27.2461C49.625 26.3457 47.6605 25.42 45.8942 24.6069Z" fill="#94CC00"/>
<path fill-rule="evenodd" clip-rule="evenodd" d="M40.8586 22.3908C40.8756 22.5155 40.8922 22.6403 40.9089 22.7651C40.9387 22.9929 40.9689 23.2207 41.0002 23.4483C41.0111 23.5257 41.0219 23.6031 41.0324 23.6806L41.0537 23.8334C41.0637 23.9057 41.0738 23.9781 41.0839 24.0506L41.0931 24.1179C41.1171 24.2886 41.1415 24.4602 41.1102 24.6315C41.0997 24.6802 41.0893 24.729 41.0796 24.7779L41.0513 24.9185C40.9952 25.199 40.9391 25.4796 40.8829 25.7601C40.8477 25.9349 40.8129 26.1097 40.7777 26.2845L40.7579 26.3831C40.6248 27.047 40.4916 27.7107 40.3669 28.3762C40.5055 28.4433 40.6464 28.5118 40.7893 28.5815C41.584 28.9691 42.9899 29.6485 44.6107 30.4287C44.4733 30.1906 44.3355 29.9526 44.1969 29.7152C44.0486 29.4618 43.9015 29.2078 43.7552 28.9535C43.6271 28.7304 43.4982 28.5075 43.3681 28.2852C43.2183 28.0287 43.0693 27.7716 42.9222 27.5132C42.7402 27.1932 42.5564 26.8746 42.3682 26.5581C42.2084 26.2895 42.0504 26.0199 41.8944 25.7489L41.8731 25.7116C41.7857 25.5591 41.6982 25.4067 41.6091 25.2553L41.5476 25.1517L41.4303 24.953L41.3746 24.8604L41.3239 24.7743C41.2639 24.6739 41.231 24.591 41.2131 24.475C41.2917 24.4136 41.368 24.3511 41.4419 24.2842C41.5813 24.155 41.7218 24.0291 41.8697 23.9095C41.9521 23.843 42.033 23.7762 42.1124 23.7059L42.1201 23.6988C42.2196 23.608 42.3187 23.5176 42.4224 23.4316C42.5254 23.3483 42.6272 23.2648 42.7267 23.1781C41.9695 22.8463 41.3308 22.5762 40.8586 22.3908ZM48.3264 18.337C48.2633 18.3914 48.201 18.4469 48.1391 18.5037C48.0032 18.629 47.8623 18.7466 47.7187 18.8628C47.6386 18.9289 47.5615 18.9973 47.4845 19.0673C47.3811 19.1616 47.2759 19.2517 47.1671 19.3396C47.0548 19.4302 46.9472 19.5235 46.8411 19.6208C45.5796 18.8364 44.531 17.9623 42.9384 16.4494C41.9297 15.4911 40.9712 14.7072 40.8082 14.7072C40.6886 14.7072 40.3627 14.8584 39.998 15.0744C40.0058 15.0291 40.0131 14.9837 40.0205 14.9383C40.0433 14.7943 40.0677 14.6504 40.0921 14.5066C40.1196 14.3445 40.1467 14.1824 40.1738 14.0202L40.1908 13.9202C40.2408 13.6222 40.288 13.3238 40.3352 13.0253C41.0444 12.8955 41.7477 13.0102 42.2916 13.3786C42.6311 13.6087 43.8148 14.6586 44.9227 15.712C45.9876 16.7246 47.1284 17.6028 48.3264 18.337Z" fill="#B4C200"/>
<path fill-rule="evenodd" clip-rule="evenodd" d="M35.3753 5.28329C35.5587 4.81963 35.7416 4.35573 35.9238 3.89156L35.9905 3.72165L36.1155 3.40327L36.1529 3.30806L36.1879 3.21875L36.2181 3.14191L36.2506 3.05767L36.2999 2.95665C36.3622 2.78804 36.356 2.6055 36.3499 2.4264C36.3487 2.39056 36.3475 2.35486 36.3469 2.31944C36.3463 2.26927 36.3458 2.2191 36.3453 2.16893C36.3442 2.06122 36.3429 1.95352 36.3414 1.84582C36.3405 1.77594 36.3397 1.70606 36.3392 1.63618C37.8776 0.913572 39.5569 1.06198 41.3874 2.08192L42.9084 2.92922L45.7775 1.47116C47.3557 0.669031 48.7423 0.00712246 48.8588 0.000134924C49.1414 -0.0170846 50.7676 1.61911 50.7676 1.921C50.7676 2.05149 50.2063 2.89977 49.52 3.80619C48.834 4.71236 48.2727 5.55441 48.2727 5.67716C48.2727 5.82902 49.6914 6.85266 50.9394 7.67125L49.638 9.53175L49.532 9.68327C49.4402 9.81445 49.3485 9.9456 49.2567 10.0766L49.1991 10.1585L49.0914 10.3121C49.0585 10.3589 49.026 10.406 48.9939 10.4532C48.9614 10.4993 48.9277 10.5445 48.8925 10.5887C48.7121 10.8271 48.7458 11.1085 48.7798 11.3918C48.7864 11.4452 48.7926 11.4987 48.7976 11.552L48.8093 11.6796C48.8178 11.7725 48.8263 11.8654 48.8348 11.9582C48.8487 12.1091 48.8627 12.26 48.8762 12.4108C48.8917 12.5799 48.9068 12.7489 48.9223 12.9179C48.9447 13.1652 48.9672 13.4124 48.9896 13.6597C47.6085 12.8594 45.6486 11.6747 42.7957 9.93379C39.7156 8.05421 36.9693 6.32954 35.3753 5.28329ZM31.7291 13.464C31.755 13.4098 31.7811 13.3555 31.807 13.3012C31.894 13.1195 31.9828 12.9389 32.0735 12.759C32.1742 12.5585 32.2716 12.3564 32.369 12.1543L32.3766 12.1384L32.4044 12.0809C32.4781 11.9278 32.5517 11.7747 32.6251 11.6215C33.9615 11.7979 35.2719 12.3798 36.4443 13.3404C37.0269 13.818 37.6309 14.2084 37.7866 14.2084C37.9423 14.2084 38.4829 13.9277 38.9874 13.5846C39.4218 13.2897 39.8975 13.1003 40.3694 13.0193C40.3407 13.1977 40.3109 13.3759 40.2803 13.554C40.2691 13.6175 40.2583 13.681 40.2474 13.7445C40.2149 13.9339 40.182 14.1233 40.1484 14.3125C40.122 14.4589 40.0965 14.6054 40.0709 14.752C40.0613 14.8086 40.0512 14.8652 40.0407 14.9218C40.0318 14.97 40.0237 15.0171 40.0167 15.0634C39.8785 15.1447 39.7345 15.2355 39.594 15.3311C38.2664 16.2334 37.1074 16.1637 35.7115 15.0981C33.998 13.7901 33.1978 13.4597 31.756 13.4639C31.747 13.464 31.738 13.464 31.7291 13.464ZM40.8877 22.4026C40.424 22.2198 40.1151 22.1158 40.0051 22.1117C38.1874 22.0431 37.9554 22.3415 34.8289 28.7725L33.4788 31.5494C33.8638 31.4842 34.2489 31.4193 34.6341 31.3546L34.6987 31.3438L35.735 31.1698C36.9254 28.7519 37.7237 27.1822 37.7721 27.1822C37.8471 27.1822 38.9878 27.7084 40.3883 28.3868C40.4491 28.0746 40.4964 27.841 40.6175 27.2454C40.6709 26.9793 40.7247 26.7131 40.7782 26.447C40.813 26.2751 40.8474 26.1032 40.8823 25.9314C40.9171 25.7585 40.952 25.5857 40.9868 25.4127L41.0263 25.2164C41.0453 25.1238 41.0638 25.0312 41.0824 24.9386L41.0994 24.8536C41.142 24.6477 41.1633 24.4617 41.1413 24.2506L41.1262 24.1437C41.1227 24.1173 41.1188 24.0909 41.1149 24.0644C41.1103 24.0295 41.1053 23.9946 41.1002 23.9597L41.082 23.8341C41.07 23.7497 41.058 23.6654 41.0456 23.581L41.034 23.499C40.988 23.1827 40.9419 22.8664 40.9051 22.5488C40.8993 22.5001 40.8935 22.4513 40.8877 22.4026ZM31.865 31.8237L31.7605 31.8415L31.6913 31.8533C31.3817 31.9061 31.0723 31.9592 30.7633 32.0148L30.7023 32.0258C30.6077 32.0429 30.5131 32.06 30.4186 32.0774L30.3198 32.0953L30.2336 32.1111C30.2018 32.116 30.1841 32.1187 30.1663 32.1203C30.1439 32.1222 30.1214 32.1222 30.0706 32.1222L30.0372 32.0573C29.9944 31.974 29.9515 31.8908 29.9085 31.8076C29.8816 31.7554 29.8548 31.7031 29.828 31.6509C29.7117 31.4258 29.5917 31.203 29.4698 30.9809C29.2606 30.5993 29.0642 30.2114 28.868 29.823C28.689 29.4689 28.5065 29.1176 28.3154 28.7699C28.167 28.4994 28.026 28.2253 27.8862 27.9502C27.8501 27.8793 27.8139 27.8084 27.7777 27.7375C27.7542 27.6914 27.7308 27.6452 27.7074 27.5989C27.6517 27.489 27.5943 27.3809 27.5318 27.2746C27.3983 27.0459 27.3512 26.9653 27.3462 26.8821C27.3434 26.837 27.3531 26.791 27.368 26.72L27.3915 26.6383L27.4187 26.5304C27.4508 26.4057 27.4867 26.2821 27.5228 26.1585L27.5589 26.0326C27.5827 25.9494 27.6067 25.8663 27.6308 25.7832C27.7306 25.4391 27.8276 25.0943 27.9243 24.7494C27.9997 24.4804 28.0756 24.2115 28.1525 23.9428C28.1999 23.7762 28.2467 23.6094 28.2935 23.4426L28.2989 23.4232C28.3897 23.0993 28.481 22.7756 28.5737 22.4523C28.6412 22.2164 28.7071 21.9801 28.7731 21.7437L28.7735 21.7423C28.8369 21.5153 28.9013 21.2886 28.9662 21.0621C29.0098 20.9097 29.0529 20.7571 29.0957 20.6045C29.5487 20.8365 29.9234 21.1577 30.3409 21.6087C31.6257 22.9969 31.6709 23.2304 31.8047 29.149L31.865 31.8237Z" fill="#94CC00"/>
<path fill-rule="evenodd" clip-rule="evenodd" d="M14.8421 17.9407L14.8431 12.5318C14.8649 12.4456 14.8861 12.3593 14.9073 12.2729L14.9134 12.2481C14.949 12.104 14.9864 11.9605 15.025 11.8172C15.098 11.5441 15.1676 11.2702 15.2372 10.9961L15.2392 10.9882L15.3103 10.7087C15.3776 10.4442 15.4449 10.1797 15.5121 9.91521C15.5534 9.75248 15.5948 9.58978 15.6363 9.42708L15.6832 9.24236C15.7051 9.15623 15.727 9.0701 15.749 8.98401L15.7681 8.90834C15.8006 8.78121 15.8346 8.65452 15.8705 8.52832L15.8916 8.45338C15.9282 8.35614 15.9848 8.31 16.068 8.25012L16.1591 8.18179L16.2507 8.1149C16.303 8.07275 16.355 8.03024 16.4067 7.98735L16.4904 7.9188C16.6078 7.82253 16.725 7.72599 16.8421 7.62941C16.8379 8.67631 16.8377 9.96073 16.8377 11.5425V17.3785C16.5497 17.461 16.2613 17.542 15.9728 17.6227C15.7381 17.6883 15.5035 17.7542 15.2689 17.8202L15.2056 17.838C15.0844 17.8721 14.9632 17.9064 14.8421 17.9407ZM29.1214 20.6173C28.3488 20.2137 27.352 20.0753 25.5196 19.9975L22.8497 19.8839L22.7751 11.3703C22.7054 3.3723 22.6706 2.80644 22.2018 2.0285C21.2964 0.526041 19.3291 -0.243156 17.6648 0.25459C16.5901 0.575938 15.4142 1.80296 15.1014 2.92919C15.0486 3.11933 15.0014 3.68751 14.9622 4.54703C15.4711 4.59116 15.9799 4.63572 16.4887 4.68054L16.5893 4.68941C16.6871 4.698 16.7848 4.70663 16.8825 4.7153C16.9407 3.06745 17.0741 2.88649 17.38 2.56068C18.0959 1.79897 19.4608 1.7825 20.2522 2.52575L20.8296 3.0684V11.5077V16.2518C20.9776 16.2102 21.1257 16.1688 21.2739 16.1275L21.1956 16.2505L21.0874 16.4207C21.0394 16.4962 20.9913 16.5717 20.9433 16.6473C20.9054 16.7069 20.8675 16.7665 20.8296 16.8262V19.9471H18.8479C18.7887 20.0405 18.7294 20.1339 18.6699 20.2273C18.5813 20.3661 18.493 20.5049 18.4046 20.6439L18.2979 20.8118L18.0859 21.1452C17.9011 21.4362 17.7161 21.7269 17.5303 22.0173C17.3208 22.3448 17.1116 22.6726 16.9031 23.0007C16.8151 23.1392 16.727 23.2778 16.639 23.4162C16.5327 23.5834 16.4264 23.7505 16.3202 23.9177C16.1354 24.2086 15.9504 24.4994 15.7646 24.7896C15.5551 25.117 15.346 25.4447 15.1376 25.7728C15.0917 25.845 15.0458 25.9172 14.9999 25.9894C14.9748 26.0289 14.9496 26.0684 14.9245 26.1079C14.8706 26.1925 14.8169 26.277 14.7631 26.3616C14.6933 26.4717 14.6234 26.5817 14.5531 26.6914C14.5181 26.7457 14.4833 26.8001 14.4485 26.8545L14.3993 26.9314L14.3523 27.0042L14.3093 27.0716C14.2595 27.1492 14.2225 27.216 14.2109 27.3085C14.2467 27.3442 14.2832 27.3793 14.3214 27.4124C14.4114 27.4893 14.4995 27.567 14.5838 27.6501C14.6909 27.7588 14.7973 27.8659 14.9131 27.9654C14.9752 28.0187 15.0353 28.0725 15.0937 28.13C15.1012 28.1376 15.1087 28.1453 15.1162 28.1529C15.1881 28.226 15.2596 28.2989 15.3363 28.367C15.4222 28.4408 15.507 28.5143 15.5877 28.5939C15.6944 28.7021 15.8004 28.8089 15.9158 28.9079C16.0063 28.9855 16.0909 29.0668 16.1746 29.1516C16.2588 29.2372 16.3442 29.319 16.4352 29.3973C16.4974 29.4506 16.5575 29.5044 16.6159 29.5619C16.6234 29.5695 16.6309 29.5772 16.6384 29.5848C16.7103 29.6579 16.7818 29.7308 16.8585 29.7989C16.9444 29.8727 17.0292 29.9462 17.1099 30.0258C17.2166 30.134 17.3225 30.2408 17.438 30.3398C17.5284 30.4174 17.6131 30.4987 17.6967 30.5835C17.7425 30.6299 17.7885 30.6752 17.8356 30.7195V28.929H18.8336H19.8315V32.5978C19.8404 32.6068 19.8494 32.6158 19.8582 32.6248C19.9425 32.7103 20.0278 32.7921 20.1189 32.8704C20.1811 32.9237 20.2412 32.9775 20.2995 33.035C20.3098 33.0455 20.3201 33.056 20.3304 33.0665C20.3976 33.135 20.4646 33.2033 20.5368 33.2667C20.6949 33.41 20.774 33.4817 20.8509 33.5557C20.9278 33.6297 21.0026 33.706 21.1521 33.8587C21.1126 34.0313 21.042 34.179 20.9622 34.3366C20.9268 34.4055 20.8917 34.4744 20.8567 34.5435L20.8022 34.6515C20.7217 34.811 20.6432 34.9713 20.5665 35.1327C20.4562 35.3659 20.3446 35.5982 20.2289 35.8287C20.1035 36.0782 19.979 36.3281 19.858 36.5798C19.8492 36.5982 19.8404 36.6166 19.8315 36.635V40.4055V41.0323C20.0066 40.9742 20.1816 40.9157 20.3564 40.8573C20.5639 40.7876 20.7714 40.7183 20.9789 40.649L21.042 40.6281C21.4295 40.4988 21.8175 40.3711 22.2062 40.2449C22.7463 40.0699 23.285 39.8911 23.8235 39.7111V38.8208C23.6635 38.5083 23.5022 38.197 23.3326 37.8897C23.2336 37.7103 23.1374 37.5302 23.0465 37.3466C22.9447 37.14 22.8413 36.935 22.7304 36.733C22.5756 36.4526 22.4256 36.1702 22.2795 35.8851C22.1289 35.5912 21.9775 35.2981 21.818 35.0087C21.6639 34.7227 21.5869 34.5797 21.5113 34.4359C21.4357 34.2922 21.3614 34.1477 21.213 33.8587C21.3214 33.863 21.4214 33.8512 21.5278 33.8308L21.5898 33.8184C21.6586 33.805 21.7274 33.7916 21.7962 33.778C21.8455 33.7682 21.8947 33.7585 21.944 33.7488C22.2221 33.6943 22.4995 33.638 22.7763 33.5774C23.1243 33.5009 23.4734 33.4321 23.8235 33.3667V28.929H24.8215H25.8194V32.9774C25.8388 32.9734 25.8581 32.9694 25.8775 32.9654L25.9118 32.9584C26.4651 32.8448 27.0183 32.7312 27.5737 32.6286C27.72 32.6016 27.831 32.581 27.9418 32.5599C28.2898 32.4937 28.6366 32.4214 30.072 32.1221C30.072 32.1029 30.072 32.0892 30.0701 32.0756C30.0653 32.0414 30.048 32.0088 29.987 31.8934L29.9484 31.8213C29.9049 31.7394 29.8615 31.6577 29.8178 31.576L29.7676 31.4823C29.6816 31.3215 29.5955 31.1608 29.5094 31.0001L29.4644 30.9159C29.2688 30.551 29.0732 30.1862 28.8895 29.8152C28.7544 29.5421 28.6154 29.2717 28.4712 29.0033L28.4414 28.9479L28.3232 28.7282C28.2124 28.5225 28.1026 28.3162 27.9945 28.109C27.9572 28.0373 27.9197 27.9656 27.882 27.8942C27.827 27.7902 27.772 27.6862 27.7174 27.582L27.6499 27.4532C27.6172 27.3918 27.5846 27.3303 27.5524 27.2687L27.5223 27.2109C27.4298 27.0353 27.3778 26.8871 27.4092 26.6877L27.4387 26.5773C27.4928 26.3719 27.555 26.169 27.6175 25.9661C27.682 25.7581 27.743 25.55 27.7971 25.3391C27.8568 25.1041 27.9184 24.8707 27.9899 24.6389C28.0622 24.4063 28.1322 24.1741 28.1928 23.9382C28.2521 23.7046 28.3132 23.4725 28.3841 23.2421C28.4804 22.932 28.5692 22.6209 28.6526 22.307C28.73 22.0157 28.8107 21.7255 28.8924 21.4353C28.9191 21.3401 28.9459 21.245 28.9723 21.1497C29.0214 20.972 29.0706 20.7944 29.1214 20.6173ZM32.656 11.6256C32.6272 11.6837 32.5982 11.7417 32.569 11.7995C32.4779 11.9807 32.3916 12.164 32.3053 12.3475C32.2226 12.5231 32.1368 12.6969 32.0493 12.8701C31.967 13.034 31.8884 13.1995 31.8116 13.3661C31.7964 13.3989 31.781 13.4316 31.7655 13.4641C31.7628 13.4641 31.7602 13.4641 31.7575 13.4642C30.4092 13.4684 29.8726 13.7044 27.6295 15.279C27.0842 15.6619 26.2291 16.0414 25.7296 16.1226C24.8347 16.2677 24.8215 16.2575 24.8239 15.4264C24.8263 14.6947 24.9503 14.527 25.7597 14.1607C26.2728 13.9287 27.164 13.3796 27.7404 12.9404C28.3164 12.5014 29.3268 11.9917 29.9859 11.808C30.8658 11.5624 31.7669 11.5043 32.656 11.6256ZM36.4346 1.59343C36.4426 2.43026 36.4162 2.83947 36.2974 3.21982C36.2113 3.49535 36.0767 3.75573 35.8716 4.15258C35.7599 4.3721 35.6727 4.60258 35.5856 4.83283C35.5732 4.8655 35.5609 4.89817 35.5484 4.9308C35.5011 5.0544 35.4521 5.17738 35.403 5.30036C34.4947 4.70462 33.9531 4.32519 33.9263 4.25601C33.7185 3.71933 34.4676 2.7745 35.7395 1.96764C35.9679 1.82273 36.1997 1.698 36.4346 1.59343ZM17.8356 41.6888V40.7292C17.7353 40.939 17.6324 41.1476 17.5274 41.3551L17.5202 41.369C17.4413 41.5235 17.3649 41.6733 17.3162 41.8409C17.335 41.8409 17.3487 41.8409 17.3621 41.8394C17.3972 41.8363 17.4315 41.8246 17.5547 41.7836L17.6295 41.7581C17.6982 41.7352 17.7669 41.712 17.8356 41.6888ZM24.8215 0.980125C24.8215 0.513317 25.1943 0.410268 27.8154 0.153048C29.4511 -0.00762583 30.1846 -0.00837947 31.4955 0.14905C32.614 0.283281 32.8049 0.383329 32.8017 0.832916C32.7941 1.84238 32.5399 1.91773 28.7595 2.02926C24.8826 2.14378 24.8215 2.12756 24.8215 0.980125Z" fill="#FE6F00"/>
<path fill-rule="evenodd" clip-rule="evenodd" d="M4.33883 18.3769C4.0989 18.3778 3.859 18.3781 3.61907 18.3778C3.35646 18.3776 3.09395 18.3789 2.83137 18.3822C2.65905 18.3842 2.48678 18.3845 2.31445 18.3833C4.15635 14.0098 6.9969 10.1177 10.4742 7.20546L12.2207 5.74289L12.6518 6.29551C12.8889 6.59965 13.0855 6.94622 13.0884 7.06599C13.0915 7.18548 12.0869 8.23138 10.8561 9.38977C7.95079 12.125 6.39621 14.2006 4.72457 17.5767C4.59009 17.8483 4.46157 18.1147 4.33883 18.3769ZM14.9622 4.51815C14.8881 6.12464 14.8424 8.76797 14.8419 11.8688L14.8418 12.6867C14.8477 12.663 14.8535 12.6394 14.8594 12.6157C15.0231 11.9501 15.1924 11.286 15.3625 10.6221L15.4226 10.3874L15.4614 10.2355L15.4807 10.1604L15.4818 10.1559C15.5128 10.0347 15.5438 9.91355 15.5752 9.7925L15.6124 9.64943L15.6308 9.57886C15.6664 9.44168 15.7015 9.30445 15.7344 9.16657C15.7549 9.07962 15.7758 8.99276 15.7971 8.90601C15.8071 8.86564 15.817 8.82522 15.8268 8.78481L15.8524 8.67089C15.9033 8.46708 15.9497 8.35157 16.1312 8.23897C16.1563 8.22468 16.1705 8.21659 16.184 8.20765C16.2015 8.19608 16.2179 8.18299 16.2556 8.15307L16.3075 8.11006L16.3679 8.06013C16.4109 8.02428 16.4541 7.98852 16.4973 7.95279L16.5664 7.89561C16.6578 7.81986 16.7492 7.74418 16.8407 7.66862C16.8458 6.33077 16.8573 5.37759 16.8823 4.68631L16.8466 4.68317C16.2185 4.62759 15.5905 4.572 14.9622 4.51815Z" fill="#FE2E00"/>
<path fill-rule="evenodd" clip-rule="evenodd" d="M14.8425 12.6866C14.8519 12.6493 14.8612 12.612 14.8704 12.5746C14.9054 12.4326 14.9407 12.2906 14.976 12.1486L14.9988 12.0568C15.0863 11.7056 15.1754 11.3548 15.2651 11.0042L15.3151 10.8088C15.3822 10.5462 15.4494 10.2835 15.5167 10.0209C15.5595 9.85386 15.6023 9.68679 15.645 9.51971L15.6935 9.3298L15.6937 9.32895C15.7164 9.24042 15.7392 9.1519 15.7618 9.06333L15.7827 8.98146C15.8333 8.7852 15.877 8.58855 15.915 8.38943C15.6048 8.15288 15.2958 7.91493 14.9882 7.67501C14.9508 7.64586 14.9134 7.61667 14.8759 7.58748C14.8547 8.84737 14.8429 10.2995 14.8427 11.8688L14.8425 12.6866ZM3.21577 16.4385L3.25894 16.3951C3.3374 16.3162 3.41575 16.2372 3.49407 16.1582C3.59736 16.0541 3.70076 15.95 3.80422 15.846L3.87477 15.7746C3.97836 15.6704 4.08257 15.569 4.19386 15.4732C4.33309 15.3531 4.46177 15.2235 4.59098 15.0929L4.66805 15.0154C4.74868 14.9343 4.8292 14.8532 4.90971 14.772C5.01586 14.665 5.12207 14.558 5.22841 14.4512L5.30099 14.3778C5.40597 14.2723 5.51145 14.1693 5.62429 14.0722C5.76675 13.9494 5.8982 13.8166 6.03036 13.683L6.03516 13.6781L6.11633 13.5965C6.20126 13.5111 6.28615 13.4257 6.371 13.3401C6.48284 13.2274 6.59478 13.1148 6.70681 13.0022L6.78342 12.9247C6.91135 12.7962 7.04126 12.6725 7.17868 12.5542C7.36259 12.395 7.53833 12.2266 7.71353 12.0578C7.76308 12.0106 7.81313 11.9638 7.86365 11.9176C8.2456 11.5675 8.42188 11.267 8.52903 10.7598C8.55605 10.6362 8.59166 10.5156 8.62762 10.3944C8.63974 10.3518 8.65185 10.3092 8.66385 10.2665C8.7616 9.92168 8.86019 9.57728 8.96629 9.23485C9.0448 8.98142 9.11355 8.72644 9.17885 8.46929C9.19089 8.42229 9.20335 8.37546 9.21609 8.3287C9.62552 7.93997 10.0454 7.56526 10.475 7.2055L12.2214 5.74293L12.6525 6.29559C12.8896 6.59973 13.0862 6.94626 13.0891 7.06602C13.0922 7.18552 12.0876 8.23142 10.8569 9.38984C7.95152 12.1251 6.39694 14.2006 4.7253 17.5767C4.59845 17.8329 4.47694 18.0844 4.36058 18.3322C3.68699 18.3298 3.01342 18.3274 2.33984 18.325C2.61082 17.6853 2.90317 17.0559 3.21577 16.4385Z" fill="#FE2E00"/>
<path fill-rule="evenodd" clip-rule="evenodd" d="M6.02617 29.1537C6.09561 29.077 6.1649 29.0001 6.23396 28.923C6.36616 28.7755 6.49862 28.6282 6.63252 28.4822C6.79506 28.3052 6.9564 28.1271 7.11685 27.948C7.24901 27.8006 7.38147 27.6533 7.51537 27.5073C7.67791 27.3302 7.83929 27.1522 7.9997 26.9731C8.14599 26.8099 8.29289 26.6472 8.44111 26.4857C8.54319 26.3745 8.6448 26.2629 8.74556 26.1506C8.83312 26.0529 8.9213 25.9558 9.01006 25.8592L9.02834 25.8394C9.11129 25.7491 9.19421 25.6589 9.27534 25.5671C9.3667 25.4619 9.45809 25.3568 9.55072 25.2527L9.59226 25.2061L9.66995 25.1185C9.70161 25.0785 9.7157 25.0608 9.73382 25.0541C9.74826 25.0488 9.76529 25.0506 9.79587 25.0538C10.1388 25.7422 10.4819 26.4305 10.8253 27.1188C10.9922 27.4533 11.1591 27.7878 11.3258 28.1225C11.4722 28.4164 11.6187 28.7103 11.7653 29.0042L11.7848 29.0432C11.8054 29.0845 11.8261 29.1258 11.8467 29.1671V28.9287H12.8447H13.8427V31.1367C13.884 31.1516 13.9253 31.1664 13.9666 31.1813C14.34 31.3152 14.7117 31.4527 15.0821 31.5945L15.1615 31.6249L15.2416 31.6556C15.6442 31.8099 16.0474 31.9628 16.4511 32.1142L16.5429 32.1485L17.0048 32.3216C17.2814 32.4252 17.558 32.5289 17.8346 32.6326V30.6915C17.5806 30.4521 17.3265 30.2128 17.0719 29.974C16.8396 29.7563 16.6078 29.538 16.3761 29.3196L16.3726 29.3164C16.0985 29.0581 15.8244 28.7998 15.5497 28.5422C15.3827 28.3856 15.2159 28.2288 15.0493 28.0718L15.0331 28.0565C14.9278 27.957 14.8225 27.8574 14.7159 27.7593L14.642 27.6914L14.4994 27.5596L14.4314 27.498L14.3691 27.4401C14.3117 27.3877 14.2762 27.3504 14.2449 27.2793C14.2402 27.2479 14.2378 27.2318 14.2406 27.2168C14.2437 27.2009 14.2525 27.1862 14.2707 27.1559L14.3177 27.0916L14.3693 27.0187C14.4044 26.9693 14.4385 26.9193 14.4716 26.8685L14.5194 26.7929L14.5692 26.7144L14.6771 26.5442L14.7346 26.4536C14.8253 26.3106 14.916 26.1677 15.0068 26.0249L15.0588 25.943C15.1913 25.7345 15.3242 25.5262 15.4573 25.3181C15.6669 24.9906 15.8761 24.6628 16.0846 24.3346C16.1726 24.1961 16.2606 24.0576 16.3487 23.9192C16.455 23.752 16.5613 23.5849 16.6675 23.4177C16.8523 23.1268 17.0373 22.836 17.2231 22.5457C17.4859 22.135 17.7479 21.7238 18.0092 21.312L18.1191 21.139L18.1735 21.0532C18.2848 20.8781 18.3965 20.7032 18.5097 20.5293C18.635 20.3365 18.7578 20.1424 18.8787 19.9468H18.8326H16.8367V17.3535C16.3353 17.4883 15.8357 17.6294 15.3366 17.7724C15.1715 17.8198 15.0063 17.8668 14.8411 17.9134L14.8407 19.8827L12.1586 19.9968C10.3615 20.0728 9.2213 20.244 8.70259 20.5149C7.71708 21.03 6.4212 22.4995 6.17419 23.3819C6.11466 23.595 6.0612 25.8356 6.02617 29.1537ZM2.33978 18.324C3.0137 18.3259 3.68763 18.3276 4.36157 18.329C2.68783 21.8906 2.07471 24.6631 1.93752 29.0534C1.88051 30.8781 1.87763 31.9743 1.97224 32.9976L1.82002 33.0222C1.64868 33.0499 1.47729 33.0774 1.30589 33.1048C1.0351 33.1481 0.7644 33.192 0.493676 33.2357L0.19757 33.2834C0.194043 33.2839 0.190517 33.2845 0.186991 33.2851C-0.157242 30.2068 -0.0261587 27.0812 0.579902 24.0434C0.673676 24.0199 0.767466 23.9964 0.861275 23.9731C0.918898 23.9587 0.976494 23.9442 1.03409 23.9297L1.13764 23.9039L1.22775 23.8814C1.26157 23.8742 1.28001 23.8703 1.29865 23.8682C1.321 23.8656 1.34365 23.8656 1.39345 23.8656L1.39202 23.8009C1.38044 23.275 1.369 22.749 1.35772 22.2231C1.35226 21.9687 1.34676 21.7143 1.34114 21.46C1.33832 21.3323 1.33553 21.2046 1.33277 21.0769C1.59587 20.2277 1.89792 19.3893 2.23891 18.5649C2.2722 18.4844 2.30582 18.4041 2.33978 18.324ZM20.8286 16.2214V16.8737C20.8614 16.8225 20.8944 16.7714 20.9275 16.7203L20.9764 16.6457L21.0676 16.5062C21.1493 16.383 21.2244 16.2681 21.2731 16.1273C21.1681 16.1273 21.0943 16.1406 20.9953 16.1706C20.9398 16.1878 20.8842 16.2048 20.8286 16.2214ZM19.8305 32.5755V33.3855C19.8998 33.4118 19.969 33.4382 20.0381 33.4646C20.1114 33.4925 20.1846 33.5205 20.2579 33.5483C20.299 33.564 20.3401 33.5796 20.3812 33.5952L20.5481 33.6585L20.551 33.6596C20.6291 33.6895 20.7072 33.7195 20.7854 33.7491L20.8577 33.7764C20.9016 33.7934 20.9455 33.8102 20.9896 33.8267C21.0496 33.8456 21.0739 33.8532 21.0966 33.8499C21.112 33.8477 21.1267 33.8403 21.1513 33.828L21.1486 33.8253C21.05 33.7241 20.9515 33.6232 20.8459 33.5292L20.8414 33.5253C20.7602 33.4555 20.6796 33.3862 20.6033 33.311L20.5809 33.2882C20.5091 33.2151 20.4375 33.1423 20.3609 33.0741C20.2749 33.0003 20.1901 32.9268 20.1094 32.8473C20.0976 32.8353 20.0858 32.8233 20.074 32.8113C19.9984 32.7343 19.923 32.6575 19.8423 32.5857C19.8384 32.5823 19.8345 32.5789 19.8305 32.5755Z" fill="#E20053"/>
<path fill-rule="evenodd" clip-rule="evenodd" d="M6.02617 29.1535C6.09561 29.0767 6.1649 28.9998 6.23396 28.9227C6.36615 28.7752 6.49862 28.6279 6.63252 28.482C6.79506 28.3049 6.9564 28.1268 7.11685 27.9478C7.24901 27.8003 7.38147 27.653 7.51537 27.5071C7.67791 27.33 7.83929 27.1519 7.9997 26.9729C8.14599 26.8096 8.29289 26.6469 8.44111 26.4854C8.54319 26.3742 8.6448 26.2627 8.74556 26.1503C8.83312 26.0526 8.9213 25.9555 9.01006 25.859C9.1171 25.7425 9.22394 25.626 9.32779 25.5067C9.4092 25.4124 9.49289 25.3205 9.57704 25.2287C9.65582 25.1435 9.71911 25.069 9.76541 24.9621C9.70281 24.956 9.64022 24.9498 9.57766 24.9434L9.49904 24.9355C9.36666 24.9225 9.23477 24.9089 9.10343 24.8876C8.86634 24.8464 8.62889 24.815 8.38997 24.7869C8.32545 24.7794 8.26095 24.7718 8.19646 24.7641L8.06857 24.7488C7.87289 24.7258 7.67764 24.7 7.48235 24.6738C7.40334 24.6632 7.32434 24.6526 7.24533 24.6421C7.03804 24.6145 6.83071 24.5868 6.62342 24.5591L6.58974 24.5546C6.48627 24.5407 6.3828 24.5269 6.27929 24.5131C6.22231 24.5055 6.16533 24.498 6.10835 24.4904C6.07595 25.4962 6.04761 27.1231 6.02617 29.1535ZM0.583177 24.027C1.09584 23.894 1.28216 23.8483 1.46747 23.852C1.5679 23.8541 1.66803 23.8707 1.81966 23.8958C1.86062 23.901 1.90161 23.906 1.94262 23.9108C2.11121 23.9309 2.27906 23.9564 2.44678 23.9828C2.15106 25.496 1.99802 27.1174 1.93752 29.0534C1.88051 30.8779 1.87764 31.9741 1.97222 32.9972L1.82003 33.0219C1.64868 33.0497 1.47729 33.0771 1.30589 33.1045C1.03511 33.1479 0.7644 33.1917 0.493676 33.2354L0.197572 33.2831C0.194037 33.2837 0.190495 33.2842 0.18696 33.2848C-0.157854 30.2011 -0.0256664 27.0699 0.583177 24.027Z" fill="#FC0077"/>
<path fill-rule="evenodd" clip-rule="evenodd" d="M1.96935 32.9645C1.93292 32.9703 1.8965 32.9763 1.86008 32.9822C1.78612 32.9942 1.71215 33.0062 1.63817 33.0182C1.44326 33.0496 1.24836 33.0811 1.05347 33.1127C0.853528 33.1451 0.653562 33.1775 0.453595 33.2098L0.335412 33.2289C0.284807 33.2371 0.234199 33.2452 0.183594 33.2534C0.345908 34.719 0.61594 36.174 0.993727 37.6037C1.04156 37.4683 1.08944 37.3328 1.13739 37.1973L1.16946 37.1067C1.2649 36.8372 1.36038 36.5677 1.45592 36.2981C1.68858 35.6419 1.92085 34.9856 2.15187 34.3287C2.06972 33.8522 2.01012 33.4161 1.96935 32.9645Z" fill="#DE007B"/>
<path fill-rule="evenodd" clip-rule="evenodd" d="M22.9783 57.1951C22.9783 57.1951 22.9782 57.1951 22.9783 57.1951ZM19.3736 55.8743C19.3896 55.8155 19.4051 55.7566 19.4204 55.6974C19.4827 55.4543 19.5467 55.212 19.6176 54.9712C19.7059 54.6728 19.7894 54.3739 19.867 54.0724C19.9705 53.6706 20.0788 53.2699 20.196 52.8716C20.2841 52.5728 20.3675 52.2732 20.4452 51.9712C20.4906 51.7947 20.5366 51.619 20.5841 51.4432L20.6075 51.3573C20.6439 51.2218 20.6807 51.0871 20.7223 50.9535C20.7863 50.7499 20.8439 50.5463 20.8961 50.3396C20.9946 49.9475 21.0983 49.5573 21.2057 49.1675L21.2279 49.0874C21.2735 48.9221 21.3192 48.7572 21.365 48.5919C21.4274 48.367 21.4274 48.367 21.5581 47.8935L21.6306 47.6311C21.7665 47.1391 21.9015 46.6471 22.0355 46.1547L22.0649 46.0467C22.1102 45.8803 22.1554 45.7138 22.2006 45.5477L22.2476 45.3743L22.0448 45.2326L21.9607 45.1738C21.7802 45.0476 21.6004 44.921 21.4221 44.7917C21.2475 44.6652 21.0727 44.5386 20.8963 44.4143C20.7196 44.2901 20.5433 44.165 20.3683 44.0384C20.1897 43.9088 20.0107 43.7799 19.8306 43.6525V51.8822H18.8327H17.8346V42.2346C17.788 42.2021 17.7414 42.1695 17.6949 42.1366L17.6202 42.084L17.5478 42.0341L17.4813 41.9868C17.4505 41.9667 17.4357 41.957 17.4222 41.9458C17.4098 41.9354 17.3984 41.9237 17.3767 41.9013C17.3486 41.8285 17.3424 41.7914 17.3662 41.7166L17.4002 41.6485L17.4386 41.5699L17.4816 41.4848C17.528 41.3911 17.5744 41.2974 17.6213 41.2037C17.655 41.1364 17.6885 41.0694 17.7219 41.0021C17.7595 40.9262 17.797 40.8503 17.8346 40.7744V40.4055V32.5984C17.7634 32.5719 17.6923 32.5454 17.621 32.5189L17.5398 32.4888L17.4584 32.4585L17.295 32.3978L17.213 32.3674C16.8033 32.2152 16.3944 32.0611 15.9862 31.9049C15.5329 31.7314 15.0789 31.5603 14.6233 31.3932C14.3723 31.3013 14.1215 31.2089 13.8714 31.1146L13.8427 31.1038V40.4055V51.8822H12.8448H11.8467V40.4055V29.0885C11.7248 28.8444 11.6029 28.6004 11.4808 28.3563C11.3319 28.0587 11.1832 27.7611 11.0346 27.4634C10.9062 27.2061 10.7778 26.9489 10.6493 26.6918C10.5727 26.5386 10.4961 26.3855 10.4196 26.2323C10.3781 26.149 10.3365 26.0657 10.2949 25.9824C10.2632 25.9191 10.2317 25.8559 10.2 25.7927L10.119 25.6308C10.0815 25.5555 10.0439 25.4803 10.0062 25.405L9.97207 25.337C9.91161 25.2152 9.85235 25.0985 9.76575 24.9927C9.58235 25.2076 9.39747 25.4206 9.20636 25.6287C9.12542 25.7167 9.04459 25.8048 8.96446 25.8936C8.85576 26.0148 8.7468 26.1358 8.63671 26.2558C8.47413 26.433 8.31271 26.6111 8.15226 26.7902C8.02006 26.9377 7.8876 27.0849 7.75374 27.2309C7.5912 27.408 7.42982 27.5861 7.2694 27.7651C7.13721 27.9126 7.00475 28.0598 6.87085 28.2058C6.70831 28.3829 6.54696 28.561 6.38651 28.74C6.26698 28.8734 6.14721 29.0066 6.02636 29.1388C5.99969 31.6608 5.98362 34.8072 5.98362 38.16C5.98362 50.9539 6.0228 52.3281 6.40753 53.0303C6.84189 53.8235 8.44966 55.3753 8.83687 55.3753C8.95564 55.3753 9.03596 55.9281 9.01525 56.6036C8.96833 58.1303 9.6118 59.0984 10.9962 59.5858C11.842 59.8835 12.0932 59.8777 12.8877 59.544C14.0374 59.0613 14.7047 58.0645 14.7047 56.8297V55.8743H18.8327H19.3736ZM0.978516 37.5463L1.03988 37.3714L1.07625 37.2677C1.26982 36.7162 1.46632 36.1659 1.66406 35.6159C1.82556 35.1665 1.98442 34.7163 2.14092 34.2652C2.20043 34.6165 2.27226 34.9887 2.35795 35.4049C2.79358 37.5191 3.60993 40.0374 4.50886 42.0395C4.57374 42.1839 4.25311 42.48 3.79655 42.6975L2.96648 43.0935L2.18356 41.1689C1.70232 39.9859 1.30064 38.7755 0.978516 37.5463ZM19.8306 33.3506V36.6848C19.8498 36.6464 19.869 36.6081 19.8883 36.5698C20.0069 36.3336 20.1236 36.0967 20.2364 35.8576C20.3358 35.647 20.4381 35.438 20.5427 35.2299L20.5876 35.1407L20.605 35.106C20.6755 34.9659 20.7459 34.8259 20.8168 34.686C20.8463 34.6277 20.8758 34.5694 20.9052 34.5111L20.9471 34.4278C21.0422 34.2416 21.1217 34.0587 21.1821 33.8583L20.9679 33.778C20.5886 33.636 20.2094 33.494 19.8306 33.3506ZM11.5486 57.8268C10.8815 57.7324 10.6345 56.8072 11.1202 56.2219C11.2904 56.0168 11.72 55.8828 12.0749 55.9239C12.5586 55.9804 12.7387 56.1604 12.7951 56.6443C12.8849 57.4188 12.3372 57.9387 11.5486 57.8268Z" fill="#C6005E"/>
<path fill-rule="evenodd" clip-rule="evenodd" d="M11.8466 44.8134V40.4055V32.5442C11.7639 32.7538 11.6812 32.9635 11.5986 33.1731L11.4634 33.516L11.4359 33.586C11.3188 33.8829 11.2015 34.1798 11.0839 34.4765C10.8245 35.1309 10.5651 35.7853 10.3091 36.4411C10.1348 36.8876 9.96013 37.334 9.78396 37.7798L9.75194 37.8608C9.64213 38.1386 9.53219 38.4163 9.42222 38.694C9.06911 39.5853 8.71724 40.4776 8.36842 41.3706L8.30397 41.5359C8.2552 41.6605 8.20646 41.7852 8.158 41.9102L8.1194 42.0097C8.03931 42.2152 7.96847 42.4204 7.9082 42.6325C8.11739 42.763 8.33223 42.8806 8.5502 42.9952C8.91822 43.1888 9.28375 43.385 9.64468 43.5914C9.80122 43.6808 9.95823 43.769 10.1163 43.8557C10.3286 43.9719 10.5402 44.0892 10.7505 44.2088C11.0789 44.3954 11.4095 44.5777 11.742 44.7569C11.7769 44.7759 11.8118 44.7945 11.8466 44.8134ZM13.8426 31.1046V40.4055V44.8874C13.8814 44.8525 13.9207 44.8185 13.9608 44.7852C14.0967 44.676 14.2297 44.5657 14.3572 44.4468C14.494 44.3187 14.631 44.1937 14.777 44.076C14.889 43.9858 14.9966 43.8933 15.1024 43.7957C15.2128 43.6943 15.3245 43.5948 15.4384 43.4973L15.4944 43.4493L15.604 43.3556C15.7502 43.231 15.8956 43.1056 16.0362 42.9747C16.1923 42.8288 16.3481 42.6852 16.5142 42.5505C16.6219 42.4641 16.7261 42.3755 16.8282 42.2822C16.9372 42.1823 17.0494 42.0886 17.1649 41.9965C17.2164 41.9563 17.2668 41.9148 17.3152 41.8707C17.3306 41.8216 17.3373 41.8003 17.3457 41.7797C17.3521 41.7635 17.3597 41.748 17.373 41.7201L17.4066 41.652L17.445 41.5734L17.4871 41.4879L17.5772 41.304C17.6432 41.1697 17.7092 41.0354 17.7751 40.901L17.8345 40.7799V40.4055V32.5986C17.7632 32.572 17.6919 32.5454 17.6205 32.5189L17.5393 32.4888L17.4579 32.4585L17.2944 32.3978L17.2125 32.3674C16.8028 32.2152 16.3939 32.0612 15.9857 31.905C15.5365 31.7331 15.0868 31.563 14.6352 31.3974L14.4949 31.3461L14.4235 31.3199C14.2606 31.2602 14.098 31.2001 13.9355 31.1394C13.9045 31.1278 13.8736 31.1162 13.8426 31.1046ZM19.8305 33.3508V36.6841C19.8495 36.6459 19.8686 36.6079 19.8877 36.5698C20.0064 36.3336 20.1232 36.0967 20.2359 35.8576C20.3352 35.647 20.4376 35.4381 20.5422 35.23L20.5871 35.1407L20.6042 35.1067C20.6747 34.9664 20.7453 34.8261 20.8163 34.686C20.8458 34.6278 20.8753 34.5695 20.9047 34.5112L20.9466 34.4279C21.0417 34.2417 21.1212 34.0588 21.1816 33.8583L20.9669 33.7779C20.5879 33.636 20.209 33.4941 19.8305 33.3508Z" fill="#6234AD"/>
<path d="M46.259 24.7742L42.0009 22.8387L41.0332 24.5806L46.259 24.7742Z" fill="#00AE6E"/>
</g>
<defs>
<clipPath id="clip0_2236_4294">
<rect width="59.6129" height="60" fill="white"/>
</clipPath>
</defs>
</svg>
