<svg width="60" height="60" viewBox="0 0 60 60" fill="none" xmlns="http://www.w3.org/2000/svg">
<path fill-rule="evenodd" clip-rule="evenodd" d="M18.5899 2.12591C17.5803 2.42779 16.4757 3.58045 16.1818 4.63841C16.0394 5.15146 15.94 8.59419 15.9393 13.0363L15.9378 20.5646L13.4183 20.6718C11.7301 20.7432 10.659 20.904 10.1718 21.1585C9.24597 21.6424 8.02863 23.0228 7.79659 23.8518C7.69816 24.204 7.61753 30.4511 7.61753 37.7342C7.61753 49.7528 7.65433 51.0437 8.01574 51.7034C8.42379 52.4485 9.93409 53.9062 10.2978 53.9062C10.4094 53.9062 10.4849 54.4255 10.4654 55.0602C10.4214 56.4941 11.0258 57.4037 12.3263 57.8615C13.1209 58.1411 13.3569 58.1357 14.1032 57.8224C15.1832 57.3688 15.81 56.4323 15.81 55.2724V54.3749H19.6878H23.5655V55.3024C23.5655 56.4962 24.2638 57.4435 25.4513 57.8615C26.2459 58.1411 26.4819 58.1357 27.2282 57.8224C28.4094 57.3264 28.9541 56.422 28.9102 55.029C28.8908 54.4115 28.9662 53.9062 29.0778 53.9062C29.5126 53.9062 31.0313 52.3424 31.4031 51.512L31.7948 50.6371L38.6466 53.9497C45.3462 57.1888 45.5078 57.2524 45.9172 56.8147C46.2529 56.4559 56.6024 35.2066 57.7921 32.4334C58.0384 31.8594 58.045 31.6231 57.8225 31.33C57.3287 30.6796 40.5285 22.6946 39.5779 22.6585C37.8701 22.5941 37.6522 22.8744 34.7152 28.9157L31.9925 34.5154L31.8742 29.2693C31.7486 23.7095 31.7061 23.4901 30.4991 22.1861C29.4411 21.043 28.6751 20.7871 25.9687 20.6723L23.4605 20.5656L23.3905 12.568C23.3249 5.05467 23.2923 4.52311 22.8519 3.79232C22.0013 2.38091 20.1533 1.65833 18.5899 2.12591ZM28.1253 2.03053C25.663 2.27216 25.3128 2.36896 25.3128 2.80748C25.3128 3.88537 25.3702 3.90061 29.0122 3.79303C32.5635 3.68825 32.8023 3.61748 32.8094 2.66919C32.8124 2.24685 32.6331 2.15287 31.5824 2.02677C30.3509 1.87888 29.6619 1.87959 28.1253 2.03053ZM45.0003 3.26896L42.3051 4.63865L40.8763 3.84271C38.9299 2.75825 37.1656 2.72264 35.5691 3.73514C34.3743 4.49311 33.6706 5.38067 33.8659 5.88482C33.9352 6.06412 37.6852 8.46435 42.1991 11.2187C49.3436 15.5783 50.5267 16.2252 51.3379 16.2139C51.872 16.2067 52.544 16.0044 52.9124 15.7403C53.8576 15.0628 57.1879 11.582 57.1879 11.2715C57.1879 10.9372 55.378 8.95748 54.7794 8.63709C54.4234 8.44654 54.0794 8.56748 53.0692 9.23825C52.3736 9.70021 51.6962 10.078 51.5643 10.078C51.2054 10.078 47.3441 7.46287 47.3441 7.22006C47.3441 7.10474 47.8714 6.31372 48.5159 5.46248C49.1605 4.61099 49.6879 3.81412 49.6879 3.69154C49.6879 3.40795 48.1604 1.87091 47.8949 1.88709C47.7851 1.89365 46.4828 2.51545 45.0003 3.26896ZM18.3224 4.29224C17.8202 4.82709 17.8128 4.94638 17.8128 12.7297V20.6249H19.6878H21.5628V12.697V4.76919L21.0205 4.25943C20.2771 3.56122 18.9948 3.57669 18.3224 4.29224ZM11.8363 8.65561C8.52456 11.4292 5.82761 15.1489 4.0998 19.3267C1.31379 26.0622 1.2948 33.7937 4.04777 40.5608L4.78324 42.3688L5.563 41.9969C5.9919 41.7925 6.29308 41.5142 6.23214 41.3788C5.38769 39.4978 4.62082 37.1322 4.21159 35.1461C3.78409 33.07 3.72363 32.1576 3.81667 29.1796C3.95448 24.7696 4.60347 22.0973 6.43511 18.3983C8.00542 15.2268 9.46581 13.277 12.1951 10.7076C13.3513 9.61935 14.2949 8.63685 14.292 8.52459C14.2893 8.41209 14.1046 8.08654 13.8819 7.80083L13.4769 7.28169L11.8363 8.65561ZM30.1642 12.9791C29.5451 13.1516 28.5959 13.6304 28.0548 14.0429C27.5134 14.4554 26.6762 14.9713 26.1941 15.1892C25.4338 15.5333 25.3173 15.6908 25.3151 16.3782C25.3128 17.1589 25.3252 17.1685 26.1659 17.0322C26.6351 16.956 27.4384 16.5995 27.9507 16.2397C30.0578 14.7606 30.5619 14.5388 31.8285 14.5349C33.1829 14.5309 33.9346 14.8412 35.5443 16.07C36.8555 17.0711 37.9443 17.1365 39.1913 16.2889C39.6654 15.9667 40.1788 15.703 40.3318 15.703C40.4849 15.703 41.3853 16.4394 42.3329 17.3396C44.5227 19.4197 45.6179 20.2145 47.8473 21.3409C49.7654 22.31 52.7631 23.2007 54.1264 23.2066C54.5855 23.2086 55.1019 23.2993 55.274 23.4083C55.4462 23.5176 55.7596 24.6242 55.9726 25.8766L56.3589 28.1465L57.0662 28.0771L57.7738 28.0078L57.7168 26.5295C57.647 24.7182 56.9225 21.7988 55.9606 19.453C55.5644 18.4862 55.2071 17.6546 55.1668 17.605C55.0503 17.4618 53.6722 18.0845 53.6722 18.2804C53.6722 18.3778 53.9359 19.0534 54.2582 19.7821C55.0598 21.5947 55.0438 21.6454 53.7308 21.4494C50.2527 20.9305 46.9539 19.2688 44.1969 16.6469C43.1563 15.6574 42.0442 14.6711 41.7254 14.455C40.8826 13.884 39.6322 13.9619 38.6218 14.6483C38.1477 14.9706 37.6399 15.2342 37.4936 15.2342C37.3473 15.2342 36.7799 14.8675 36.2326 14.4188C34.4063 12.9224 32.2237 12.4044 30.1642 12.9791ZM32.8264 36.8047C29.6024 43.507 28.3512 46.3361 28.4471 46.7071C28.5543 47.1215 30.2307 48.0175 36.7323 51.1356C41.2151 53.2858 44.9547 54.9732 45.0418 54.8856C45.2697 54.6571 54.4055 35.5769 54.3251 35.4979C54.2884 35.4616 51.7269 34.2212 48.6332 32.7414C45.5395 31.2616 41.7957 29.4592 40.3141 28.7364C38.8323 28.0133 37.5571 27.4218 37.48 27.4218C37.4031 27.4218 35.309 31.644 32.8264 36.8047ZM13.1253 39.8436V50.6249H14.0629H15.0003V39.8436V29.0624H14.0629H13.1253V39.8436ZM18.7503 39.8436V50.6249H19.6878H20.6253V39.8436V29.0624H19.6878H18.7503V39.8436ZM24.3753 39.8436V50.6249H25.3128H26.2503V39.8436V29.0624H25.3128H24.3753V39.8436ZM40.3888 32.9153C37.4659 33.8293 35.7875 36.1122 35.8114 39.1405C35.8262 40.9834 36.2732 42.118 37.5155 43.4657C40.3187 46.5067 45.2056 46.1128 47.551 42.6564C49.9895 39.0634 48.1977 34.1792 43.982 32.9273C42.5737 32.5091 41.6978 32.5061 40.3888 32.9153ZM40.1616 34.8274C39.7562 35.0273 39.1886 35.4419 38.9005 35.7486L38.3764 36.3065L39.2132 36.7054L40.0497 37.1042L41.3033 35.7786L42.5567 34.453L41.7278 34.4584C41.2719 34.4612 40.5671 34.6274 40.1616 34.8274ZM43.1137 36.3892C42.7851 36.678 42.3251 37.1462 42.0915 37.43C41.6722 37.9396 41.6767 37.9501 42.4549 38.2762C42.8879 38.4578 43.3156 38.5658 43.4048 38.5164C43.5981 38.4092 43.9131 36.4637 43.7943 36.111C43.7486 35.9755 43.4425 36.1007 43.1137 36.3892ZM45.4018 37.202C45.3336 37.9459 45.209 38.7692 45.1249 39.0318C45.0017 39.4157 45.1367 39.5875 45.8144 39.9107C46.2777 40.1317 46.7061 40.3124 46.7661 40.3124C46.8261 40.3124 46.8753 39.7818 46.8753 39.133C46.8753 37.8655 46.465 36.6278 45.8855 36.1474C45.5715 35.887 45.5105 36.0198 45.4018 37.202ZM37.5055 39.082C37.5104 40.1539 38.1463 41.9795 38.6157 42.2696C38.7467 42.3505 38.9009 41.8424 38.9809 41.0682C39.0568 40.3302 39.1869 39.4973 39.2699 39.217C39.3902 38.811 39.2752 38.6322 38.7064 38.338C37.6325 37.7826 37.4999 37.8646 37.5055 39.082ZM40.9107 39.8242C40.6552 40.2379 40.483 42.1874 40.7021 42.1874C40.8224 42.1874 41.324 41.7746 41.8163 41.2703L42.7119 40.3531L41.9929 39.9812C41.155 39.5479 41.0877 39.5381 40.9107 39.8242ZM43.7641 41.6924C43.5442 42.0646 42.9903 42.6974 42.5336 43.0986L41.7027 43.828H42.4215C43.6271 43.828 45.9379 42.5976 45.9379 41.9556C45.9379 41.8349 44.4428 41.0155 44.2227 41.0155C44.1903 41.0155 43.9841 41.3202 43.7641 41.6924ZM33.5715 46.4492C33.4166 46.8596 33.3142 47.2145 33.3442 47.2378C33.5636 47.4072 41.357 51.0936 41.4962 51.0936C41.6651 51.0936 42.2545 49.6678 42.1304 49.5592C41.9771 49.4254 34.1291 45.703 34 45.703C33.9194 45.703 33.7264 46.0388 33.5715 46.4492ZM12.4429 54.7016C11.9865 55.2515 12.2186 56.1205 12.8452 56.2093C13.5861 56.3143 14.1005 55.8259 14.0162 55.0981C13.9633 54.6437 13.7941 54.4745 13.3396 54.4216C13.0063 54.3829 12.6027 54.5089 12.4429 54.7016ZM25.5678 54.7016C25.1115 55.2515 25.3436 56.1205 25.9702 56.2093C26.7111 56.3143 27.2255 55.8259 27.1412 55.0981C27.0883 54.6437 26.9191 54.4745 26.4646 54.4216C26.1313 54.3829 25.7277 54.5089 25.5678 54.7016ZM36.0941 55.5667C35.1273 55.8072 33.5717 56.0736 32.637 56.1592L30.9378 56.3146V57.0634C30.9378 57.4755 30.9882 57.8629 31.0499 57.9245C31.2036 58.0782 34.5651 57.7208 35.8598 57.413C38.8138 56.7109 38.6553 56.8066 38.3757 55.8955C38.2377 55.4458 38.0633 55.0895 37.9883 55.1038C37.9133 55.1179 37.0609 55.3262 36.0941 55.5667Z" fill="#3968BF"/>
</svg>
