<svg width="60" height="60" viewBox="0 0 60 60" fill="none" xmlns="http://www.w3.org/2000/svg">
<g clip-path="url(#clip0_2288_1467)">
<path fill-rule="evenodd" clip-rule="evenodd" d="M25.6638 0.814236C19.9657 1.72291 15.3389 3.83439 10.9284 7.53939C5.78298 11.8617 2.48531 17.4622 1.01555 24.375C0.71086 25.8078 0.591797 27.3875 0.591797 30C0.591797 33.8887 0.924845 36.0785 2.01047 39.3272C4.76812 47.5802 11.003 54.1744 19.0969 57.3983C20.5928 57.994 22.1936 58.4611 22.9868 58.5331C24.2029 58.6433 24.3928 58.5971 24.9312 58.0586C25.6118 57.3781 25.8949 56.501 25.6931 55.6974C25.617 55.3936 24.9152 54.3816 24.1338 53.4485C22.511 51.5112 21.5314 49.883 20.4661 47.354L19.7213 45.586L22.4191 45.4687C24.739 45.368 25.1636 45.2879 25.4491 44.8967C25.8701 44.3196 25.8701 43.8054 25.4491 43.2284C25.1578 42.8292 24.7362 42.7591 22.0067 42.6563L18.8963 42.539L18.5936 41.3672C18.2002 39.8429 17.6508 36.0487 17.4482 33.4571L17.2879 31.4063H21.0659C24.5311 31.4063 24.8822 31.3676 25.3122 30.9376C25.909 30.3408 25.909 29.6592 25.3122 29.0626C24.8822 28.6325 24.5311 28.5937 21.0659 28.5937H17.2879L17.4467 26.543C17.6122 24.4055 18.3666 19.3807 18.7048 18.164L18.9005 17.461L23.7469 17.3977L28.5935 17.3341V21.089C28.5935 24.5314 28.6324 24.8827 29.0622 25.3126C29.659 25.9092 30.3406 25.9092 30.9372 25.3126C31.3672 24.8827 31.406 24.5314 31.406 21.089V17.3341L36.254 17.3977L41.1023 17.461L41.4061 18.6329C41.5732 19.2774 41.8805 20.9648 42.089 22.3829C42.3126 23.9036 42.6178 25.1292 42.8327 25.3711C43.3235 25.9234 44.1893 25.8886 44.7846 25.2934C45.2016 24.8764 45.251 24.6286 45.1228 23.594C44.9622 22.2983 44.3513 18.7421 44.1396 17.8711L44.0114 17.3437H48.8137H53.6161L54.4525 19.291C54.9126 20.3618 55.5164 22.0758 55.7946 23.0995C56.3472 25.1336 56.7647 25.7832 57.5166 25.7778C58.1356 25.7731 58.4543 25.561 58.7843 24.9337C59.2859 23.9801 57.438 18.4336 55.5529 15.2344C51.6574 8.62337 45.2752 3.63799 38.1391 1.63197C34.1604 0.513533 29.4755 0.206266 25.6638 0.814236ZM27.2501 3.97619C24.738 5.11642 22.1867 8.46095 20.3152 13.0669L19.7201 14.5313H24.1568H28.5935V9.02345C28.5935 5.99416 28.5143 3.51799 28.4177 3.52079C28.3212 3.52361 27.7957 3.72845 27.2501 3.97619ZM31.406 9.00775V14.5313H35.742C39.056 14.5313 40.0772 14.4622 40.0751 14.2384C40.0702 13.7414 38.5706 10.4761 37.6554 8.96931C36.0928 6.39705 33.7036 4.17283 31.9333 3.64221L31.406 3.484V9.00775ZM19.9648 5.26455C16.9709 6.49783 14.8333 7.83541 12.3073 10.0563C11.0529 11.1593 8.43938 14.0633 8.43797 14.3555C8.43773 14.4523 10.3165 14.5313 12.6131 14.5313H16.7892L17.2123 13.1836C17.8141 11.2669 19.2991 8.38478 20.7745 6.26955C21.4714 5.27041 22.0127 4.45502 21.9778 4.45736C21.9426 4.45971 21.0368 4.82299 19.9648 5.26455ZM38.3557 4.98049C38.4548 5.14173 38.9921 5.92619 39.5494 6.72376C40.6434 8.28986 42.4357 11.9252 42.9073 13.5352L43.199 14.5313H47.5195H51.8402L50.8223 13.3135C47.7937 9.69025 44.2321 7.00713 40.2989 5.38502C38.434 4.61603 38.0867 4.54384 38.3557 4.98049ZM5.55751 19.2774C4.46367 21.8384 4.03383 23.3365 3.62414 26.0156C3.43688 27.2402 3.28312 28.3214 3.28243 28.418C3.28172 28.5145 5.79422 28.5937 8.86617 28.5937H14.4514L14.7349 25.3894C14.891 23.6269 15.225 21.1219 15.4772 19.823C15.7294 18.5238 15.9361 17.4347 15.9366 17.4024C15.9371 17.37 13.7875 17.3437 11.1605 17.3437H6.38344L5.55751 19.2774ZM30.2906 29.0614C29.8704 29.3176 29.3173 29.8706 29.0611 30.2909C28.6111 31.0289 28.5952 31.4963 28.5944 44.0864L28.5935 57.1182L29.1256 57.9145C30.2466 59.5927 29.7713 59.5439 44.3381 59.4755C57.1183 59.4152 57.4013 59.404 58.049 58.9286C59.5638 57.8173 59.5303 58.1538 59.5303 44.0626C59.5303 29.8235 59.5748 30.2351 57.9143 29.1258L57.1178 28.5937L44.0862 28.5947C31.496 28.5954 31.0286 28.6114 30.2906 29.0614ZM3.43078 32.6368C3.6518 34.7695 4.62141 38.4776 5.51414 40.6055L6.37477 42.6563H11.156C13.7857 42.6563 15.9371 42.6298 15.9366 42.5977C15.9361 42.5656 15.7294 41.4762 15.4772 40.1771C15.225 38.8782 14.891 36.3732 14.7349 34.6106L14.4514 31.4063H8.87719H3.30304L3.43078 32.6368ZM49.7575 36.3694L48.5444 37.5826L44.054 36.9434C39.9187 36.3546 39.5191 36.3334 39.0005 36.6732C38.3218 37.1178 38.2421 38.1907 38.8474 38.7307C39.0731 38.9318 40.365 39.5902 41.7185 40.1936C43.0721 40.7972 44.2571 41.3646 44.3518 41.4546C44.4467 41.5446 43.602 42.536 42.4751 43.6578L40.4257 45.6976L38.097 46.0472C36.8161 46.2394 35.6172 46.5476 35.4328 46.7321C34.9985 47.1666 35.0023 48.2281 35.4396 48.6654C35.8549 49.0807 36.2744 49.1166 38.0464 48.8879L39.4132 48.7116L39.237 50.0785C39.0167 51.7852 39.0426 52.2169 39.3902 52.636C39.7481 53.0672 41.112 53.0658 41.4703 52.6338C41.6231 52.4498 41.9029 51.2633 42.0923 49.9972L42.4367 47.6953L44.4718 45.6481C45.5909 44.5219 46.5802 43.6782 46.6702 43.7731C46.7602 43.8678 47.3275 45.0528 47.9311 46.4063C48.5346 47.7598 49.1929 49.0517 49.394 49.2774C49.934 49.8828 51.0071 49.8031 51.4517 49.1243C51.7915 48.6056 51.7702 48.2063 51.1822 44.0752L50.5434 39.5892L51.7559 38.3616C53.0081 37.0936 53.3306 36.0809 52.6873 35.4376C52.0382 34.7885 51.012 35.115 49.7575 36.3694ZM8.93461 46.4648C11.6794 50.01 16.227 53.3597 20.4541 54.9497L22.0416 55.5469L20.742 53.6923C19.4053 51.7847 17.6081 48.226 17.0923 46.4648L16.8005 45.4687H12.4822H8.16351L8.93461 46.4648Z" fill="#3968BF"/>
</g>
<defs>
<clipPath id="clip0_2288_1467">
<rect width="60" height="60" fill="white"/>
</clipPath>
</defs>
</svg>
