<svg width="40" height="41" viewBox="0 0 40 41" fill="none" xmlns="http://www.w3.org/2000/svg">
<g clip-path="url(#clip0_133_3961)">
<path d="M19.9766 -0.00538685C20.031 -0.00536078 20.031 -0.00536078 20.0866 -0.00533419C20.6401 -0.00461586 21.1884 0.00495337 21.7397 0.0575175C21.7691 0.0602421 21.7691 0.0602421 21.7991 0.0630217C24.1703 0.282666 26.4663 0.914953 31.7181 3.76708C31.74 3.78283 31.7619 3.79858 31.7845 3.8148C32.1181 4.05516 32.439 4.30732 32.7533 4.57225C32.7878 4.60109 32.8223 4.62993 32.8568 4.65875C33.0464 4.81768 33.2317 4.98095 33.4147 5.14738C33.4517 5.1803 33.4517 5.1803 33.4893 5.21388C33.6148 5.32577 33.7367 5.43932 33.8545 5.55929C33.9068 5.61066 33.9612 5.65852 34.0168 5.70633C34.1962 5.86148 34.3574 6.02971 34.5119 6.20945C34.5704 6.27496 34.6318 6.33657 34.6944 6.39828C34.8108 6.51352 34.9189 6.63311 35.0251 6.75773C35.0518 6.78867 35.0785 6.8196 35.1052 6.85052C36.7927 8.80667 38.0846 11.0456 39.8903 17.6743C39.8926 17.6935 39.8948 17.7127 39.8972 17.7325C39.9143 17.8795 39.929 18.0266 39.9424 18.174C39.945 18.2018 39.9475 18.2296 39.9501 18.2583C39.9988 18.8106 40.0104 19.36 40.0091 19.9139C40.0089 19.9814 40.0088 20.0488 40.0088 20.1162C40.0077 20.7731 39.9966 21.4263 39.9209 22.0795C39.9133 22.1452 39.906 22.2109 39.8987 22.2766C39.7379 23.7027 39.4214 25.0957 38.9647 26.4558C38.9528 26.4912 38.941 26.5266 38.9288 26.5631C38.6574 27.3653 38.3221 28.1366 37.9461 28.8947C37.9054 28.9769 37.8653 29.0594 37.8256 29.142C37.6406 29.5237 37.4284 29.8879 37.2106 30.2516C37.1847 30.295 37.1847 30.295 37.1583 30.3393C36.9476 30.6925 36.73 31.038 36.4917 31.3731C36.4679 31.4069 36.4441 31.4407 36.4203 31.4745C36.0507 31.9984 35.6611 32.5069 35.2407 32.991C35.1985 33.0399 35.1568 33.0892 35.1153 33.1386C34.77 33.5484 34.3968 33.9306 34.0186 34.3099C34.0032 34.3254 33.9878 34.3409 33.9719 34.3568C33.8164 34.5129 33.6605 34.667 33.493 34.8102C33.4188 34.8738 33.3479 34.9406 33.2763 35.0072C33.1169 35.1543 32.9512 35.2918 32.7821 35.4278C32.7481 35.4557 32.7141 35.4837 32.6802 35.5118C30.5945 37.2309 28.1391 38.5201 25.2479 39.3386C25.2134 39.348 25.1789 39.3574 25.1434 39.3671C23.5545 39.7934 21.9165 40.0002 20.2731 40.0288C20.2481 40.0292 20.223 40.0297 20.1972 40.0302C20.0403 40.0328 19.8836 40.0317 19.7267 40.0288C19.697 40.0282 19.6673 40.0277 19.6367 40.0272C18.6725 40.0084 17.7177 39.9161 16.7648 39.77C16.7453 39.767 16.7257 39.764 16.7056 39.7609C14.524 39.4272 12.3423 38.6819 10.4207 37.5942C10.3557 37.5577 10.2904 37.522 10.2248 37.4866C9.67307 37.1879 9.13771 36.8559 8.62681 36.4917C8.59177 36.467 8.55672 36.4423 8.52167 36.4176C7.80499 35.9108 7.11508 35.3625 6.47335 34.7633C6.41805 34.7117 6.36233 34.6608 6.30598 34.6103C6.10201 34.4274 5.90737 34.2355 5.71344 34.0421C5.69974 34.0284 5.68605 34.0148 5.67194 34.0008C5.52572 33.8552 5.38279 33.7084 5.24846 33.5518C5.18433 33.4773 5.11724 33.4059 5.05025 33.3339C4.92668 33.2002 4.80965 33.0625 4.69551 32.9206C4.6385 32.8505 4.58011 32.782 4.52096 32.7137C4.29367 32.4504 4.08794 32.1709 3.88202 31.8907C3.86516 31.8678 3.8483 31.8449 3.83093 31.8213C3.61954 31.5332 3.41486 31.2417 3.22063 30.9418C3.20779 30.9221 3.19496 30.9023 3.18173 30.882C2.76141 30.2345 2.38746 29.5613 2.04162 28.8713C2.02661 28.8414 2.0116 28.8115 1.99614 28.7807C0.933227 26.6492 0.292341 24.2955 0.0286792 21.4522C0.0259685 21.4183 0.0232579 21.3844 0.0204651 21.3495C-0.00995484 20.9189 -0.00710685 20.4872 -0.00726621 20.0557C-0.00728315 20.0347 -0.00729965 20.0137 -0.00731711 19.992C-0.00770063 19.317 0.00725681 18.647 0.0797328 17.9752C0.0861274 17.9158 0.0922513 17.8563 0.0983233 17.7968C0.234377 16.4822 0.51228 15.1748 0.920124 13.918C0.926383 13.8987 0.932642 13.8793 0.93909 13.8593C1.45418 12.2675 2.16066 10.7639 3.04809 9.3458C3.06321 9.32161 3.07833 9.29742 3.09391 9.27249C3.40831 8.77203 3.75202 8.29023 4.11207 7.82172C4.12544 7.80431 4.13882 7.7869 4.1526 7.76896C4.3193 7.55274 4.49158 7.34209 4.669 7.1346C4.74136 7.04978 4.81139 6.9632 4.8813 6.87635C4.9682 6.76951 5.0582 6.6708 5.15718 6.5752C5.20589 6.5266 5.25017 6.4759 5.29467 6.42344C5.43331 6.26243 5.5863 6.1152 5.73732 5.96595C5.84194 5.86248 5.94556 5.75801 6.04919 5.65354C6.09663 5.60583 6.14407 5.55813 6.19151 5.51043C6.21499 5.4867 6.23848 5.46298 6.26267 5.43854C6.40374 5.29691 6.54812 5.16209 6.70014 5.03236C6.73339 5.0033 6.7666 4.97421 6.79977 4.94508C7.17738 4.61536 7.56008 4.29246 7.96542 3.99713C8.00073 3.97093 8.03604 3.94472 8.07134 3.9185C8.88395 3.31923 9.73923 2.78311 10.6299 2.30792C10.6883 2.27658 10.7463 2.24472 10.8042 2.21244C12.743 1.14524 14.9697 0.4988 18.634 0.0287612C18.6715 0.0262429 18.709 0.0237245 18.7476 0.0211299C19.1571 -0.00452657 19.5664 -0.0057499 19.9766 -0.00538685Z" fill="#293279"/>
<path d="M16.0748 17.5126C16.3651 17.5106 16.6553 17.5091 16.9455 17.5081C17.0803 17.5077 17.2151 17.5071 17.3499 17.5061C17.4803 17.5051 17.6106 17.5046 17.7409 17.5044C17.7904 17.5042 17.8399 17.5039 17.8894 17.5035C18.4481 17.4984 18.9408 17.6049 19.3565 18.0022C19.6314 18.2896 19.7644 18.6343 19.764 19.0282C19.7642 19.052 19.7644 19.0759 19.7646 19.1005C19.7651 19.1788 19.7652 19.2572 19.7653 19.3355C19.7655 19.3904 19.7657 19.4453 19.7659 19.5003C19.7662 19.6152 19.7663 19.7302 19.7663 19.8451C19.7663 19.9917 19.7671 20.1382 19.7681 20.2847C19.7687 20.3981 19.7688 20.5115 19.7688 20.625C19.7688 20.6789 19.7691 20.7329 19.7695 20.7869C19.7718 21.087 19.7633 21.3448 19.6406 21.6247C19.6323 21.6459 19.6239 21.667 19.6153 21.6888C19.4738 22.0367 19.1612 22.2484 18.8354 22.4012C18.5703 22.5097 18.3189 22.5497 18.0336 22.5482C18.0015 22.5482 18.0015 22.5482 17.9689 22.5482C17.8992 22.5482 17.8295 22.548 17.7598 22.5477C17.7111 22.5477 17.6624 22.5477 17.6138 22.5476C17.4863 22.5475 17.3589 22.5472 17.2314 22.5469C17.1011 22.5466 16.9708 22.5465 16.8405 22.5463C16.5852 22.546 16.33 22.5455 16.0748 22.5449C16.0329 22.4611 16.0424 22.3879 16.0424 22.2942C16.0424 22.2741 16.0423 22.254 16.0423 22.2333C16.0422 22.1657 16.0423 22.0981 16.0423 22.0304C16.0423 21.9821 16.0423 21.9337 16.0422 21.8853C16.0421 21.7537 16.0421 21.6221 16.0422 21.4905C16.0423 21.3531 16.0422 21.2156 16.0422 21.0781C16.0421 20.8472 16.0422 20.6163 16.0423 20.3853C16.0425 20.1181 16.0424 19.8508 16.0423 19.5835C16.0421 19.3544 16.0421 19.1252 16.0422 18.8961C16.0422 18.7591 16.0422 18.6221 16.0421 18.4851C16.0421 18.3563 16.0421 18.2275 16.0423 18.0988C16.0423 18.0514 16.0423 18.004 16.0423 17.9567C16.0422 17.8922 16.0423 17.8278 16.0424 17.7633C16.0424 17.7272 16.0424 17.691 16.0424 17.6538C16.0461 17.5701 16.0461 17.5701 16.0748 17.5126Z" fill="#FDFDFD"/>
<path d="M25.0734 17.5075C25.0973 17.5073 25.1212 17.5071 25.1458 17.5069C25.2253 17.5063 25.3049 17.506 25.3844 17.5057C25.4252 17.5055 25.4252 17.5055 25.4668 17.5054C25.6109 17.5048 25.755 17.5044 25.8991 17.5041C26.0475 17.5038 26.1958 17.5028 26.3442 17.5016C26.4586 17.5009 26.573 17.5006 26.6875 17.5005C26.7421 17.5004 26.7967 17.5001 26.8514 17.4995C27.1422 17.4969 27.3969 17.4953 27.6636 17.6276C27.6939 17.6411 27.7243 17.6546 27.7556 17.6685C28.1029 17.8539 28.3156 18.1176 28.4508 18.4867C28.5801 18.9405 28.5161 19.4223 28.2951 19.8332C28.1239 20.1213 27.8689 20.2454 27.5773 20.3882C27.6157 20.4869 27.6578 20.5826 27.7038 20.678C27.7174 20.7063 27.731 20.7346 27.745 20.7637C27.7597 20.794 27.7743 20.8243 27.7894 20.8555C27.8206 20.9203 27.8518 20.9852 27.8831 21.0501C27.8991 21.0833 27.9151 21.1165 27.9316 21.1508C28.0363 21.368 28.1408 21.5853 28.2449 21.8029C28.2957 21.909 28.347 22.0149 28.3988 22.1205C28.4203 22.165 28.4418 22.2094 28.4634 22.2538C28.4732 22.2736 28.4831 22.2934 28.4933 22.3139C28.5583 22.4489 28.5583 22.4489 28.5263 22.5449C28.1846 22.5449 27.843 22.5449 27.491 22.5449C27.2975 22.1302 27.1049 21.7152 26.9177 21.2976C26.8953 21.2478 26.8953 21.2478 26.8725 21.197C26.7696 20.9667 26.6697 20.7353 26.5708 20.5032C26.3336 20.5032 26.0964 20.5032 25.8519 20.5032C25.8508 20.5945 25.8508 20.5945 25.8497 20.6876C25.8473 20.8881 25.8448 21.0886 25.8422 21.2891C25.8406 21.4107 25.839 21.5324 25.8376 21.654C25.8363 21.7713 25.8348 21.8885 25.8332 22.0058C25.8326 22.0507 25.832 22.0955 25.8315 22.1403C25.8308 22.2029 25.83 22.2655 25.8291 22.3281C25.8286 22.3638 25.8282 22.3995 25.8277 22.4363C25.8232 22.5162 25.8232 22.5162 25.7944 22.5449C25.7243 22.5478 25.6551 22.5489 25.585 22.5487C25.5641 22.5488 25.5431 22.5488 25.5215 22.5488C25.4772 22.5488 25.4328 22.5488 25.3884 22.5487C25.3202 22.5485 25.2521 22.5487 25.1839 22.5489C25.1409 22.5488 25.0979 22.5488 25.0548 22.5487C25.0241 22.5488 25.0241 22.5488 24.9927 22.5489C24.8488 22.5482 24.8488 22.5482 24.8167 22.5162C24.8138 22.4522 24.8131 22.3881 24.813 22.324C24.813 22.3037 24.813 22.2834 24.8129 22.2625C24.8128 22.1939 24.8129 22.1253 24.813 22.0567C24.8129 22.0077 24.8129 21.9587 24.8128 21.9098C24.8127 21.7764 24.8127 21.643 24.8128 21.5096C24.8129 21.3704 24.8128 21.2311 24.8128 21.0918C24.8127 20.8579 24.8128 20.624 24.813 20.3901C24.8131 20.1193 24.8131 19.8484 24.8129 19.5776C24.8128 19.3455 24.8128 19.1134 24.8128 18.8813C24.8129 18.7424 24.8129 18.6036 24.8128 18.4648C24.8127 18.3343 24.8128 18.2039 24.8129 18.0734C24.813 18.0254 24.8129 17.9773 24.8129 17.9293C24.8128 17.864 24.8129 17.7987 24.813 17.7335C24.8131 17.6968 24.8131 17.6602 24.8131 17.6225C24.8203 17.4615 24.9429 17.5079 25.0734 17.5075Z" fill="#FEFEFE"/>
<path d="M20.6769 17.4757C20.6971 17.4758 20.7172 17.4758 20.7379 17.4759C20.7592 17.4758 20.7804 17.4756 20.8023 17.4755C20.8729 17.4751 20.9435 17.4751 21.014 17.4752C21.0633 17.4751 21.1125 17.4749 21.1618 17.4748C21.2653 17.4746 21.3689 17.4746 21.4724 17.4747C21.6041 17.4749 21.7358 17.4744 21.8675 17.4738C21.9694 17.4733 22.0714 17.4733 22.1733 17.4734C22.2218 17.4734 22.2702 17.4732 22.3187 17.4729C22.8747 17.47 23.3802 17.5579 23.8011 17.9511C24.1352 18.303 24.1952 18.7195 24.1883 19.185C24.1832 19.3158 24.1675 19.4303 24.1264 19.5543C24.1187 19.5778 24.111 19.6013 24.1031 19.6256C24.0407 19.7974 23.9584 19.934 23.8389 20.0719C23.8238 20.0893 23.8087 20.1068 23.7932 20.1248C23.5658 20.3693 23.294 20.4768 22.9762 20.5607C22.9494 20.5684 22.9494 20.5684 22.9221 20.5763C22.8543 20.591 22.7934 20.5929 22.724 20.5928C22.697 20.5928 22.6699 20.5928 22.6421 20.5928C22.6131 20.5926 22.5841 20.5925 22.5543 20.5923C22.5244 20.5923 22.4946 20.5922 22.4639 20.5922C22.3687 20.592 22.2734 20.5917 22.1782 20.5913C22.1136 20.5912 22.049 20.591 21.9844 20.5909C21.8262 20.5906 21.6679 20.5901 21.5096 20.5895C21.5098 20.6131 21.5099 20.6368 21.51 20.6612C21.5112 20.8837 21.512 21.1063 21.5126 21.3289C21.5129 21.4433 21.5133 21.5578 21.514 21.6722C21.5146 21.7826 21.5149 21.893 21.5151 22.0033C21.5152 22.0455 21.5154 22.0877 21.5157 22.1298C21.5161 22.1888 21.5162 22.2477 21.5162 22.3067C21.5163 22.3403 21.5164 22.3738 21.5165 22.4084C21.5096 22.4874 21.5096 22.4874 21.4521 22.5449C21.3803 22.5503 21.3117 22.5523 21.2399 22.5516C21.219 22.5515 21.1981 22.5515 21.1765 22.5515C21.1323 22.5514 21.0881 22.5512 21.0439 22.5508C20.976 22.5503 20.9081 22.5503 20.8402 22.5503C20.7973 22.5501 20.7544 22.55 20.7115 22.5498C20.6911 22.5497 20.6707 22.5497 20.6496 22.5497C20.5065 22.5483 20.5065 22.5483 20.4744 22.5162C20.4715 22.4522 20.4706 22.3882 20.4706 22.3242C20.4705 22.2938 20.4705 22.2938 20.4704 22.2627C20.4702 22.1942 20.4702 22.1257 20.4702 22.0571C20.4701 22.0082 20.47 21.9593 20.4699 21.9104C20.4697 21.7771 20.4696 21.6438 20.4696 21.5106C20.4696 21.3995 20.4695 21.2885 20.4694 21.1774C20.4691 20.9155 20.469 20.6536 20.4691 20.3917C20.4691 20.1211 20.4688 19.8504 20.4683 19.5798C20.468 19.3479 20.4678 19.1159 20.4678 18.884C20.4678 18.7453 20.4677 18.6066 20.4674 18.4679C20.4672 18.3374 20.4672 18.207 20.4674 18.0766C20.4674 18.0287 20.4673 17.9807 20.4672 17.9327C20.4669 17.8675 20.4671 17.8022 20.4673 17.7369C20.4673 17.7003 20.4673 17.6637 20.4672 17.626C20.4797 17.4791 20.5442 17.4772 20.6769 17.4757Z" fill="#FCFDFD"/>
<path d="M13.3933 17.4425C13.4259 17.4427 13.4586 17.443 13.4922 17.4432C14.0074 17.4535 14.4533 17.5997 14.8321 17.9638C15.1069 18.2502 15.2755 18.5686 15.2732 18.9702C15.2733 18.99 15.2735 19.0098 15.2736 19.0302C15.2733 19.1768 15.2733 19.1768 15.2409 19.2092C15.1708 19.2121 15.1016 19.2132 15.0315 19.213C15.0105 19.2131 14.9896 19.2131 14.968 19.2131C14.9236 19.2131 14.8792 19.2131 14.8349 19.213C14.7667 19.2128 14.6985 19.213 14.6304 19.2131C14.5873 19.2131 14.5443 19.2131 14.5013 19.213C14.4808 19.2131 14.4603 19.2132 14.4391 19.2132C14.2952 19.2125 14.2952 19.2125 14.2632 19.1805C14.2553 19.1272 14.2483 19.0739 14.2416 19.0205C14.2029 18.7824 14.1059 18.6186 13.9162 18.4689C13.6969 18.3266 13.4378 18.3124 13.1853 18.36C12.9666 18.4233 12.7973 18.5399 12.6834 18.7383C12.6059 18.8879 12.5914 19.0108 12.5893 19.1794C12.589 19.1994 12.5887 19.2193 12.5884 19.2399C12.5876 19.3057 12.587 19.3716 12.5864 19.4375C12.5862 19.4601 12.5861 19.4827 12.5859 19.506C12.5849 19.6259 12.5842 19.7458 12.5837 19.8658C12.5831 19.9644 12.5821 20.0631 12.5807 20.1618C12.579 20.2814 12.5781 20.4011 12.5778 20.5207C12.5776 20.566 12.577 20.6113 12.5762 20.6566C12.5706 20.9693 12.606 21.2318 12.8162 21.4807C12.98 21.6448 13.2184 21.7162 13.4454 21.7236C13.6834 21.7131 13.8751 21.6485 14.0679 21.5094C14.2291 21.3303 14.2504 21.1539 14.2416 20.9202C14.2392 20.8301 14.2369 20.7399 14.2344 20.647C13.8074 20.6328 13.8074 20.6328 13.3717 20.6183C13.3338 20.5424 13.3392 20.4848 13.3391 20.3999C13.3391 20.3519 13.3391 20.3519 13.339 20.303C13.3391 20.2694 13.3393 20.2359 13.3394 20.2013C13.3392 20.151 13.3392 20.151 13.339 20.0996C13.3391 20.0677 13.3391 20.0357 13.3391 20.0027C13.3392 19.9733 13.3392 19.9438 13.3392 19.9135C13.343 19.8419 13.343 19.8419 13.3717 19.7843C13.6144 19.7823 13.8571 19.7808 14.0999 19.7799C14.2126 19.7794 14.3253 19.7788 14.438 19.7778C14.5467 19.7769 14.6554 19.7764 14.7641 19.7762C14.8056 19.776 14.8471 19.7757 14.8886 19.7752C14.9467 19.7746 15.0047 19.7746 15.0628 19.7745C15.0958 19.7744 15.1289 19.7742 15.163 19.774C15.1887 19.7774 15.2144 19.7808 15.2409 19.7843C15.312 19.891 15.3067 19.9732 15.306 20.0966C15.3061 20.1191 15.3061 20.1416 15.3062 20.1647C15.3062 20.2125 15.3061 20.2602 15.3059 20.308C15.3056 20.3796 15.3059 20.4511 15.3063 20.5227C15.3068 21.1087 15.2398 21.6757 14.8149 22.1208C14.3587 22.5463 13.7969 22.6278 13.1934 22.6076C12.6878 22.5752 12.2776 22.3627 11.9339 21.9986C11.6844 21.7048 11.5564 21.3729 11.555 20.9896C11.5548 20.9665 11.5546 20.9435 11.5544 20.9198C11.5538 20.8438 11.5535 20.7678 11.5532 20.6918C11.5531 20.6658 11.553 20.6397 11.5529 20.6128C11.5523 20.4746 11.5519 20.3364 11.5516 20.1982C11.5513 20.0563 11.5503 19.9143 11.5491 19.7724C11.5484 19.6625 11.5481 19.5527 11.548 19.4429C11.5479 19.3906 11.5476 19.3383 11.547 19.2861C11.5421 18.7714 11.6509 18.3323 12.0147 17.9457C12.3965 17.5864 12.8767 17.4376 13.3933 17.4425Z" fill="#FDFDFE"/>
<path d="M32.4946 24.9317C32.5136 24.9317 32.5326 24.9317 32.5522 24.9317C32.8084 25.7288 32.8084 25.7288 33.0698 26.5421C33.9381 26.5563 33.9381 26.5563 34.8239 26.5708C34.6623 26.7324 34.6623 26.7324 34.5784 26.79C34.5596 26.803 34.5408 26.8161 34.5214 26.8295C34.5014 26.8432 34.4814 26.8569 34.4609 26.871C34.2486 27.0184 34.0397 27.17 33.8321 27.324C33.7035 27.4193 33.5742 27.5134 33.4436 27.606C33.4835 27.8016 33.5383 27.9874 33.6021 28.1764C33.6217 28.2355 33.6413 28.2945 33.6609 28.3536C33.6917 28.4458 33.7225 28.538 33.7535 28.6302C33.7835 28.7197 33.8133 28.8093 33.8429 28.8989C33.8523 28.9266 33.8617 28.9543 33.8714 28.9828C33.8799 29.0085 33.8883 29.0341 33.897 29.0605C33.9046 29.083 33.9121 29.1056 33.9199 29.1288C33.9325 29.1876 33.9325 29.1876 33.9037 29.2739C33.872 29.251 33.8404 29.2281 33.8087 29.2053C33.788 29.1903 33.7673 29.1754 33.7459 29.16C33.6996 29.1265 33.6533 29.093 33.6069 29.0596C33.4872 28.9731 33.3674 28.8866 33.2476 28.8001C33.2255 28.7841 33.2033 28.7681 33.1805 28.7517C33.1369 28.7202 33.0931 28.6887 33.0494 28.6574C32.9551 28.5897 32.8617 28.5217 32.7708 28.4496C32.7431 28.4281 32.7154 28.4065 32.687 28.3843C32.6639 28.3656 32.6409 28.347 32.6172 28.3278C32.5541 28.2892 32.5541 28.2892 32.4875 28.3081C32.3711 28.3752 32.2656 28.4543 32.1586 28.5352C32.1097 28.5716 32.0609 28.608 32.0121 28.6444C31.9872 28.663 31.9624 28.6815 31.9368 28.7006C31.8197 28.7878 31.7017 28.8737 31.5834 28.9594C31.5628 28.9744 31.5422 28.9895 31.521 29.005C31.3889 29.1006 31.2537 29.1893 31.1143 29.2739C31.2033 28.8864 31.3249 28.5126 31.452 28.1362C31.4776 28.06 31.503 27.9837 31.5283 27.9074C31.5362 27.8841 31.5442 27.8609 31.5524 27.8369C31.5976 27.7083 31.5976 27.7083 31.5744 27.5773C31.5048 27.5236 31.4351 27.4737 31.3624 27.4245C31.3177 27.3937 31.2731 27.3628 31.2285 27.3318C31.2051 27.3156 31.1817 27.2994 31.1576 27.2827C31.0374 27.1984 30.9195 27.1111 30.8016 27.0237C30.6264 26.8939 30.4506 26.765 30.2729 26.6385C30.2481 26.6193 30.2481 26.6193 30.2229 26.5996C30.2229 26.5901 30.2229 26.5806 30.2229 26.5708C30.8018 26.5708 31.3806 26.5708 31.977 26.5708C32.0197 26.4142 32.0197 26.4142 32.0633 26.2545C32.0792 26.2019 32.0956 26.1494 32.1127 26.0972C32.1213 26.0707 32.13 26.0442 32.1388 26.017C32.1478 25.9897 32.1568 25.9624 32.1661 25.9342C32.1803 25.8909 32.1803 25.8909 32.1947 25.8466C32.2245 25.7555 32.2544 25.6644 32.2844 25.5733C32.3048 25.511 32.3251 25.4488 32.3455 25.3865C32.3952 25.2349 32.4449 25.0833 32.4946 24.9317Z" fill="#EEEA15"/>
<path d="M27.2034 30.2229C27.2224 30.2229 27.2413 30.2229 27.2609 30.2229C27.2665 30.2405 27.2722 30.2581 27.278 30.2763C27.3367 30.4601 27.3955 30.6439 27.4543 30.8277C27.4762 30.8962 27.4982 30.9648 27.5201 31.0334C27.5516 31.132 27.5832 31.2307 27.6147 31.3293C27.6245 31.3599 27.6343 31.3904 27.6443 31.4219C27.6581 31.4651 27.6581 31.4651 27.6722 31.5091C27.6803 31.5343 27.6883 31.5594 27.6966 31.5854C27.7234 31.6681 27.751 31.7507 27.7785 31.8332C28.6468 31.8475 28.6468 31.8475 29.5326 31.862C29.3711 32.0236 29.3711 32.0236 29.2871 32.0811C29.2683 32.0942 29.2495 32.1072 29.2301 32.1207C29.2102 32.1343 29.1902 32.148 29.1696 32.1621C28.9573 32.3096 28.7485 32.4612 28.5408 32.6151C28.4122 32.7104 28.2829 32.8046 28.1523 32.8972C28.1928 33.0947 28.2479 33.2835 28.3108 33.4749C28.3304 33.5354 28.35 33.5959 28.3696 33.6564C28.4004 33.7509 28.4313 33.8455 28.4622 33.94C28.4922 34.0317 28.522 34.1236 28.5517 34.2154C28.5611 34.2438 28.5705 34.2723 28.5802 34.3016C28.5928 34.3409 28.5928 34.3409 28.6058 34.3811C28.6133 34.4042 28.6209 34.4273 28.6287 34.4511C28.6412 34.5076 28.6412 34.5076 28.6124 34.5651C28.5808 34.5422 28.5491 34.5193 28.5174 34.4964C28.4967 34.4815 28.476 34.4665 28.4547 34.4511C28.4083 34.4177 28.362 34.3842 28.3157 34.3507C28.1959 34.2642 28.0761 34.1777 27.9563 34.0913C27.9342 34.0753 27.9121 34.0593 27.8893 34.0428C27.8456 34.0113 27.8019 33.9799 27.7581 33.9485C27.6639 33.8809 27.5704 33.8128 27.4795 33.7408C27.4518 33.7192 27.4242 33.6976 27.3957 33.6754C27.3727 33.6568 27.3497 33.6381 27.3259 33.6189C27.2629 33.5804 27.2629 33.5804 27.1962 33.5993C27.0799 33.6664 26.9743 33.7455 26.8673 33.8264C26.8185 33.8628 26.7697 33.8992 26.7208 33.9356C26.696 33.9541 26.6711 33.9727 26.6456 33.9918C26.5284 34.079 26.4104 34.1649 26.2922 34.2505C26.2716 34.2656 26.2509 34.2806 26.2297 34.2961C26.0976 34.3918 25.9623 34.4801 25.8231 34.5651C25.8624 34.3754 25.9134 34.1934 25.9733 34.0093C25.9864 33.9682 25.9864 33.9682 25.9999 33.9263C26.0277 33.8396 26.0557 33.753 26.0837 33.6664C26.1118 33.5794 26.1398 33.4924 26.1678 33.4053C26.1851 33.3514 26.2025 33.2975 26.22 33.2435C26.2279 33.2191 26.2358 33.1946 26.2439 33.1694C26.2508 33.148 26.2577 33.1266 26.2648 33.1046C26.2846 33.036 26.2988 32.9674 26.3119 32.8972C26.2991 32.888 26.2863 32.8788 26.2731 32.8693C25.994 32.6685 25.7159 32.4664 25.4395 32.262C25.2878 32.1499 25.1353 32.0391 24.9816 31.9297C24.9569 31.9104 24.9569 31.9104 24.9316 31.8907C24.9316 31.8812 24.9316 31.8718 24.9316 31.862C25.5105 31.862 26.0894 31.862 26.6858 31.862C26.7285 31.7054 26.7285 31.7054 26.772 31.5457C26.788 31.4931 26.8043 31.4406 26.8214 31.3883C26.8301 31.3619 26.8387 31.3354 26.8476 31.3081C26.8566 31.2808 26.8656 31.2535 26.8748 31.2254C26.889 31.182 26.889 31.182 26.9035 31.1378C26.9333 31.0467 26.9632 30.9556 26.9931 30.8645C27.0135 30.8022 27.0339 30.7399 27.0543 30.6776C27.1039 30.526 27.1536 30.3744 27.2034 30.2229Z" fill="#EEEA15"/>
<path d="M7.44777 24.9317C7.46675 24.9317 7.48573 24.9317 7.50528 24.9317C7.51586 24.9643 7.52643 24.9969 7.53732 25.0304C7.57723 25.1535 7.61716 25.2765 7.6571 25.3994C7.67426 25.4523 7.69141 25.5051 7.70855 25.558C7.73345 25.6347 7.75837 25.7115 7.7833 25.7882C7.79143 25.8133 7.79955 25.8383 7.80793 25.8641C7.8459 25.9809 7.88418 26.0975 7.92344 26.2138C7.9302 26.2339 7.93696 26.2539 7.94393 26.2746C7.96198 26.3279 7.98015 26.3812 7.99833 26.4345C8.0229 26.5133 8.0229 26.5133 8.0229 26.5708C8.60176 26.5708 9.18063 26.5708 9.77703 26.5708C9.61532 26.7325 9.61532 26.7325 9.52418 26.7973C9.50393 26.8118 9.48369 26.8263 9.46283 26.8412C9.44137 26.8563 9.41991 26.8715 9.39781 26.8871C9.35168 26.9201 9.30555 26.953 9.25942 26.986C9.22394 27.0112 9.22394 27.0112 9.18775 27.037C9.07045 27.1207 8.95378 27.2052 8.83706 27.2897C8.6906 27.3956 8.54389 27.5011 8.39673 27.606C8.45119 27.8132 8.51206 28.0168 8.5805 28.2197C8.59871 28.2745 8.61691 28.3293 8.63509 28.3841C8.66342 28.4692 8.69184 28.5543 8.72049 28.6393C8.74839 28.7222 8.7759 28.8052 8.80336 28.8883C8.81205 28.9137 8.82073 28.9392 8.82968 28.9654C8.83746 28.9892 8.84524 29.0129 8.85326 29.0373C8.86022 29.0581 8.86718 29.0788 8.87434 29.1002C8.88719 29.1672 8.87794 29.2097 8.85683 29.2739C8.84299 29.2637 8.82915 29.2534 8.81489 29.2429C8.51368 29.0202 8.21207 28.7981 7.90742 28.5802C7.83789 28.5303 7.76924 28.4798 7.70164 28.4274C7.67658 28.4084 7.65152 28.3894 7.6257 28.3699C7.60535 28.3539 7.585 28.3379 7.56403 28.3215C7.50527 28.2894 7.50527 28.2894 7.43879 28.3108C7.33673 28.3675 7.24694 28.435 7.15482 28.5065C7.11392 28.5377 7.073 28.5688 7.03204 28.5999C7.00009 28.6242 7.00009 28.6242 6.96749 28.649C6.85671 28.7324 6.74434 28.8136 6.63181 28.8947C6.61005 28.9104 6.58829 28.926 6.56587 28.9422C6.41023 29.0541 6.25393 29.1649 6.09623 29.2739C6.05662 29.1947 6.0787 29.164 6.10599 29.0806C6.11511 29.0524 6.12423 29.0242 6.13362 28.9951C6.14375 28.9645 6.15387 28.9339 6.1643 28.9023C6.17448 28.8709 6.18467 28.8395 6.19516 28.8071C6.22788 28.7062 6.26088 28.6054 6.29393 28.5047C6.32673 28.4043 6.35948 28.3039 6.39207 28.2035C6.4124 28.1409 6.43284 28.0784 6.45343 28.0159C6.49772 27.8798 6.53927 27.7488 6.55633 27.606C6.28407 27.4046 6.01145 27.2038 5.73677 27.0057C5.70476 26.9826 5.70476 26.9826 5.6721 26.9591C5.57807 26.8913 5.48396 26.8236 5.38968 26.7562C5.36069 26.7353 5.3317 26.7145 5.30183 26.693C5.27715 26.6754 5.25246 26.6577 5.22702 26.6396C5.21019 26.6264 5.19336 26.6132 5.17603 26.5996C5.17603 26.5901 5.17603 26.5806 5.17603 26.5708C5.76438 26.5708 6.35273 26.5708 6.95892 26.5708C6.9684 26.5044 6.97789 26.438 6.98767 26.3695C7.00955 26.2973 7.03262 26.2267 7.05777 26.1556C7.1485 25.8918 7.23189 25.6258 7.31477 25.3595C7.32135 25.3383 7.32792 25.3172 7.3347 25.2955C7.37246 25.1742 7.41014 25.053 7.44777 24.9317Z" fill="#EEEA15"/>
<path d="M12.7678 30.2229C12.8215 30.3034 12.847 30.3643 12.8767 30.4553C12.8914 30.4999 12.8914 30.4999 12.9064 30.5454C12.9219 30.5935 12.9219 30.5935 12.9379 30.6426C12.954 30.692 12.954 30.692 12.9705 30.7424C12.9932 30.8121 13.0159 30.8817 13.0385 30.9514C13.0732 31.0583 13.1082 31.1652 13.1432 31.2721C13.1652 31.3396 13.1872 31.4072 13.2092 31.4748C13.2198 31.5069 13.2303 31.5391 13.2411 31.5722C13.2555 31.6167 13.2555 31.6167 13.2702 31.662C13.283 31.7013 13.283 31.7013 13.296 31.7414C13.3142 31.8045 13.3142 31.8045 13.3142 31.862C13.893 31.862 14.4719 31.862 15.0683 31.862C14.9066 32.0237 14.9066 32.0237 14.8154 32.0884C14.7952 32.1029 14.7749 32.1174 14.7541 32.1324C14.7326 32.1475 14.7112 32.1627 14.6891 32.1783C14.6429 32.2112 14.5968 32.2442 14.5507 32.2771C14.5152 32.3024 14.5152 32.3024 14.479 32.3281C14.3617 32.4118 14.245 32.4964 14.1283 32.5809C13.9819 32.6868 13.8351 32.7923 13.688 32.8972C13.7074 33.0043 13.7354 33.1054 13.7691 33.2089C13.7797 33.2416 13.7902 33.2742 13.8011 33.3079C13.8181 33.3599 13.8181 33.3599 13.8354 33.413C13.8469 33.4486 13.8583 33.4842 13.8702 33.5209C13.9257 33.6931 13.9817 33.8651 14.0385 34.0369C14.0526 34.0803 14.0526 34.0803 14.0671 34.1245C14.0848 34.1788 14.1028 34.233 14.1209 34.2871C14.1288 34.3113 14.1366 34.3354 14.1447 34.3603C14.1517 34.3812 14.1586 34.4021 14.1657 34.4237C14.1768 34.4788 14.1768 34.4788 14.1481 34.5651C14.1342 34.5548 14.1204 34.5446 14.1061 34.534C13.8049 34.3114 13.5033 34.0893 13.1987 33.8713C13.1291 33.8215 13.0605 33.771 12.9929 33.7186C12.9678 33.6996 12.9428 33.6806 12.917 33.661C12.8966 33.6451 12.8763 33.6291 12.8553 33.6126C12.7965 33.5806 12.7965 33.5806 12.73 33.602C12.628 33.6586 12.5382 33.7262 12.4461 33.7976C12.4052 33.8288 12.3643 33.86 12.3233 33.8911C12.2914 33.9154 12.2914 33.9154 12.2588 33.9402C12.148 34.0236 12.0356 34.1048 11.9231 34.1858C11.9013 34.2015 11.8795 34.2172 11.8571 34.2334C11.7015 34.3452 11.5452 34.4561 11.3875 34.5651C11.3448 34.4797 11.3813 34.4217 11.4095 34.3353C11.4175 34.3116 11.4254 34.2879 11.4337 34.2635C11.4417 34.2389 11.4498 34.2143 11.4581 34.189C11.4841 34.11 11.5104 34.0311 11.5367 33.9522C11.5538 33.9002 11.571 33.8482 11.5882 33.7962C11.5965 33.7709 11.6049 33.7455 11.6135 33.7194C11.646 33.6209 11.6783 33.5224 11.7106 33.4239C11.7246 33.3815 11.7386 33.3391 11.7528 33.2967C11.7702 33.2447 11.7872 33.1926 11.8041 33.1404C11.8134 33.1124 11.8226 33.0844 11.8321 33.0556C11.8487 32.9782 11.8506 32.9405 11.8188 32.8684C11.7764 32.8248 11.7764 32.8248 11.721 32.7886C11.7004 32.774 11.6798 32.7594 11.6585 32.7444C11.6361 32.729 11.6137 32.7136 11.5906 32.6977C11.5432 32.6644 11.4959 32.6311 11.4486 32.5977C11.4242 32.5807 11.3998 32.5637 11.3747 32.5461C11.2588 32.4649 11.1444 32.3818 11.0298 32.2987C10.9871 32.2678 10.9444 32.2369 10.9017 32.206C10.8817 32.1916 10.8617 32.1771 10.841 32.1622C10.7877 32.1238 10.7343 32.0855 10.6808 32.0472C10.6519 32.0264 10.6229 32.0056 10.5931 31.9842C10.5684 31.9665 10.5437 31.9489 10.5183 31.9307C10.5015 31.9175 10.4846 31.9043 10.4673 31.8907C10.4673 31.8812 10.4673 31.8718 10.4673 31.862C11.0556 31.862 11.644 31.862 12.2502 31.862C12.2597 31.7956 12.2692 31.7291 12.2789 31.6607C12.2926 31.6097 12.3076 31.5591 12.324 31.5089C12.3331 31.4808 12.3422 31.4527 12.3516 31.4238C12.3614 31.3941 12.3713 31.3644 12.3814 31.3338C12.3915 31.3029 12.4016 31.272 12.412 31.2401C12.4333 31.1751 12.4547 31.1101 12.4761 31.0451C12.509 30.9452 12.5417 30.8452 12.5744 30.7452C12.5951 30.682 12.6158 30.6188 12.6366 30.5556C12.6464 30.5255 12.6562 30.4955 12.6664 30.4646C12.6755 30.437 12.6846 30.4094 12.694 30.381C12.702 30.3567 12.71 30.3323 12.7183 30.3072C12.739 30.2516 12.739 30.2516 12.7678 30.2229Z" fill="#EEEA15"/>
<path d="M19.9856 3.24945C20.0431 3.27821 20.0431 3.27821 20.0673 3.33509C20.0753 3.36005 20.0832 3.38501 20.0914 3.41072C20.1005 3.43895 20.1097 3.46717 20.1191 3.49626C20.1287 3.52702 20.1384 3.55778 20.1484 3.58947C20.1584 3.62094 20.1685 3.6524 20.1789 3.68482C20.2002 3.75158 20.2214 3.81837 20.2425 3.8852C20.2747 3.98727 20.3073 4.08922 20.34 4.19116C20.3606 4.25599 20.3812 4.32082 20.4018 4.38566C20.4115 4.41613 20.4213 4.4466 20.4313 4.47799C20.4403 4.50667 20.4493 4.53535 20.4586 4.5649C20.4666 4.58998 20.4745 4.61505 20.4827 4.64088C20.5049 4.72208 20.5181 4.80553 20.532 4.88856C21.1108 4.88856 21.6897 4.88856 22.2861 4.88856C22.1243 5.05034 22.1243 5.05034 22.027 5.12131C22.0054 5.1371 21.9839 5.1529 21.9617 5.16917C21.9389 5.1857 21.916 5.20223 21.8925 5.21926C21.8687 5.23664 21.8449 5.25402 21.8204 5.27192C21.7457 5.3264 21.6708 5.38068 21.596 5.43493C21.5477 5.47005 21.4994 5.50517 21.4511 5.54029C21.4053 5.57348 21.3596 5.60666 21.3138 5.63982C21.2927 5.65511 21.2716 5.6704 21.2499 5.68615C21.2298 5.70059 21.2098 5.71503 21.1892 5.72991C21.1719 5.7424 21.1546 5.7549 21.1368 5.76777C21.0607 5.82115 20.9833 5.87244 20.9058 5.92379C20.9564 6.08381 21.007 6.24382 21.0576 6.40382C21.0748 6.45805 21.0919 6.51229 21.1091 6.56653C21.134 6.64528 21.1589 6.72403 21.1838 6.80276C21.192 6.82842 21.2001 6.85408 21.2085 6.88052C21.2697 7.07308 21.3334 7.26468 21.3989 7.45584C21.4234 7.53414 21.4234 7.53414 21.4234 7.59165C21.3438 7.55388 21.2733 7.51184 21.2021 7.45989C21.1716 7.43773 21.1716 7.43773 21.1405 7.41513C21.1188 7.39925 21.0971 7.38336 21.0748 7.36699C21.0283 7.33322 20.9819 7.29944 20.9355 7.26567C20.9116 7.2483 20.8878 7.23092 20.8632 7.21302C20.7922 7.16133 20.721 7.10988 20.6497 7.05854C20.6269 7.04214 20.6042 7.02575 20.5807 7.00887C20.5376 6.97778 20.4944 6.94669 20.4512 6.91562C20.4312 6.90121 20.4113 6.8868 20.3907 6.87196C20.3713 6.85806 20.3519 6.84416 20.3319 6.82985C20.2909 6.79958 20.2507 6.76829 20.2111 6.73625C20.191 6.72017 20.171 6.70408 20.1503 6.68751C20.1324 6.67274 20.1146 6.65796 20.0962 6.64274C20.0447 6.6084 20.0447 6.6084 19.9855 6.61931C19.9238 6.64444 19.8765 6.67366 19.8228 6.71312C19.8027 6.72784 19.7825 6.74255 19.7617 6.75771C19.7401 6.77373 19.7185 6.78974 19.6963 6.80624C19.6737 6.82276 19.6512 6.83928 19.6279 6.85629C19.5553 6.90953 19.4829 6.96303 19.4105 7.01652C19.3613 7.05263 19.3122 7.08873 19.263 7.12481C19.0526 7.27938 18.8427 7.43468 18.6341 7.59165C18.6151 7.58216 18.5961 7.57267 18.5766 7.56289C18.5822 7.54533 18.5878 7.52776 18.5936 7.50966C18.6525 7.32634 18.7112 7.143 18.77 6.95965C18.7919 6.89129 18.8138 6.82292 18.8357 6.75457C18.8673 6.65614 18.8989 6.5577 18.9304 6.45926C18.9402 6.42885 18.9499 6.39844 18.96 6.3671C19.0071 6.21991 19.0529 6.07271 19.0942 5.92379C19.0711 5.90736 19.0481 5.89094 19.0243 5.87402C18.6514 5.6082 18.2788 5.34189 17.9116 5.06829C17.8916 5.05352 17.8717 5.03875 17.8511 5.02354C17.8048 4.98885 17.7593 4.95319 17.7139 4.91732C17.7139 4.90783 17.7139 4.89834 17.7139 4.88856C18.2927 4.88856 18.8716 4.88856 19.468 4.88856C19.487 4.80315 19.506 4.71775 19.5255 4.62975C19.5484 4.5554 19.572 4.48213 19.5974 4.40869C19.6125 4.36432 19.6275 4.31995 19.6426 4.27558C19.6511 4.25052 19.6596 4.22545 19.6684 4.19963C19.7238 4.03599 19.7782 3.872 19.8328 3.70807C19.8647 3.61203 19.8968 3.516 19.9288 3.41997C19.9397 3.38712 19.9507 3.35427 19.962 3.32043C19.9698 3.29701 19.9776 3.27358 19.9856 3.24945Z" fill="#EFEB15"/>
<path d="M5.52126 17.6851C5.57877 17.7139 5.57877 17.7139 5.60534 17.7785C5.61894 17.8213 5.61894 17.8213 5.63282 17.865C5.64332 17.8977 5.65382 17.9303 5.66464 17.964C5.67552 17.9987 5.6864 18.0333 5.69762 18.0689C5.71279 18.1164 5.71279 18.1164 5.72827 18.1648C5.76615 18.2834 5.80364 18.4021 5.84117 18.5208C5.92539 18.786 6.00961 19.0511 6.09638 19.3242C6.96468 19.3385 6.96468 19.3385 7.85052 19.353C7.73491 19.4455 7.61845 19.5356 7.50005 19.6244C7.47036 19.6466 7.47036 19.6466 7.44007 19.6694C7.26482 19.8004 7.08775 19.9288 6.90996 20.0563C6.88969 20.0709 6.86943 20.0854 6.84854 20.1004C6.81902 20.1216 6.81902 20.1216 6.78889 20.1432C6.70679 20.2032 6.62646 20.2654 6.54632 20.3279C6.49897 20.3595 6.49897 20.3595 6.44146 20.3595C6.4471 20.3769 6.45273 20.3943 6.45854 20.4123C6.51746 20.5947 6.57622 20.7771 6.63488 20.9595C6.65676 21.0275 6.67868 21.0955 6.70065 21.1634C6.73231 21.2614 6.76382 21.3594 6.7953 21.4575C6.80506 21.4876 6.81483 21.5177 6.8249 21.5487C6.87867 21.7168 6.92373 21.8832 6.95907 22.0561C6.78976 21.9447 6.62341 21.8301 6.45943 21.711C6.43759 21.6952 6.41575 21.6795 6.39325 21.6632C6.27217 21.5756 6.15201 21.4869 6.03269 21.3969C5.99593 21.3693 5.99593 21.3693 5.95843 21.3412C5.9111 21.3056 5.86392 21.2698 5.81692 21.2338C5.78461 21.2096 5.78461 21.2096 5.75165 21.1848C5.7328 21.1705 5.71396 21.1562 5.69455 21.1414C5.6248 21.1004 5.57335 21.084 5.4925 21.0784C5.43185 21.1047 5.43185 21.1047 5.37714 21.1505C5.3556 21.1668 5.33406 21.1832 5.31186 21.2C5.27762 21.227 5.27762 21.227 5.24268 21.2545C5.19384 21.2918 5.14498 21.329 5.09609 21.3663C5.07125 21.3854 5.04641 21.4045 5.02082 21.4242C4.90536 21.512 4.78738 21.5961 4.66935 21.6804C4.49998 21.8022 4.33229 21.9253 4.16971 22.0561C4.15073 22.0466 4.13175 22.0371 4.1122 22.0273C4.14875 21.9134 4.18536 21.7995 4.22201 21.6857C4.24159 21.6248 4.2611 21.5639 4.28061 21.503C4.34249 21.3103 4.4053 21.1181 4.4721 20.9271C4.48298 20.8957 4.49386 20.8643 4.50507 20.832C4.52557 20.7732 4.54641 20.7146 4.56764 20.6561C4.57674 20.6298 4.58584 20.6036 4.59522 20.5766C4.60738 20.5426 4.60738 20.5426 4.61979 20.508C4.63268 20.4279 4.61758 20.3971 4.5723 20.3307C4.52992 20.2909 4.52992 20.2909 4.47896 20.2581C4.45989 20.245 4.44082 20.2319 4.42117 20.2183C4.40046 20.2044 4.37976 20.1905 4.35843 20.1761C4.31406 20.1456 4.26972 20.115 4.22543 20.0844C4.20222 20.0683 4.17902 20.0523 4.15511 20.0358C4.03433 19.9512 3.91606 19.8633 3.79768 19.7753C3.63143 19.652 3.46469 19.5304 3.29321 19.4144C3.27879 19.4036 3.26437 19.3929 3.24951 19.3817C3.24951 19.3723 3.24951 19.3628 3.24951 19.353C3.82838 19.353 4.40724 19.353 5.00365 19.353C5.04635 19.1822 5.04635 19.1822 5.08991 19.0079C5.11588 18.924 5.14236 18.8409 5.17079 18.7579C5.18179 18.7252 5.18179 18.7252 5.19301 18.6918C5.21603 18.6234 5.23923 18.555 5.26245 18.4867C5.29307 18.3962 5.32362 18.3056 5.35411 18.2151C5.36492 18.183 5.36492 18.183 5.37595 18.1503C5.4277 17.9962 5.47661 17.8415 5.52126 17.6851Z" fill="#EFEC15"/>
<path d="M34.45 17.6851C34.5036 17.7655 34.5291 17.8263 34.5589 17.9171C34.5736 17.9616 34.5736 17.9616 34.5885 18.0069C34.6041 18.0549 34.6041 18.0549 34.62 18.1039C34.6362 18.1532 34.6362 18.1532 34.6527 18.2035C34.6754 18.273 34.6981 18.3425 34.7207 18.412C34.7554 18.5187 34.7904 18.6252 34.8254 18.7318C34.8474 18.7993 34.8694 18.8667 34.8914 18.9342C34.9019 18.9662 34.9124 18.9982 34.9233 19.0312C34.9329 19.0608 34.9425 19.0905 34.9524 19.121C34.9609 19.1471 34.9694 19.1732 34.9782 19.2002C34.9963 19.2667 34.9963 19.2667 34.9963 19.353C35.5752 19.353 36.1541 19.353 36.7505 19.353C36.6745 19.4289 36.614 19.4874 36.5292 19.5479C36.5088 19.5625 36.4885 19.577 36.4676 19.5921C36.4459 19.6075 36.4242 19.6229 36.4018 19.6388C36.3554 19.672 36.3089 19.7052 36.2625 19.7385C36.2387 19.7555 36.2148 19.7725 36.1903 19.7901C36.0736 19.8734 35.9573 19.9574 35.8411 20.0413C35.8203 20.0563 35.7996 20.0712 35.7782 20.0865C35.641 20.1855 35.5053 20.2863 35.3702 20.3882C35.4267 20.6028 35.4898 20.8141 35.5592 21.0248C35.5687 21.0537 35.5781 21.0826 35.5879 21.1124C35.6177 21.2035 35.6476 21.2946 35.6775 21.3857C35.6979 21.448 35.7183 21.5103 35.7387 21.5726C35.7883 21.7242 35.838 21.8758 35.8878 22.0273C35.7623 22.0273 35.6935 21.9524 35.5984 21.8781C35.557 21.8464 35.5155 21.8147 35.474 21.783C35.4523 21.7664 35.4306 21.7499 35.4083 21.7328C35.2765 21.6331 35.142 21.5371 35.0076 21.4409C34.9125 21.3729 34.818 21.3046 34.7259 21.2327C34.6983 21.2114 34.6707 21.1901 34.6423 21.1682C34.6077 21.1408 34.6077 21.1408 34.5725 21.1127C34.5098 21.0732 34.5098 21.0732 34.4401 21.0777C34.3308 21.1198 34.2485 21.186 34.157 21.2581C34.1161 21.2896 34.0751 21.321 34.0341 21.3524C34.0128 21.3688 33.9915 21.3852 33.9696 21.4021C33.8598 21.4855 33.7478 21.5659 33.6358 21.6463C33.5926 21.6774 33.5493 21.7085 33.5061 21.7396C33.4857 21.7543 33.4653 21.7689 33.4444 21.784C33.3191 21.8742 33.1944 21.9651 33.0697 22.0561C33.0301 21.977 33.0519 21.9465 33.079 21.8632C33.088 21.8351 33.097 21.807 33.1063 21.778C33.1164 21.7475 33.1264 21.7169 33.1367 21.6855C33.1468 21.6541 33.157 21.6228 33.1674 21.5905C33.1999 21.4898 33.2327 21.3892 33.2656 21.2886C33.298 21.1886 33.3304 21.0885 33.3628 20.9883C33.383 20.926 33.4033 20.8636 33.4236 20.8013C33.4713 20.6547 33.5175 20.5081 33.5585 20.3595C33.5432 20.3525 33.5278 20.3456 33.512 20.3384C33.4251 20.2921 33.3469 20.2357 33.2674 20.1779C33.2414 20.1592 33.2414 20.1592 33.2149 20.1401C33.1771 20.1129 33.1393 20.0856 33.1016 20.0582C33.0383 20.0125 32.9749 19.9669 32.9115 19.9214C32.713 19.7786 32.5147 19.6355 32.3184 19.4896C32.2774 19.4591 32.2774 19.4591 32.2355 19.428C32.2166 19.4127 32.1977 19.3975 32.1782 19.3817C32.1782 19.3723 32.1782 19.3628 32.1782 19.353C32.7571 19.353 33.336 19.353 33.9324 19.353C33.9418 19.2866 33.9513 19.2201 33.9611 19.1517C33.9823 19.08 34.0047 19.0101 34.0294 18.9396C34.0447 18.8948 34.06 18.8501 34.0752 18.8053C34.0886 18.7663 34.0886 18.7663 34.1022 18.7266C34.1626 18.549 34.2215 18.371 34.2807 18.193C34.316 18.0868 34.3514 17.9807 34.3868 17.8745C34.3991 17.8377 34.4114 17.8008 34.4237 17.764C34.4323 17.738 34.441 17.7119 34.45 17.6851Z" fill="#EFEC15"/>
<path d="M19.9856 32.1495C20.0519 32.2158 20.0655 32.2605 20.0945 32.349C20.1092 32.3934 20.1092 32.3934 20.1242 32.4386C20.1398 32.4867 20.1398 32.4867 20.1557 32.5357C20.1718 32.585 20.1718 32.585 20.1883 32.6352C20.2111 32.7048 20.2337 32.7743 20.2563 32.8439C20.291 32.9506 20.326 33.057 20.361 33.1635C20.3831 33.231 20.4051 33.2985 20.4271 33.3661C20.4376 33.398 20.4481 33.4299 20.4589 33.4628C20.4733 33.5074 20.4733 33.5074 20.488 33.553C20.4965 33.5791 20.505 33.6052 20.5138 33.6322C20.532 33.7024 20.532 33.7024 20.532 33.8174C21.1108 33.8174 21.6897 33.8174 22.2861 33.8174C22.1928 33.9107 22.1021 33.9854 21.995 34.06C21.959 34.0854 21.9231 34.1107 21.8872 34.1361C21.8681 34.1496 21.849 34.163 21.8293 34.1769C21.7204 34.254 21.6124 34.3323 21.5043 34.4105C21.4824 34.4263 21.4605 34.4422 21.4379 34.4585C21.2699 34.58 21.1021 34.7017 20.9346 34.8239C20.9529 35.0105 21.009 35.1798 21.0678 35.3573C21.0888 35.4219 21.1098 35.4865 21.1308 35.5511C21.164 35.6526 21.1973 35.754 21.2306 35.8554C21.2628 35.9535 21.2947 36.0517 21.3266 36.1499C21.3367 36.1804 21.3468 36.211 21.3573 36.2424C21.371 36.2846 21.371 36.2846 21.3849 36.3277C21.3931 36.3525 21.4012 36.3773 21.4096 36.4028C21.4234 36.463 21.4234 36.463 21.3947 36.5205C21.3539 36.4896 21.3539 36.4896 21.3122 36.4581C20.885 36.136 20.4502 35.8244 20.0144 35.514C19.8076 35.6384 19.6147 35.7754 19.4226 35.921C19.2695 36.037 19.115 36.1509 18.9594 36.2635C18.9377 36.2792 18.916 36.295 18.8937 36.3112C18.7904 36.3858 18.6874 36.4573 18.5766 36.5205C18.6311 36.3142 18.6909 36.1106 18.7573 35.9078C18.766 35.8812 18.7746 35.8545 18.7836 35.8271C18.8017 35.7713 18.8199 35.7156 18.8382 35.6599C18.866 35.5748 18.8938 35.4896 18.9215 35.4044C18.9392 35.3499 18.957 35.2955 18.9748 35.2411C18.983 35.2157 18.9912 35.1904 18.9997 35.1644C19.0375 35.0493 19.0759 34.9356 19.1229 34.8239C19.0937 34.8144 19.0937 34.8144 19.064 34.8047C18.9542 34.7551 18.8673 34.6871 18.7725 34.6136C18.7316 34.5824 18.6906 34.5512 18.6497 34.5201C18.6284 34.5039 18.6071 34.4877 18.5851 34.471C18.4743 34.3876 18.362 34.3064 18.2495 34.2254C18.2277 34.2097 18.2059 34.194 18.1835 34.1778C18.043 34.0767 17.9017 33.9772 17.7586 33.8799C17.7438 33.8687 17.7291 33.8576 17.7139 33.8462C17.7139 33.8367 17.7139 33.8272 17.7139 33.8174C18.2927 33.8174 18.8716 33.8174 19.468 33.8174C19.487 33.7225 19.506 33.6276 19.5255 33.5298C19.5498 33.4481 19.5749 33.368 19.6026 33.2874C19.6099 33.2657 19.6172 33.2439 19.6247 33.2215C19.6478 33.1529 19.6711 33.0844 19.6945 33.0158C19.7099 32.9702 19.7253 32.9245 19.7406 32.8789C19.7702 32.7911 19.7999 32.7033 19.8297 32.6155C19.8822 32.4604 19.934 32.305 19.9856 32.1495Z" fill="#EFEC15"/>
<path d="M7.47658 10.4673C7.53016 10.5477 7.55576 10.6085 7.5855 10.6992C7.60017 10.7437 7.60017 10.7437 7.61514 10.7891C7.63074 10.8371 7.63074 10.8371 7.64665 10.886C7.6628 10.9353 7.6628 10.9353 7.67928 10.9856C7.70202 11.0551 7.72469 11.1247 7.74729 11.1942C7.782 11.3009 7.81698 11.4074 7.85199 11.514C7.87402 11.5814 7.89604 11.6489 7.91803 11.7164C7.92855 11.7484 7.93906 11.7804 7.94989 11.8133C7.95949 11.843 7.96909 11.8726 7.97899 11.9032C7.9875 11.9293 7.99601 11.9554 8.00478 11.9823C8.02295 12.0489 8.02295 12.0489 8.02295 12.1352C8.59232 12.1352 9.1617 12.1352 9.74833 12.1352C9.58661 12.2969 9.58661 12.2969 9.49547 12.3616C9.47523 12.3761 9.45498 12.3906 9.43411 12.4055C9.41266 12.4207 9.39121 12.4359 9.3691 12.4515C9.32301 12.4844 9.27692 12.5173 9.23083 12.5502C9.20718 12.567 9.18354 12.5839 9.15917 12.6012C9.01962 12.7008 8.88103 12.8018 8.74229 12.9025C8.62864 12.9848 8.51409 13.0647 8.39678 13.1416C8.44456 13.3618 8.50971 13.5742 8.58055 13.7879C8.58947 13.8148 8.59839 13.8417 8.60759 13.8694C8.64505 13.9821 8.68267 14.0948 8.72054 14.2074C8.74839 14.2903 8.77592 14.3734 8.80341 14.4564C8.8121 14.482 8.82078 14.5075 8.82973 14.5338C8.83751 14.5574 8.8453 14.581 8.85332 14.6054C8.86027 14.6261 8.86723 14.6469 8.87439 14.6682C8.88564 14.7232 8.88564 14.7232 8.85688 14.8095C8.40395 14.4869 7.95319 14.1614 7.50534 13.8318C7.39928 13.8797 7.30792 13.9452 7.21418 14.0133C7.19687 14.0258 7.17957 14.0382 7.16174 14.0511C7.12393 14.0783 7.08614 14.1056 7.04838 14.133C6.98512 14.1787 6.92173 14.2243 6.85832 14.2699C6.63249 14.4323 6.40798 14.5958 6.18794 14.766C6.12504 14.8095 6.12504 14.8095 6.06752 14.8095C6.14681 14.4462 6.27208 14.0962 6.38911 13.7437C6.41663 13.6608 6.44399 13.5777 6.47135 13.4947C6.47988 13.4692 6.48842 13.4436 6.49721 13.4173C6.50499 13.3937 6.51277 13.3701 6.52079 13.3457C6.52768 13.325 6.53458 13.3042 6.54168 13.2829C6.56009 13.2235 6.56009 13.2235 6.55638 13.1416C6.51644 13.1008 6.51644 13.1008 6.46135 13.0646C6.44065 13.0499 6.41995 13.0352 6.39862 13.0201C6.37595 13.0045 6.35328 12.9888 6.32992 12.9727C6.28233 12.9391 6.23474 12.9055 6.18715 12.8719C6.16258 12.8547 6.13801 12.8375 6.11269 12.8198C5.99678 12.7383 5.88211 12.6551 5.76738 12.5719C5.72466 12.541 5.68194 12.5101 5.63921 12.4792C5.61921 12.4648 5.5992 12.4503 5.5786 12.4354C5.52528 12.3969 5.47185 12.3586 5.41837 12.3204C5.38942 12.2996 5.36047 12.2788 5.33064 12.2574C5.30596 12.2397 5.28127 12.2221 5.25583 12.2039C5.239 12.1907 5.22217 12.1775 5.20483 12.1639C5.20483 12.1544 5.20483 12.1449 5.20483 12.1352C5.77421 12.1257 6.34358 12.1162 6.93021 12.1064C7.07786 11.6423 7.07786 11.6423 7.22528 11.1782C7.24392 11.1197 7.26258 11.0612 7.28124 11.0028C7.29073 10.9727 7.30023 10.9427 7.31001 10.9118C7.35865 10.7597 7.4104 10.6126 7.47658 10.4673Z" fill="#EFEC15"/>
<path d="M27.2034 5.17615C27.2224 5.17615 27.2414 5.17615 27.261 5.17615C27.3255 5.37667 27.39 5.57723 27.4544 5.77781C27.4763 5.84598 27.4982 5.91415 27.5201 5.98231C27.5518 6.08051 27.5833 6.17874 27.6148 6.27697C27.6246 6.30724 27.6343 6.3375 27.6444 6.36868C27.6582 6.41183 27.6582 6.41183 27.6723 6.45586C27.6803 6.48089 27.6884 6.50592 27.6967 6.53171C27.7273 6.63489 27.7525 6.73961 27.7786 6.84401C28.3479 6.84401 28.9173 6.84401 29.5039 6.84401C29.3423 7.00566 29.3423 7.00566 29.2574 7.06418C29.2384 7.07737 29.2195 7.09057 29.2 7.10416C29.1799 7.11795 29.1598 7.13174 29.1391 7.14595C29.0956 7.17622 29.0521 7.20651 29.0087 7.23683C28.9862 7.25248 28.9637 7.26812 28.9406 7.28424C28.8244 7.36578 28.7095 7.44906 28.5945 7.53237C28.5528 7.56258 28.5111 7.5928 28.4694 7.62302C28.4501 7.63699 28.4308 7.65096 28.411 7.66535C28.325 7.72741 28.2387 7.78897 28.1524 7.85048C28.193 8.04778 28.2475 8.23676 28.3099 8.42819C28.3194 8.45769 28.3289 8.48718 28.3386 8.51757C28.3687 8.61097 28.3989 8.70431 28.4292 8.79764C28.4596 8.8917 28.49 8.98577 28.5203 9.07987C28.5391 9.13824 28.558 9.19658 28.577 9.25489C28.5854 9.28111 28.5939 9.30733 28.6026 9.33435C28.6138 9.369 28.6138 9.369 28.6253 9.40435C28.6413 9.46083 28.6413 9.46083 28.6413 9.51835C28.5352 9.47044 28.4438 9.40489 28.3501 9.33682C28.3328 9.32435 28.3155 9.31188 28.2977 9.29903C28.2598 9.27177 28.2221 9.24447 28.1843 9.21714C28.121 9.17139 28.0576 9.12581 27.9942 9.08026C27.9723 9.0645 27.9504 9.04875 27.9279 9.03251C27.8835 9.00061 27.8392 8.96875 27.7948 8.93695C27.6952 8.86534 27.5969 8.79311 27.5014 8.71609C27.4858 8.70366 27.4702 8.69122 27.4541 8.67841C27.4132 8.64552 27.3727 8.61203 27.3323 8.57849C27.2635 8.53234 27.2635 8.53234 27.1904 8.5549C27.1031 8.60647 27.0258 8.66431 26.9464 8.72755C26.749 8.88274 26.546 9.02861 26.3408 9.17327C26.296 9.20487 26.2513 9.23647 26.2066 9.26808C26.0884 9.35159 25.9702 9.435 25.8519 9.51835C25.8176 9.41555 25.831 9.38717 25.8647 9.28639C25.8745 9.25673 25.8843 9.22708 25.8944 9.19653C25.9053 9.16454 25.9161 9.13255 25.9273 9.09958C25.9382 9.06672 25.949 9.03386 25.9603 9C25.9952 8.89472 26.0305 8.78956 26.0658 8.68441C26.1009 8.57925 26.136 8.47407 26.171 8.36883C26.1927 8.30327 26.2147 8.23776 26.2367 8.1723C26.2466 8.14265 26.2565 8.11299 26.2667 8.08244C26.2754 8.05633 26.2842 8.03022 26.2932 8.00331C26.3159 7.93444 26.3159 7.93444 26.312 7.85048C26.2431 7.79568 26.1747 7.74654 26.1017 7.69771C26.0568 7.66688 26.0119 7.63599 25.967 7.60504C25.9435 7.58884 25.9199 7.57264 25.8956 7.55594C25.7751 7.4719 25.6572 7.38445 25.5392 7.29692C25.4935 7.26311 25.4479 7.2293 25.4022 7.19549C25.3809 7.17967 25.3595 7.16384 25.3375 7.14754C25.2293 7.06784 25.1199 6.98968 25.0104 6.91175C24.9857 6.89245 24.9857 6.89245 24.9604 6.87277C24.9604 6.86328 24.9604 6.85379 24.9604 6.84401C25.5298 6.84401 26.0992 6.84401 26.6858 6.84401C26.7285 6.6732 26.7285 6.6732 26.7721 6.49894C26.8054 6.39076 26.8393 6.28327 26.8749 6.17588C26.8891 6.13257 26.8891 6.13257 26.9035 6.08839C26.9333 5.99754 26.9632 5.90676 26.9932 5.81597C27.0136 5.75382 27.0339 5.69167 27.0543 5.62951C27.1039 5.47835 27.1536 5.32723 27.2034 5.17615Z" fill="#EFEC15"/>
<path d="M12.7678 5.17615C12.8214 5.25652 12.847 5.31735 12.8768 5.40811C12.8914 5.45259 12.8914 5.45259 12.9064 5.49796C12.922 5.54595 12.922 5.54595 12.9379 5.59491C12.9541 5.64421 12.9541 5.64421 12.9705 5.6945C12.9933 5.764 13.0159 5.83352 13.0386 5.90306C13.0733 6.00971 13.1082 6.11628 13.1432 6.22283C13.1653 6.2903 13.1873 6.35777 13.2093 6.42525C13.2198 6.45724 13.2303 6.48923 13.2412 6.5222C13.2508 6.55185 13.2604 6.5815 13.2702 6.61205C13.2788 6.63816 13.2873 6.66428 13.296 6.69118C13.3142 6.75774 13.3142 6.75774 13.3142 6.84401C13.8836 6.84401 14.453 6.84401 15.0396 6.84401C14.8779 7.00573 14.8779 7.00573 14.7867 7.07047C14.7665 7.08496 14.7462 7.09946 14.7254 7.1144C14.7039 7.12955 14.6825 7.14471 14.6604 7.16033C14.6143 7.19324 14.5682 7.22615 14.5221 7.25907C14.4984 7.27589 14.4748 7.29272 14.4504 7.31005C14.3109 7.40968 14.1723 7.51064 14.0335 7.61139C13.9199 7.69362 13.8054 7.77357 13.688 7.85048C13.7358 8.07063 13.801 8.28309 13.8718 8.49671C13.8807 8.52364 13.8897 8.55056 13.8988 8.5783C13.9363 8.69101 13.9739 8.80366 14.0118 8.91623C14.0397 8.99918 14.0672 9.08223 14.0947 9.1653C14.1034 9.19082 14.112 9.21634 14.121 9.24263C14.1288 9.26626 14.1366 9.2899 14.1446 9.31425C14.1515 9.33499 14.1585 9.35572 14.1657 9.37708C14.1769 9.43208 14.1769 9.43208 14.1481 9.51835C13.6952 9.19576 13.2444 8.87025 12.7966 8.54063C12.6905 8.58854 12.5992 8.65409 12.5054 8.72216C12.4881 8.73463 12.4708 8.7471 12.453 8.75995C12.4152 8.78721 12.3774 8.81451 12.3396 8.84184C12.2764 8.88759 12.213 8.93317 12.1496 8.97872C11.9237 9.14115 11.6992 9.30465 11.4792 9.47488C11.4163 9.51835 11.4163 9.51835 11.3588 9.51835C11.4088 9.31828 11.4698 9.12237 11.5342 8.9266C11.5424 8.90183 11.5505 8.87707 11.5589 8.85156C11.5931 8.74801 11.6273 8.64449 11.6617 8.54103C11.6871 8.46471 11.7122 8.38833 11.7373 8.31193C11.7451 8.2888 11.7528 8.26567 11.7608 8.24184C11.8037 8.11102 11.8326 7.98739 11.8476 7.85048C11.8282 7.83643 11.8282 7.83643 11.8083 7.8221C11.7808 7.80218 11.7808 7.80218 11.7526 7.78185C11.7216 7.75942 11.7216 7.75942 11.6899 7.73655C11.6435 7.70308 11.5972 7.66961 11.5509 7.63614C11.4087 7.53349 11.2666 7.43086 11.1244 7.32826C11.0598 7.28156 10.9951 7.23482 10.9305 7.18808C10.857 7.13495 10.7834 7.08199 10.7096 7.02924C10.6807 7.00845 10.6517 6.98765 10.6219 6.96623C10.5972 6.94858 10.5725 6.93094 10.5471 6.91276C10.5303 6.89956 10.5134 6.88636 10.4961 6.87277C10.4961 6.86328 10.4961 6.85379 10.4961 6.84401C11.0655 6.83452 11.6348 6.82503 12.2215 6.81526C12.3691 6.35117 12.3691 6.35117 12.5165 5.88702C12.5352 5.82855 12.5538 5.77008 12.5725 5.71162C12.582 5.68161 12.5915 5.65159 12.6013 5.62067C12.6499 5.4686 12.7017 5.32148 12.7678 5.17615Z" fill="#EFEC15"/>
<path d="M32.4947 10.4673C32.5137 10.4673 32.5327 10.4673 32.5522 10.4673C32.559 10.4896 32.5659 10.512 32.5729 10.535C32.6451 10.7707 32.7193 11.0055 32.7948 11.2401C32.8061 11.2752 32.8174 11.3102 32.829 11.3464C32.9 11.5669 32.9723 11.7868 33.0475 12.006C33.0698 12.0776 33.0698 12.0776 33.0698 12.1352C33.6392 12.1352 34.2086 12.1352 34.7952 12.1352C34.6336 12.2967 34.6336 12.2967 34.5497 12.3543C34.5309 12.3674 34.512 12.3804 34.4927 12.3938C34.4727 12.4075 34.4527 12.4212 34.4322 12.4353C34.2189 12.5834 34.0092 12.7358 33.8009 12.8908C33.6837 12.9778 33.5659 13.0621 33.4437 13.1416C33.4646 13.3158 33.5217 13.4775 33.5759 13.6435C33.5911 13.6908 33.5911 13.6908 33.6067 13.7391C33.6391 13.8395 33.6717 13.9399 33.7043 14.0403C33.7369 14.141 33.7696 14.2418 33.8021 14.3427C33.8224 14.4054 33.8427 14.468 33.8631 14.5307C33.8722 14.5589 33.8813 14.5871 33.8907 14.6162C33.9029 14.6535 33.9029 14.6535 33.9152 14.6916C33.9325 14.752 33.9325 14.752 33.9325 14.8095C33.8265 14.7616 33.7351 14.696 33.6414 14.628C33.6241 14.6155 33.6067 14.603 33.5889 14.5902C33.5511 14.5629 33.5133 14.5356 33.4756 14.5083C33.4123 14.4625 33.3489 14.4169 33.2855 14.3714C33.2636 14.3556 33.2417 14.3399 33.2191 14.3236C33.1748 14.2917 33.1304 14.2599 33.086 14.2281C32.9865 14.1565 32.8881 14.0842 32.7927 14.0072C32.7771 13.9948 32.7615 13.9824 32.7454 13.9696C32.7044 13.9367 32.664 13.9032 32.6235 13.8696C32.5548 13.8235 32.5548 13.8235 32.4817 13.846C32.3943 13.8976 32.317 13.9554 32.2377 14.0187C32.0911 14.1341 31.9418 14.2444 31.7893 14.3518C31.6938 14.4195 31.5996 14.4885 31.5063 14.5592C31.4853 14.5751 31.4644 14.591 31.4428 14.6074C31.4018 14.6386 31.3609 14.67 31.3201 14.7014C31.1782 14.8095 31.1782 14.8095 31.1144 14.8095C31.1544 14.6142 31.2087 14.4281 31.2719 14.2391C31.2814 14.2103 31.2909 14.1815 31.3006 14.1518C31.341 14.0296 31.3816 13.9075 31.4221 13.7853C31.4518 13.6958 31.4814 13.6062 31.5109 13.5166C31.5202 13.4889 31.5294 13.4612 31.539 13.4327C31.5474 13.4071 31.5559 13.3814 31.5646 13.355C31.5721 13.3325 31.5795 13.3099 31.5873 13.2867C31.607 13.2242 31.607 13.2242 31.6033 13.1416C31.5343 13.0868 31.466 13.0377 31.393 12.9889C31.348 12.958 31.3031 12.9271 31.2583 12.8962C31.2347 12.88 31.2111 12.8638 31.1869 12.8471C31.0664 12.763 30.9484 12.6756 30.8304 12.5881C30.7848 12.5542 30.7391 12.5204 30.6935 12.4866C30.6721 12.4708 30.6508 12.455 30.6288 12.4387C30.5205 12.359 30.4112 12.2808 30.3017 12.2029C30.277 12.1836 30.277 12.1836 30.2517 12.1639C30.2517 12.1544 30.2517 12.1449 30.2517 12.1352C30.8211 12.1352 31.3905 12.1352 31.9771 12.1352C32.0198 11.9643 32.0198 11.9643 32.0634 11.7901C32.0868 11.7137 32.1113 11.6376 32.1369 11.5619C32.1436 11.5422 32.1502 11.5226 32.157 11.5023C32.1778 11.4406 32.1987 11.379 32.2197 11.3174C32.2473 11.236 32.2748 11.1545 32.3023 11.0731C32.3089 11.0535 32.3155 11.0339 32.3223 11.0138C32.3831 10.8326 32.4397 10.6503 32.4947 10.4673Z" fill="#F0EC15"/>
<path d="M17.3303 18.3684C17.3637 18.3681 17.3637 18.3681 17.3979 18.3677C17.4454 18.3673 17.4929 18.367 17.5403 18.3668C17.6122 18.3663 17.6841 18.365 17.756 18.3638C18.0781 18.3606 18.2969 18.3877 18.5479 18.6053C18.7373 18.8637 18.7449 19.1284 18.7403 19.4342C18.7402 19.4801 18.7402 19.5261 18.7402 19.572C18.7401 19.6677 18.7394 19.7634 18.7382 19.8591C18.7367 19.9811 18.7364 20.1031 18.7365 20.2251C18.7364 20.3198 18.736 20.4144 18.7353 20.5091C18.7351 20.5541 18.7349 20.599 18.7348 20.644C18.7331 21.2215 18.7331 21.2215 18.5299 21.4468C18.5124 21.4671 18.4948 21.4875 18.4767 21.5085C18.2327 21.706 17.9857 21.6978 17.6851 21.6925C17.6127 21.6912 17.5404 21.6907 17.468 21.6904C17.4221 21.69 17.3762 21.6896 17.3303 21.6891C17.3086 21.6889 17.2869 21.6887 17.2645 21.6884C17.1135 21.6856 17.1135 21.6856 17.0813 21.6535C17.0785 21.6113 17.0777 21.5691 17.0777 21.5269C17.0776 21.4995 17.0775 21.4722 17.0774 21.444C17.0775 21.4138 17.0776 21.3835 17.0776 21.3524C17.0776 21.3207 17.0775 21.2891 17.0775 21.2565C17.0773 21.1513 17.0774 21.0461 17.0775 20.9409C17.0775 20.8681 17.0775 20.7954 17.0774 20.7226C17.0774 20.5699 17.0774 20.4173 17.0776 20.2646C17.0777 20.0878 17.0777 19.9111 17.0775 19.7343C17.0774 19.5646 17.0774 19.3948 17.0775 19.2251C17.0775 19.1527 17.0775 19.0803 17.0774 19.008C17.0773 18.907 17.0775 18.8061 17.0776 18.7051C17.0776 18.6749 17.0775 18.6446 17.0774 18.6135C17.0775 18.5862 17.0776 18.5588 17.0777 18.5306C17.0777 18.5067 17.0777 18.4829 17.0777 18.4582C17.0864 18.3274 17.229 18.3694 17.3303 18.3684Z" fill="#29327A"/>
<path d="M21.5098 18.3753C21.6841 18.3729 21.8585 18.3705 22.0382 18.3681C22.0926 18.367 22.147 18.366 22.2031 18.3649C22.4898 18.3616 22.7338 18.3639 22.9665 18.5521C23.13 18.7496 23.1941 18.8963 23.1884 19.1552C23.1607 19.3677 23.0508 19.5301 22.8884 19.6648C22.7274 19.7607 22.5729 19.7634 22.3916 19.7612C22.3691 19.7611 22.3467 19.7611 22.3236 19.761C22.2404 19.7607 22.1573 19.7599 22.0741 19.7592C21.7948 19.7574 21.7948 19.7574 21.5098 19.7556C21.5098 19.3001 21.5098 18.8446 21.5098 18.3753Z" fill="#2A337A"/>
<path d="M26.3174 18.3652C26.3696 18.3647 26.4218 18.364 26.4741 18.3628C27.0827 18.35 27.0827 18.35 27.3159 18.5712C27.464 18.7285 27.5067 18.8831 27.5015 19.0967C27.4798 19.269 27.4155 19.4101 27.282 19.5233C27.1028 19.6447 26.9846 19.6736 26.7683 19.6731C26.7423 19.6732 26.7163 19.6732 26.6895 19.6732C26.6344 19.6732 26.5794 19.6732 26.5244 19.6731C26.4398 19.6729 26.3552 19.6731 26.2707 19.6732C26.2173 19.6732 26.1639 19.6732 26.1105 19.6731C26.0723 19.6732 26.0723 19.6732 26.0334 19.6733C25.8551 19.6726 25.8551 19.6726 25.8231 19.6405C25.8203 19.6019 25.8194 19.563 25.8194 19.5242C25.8193 19.4996 25.8192 19.4749 25.8191 19.4495C25.8192 19.4227 25.8192 19.3959 25.8193 19.3683C25.8192 19.3409 25.8192 19.3136 25.8192 19.2854C25.8192 19.2275 25.8192 19.1696 25.8193 19.1117C25.8195 19.0227 25.8193 18.9337 25.8192 18.8447C25.8192 18.7886 25.8192 18.7324 25.8193 18.6763C25.8192 18.6495 25.8192 18.6227 25.8191 18.5951C25.8192 18.5704 25.8193 18.5458 25.8194 18.5203C25.8194 18.4985 25.8194 18.4767 25.8194 18.4542C25.83 18.3086 26.1997 18.366 26.3174 18.3652Z" fill="#2B347B"/>
</g>
<defs>
<clipPath id="clip0_133_3961">
<rect width="40" height="40.0288" fill="white"/>
</clipPath>
</defs>
</svg>
