<svg width="24" height="24" viewBox="0 0 24 24" fill="none" xmlns="http://www.w3.org/2000/svg">
<path d="M19.7045 17.1467H4.28822C4.28822 17.3614 4.29681 17.5561 4.28822 17.7508C4.28955 17.8364 4.27389 17.9215 4.24217 18.0011C4.21044 18.0806 4.16327 18.1531 4.10337 18.2143C4.04348 18.2755 3.97205 18.3243 3.89321 18.3578C3.81437 18.3912 3.72968 18.4088 3.64403 18.4093C3.47772 18.4089 3.31831 18.3428 3.20057 18.2253C3.08284 18.1079 3.01634 17.9486 3.01558 17.7823C3.00556 16.2076 2.9798 14.6444 3.0299 13.0783C3.05996 12.1349 3.88882 11.4077 4.84509 11.3604C5.1314 11.3432 5.41771 11.3604 5.70401 11.3604H18.7095C20.2599 11.3604 21 12.0891 21 13.628C21 14.9536 21 16.2792 21 17.6048C21 18.1244 20.7438 18.4351 20.3386 18.4222C19.9335 18.4093 19.7216 18.1144 19.7159 17.6105C19.703 17.453 19.7045 17.317 19.7045 17.1467Z" fill="#306DDE"/>
<path d="M19.0653 10.0485H17.1356C17.1356 9.85811 17.1356 9.68919 17.1356 9.5217C17.1241 8.68568 16.6059 8.15601 15.7785 8.14456C15.193 8.13597 14.6089 8.14456 14.0248 8.14456C13.186 8.15315 12.6692 8.66421 12.6491 9.50309C12.6491 9.67058 12.6491 9.8395 12.6491 10.0757H11.3607C11.3607 9.85668 11.3607 9.66485 11.3607 9.47302C11.3407 8.68854 10.8196 8.16317 10.0351 8.15028C9.45107 8.14026 8.86701 8.15028 8.28151 8.15028C7.39109 8.15028 6.8786 8.6685 6.87001 9.56035C6.87001 9.71495 6.87001 9.87099 6.87001 10.0528H4.97465C4.95416 9.94403 4.94077 9.83405 4.93457 9.72354C4.93457 8.61172 4.93457 7.49989 4.93457 6.38806C4.93743 5.78538 5.15646 5.57208 5.77059 5.57208H18.225C18.8548 5.57208 19.0696 5.78538 19.0724 6.42098C19.0696 7.61775 19.0653 8.81165 19.0653 10.0485Z" fill="#306DDE"/>
</svg>
