<svg width="500" height="450" viewBox="0 0 500 450" fill="none" xmlns="http://www.w3.org/2000/svg">
<g clip-path="url(#clip0_2288_1449)">
<path d="M453 0H47C21.0426 0 0 21.0426 0 47V403C0 428.957 21.0426 450 47 450H453C478.957 450 500 428.957 500 403V47C500 21.0426 478.957 0 453 0Z" fill="#3D7B50"/>
<path d="M410 27H99C73.0426 27 52 48.0426 52 74V383C52 408.957 73.0426 430 99 430H410C435.957 430 457 408.957 457 383V74C457 48.0426 435.957 27 410 27Z" fill="white"/>
<path fill-rule="evenodd" clip-rule="evenodd" d="M36.2383 2.12165C19.8806 6.01051 6.64465 19.9893 2.14408 38.1325C0.257677 45.7354 -0.326439 102.976 0.166708 232.216C0.810672 400.628 1.20327 416.133 5.00721 423.089C11.3607 434.71 25.4656 445.016 39.0344 447.951C47.4203 449.765 114.419 450.337 257.017 449.815C446.776 449.123 463.486 448.739 470.459 444.92C480.753 439.282 492.485 424.522 494.279 414.954C495.09 410.622 496.711 406.487 497.877 405.765C499.081 405.02 500 325.645 500 222.349C500 101.557 499.193 40.7443 497.606 41.7267C496.275 42.5509 495.207 40.7515 495.203 37.6749C495.181 24.6186 478.069 7.2421 460.5 2.44033C449.373 -0.602713 48.9548 -0.902225 36.2383 2.12165ZM0.810672 225.028C0.810672 325.844 1.10512 367.088 1.46661 316.679C1.82569 266.272 1.82569 183.786 1.46661 133.377C1.10512 82.9707 0.810672 124.212 0.810672 225.028ZM109.791 78.2719C94.6355 85.8484 92.7898 93.1852 93.5582 142.794C94.1711 182.48 94.6714 186.956 99.1887 193.112C101.918 196.828 107.572 201.412 111.757 203.295C119.302 206.695 119.367 206.873 119.367 224.261C119.367 235.413 120.325 241.801 121.998 241.801C124.509 241.801 135.962 235.269 168.981 215.005C181.707 207.196 185.906 205.857 197.708 205.842C210.865 205.828 211.813 205.413 217.345 197.284C225.813 184.843 241.404 171.895 257.307 164.1C268.333 158.697 275.606 157.027 292.253 156.075L313.274 154.877V125.14C313.274 72.5908 316.492 74.0716 202.508 74.0788C127.011 74.0812 117.292 74.5196 109.791 78.2719ZM150.967 132.059C147.273 135.757 147.273 144.176 150.967 147.874C157.682 154.595 169.639 149.532 169.639 139.967C169.639 133.545 165.282 129.184 158.867 129.184C156.102 129.184 152.547 130.478 150.967 132.059ZM196.092 132.635C194.519 134.53 193.581 139.114 194.005 142.818C195.41 155.098 215.124 152.611 215.124 140.153C215.124 130.09 202.376 125.053 196.092 132.635ZM240.631 133.567C233.164 141.824 237.325 150.749 248.639 150.749C259.828 150.749 264.501 140.611 256.847 132.948C251.849 127.948 245.493 128.187 240.631 133.567ZM286.632 172.393C252.043 178.127 224.103 205.325 217.245 239.936C215.32 249.65 213.237 254.057 210.099 255.053C207.664 255.827 203.489 259.237 200.823 262.632C196.415 268.239 195.972 272.269 195.972 306.684C195.972 343.266 196.171 344.797 201.747 351.288C207.255 357.702 208.634 358.049 231.75 358.838C249.22 359.432 257.034 358.787 259.754 356.528C262.937 353.885 263.368 348.508 262.519 322.158C261.539 291.776 261.269 290.446 252.682 273.609C242.197 253.055 241.823 246.813 250.082 230.223C257.077 216.174 266.782 207.692 282.019 202.313C295.224 197.648 302.614 197.724 317.935 202.677C333.589 207.738 349.463 224.491 354.012 240.751C357.078 251.713 356.956 252.305 347.881 270.23C338.748 288.273 338.609 288.96 337.68 320.333L336.742 352.143L329.196 356.13C325.048 358.323 313.574 360.721 303.699 361.459L285.744 362.803V373.586V384.368L300.745 383.949C319.362 383.429 336.141 377.992 351.907 367.373C361.181 361.126 366.529 359.209 374.678 359.209C388.7 359.209 398.306 353.976 401.591 344.547C405.031 334.666 405.031 278.324 401.591 268.443C400.092 264.144 395.934 259.27 392.049 257.258C387.941 255.132 384.58 251.052 383.72 247.149C376.821 215.796 366.295 198.621 346.107 185.761C326.537 173.294 307.29 168.969 286.632 172.393Z" fill="#3E7B50"/>
</g>
<defs>
<clipPath id="clip0_2288_1449">
<rect width="500" height="450" fill="white"/>
</clipPath>
</defs>
</svg>
