<svg width="500" height="450" viewBox="0 0 500 450" fill="none" xmlns="http://www.w3.org/2000/svg">
<g clip-path="url(#clip0_2288_1441)">
<mask id="mask0_2288_1441" style="mask-type:luminance" maskUnits="userSpaceOnUse" x="0" y="0" width="500" height="450">
<path d="M500 0H0V450H500V0Z" fill="white"/>
</mask>
<g mask="url(#mask0_2288_1441)">
<path d="M453 0H47C21.0426 0 0 21.0426 0 47V401.085C0 427.042 21.0426 448.085 47 448.085H453C478.957 448.085 500 427.042 500 401.085V47C500 21.0426 478.957 0 453 0Z" fill="#3D7B50"/>
<path d="M410 26.8848H99C73.0426 26.8848 52 47.9274 52 73.8848V381.17C52 407.127 73.0426 428.17 99 428.17H410C435.957 428.17 457 407.127 457 381.17V73.8848C457 47.9274 435.957 26.8848 410 26.8848Z" fill="white"/>
<path fill-rule="evenodd" clip-rule="evenodd" d="M36.7206 2.32453C20.2951 6.20937 7.00424 20.1737 2.48501 38.2982C0.590777 45.8931 0.00423823 103.074 0.49943 232.181C1.14607 400.419 1.5403 415.908 5.36001 422.857C11.7398 434.466 25.9033 444.761 39.5283 447.693C47.949 449.505 115.225 450.077 258.415 449.555C448.961 448.863 465.74 448.48 472.742 444.665C483.079 439.033 494.86 424.288 496.661 414.73C497.475 410.403 499.103 406.271 500.273 405.551C501.483 404.806 502.406 325.513 502.406 222.324C502.406 101.657 501.596 40.9072 500.002 41.8886C498.665 42.712 497.593 40.9144 497.588 37.841C497.567 24.7982 480.384 7.43969 462.742 2.64288C451.569 -0.39701 49.4898 -0.696212 36.7206 2.32453ZM1.14607 225C1.14607 325.712 1.44174 366.913 1.80472 316.556C2.1653 266.202 2.1653 183.801 1.80472 133.444C1.44174 83.09 1.14607 124.289 1.14607 225ZM265.627 60.645C238.355 69.5588 212.903 95.6947 206.331 121.527C204.108 130.273 203.317 131.187 200.867 127.851C197.456 123.207 189.052 124.198 188.055 129.363C187.12 134.191 203.6 153.192 208.723 153.192C213.386 153.192 233.175 135.919 233.175 131.85C233.175 127.645 225.841 125.787 221.035 128.775C217.177 131.173 216.937 130.773 218.648 124.825C224.153 105.714 239.591 88.0352 260.136 77.3094C271.177 71.5455 275.509 70.691 293.271 70.7628C317.261 70.8634 329.127 75.3083 346.622 90.7471C363.463 105.607 371.148 123.209 371.273 147.208C371.358 163.415 370.348 168.439 364.699 179.914C352.394 204.908 330.12 221.396 304.834 224.227C288.93 226.01 285.213 228.531 288.761 235.13C290.983 239.261 293.004 239.776 302.56 238.651C334.002 234.941 361.521 215.529 375.545 187.164C382.858 172.374 383.415 169.535 383.415 147.134C383.415 124.394 382.944 122.099 375.141 106.787C365.971 88.7987 351.85 74.8607 332.935 65.1235C322.951 59.9844 317.048 58.8163 298.079 58.2203C283.793 57.7703 271.644 58.6799 265.627 60.645ZM285.163 99.2923C282.389 101.384 277.968 102.153 273.656 101.293C267.538 100.075 266.31 100.798 263.954 107.014C262.346 111.258 258.499 115.169 254.427 116.699C248.507 118.925 247.598 120.526 247.598 128.755C247.598 134.27 246.088 139.493 243.992 141.224C242.009 142.863 240.386 145.556 240.386 147.208C240.386 148.859 242.009 151.552 243.992 153.192C246.052 154.896 247.598 160.114 247.598 165.378C247.598 172.824 248.773 175.196 253.761 177.796C257.151 179.565 261.233 183.639 262.831 186.848C264.889 190.985 268.103 192.914 273.853 193.462C278.314 193.89 284.511 195.899 287.62 197.926C292.728 201.26 293.841 201.244 299.197 197.749C302.454 195.623 309.002 193.883 313.745 193.883C321.021 193.883 322.733 192.84 324.706 187.205C326.153 183.067 329.872 179.464 334.483 177.731C341.31 175.165 341.795 174.265 340.386 166.788C339.288 160.966 339.894 157.78 342.504 155.624C347.139 151.794 347.221 142.689 342.651 138.914C340.362 137.023 339.624 133.648 340.523 129.177C341.692 123.353 340.745 121.639 334.144 117.642C329.879 115.059 325.115 110.423 323.555 107.337C321.483 103.237 318.682 101.729 313.134 101.729C308.961 101.729 304.192 100.384 302.535 98.737C298.576 94.8067 290.781 95.0556 285.163 99.2923ZM290.867 119.332C290.867 120.457 288.163 124.282 284.858 127.831C281.552 131.384 278.848 136.221 278.848 138.584C278.848 144.072 285.415 149.968 293.872 152.067C297.509 152.972 300.483 155.095 300.483 156.785C300.483 162.158 293.338 162.833 288.408 157.924C285.795 155.322 282.574 153.192 281.252 153.192C277.163 153.192 278.605 162.321 283.213 165.622C285.615 167.343 288.283 170.634 289.146 172.939C290.86 177.511 298.079 178.758 298.079 174.481C298.079 173.025 300.783 169.715 304.088 167.125C314.742 158.781 311.122 147.789 296.43 143.878C288.011 141.635 285.697 134.043 293.43 134.043C296.358 134.043 300.148 135.929 301.858 138.232C304.096 141.248 305.709 141.695 307.61 139.828C310.992 136.515 308.437 129.821 302.603 126.711C300.115 125.385 298.079 122.721 298.079 120.794C298.079 118.865 296.456 117.288 294.473 117.288C292.49 117.288 290.867 118.207 290.867 119.332ZM328.069 260.933C310.35 269.957 308.269 271.973 314.6 273.974C317.343 274.84 321.742 278.275 324.372 281.607L329.158 287.663L346.069 278.567C355.372 273.564 362.983 268.107 362.983 266.441C362.983 263.138 355.072 257.475 347.223 255.155C344.117 254.238 337.004 256.383 328.069 260.933ZM175.463 272.14C158.285 280.951 144.247 288.761 144.266 289.494C144.283 290.226 152.834 305.366 163.266 323.139C175.343 343.714 183.41 355.098 185.468 354.481C205.076 348.588 210.497 348.719 232.069 355.613C267.331 366.88 270.173 366.324 322.848 337.833C416.314 287.28 413.463 289.116 413.463 279.486C413.463 272.471 402.117 262.611 395.495 263.873C392.379 264.466 376.218 272.344 359.579 281.377C334.992 294.729 329.329 298.791 329.329 303.078C329.329 311.051 316.322 320.755 305.706 320.697C294.67 320.637 237.379 301.464 236.112 297.407C234.56 292.433 243.038 293.925 275.418 304.325C303.3 313.282 306.841 313.916 312.156 310.907C326.423 302.834 325.161 289.647 309.437 282.493C289.81 273.56 229.305 256.117 217.951 256.117C208.773 256.117 200.918 259.081 175.463 272.14ZM102.812 280.657C95.235 284.877 88.4441 289.865 87.7206 291.744C86.997 293.623 95.2735 310.34 106.112 328.895C116.954 347.451 130.858 371.25 137.011 381.782C144.213 394.109 149.85 401.13 152.826 401.486C158.807 402.202 183.677 387.364 184.612 382.522C185.007 380.483 179.778 369.249 172.995 357.559C166.211 345.868 152.418 322.03 142.343 304.588C131.144 285.195 122.584 272.894 120.307 272.928C118.261 272.959 110.389 276.437 102.812 280.657Z" fill="#3E7B50"/>
</g>
</g>
<defs>
<clipPath id="clip0_2288_1441">
<rect width="500" height="450" fill="white"/>
</clipPath>
</defs>
</svg>
