<svg width="500" height="450" viewBox="0 0 500 450" fill="none" xmlns="http://www.w3.org/2000/svg">
<g clip-path="url(#clip0_2288_1453)">
<mask id="mask0_2288_1453" style="mask-type:luminance" maskUnits="userSpaceOnUse" x="0" y="0" width="500" height="450">
<path d="M500 0H0V450H500V0Z" fill="white"/>
</mask>
<g mask="url(#mask0_2288_1453)">
<path d="M453 0H47C21.0426 0 0 21.0426 0 47V401.085C0 427.042 21.0426 448.085 47 448.085H453C478.957 448.085 500 427.042 500 401.085V47C500 21.0426 478.957 0 453 0Z" fill="#3D7B50"/>
<path d="M410 26.8848H99C73.0426 26.8848 52 47.9274 52 73.8848V381.17C52 407.127 73.0426 428.17 99 428.17H410C435.957 428.17 457 407.127 457 381.17V73.8848C457 47.9274 435.957 26.8848 410 26.8848Z" fill="white"/>
<path fill-rule="evenodd" clip-rule="evenodd" d="M36.7206 2.32453C20.2951 6.20937 7.00424 20.1737 2.48501 38.2982C0.590777 45.8931 0.00423823 103.074 0.49943 232.181C1.14607 400.419 1.5403 415.908 5.36001 422.857C11.7398 434.466 25.9033 444.761 39.5283 447.693C47.949 449.505 115.225 450.077 258.415 449.555C448.961 448.863 465.74 448.48 472.742 444.665C483.079 439.033 494.86 424.288 496.661 414.73C497.475 410.403 499.103 406.271 500.274 405.551C501.483 404.806 502.406 325.513 502.406 222.324C502.406 101.657 501.596 40.9072 500.002 41.8886C498.665 42.712 497.593 40.9144 497.588 37.841C497.567 24.7982 480.384 7.43969 462.742 2.64288C451.569 -0.39701 49.4898 -0.696212 36.7206 2.32453ZM1.14607 225C1.14607 325.712 1.44174 366.913 1.80472 316.556C2.1653 266.202 2.1653 183.801 1.80472 133.444C1.44174 83.0899 1.14607 124.289 1.14607 225ZM241.99 94.9479C241.108 95.824 240.386 114.674 240.386 136.836V177.128H313.704H387.021V138.112C387.021 110.959 386.144 98.2224 384.136 96.2237C382.028 94.1245 362.752 93.3514 312.423 93.3514C274.564 93.3514 242.87 94.0695 241.99 94.9479ZM114.098 141.784C113.451 143.462 113.206 184.146 113.552 232.191L114.185 319.548H163.463H212.742L213.398 277.061L214.055 234.575H224.444C231.781 234.575 236.112 235.982 239.185 239.362C241.576 241.995 245.492 244.149 247.886 244.149C250.278 244.149 253.355 246.232 254.725 248.779C258.048 254.964 257.872 256.117 253.608 256.117C250.552 256.117 250.002 261.967 250.002 294.415C250.002 331.117 249.802 332.713 245.194 332.713C241.038 332.713 240.386 334.31 240.386 344.506C240.386 354.399 241.408 357.102 246.721 361.262C252.733 365.972 256.011 366.224 311.511 366.224C349.233 366.224 372.045 365.281 375.826 363.567C386.87 358.555 391.718 335.882 382.273 333.422C377.836 332.268 377.483 329.726 376.865 294.75L376.204 257.314L323.855 256.668L271.509 256.024L267.1 248.805C262.038 240.516 261.959 220.768 266.944 210.04C269.596 204.339 271.401 203.458 280.437 203.458C291.62 203.458 295.346 208.915 285.85 211.385C282.6 212.233 281.129 214.229 281.673 217.051C282.42 220.936 285.677 221.482 311.576 222.08C334.951 222.616 341.221 222.051 343.605 219.191C347.293 214.768 344.975 210.639 338.802 210.639C336.235 210.639 334.136 209.059 334.136 207.13C334.136 204.305 339.185 203.486 359.978 202.941L385.819 202.261L386.564 193.285L387.312 184.309H352.31H317.31V193.883C317.31 199.149 318.276 203.458 319.456 203.458C320.636 203.458 322.225 205.073 322.987 207.048C324.088 209.909 322.189 210.639 313.629 210.639C305.682 210.639 302.886 209.705 302.886 207.048C302.886 205.073 304.509 203.458 306.492 203.458C309.096 203.458 310.098 200.798 310.098 193.883V184.309H275.098H240.096L240.843 193.285C241.523 201.481 242.269 202.326 249.401 203.01C253.697 203.424 257.213 204.303 257.213 204.963C257.213 209.08 251.555 215.426 247.886 215.426C245.492 215.426 241.576 217.58 239.185 220.213C236.112 223.593 231.781 225 224.444 225H214.055L213.398 182.514L212.742 140.027L164.009 139.378C126.245 138.876 115.009 139.419 114.098 141.784ZM136.293 159.504C135.372 160.421 134.617 188.457 134.617 221.81V282.447H164.706H194.795L194.153 220.811L193.511 159.176L165.74 158.506C150.463 158.137 137.213 158.585 136.293 159.504ZM141.829 220.213V275.266H164.665H187.502V220.213V165.16H164.665H141.829V220.213ZM259.617 299.202V332.713H278.706C289.206 332.713 298.463 333.79 299.281 335.107C300.098 336.423 305.569 337.5 311.442 337.5C317.314 337.5 322.117 336.423 322.117 335.107C322.117 333.687 330.932 332.713 343.752 332.713H365.386V299.202V265.692H312.502H259.617V299.202ZM269.742 274.871C267.475 276.324 266.831 283.23 267.338 300.598L268.031 324.335H312.502H356.973V299.202V274.069L314.906 273.478C291.769 273.15 271.444 273.78 269.742 274.871ZM151.999 297.273C153.245 300.993 175.165 301.658 176.084 298.006C176.415 296.689 170.896 295.282 163.819 294.88C154.069 294.324 151.206 294.904 151.999 297.273Z" fill="#3E7B50"/>
</g>
</g>
<defs>
<clipPath id="clip0_2288_1453">
<rect width="500" height="450" fill="white"/>
</clipPath>
</defs>
</svg>
