<svg width="500" height="450" viewBox="0 0 500 450" fill="none" xmlns="http://www.w3.org/2000/svg">
<g clip-path="url(#clip0_2288_1461)">
<path d="M453 0H47C21.0426 0 0 21.0426 0 47V403C0 428.957 21.0426 450 47 450H453C478.957 450 500 428.957 500 403V47C500 21.0426 478.957 0 453 0Z" fill="#3D7B50"/>
<path d="M410 27H99C73.0426 27 52 48.0426 52 74V383C52 408.957 73.0426 430 99 430H410C435.957 430 457 408.957 457 383V74C457 48.0426 435.957 27 410 27Z" fill="white"/>
<path fill-rule="evenodd" clip-rule="evenodd" d="M36.2383 2.12117C19.8806 6.00917 6.64465 19.9849 2.14408 38.1241C0.257677 45.7252 -0.326439 102.953 0.166708 232.164C0.810672 400.539 1.20327 416.041 5.00721 422.995C11.3607 434.613 25.4656 444.917 39.0344 447.851C47.4203 449.665 114.419 450.237 257.017 449.715C446.776 449.023 463.486 448.639 470.459 444.821C480.753 439.184 492.485 424.427 494.279 414.862C495.09 410.531 496.711 406.396 497.877 405.675C499.081 404.93 500 325.572 500 222.3C500 101.535 499.193 40.7352 497.606 41.7174C497.486 38.3804 496.174 39.2285 495.203 37.6665C485.002 21.2662 478.069 7.24049 460.5 2.43978C449.373 -0.602577 48.9548 -0.902022 36.2383 2.12117ZM0.810672 224.978C0.810672 325.771 1.10512 367.006 1.46661 316.608C1.82569 266.213 1.82569 183.745 1.46661 133.348C1.10512 82.9522 0.810672 124.185 0.810672 224.978ZM237.744 50.7559C237.028 52.6196 236.765 62.1276 237.155 71.8871C237.842 89.0249 238.069 89.6286 243.851 89.6286C249.766 89.6286 249.836 89.3891 249.836 69.2663C249.836 49.9629 249.556 48.8634 244.44 48.1375C241.407 47.7063 238.472 48.8562 237.744 50.7559ZM172.957 67.9153C171.317 72.1937 190.612 105.2 194.756 105.2C196.418 105.2 198.996 103.736 200.48 101.944C204.306 97.3327 185.322 64.4752 178.83 64.4752C176.326 64.4752 173.683 66.0228 172.957 67.9153ZM294.468 81.7927C287.43 94.4892 285.543 99.9199 287.396 102.155C292.296 108.062 296.407 105.025 306.184 88.2751C316.3 70.9408 316.997 64.4752 308.745 64.4752C305.418 64.4752 301.29 69.4796 294.468 81.7927ZM218.159 107.341C197.318 115.091 182.473 128.326 171.456 148.986C166.946 157.442 166.063 162.83 166.068 181.858C166.07 201.832 166.846 206.079 172.395 216.593C180.206 231.388 193.258 245.055 205.586 251.348C210.729 253.974 215.514 256.12 216.225 256.12C216.936 256.12 217.518 250.416 217.518 243.443C217.518 232.141 215.835 227.917 202.003 204.515C193.468 190.077 186.483 176.108 186.478 173.473C186.466 165.654 190.026 162.255 197.342 163.1C203.054 163.762 206.024 167.036 215.418 183.029L226.658 202.167L243.757 202.364L260.855 202.558L272.18 183.226C281.668 167.027 284.614 163.762 290.35 163.1C297.676 162.255 301.235 165.652 301.223 173.473C301.219 176.108 294.233 190.077 285.699 204.515C271.867 227.917 270.184 232.141 270.184 243.443C270.184 250.927 271.244 256.12 272.772 256.12C277.354 256.12 300.055 239.825 305.231 232.818C329.749 199.633 328.493 158.587 302.054 129.163C281.347 106.117 246.106 96.9518 218.159 107.341ZM129.211 112.221C122.829 116.167 128.079 123.289 144.228 132.593C160.181 141.785 160.748 141.924 164.062 137.403C167.131 133.216 166.87 132.27 161.44 127.958C149.832 118.742 132.419 110.238 129.211 112.221ZM338.825 119.846C320.468 130.849 318.584 133.098 323.561 138.081C326.862 141.385 328.89 140.805 343.596 132.363C354.419 126.149 360.2 121.284 360.681 117.985C361.921 109.452 355.218 110.022 338.825 119.846ZM230.577 154.201C223.395 161.385 223.079 169.568 229.662 177.941C239.544 190.515 263.002 182.315 263.002 166.287C263.002 157.663 253.041 148.32 243.851 148.32C239.187 148.32 234.28 150.493 230.577 154.201ZM115.759 189.959C111.515 193.064 111.276 196.66 111.91 247.824C112.283 277.831 113.631 305.179 114.91 308.597C116.186 312.013 124.059 321.818 132.404 330.382C140.773 338.971 148.982 349.983 150.711 354.937L153.844 363.92H182.296H210.748L209.943 336.783C208.969 303.95 208.289 302.728 173.982 272.29C150.036 251.044 144.259 248.323 137.491 255.092C130.082 262.507 133.084 268.606 153.48 287.576C164.342 297.681 172.459 306.736 171.516 307.704C170.573 308.669 165.725 305.941 160.744 301.638C126.506 272.072 122.355 265.367 131.028 253.629C135.492 247.587 136.124 243.5 136.124 220.654C136.124 198.435 135.478 193.991 131.746 190.613C126.41 185.782 121.73 185.59 115.759 189.959ZM355.539 191.03C350.193 196.94 349.691 246.78 354.933 251.135C359.843 255.212 361.667 265.053 358.584 270.819C357.107 273.581 352.042 279.218 347.326 283.348C342.609 287.478 334.365 294.868 329.005 299.774C318.654 309.249 315.565 310.667 315.833 305.828C315.924 304.182 324.543 295.41 334.985 286.338C350.344 272.992 353.971 268.548 353.971 263.065C353.971 256.338 348.566 251.329 341.31 251.329C336.819 251.329 292.198 290.441 284.547 301.085C279.156 308.585 278.484 312.109 277.758 336.666L276.954 363.92H305.695H334.439L336.146 356.149C337.235 351.186 343.725 342.315 354.127 331.583C363.077 322.345 371.461 311.994 372.758 308.583C374.054 305.172 375.418 277.831 375.792 247.824C376.426 196.66 376.187 193.064 371.942 189.959C365.773 185.444 360.265 185.806 355.539 191.03ZM141.396 230.001L142.109 244.607L151.685 247.932C156.952 249.76 161.663 251.274 162.156 251.293C162.647 251.312 162.561 245.417 161.962 238.189C160.734 223.38 155.288 215.396 146.411 215.396C140.92 215.396 140.714 215.994 141.396 230.001ZM331.195 220.223C327.475 224.338 322.551 251.413 325.546 251.293C326.039 251.274 330.75 249.76 336.017 247.932L345.592 244.607L346.306 230.001C346.988 215.994 346.782 215.396 341.29 215.396C338.14 215.396 333.596 217.568 331.195 220.223ZM132.316 374.406C131.619 376.219 131.385 382.958 131.791 389.378L132.534 401.052L182.207 401.698L231.881 402.348V386.726V371.107H182.732C143.201 371.107 133.333 371.754 132.316 374.406ZM255.82 386.678V402.348L305.494 401.698L355.168 401.052V386.678V372.305L305.494 371.658L255.82 371.009V386.678Z" fill="#3E7B50"/>
</g>
<defs>
<clipPath id="clip0_2288_1461">
<rect width="500" height="450" fill="white"/>
</clipPath>
</defs>
</svg>
