<svg width="73" height="44" viewBox="0 0 73 44" fill="none" xmlns="http://www.w3.org/2000/svg">
<path d="M36.4878 20.921C37.8104 19.8711 39.0317 18.4558 39.8181 16.9361C38.7397 16.5996 37.6019 16.3618 36.4878 16.3618V20.921ZM35.6656 20.8862C34.3014 19.8769 33.086 18.4616 32.2996 16.9419C33.372 16.5706 34.5158 16.3676 35.6656 16.3676V20.8862ZM36.4878 0.53215C37.8104 1.57625 39.0317 2.95677 39.8181 4.48232C38.7397 4.84775 37.6019 5.09137 36.4878 5.09137V0.53215ZM35.6656 0.53215C34.3014 1.57625 33.086 2.99738 32.2996 4.48232C33.372 4.81875 34.5158 5.09137 35.6656 5.09137V0.53215ZM36.4878 15.5555V11.0949H41.4624C41.4624 12.8873 40.9977 14.6391 40.2113 16.2632C39.0674 15.863 37.7031 15.5845 36.4878 15.5555ZM47.3365 11.0949H42.3262C42.2547 13.0555 41.8198 14.8131 41.0036 16.5648C42.076 17.0405 43.0351 17.6089 43.9705 18.3514C46.0139 16.3966 47.2233 13.798 47.3365 11.0949ZM43.3628 18.8618C42.5764 18.218 41.5696 17.6089 40.6045 17.2435C39.7108 18.827 38.6027 20.1438 37.2027 21.3271C39.4606 21.0544 41.5696 20.2482 43.3628 18.8618ZM35.6656 15.5555V11.0949H30.6613C30.6911 12.8873 31.12 14.6739 31.9124 16.2632C33.086 15.863 34.3788 15.5845 35.6656 15.5555ZM24.7812 11.0949H29.7975C29.9047 13.0555 30.3336 14.7725 31.1617 16.5648C30.0477 17.0405 29.0825 17.6089 28.1532 18.3514C26.1038 16.3966 24.9301 13.8618 24.7812 11.0949ZM28.7549 18.8618C29.583 18.2528 30.5421 17.5799 31.5132 17.2435C32.4069 18.827 33.515 20.1438 34.915 21.3271C32.6571 21.0544 30.5124 20.2482 28.7549 18.8618ZM36.4878 5.86284V10.3235H41.4624C41.4624 8.53109 40.9977 6.81413 40.2113 5.15518C39.0376 5.56122 37.7389 5.82804 36.4878 5.86284ZM47.3365 10.3177H42.3262C42.2547 8.39188 41.79 6.60531 41.0036 4.88255C42.076 4.40691 43.0769 3.79785 43.9705 3.09019C46.1152 5.11457 47.2233 7.65521 47.3365 10.3177ZM43.3628 2.55654C42.5407 3.2352 41.5696 3.83846 40.6045 4.20969C39.7108 2.58554 38.6027 1.30362 37.2027 0.0913086C39.4606 0.363934 41.5696 1.17601 43.3628 2.55654ZM35.6656 5.86284V10.3235H30.6613C30.6911 8.56589 31.12 6.77933 31.9124 5.15518C33.086 5.56122 34.3788 5.82804 35.6656 5.86284ZM24.7812 10.3177H29.7975C29.9047 8.35707 30.3336 6.64011 31.1617 4.88255C30.0477 4.40691 29.0825 3.83265 28.1532 3.09019C26.068 5.05657 24.9301 7.5856 24.7812 10.3177ZM28.7549 2.55654C29.583 3.2352 30.5124 3.83846 31.5132 4.20969C32.3711 2.62034 33.5507 1.27462 34.915 0.0913086C32.6571 0.363934 30.5422 1.17601 28.7549 2.55654ZM0.015625 14.2678H22.5233C23.3514 18.1832 26.211 21.4257 31.9064 23.6879C31.2571 25.5441 29.0408 27.261 26.7472 27.261H14.5521C12.6814 27.261 11.2218 25.7703 10.6141 24.5928H23.0297C23.7863 24.4652 23.822 23.8909 23.0654 23.8213H10.8584C9.28559 23.8213 7.84981 22.5336 7.02767 21.1531H21.2364C21.9514 21.0486 21.9514 20.4744 21.2364 20.3758H6.92043C5.49062 20.3758 4.16804 18.7922 3.6259 17.7133H19.3419C20.1283 17.6089 20.1283 16.9361 19.3419 16.9013H3.33994C2.08886 16.9013 0.873513 15.6193 0.015625 14.2678ZM72.1021 14.2678H49.5885C48.7663 18.1832 45.9007 21.4257 40.2113 23.6879C40.8547 25.5441 43.0709 27.261 45.3646 27.261H57.5716C59.4363 27.261 60.9019 25.7703 61.5095 24.5928H49.088C48.3374 24.4652 48.2957 23.8909 49.0523 23.8213H61.2593C62.8381 23.8213 64.2619 22.5336 65.0841 21.1531H50.8812C50.1604 21.0486 50.1604 20.4744 50.8812 20.3758H65.2032C66.633 20.3758 67.9497 18.7922 68.4858 17.7133H52.7698C51.9834 17.6089 51.9834 16.9361 52.7698 16.9013H68.7718C70.0288 16.9013 71.2501 15.6193 72.1021 14.2678ZM46.7288 43.9086L53.9494 29.9989H58.6737L61.6466 43.9086H57.1724L56.958 42.2554H52.2277L51.477 43.9086H46.7288ZM53.4192 39.3551H56.4575L55.6711 34.2565L53.4192 39.3551ZM37.3457 43.9086L38.99 33.4444H34.8018L35.5227 29.9293H48.3731L47.6523 33.4444H43.6845L42.076 43.9086H37.3457ZM18.0134 43.9086L25.2459 29.9989H29.9702L32.943 43.9086H28.5047L28.2485 42.2554H23.5301L22.7795 43.9086H18.0134ZM24.7157 39.3551H27.754L26.9617 34.2565L24.7157 39.3551ZM10.2865 43.9086L13.2176 29.9989H18.0134L15.0823 43.9086H10.2865Z" fill="#1E32FA"/>
</svg>
