<svg width="74" height="74" viewBox="0 0 74 74" fill="none" xmlns="http://www.w3.org/2000/svg">
<g clip-path="url(#clip0_4780_33786)">
<path d="M60.4427 40.7341L59.189 39.9077L57.2143 42.5938L57.083 42.773L57.064 42.7982L57.0438 42.8247L57.0186 42.86L56.8292 43.1174L56.7017 43.2915L56.6272 43.3925L50.2473 52.069L50.2738 52.9308L50.366 55.849C50.3849 56.495 51.2081 56.7473 51.592 56.2326C54.9568 51.6439 58.1524 46.5088 60.1953 41.3725L60.4427 40.7341Z" fill="#59CBAF"/>
<path d="M57.592 42.8791L57.5099 42.9926L57.2889 43.2942L57.2536 43.2134L57.222 43.2677L57.1778 43.3068L57.0478 43.4077L56.9657 43.4923L50.2753 52.9296L50.2475 52.0679L49.952 42.6747L49.9407 42.6734V42.1221L56.3269 42.7542L56.7599 42.7971L57.0099 42.821L57.044 42.8248L57.0592 42.8261L57.073 42.8273L57.4127 42.8614L57.592 42.8791Z" fill="#A1D04C"/>
<path d="M57.2552 43.3172L57.1087 43.4143L57.0708 43.4396L56.9661 43.4282L56.9534 43.4269L56.8966 43.4206L56.7855 43.4093L56.6289 43.3929L49.9536 42.6762L49.9423 42.675V42.3141L49.6557 33.2137L49.6292 32.3721C49.6292 32.3696 49.6292 32.3658 49.6292 32.3633L56.5077 41.6391L56.8549 42.1085L57.1239 42.4706L57.1365 42.487L57.216 42.5955L57.4143 42.863L57.5115 42.9942L57.5898 43.0989L57.2552 43.3172Z" fill="#E5ED28"/>
<path d="M56.9491 43.5196L56.9352 43.5285L56.785 43.4074L56.7029 43.2888L56.3279 42.7525L49.6551 33.2105L49.6286 32.3689C49.6286 32.3664 49.6286 32.3626 49.6286 32.3601C49.5945 31.0808 50.1829 29.867 51.2195 29.1188L53.4126 27.5266L53.6184 27.3765L56.8531 42.1053L57.0097 42.8194L57.0185 42.8573L57.0375 42.9443L57.0451 42.9784L57.136 43.3922L57.1006 43.396L57.0476 43.4036L56.9491 43.5196Z" fill="#DEDD23"/>
<path d="M60.8372 21.7515L60.8107 21.8978L60.7943 21.9874L57.134 42.4846L57.0823 42.771L57.0722 42.8265L57.0444 42.9805L56.9648 43.4271L56.9497 43.5142L56.9484 43.5192L56.9472 43.5167L56.9396 43.5015L56.8954 43.4195L56.8285 43.1155L56.7578 42.795L56.504 41.6368L53.4106 27.5274L53.6164 27.3773L56.1846 25.5138C57.8663 24.2937 59.2842 23.1368 60.4382 22.0429C60.5064 21.9786 60.5721 21.9155 60.6377 21.8511L60.8372 21.7515Z" fill="#C5DF26"/>
<path d="M60.443 40.7334C61.7763 37.2146 62.549 33.7071 62.4454 30.3851C62.3798 28.3904 62.1184 26.4525 61.6689 24.589C61.6134 24.3454 61.6879 24.1019 61.8659 23.9329C62.7826 23.08 63.5603 22.2548 64.203 21.4512L64.2926 21.3389L60.8117 21.8991L60.7435 21.9104L60.7283 22L57.1236 42.4695L57.0656 42.7988L57.0605 42.8265L57.039 42.9464L56.9544 43.4258L56.9368 43.528L56.9507 43.5192L57.0719 43.4384L57.1375 43.3955L57.2903 43.2946L57.5883 43.0978L60.1968 41.3718L60.443 40.7334Z" fill="#9DC62A"/>
<path d="M66.4868 16.7966C66.2544 18.2589 65.5348 19.7578 64.2911 21.3387L64.2015 21.451L60.7938 21.9884L60.7256 21.9998L60.439 22.0452C60.5071 21.9809 60.5728 21.9178 60.6385 21.8534C62.7444 19.8184 63.9237 18.0041 64.175 16.4131C64.2482 15.9412 64.2381 15.4984 64.1409 15.0871C64.0891 14.8637 64.0108 14.6505 63.9073 14.4449L65.0916 12.1133C65.1623 12.1877 65.2318 12.2647 65.2987 12.3442C65.387 12.4476 65.4704 12.5561 65.5512 12.6672C66.4022 13.8468 66.7304 15.27 66.4868 16.7966Z" fill="#B7C017"/>
<path d="M65.2987 12.3435L64.1409 15.0863C64.0891 14.863 64.0109 14.6498 63.9073 14.4442C63.8341 14.2991 63.7495 14.159 63.651 14.024C63.1649 13.3503 62.4629 12.9377 61.5463 12.7876C60.0249 12.5403 58.0401 13.0475 55.5932 14.3028L55.5831 14.3079L54.5654 11.6445L54.5717 11.6508C54.5793 11.6584 54.5869 11.6659 54.5932 11.6735C54.799 11.8792 55.1083 11.9359 55.3697 11.8136C57.9239 10.6238 60.0665 10.2024 61.9099 10.4926C63.1813 10.6957 64.2697 11.2496 65.0904 12.1113C65.1636 12.187 65.2318 12.264 65.2987 12.3435Z" fill="#E9D912"/>
<path d="M52.0088 16.4527C51.495 16.7984 50.9659 17.1693 50.423 17.5643L47.6011 19.6157L47.5771 19.6334L51.9924 9.27881C52.0013 9.28512 52.0101 9.29269 52.0189 9.30026C52.0657 9.33811 52.1136 9.37596 52.1603 9.41507C52.1704 9.4239 52.1818 9.43147 52.1919 9.4403L52.024 16.4426L52.0088 16.4527Z" fill="#F3D71A"/>
<path d="M52.0191 9.3005L47.6013 19.616L47.5773 19.6337L44.5206 21.8567L44.1001 22.1633C44.0913 22.1696 44.0825 22.1759 44.0736 22.1822C44.0686 22.186 44.0635 22.1886 44.0585 22.1923C44.0572 22.1936 44.0559 22.1949 44.0534 22.1949C44.0484 22.1986 44.042 22.2012 44.037 22.205C44.0345 22.2062 44.0332 22.2075 44.0307 22.2087C44.0256 22.2113 44.0206 22.2138 44.0155 22.2163C44.013 22.2176 44.0092 22.2201 44.0067 22.2214C44.0029 22.2239 43.9979 22.2251 43.9941 22.2277C43.9915 22.2289 43.989 22.2302 43.9852 22.2315C43.9789 22.234 43.9726 22.2365 43.9663 22.239C43.965 22.239 43.965 22.2403 43.9638 22.2403C43.9587 22.2428 43.9524 22.2453 43.9461 22.2466C43.936 22.2504 43.9259 22.2542 43.9158 22.2567C43.9095 22.2592 43.9032 22.2605 43.8969 22.2617C43.8956 22.2617 43.8943 22.263 43.8943 22.263C43.8905 22.2643 43.8855 22.2655 43.8817 22.2668C43.8741 22.268 43.8678 22.2706 43.8602 22.2718C43.8564 22.2731 43.8514 22.2743 43.8476 22.2743C43.8413 22.2756 43.835 22.2769 43.8287 22.2781C43.8211 22.2794 43.8148 22.2807 43.8072 22.2819C43.8059 22.2819 43.8047 22.2819 43.8034 22.2819C43.7958 22.2832 43.7895 22.2832 43.7832 22.2844C43.7756 22.2857 43.7681 22.2857 43.7605 22.2857L41.4777 6.67242L41.4739 6.64845L41.2883 5.37542L40.9348 3.88916C40.9639 3.89547 40.9929 3.90304 41.0232 3.90935C41.0434 3.91439 41.0623 3.91818 41.0813 3.92323C41.0838 3.92449 41.0876 3.92449 41.0914 3.92575C41.1255 3.93332 41.1596 3.94215 41.1936 3.94972C41.2227 3.95729 41.253 3.9636 41.282 3.97117C45.2541 4.9414 48.8954 6.77588 51.9926 9.28031C52.0014 9.28536 52.0103 9.29293 52.0191 9.3005Z" fill="#F9B411"/>
<path d="M44.5189 21.8569L44.0984 22.1635C44.0896 22.1698 44.0807 22.1761 44.0719 22.1824C44.0669 22.1862 44.0618 22.1887 44.0568 22.1925C44.0555 22.1937 44.0542 22.195 44.0517 22.195C44.0467 22.1988 44.0403 22.2013 44.0353 22.2051C44.0328 22.2064 44.0315 22.2076 44.029 22.2089C44.0239 22.2114 44.0189 22.2139 44.0138 22.2165C44.0113 22.2177 44.0075 22.2202 44.005 22.2215C44.0012 22.224 43.9962 22.2253 43.9924 22.2278C43.9898 22.2291 43.9873 22.2303 43.9835 22.2316C43.9772 22.2341 43.9709 22.2366 43.9646 22.2392C43.9633 22.2392 43.9633 22.2404 43.9621 22.2404C43.957 22.243 43.9507 22.2455 43.9444 22.2467C43.9343 22.2505 43.9242 22.2543 43.9141 22.2568C43.9078 22.2594 43.9015 22.2606 43.8951 22.2619C43.8939 22.2619 43.8926 22.2631 43.8926 22.2631C43.8888 22.2644 43.8838 22.2657 43.88 22.2669C43.8724 22.2682 43.8661 22.2707 43.8585 22.272C43.8547 22.2732 43.8497 22.2745 43.8459 22.2745C43.8396 22.2758 43.8333 22.277 43.827 22.2783C43.8194 22.2795 43.8131 22.2808 43.8055 22.2821C43.8042 22.2821 43.803 22.2821 43.8017 22.2821C43.7941 22.2833 43.7878 22.2833 43.7815 22.2846C43.7739 22.2858 43.7664 22.2859 43.7588 22.2859C43.7512 22.2859 43.7436 22.2871 43.7348 22.2871C43.707 22.2884 43.6792 22.2871 43.6515 22.2846C43.6414 22.2833 43.6313 22.2833 43.6212 22.2808C43.6161 22.2808 43.6111 22.2795 43.606 22.2783C43.5959 22.277 43.5858 22.2758 43.577 22.2732C43.5694 22.272 43.5618 22.2707 43.5542 22.2682C43.5277 22.2619 43.5 22.2543 43.4734 22.2455L42.8712 22.0272L42.8623 22.0234L32.9371 6.88327L32.9333 6.87697L41.4735 6.64734L41.6099 6.64355H41.625L44.5189 21.8569Z" fill="#F8950C"/>
<path d="M32.7312 2.39062H32.7404L32.7312 2.39326V2.39062Z" fill="#F97008"/>
<path d="M41.6137 6.66896L41.4774 6.67275L32.9486 6.88345H32.9372H32.9271V6.88218V6.88092L32.7693 3.25738C32.7756 3.25738 32.7807 3.25612 32.787 3.25612C32.7945 3.25612 32.8034 3.25486 32.811 3.25486C33.1683 3.22962 33.5281 3.21196 33.8905 3.20061C34.1733 3.19177 34.4561 3.18799 34.7364 3.18799C34.7654 3.18799 34.7932 3.18799 34.8223 3.18799C34.8513 3.18799 34.8791 3.18799 34.9081 3.18799C34.9182 3.18799 34.9271 3.18799 34.9359 3.18799C34.9687 3.18799 35.0015 3.18799 35.0344 3.18925H35.0356C35.0748 3.18925 35.1152 3.19051 35.1543 3.19051C35.1909 3.19051 35.2275 3.19177 35.2629 3.19177C35.2667 3.19177 35.2705 3.19177 35.2743 3.19177C35.2793 3.19177 35.2831 3.19177 35.2882 3.19177C35.2995 3.19177 35.3121 3.19177 35.3235 3.19303C35.3298 3.19303 35.3349 3.19303 35.3412 3.19303C35.3475 3.19303 35.3525 3.19303 35.3589 3.19303C35.3955 3.1943 35.4334 3.1943 35.47 3.19556C35.4977 3.19556 35.5268 3.19682 35.5558 3.19808C35.5849 3.19934 35.6152 3.19934 35.6442 3.20061C35.6732 3.20187 35.701 3.20187 35.7301 3.20313C35.7553 3.20439 35.7793 3.20439 35.8046 3.20565C35.8336 3.20691 35.8626 3.20817 35.8917 3.20944C35.9169 3.2107 35.9422 3.21196 35.9674 3.21322C35.9876 3.21448 36.0091 3.21448 36.0293 3.21574C36.0583 3.21701 36.0886 3.21827 36.1177 3.21953C36.1316 3.22079 36.1467 3.22079 36.1606 3.22205C36.1631 3.22205 36.1657 3.22205 36.1682 3.22205C36.1707 3.22205 36.1732 3.22205 36.1758 3.22205C36.1821 3.22205 36.1896 3.22205 36.196 3.22332L36.2869 3.22836C36.321 3.22962 36.355 3.23215 36.3891 3.23467C36.4068 3.23593 36.4232 3.23719 36.4409 3.23719C36.4662 3.23846 36.4927 3.23972 36.5179 3.24224C36.5507 3.24476 36.5836 3.24603 36.6164 3.24855C36.653 3.25107 36.6909 3.2536 36.7275 3.25612C36.7351 3.25612 36.7414 3.25738 36.749 3.25738L36.7742 3.25864C36.7881 3.2599 36.802 3.26117 36.8172 3.26117C36.8841 3.26621 36.951 3.27126 37.0166 3.27631C37.0469 3.27883 37.076 3.28135 37.1063 3.28388C37.1328 3.2864 37.1606 3.28892 37.1871 3.29145C37.2174 3.29397 37.249 3.29649 37.2793 3.30028C37.3234 3.30406 37.3664 3.30785 37.4106 3.31289C37.4383 3.31542 37.4674 3.31794 37.4964 3.32173C37.4989 3.32173 37.5027 3.32173 37.5053 3.32299C37.528 3.32551 37.5507 3.32803 37.5722 3.3293C37.5785 3.33056 37.5861 3.33056 37.5924 3.33182C37.6164 3.33434 37.6391 3.33687 37.6631 3.33939C37.6719 3.34065 37.6808 3.34065 37.6896 3.34191C37.7237 3.3457 37.7578 3.34948 37.7919 3.35327C37.7969 3.35327 37.8032 3.35453 37.8083 3.35453C37.86 3.36084 37.9118 3.36589 37.9648 3.37219C38.0393 3.38103 38.1138 3.38986 38.1871 3.39869C38.211 3.40121 38.2363 3.405 38.2616 3.40752C38.2969 3.41257 38.3335 3.41635 38.3689 3.4214C38.4004 3.42518 38.4333 3.43023 38.4648 3.43402C38.4964 3.4378 38.5292 3.44285 38.5608 3.44663C38.5936 3.45168 38.6252 3.45546 38.6567 3.46051C38.6883 3.46556 38.7186 3.46934 38.7502 3.47439C38.754 3.47439 38.7565 3.47565 38.7603 3.47565C38.7906 3.47944 38.8196 3.48448 38.8499 3.48953C38.8777 3.49331 38.9055 3.49836 38.9332 3.50215C38.9509 3.50467 38.9686 3.50719 38.985 3.50972C39.0065 3.5135 39.0267 3.51602 39.0481 3.51981C39.0772 3.52486 39.1062 3.52864 39.1353 3.53369C39.1997 3.54378 39.2628 3.55388 39.3259 3.56523C39.3575 3.57028 39.389 3.57659 39.4219 3.58163C39.4534 3.58668 39.485 3.59299 39.5166 3.59803C39.5481 3.60308 39.5797 3.60939 39.6113 3.61444C39.6428 3.61948 39.6744 3.62579 39.706 3.6321C39.7691 3.64345 39.8322 3.65607 39.8953 3.66743C39.9269 3.67373 39.9585 3.68004 39.99 3.68509C40.0216 3.6914 40.0532 3.69771 40.0847 3.70401C40.1112 3.70906 40.1365 3.71411 40.163 3.71916C40.1756 3.72168 40.1883 3.7242 40.2009 3.72672C40.2249 3.73177 40.2489 3.73682 40.2741 3.74187C40.3019 3.74691 40.3284 3.75322 40.3562 3.75827C40.3915 3.76584 40.4269 3.77341 40.4622 3.78098C40.4938 3.78729 40.5254 3.79486 40.5557 3.80116C40.5872 3.80747 40.6175 3.81504 40.6491 3.82135C40.6807 3.82766 40.7122 3.83523 40.7425 3.84154C40.7741 3.84911 40.8044 3.85542 40.836 3.86299C40.8675 3.87056 40.8978 3.87686 40.9294 3.88443C40.9584 3.89074 40.9875 3.89831 41.0178 3.90462C41.038 3.90967 41.0569 3.91345 41.0759 3.9185C41.0784 3.91976 41.0822 3.91976 41.086 3.92102C41.1201 3.92859 41.1541 3.93743 41.1882 3.945C41.2173 3.95257 41.2476 3.95887 41.2766 3.96644L41.442 5.31392L41.6049 6.63994L41.6137 6.66896Z" fill="#F97008"/>
<path d="M32.9501 6.93422L32.9475 6.93675L23.7079 15.0809L23.6688 15.1162L23.6385 15.1427L23.6246 15.1011L23.6019 15.0443L20.4946 7.15123C20.6272 7.07048 20.761 6.991 20.8949 6.91404C24.4238 4.85876 28.4527 3.56428 32.7695 3.25643C32.7758 3.25643 32.7809 3.25517 32.7872 3.25517C32.7948 3.25517 32.8036 3.25391 32.8112 3.25391C32.8074 3.28292 32.8049 3.31194 32.8074 3.31194L32.9475 6.87619V6.88249L32.9488 6.90016L32.9501 6.93422Z" fill="#F46E0F"/>
<path d="M23.6045 15.0433L23.602 15.0421L15.7032 12.1781C15.2361 12.009 15.1047 11.4009 15.4595 11.0539C16.9784 9.56892 18.6665 8.25677 20.496 7.15028C20.6286 7.06953 20.7624 6.99005 20.8962 6.91309L23.6045 15.0433Z" fill="#F24C1C"/>
<path d="M42.8694 22.028L32.9378 6.88277L32.934 6.87646L32.9277 6.88151L23.6553 15.0622L42.8605 22.0242L42.8694 22.028Z" fill="#FD5E12"/>
<path d="M55.5846 14.3076C54.49 14.8703 53.3031 15.5819 52.0241 16.4424L52.0103 16.4525L52.1605 9.41357C52.1706 9.42241 52.182 9.42998 52.1921 9.43881C53.0266 10.1252 53.8195 10.862 54.5683 11.643L54.5746 11.6493L55.5947 14.3013L55.5846 14.3076Z" fill="#F2E21B"/>
<path d="M9.10943 37.8793L20.2821 35.337L20.5952 35.2651L20.7013 35.2411L20.7063 35.2398L20.7354 35.2335L20.7732 35.2247L20.7808 35.2234L20.8237 35.2133L20.8212 35.1036L20.6672 27.3884L20.6634 27.1891L20.6558 26.8244L20.652 26.6604L20.628 25.4479L13.834 23.8519L13.6005 23.7977L12.579 23.558L12.4742 23.534L11.6018 23.3296L11.3152 23.7939L11.2015 23.9794L7.00091 30.7874C6.99712 31.2063 6.99965 31.639 7.01101 32.0844C7.03247 33.0647 7.07288 33.7889 7.12464 34.3327C7.23323 35.4821 7.38852 35.8189 7.49711 36.036C7.82538 36.6731 8.27991 37.2081 8.82283 37.656L9.10943 37.8793Z" fill="#E62878"/>
<path d="M16.1477 21.2656L13.8346 23.8533L13.1629 24.6053L13.1617 24.6065L13.1566 24.6116L13.1427 24.6267L13.1301 24.6406L13.1023 24.5939L12.9091 24.2671L12.4748 23.5328L9.77539 18.9706C9.81958 18.9025 9.86882 18.8381 9.92059 18.7788C10.4673 18.1581 11.4218 18.0117 12.1453 18.5076L15.3371 20.7067L16.1477 21.2656Z" fill="#EA4118"/>
<path d="M13.1676 24.6158L13.1562 24.612L13.1524 24.6108L13.1019 24.5944L11.2017 23.9787L8.14624 22.9883C8.15887 22.9454 8.17275 22.9037 8.18538 22.8621C8.61719 21.5033 9.12853 20.3072 9.65756 19.1818C9.69165 19.1073 9.73079 19.0367 9.77498 18.9711C9.81917 18.9029 9.86841 18.8386 9.92018 18.7793L12.7269 23.3933L13.2761 24.3786L13.1549 24.5944L13.1587 24.6019L13.1612 24.607L13.1625 24.6095L13.1676 24.6158Z" fill="#DB292F"/>
<path d="M13.2937 24.3829L13.1586 24.6012L13.156 24.6062L13.1522 24.6113L13.1421 24.6277L7.12464 34.3338C7.07288 33.79 7.03121 33.0645 7.01101 32.0855C6.99965 31.6401 6.99712 31.2086 7.00091 30.7885C7.03374 27.5724 7.49206 25.0844 8.14482 22.9875C8.15744 22.9446 8.17133 22.903 8.18396 22.8613L11.3139 23.7937L12.9073 24.2681L12.9856 24.2921L13.2747 24.3779L13.2937 24.3829Z" fill="#D61D4C"/>
<path d="M26.8917 28.6698L20.6571 26.8252L20.2581 26.7066L20.1066 26.6624L20.0005 26.6309L13.1623 24.6072H13.1598L13.156 24.6059L13.1484 24.6034L13.1548 24.5933V24.592L13.276 24.3775L13.6004 23.7984L15.3365 20.7061L16.1471 21.265L25.7907 27.9102V27.9115L25.8501 27.9519L26.8917 28.6698Z" fill="#E8313E"/>
<path d="M28.5249 29.7946L26.8924 28.6692L25.8508 27.9513L25.7914 27.9109V27.9097L20.654 26.6606L20.1073 26.5269L19.9898 26.4991L19.9797 26.4966L19.9911 26.5105L20.1073 26.6619L20.6691 27.3886L24.0352 31.7489L24.0491 31.7666L24.0895 31.8196L24.2334 31.7553L24.4342 31.6657L28.559 29.8186L28.5249 29.7946Z" fill="#E92B5F"/>
<path d="M24.1968 31.5804L19.9797 26.376L20.7247 35.4411L24.1968 31.5804Z" fill="#F5368D"/>
<path d="M8.82349 37.6561L9.11009 37.8794C11.0355 39.2887 13.8827 39.748 16.1705 39.8628L16.2109 39.8653L20.707 35.2753L20.7108 35.2716L20.7373 35.2451L20.7095 35.2501L20.7045 35.2514L20.7019 35.1567L20.2322 35.2652L8.82349 37.6561Z" fill="#C91D7B"/>
<path d="M16.2106 39.866C16.7964 39.895 17.3444 39.9013 17.8292 39.895C18.9908 39.8862 20.117 39.5178 21.0665 38.8453L21.1195 38.8074L20.7887 35.3757L20.7786 35.2785L20.7736 35.2268L20.7723 35.2167L20.7673 35.1624L20.7357 35.1952L20.7054 35.1523L20.6991 35.1587L20.6928 35.165L20.5943 35.2672L20.5854 35.2772L16.1702 39.8634L16.2106 39.866Z" fill="#8D1171"/>
<path d="M28.5246 29.7954L24.3581 31.5769L24.1965 31.5807L24.0917 31.6905L24.1561 31.7863L24.0437 31.7409L24.0488 31.7687L24.0929 32.0147L24.8278 36.1164C24.9237 36.047 25.0197 35.9764 25.1169 35.907C25.1257 35.9007 25.1346 35.8944 25.1434 35.8881C26.4805 34.9166 27.8176 33.9451 29.1547 32.9761C30.0991 32.2834 30.0801 30.8691 29.1168 30.2042L28.56 29.8206L28.5246 29.7954Z" fill="#EB2D7D"/>
<path d="M25.1154 35.9051C25.0194 35.9745 24.9235 36.0452 24.8262 36.1146C24.2417 36.5397 23.6558 36.9649 23.0712 37.3901C23.0245 37.4242 22.9765 37.4582 22.9298 37.4923L20.8314 35.331L20.7796 35.2768L20.7367 35.2326L20.7178 35.2124L20.7443 35.1847L20.7683 35.1595L20.8226 35.1027L24.0333 31.7479L24.0422 31.7391L24.0901 31.6898L24.1949 31.5801L24.2076 31.6394L24.2316 31.7542L24.2518 31.8476L25.1154 35.9051Z" fill="#F0328E"/>
<path d="M21.1206 38.8056C21.1244 38.8031 21.1269 38.8006 21.1307 38.7981C21.7304 38.3628 22.3314 37.9275 22.9312 37.4922C22.9779 37.4582 23.0258 37.4241 23.0726 37.39L20.863 35.2994L20.7822 35.2237L20.7734 35.2149L20.7431 35.1871L20.7065 35.1518L20.6989 35.1455L20.6938 35.1644L20.7014 35.2427L20.7027 35.2528L20.7052 35.2767L21.0663 38.8448" fill="#CF2284"/>
<path d="M38.3864 44.6396L31.3045 53.2581L31.2174 53.3653L31.2022 53.3843L31.1782 53.412L31.1479 53.4499L31.1416 53.4574L31.1366 53.4637L31.1113 53.4953V42.4278L31.1492 42.4064C32.9863 41.3529 34.4345 40.717 35.0998 40.5366C36.014 40.2237 37.1692 40.5038 37.4508 41.45L38.221 44.068L38.2222 44.0743L38.3864 44.6396Z" fill="#FC772A"/>
<path d="M31.109 42.4284C30.0913 43.0151 28.9992 43.7796 27.9487 44.7701C27.9071 44.8092 27.8654 44.8483 27.8237 44.8887L31.0762 53.3129L31.0926 53.3545L31.109 53.3974L31.1241 53.4365L31.1355 53.4643L31.1406 53.4769L31.1481 53.4958V53.4933V53.4504V53.3318V53.3242V53.2965V53.2851V42.4082L31.109 42.4284Z" fill="#C32979"/>
<path d="M22.7178 55.8279L31.1178 53.5607L31.1582 53.5506L31.2226 53.533L31.2049 53.4837L31.1784 53.4118L31.1658 53.3778L31.1481 53.3298L31.1443 53.3197L31.1355 53.2983V53.297L31.1102 53.2289L27.9499 44.7681C27.9083 44.8072 27.8666 44.8463 27.8249 44.8867C26.9639 45.7156 26.1343 46.6984 25.3995 47.863C24.0094 50.0545 23.0738 52.7103 22.767 55.3548L22.7178 55.8279Z" fill="#891F85"/>
<path d="M43.1039 60.6741L31.2406 53.5065L31.2217 53.4951L31.2053 53.4838L31.1838 53.4724L31.1472 53.4497L31.1371 53.4434L31.1245 53.4358L31.1093 53.427L31.0601 53.3967L31.0929 53.3538L31.1093 53.3324L31.1144 53.3248L31.1257 53.3097L31.1346 53.2983L31.1358 53.297L31.1472 53.2819L38.2189 44.0679L38.2202 44.0742L38.3869 44.6394L43.0345 60.4382L43.0483 60.4861L43.0509 60.4937L43.1039 60.6741Z" fill="#AABF56"/>
<path d="M31.2694 53.3956L31.2417 53.5053L31.2316 53.5419L31.1899 53.7072L27.7241 67.2867C27.7001 67.2627 27.6761 67.2387 27.6521 67.216C25.0727 64.6712 24.2507 63.3527 24.2507 63.3527C22.9263 61.2382 22.4818 58.5546 22.7204 55.8268L22.7684 55.3537L31.0788 53.3098L31.1116 53.3009H31.1129L31.1167 53.2997L31.1381 53.2946H31.1394L31.1508 53.2808L31.2694 53.3956Z" fill="#5C40AE"/>
<path d="M35.1163 73.909L34.9396 73.846C34.7653 73.7703 34.6037 73.658 34.4661 73.5091L33.783 72.7773C33.7729 72.7672 33.7654 72.7584 33.7565 72.7483C33.7414 72.7306 33.7275 72.7142 33.7085 72.7029C32.8677 71.9244 32.2414 71.3529 32.129 71.2583C30.2869 69.7152 28.8425 68.3892 27.7226 67.289C27.6986 67.265 27.6746 67.2411 27.6506 67.2184L31.1177 53.562L31.1392 53.4774L31.1417 53.4686L31.1467 53.4497L31.1644 53.379L31.1745 53.3399L31.1657 53.3008L31.1947 53.3525L31.201 53.3853L31.2225 53.4963L31.2313 53.5443L34.0393 68.2668L34.1896 69.0579L35.1163 73.909Z" fill="#203BA4"/>
<path d="M43.6367 62.4849L34.2406 69.0784L34.2317 69.0368L34.1913 69.0507L34.0398 68.2659L32.4868 60.1256L31.2268 53.6923L31.2129 53.6178L31.1965 53.5333L31.1851 53.4765L31.1838 53.4727L31.18 53.4513L31.1775 53.4412L31.175 53.4273L31.1649 53.3769L31.1472 53.2822L31.1838 53.3049L31.1864 53.3062L31.3076 53.3794L43.0345 60.4385L43.0484 60.4864L43.0509 60.494L43.1039 60.6744L43.5724 62.2692L43.6342 62.4773L43.6367 62.4849Z" fill="#286EC3"/>
<path d="M43.8791 65.6889C41.47 68.399 39.4259 70.5047 38.2378 71.7273C37.6835 72.2976 37.3161 72.6761 37.1861 72.8338C37.1734 72.8401 37.1659 72.8502 37.1558 72.8615C37.1507 72.8678 37.1457 72.8741 37.1381 72.8817L36.5497 73.51C36.1722 73.9138 35.6116 74.05 35.1154 73.91L34.9387 73.8469L34.1899 69.0576L34.1937 69.055L34.2303 69.0285L43.5722 62.271L43.6328 62.4779L43.6354 62.4855L44.1783 64.3288C44.3184 64.8082 44.2061 65.323 43.8791 65.6889Z" fill="#2A66C6" stroke="#2A66C6" stroke-width="0.023015"/>
<path d="M56.9909 -0.0307617C55.1501 -0.0307617 53.6589 1.4618 53.6589 3.30133C53.6589 5.14212 55.1513 6.63343 56.9909 6.63343C58.8318 6.63343 60.3229 5.14086 60.3229 3.30133C60.3229 1.4618 58.8318 -0.0307617 56.9909 -0.0307617Z" fill="#E3D01E"/>
<path d="M12.0779 40.8491C10.9681 40.8491 10.0679 41.7487 10.0679 42.859C10.0679 43.9693 10.9681 44.8688 12.0779 44.8688C13.1877 44.8688 14.088 43.9693 14.088 42.859C14.088 41.7487 13.1877 40.8491 12.0779 40.8491Z" fill="#C91D7B"/>
</g>
<defs>
<clipPath id="clip0_4780_33786">
<rect width="74" height="74" fill="white"/>
</clipPath>
</defs>
</svg>
