<svg width="16" height="16" viewBox="0 0 16 16" fill="none" xmlns="http://www.w3.org/2000/svg">
<path d="M6.2 7.40025H5V8.60025H6.2V7.40025Z" fill="#19191E"/>
<path d="M8.60039 7.40025H7.40039V8.60025H8.60039V7.40025Z" fill="#19191E"/>
<path d="M11.0008 7.40025H9.80078V8.60025H11.0008V7.40025Z" fill="#19191E"/>
<path d="M6.2 9.80009H5V11.0001H6.2V9.80009Z" fill="#19191E"/>
<path d="M8.60039 9.80009H7.40039V11.0001H8.60039V9.80009Z" fill="#19191E"/>
<path d="M11.0008 9.80009H9.80078V11.0001H11.0008V9.80009Z" fill="#19191E"/>
<path d="M13.4 3.2H12.2V2.6C12.2 2.24 11.96 2 11.6 2C11.24 2 11 2.24 11 2.6V3.2H5V2.6C5 2.24 4.76 2 4.4 2C4.04 2 3.8 2.24 3.8 2.6V3.2H2.6C2.24 3.2 2 3.44 2 3.8V13.4C2 13.76 2.24 14 2.6 14H13.4C13.7 14 14 13.76 14 13.4V3.8C14 3.44 13.7 3.2 13.4 3.2ZM12.8 12.8H3.2V5.6H12.8V12.8Z" fill="#19191E"/>
</svg>
