<svg width="16" height="17" viewBox="0 0 16 17" fill="none" xmlns="http://www.w3.org/2000/svg">
<path d="M3.33331 7.5C3.33331 4.5 5.33331 2.5 8.33331 2.5C11.3333 2.5 13.3333 5 13.3333 7.5C13.3333 9.05504 11.8824 11.1904 8.98064 13.9062C8.61025 14.2528 8.03898 14.2672 7.65162 13.9397C4.77275 11.5052 3.33331 9.35867 3.33331 7.5ZM8.33331 8.5C9.25379 8.5 9.99998 7.75381 9.99998 6.83333C9.99998 5.91286 9.25379 5.16667 8.33331 5.16667C7.41284 5.16667 6.66665 5.91286 6.66665 6.83333C6.66665 7.75381 7.41284 8.5 8.33331 8.5Z" fill="#2C66C7"/>
</svg>
