<?xml version="1.0" encoding="UTF-8"?> <svg xmlns="http://www.w3.org/2000/svg" width="126" height="57" viewBox="0 0 126 57" fill="none"> <g clip-path="url(#clip0_101_264)"> <path d="M48.7048 45C47.9508 45 47.4178 44.844 47.1058 44.532C46.8198 44.22 46.6768 43.726 46.6768 43.05V20.469C46.6768 19.793 46.8328 19.299 47.1448 18.987C47.4568 18.649 47.9768 18.48 48.7048 18.48H52.4878C53.2418 18.48 53.7748 18.649 54.0868 18.987C54.3988 19.299 54.5548 19.793 54.5548 20.469V28.893H63.4468V20.469C63.4468 19.793 63.6028 19.299 63.9148 18.987C64.2268 18.649 64.7598 18.48 65.5138 18.48H69.2968C70.0508 18.48 70.5838 18.649 70.8958 18.987C71.2078 19.299 71.3638 19.793 71.3638 20.469V43.05C71.3638 43.726 71.2078 44.22 70.8958 44.532C70.5838 44.844 70.0508 45 69.2968 45H65.5138C64.7598 45 64.2268 44.844 63.9148 44.532C63.6028 44.22 63.4468 43.726 63.4468 43.05V34.548H54.5548V43.05C54.5548 43.726 54.3988 44.22 54.0868 44.532C53.7748 44.844 53.2418 45 52.4878 45H48.7048Z" fill="#052263"></path> <path d="M86.993 45.585C84.523 45.585 82.339 45.182 80.441 44.376C78.569 43.57 77.113 42.4 76.073 40.866C75.033 39.332 74.513 37.512 74.513 35.406V20.469C74.513 19.793 74.669 19.299 74.981 18.987C75.293 18.649 75.813 18.48 76.541 18.48H80.324C81.078 18.48 81.611 18.649 81.923 18.987C82.235 19.299 82.391 19.793 82.391 20.469V35.523C82.391 36.979 82.794 38.097 83.6 38.877C84.432 39.631 85.563 40.008 86.993 40.008C88.423 40.008 89.541 39.631 90.347 38.877C91.153 38.097 91.556 36.979 91.556 35.523V20.469C91.556 19.793 91.712 19.299 92.024 18.987C92.336 18.649 92.856 18.48 93.584 18.48H97.367C98.121 18.48 98.654 18.649 98.966 18.987C99.304 19.299 99.473 19.793 99.473 20.469V35.406C99.473 37.512 98.94 39.332 97.874 40.866C96.834 42.4 95.378 43.57 93.506 44.376C91.634 45.182 89.463 45.585 86.993 45.585Z" fill="#052263"></path> <path d="M104.653 45C103.899 45 103.366 44.844 103.054 44.532C102.768 44.22 102.625 43.726 102.625 43.05V20.469C102.625 19.793 102.781 19.299 103.093 18.987C103.405 18.649 103.925 18.48 104.653 18.48H116.275C119.317 18.48 121.566 19.156 123.022 20.508C124.478 21.834 125.206 23.693 125.206 26.085C125.206 27.255 124.907 28.321 124.309 29.283C123.737 30.219 122.983 30.882 122.047 31.272C124.621 32.104 125.908 33.989 125.908 36.927C125.908 39.293 125.076 41.23 123.412 42.738C121.774 44.246 119.356 45 116.158 45H104.653ZM114.793 28.854C115.599 28.854 116.223 28.659 116.665 28.269C117.107 27.853 117.328 27.255 117.328 26.475C117.328 25.643 117.12 25.045 116.704 24.681C116.288 24.317 115.651 24.135 114.793 24.135H110.503V28.854H114.793ZM115.456 39.345C116.288 39.345 116.925 39.111 117.367 38.643C117.835 38.149 118.069 37.512 118.069 36.732C118.069 35.848 117.822 35.185 117.328 34.743C116.834 34.301 116.158 34.08 115.3 34.08H110.503V39.345H115.456Z" fill="#052263"></path> <path d="M45.3779 2.71995H54.0899V3.74595H50.6699V10.2979C50.6699 10.5619 50.6279 10.7479 50.5439 10.8559C50.4719 10.9519 50.2979 10.9999 50.0219 10.9999H48.8159V3.74595H45.3779V2.71995Z" fill="#052263"></path> <path d="M60.9185 7.77795C60.9185 7.77795 60.7625 7.77795 60.4505 7.77795C60.1505 7.77795 59.7485 7.77795 59.2445 7.77795C58.7405 7.77795 58.1945 7.78395 57.6065 7.79595V10.9999H55.7525V3.70995C55.7525 3.36195 55.8245 3.11595 55.9685 2.97195C56.1245 2.81595 56.3945 2.73195 56.7785 2.71995C56.9585 2.70795 57.2045 2.70195 57.5165 2.70195C57.8285 2.70195 58.1825 2.70195 58.5785 2.70195C58.9745 2.68995 59.3765 2.68395 59.7845 2.68395C60.2045 2.68395 60.6065 2.68395 60.9905 2.68395C61.3745 2.68395 61.7105 2.68995 61.9985 2.70195C62.2985 2.71395 62.5265 2.72595 62.6825 2.73795C63.3185 2.79795 63.7865 3.00195 64.0865 3.34995C64.3865 3.69795 64.5365 4.22595 64.5365 4.93395C64.5365 5.52195 64.4645 5.97795 64.3205 6.30195C64.1885 6.61395 63.9845 6.85395 63.7085 7.02195C63.6605 7.05795 63.5825 7.08795 63.4745 7.11195C63.3785 7.13595 63.2765 7.14795 63.1685 7.14795V7.20195C63.2285 7.20195 63.2945 7.20195 63.3665 7.20195C63.4385 7.20195 63.4985 7.20195 63.5465 7.20195C64.0025 7.28595 64.2785 7.46595 64.3745 7.74195C64.4705 8.01795 64.5185 8.29995 64.5185 8.58795V10.4959C64.5185 10.6519 64.5305 10.7719 64.5545 10.8559C64.5905 10.9399 64.6145 10.9879 64.6265 10.9999H63.2765C63.0725 10.9999 62.9105 10.9699 62.7905 10.9099C62.6705 10.8379 62.6105 10.6699 62.6105 10.4059V8.71395C62.6105 8.34195 62.5265 8.09595 62.3585 7.97595C62.2025 7.84395 61.9205 7.77795 61.5125 7.77795H60.9185ZM57.6065 6.82395C57.7625 6.82395 58.0025 6.82995 58.3265 6.84195C58.6625 6.84195 59.0285 6.84795 59.4245 6.85995C59.8205 6.85995 60.1865 6.85995 60.5225 6.85995C60.8585 6.85995 61.0985 6.85995 61.2425 6.85995C61.6145 6.85995 61.9385 6.74595 62.2145 6.51795C62.5025 6.28995 62.6465 5.86395 62.6465 5.23995C62.6465 4.80795 62.5625 4.46595 62.3945 4.21395C62.2385 3.96195 61.9805 3.81795 61.6205 3.78195C61.4045 3.74595 61.1225 3.72795 60.7745 3.72795C60.4265 3.71595 60.0665 3.70995 59.6945 3.70995C59.3225 3.70995 58.9805 3.71595 58.6685 3.72795C58.3685 3.72795 58.1405 3.73395 57.9845 3.74595C57.9485 3.74595 57.8765 3.76395 57.7685 3.79995C57.6605 3.83595 57.6065 3.94995 57.6065 4.14195V6.82395Z" fill="#052263"></path> <path d="M65.7652 10.9999L68.2852 3.99795C68.4532 3.56595 68.6812 3.23595 68.9692 3.00795C69.2572 2.76795 69.7252 2.64795 70.3732 2.64795C70.9492 2.64795 71.3872 2.75595 71.6872 2.97195C71.9992 3.18795 72.2392 3.52995 72.4072 3.99795L74.9812 10.9999H72.9832L72.2092 8.83995H67.9432L67.1872 10.9999H65.7652ZM68.2312 8.06595H71.8672L70.7332 4.77195C70.6852 4.61595 70.6192 4.47795 70.5352 4.35795C70.4632 4.23795 70.3012 4.17795 70.0492 4.17795C69.7852 4.17795 69.6112 4.24395 69.5272 4.37595C69.4432 4.49595 69.3772 4.62795 69.3292 4.77195L68.2312 8.06595Z" fill="#052263"></path> <path d="M78.7696 10.9999C78.2776 10.9999 77.9056 10.8919 77.6536 10.6759C77.4136 10.4599 77.2036 10.1179 77.0236 9.64995L74.5216 2.71995H76.5376L78.5176 8.74995C78.6016 9.00195 78.7096 9.17595 78.8416 9.27195C78.9736 9.36795 79.1176 9.41595 79.2736 9.41595H79.5076L81.8296 2.71995H83.2336L80.1376 10.9999H78.7696Z" fill="#052263"></path> <path d="M84.9519 10.9999V3.40395C84.9519 3.13995 84.9879 2.95995 85.0599 2.86395C85.1439 2.76795 85.3179 2.71995 85.5819 2.71995H93.0699V3.74595H86.8059V6.17595H92.5299V7.20195H86.8059V9.97395H93.0699V10.9999H84.9519Z" fill="#052263"></path> <path d="M96.9305 2.71995V9.97395H102.402V10.9999H95.0945V3.42195C95.0945 3.26595 95.1005 3.13995 95.1125 3.04395C95.1245 2.93595 95.1785 2.85795 95.2745 2.80995C95.3705 2.74995 95.5205 2.71995 95.7245 2.71995H96.9305Z" fill="#052263"></path> <g clip-path="url(#clip1_101_264)"> <path d="M33.1033 25.3986L32.3267 24.8864L31.1036 26.5514L31.0222 26.6624L31.0105 26.6781L30.998 26.6945L30.9823 26.7164L30.865 26.8759L30.786 26.9839L30.7399 27.0464L26.7881 32.4247L26.8045 32.9589L26.8616 34.7678C26.8733 35.1682 27.3832 35.3246 27.621 35.0056C29.7052 32.1612 31.6846 28.9781 32.95 25.7943L33.1033 25.3986Z" fill="#59CBAF"></path> <path d="M31.3375 26.7281L31.2867 26.7985L31.1498 26.9854L31.1279 26.9353L31.1083 26.969L31.081 26.9932L31.0004 27.0558L30.9496 27.1082L26.8054 32.9581L26.7882 32.4239L26.6052 26.6014L26.5981 26.6006V26.2589L30.5539 26.6507L30.8221 26.6773L30.977 26.6921L30.9981 26.6945L31.0075 26.6952L31.0161 26.696L31.2264 26.7171L31.3375 26.7281Z" fill="#A1D04C"></path> <path d="M31.129 26.9995L31.0383 27.0597L31.0148 27.0753L30.9499 27.0683L30.9421 27.0675L30.9069 27.0636L30.838 27.0566L30.7411 27.0464L26.6063 26.6022L26.5992 26.6014V26.3777L26.4217 20.7366L26.4053 20.215C26.4053 20.2134 26.4053 20.2111 26.4053 20.2095L30.666 25.9593L30.8811 26.2502L31.0476 26.4747L31.0555 26.4849L31.1047 26.5521L31.2275 26.7179L31.2877 26.7993L31.3362 26.8642L31.129 26.9995Z" fill="#E5ED28"></path> <path d="M30.9396 27.1254L30.931 27.1308L30.8379 27.0558L30.7871 26.9822L30.5548 26.6499L26.4216 20.7351L26.4052 20.2134C26.4052 20.2119 26.4052 20.2095 26.4052 20.208C26.3841 19.4149 26.7485 18.6626 27.3906 18.1988L28.749 17.2118L28.8765 17.1188L30.8802 26.2487L30.9771 26.6913L30.9826 26.7148L30.9944 26.7687L30.999 26.7899L31.0554 27.0464L31.0335 27.0487L31.0006 27.0534L30.9396 27.1254Z" fill="#DEDD23"></path> <path d="M33.3477 13.6323L33.3313 13.723L33.3211 13.7786L31.0539 26.4841L31.0218 26.6616L31.0156 26.696L30.9984 26.7914L30.9491 27.0683L30.9397 27.1223L30.9389 27.1254L30.9381 27.1238L30.9334 27.1144L30.9061 27.0636L30.8646 26.8751L30.8208 26.6765L30.6636 25.9585L28.7476 17.2126L28.875 17.1196L30.4658 15.9645C31.5075 15.2082 32.3857 14.491 33.1006 13.813C33.1428 13.7731 33.1835 13.734 33.2241 13.6941L33.3477 13.6323Z" fill="#C5DF26"></path> <path d="M33.1034 25.3986C33.9293 23.2174 34.4079 21.0432 34.3438 18.984C34.3031 17.7476 34.1413 16.5463 33.8628 15.3912C33.8284 15.2403 33.8746 15.0893 33.9848 14.9845C34.5526 14.4558 35.0344 13.9444 35.4325 13.4462L35.488 13.3766L33.3318 13.7238L33.2896 13.7309L33.2802 13.7864L31.0474 26.4747L31.0114 26.6788L31.0083 26.696L30.995 26.7703L30.9426 27.0675L30.9316 27.1309L30.9402 27.1254L31.0153 27.0753L31.056 27.0487L31.1506 26.9862L31.3352 26.8642L32.9509 25.7943L33.1034 25.3986Z" fill="#9DC62A"></path> <path d="M36.8472 10.5604C36.7033 11.4668 36.2575 12.3959 35.4872 13.3758L35.4316 13.4455L33.3208 13.7786L33.2786 13.7857L33.1011 13.8138C33.1433 13.7739 33.184 13.7348 33.2246 13.6949C34.5291 12.4335 35.2596 11.3088 35.4152 10.3226C35.4606 10.0302 35.4543 9.75564 35.3941 9.50069C35.362 9.36226 35.3136 9.23009 35.2494 9.10262L35.983 7.65735C36.0268 7.70349 36.0698 7.7512 36.1113 7.80047C36.166 7.8646 36.2176 7.93186 36.2677 8.00068C36.7948 8.73191 36.9981 9.61409 36.8472 10.5604Z" fill="#B7C017"></path> <path d="M36.1113 7.80041L35.3941 9.50063C35.362 9.3622 35.3136 9.23003 35.2494 9.10255C35.2041 9.01262 35.1517 8.92581 35.0907 8.84212C34.7896 8.4245 34.3547 8.16876 33.787 8.0757C32.8446 7.92241 31.6151 8.2368 30.0995 9.01496L30.0932 9.01809L29.4629 7.36714L29.4668 7.37105C29.4715 7.37574 29.4762 7.38044 29.4801 7.38513C29.6076 7.51261 29.7992 7.5478 29.9611 7.47194C31.5432 6.73444 32.8704 6.47323 34.0122 6.65311C34.7997 6.77902 35.4739 7.12235 35.9822 7.65651C36.0276 7.70343 36.0698 7.75114 36.1113 7.80041Z" fill="#E9D912"></path> <path d="M27.8793 10.3476C27.561 10.5619 27.2334 10.7918 26.8971 11.0366L25.1491 12.3083L25.1343 12.3192L27.8692 5.90076C27.8747 5.90467 27.8801 5.90936 27.8856 5.91405C27.9145 5.93751 27.9443 5.96098 27.9732 5.98522C27.9794 5.99069 27.9865 5.99539 27.9927 6.00086L27.8887 10.3414L27.8793 10.3476Z" fill="#F3D71A"></path> <path d="M27.8853 5.91405L25.1489 12.3083L25.134 12.3192L23.2406 13.6972L22.9802 13.8873C22.9747 13.8912 22.9692 13.8951 22.9638 13.899C22.9606 13.9013 22.9575 13.9029 22.9544 13.9053C22.9536 13.906 22.9528 13.9068 22.9512 13.9068C22.9481 13.9092 22.9442 13.9107 22.9411 13.9131C22.9395 13.9139 22.9387 13.9146 22.9372 13.9154C22.934 13.917 22.9309 13.9185 22.9278 13.9201C22.9262 13.9209 22.9239 13.9225 22.9223 13.9232C22.92 13.9248 22.9168 13.9256 22.9145 13.9271C22.9129 13.9279 22.9114 13.9287 22.909 13.9295C22.9051 13.9311 22.9012 13.9326 22.8973 13.9342C22.8965 13.9342 22.8965 13.935 22.8957 13.935C22.8926 13.9365 22.8887 13.9381 22.8848 13.9389C22.8785 13.9412 22.8723 13.9436 22.866 13.9451C22.8621 13.9467 22.8582 13.9475 22.8543 13.9483C22.8535 13.9483 22.8527 13.949 22.8527 13.949C22.8504 13.9498 22.8472 13.9506 22.8449 13.9514C22.8402 13.9522 22.8363 13.9537 22.8316 13.9545C22.8292 13.9553 22.8261 13.9561 22.8238 13.9561C22.8199 13.9569 22.8159 13.9577 22.812 13.9584C22.8073 13.9592 22.8034 13.96 22.7987 13.9608C22.798 13.9608 22.7972 13.9608 22.7964 13.9608C22.7917 13.9616 22.7878 13.9616 22.7839 13.9623C22.7792 13.9631 22.7745 13.9631 22.7698 13.9631L21.3558 4.285L21.3535 4.27014L21.2385 3.48103L21.0195 2.55975C21.0375 2.56366 21.0555 2.56836 21.0743 2.57227C21.0868 2.57539 21.0985 2.57774 21.1103 2.58087C21.1118 2.58165 21.1142 2.58165 21.1165 2.58243C21.1376 2.58713 21.1587 2.5926 21.1799 2.59729C21.1978 2.60199 21.2166 2.6059 21.2346 2.61059C23.695 3.212 25.9505 4.34913 27.8689 5.90154C27.8744 5.90467 27.8799 5.90936 27.8853 5.91405Z" fill="#F9B411"></path> <path d="M23.2398 13.6972L22.9793 13.8873C22.9739 13.8912 22.9684 13.8951 22.9629 13.899C22.9598 13.9014 22.9566 13.9029 22.9535 13.9053C22.9527 13.906 22.952 13.9068 22.9504 13.9068C22.9473 13.9092 22.9434 13.9107 22.9402 13.9131C22.9387 13.9139 22.9379 13.9147 22.9363 13.9154C22.9332 13.917 22.9301 13.9186 22.9269 13.9201C22.9254 13.9209 22.923 13.9225 22.9215 13.9233C22.9191 13.9248 22.916 13.9256 22.9136 13.9272C22.9121 13.9279 22.9105 13.9287 22.9082 13.9295C22.9042 13.9311 22.9003 13.9326 22.8964 13.9342C22.8956 13.9342 22.8956 13.935 22.8949 13.935C22.8917 13.9365 22.8878 13.9381 22.8839 13.9389C22.8777 13.9412 22.8714 13.9436 22.8651 13.9452C22.8612 13.9467 22.8573 13.9475 22.8534 13.9483C22.8526 13.9483 22.8518 13.9491 22.8518 13.9491C22.8495 13.9498 22.8464 13.9506 22.844 13.9514C22.8393 13.9522 22.8354 13.9538 22.8307 13.9545C22.8284 13.9553 22.8253 13.9561 22.8229 13.9561C22.819 13.9569 22.8151 13.9577 22.8112 13.9584C22.8065 13.9592 22.8026 13.96 22.7979 13.9608C22.7971 13.9608 22.7963 13.9608 22.7955 13.9608C22.7908 13.9616 22.7869 13.9616 22.783 13.9624C22.7783 13.9631 22.7736 13.9631 22.7689 13.9631C22.7643 13.9631 22.7596 13.9639 22.7541 13.9639C22.7369 13.9647 22.7197 13.9639 22.7025 13.9624C22.6962 13.9616 22.69 13.9616 22.6837 13.96C22.6806 13.96 22.6774 13.9592 22.6743 13.9584C22.6681 13.9577 22.6618 13.9569 22.6563 13.9553C22.6516 13.9545 22.6469 13.9538 22.6423 13.9522C22.6258 13.9483 22.6086 13.9436 22.5922 13.9381L22.2192 13.8028L22.2137 13.8005L16.0658 4.41562L16.0635 4.41171L21.3534 4.26937L21.4379 4.26703H21.4472L23.2398 13.6972Z" fill="#F8950C"></path> <path d="M15.9385 1.63147H15.944L15.9385 1.63304V1.63147Z" fill="#F97008"></path> <path d="M21.4403 4.28273L21.3559 4.28508L16.073 4.41568H16.0659H16.0597V4.4149V4.41412L15.9619 2.16801C15.9658 2.16801 15.969 2.16723 15.9729 2.16723C15.9776 2.16723 15.983 2.16645 15.9877 2.16645C16.209 2.15081 16.4319 2.13986 16.6564 2.13282C16.8316 2.12735 17.0068 2.125 17.1804 2.125C17.1984 2.125 17.2156 2.125 17.2336 2.125C17.2515 2.125 17.2688 2.125 17.2867 2.125C17.293 2.125 17.2985 2.125 17.3039 2.125C17.3243 2.125 17.3446 2.125 17.3649 2.12578H17.3657C17.39 2.12578 17.415 2.12656 17.4392 2.12656C17.4619 2.12656 17.4846 2.12735 17.5065 2.12735C17.5088 2.12735 17.5112 2.12735 17.5135 2.12735C17.5167 2.12735 17.519 2.12735 17.5221 2.12735C17.5292 2.12735 17.537 2.12735 17.544 2.12813C17.548 2.12813 17.5511 2.12813 17.555 2.12813C17.5589 2.12813 17.562 2.12813 17.5659 2.12813C17.5886 2.12891 17.6121 2.12891 17.6348 2.12969C17.652 2.12969 17.67 2.13047 17.6879 2.13126C17.7059 2.13204 17.7247 2.13204 17.7427 2.13282C17.7607 2.1336 17.7779 2.1336 17.7959 2.13438C17.8115 2.13517 17.8264 2.13517 17.842 2.13595C17.86 2.13673 17.878 2.13751 17.896 2.1383C17.9116 2.13908 17.9273 2.13986 17.9429 2.14064C17.9554 2.14142 17.9687 2.14142 17.9812 2.14221C17.9992 2.14299 18.018 2.14377 18.036 2.14455C18.0446 2.14533 18.054 2.14533 18.0626 2.14612C18.0641 2.14612 18.0657 2.14612 18.0672 2.14612C18.0688 2.14612 18.0704 2.14612 18.0719 2.14612C18.0759 2.14612 18.0805 2.14612 18.0845 2.1469L18.1408 2.15003C18.1619 2.15081 18.183 2.15237 18.2041 2.15394C18.2151 2.15472 18.2252 2.1555 18.2362 2.1555C18.2518 2.15628 18.2682 2.15706 18.2839 2.15863C18.3042 2.16019 18.3245 2.16098 18.3449 2.16254C18.3676 2.1641 18.391 2.16567 18.4137 2.16723C18.4184 2.16723 18.4223 2.16801 18.427 2.16801L18.4426 2.1688C18.4512 2.16958 18.4598 2.17036 18.4692 2.17036C18.5107 2.17349 18.5521 2.17662 18.5928 2.17974C18.6116 2.18131 18.6296 2.18287 18.6483 2.18444C18.6647 2.186 18.682 2.18757 18.6984 2.18913C18.7171 2.19069 18.7367 2.19226 18.7555 2.1946C18.7828 2.19695 18.8094 2.1993 18.8368 2.20242C18.854 2.20399 18.872 2.20555 18.89 2.2079C18.8915 2.2079 18.8939 2.2079 18.8955 2.20868C18.9095 2.21025 18.9236 2.21181 18.9369 2.21259C18.9408 2.21337 18.9455 2.21337 18.9494 2.21416C18.9643 2.21572 18.9784 2.21728 18.9932 2.21885C18.9987 2.21963 19.0042 2.21963 19.0096 2.22041C19.0308 2.22276 19.0519 2.22511 19.073 2.22745C19.0761 2.22745 19.08 2.22823 19.0832 2.22823C19.1152 2.23214 19.1473 2.23527 19.1801 2.23918C19.2263 2.24466 19.2724 2.25013 19.3178 2.25561C19.3326 2.25717 19.3483 2.25952 19.3639 2.26108C19.3858 2.26421 19.4085 2.26655 19.4304 2.26968C19.4499 2.27203 19.4703 2.27516 19.4898 2.2775C19.5094 2.27985 19.5297 2.28298 19.5493 2.28532C19.5696 2.28845 19.5892 2.2908 19.6087 2.29393C19.6283 2.29706 19.647 2.2994 19.6666 2.30253C19.6689 2.30253 19.6705 2.30331 19.6728 2.30331C19.6916 2.30566 19.7096 2.30879 19.7284 2.31191C19.7456 2.31426 19.7628 2.31739 19.78 2.31974C19.7909 2.3213 19.8019 2.32286 19.812 2.32443C19.8253 2.32677 19.8379 2.32834 19.8512 2.33068C19.8691 2.33381 19.8871 2.33616 19.9051 2.33929C19.945 2.34554 19.9841 2.3518 20.0232 2.35884C20.0428 2.36197 20.0623 2.36588 20.0826 2.36901C20.1022 2.37213 20.1217 2.37604 20.1413 2.37917C20.1608 2.3823 20.1804 2.38621 20.2 2.38934C20.2195 2.39247 20.2391 2.39638 20.2586 2.40029C20.2977 2.40733 20.3368 2.41515 20.3759 2.42219C20.3955 2.4261 20.415 2.43001 20.4346 2.43314C20.4541 2.43705 20.4737 2.44096 20.4932 2.44487C20.5097 2.448 20.5253 2.45112 20.5417 2.45425C20.5495 2.45582 20.5574 2.45738 20.5652 2.45894C20.58 2.46207 20.5949 2.4652 20.6105 2.46833C20.6277 2.47146 20.6442 2.47537 20.6614 2.4785C20.6833 2.48319 20.7052 2.48788 20.7271 2.49257C20.7466 2.49648 20.7662 2.50118 20.7849 2.50509C20.8045 2.509 20.8233 2.51369 20.8428 2.5176C20.8624 2.52151 20.8819 2.5262 20.9007 2.53011C20.9202 2.5348 20.939 2.53872 20.9586 2.54341C20.9781 2.5481 20.9969 2.55201 21.0164 2.5567C21.0344 2.56061 21.0524 2.56531 21.0712 2.56922C21.0837 2.57234 21.0954 2.57469 21.1072 2.57782C21.1087 2.5786 21.1111 2.5786 21.1134 2.57938C21.1345 2.58408 21.1556 2.58955 21.1768 2.59424C21.1947 2.59893 21.2135 2.60284 21.2315 2.60754L21.334 3.44279L21.4348 4.26474L21.4403 4.28273Z" fill="#F97008"></path> <path d="M16.074 4.44768L16.0724 4.44925L10.3493 9.49751L10.325 9.51941L10.3062 9.53583L10.2976 9.51002L10.2836 9.47483L8.35889 4.5822C8.441 4.53215 8.5239 4.48287 8.6068 4.43517C10.7927 3.16118 13.2883 2.35877 15.9622 2.16795C15.9661 2.16795 15.9692 2.16716 15.9731 2.16716C15.9778 2.16716 15.9833 2.16638 15.988 2.16638C15.9856 2.18437 15.9841 2.20236 15.9856 2.20236L16.0724 4.41171V4.41562L16.0732 4.42657L16.074 4.44768Z" fill="#F46E0F"></path> <path d="M10.2851 9.47405L10.2836 9.47327L5.39094 7.69797C5.10157 7.59317 5.02024 7.21621 5.24 7.00114C6.18083 6.08065 7.22646 5.26729 8.35968 4.58142C8.4418 4.53136 8.5247 4.48209 8.6076 4.43439L10.2851 9.47405Z" fill="#F24C1C"></path> <path d="M22.218 13.8036L16.0662 4.41565L16.0638 4.41174L16.0599 4.41487L10.3164 9.48582L22.2125 13.8013L22.218 13.8036Z" fill="#FD5E12"></path> <path d="M30.0939 9.01809C29.4159 9.36689 28.6807 9.80798 27.8885 10.3414L27.8799 10.3476L27.973 5.98444C27.9792 5.98991 27.9862 5.9946 27.9925 6.00008C28.5095 6.42552 29.0006 6.88225 29.4644 7.36635L29.4683 7.37027L30.1002 9.01418L30.0939 9.01809Z" fill="#F2E21B"></path> <path d="M1.30659 23.6295L8.22713 22.0536L8.42108 22.009L8.48678 21.9942L8.4899 21.9934L8.50789 21.9895L8.53135 21.984L8.53605 21.9832L8.56264 21.977L8.56107 21.9089L8.46566 17.1266L8.46331 17.003L8.45862 16.777L8.45628 16.6753L8.44142 15.9238L4.23309 14.9344L4.08841 14.9008L3.45572 14.7522L3.3908 14.7374L2.85039 14.6107L2.67286 14.8985L2.60248 15.0134L0.000528682 19.2335C-0.00181753 19.4931 -0.000253388 19.7614 0.00678525 20.0374C0.0200804 20.6451 0.0451067 21.094 0.0771716 21.4311C0.14443 22.1436 0.240624 22.3524 0.307882 22.4869C0.511221 22.8818 0.792766 23.2134 1.12906 23.4911L1.30659 23.6295Z" fill="#E62878"></path> <path d="M5.66635 13.3305L4.2336 14.9345L3.81753 15.4006L3.81675 15.4014L3.81362 15.4045L3.80502 15.4139L3.7972 15.4225L3.77999 15.3936L3.66034 15.191L3.39131 14.7359L1.71924 11.9079C1.74661 11.8657 1.77711 11.8258 1.80918 11.789C2.14781 11.4042 2.73906 11.3135 3.18718 11.6209L5.16426 12.984L5.66635 13.3305Z" fill="#EA4118"></path> <path d="M3.82026 15.4077L3.81322 15.4053L3.81087 15.4045L3.77959 15.3944L2.60257 15.0127L0.709961 14.3988C0.717782 14.3722 0.726384 14.3464 0.734205 14.3206C1.00167 13.4783 1.31841 12.7369 1.6461 12.0393C1.66722 11.9931 1.69146 11.9493 1.71883 11.9087C1.7462 11.8664 1.77671 11.8266 1.80877 11.7898L3.54731 14.6498L3.88751 15.2606L3.81243 15.3944L3.81478 15.3991L3.81635 15.4022L3.81713 15.4037L3.82026 15.4077Z" fill="#DB292F"></path> <path d="M3.89837 15.2629L3.81469 15.3982L3.81312 15.4014L3.81078 15.4045L3.80452 15.4147L0.0771716 21.4311C0.0451067 21.0941 0.0192984 20.6444 0.00678525 20.0375C-0.000253388 19.7614 -0.00181753 19.4939 0.000528682 19.2335C0.0208625 17.24 0.304754 15.6978 0.709085 14.398C0.716905 14.3714 0.725508 14.3456 0.733329 14.3198L2.67208 14.8977L3.65905 15.1918L3.70754 15.2066L3.88664 15.2598L3.89837 15.2629Z" fill="#D61D4C"></path> <path d="M12.3214 17.9204L8.45957 16.7771L8.21243 16.7035L8.11858 16.6762L8.05289 16.6566L3.8172 15.4022H3.81563L3.81329 15.4014L3.80859 15.3998L3.8125 15.3936V15.3928L3.88758 15.2598L4.08857 14.9009L5.16392 12.984L5.66601 13.3305L11.6395 17.4496V17.4504L11.6762 17.4754L12.3214 17.9204Z" fill="#E8313E"></path> <path d="M13.3326 18.618L12.3214 17.9204L11.6762 17.4754L11.6394 17.4504V17.4496L8.45718 16.6753L8.11854 16.5924L8.04581 16.5752L8.03955 16.5737L8.04659 16.5823L8.11854 16.6761L8.46656 17.1266L10.5516 19.8294L10.5602 19.8404L10.5852 19.8732L10.6743 19.8333L10.7987 19.7778L13.3537 18.6329L13.3326 18.618Z" fill="#E92B5F"></path> <path d="M10.6517 19.7246L8.03955 16.4986L8.50097 22.1178L10.6517 19.7246Z" fill="#F5368D"></path> <path d="M1.12939 23.4911L1.30692 23.6295C2.49958 24.5031 4.26315 24.7878 5.68026 24.859L5.70529 24.8605L8.49024 22.0153L8.49259 22.013L8.50901 21.9966L8.49181 21.9997L8.48868 22.0005L8.48711 21.9418L8.19618 22.0091L1.12939 23.4911Z" fill="#C91D7B"></path> <path d="M5.7052 24.8605C6.06808 24.8785 6.4075 24.8824 6.70782 24.8785C7.42732 24.873 8.12493 24.6447 8.71305 24.2278L8.74589 24.2044L8.54099 22.0771L8.53473 22.0169L8.53161 21.9849L8.53082 21.9786L8.52769 21.945L8.50814 21.9653L8.48937 21.9387L8.48546 21.9426L8.48155 21.9465L8.42055 22.0099L8.41508 22.0161L5.68018 24.859L5.7052 24.8605Z" fill="#8D1171"></path> <path d="M13.3327 18.618L10.7519 19.7223L10.6518 19.7247L10.5868 19.7927L10.6267 19.8521L10.5571 19.824L10.5603 19.8412L10.5876 19.9937L11.0428 22.5362C11.1022 22.4932 11.1617 22.4494 11.2219 22.4064C11.2274 22.4025 11.2328 22.3986 11.2383 22.3947C12.0665 21.7925 12.8947 21.1903 13.7229 20.5896C14.3079 20.1603 14.2962 19.2836 13.6995 18.8714L13.3546 18.6337L13.3327 18.618Z" fill="#EB2D7D"></path> <path d="M11.221 22.4056C11.1616 22.4486 11.1021 22.4924 11.0419 22.5354C10.6798 22.799 10.3169 23.0625 9.95485 23.3261C9.92591 23.3472 9.89619 23.3683 9.86726 23.3895L8.56746 22.0498L8.53539 22.0161L8.5088 21.9888L8.49707 21.9763L8.51349 21.959L8.52835 21.9434L8.56198 21.9082L10.5508 19.8287L10.5563 19.8232L10.586 19.7927L10.6509 19.7247L10.6587 19.7614L10.6736 19.8326L10.6861 19.8905L11.221 22.4056Z" fill="#F0328E"></path> <path d="M8.74676 24.2035C8.74911 24.202 8.75067 24.2004 8.75302 24.1988C9.1245 23.929 9.49677 23.6592 9.86825 23.3894C9.89719 23.3683 9.92691 23.3472 9.95584 23.3261L8.58722 22.0302L8.53717 21.9832L8.53169 21.9778L8.51292 21.9606L8.49024 21.9387L8.48555 21.9348L8.48242 21.9465L8.48711 21.995L8.4879 22.0012L8.48946 22.0161L8.71313 24.2278" fill="#CF2284"></path> <path d="M19.4413 27.8199L15.0547 33.1622L15.0008 33.2287L14.9914 33.2405L14.9765 33.2577L14.9577 33.2811L14.9538 33.2858L14.9507 33.2897L14.9351 33.3093V26.449L14.9585 26.4357C16.0964 25.7826 16.9935 25.3885 17.4056 25.2766C17.9718 25.0827 18.6874 25.2563 18.8618 25.8428L19.3389 27.4656L19.3397 27.4696L19.4413 27.8199Z" fill="#FC772A"></path> <path d="M14.9334 26.4489C14.303 26.8126 13.6265 27.2865 12.9759 27.9004C12.9501 27.9247 12.9242 27.9489 12.8984 27.974L14.9131 33.1958L14.9232 33.2216L14.9334 33.2482L14.9428 33.2725L14.9498 33.2897L14.9529 33.2975L14.9576 33.3092V33.3077V33.2811V33.2076V33.2029V33.1857V33.1786V26.4364L14.9334 26.4489Z" fill="#C32979"></path> <path d="M9.73584 34.7552L14.939 33.3498L14.964 33.3436L15.0039 33.3326L14.9929 33.3021L14.9765 33.2576L14.9687 33.2364L14.9577 33.2067L14.9554 33.2005L14.9499 33.1872V33.1864L14.9343 33.1442L12.9767 27.8996C12.9509 27.9238 12.9251 27.9481 12.8993 27.9731C12.3659 28.4869 11.8521 29.0962 11.397 29.818C10.5359 31.1765 9.95638 32.8227 9.76634 34.462L9.73584 34.7552Z" fill="#891F85"></path> <path d="M22.3635 37.7592L15.0152 33.3162L15.0034 33.3092L14.9933 33.3022L14.98 33.2951L14.9573 33.2811L14.951 33.2771L14.9432 33.2724L14.9338 33.267L14.9033 33.2482L14.9237 33.2216L14.9338 33.2083L14.9369 33.2036L14.944 33.1942L14.9495 33.1872L14.9502 33.1864L14.9573 33.177L19.3377 27.4656L19.3384 27.4695L19.4417 27.8199L22.3205 37.6129L22.3291 37.6427L22.3306 37.6474L22.3635 37.7592Z" fill="#AABF56"></path> <path d="M15.0332 33.2474L15.016 33.3155L15.0097 33.3382L14.9839 33.4406L12.8372 41.858C12.8223 41.8432 12.8074 41.8283 12.7926 41.8142C11.1948 40.2368 10.6857 39.4195 10.6857 39.4195C9.86529 38.1088 9.59 36.4453 9.73781 34.7545L9.76753 34.4612L14.9151 33.1943L14.9354 33.1888H14.9362L14.9386 33.188L14.9519 33.1849H14.9527L14.9597 33.1763L15.0332 33.2474Z" fill="#5C40AE"></path> <path d="M17.4159 45.9624L17.3064 45.9233C17.1985 45.8764 17.0984 45.8068 17.0131 45.7145L16.59 45.2609C16.5838 45.2546 16.5791 45.2491 16.5736 45.2429C16.5642 45.2319 16.5556 45.2218 16.5439 45.2147C16.023 44.7322 15.6351 44.3779 15.5655 44.3193C14.4245 43.3628 13.5298 42.5408 12.8361 41.8589C12.8212 41.844 12.8064 41.8291 12.7915 41.8151L14.9391 33.3499L14.9524 33.2975L14.9539 33.2921L14.9571 33.2803L14.968 33.2365L14.9743 33.2123L14.9688 33.188L14.9868 33.2201L14.9907 33.2404L15.004 33.3093L15.0095 33.339L16.7488 42.465L16.8418 42.9553L17.4159 45.9624Z" fill="#203BA4"></path> <path d="M22.6933 38.8815L16.8731 42.9686L16.8676 42.9428L16.8426 42.9514L16.7488 42.4649L15.7868 37.419L15.0063 33.4312L14.9977 33.3851L14.9875 33.3327L14.9805 33.2975L14.9797 33.2952L14.9774 33.2819L14.9758 33.2756L14.9742 33.267L14.968 33.2357L14.957 33.1771L14.9797 33.1911L14.9813 33.1919L15.0564 33.2373L22.3202 37.613L22.3288 37.6427L22.3304 37.6474L22.3632 37.7592L22.6534 38.7477L22.6917 38.8768L22.6933 38.8815Z" fill="#286EC3"></path> <path d="M22.8434 40.8672C21.3512 42.5471 20.085 43.8523 19.3491 44.6102C19.0058 44.9636 18.7782 45.1983 18.6977 45.296C18.6898 45.2999 18.6851 45.3062 18.6789 45.3132C18.6758 45.3171 18.6726 45.3211 18.6679 45.3257L18.3035 45.7152C18.0696 45.9655 17.7224 46.0499 17.4151 45.9631L17.3056 45.924L16.8418 42.9553L16.8441 42.9537L16.8668 42.9373L22.6534 38.7485L22.6909 38.8768L22.6925 38.8815L23.0288 40.0241C23.1156 40.3213 23.046 40.6404 22.8434 40.8672Z" fill="#2A66C6" stroke="#2A66C6" stroke-width="0.0078207"></path> <path d="M30.9653 0.129883C29.825 0.129883 28.9014 1.05507 28.9014 2.19533C28.9014 3.33637 29.8258 4.26078 30.9653 4.26078C32.1055 4.26078 33.0291 3.33559 33.0291 2.19533C33.0291 1.05507 32.1055 0.129883 30.9653 0.129883Z" fill="#E3D01E"></path> <path d="M3.14545 25.4697C2.45801 25.4697 1.90039 26.0273 1.90039 26.7156C1.90039 27.4038 2.45801 27.9614 3.14545 27.9614C3.83289 27.9614 4.3905 27.4038 4.3905 26.7156C4.3905 26.0273 3.83289 25.4697 3.14545 25.4697Z" fill="#C91D7B"></path> </g> <g opacity="0.45" filter="url(#filter0_f_101_264)"> <ellipse cx="18" cy="50.5" rx="15" ry="1.5" fill="#2C66C7"></ellipse> </g> <g opacity="0.45" filter="url(#filter1_f_101_264)"> <ellipse cx="18.5" cy="50.5" rx="6.5" ry="1.5" fill="#2C66C7"></ellipse> </g> </g> <defs> <filter id="filter0_f_101_264" x="-2" y="44" width="40" height="13" filterUnits="userSpaceOnUse" color-interpolation-filters="sRGB"> <feFlood flood-opacity="0" result="BackgroundImageFix"></feFlood> <feBlend mode="normal" in="SourceGraphic" in2="BackgroundImageFix" result="shape"></feBlend> <feGaussianBlur stdDeviation="2.5" result="effect1_foregroundBlur_101_264"></feGaussianBlur> </filter> <filter id="filter1_f_101_264" x="7" y="44" width="23" height="13" filterUnits="userSpaceOnUse" color-interpolation-filters="sRGB"> <feFlood flood-opacity="0" result="BackgroundImageFix"></feFlood> <feBlend mode="normal" in="SourceGraphic" in2="BackgroundImageFix" result="shape"></feBlend> <feGaussianBlur stdDeviation="2.5" result="effect1_foregroundBlur_101_264"></feGaussianBlur> </filter> <clipPath id="clip0_101_264"> <rect width="126" height="57" fill="white"></rect> </clipPath> <clipPath id="clip1_101_264"> <rect width="36.8957" height="45.87" fill="white" transform="translate(0 0.129883)"></rect> </clipPath> </defs> </svg> 