<svg width="24" height="24" viewBox="0 0 24 24" fill="none" xmlns="http://www.w3.org/2000/svg">
<path d="M12.5009 17.9983C10.6595 17.9983 8.81928 17.9983 6.98025 17.9983C5.23384 17.9983 4.01596 16.8182 4.00769 15.0917C3.99744 12.6889 3.99744 10.2892 4.00769 7.89263C4.0136 6.20914 5.23266 5.01163 6.95542 5.00698C10.6603 4.99767 14.3651 4.99767 18.07 5.00698C19.7809 5.00698 20.9834 6.19286 20.9917 7.87752C21.0028 10.3005 21.0028 12.7234 20.9917 15.1463C20.9846 16.8252 19.7703 17.9959 18.0558 17.9983C16.205 18.0006 14.3533 18.0006 12.5009 17.9983ZM12.463 12.8431C13.1295 12.8478 13.777 12.6256 14.2958 12.2141C15.449 11.3143 16.5991 10.4097 17.746 9.50056C18.2095 9.13317 18.2958 8.56231 17.966 8.15074C17.6361 7.73917 17.0378 7.68569 16.5553 8.06587C15.4597 8.92777 14.3651 9.78967 13.2718 10.6516C12.6972 11.105 12.3413 11.1166 11.7595 10.6516C10.6421 9.78889 9.53305 8.90413 8.4145 8.03448C7.96282 7.68569 7.39172 7.73684 7.05947 8.13679C6.72721 8.53673 6.79461 9.12503 7.25456 9.48777C8.41095 10.4032 9.57247 11.3147 10.7391 12.2223C11.2279 12.6113 11.8343 12.8297 12.463 12.8431Z" fill="#306DDE"/>
</svg>
