<svg width="29" height="29" viewBox="0 0 29 29" fill="none" xmlns="http://www.w3.org/2000/svg">
<circle cx="14.5" cy="14.5" r="14.5" fill="#29AD56"/>
<path d="M12.7534 17.4152L17.3345 12.3596L20.0179 9.39514C20.1615 9.22347 20.3502 9.09814 20.5613 9.03419C20.7724 8.97023 20.9969 8.97038 21.2079 9.0346C21.4158 9.08946 21.6041 9.20471 21.7503 9.36664C21.8964 9.52857 21.9943 9.73035 22.0324 9.94797C22.0736 10.1583 22.0608 10.3761 21.9954 10.5799C21.9299 10.7836 21.814 10.9662 21.659 11.1097C19.6783 13.2943 17.6975 15.4789 15.7167 17.6635C15.0323 18.3926 14.3556 19.1938 13.6945 19.9149C13.5859 20.072 13.4424 20.2001 13.276 20.2885C13.1096 20.3768 12.9251 20.4229 12.7378 20.4229C12.5506 20.4229 12.3661 20.3768 12.1997 20.2885C12.0332 20.2001 11.8898 20.072 11.7811 19.9149C10.2826 18.1736 8.78408 16.4324 7.28555 14.6911C7.17334 14.5756 7.08515 14.4378 7.02639 14.2861C6.96763 14.1343 6.93952 13.9718 6.94378 13.8085C6.94804 13.6452 6.98458 13.4845 7.05117 13.3362C7.11777 13.1879 7.21301 13.0552 7.33108 12.9461C7.44915 12.837 7.58757 12.7539 7.73789 12.7018C7.88821 12.6496 8.04726 12.6297 8.20533 12.643C8.3634 12.6563 8.51717 12.7027 8.65725 12.7794C8.79732 12.856 8.92076 12.9612 9.02001 13.0887L12.1389 16.7422L12.7534 17.4152Z" fill="white"/>
</svg>
