<svg width="280" height="111" viewBox="0 0 280 111" fill="none" xmlns="http://www.w3.org/2000/svg">
<g filter="url(#filter0_d_43_2896)">
<rect x="16.957" y="7.13379" width="244.406" height="75.163" rx="10.7589" fill="white" shape-rendering="crispEdges"/>
<path d="M42.5857 21.637C42.2858 21.637 42.0173 21.6963 41.7802 21.8149C41.5501 21.9334 41.3548 22.1043 41.1944 22.3274C41.034 22.5436 40.912 22.8086 40.8283 23.1225C40.7516 23.4363 40.7132 23.7885 40.7132 24.179C40.7132 24.709 40.776 25.1623 40.9015 25.5389C41.034 25.9085 41.2397 26.191 41.5187 26.3862C41.7976 26.5815 42.1533 26.6791 42.5857 26.6791C42.8925 26.6791 43.1959 26.6443 43.4958 26.5745C43.8026 26.5048 44.1339 26.4071 44.4896 26.2816V27.6101C44.1618 27.7426 43.8375 27.8403 43.5167 27.903C43.1959 27.9658 42.8368 27.9972 42.4392 27.9972C41.6721 27.9972 41.0375 27.8403 40.5354 27.5265C40.0402 27.2057 39.6741 26.7593 39.437 26.1875C39.1999 25.6086 39.0813 24.9357 39.0813 24.1685C39.0813 23.6037 39.158 23.0876 39.3115 22.6203C39.4649 22.1461 39.6881 21.7382 39.981 21.3964C40.2808 21.0547 40.647 20.7897 41.0793 20.6014C41.5187 20.4131 42.0208 20.319 42.5857 20.319C42.9553 20.319 43.3249 20.3678 43.6945 20.4654C44.0711 20.5561 44.4303 20.6816 44.772 20.842L44.2594 22.1287C43.9805 21.9962 43.698 21.8811 43.4121 21.7835C43.1331 21.6859 42.8577 21.637 42.5857 21.637ZM51.1658 25.0263C51.1658 25.5005 51.0996 25.9225 50.9671 26.2921C50.8415 26.6617 50.6567 26.9755 50.4126 27.2335C50.1755 27.4846 49.8861 27.6764 49.5444 27.8089C49.2027 27.9344 48.8156 27.9972 48.3832 27.9972C47.9857 27.9972 47.6161 27.9344 47.2744 27.8089C46.9397 27.6764 46.6502 27.4846 46.4062 27.2335C46.1621 26.9755 45.9703 26.6617 45.8308 26.2921C45.6983 25.9225 45.6321 25.5005 45.6321 25.0263C45.6321 24.3917 45.7436 23.8582 45.9668 23.4258C46.19 22.9865 46.5108 22.6517 46.9292 22.4216C47.3476 22.1915 47.8428 22.0764 48.4146 22.0764C48.9516 22.0764 49.4258 22.1915 49.8373 22.4216C50.2488 22.6517 50.573 22.9865 50.8101 23.4258C51.0473 23.8582 51.1658 24.3917 51.1658 25.0263ZM47.2221 25.0263C47.2221 25.4029 47.2605 25.7202 47.3372 25.9783C47.4209 26.2293 47.5499 26.4211 47.7242 26.5536C47.8986 26.6791 48.1252 26.7419 48.4042 26.7419C48.6831 26.7419 48.9063 26.6791 49.0737 26.5536C49.248 26.4211 49.3735 26.2293 49.4502 25.9783C49.5339 25.7202 49.5758 25.4029 49.5758 25.0263C49.5758 24.6497 49.5339 24.3359 49.4502 24.0849C49.3735 23.8338 49.248 23.6455 49.0737 23.52C48.8993 23.3944 48.6727 23.3317 48.3937 23.3317C47.9823 23.3317 47.6824 23.4746 47.4941 23.7606C47.3128 24.0395 47.2221 24.4614 47.2221 25.0263ZM57.1062 23.3526H55.2337V27.8926H53.6751V23.3526H51.8026V22.181H57.1062V23.3526ZM61.3662 22.0764C62.0078 22.0764 62.5274 22.3274 62.9249 22.8296C63.3224 23.3247 63.5211 24.057 63.5211 25.0263C63.5211 25.6749 63.427 26.2223 63.2387 26.6687C63.0504 27.108 62.7924 27.4393 62.4646 27.6624C62.1368 27.8856 61.7567 27.9972 61.3244 27.9972C61.0524 27.9972 60.8153 27.9623 60.613 27.8926C60.4178 27.8228 60.2504 27.7322 60.1109 27.6206C59.9714 27.509 59.8494 27.3905 59.7448 27.2649H59.6611C59.689 27.3974 59.7099 27.5369 59.7239 27.6834C59.7378 27.8228 59.7448 27.9623 59.7448 28.1018V30.4032H58.1861V22.181H59.4519L59.6716 22.9237H59.7448C59.8494 22.7703 59.9749 22.6308 60.1214 22.5053C60.2678 22.3728 60.4422 22.2682 60.6444 22.1915C60.8536 22.1147 61.0942 22.0764 61.3662 22.0764ZM60.8641 23.3212C60.5921 23.3212 60.3759 23.377 60.2155 23.4886C60.0551 23.6002 59.9366 23.771 59.8599 24.0012C59.7901 24.2243 59.7518 24.5068 59.7448 24.8485V25.0159C59.7448 25.3855 59.7797 25.6993 59.8494 25.9573C59.9191 26.2084 60.0377 26.4002 60.2051 26.5327C60.3724 26.6652 60.5991 26.7314 60.885 26.7314C61.1221 26.7314 61.3174 26.6652 61.4708 26.5327C61.6242 26.4002 61.7393 26.2049 61.816 25.9469C61.8927 25.6888 61.9311 25.375 61.9311 25.0054C61.9311 24.4475 61.8439 24.0291 61.6696 23.7501C61.5022 23.4642 61.2337 23.3212 60.8641 23.3212ZM63.9139 22.181H65.619L66.6965 25.3925C66.7313 25.4971 66.7592 25.6017 66.7801 25.7063C66.808 25.8109 66.829 25.919 66.8429 26.0306C66.8638 26.1421 66.8778 26.2607 66.8848 26.3862H66.9161C66.9371 26.2049 66.965 26.034 66.9998 25.8736C67.0417 25.7063 67.087 25.5459 67.1358 25.3925L68.1924 22.181H69.8661L67.4496 28.6248C67.3032 29.0154 67.1114 29.3431 66.8743 29.6081C66.6442 29.8732 66.3757 30.0719 66.0688 30.2044C65.762 30.3369 65.4272 30.4032 65.0646 30.4032C64.8902 30.4032 64.7368 30.3927 64.6043 30.3718C64.4788 30.3578 64.3672 30.3404 64.2696 30.3195V29.0851C64.3463 29.0991 64.4369 29.113 64.5415 29.1269C64.6531 29.1409 64.7682 29.1479 64.8867 29.1479C65.1029 29.1479 65.2877 29.1025 65.4412 29.0119C65.6016 28.9212 65.7341 28.7957 65.8387 28.6353C65.9433 28.4819 66.027 28.3145 66.0897 28.1332L66.1839 27.8507L63.9139 22.181ZM75.6436 22.181V26.7524H76.4805V29.9429H75.0787V27.8926H71.2396V29.9429H69.8379V26.7524H70.3191C70.5701 26.3688 70.7828 25.9329 70.9572 25.4448C71.1315 24.9496 71.271 24.4231 71.3756 23.8652C71.4802 23.3073 71.5569 22.7459 71.6058 22.181H75.6436ZM72.9133 23.3526C72.8576 23.771 72.7878 24.179 72.7041 24.5765C72.6204 24.967 72.5158 25.3436 72.3903 25.7063C72.2718 26.0689 72.1253 26.4176 71.951 26.7524H74.085V23.3526H72.9133ZM79.0388 22.181V24.3778H81.2146V22.181H82.7733V27.8926H81.2146V25.5389H79.0388V27.8926H77.4801V22.181H79.0388ZM85.9388 24.4405C85.9388 24.5591 85.9318 24.7055 85.9179 24.8799C85.9109 25.0542 85.9004 25.2321 85.8865 25.4134C85.8795 25.5947 85.8691 25.7551 85.8551 25.8946C85.8412 26.034 85.8307 26.1317 85.8237 26.1875L88.4598 22.181H90.3323V27.8926H88.826V25.6121C88.826 25.4238 88.833 25.2181 88.8469 24.9949C88.8608 24.7648 88.8748 24.5521 88.8887 24.3568C88.9097 24.1546 88.9236 24.0012 88.9306 23.8966L86.3049 27.8926H84.4325V22.181H85.9388V24.4405ZM95.7325 22.181H97.448L95.1885 24.9217L97.6468 27.8926H95.8789L93.5462 24.9949V27.8926H91.9875V22.181H93.5462V24.9531L95.7325 22.181ZM99.9967 24.4405C99.9967 24.5591 99.9897 24.7055 99.9758 24.8799C99.9688 25.0542 99.9583 25.2321 99.9444 25.4134C99.9374 25.5947 99.927 25.7551 99.913 25.8946C99.8991 26.034 99.8886 26.1317 99.8816 26.1875L102.518 22.181H104.39V27.8926H102.884V25.6121C102.884 25.4238 102.891 25.2181 102.905 24.9949C102.919 24.7648 102.933 24.5521 102.947 24.3568C102.968 24.1546 102.981 24.0012 102.988 23.8966L100.363 27.8926H98.4903V22.181H99.9967V24.4405Z" fill="#306DDE"/>
<path d="M229.907 28.0542H230.653L235.765 22.9415L235.02 22.1961L229.907 27.3088V28.0542ZM228.861 29.1002V26.8773L235.765 19.9863C235.87 19.8904 235.986 19.8163 236.112 19.764C236.239 19.7117 236.372 19.6855 236.511 19.6855C236.65 19.6855 236.785 19.7117 236.916 19.764C237.047 19.8163 237.161 19.8948 237.256 19.9994L237.975 20.7316C238.08 20.8275 238.156 20.9408 238.204 21.0716C238.252 21.2024 238.276 21.3331 238.276 21.4639C238.276 21.6034 238.252 21.7364 238.204 21.863C238.157 21.9895 238.08 22.1049 237.975 22.2092L231.084 29.1002H228.861ZM235.386 22.5753L235.02 22.1961L235.765 22.9415L235.386 22.5753Z" fill="#B5B5C2"/>
<path opacity="0.8" d="M43.0355 50.3535L42.3158 48.5041H39.9475L39.2362 50.3535H38.4746L40.8095 44.3532H41.4873L43.8138 50.3535H43.0355ZM41.4204 46.0269C41.4036 45.9823 41.3757 45.9014 41.3367 45.7843C41.2976 45.6671 41.2586 45.5471 41.2195 45.4244C41.186 45.2961 41.1581 45.1984 41.1358 45.1315C41.1079 45.2431 41.0772 45.3575 41.0438 45.4746C41.0159 45.5862 40.9852 45.6894 40.9517 45.7843C40.9238 45.8791 40.8987 45.96 40.8764 46.0269L40.1985 47.8346H42.0899L41.4204 46.0269ZM48.1585 46.9977C48.1585 47.2767 48.0749 47.4942 47.9075 47.6505C47.7401 47.8067 47.5253 47.9127 47.2631 47.9685V48.0019C47.542 48.041 47.7847 48.1414 47.9912 48.3032C48.1976 48.4594 48.3008 48.7049 48.3008 49.0396C48.3008 49.2293 48.2645 49.4051 48.192 49.5669C48.1251 49.7287 48.0191 49.8681 47.874 49.9853C47.7289 50.1025 47.542 50.1945 47.3133 50.2615C47.0846 50.3228 46.8084 50.3535 46.4848 50.3535H44.5517V45.8679H46.4764C46.7945 45.8679 47.079 45.9042 47.33 45.9767C47.5867 46.0437 47.7875 46.1608 47.9326 46.3282C48.0832 46.49 48.1585 46.7132 48.1585 46.9977ZM47.5393 49.0396C47.5393 48.783 47.4416 48.5989 47.2464 48.4873C47.0511 48.3757 46.7638 48.3199 46.3844 48.3199H45.2881V49.7593H46.4011C46.7693 49.7593 47.0511 49.7063 47.2464 49.6003C47.4416 49.4888 47.5393 49.3019 47.5393 49.0396ZM47.4137 47.0898C47.4137 46.8778 47.3356 46.7243 47.1794 46.6295C47.0288 46.5291 46.7805 46.4788 46.4346 46.4788H45.2881V47.709H46.3007C46.6633 47.709 46.9395 47.6588 47.1292 47.5584C47.3189 47.458 47.4137 47.3018 47.4137 47.0898ZM50.0889 48.6045C50.0889 48.6547 50.0862 48.7272 50.0806 48.8221C50.0806 48.9113 50.0778 49.009 50.0722 49.115C50.0666 49.2154 50.061 49.313 50.0555 49.4079C50.0499 49.4971 50.0443 49.5697 50.0387 49.6254L52.4405 45.8679H53.3443V50.3535H52.6581V47.709C52.6581 47.6198 52.6581 47.5026 52.6581 47.3576C52.6637 47.2125 52.6693 47.0702 52.6748 46.9308C52.6804 46.7857 52.686 46.6769 52.6916 46.6044L50.3065 50.3535H49.3943V45.8679H50.0889V48.6045ZM56.4916 45.7926C57.0383 45.7926 57.4428 45.9126 57.705 46.1525C57.9673 46.3924 58.0984 46.7745 58.0984 47.299V50.3535H57.5628L57.4205 49.7175H57.387C57.2587 49.8793 57.1248 50.016 56.9853 50.1276C56.8514 50.2336 56.6952 50.3117 56.5167 50.3619C56.3437 50.4121 56.1317 50.4372 55.8807 50.4372C55.6129 50.4372 55.3702 50.3898 55.1526 50.2949C54.9406 50.2001 54.7732 50.055 54.6505 49.8598C54.5277 49.6589 54.4664 49.4079 54.4664 49.1066C54.4664 48.6603 54.6421 48.3172 54.9936 48.0773C55.3451 47.8318 55.8863 47.6979 56.6171 47.6756L57.3787 47.6505V47.3827C57.3787 47.0089 57.2978 46.7494 57.136 46.6044C56.9742 46.4593 56.7454 46.3868 56.4497 46.3868C56.2154 46.3868 55.9923 46.4231 55.7803 46.4956C55.5682 46.5625 55.3702 46.6406 55.1861 46.7299L54.9601 46.1776C55.1554 46.0716 55.3869 45.9823 55.6547 45.9098C55.9225 45.8317 56.2015 45.7926 56.4916 45.7926ZM56.7092 48.186C56.1513 48.2084 55.7635 48.2976 55.5459 48.4538C55.3339 48.6101 55.2279 48.8304 55.2279 49.115C55.2279 49.366 55.3032 49.5501 55.4539 49.6673C55.6101 49.7844 55.8081 49.843 56.048 49.843C56.4274 49.843 56.7426 49.7398 56.9937 49.5334C57.2448 49.3214 57.3703 48.9978 57.3703 48.5626V48.1609L56.7092 48.186ZM59.2704 47.6588C59.2704 47.0061 59.3345 46.451 59.4628 45.9935C59.5967 45.5304 59.8004 45.1622 60.0737 44.8888C60.3527 44.6099 60.7098 44.423 61.1449 44.3281C61.5076 44.25 61.8618 44.1803 62.2077 44.1189C62.5536 44.0575 62.8772 44.0017 63.1785 43.9515L63.304 44.5959C63.159 44.6182 62.9972 44.6461 62.8187 44.6796C62.6401 44.7075 62.4588 44.7382 62.2747 44.7716C62.0906 44.7995 61.9121 44.8302 61.7391 44.8637C61.5717 44.8916 61.4239 44.9195 61.2956 44.9474C61.1115 44.9864 60.9469 45.0534 60.8018 45.1482C60.6568 45.2375 60.5312 45.3602 60.4252 45.5165C60.3248 45.6727 60.2439 45.8651 60.1825 46.0939C60.1212 46.3226 60.0849 46.5932 60.0737 46.9056H60.124C60.2021 46.7996 60.3081 46.6909 60.442 46.5793C60.5814 46.4677 60.746 46.3728 60.9357 46.2947C61.131 46.2166 61.3514 46.1776 61.5968 46.1776C61.9874 46.1776 62.311 46.2641 62.5676 46.437C62.8298 46.6044 63.0251 46.8387 63.1534 47.14C63.2873 47.4412 63.3542 47.7927 63.3542 48.1944C63.3542 48.691 63.2678 49.1066 63.0948 49.4413C62.9219 49.7761 62.682 50.0271 62.3751 50.1945C62.0683 50.3563 61.7112 50.4372 61.3039 50.4372C60.9971 50.4372 60.7181 50.3786 60.4671 50.2615C60.216 50.1387 60.0012 49.9602 59.8227 49.7259C59.6442 49.4915 59.5075 49.2014 59.4126 48.8555C59.3178 48.5096 59.2704 48.1107 59.2704 47.6588ZM61.3625 49.8263C61.608 49.8263 61.82 49.7761 61.9985 49.6757C62.1826 49.5752 62.3249 49.4107 62.4253 49.1819C62.5257 48.9532 62.576 48.6491 62.576 48.2697C62.576 47.8122 62.4895 47.4524 62.3165 47.1902C62.1492 46.9224 61.8702 46.7885 61.4797 46.7885C61.2342 46.7885 61.011 46.8443 60.8102 46.9559C60.6093 47.0619 60.442 47.1846 60.3081 47.3241C60.1742 47.4636 60.0793 47.5807 60.0235 47.6756C60.0235 47.9489 60.0431 48.2139 60.0821 48.4706C60.1212 48.7272 60.1881 48.9587 60.283 49.1652C60.3834 49.366 60.5201 49.5278 60.693 49.6506C60.8716 49.7677 61.0947 49.8263 61.3625 49.8263ZM65.2299 48.6045C65.2299 48.6547 65.2271 48.7272 65.2216 48.8221C65.2216 48.9113 65.2188 49.009 65.2132 49.115C65.2076 49.2154 65.202 49.313 65.1965 49.4079C65.1909 49.4971 65.1853 49.5697 65.1797 49.6254L67.5815 45.8679H68.4853V50.3535H67.7991V47.709C67.7991 47.6198 67.7991 47.5026 67.7991 47.3576C67.8047 47.2125 67.8102 47.0702 67.8158 46.9308C67.8214 46.7857 67.827 46.6769 67.8326 46.6044L65.4475 50.3535H64.5353V45.8679H65.2299V48.6045ZM73.3481 50.3535H72.6033V46.4788H71.2811C71.2253 47.1874 71.1556 47.7927 71.0719 48.2948C70.9882 48.7914 70.8822 49.1959 70.7539 49.5083C70.6255 49.8207 70.4721 50.0495 70.2936 50.1945C70.1151 50.3396 69.9058 50.4121 69.6659 50.4121C69.5934 50.4121 69.5209 50.4065 69.4484 50.3954C69.3814 50.3898 69.3256 50.3758 69.281 50.3535V49.8012C69.3145 49.8123 69.3507 49.8207 69.3898 49.8263C69.4288 49.8319 69.4679 49.8347 69.5069 49.8347C69.6297 49.8347 69.7413 49.7844 69.8417 49.684C69.9421 49.5836 70.0314 49.4302 70.1095 49.2238C70.1932 49.0173 70.2685 48.7579 70.3354 48.4455C70.4024 48.1275 70.461 47.7537 70.5112 47.3241C70.5614 46.8945 70.606 46.4091 70.6451 45.8679H73.3481V50.3535ZM76.5251 45.7843C76.91 45.7843 77.2392 45.8679 77.5126 46.0353C77.7915 46.2027 78.0035 46.4398 78.1486 46.7466C78.2992 47.0479 78.3745 47.4022 78.3745 47.8095V48.253H75.3033C75.3144 48.7607 75.4427 49.1484 75.6882 49.4162C75.9393 49.6784 76.288 49.8096 76.7343 49.8096C77.0188 49.8096 77.2699 49.7844 77.4875 49.7342C77.7106 49.6784 77.9394 49.6003 78.1737 49.4999V50.1443C77.9449 50.2447 77.719 50.3173 77.4958 50.3619C77.2727 50.4121 77.0077 50.4372 76.7008 50.4372C76.2768 50.4372 75.9002 50.3507 75.571 50.1778C75.2475 50.0048 74.9936 49.7482 74.8095 49.4079C74.631 49.062 74.5417 48.6407 74.5417 48.1442C74.5417 47.6532 74.6226 47.232 74.7844 46.8805C74.9518 46.5291 75.1833 46.2585 75.479 46.0688C75.7803 45.8791 76.129 45.7843 76.5251 45.7843ZM76.5167 46.3868C76.1652 46.3868 75.8863 46.5012 75.6798 46.7299C75.479 46.9531 75.359 47.2655 75.32 47.6672H77.6046C77.6046 47.4106 77.5656 47.1874 77.4875 46.9977C77.4094 46.808 77.2894 46.6602 77.1276 46.5542C76.9714 46.4426 76.7678 46.3868 76.5167 46.3868ZM82.6338 46.4872H81.1693V50.3535H80.4412V46.4872H78.9934V45.8679H82.6338V46.4872ZM83.5383 50.3535V45.8679H84.2747V47.709H85.438C85.8285 47.709 86.1493 47.7565 86.4004 47.8513C86.6514 47.9461 86.8383 48.0884 86.9611 48.2781C87.0838 48.4622 87.1452 48.6965 87.1452 48.9811C87.1452 49.26 87.0838 49.5027 86.9611 49.7091C86.8439 49.9156 86.657 50.0746 86.4004 50.1861C86.1493 50.2977 85.8174 50.3535 85.4045 50.3535H83.5383ZM85.3376 49.7593C85.6556 49.7593 85.915 49.7063 86.1158 49.6003C86.3167 49.4888 86.4171 49.2963 86.4171 49.0229C86.4171 48.7495 86.325 48.5654 86.1409 48.4706C85.9568 48.3702 85.6918 48.3199 85.3459 48.3199H84.2747V49.7593H85.3376ZM87.89 50.3535V45.8679H88.6264V50.3535H87.89ZM90.1313 50.3954C90.0085 50.3954 89.9053 50.3535 89.8216 50.2698C89.7435 50.1861 89.7045 50.0829 89.7045 49.9602C89.7045 49.8375 89.7435 49.737 89.8216 49.6589C89.9053 49.5752 90.0085 49.5334 90.1313 49.5334C90.2484 49.5334 90.3461 49.5752 90.4242 49.6589C90.5079 49.737 90.5497 49.8375 90.5497 49.9602C90.5497 50.0829 90.5079 50.1861 90.4242 50.2698C90.3461 50.3535 90.2484 50.3954 90.1313 50.3954ZM90.1313 46.755C90.0085 46.755 89.9053 46.7132 89.8216 46.6295C89.7435 46.5458 89.7045 46.4426 89.7045 46.3198C89.7045 46.1971 89.7435 46.0967 89.8216 46.0186C89.9053 45.9349 90.0085 45.893 90.1313 45.893C90.2484 45.893 90.3461 45.9349 90.4242 46.0186C90.5079 46.0967 90.5497 46.1971 90.5497 46.3198C90.5497 46.4426 90.5079 46.5458 90.4242 46.6295C90.3461 46.7132 90.2484 46.755 90.1313 46.755Z" fill="#585858"/>
<path d="M99.7012 45.8679V49.7342H100.354V51.9101H99.6426V50.3535H96.5211V51.9101H95.8182V49.7342H96.178C96.4347 49.3772 96.6467 48.9894 96.814 48.571C96.987 48.147 97.1153 47.7062 97.199 47.2488C97.2883 46.7857 97.3357 46.3254 97.3413 45.8679H99.7012ZM97.994 46.4454C97.9717 46.8247 97.9131 47.2181 97.8183 47.6253C97.7234 48.027 97.6007 48.412 97.4501 48.7802C97.305 49.1484 97.1348 49.4664 96.9396 49.7342H98.9899V46.4454H97.994ZM105.154 48.1024C105.154 48.4762 105.104 48.8081 105.003 49.0982C104.908 49.3828 104.769 49.6254 104.585 49.8263C104.406 50.0271 104.186 50.1806 103.924 50.2866C103.667 50.387 103.38 50.4372 103.062 50.4372C102.766 50.4372 102.493 50.387 102.242 50.2866C101.99 50.1806 101.773 50.0271 101.589 49.8263C101.405 49.6254 101.26 49.3828 101.154 49.0982C101.053 48.8081 101.003 48.4762 101.003 48.1024C101.003 47.6058 101.087 47.1874 101.254 46.8471C101.421 46.5012 101.661 46.2389 101.974 46.0604C102.286 45.8763 102.657 45.7843 103.087 45.7843C103.494 45.7843 103.851 45.8763 104.158 46.0604C104.47 46.2389 104.713 46.5012 104.886 46.8471C105.065 47.1874 105.154 47.6058 105.154 48.1024ZM101.765 48.1024C101.765 48.4538 101.809 48.7607 101.898 49.0229C101.993 49.2795 102.138 49.4776 102.334 49.6171C102.529 49.7566 102.777 49.8263 103.078 49.8263C103.38 49.8263 103.628 49.7566 103.823 49.6171C104.018 49.4776 104.161 49.2795 104.25 49.0229C104.345 48.7607 104.392 48.4538 104.392 48.1024C104.392 47.7453 104.345 47.4412 104.25 47.1902C104.155 46.9391 104.01 46.7466 103.815 46.6127C103.625 46.4733 103.377 46.4035 103.07 46.4035C102.613 46.4035 102.281 46.5542 102.074 46.8554C101.868 47.1567 101.765 47.5723 101.765 48.1024ZM112.378 48.6965C112.378 48.9755 112.308 49.2377 112.169 49.4832C112.035 49.7287 111.834 49.9351 111.566 50.1025C111.304 50.2698 110.992 50.3703 110.629 50.4037V51.0816H110.085V50.4037C109.56 50.3535 109.136 50.1889 108.813 49.91C108.489 49.631 108.327 49.2628 108.327 48.8053H109.348C109.365 49.0229 109.435 49.2042 109.558 49.3493C109.68 49.4888 109.856 49.578 110.085 49.6171V47.776C109.711 47.6811 109.407 47.5863 109.173 47.4914C108.938 47.391 108.738 47.2348 108.57 47.0228C108.408 46.8108 108.327 46.5207 108.327 46.1525C108.327 45.6894 108.489 45.3072 108.813 45.006C109.136 44.6991 109.56 44.5206 110.085 44.4704V43.7925H110.629V44.4704C111.12 44.515 111.513 44.6712 111.809 44.939C112.11 45.2012 112.28 45.5639 112.319 46.0269H111.298C111.282 45.854 111.215 45.7006 111.098 45.5667C110.98 45.4272 110.824 45.3323 110.629 45.2821V47.0898C111.003 47.179 111.307 47.2739 111.541 47.3743C111.775 47.4691 111.973 47.6226 112.135 47.8346C112.297 48.041 112.378 48.3283 112.378 48.6965ZM109.298 46.1023C109.298 46.331 109.365 46.5095 109.499 46.6378C109.639 46.7662 109.834 46.8694 110.085 46.9475V45.257C109.845 45.2849 109.653 45.3714 109.507 45.5165C109.368 45.6615 109.298 45.8568 109.298 46.1023ZM110.629 49.6171C110.874 49.578 111.067 49.4804 111.206 49.3242C111.346 49.1624 111.416 48.9699 111.416 48.7467C111.416 48.5236 111.346 48.3506 111.206 48.2279C111.072 48.0996 110.88 47.9964 110.629 47.9182V49.6171ZM113.674 49.0815V48.3618L116.486 44.3281H117.641V48.253H118.419V49.0815H117.641V50.3535H116.704V49.0815H113.674ZM116.745 45.2989L114.77 48.253H116.745V45.2989ZM123.164 45.0729H120.36V46.7383C120.477 46.5821 120.65 46.451 120.879 46.3449C121.114 46.2389 121.362 46.1859 121.624 46.1859C122.093 46.1859 122.472 46.2864 122.762 46.4872C123.058 46.6881 123.267 46.9419 123.39 47.2488C123.518 47.5556 123.582 47.8792 123.582 48.2195C123.582 48.6324 123.501 49.0006 123.34 49.3242C123.183 49.6422 122.946 49.8932 122.628 50.0774C122.316 50.2615 121.931 50.3535 121.473 50.3535C120.865 50.3535 120.377 50.2029 120.009 49.9016C119.641 49.6003 119.42 49.2014 119.348 48.7049H120.277C120.338 48.9671 120.475 49.1763 120.687 49.3325C120.899 49.4832 121.164 49.5585 121.482 49.5585C121.878 49.5585 122.174 49.4385 122.369 49.1986C122.57 48.9587 122.67 48.6407 122.67 48.2446C122.67 47.8429 122.57 47.5361 122.369 47.3241C122.168 47.1065 121.872 46.9977 121.482 46.9977C121.208 46.9977 120.977 47.0674 120.787 47.2069C120.603 47.3408 120.469 47.5249 120.385 47.7592H119.482V44.2361H123.164V45.0729ZM124.596 47.2237C124.596 46.2585 124.758 45.5053 125.082 44.9641C125.411 44.4174 125.974 44.144 126.772 44.144C127.57 44.144 128.131 44.4174 128.454 44.9641C128.783 45.5053 128.948 46.2585 128.948 47.2237C128.948 48.2 128.783 48.9643 128.454 49.5167C128.131 50.0634 127.57 50.3368 126.772 50.3368C125.974 50.3368 125.411 50.0634 125.082 49.5167C124.758 48.9643 124.596 48.2 124.596 47.2237ZM128.011 47.2237C128.011 46.7717 127.98 46.3896 127.919 46.0772C127.863 45.7647 127.746 45.5109 127.567 45.3156C127.389 45.1148 127.124 45.0143 126.772 45.0143C126.421 45.0143 126.156 45.1148 125.977 45.3156C125.799 45.5109 125.679 45.7647 125.617 46.0772C125.561 46.3896 125.534 46.7717 125.534 47.2237C125.534 47.6923 125.561 48.0856 125.617 48.4036C125.673 48.7216 125.79 48.9783 125.969 49.1735C126.153 49.3688 126.421 49.4664 126.772 49.4664C127.124 49.4664 127.389 49.3688 127.567 49.1735C127.751 48.9783 127.871 48.7216 127.927 48.4036C127.983 48.0856 128.011 47.6923 128.011 47.2237ZM131.15 49.207L130.137 51.5168H129.518L130.112 49.207H131.15ZM135.003 50.4372C134.746 50.4372 134.523 50.4149 134.333 50.3703C134.149 50.3312 133.976 50.2726 133.814 50.1945V49.5585C133.982 49.6254 134.163 49.684 134.358 49.7342C134.554 49.7844 134.774 49.8096 135.019 49.8096C135.31 49.8096 135.561 49.7593 135.773 49.6589C135.985 49.5529 136.152 49.3911 136.275 49.1735C136.397 48.956 136.467 48.6798 136.484 48.345H134.275V47.7425H136.476C136.436 47.285 136.305 46.9503 136.082 46.7383C135.865 46.5263 135.544 46.4203 135.12 46.4203C134.958 46.4203 134.779 46.4426 134.584 46.4872C134.395 46.5318 134.224 46.5821 134.074 46.6378L133.865 46.0437C134.026 45.9712 134.219 45.9098 134.442 45.8596C134.665 45.8094 134.888 45.7843 135.111 45.7843C135.53 45.7843 135.898 45.8624 136.216 46.0186C136.54 46.1748 136.791 46.4231 136.969 46.7634C137.153 47.1037 137.245 47.5528 137.245 48.1107C137.245 48.6407 137.148 49.0787 136.953 49.4246C136.763 49.7705 136.498 50.0271 136.158 50.1945C135.823 50.3563 135.438 50.4372 135.003 50.4372ZM141.092 45.8679H141.895L139.979 48.027L142.054 50.3535H141.201L139.176 48.0773V50.3535H138.439V45.8679H139.176V48.0438L141.092 45.8679ZM146.626 48.1024C146.626 48.4762 146.576 48.8081 146.475 49.0982C146.38 49.3828 146.241 49.6254 146.057 49.8263C145.878 50.0271 145.658 50.1806 145.396 50.2866C145.139 50.387 144.852 50.4372 144.534 50.4372C144.238 50.4372 143.965 50.387 143.714 50.2866C143.463 50.1806 143.245 50.0271 143.061 49.8263C142.877 49.6254 142.732 49.3828 142.626 49.0982C142.525 48.8081 142.475 48.4762 142.475 48.1024C142.475 47.6058 142.559 47.1874 142.726 46.8471C142.893 46.5012 143.133 46.2389 143.446 46.0604C143.758 45.8763 144.129 45.7843 144.559 45.7843C144.966 45.7843 145.323 45.8763 145.63 46.0604C145.942 46.2389 146.185 46.5012 146.358 46.8471C146.537 47.1874 146.626 47.6058 146.626 48.1024ZM143.237 48.1024C143.237 48.4538 143.281 48.7607 143.37 49.0229C143.465 49.2795 143.61 49.4776 143.806 49.6171C144.001 49.7566 144.249 49.8263 144.55 49.8263C144.852 49.8263 145.1 49.7566 145.295 49.6171C145.491 49.4776 145.633 49.2795 145.722 49.0229C145.817 48.7607 145.864 48.4538 145.864 48.1024C145.864 47.7453 145.817 47.4412 145.722 47.1902C145.627 46.9391 145.482 46.7466 145.287 46.6127C145.097 46.4733 144.849 46.4035 144.542 46.4035C144.085 46.4035 143.753 46.5542 143.546 46.8554C143.34 47.1567 143.237 47.5723 143.237 48.1024ZM148.55 45.8679V47.7341H150.986V45.8679H151.722V50.3535H150.986V48.3534H148.55V50.3535H147.814V45.8679H148.55ZM157.063 48.1024C157.063 48.4762 157.013 48.8081 156.912 49.0982C156.818 49.3828 156.678 49.6254 156.494 49.8263C156.316 50.0271 156.095 50.1806 155.833 50.2866C155.576 50.387 155.289 50.4372 154.971 50.4372C154.675 50.4372 154.402 50.387 154.151 50.2866C153.9 50.1806 153.682 50.0271 153.498 49.8263C153.314 49.6254 153.169 49.3828 153.063 49.0982C152.962 48.8081 152.912 48.4762 152.912 48.1024C152.912 47.6058 152.996 47.1874 153.163 46.8471C153.331 46.5012 153.571 46.2389 153.883 46.0604C154.195 45.8763 154.566 45.7843 154.996 45.7843C155.403 45.7843 155.76 45.8763 156.067 46.0604C156.38 46.2389 156.622 46.5012 156.795 46.8471C156.974 47.1874 157.063 47.6058 157.063 48.1024ZM153.674 48.1024C153.674 48.4538 153.718 48.7607 153.808 49.0229C153.903 49.2795 154.048 49.4776 154.243 49.6171C154.438 49.7566 154.686 49.8263 154.988 49.8263C155.289 49.8263 155.537 49.7566 155.733 49.6171C155.928 49.4776 156.07 49.2795 156.159 49.0229C156.254 48.7607 156.302 48.4538 156.302 48.1024C156.302 47.7453 156.254 47.4412 156.159 47.1902C156.064 46.9391 155.919 46.7466 155.724 46.6127C155.534 46.4733 155.286 46.4035 154.979 46.4035C154.522 46.4035 154.19 46.5542 153.983 46.8554C153.777 47.1567 153.674 47.5723 153.674 48.1024ZM163.063 45.8679V50.3535H162.402V47.4914C162.402 47.3743 162.405 47.2515 162.41 47.1232C162.422 46.9949 162.433 46.8694 162.444 46.7466H162.419L160.954 50.3535H160.335L158.912 46.7466H158.887C158.898 46.8694 158.904 46.9949 158.904 47.1232C158.91 47.2515 158.912 47.3827 158.912 47.5166V50.3535H158.251V45.8679H159.23L160.645 49.4748L162.084 45.8679H163.063Z" fill="#191C30"/>
<path opacity="0.8" d="M44.5 64.5416C44.5 65.0047 44.4414 65.4259 44.3243 65.8053C44.2071 66.1791 44.0314 66.5027 43.797 66.7761C43.5683 67.0494 43.281 67.2586 42.9351 67.4037C42.5948 67.5488 42.1986 67.6213 41.7467 67.6213C41.2781 67.6213 40.8708 67.5488 40.5249 67.4037C40.179 67.2531 39.8917 67.0438 39.663 66.7761C39.4342 66.5027 39.264 66.1763 39.1525 65.7969C39.0409 65.4175 38.9851 64.9963 38.9851 64.5333C38.9851 63.9196 39.0855 63.384 39.2864 62.9265C39.4872 62.469 39.7913 62.1119 40.1985 61.8553C40.6114 61.5987 41.1303 61.4704 41.7551 61.4704C42.3521 61.4704 42.8542 61.5987 43.2615 61.8553C43.6687 62.1064 43.9756 62.4634 44.182 62.9265C44.394 63.384 44.5 63.9224 44.5 64.5416ZM39.7801 64.5416C39.7801 65.0437 39.8499 65.4761 39.9893 65.8388C40.1288 66.2014 40.3436 66.4804 40.6337 66.6756C40.9294 66.8709 41.3004 66.9685 41.7467 66.9685C42.1986 66.9685 42.5669 66.8709 42.8514 66.6756C43.1415 66.4804 43.3563 66.2014 43.4958 65.8388C43.6353 65.4761 43.705 65.0437 43.705 64.5416C43.705 63.7885 43.5488 63.1999 43.2364 62.7759C42.9239 62.3463 42.4302 62.1315 41.7551 62.1315C41.3032 62.1315 40.9294 62.2291 40.6337 62.4244C40.3436 62.6141 40.1288 62.8902 39.9893 63.2529C39.8499 63.6099 39.7801 64.0395 39.7801 64.5416ZM48.8412 63.6713H47.3767V67.5376H46.6487V63.6713H45.2009V63.052H48.8412V63.6713ZM51.3963 62.9683C51.7813 62.9683 52.1105 63.052 52.3838 63.2194C52.6628 63.3868 52.8748 63.6239 53.0199 63.9307C53.1705 64.232 53.2458 64.5863 53.2458 64.9935V65.4371H50.1745C50.1857 65.9448 50.314 66.3325 50.5595 66.6003C50.8105 66.8625 51.1592 66.9936 51.6056 66.9936C51.8901 66.9936 52.1411 66.9685 52.3587 66.9183C52.5819 66.8625 52.8106 66.7844 53.045 66.684V67.3284C52.8162 67.4288 52.5903 67.5013 52.3671 67.546C52.1439 67.5962 51.8789 67.6213 51.5721 67.6213C51.1481 67.6213 50.7715 67.5348 50.4423 67.3619C50.1187 67.1889 49.8649 66.9323 49.6808 66.5919C49.5022 66.246 49.413 65.8248 49.413 65.3283C49.413 64.8373 49.4939 64.4161 49.6557 64.0646C49.823 63.7131 50.0546 63.4426 50.3503 63.2529C50.6515 63.0632 51.0002 62.9683 51.3963 62.9683ZM51.388 63.5709C51.0365 63.5709 50.7575 63.6852 50.5511 63.914C50.3503 64.1371 50.2303 64.4496 50.1913 64.8513H52.4759C52.4759 64.5946 52.4368 64.3715 52.3587 64.1818C52.2806 63.9921 52.1607 63.8442 51.9989 63.7382C51.8427 63.6267 51.639 63.5709 51.388 63.5709ZM57.823 67.5376H57.0782V63.6629H55.756C55.7002 64.3715 55.6305 64.9768 55.5468 65.4789C55.4631 65.9755 55.3571 66.3799 55.2288 66.6924C55.1005 67.0048 54.947 67.2335 54.7685 67.3786C54.59 67.5236 54.3808 67.5962 54.1409 67.5962C54.0683 67.5962 53.9958 67.5906 53.9233 67.5794C53.8563 67.5739 53.8005 67.5599 53.7559 67.5376V66.9853C53.7894 66.9964 53.8256 67.0048 53.8647 67.0104C53.9037 67.016 53.9428 67.0187 53.9819 67.0187C54.1046 67.0187 54.2162 66.9685 54.3166 66.8681C54.417 66.7677 54.5063 66.6143 54.5844 66.4078C54.6681 66.2014 54.7434 65.942 54.8103 65.6296C54.8773 65.3115 54.9359 64.9377 54.9861 64.5082C55.0363 64.0786 55.0809 63.5932 55.12 63.052H57.823V67.5376ZM59.9623 65.7886C59.9623 65.8388 59.9595 65.9113 59.9539 66.0061C59.9539 66.0954 59.9511 66.193 59.9455 66.299C59.94 66.3995 59.9344 66.4971 59.9288 66.5919C59.9232 66.6812 59.9176 66.7537 59.9121 66.8095L62.3139 63.052H63.2177V67.5376H62.5314V64.8931C62.5314 64.8038 62.5314 64.6867 62.5314 64.5416C62.537 64.3966 62.5426 64.2543 62.5482 64.1148C62.5538 63.9698 62.5593 63.861 62.5649 63.7885L60.1799 67.5376H59.2677V63.052H59.9623V65.7886ZM64.7247 67.5794C64.6019 67.5794 64.4987 67.5376 64.415 67.4539C64.3369 67.3702 64.2979 67.267 64.2979 67.1443C64.2979 67.0215 64.3369 66.9211 64.415 66.843C64.4987 66.7593 64.6019 66.7175 64.7247 66.7175C64.8418 66.7175 64.9395 66.7593 65.0176 66.843C65.1013 66.9211 65.1431 67.0215 65.1431 67.1443C65.1431 67.267 65.1013 67.3702 65.0176 67.4539C64.9395 67.5376 64.8418 67.5794 64.7247 67.5794ZM64.7247 63.9391C64.6019 63.9391 64.4987 63.8972 64.415 63.8136C64.3369 63.7299 64.2979 63.6267 64.2979 63.5039C64.2979 63.3812 64.3369 63.2808 64.415 63.2027C64.4987 63.119 64.6019 63.0771 64.7247 63.0771C64.8418 63.0771 64.9395 63.119 65.0176 63.2027C65.1013 63.2808 65.1431 63.3812 65.1431 63.5039C65.1431 63.6267 65.1013 63.7299 65.0176 63.8136C64.9395 63.8972 64.8418 63.9391 64.7247 63.9391Z" fill="#585858"/>
<path d="M74.7012 63.052V66.9183H75.354V69.0942H74.6426V67.5376H71.5211V69.0942H70.8182V66.9183H71.178C71.4347 66.5613 71.6467 66.1735 71.814 65.7551C71.987 65.3311 72.1153 64.8903 72.199 64.4328C72.2883 63.9698 72.3357 63.5095 72.3413 63.052H74.7012ZM72.994 63.6295C72.9717 64.0088 72.9131 64.4022 72.8183 64.8094C72.7234 65.2111 72.6007 65.5961 72.4501 65.9643C72.305 66.3325 72.1348 66.6505 71.9396 66.9183H73.9899V63.6295H72.994ZM80.1538 65.2864C80.1538 65.6602 80.1036 65.9922 80.0032 66.2823C79.9084 66.5668 79.7689 66.8095 79.5848 67.0104C79.4062 67.2112 79.1859 67.3646 78.9236 67.4706C78.667 67.5711 78.3797 67.6213 78.0617 67.6213C77.766 67.6213 77.4926 67.5711 77.2416 67.4706C76.9905 67.3646 76.7729 67.2112 76.5888 67.0104C76.4047 66.8095 76.2596 66.5668 76.1536 66.2823C76.0532 65.9922 76.003 65.6602 76.003 65.2864C76.003 64.7899 76.0867 64.3715 76.2541 64.0311C76.4214 63.6852 76.6613 63.423 76.9738 63.2445C77.2862 63.0604 77.6572 62.9683 78.0868 62.9683C78.4941 62.9683 78.8511 63.0604 79.158 63.2445C79.4704 63.423 79.7131 63.6852 79.886 64.0311C80.0646 64.3715 80.1538 64.7899 80.1538 65.2864ZM76.7645 65.2864C76.7645 65.6379 76.8092 65.9448 76.8984 66.207C76.9933 66.4636 77.1383 66.6617 77.3336 66.8012C77.5289 66.9406 77.7771 67.0104 78.0784 67.0104C78.3797 67.0104 78.628 66.9406 78.8232 66.8012C79.0185 66.6617 79.1608 66.4636 79.25 66.207C79.3449 65.9448 79.3923 65.6379 79.3923 65.2864C79.3923 64.9294 79.3449 64.6253 79.25 64.3743C79.1552 64.1232 79.0101 63.9307 78.8149 63.7968C78.6252 63.6573 78.3769 63.5876 78.07 63.5876C77.6126 63.5876 77.2806 63.7382 77.0742 64.0395C76.8678 64.3408 76.7645 64.7564 76.7645 65.2864ZM87.3779 65.8806C87.3779 66.1596 87.3082 66.4218 87.1687 66.6673C87.0348 66.9127 86.8339 67.1192 86.5662 67.2865C86.3039 67.4539 85.9915 67.5543 85.6289 67.5878V68.2657H85.0849V67.5878C84.5605 67.5376 84.1365 67.373 83.8129 67.0941C83.4893 66.8151 83.3275 66.4469 83.3275 65.9894H84.3485C84.3652 66.207 84.4349 66.3883 84.5577 66.5334C84.6804 66.6728 84.8562 66.7621 85.0849 66.8012V64.9601C84.7111 64.8652 84.4071 64.7704 84.1727 64.6755C83.9384 64.5751 83.7376 64.4189 83.5702 64.2069C83.4084 63.9949 83.3275 63.7048 83.3275 63.3366C83.3275 62.8735 83.4893 62.4913 83.8129 62.1901C84.1365 61.8832 84.5605 61.7047 85.0849 61.6545V60.9766H85.6289V61.6545C86.1198 61.6991 86.5132 61.8553 86.8088 62.1231C87.1101 62.3853 87.2803 62.748 87.3193 63.211H86.2984C86.2816 63.0381 86.2147 62.8846 86.0975 62.7507C85.9804 62.6113 85.8241 62.5164 85.6289 62.4662V64.2738C86.0027 64.3631 86.3067 64.4579 86.541 64.5584C86.7754 64.6532 86.9734 64.8066 87.1352 65.0186C87.297 65.2251 87.3779 65.5124 87.3779 65.8806ZM84.2983 63.2863C84.2983 63.5151 84.3652 63.6936 84.4991 63.8219C84.6386 63.9503 84.8339 64.0535 85.0849 64.1316V62.4411C84.845 62.469 84.6525 62.5555 84.5075 62.7005C84.368 62.8456 84.2983 63.0409 84.2983 63.2863ZM85.6289 66.8012C85.8743 66.7621 86.0668 66.6645 86.2063 66.5083C86.3458 66.3465 86.4155 66.154 86.4155 65.9308C86.4155 65.7077 86.3458 65.5347 86.2063 65.412C86.0724 65.2837 85.8799 65.1804 85.6289 65.1023V66.8012ZM92.0718 62.8512C92.0104 62.5945 91.8988 62.4021 91.737 62.2737C91.5752 62.1454 91.3493 62.0813 91.0592 62.0813C90.6184 62.0813 90.2893 62.2514 90.0717 62.5917C89.8541 62.9265 89.7397 63.4844 89.7286 64.2655C89.8736 64.02 90.0856 63.8303 90.3646 63.6964C90.6435 63.5625 90.9448 63.4956 91.2684 63.4956C91.6366 63.4956 91.9602 63.5765 92.2392 63.7382C92.5237 63.8945 92.7441 64.1232 92.9003 64.4245C93.0621 64.7257 93.143 65.0856 93.143 65.504C93.143 65.8946 93.0649 66.2433 92.9086 66.5501C92.758 66.857 92.5321 67.0996 92.2308 67.2782C91.9295 67.4511 91.5669 67.5376 91.1429 67.5376C90.5682 67.5376 90.1163 67.4121 89.7872 67.161C89.4636 66.9044 89.2348 66.5445 89.1009 66.0815C88.9726 65.6184 88.9085 65.041 88.9085 64.3492C88.9085 62.3072 89.6282 61.2862 91.0676 61.2862C91.6255 61.2862 92.0634 61.4369 92.3814 61.7381C92.705 62.0394 92.8947 62.4104 92.9505 62.8512H92.0718ZM91.0592 64.2989C90.7189 64.2989 90.4287 64.4022 90.1888 64.6086C89.9545 64.8094 89.8374 65.1023 89.8374 65.4873C89.8374 65.8722 89.9462 66.1791 90.1637 66.4078C90.3869 66.631 90.6965 66.7426 91.0927 66.7426C91.4441 66.7426 91.7203 66.6338 91.9212 66.4162C92.1276 66.1986 92.2308 65.9085 92.2308 65.5459C92.2308 65.1665 92.1304 64.8652 91.9295 64.6421C91.7343 64.4133 91.4441 64.2989 91.0592 64.2989ZM94.1815 64.4077C94.1815 63.4426 94.3433 62.6894 94.6669 62.1482C94.9961 61.6015 95.5596 61.3281 96.3574 61.3281C97.1552 61.3281 97.7159 61.6015 98.0395 62.1482C98.3686 62.6894 98.5332 63.4426 98.5332 64.4077C98.5332 65.3841 98.3686 66.1484 98.0395 66.7007C97.7159 67.2475 97.1552 67.5209 96.3574 67.5209C95.5596 67.5209 94.9961 67.2475 94.6669 66.7007C94.3433 66.1484 94.1815 65.3841 94.1815 64.4077ZM97.5959 64.4077C97.5959 63.9558 97.5652 63.5737 97.5039 63.2612C97.4481 62.9488 97.3309 62.695 97.1524 62.4997C96.9739 62.2988 96.7089 62.1984 96.3574 62.1984C96.0059 62.1984 95.7409 62.2988 95.5624 62.4997C95.3838 62.695 95.2639 62.9488 95.2025 63.2612C95.1467 63.5737 95.1188 63.9558 95.1188 64.4077C95.1188 64.8764 95.1467 65.2697 95.2025 65.5877C95.2583 65.9057 95.3755 66.1624 95.554 66.3576C95.7381 66.5529 96.0059 66.6505 96.3574 66.6505C96.7089 66.6505 96.9739 66.5529 97.1524 66.3576C97.3365 66.1624 97.4564 65.9057 97.5122 65.5877C97.568 65.2697 97.5959 64.8764 97.5959 64.4077ZM99.5636 64.4077C99.5636 63.4426 99.7254 62.6894 100.049 62.1482C100.378 61.6015 100.942 61.3281 101.739 61.3281C102.537 61.3281 103.098 61.6015 103.422 62.1482C103.751 62.6894 103.915 63.4426 103.915 64.4077C103.915 65.3841 103.751 66.1484 103.422 66.7007C103.098 67.2475 102.537 67.5209 101.739 67.5209C100.942 67.5209 100.378 67.2475 100.049 66.7007C99.7254 66.1484 99.5636 65.3841 99.5636 64.4077ZM102.978 64.4077C102.978 63.9558 102.947 63.5737 102.886 63.2612C102.83 62.9488 102.713 62.695 102.534 62.4997C102.356 62.2988 102.091 62.1984 101.739 62.1984C101.388 62.1984 101.123 62.2988 100.944 62.4997C100.766 62.695 100.646 62.9488 100.585 63.2612C100.529 63.5737 100.501 63.9558 100.501 64.4077C100.501 64.8764 100.529 65.2697 100.585 65.5877C100.64 65.9057 100.758 66.1624 100.936 66.3576C101.12 66.5529 101.388 66.6505 101.739 66.6505C102.091 66.6505 102.356 66.5529 102.534 66.3576C102.719 66.1624 102.839 65.9057 102.894 65.5877C102.95 65.2697 102.978 64.8764 102.978 64.4077ZM106.117 66.3911L105.105 68.7008H104.485L105.08 66.3911H106.117ZM112.581 63.052V66.9183H113.234V69.0942H112.522V67.5376H109.401V69.0942H108.698V66.9183H109.058C109.314 66.5613 109.526 66.1735 109.694 65.7551C109.867 65.3311 109.995 64.8903 110.079 64.4328C110.168 63.9698 110.215 63.5095 110.221 63.052H112.581ZM110.874 63.6295C110.851 64.0088 110.793 64.4022 110.698 64.8094C110.603 65.2111 110.48 65.5961 110.33 65.9643C110.185 66.3325 110.015 66.6505 109.819 66.9183H111.87V63.6295H110.874ZM118.034 65.2864C118.034 65.6602 117.983 65.9922 117.883 66.2823C117.788 66.5668 117.649 66.8095 117.465 67.0104C117.286 67.2112 117.066 67.3646 116.803 67.4706C116.547 67.5711 116.259 67.6213 115.941 67.6213C115.646 67.6213 115.372 67.5711 115.121 67.4706C114.87 67.3646 114.653 67.2112 114.469 67.0104C114.284 66.8095 114.139 66.5668 114.033 66.2823C113.933 65.9922 113.883 65.6602 113.883 65.2864C113.883 64.7899 113.966 64.3715 114.134 64.0311C114.301 63.6852 114.541 63.423 114.854 63.2445C115.166 63.0604 115.537 62.9683 115.967 62.9683C116.374 62.9683 116.731 63.0604 117.038 63.2445C117.35 63.423 117.593 63.6852 117.766 64.0311C117.944 64.3715 118.034 64.7899 118.034 65.2864ZM114.644 65.2864C114.644 65.6379 114.689 65.9448 114.778 66.207C114.873 66.4636 115.018 66.6617 115.213 66.8012C115.409 66.9406 115.657 67.0104 115.958 67.0104C116.259 67.0104 116.508 66.9406 116.703 66.8012C116.898 66.6617 117.041 66.4636 117.13 66.207C117.225 65.9448 117.272 65.6379 117.272 65.2864C117.272 64.9294 117.225 64.6253 117.13 64.3743C117.035 64.1232 116.89 63.9307 116.695 63.7968C116.505 63.6573 116.257 63.5876 115.95 63.5876C115.492 63.5876 115.16 63.7382 114.954 64.0395C114.748 64.3408 114.644 64.7564 114.644 65.2864ZM125.141 62.257H122.337V63.9224C122.454 63.7661 122.627 63.635 122.856 63.529C123.09 63.423 123.338 63.37 123.601 63.37C124.069 63.37 124.449 63.4705 124.739 63.6713C125.035 63.8721 125.244 64.126 125.366 64.4328C125.495 64.7397 125.559 65.0633 125.559 65.4036C125.559 65.8165 125.478 66.1847 125.316 66.5083C125.16 66.8263 124.923 67.0773 124.605 67.2614C124.292 67.4455 123.908 67.5376 123.45 67.5376C122.842 67.5376 122.354 67.387 121.986 67.0857C121.617 66.7844 121.397 66.3855 121.324 65.889H122.253C122.315 66.1512 122.451 66.3604 122.663 66.5166C122.875 66.6673 123.14 66.7426 123.458 66.7426C123.855 66.7426 124.15 66.6226 124.345 66.3827C124.546 66.1428 124.647 65.8248 124.647 65.4287C124.647 65.027 124.546 64.7202 124.345 64.5082C124.145 64.2906 123.849 64.1818 123.458 64.1818C123.185 64.1818 122.954 64.2515 122.764 64.391C122.58 64.5249 122.446 64.709 122.362 64.9433H121.458V61.4201H125.141V62.257ZM130.157 62.9683C130.497 62.9683 130.793 63.0158 131.044 63.1106C131.295 63.1999 131.49 63.3338 131.63 63.5123C131.769 63.6852 131.839 63.8972 131.839 64.1483C131.839 64.4217 131.764 64.6393 131.613 64.8011C131.462 64.9573 131.256 65.0716 130.994 65.1442V65.1776C131.172 65.2279 131.337 65.2976 131.488 65.3869C131.638 65.4761 131.758 65.5933 131.847 65.7383C131.942 65.8834 131.99 66.0703 131.99 66.299C131.99 66.5445 131.92 66.7677 131.78 66.9685C131.647 67.1694 131.437 67.3284 131.153 67.4455C130.874 67.5627 130.514 67.6213 130.073 67.6213C129.861 67.6213 129.658 67.6101 129.462 67.5878C129.273 67.5655 129.1 67.532 128.944 67.4874C128.793 67.4428 128.659 67.3898 128.542 67.3284V66.6673C128.732 66.7565 128.955 66.8374 129.211 66.91C129.474 66.9825 129.758 67.0187 130.065 67.0187C130.288 67.0187 130.489 66.9936 130.667 66.9434C130.852 66.8932 130.997 66.8151 131.103 66.7091C131.209 66.5975 131.262 66.4469 131.262 66.2572C131.262 66.0842 131.214 65.9448 131.119 65.8388C131.025 65.7272 130.882 65.6435 130.693 65.5877C130.508 65.5319 130.271 65.504 129.981 65.504H129.379V64.9015H129.864C130.249 64.9015 130.556 64.8513 130.785 64.7508C131.019 64.6448 131.136 64.4663 131.136 64.2153C131.136 64.0033 131.047 63.8442 130.868 63.7382C130.695 63.6322 130.444 63.5792 130.115 63.5792C129.87 63.5792 129.652 63.6043 129.462 63.6546C129.278 63.6992 129.075 63.7689 128.851 63.8638L128.592 63.278C128.832 63.172 129.083 63.0939 129.345 63.0437C129.607 62.9934 129.878 62.9683 130.157 62.9683ZM136.707 64.1818C136.707 64.4607 136.624 64.6783 136.456 64.8345C136.289 64.9907 136.074 65.0968 135.812 65.1525V65.186C136.091 65.2251 136.334 65.3255 136.54 65.4873C136.746 65.6435 136.85 65.889 136.85 66.2237C136.85 66.4134 136.813 66.5892 136.741 66.7509C136.674 66.9127 136.568 67.0522 136.423 67.1694C136.278 67.2865 136.091 67.3786 135.862 67.4455C135.633 67.5069 135.357 67.5376 135.034 67.5376H133.1V63.052H135.025C135.343 63.052 135.628 63.0883 135.879 63.1608C136.136 63.2278 136.336 63.3449 136.481 63.5123C136.632 63.6741 136.707 63.8972 136.707 64.1818ZM136.088 66.2237C136.088 65.9671 135.99 65.783 135.795 65.6714C135.6 65.5598 135.313 65.504 134.933 65.504H133.837V66.9434H134.95C135.318 66.9434 135.6 66.8904 135.795 66.7844C135.99 66.6728 136.088 66.4859 136.088 66.2237ZM135.963 64.2738C135.963 64.0618 135.884 63.9084 135.728 63.8136C135.578 63.7131 135.329 63.6629 134.983 63.6629H133.837V64.8931H134.85C135.212 64.8931 135.488 64.8429 135.678 64.7425C135.868 64.6421 135.963 64.4858 135.963 64.2738ZM139.675 62.9683C140.06 62.9683 140.39 63.052 140.663 63.2194C140.942 63.3868 141.154 63.6239 141.299 63.9307C141.45 64.232 141.525 64.5863 141.525 64.9935V65.4371H138.454C138.465 65.9448 138.593 66.3325 138.839 66.6003C139.09 66.8625 139.438 66.9936 139.885 66.9936C140.169 66.9936 140.42 66.9685 140.638 66.9183C140.861 66.8625 141.09 66.7844 141.324 66.684V67.3284C141.095 67.4288 140.869 67.5013 140.646 67.546C140.423 67.5962 140.158 67.6213 139.851 67.6213C139.427 67.6213 139.051 67.5348 138.721 67.3619C138.398 67.1889 138.144 66.9323 137.96 66.5919C137.781 66.246 137.692 65.8248 137.692 65.3283C137.692 64.8373 137.773 64.4161 137.935 64.0646C138.102 63.7131 138.334 63.4426 138.629 63.2529C138.931 63.0632 139.279 62.9683 139.675 62.9683ZM139.667 63.5709C139.316 63.5709 139.037 63.6852 138.83 63.914C138.629 64.1371 138.509 64.4496 138.47 64.8513H140.755C140.755 64.5946 140.716 64.3715 140.638 64.1818C140.56 63.9921 140.44 63.8442 140.278 63.7382C140.122 63.6267 139.918 63.5709 139.667 63.5709ZM143.868 62.9683C144.208 62.9683 144.504 63.0158 144.755 63.1106C145.006 63.1999 145.201 63.3338 145.341 63.5123C145.48 63.6852 145.55 63.8972 145.55 64.1483C145.55 64.4217 145.475 64.6393 145.324 64.8011C145.173 64.9573 144.967 65.0716 144.705 65.1442V65.1776C144.883 65.2279 145.048 65.2976 145.198 65.3869C145.349 65.4761 145.469 65.5933 145.558 65.7383C145.653 65.8834 145.7 66.0703 145.7 66.299C145.7 66.5445 145.631 66.7677 145.491 66.9685C145.357 67.1694 145.148 67.3284 144.864 67.4455C144.585 67.5627 144.225 67.6213 143.784 67.6213C143.572 67.6213 143.368 67.6101 143.173 67.5878C142.983 67.5655 142.811 67.532 142.654 67.4874C142.504 67.4428 142.37 67.3898 142.253 67.3284V66.6673C142.442 66.7565 142.665 66.8374 142.922 66.91C143.184 66.9825 143.469 67.0187 143.776 67.0187C143.999 67.0187 144.2 66.9936 144.378 66.9434C144.562 66.8932 144.707 66.8151 144.813 66.7091C144.919 66.5975 144.972 66.4469 144.972 66.2572C144.972 66.0842 144.925 65.9448 144.83 65.8388C144.735 65.7272 144.593 65.6435 144.403 65.5877C144.219 65.5319 143.982 65.504 143.692 65.504H143.089V64.9015H143.575C143.96 64.9015 144.267 64.8513 144.495 64.7508C144.73 64.6448 144.847 64.4663 144.847 64.2153C144.847 64.0033 144.758 63.8442 144.579 63.7382C144.406 63.6322 144.155 63.5792 143.826 63.5792C143.58 63.5792 143.363 63.6043 143.173 63.6546C142.989 63.6992 142.785 63.7689 142.562 63.8638L142.303 63.278C142.543 63.172 142.794 63.0939 143.056 63.0437C143.318 62.9934 143.589 62.9683 143.868 62.9683ZM150.142 63.052V66.9183H150.795V69.0942H150.083V67.5376H146.962V69.0942H146.259V66.9183H146.619C146.875 66.5613 147.087 66.1735 147.255 65.7551C147.428 65.3311 147.556 64.8903 147.64 64.4328C147.729 63.9698 147.776 63.5095 147.782 63.052H150.142ZM148.435 63.6295C148.412 64.0088 148.354 64.4022 148.259 64.8094C148.164 65.2111 148.041 65.5961 147.891 65.9643C147.746 66.3325 147.576 66.6505 147.38 66.9183H149.431V63.6295H148.435Z" fill="#191C30"/>
</g>
<defs>
<filter id="filter0_d_43_2896" x="0.639289" y="0.678417" width="278.834" height="109.592" filterUnits="userSpaceOnUse" color-interpolation-filters="sRGB">
<feFlood flood-opacity="0" result="BackgroundImageFix"/>
<feColorMatrix in="SourceAlpha" type="matrix" values="0 0 0 0 0 0 0 0 0 0 0 0 0 0 0 0 0 0 127 0" result="hardAlpha"/>
<feOffset dx="0.896579" dy="10.7589"/>
<feGaussianBlur stdDeviation="8.60716"/>
<feComposite in2="hardAlpha" operator="out"/>
<feColorMatrix type="matrix" values="0 0 0 0 0.332922 0 0 0 0 0.400106 0 0 0 0 0.601667 0 0 0 0.22 0"/>
<feBlend mode="normal" in2="BackgroundImageFix" result="effect1_dropShadow_43_2896"/>
<feBlend mode="normal" in="SourceGraphic" in2="effect1_dropShadow_43_2896" result="shape"/>
</filter>
</defs>
</svg>
