<svg width="198" height="172" viewBox="0 0 198 172" fill="none" xmlns="http://www.w3.org/2000/svg">
<g filter="url(#filter0_d_43_1906)">
<rect x="17" y="7" width="162" height="137" rx="10.7589" fill="white"/>
</g>
<rect x="41" y="25" width="116" height="20" rx="10" fill="#3D7B50"/>
<path d="M66.527 37.5897C66.1026 37.5897 65.7231 37.503 65.3884 37.3296C65.0596 37.1563 64.7996 36.8873 64.6083 36.5227C64.4231 36.1581 64.3304 35.6919 64.3304 35.1241C64.3304 34.5323 64.429 34.0512 64.6263 33.6806C64.8235 33.31 65.0895 33.038 65.4242 32.8647C65.7649 32.6913 66.1505 32.6047 66.5808 32.6047C66.8259 32.6047 67.062 32.6316 67.2891 32.6854C67.5163 32.7332 67.7015 32.793 67.845 32.8647L67.6029 33.5192C67.4595 33.4654 67.2921 33.4146 67.1008 33.3668C66.9096 33.319 66.7303 33.295 66.5629 33.295C66.2401 33.295 65.9741 33.3638 65.7649 33.5013C65.5557 33.6387 65.4003 33.842 65.2987 34.1109C65.1971 34.3799 65.1463 34.7146 65.1463 35.1151C65.1463 35.4976 65.1971 35.8234 65.2987 36.0924C65.4003 36.3613 65.5527 36.5646 65.756 36.702C65.9592 36.8395 66.2132 36.9083 66.5181 36.9083C66.7811 36.9083 67.0112 36.8814 67.2084 36.8276C67.4117 36.7738 67.5969 36.708 67.7643 36.6303V37.3296C67.6029 37.4133 67.4236 37.4761 67.2264 37.5179C67.0351 37.5657 66.802 37.5897 66.527 37.5897ZM70.7272 32.6136C71.313 32.6136 71.7463 32.7422 72.0273 32.9992C72.3082 33.2562 72.4487 33.6656 72.4487 34.2275V37.5H71.8748L71.7224 36.8186H71.6866C71.5491 36.9919 71.4056 37.1384 71.2562 37.2579C71.1127 37.3715 70.9454 37.4552 70.7541 37.509C70.5688 37.5628 70.3417 37.5897 70.0727 37.5897C69.7858 37.5897 69.5258 37.5389 69.2927 37.4372C69.0656 37.3356 68.8862 37.1802 68.7547 36.971C68.6232 36.7558 68.5575 36.4869 68.5575 36.1641C68.5575 35.6859 68.7458 35.3183 69.1223 35.0613C69.4989 34.7983 70.0787 34.6549 70.8617 34.6309L71.6776 34.604V34.3171C71.6776 33.9167 71.5909 33.6387 71.4176 33.4833C71.2442 33.3279 70.9992 33.2502 70.6824 33.2502C70.4313 33.2502 70.1923 33.2891 69.9651 33.3668C69.738 33.4385 69.5258 33.5222 69.3286 33.6178L69.0865 33.0261C69.2957 32.9125 69.5437 32.8169 69.8306 32.7392C70.1175 32.6555 70.4164 32.6136 70.7272 32.6136ZM70.9603 35.1779C70.3626 35.2018 69.9472 35.2974 69.7141 35.4648C69.487 35.6321 69.3734 35.8682 69.3734 36.1731C69.3734 36.442 69.4541 36.6393 69.6155 36.7648C69.7828 36.8903 69.995 36.9531 70.252 36.9531C70.6585 36.9531 70.9962 36.8425 71.2652 36.6214C71.5341 36.3942 71.6686 36.0475 71.6686 35.5813V35.151L70.9603 35.1779ZM79.0882 32.6943V37.5H78.3799V34.4337C78.3799 34.3082 78.3829 34.1767 78.3889 34.0392C78.4009 33.9017 78.4128 33.7672 78.4248 33.6357H78.3979L76.8289 37.5H76.1654L74.6412 33.6357H74.6143C74.6263 33.7672 74.6322 33.9017 74.6322 34.0392C74.6382 34.1767 74.6412 34.3171 74.6412 34.4606V37.5H73.9329V32.6943H74.9819L76.4971 36.5586L78.0392 32.6943H79.0882ZM80.6222 37.5V32.6943H81.4112V34.6668H82.6575C83.0759 34.6668 83.4196 34.7176 83.6885 34.8192C83.9575 34.9208 84.1577 35.0733 84.2892 35.2765C84.4207 35.4737 84.4865 35.7248 84.4865 36.0296C84.4865 36.3285 84.4207 36.5885 84.2892 36.8096C84.1637 37.0308 83.9635 37.2011 83.6885 37.3207C83.4196 37.4402 83.0639 37.5 82.6216 37.5H80.6222ZM82.5499 36.8634C82.8906 36.8634 83.1685 36.8066 83.3837 36.6931C83.5989 36.5735 83.7065 36.3673 83.7065 36.0744C83.7065 35.7816 83.6078 35.5843 83.4106 35.4827C83.2133 35.3751 82.9294 35.3213 82.5588 35.3213H81.4112V36.8634H82.5499ZM85.2844 37.5V32.6943H86.0734V37.5H85.2844ZM91.4916 30.7039C91.4677 31.0028 91.393 31.2538 91.2675 31.4571C91.148 31.6603 90.9686 31.8127 90.7295 31.9143C90.4905 32.0159 90.1796 32.0667 89.7971 32.0667C89.4086 32.0667 89.0948 32.0159 88.8557 31.9143C88.6226 31.8127 88.4522 31.6633 88.3446 31.466C88.2371 31.2628 88.1713 31.0088 88.1474 30.7039H88.8826C88.9125 31.0267 88.9962 31.2449 89.1336 31.3584C89.2771 31.466 89.5042 31.5198 89.815 31.5198C90.09 31.5198 90.3052 31.463 90.4606 31.3495C90.622 31.2299 90.7176 31.0147 90.7475 30.7039H91.4916ZM88.3446 35.6261C88.3446 35.6799 88.3417 35.7576 88.3357 35.8593C88.3357 35.9549 88.3327 36.0595 88.3267 36.1731C88.3207 36.2807 88.3148 36.3853 88.3088 36.4869C88.3028 36.5825 88.2968 36.6602 88.2909 36.72L90.864 32.6943H91.8323V37.5H91.0971V34.6668C91.0971 34.5712 91.0971 34.4457 91.0971 34.2902C91.1031 34.1348 91.1091 33.9824 91.1151 33.833C91.1211 33.6776 91.127 33.561 91.133 33.4833L88.5778 37.5H87.6005V32.6943H88.3446V35.6261ZM95.501 34.613C95.501 33.9137 95.5697 33.319 95.7072 32.8288C95.8506 32.3327 96.0688 31.9382 96.3617 31.6453C96.6605 31.3465 97.0431 31.1462 97.5093 31.0446C97.8978 30.9609 98.2774 30.8862 98.648 30.8205C99.0185 30.7547 99.3652 30.695 99.688 30.6412L99.8225 31.3315C99.6671 31.3554 99.4937 31.3853 99.3025 31.4212C99.1112 31.4511 98.9169 31.484 98.7197 31.5198C98.5224 31.5497 98.3312 31.5826 98.1459 31.6184C97.9666 31.6483 97.8082 31.6782 97.6707 31.7081C97.4734 31.7499 97.2971 31.8217 97.1417 31.9233C96.9863 32.0189 96.8518 32.1504 96.7382 32.3178C96.6307 32.4851 96.544 32.6913 96.4782 32.9364C96.4125 33.1815 96.3736 33.4714 96.3617 33.8061H96.4155C96.4992 33.6925 96.6127 33.576 96.7562 33.4564C96.9056 33.3369 97.0819 33.2353 97.2852 33.1516C97.4944 33.0679 97.7305 33.0261 97.9935 33.0261C98.4119 33.0261 98.7585 33.1187 99.0335 33.304C99.3144 33.4833 99.5236 33.7344 99.6611 34.0571C99.8045 34.3799 99.8763 34.7565 99.8763 35.1868C99.8763 35.7188 99.7836 36.1641 99.5983 36.5227C99.413 36.8814 99.156 37.1503 98.8273 37.3296C98.4985 37.503 98.116 37.5897 97.6796 37.5897C97.3509 37.5897 97.052 37.5269 96.7831 37.4014C96.5141 37.2699 96.284 37.0786 96.0927 36.8276C95.9014 36.5765 95.755 36.2657 95.6534 35.8951C95.5518 35.5245 95.501 35.0972 95.501 34.613ZM97.7424 36.9352C98.0054 36.9352 98.2325 36.8814 98.4238 36.7738C98.6211 36.6662 98.7735 36.4899 98.8811 36.2448C98.9887 35.9997 99.0424 35.674 99.0424 35.2675C99.0424 34.7774 98.9498 34.3919 98.7645 34.1109C98.5852 33.824 98.2863 33.6806 97.8679 33.6806C97.6049 33.6806 97.3658 33.7403 97.1507 33.8599C96.9355 33.9735 96.7562 34.105 96.6127 34.2544C96.4693 34.4038 96.3677 34.5293 96.3079 34.6309C96.3079 34.9238 96.3288 35.2077 96.3706 35.4827C96.4125 35.7576 96.4842 36.0057 96.5858 36.2269C96.6934 36.442 96.8399 36.6154 97.0251 36.7469C97.2164 36.8724 97.4555 36.9352 97.7424 36.9352ZM101.119 37.5V32.6943H101.908V34.6668H103.154C103.573 34.6668 103.917 34.7176 104.186 34.8192C104.454 34.9208 104.655 35.0733 104.786 35.2765C104.918 35.4737 104.983 35.7248 104.983 36.0296C104.983 36.3285 104.918 36.5885 104.786 36.8096C104.661 37.0308 104.46 37.2011 104.186 37.3207C103.917 37.4402 103.561 37.5 103.119 37.5H101.119ZM103.047 36.8634C103.388 36.8634 103.666 36.8066 103.881 36.6931C104.096 36.5735 104.203 36.3673 104.203 36.0744C104.203 35.7816 104.105 35.5843 103.908 35.4827C103.71 35.3751 103.426 35.3213 103.056 35.3213H101.908V36.8634H103.047ZM105.781 37.5V32.6943H106.57V37.5H105.781ZM110.025 37.5897C109.601 37.5897 109.221 37.503 108.886 37.3296C108.558 37.1563 108.298 36.8873 108.106 36.5227C107.921 36.1581 107.829 35.6919 107.829 35.1241C107.829 34.5323 107.927 34.0512 108.124 33.6806C108.322 33.31 108.588 33.038 108.922 32.8647C109.263 32.6913 109.649 32.6047 110.079 32.6047C110.324 32.6047 110.56 32.6316 110.787 32.6854C111.014 32.7332 111.2 32.793 111.343 32.8647L111.101 33.5192C110.958 33.4654 110.79 33.4146 110.599 33.3668C110.408 33.319 110.228 33.295 110.061 33.295C109.738 33.295 109.472 33.3638 109.263 33.5013C109.054 33.6387 108.898 33.842 108.797 34.1109C108.695 34.3799 108.644 34.7146 108.644 35.1151C108.644 35.4976 108.695 35.8234 108.797 36.0924C108.898 36.3613 109.051 36.5646 109.254 36.702C109.457 36.8395 109.711 36.9083 110.016 36.9083C110.279 36.9083 110.509 36.8814 110.707 36.8276C110.91 36.7738 111.095 36.708 111.262 36.6303V37.3296C111.101 37.4133 110.922 37.4761 110.724 37.5179C110.533 37.5657 110.3 37.5897 110.025 37.5897ZM115.723 33.3578H114.154V37.5H113.374V33.3578H111.822V32.6943H115.723V33.3578ZM118.956 32.6047C119.547 32.6047 120.022 32.8109 120.381 33.2233C120.746 33.6357 120.928 34.2574 120.928 35.0882C120.928 35.6321 120.844 36.0924 120.677 36.4689C120.516 36.8395 120.285 37.1204 119.987 37.3117C119.694 37.497 119.347 37.5897 118.947 37.5897C118.702 37.5897 118.483 37.5568 118.292 37.491C118.101 37.4253 117.936 37.3416 117.799 37.24C117.667 37.1324 117.554 37.0158 117.458 36.8903H117.404C117.416 36.9919 117.428 37.1204 117.44 37.2759C117.452 37.4313 117.458 37.5657 117.458 37.6793V39.6518H116.669V32.6943H117.315L117.422 33.3488H117.458C117.554 33.2114 117.667 33.0858 117.799 32.9723C117.936 32.8587 118.098 32.7691 118.283 32.7033C118.474 32.6376 118.699 32.6047 118.956 32.6047ZM118.812 33.2681C118.489 33.2681 118.229 33.3309 118.032 33.4564C117.835 33.576 117.691 33.7583 117.602 34.0033C117.512 34.2484 117.464 34.5592 117.458 34.9358V35.0882C117.458 35.4827 117.5 35.8174 117.584 36.0924C117.667 36.3673 117.808 36.5765 118.005 36.72C118.208 36.8634 118.483 36.9352 118.83 36.9352C119.123 36.9352 119.362 36.8545 119.547 36.6931C119.739 36.5317 119.879 36.3135 119.969 36.0386C120.064 35.7576 120.112 35.4379 120.112 35.0792C120.112 34.5293 120.005 34.09 119.789 33.7613C119.58 33.4325 119.254 33.2681 118.812 33.2681ZM122.185 37.5V32.6943H122.974V34.6668H124.221C124.639 34.6668 124.983 34.7176 125.252 34.8192C125.521 34.9208 125.721 35.0733 125.852 35.2765C125.984 35.4737 126.05 35.7248 126.05 36.0296C126.05 36.3285 125.984 36.5885 125.852 36.8096C125.727 37.0308 125.527 37.2011 125.252 37.3207C124.983 37.4402 124.627 37.5 124.185 37.5H122.185ZM124.113 36.8634C124.454 36.8634 124.732 36.8066 124.947 36.6931C125.162 36.5735 125.27 36.3673 125.27 36.0744C125.27 35.7816 125.171 35.5843 124.974 35.4827C124.776 35.3751 124.493 35.3213 124.122 35.3213H122.974V36.8634H124.113ZM126.848 37.5V32.6943H127.637V37.5H126.848ZM133.055 30.7039C133.031 31.0028 132.956 31.2538 132.831 31.4571C132.711 31.6603 132.532 31.8127 132.293 31.9143C132.054 32.0159 131.743 32.0667 131.36 32.0667C130.972 32.0667 130.658 32.0159 130.419 31.9143C130.186 31.8127 130.015 31.6633 129.908 31.466C129.8 31.2628 129.734 31.0088 129.711 30.7039H130.446C130.476 31.0267 130.559 31.2449 130.697 31.3584C130.84 31.466 131.067 31.5198 131.378 31.5198C131.653 31.5198 131.868 31.463 132.024 31.3495C132.185 31.2299 132.281 31.0147 132.311 30.7039H133.055ZM129.908 35.6261C129.908 35.6799 129.905 35.7576 129.899 35.8593C129.899 35.9549 129.896 36.0595 129.89 36.1731C129.884 36.2807 129.878 36.3853 129.872 36.4869C129.866 36.5825 129.86 36.6602 129.854 36.72L132.427 32.6943H133.395V37.5H132.66V34.6668C132.66 34.5712 132.66 34.4457 132.66 34.2902C132.666 34.1348 132.672 33.9824 132.678 33.833C132.684 33.6776 132.69 33.561 132.696 33.4833L130.141 37.5H129.164V32.6943H129.908V35.6261Z" fill="white"/>
<path d="M45.2458 61.6936C45.9905 61.6936 46.614 61.7647 47.116 61.9069C47.6265 62.0492 48.0072 62.2835 48.2583 62.6099C48.5177 62.9362 48.6474 63.3714 48.6474 63.9153C48.6474 64.2667 48.5805 64.5805 48.4466 64.8567C48.321 65.1245 48.1286 65.3504 47.8692 65.5345C47.6181 65.7102 47.3085 65.8316 46.9403 65.8985V65.9613C47.3169 66.0198 47.6558 66.1286 47.957 66.2876C48.2666 66.4466 48.5093 66.6726 48.6851 66.9654C48.8608 67.2583 48.9486 67.6391 48.9486 68.1077C48.9486 68.6516 48.8231 69.116 48.5721 69.501C48.321 69.8775 47.9612 70.1662 47.4926 70.3671C47.0324 70.5595 46.4801 70.6558 45.8357 70.6558H42.6851V61.6936H45.2458ZM45.4717 65.5094C46.2416 65.5094 46.7688 65.3881 47.0533 65.1454C47.3378 64.8943 47.4801 64.5261 47.4801 64.0408C47.4801 63.5471 47.3043 63.1956 46.9529 62.9864C46.6098 62.7689 46.0575 62.6601 45.296 62.6601H43.8148V65.5094H45.4717ZM43.8148 66.4508V69.7018H45.6223C46.4173 69.7018 46.9696 69.547 47.2792 69.2374C47.5888 68.9278 47.7436 68.5219 47.7436 68.0198C47.7436 67.7018 47.6725 67.4257 47.5303 67.1914C47.3964 66.9571 47.1662 66.7772 46.8399 66.6516C46.5219 66.5178 46.0868 66.4508 45.5345 66.4508H43.8148ZM54.6773 63.9278H55.8823L53.0079 67.1663L56.1208 70.6558H54.8405L51.8029 67.2416V70.6558H50.6983V63.9278H51.8029V67.1914L54.6773 63.9278ZM62.4633 70.6558H61.3462V64.8441H59.363C59.2793 65.9069 59.1747 66.8148 59.0492 67.5679C58.9237 68.3127 58.7647 68.9194 58.5722 69.388C58.3797 69.8566 58.1496 70.1997 57.8818 70.4173C57.614 70.6348 57.3002 70.7436 56.9404 70.7436C56.8316 70.7436 56.7228 70.7353 56.6141 70.7185C56.5136 70.7102 56.43 70.6892 56.363 70.6558V69.8273C56.4132 69.8441 56.4676 69.8566 56.5262 69.865C56.5848 69.8733 56.6434 69.8775 56.7019 69.8775C56.886 69.8775 57.0534 69.8022 57.204 69.6516C57.3546 69.501 57.4885 69.2708 57.6057 68.9612C57.7312 68.6516 57.8442 68.2625 57.9446 67.7939C58.045 67.3169 58.1329 66.7562 58.2082 66.1119C58.2835 65.4676 58.3504 64.7395 58.409 63.9278H62.4633V70.6558ZM73.335 67.2792C73.335 68.024 73.2137 68.66 72.971 69.1872C72.7284 69.706 72.3853 70.1035 71.9418 70.3796C71.4982 70.6474 70.9711 70.7813 70.3602 70.7813C69.7912 70.7813 69.2933 70.6641 68.8665 70.4298C68.4397 70.1871 68.1008 69.8357 67.8498 69.3754C67.5987 68.9068 67.4523 68.3336 67.4104 67.6558H65.7034V70.6558H64.5988V63.9278H65.7034V66.727H67.423C67.4816 66.091 67.6364 65.5596 67.8874 65.1328C68.1468 64.6977 68.4857 64.3672 68.9041 64.1412C69.3309 63.9153 69.8246 63.8023 70.3853 63.8023C70.9627 63.8023 71.4731 63.9404 71.9167 64.2165C72.3602 64.4843 72.7074 64.8776 72.9585 65.3964C73.2095 65.9069 73.335 66.5345 73.335 67.2792ZM68.5401 67.2792C68.5401 67.8399 68.6029 68.3127 68.7284 68.6976C68.8623 69.0826 69.0631 69.3754 69.3309 69.5763C69.5987 69.7687 69.946 69.865 70.3727 69.865C70.7995 69.865 71.1468 69.7687 71.4146 69.5763C71.6823 69.3754 71.879 69.0826 72.0045 68.6976C72.13 68.3127 72.1928 67.8399 72.1928 67.2792C72.1928 66.7186 72.13 66.25 72.0045 65.8734C71.879 65.4968 71.6823 65.2123 71.4146 65.0199C71.1468 64.8274 70.7995 64.7312 70.3727 64.7312C69.946 64.7312 69.5987 64.8274 69.3309 65.0199C69.0631 65.2123 68.8623 65.4968 68.7284 65.8734C68.6029 66.25 68.5401 66.7186 68.5401 67.2792ZM75.9355 66.3755C75.9355 66.7688 76.0443 67.0617 76.2618 67.2541C76.4878 67.4382 76.8099 67.5303 77.2284 67.5303C77.6468 67.5303 78.0275 67.4675 78.3706 67.342C78.7137 67.2081 79.0651 67.0324 79.425 66.8148V63.9278H80.5296V70.6558H79.425V67.6558C79.0484 67.8985 78.676 68.0909 78.3078 68.2332C77.948 68.3671 77.5129 68.434 77.0024 68.434C76.3162 68.434 75.7807 68.2541 75.3957 67.8943C75.0192 67.5345 74.8309 67.0533 74.8309 66.4508V63.9278H75.9355V66.3755ZM85.2652 63.8023C85.8426 63.8023 86.3363 63.9278 86.7464 64.1789C87.1648 64.4299 87.4828 64.7856 87.7003 65.2458C87.9263 65.6977 88.0392 66.2291 88.0392 66.8399V67.5052H83.4326C83.4494 68.2667 83.6418 68.8483 84.01 69.2499C84.3866 69.6432 84.9096 69.8399 85.579 69.8399C86.0058 69.8399 86.3824 69.8022 86.7087 69.7269C87.0434 69.6432 87.3865 69.5261 87.738 69.3754V70.342C87.3949 70.4926 87.056 70.6014 86.7213 70.6683C86.3866 70.7436 85.9891 70.7813 85.5288 70.7813C84.8929 70.7813 84.328 70.6516 83.8343 70.3922C83.3489 70.1328 82.9682 69.7478 82.692 69.2374C82.4243 68.7186 82.2904 68.0868 82.2904 67.342C82.2904 66.6056 82.4117 65.9738 82.6544 65.4466C82.9054 64.9194 83.2527 64.5136 83.6962 64.2291C84.1481 63.9446 84.6711 63.8023 85.2652 63.8023ZM85.2527 64.7061C84.7255 64.7061 84.3071 64.8776 83.9975 65.2207C83.6962 65.5554 83.5163 66.024 83.4577 66.6265H86.8845C86.8845 66.2416 86.8259 65.9069 86.7087 65.6224C86.5916 65.3379 86.4117 65.1161 86.169 64.9571C85.9347 64.7897 85.6292 64.7061 85.2527 64.7061ZM90.8566 63.9278V66.727H94.5093V63.9278H95.6139V70.6558H94.5093V67.6558H90.8566V70.6558H89.752V63.9278H90.8566ZM103.593 67.2792C103.593 67.8399 103.518 68.3378 103.368 68.7729C103.225 69.1997 103.016 69.5637 102.74 69.865C102.472 70.1662 102.142 70.3964 101.748 70.5553C101.363 70.706 100.932 70.7813 100.455 70.7813C100.012 70.7813 99.6019 70.706 99.2253 70.5553C98.8488 70.3964 98.5224 70.1662 98.2463 69.865C97.9701 69.5637 97.7526 69.1997 97.5936 68.7729C97.4429 68.3378 97.3676 67.8399 97.3676 67.2792C97.3676 66.5345 97.4931 65.9069 97.7442 65.3964C97.9952 64.8776 98.3551 64.4843 98.8237 64.2165C99.2923 63.9404 99.8488 63.8023 100.493 63.8023C101.104 63.8023 101.64 63.9404 102.1 64.2165C102.568 64.4843 102.932 64.8776 103.192 65.3964C103.46 65.9069 103.593 66.5345 103.593 67.2792ZM98.5099 67.2792C98.5099 67.8064 98.5768 68.2667 98.7107 68.66C98.853 69.0449 99.0705 69.342 99.3634 69.5512C99.6563 69.7604 100.029 69.865 100.481 69.865C100.932 69.865 101.305 69.7604 101.598 69.5512C101.891 69.342 102.104 69.0449 102.238 68.66C102.38 68.2667 102.451 67.8064 102.451 67.2792C102.451 66.7437 102.38 66.2876 102.238 65.9111C102.096 65.5345 101.878 65.2458 101.585 65.045C101.301 64.8358 100.928 64.7312 100.468 64.7312C99.7818 64.7312 99.2839 64.9571 98.9743 65.409C98.6647 65.8609 98.5099 66.4843 98.5099 67.2792ZM108.101 62.6224V61.5806H110.46V70.6558H109.306V62.6224H108.101ZM112.422 66.024C112.422 64.5847 112.657 63.4634 113.125 62.6601C113.594 61.8484 114.414 61.4425 115.586 61.4425C116.749 61.4425 117.565 61.8484 118.033 62.6601C118.502 63.4634 118.736 64.5847 118.736 66.024C118.736 67.4884 118.502 68.6265 118.033 69.4382C117.565 70.2499 116.749 70.6558 115.586 70.6558C114.414 70.6558 113.594 70.2499 113.125 69.4382C112.657 68.6265 112.422 67.4884 112.422 66.024ZM117.606 66.024C117.606 65.296 117.556 64.681 117.456 64.1789C117.364 63.6684 117.167 63.2584 116.866 62.9488C116.573 62.6391 116.146 62.4843 115.586 62.4843C115.017 62.4843 114.581 62.6391 114.28 62.9488C113.987 63.2584 113.791 63.6684 113.69 64.1789C113.598 64.681 113.552 65.296 113.552 66.024C113.552 66.7772 113.598 67.4089 113.69 67.9194C113.791 68.4299 113.987 68.8399 114.28 69.1495C114.581 69.4591 115.017 69.6139 115.586 69.6139C116.146 69.6139 116.573 69.4591 116.866 69.1495C117.167 68.8399 117.364 68.4299 117.456 67.9194C117.556 67.4089 117.606 66.7772 117.606 66.024ZM127.918 63.9278H129.123L126.249 67.1663L129.362 70.6558H128.082L125.044 67.2416V70.6558H123.939V63.9278H125.044V67.1914L127.918 63.9278ZM134.688 63.9278V64.8567H131.688V70.6558H130.583V63.9278H134.688Z" fill="#585858"/>
<path opacity="0.3" d="M145.899 60.9754H144.009V60.1654C144.009 58.8233 145.278 57.7354 146.844 57.7354H148.734C150.3 57.7354 151.569 58.8233 151.569 60.1654V60.9754H149.679V60.1654C149.679 59.718 149.256 59.3554 148.734 59.3554H146.844C146.322 59.3554 145.899 59.718 145.899 60.1654V60.9754Z" fill="#19191E"/>
<circle cx="144.793" cy="72.6558" r="1" fill="#E9E9ED"/>
<circle cx="150.793" cy="72.6558" r="1" fill="#E9E9ED"/>
<rect x="142.793" y="60.6558" width="9" height="12" rx="1.0759" fill="#19191E"/>
<path d="M86.6334 90.9977C86.6334 91.6552 86.4601 92.2649 86.1134 92.8267C85.7787 93.3766 85.2766 93.8309 84.6072 94.1895C83.9497 94.5362 83.1667 94.7275 82.2581 94.7634V96.2158H81.1105V94.7454C79.8433 94.6378 78.8212 94.2613 78.0442 93.6157C77.2672 92.9582 76.8547 92.0676 76.8069 90.9439H80.0705C80.1422 91.6612 80.4889 92.1214 81.1105 92.3247V89.4915C80.1781 89.2524 79.4309 89.0193 78.8691 88.7921C78.3192 88.565 77.835 88.2004 77.4166 87.6983C76.9982 87.1962 76.789 86.5088 76.789 85.6362C76.789 84.5483 77.1895 83.6757 77.9904 83.0182C78.8033 82.3607 79.8433 81.9901 81.1105 81.9064V80.4539H82.2581V81.9064C83.5133 82.002 84.5055 82.3666 85.2348 83.0002C85.964 83.6338 86.3704 84.5125 86.4541 85.6362H83.1726C83.1009 84.9906 82.7961 84.5722 82.2581 84.381V87.1604C83.2503 87.4353 84.0154 87.6804 84.5534 87.8956C85.0913 88.1107 85.5695 88.4694 85.9879 88.9714C86.4183 89.4616 86.6334 90.137 86.6334 90.9977ZM80.0346 85.4927C80.0346 85.7916 80.1243 86.0426 80.3036 86.2458C80.4949 86.4491 80.7638 86.6284 81.1105 86.7838V84.2913C80.7758 84.3511 80.5128 84.4826 80.3215 84.6858C80.1302 84.8771 80.0346 85.146 80.0346 85.4927ZM82.2581 92.3785C82.6168 92.3187 82.8977 92.1752 83.1009 91.9481C83.3161 91.721 83.4237 91.44 83.4237 91.1053C83.4237 90.7945 83.3221 90.5435 83.1188 90.3522C82.9276 90.149 82.6407 89.9756 82.2581 89.8322V92.3785ZM88.502 92.1991C88.9084 91.8764 89.0937 91.7269 89.0578 91.7508C90.2294 90.7825 91.1499 89.9876 91.8193 89.3659C92.5007 88.7443 93.0745 88.0928 93.5407 87.4114C94.007 86.73 94.2401 86.0665 94.2401 85.421C94.2401 84.9309 94.1265 84.5483 93.8994 84.2734C93.6722 83.9984 93.3315 83.8609 92.8773 83.8609C92.423 83.8609 92.0644 84.0343 91.8014 84.381C91.5503 84.7157 91.4248 85.1939 91.4248 85.8155H88.4661C88.49 84.7994 88.7052 83.9506 89.1116 83.2692C89.53 82.5878 90.074 82.0857 90.7434 81.763C91.4248 81.4402 92.1779 81.2788 93.0028 81.2788C94.4254 81.2788 95.4953 81.6434 96.2125 82.3726C96.9418 83.1018 97.3064 84.0522 97.3064 85.2237C97.3064 86.5029 96.87 87.6923 95.9974 88.7921C95.1247 89.88 94.0129 90.9439 92.6621 91.984H97.5036V94.4764H88.502V92.1991ZM101.005 87.6266C99.8817 87.0289 99.3199 86.0904 99.3199 84.8113C99.3199 84.1658 99.4872 83.58 99.822 83.054C100.157 82.5161 100.665 82.0917 101.346 81.7809C102.028 81.4581 102.864 81.2967 103.857 81.2967C104.849 81.2967 105.68 81.4581 106.349 81.7809C107.03 82.0917 107.539 82.5161 107.873 83.054C108.208 83.58 108.375 84.1658 108.375 84.8113C108.375 85.4569 108.22 86.0187 107.909 86.4969C107.61 86.9751 107.204 87.3516 106.69 87.6266C107.335 87.9374 107.831 88.3678 108.178 88.9177C108.525 89.4556 108.698 90.0892 108.698 90.8184C108.698 91.6672 108.483 92.4024 108.053 93.024C107.622 93.6337 107.036 94.0999 106.295 94.4227C105.566 94.7454 104.753 94.9068 103.857 94.9068C102.96 94.9068 102.141 94.7454 101.4 94.4227C100.671 94.0999 100.091 93.6337 99.6606 93.024C99.2302 92.4024 99.015 91.6672 99.015 90.8184C99.015 90.0772 99.1884 89.4377 99.5351 88.8997C99.8817 88.3498 100.372 87.9254 101.005 87.6266ZM105.399 85.2775C105.399 84.7874 105.255 84.4109 104.968 84.1479C104.693 83.8729 104.323 83.7354 103.857 83.7354C103.39 83.7354 103.014 83.8729 102.727 84.1479C102.452 84.4228 102.314 84.8053 102.314 85.2955C102.314 85.7617 102.458 86.1323 102.745 86.4072C103.032 86.6702 103.402 86.8017 103.857 86.8017C104.311 86.8017 104.681 86.6643 104.968 86.3893C105.255 86.1144 105.399 85.7438 105.399 85.2775ZM103.857 88.9535C103.295 88.9535 102.84 89.1089 102.494 89.4197C102.147 89.7186 101.974 90.137 101.974 90.6749C101.974 91.177 102.141 91.5895 102.476 91.9122C102.823 92.235 103.283 92.3964 103.857 92.3964C104.43 92.3964 104.879 92.235 105.201 91.9122C105.536 91.5895 105.704 91.177 105.704 90.6749C105.704 90.149 105.53 89.7306 105.184 89.4197C104.849 89.1089 104.406 88.9535 103.857 88.9535ZM112.633 87.6266C111.509 87.0289 110.947 86.0904 110.947 84.8113C110.947 84.1658 111.115 83.58 111.449 83.054C111.784 82.5161 112.292 82.0917 112.974 81.7809C113.655 81.4581 114.492 81.2967 115.484 81.2967C116.476 81.2967 117.307 81.4581 117.977 81.7809C118.658 82.0917 119.166 82.5161 119.501 83.054C119.835 83.58 120.003 84.1658 120.003 84.8113C120.003 85.4569 119.847 86.0187 119.537 86.4969C119.238 86.9751 118.831 87.3516 118.317 87.6266C118.963 87.9374 119.459 88.3678 119.806 88.9177C120.152 89.4556 120.326 90.0892 120.326 90.8184C120.326 91.6672 120.11 92.4024 119.68 93.024C119.25 93.6337 118.664 94.0999 117.923 94.4227C117.194 94.7454 116.381 94.9068 115.484 94.9068C114.588 94.9068 113.769 94.7454 113.027 94.4227C112.298 94.0999 111.718 93.6337 111.288 93.024C110.858 92.4024 110.643 91.6672 110.643 90.8184C110.643 90.0772 110.816 89.4377 111.163 88.8997C111.509 88.3498 111.999 87.9254 112.633 87.6266ZM117.026 85.2775C117.026 84.7874 116.883 84.4109 116.596 84.1479C116.321 83.8729 115.95 83.7354 115.484 83.7354C115.018 83.7354 114.641 83.8729 114.354 84.1479C114.079 84.4228 113.942 84.8053 113.942 85.2955C113.942 85.7617 114.085 86.1323 114.372 86.4072C114.659 86.6702 115.03 86.8017 115.484 86.8017C115.938 86.8017 116.309 86.6643 116.596 86.3893C116.883 86.1144 117.026 85.7438 117.026 85.2775ZM115.484 88.9535C114.922 88.9535 114.468 89.1089 114.121 89.4197C113.775 89.7186 113.601 90.137 113.601 90.6749C113.601 91.177 113.769 91.5895 114.103 91.9122C114.45 92.235 114.91 92.3964 115.484 92.3964C116.058 92.3964 116.506 92.235 116.829 91.9122C117.164 91.5895 117.331 91.177 117.331 90.6749C117.331 90.149 117.158 89.7306 116.811 89.4197C116.476 89.1089 116.034 88.9535 115.484 88.9535Z" fill="#191C30"/>
<path d="M70.3367 114.5H69.4491V108.237H67.2498V107.458H72.5262V108.237H70.3367V114.5ZM74.682 109.125C75.3263 109.125 75.803 109.266 76.112 109.549C76.421 109.832 76.5755 110.282 76.5755 110.9V114.5H75.9443L75.7767 113.75H75.7372C75.586 113.941 75.4282 114.102 75.2638 114.234C75.106 114.359 74.9219 114.451 74.7116 114.51C74.5077 114.569 74.2579 114.599 73.962 114.599C73.6464 114.599 73.3604 114.543 73.104 114.431C72.8541 114.319 72.6569 114.148 72.5122 113.918C72.3676 113.681 72.2953 113.386 72.2953 113.031C72.2953 112.505 72.5024 112.1 72.9166 111.817C73.3308 111.528 73.9686 111.37 74.8299 111.344L75.7274 111.314V110.999C75.7274 110.558 75.632 110.253 75.4414 110.082C75.2507 109.911 74.9811 109.825 74.6327 109.825C74.3565 109.825 74.0935 109.868 73.8437 109.953C73.5938 110.032 73.3604 110.124 73.1434 110.23L72.8772 109.579C73.1073 109.454 73.3801 109.349 73.6957 109.263C74.0113 109.171 74.3401 109.125 74.682 109.125ZM74.9384 111.946C74.2809 111.972 73.8239 112.077 73.5675 112.261C73.3177 112.445 73.1927 112.705 73.1927 113.04C73.1927 113.336 73.2815 113.553 73.459 113.691C73.6431 113.829 73.8765 113.898 74.1593 113.898C74.6064 113.898 74.9778 113.777 75.2737 113.533C75.5696 113.284 75.7175 112.902 75.7175 112.389V111.916L74.9384 111.946ZM82.4885 107.024C82.4622 107.353 82.38 107.629 82.2419 107.853C82.1104 108.076 81.9132 108.244 81.6502 108.356C81.3872 108.468 81.0453 108.523 80.6245 108.523C80.1971 108.523 79.852 108.468 79.589 108.356C79.3325 108.244 79.1451 108.08 79.0268 107.863C78.9085 107.639 78.8361 107.36 78.8098 107.024H79.6185C79.6514 107.379 79.7435 107.619 79.8947 107.744C80.0525 107.863 80.3023 107.922 80.6442 107.922C80.9467 107.922 81.1834 107.859 81.3543 107.734C81.5318 107.603 81.637 107.366 81.6699 107.024H82.4885ZM79.0268 112.439C79.0268 112.498 79.0235 112.583 79.0169 112.695C79.0169 112.8 79.0137 112.915 79.0071 113.04C79.0005 113.159 78.9939 113.274 78.9874 113.386C78.9808 113.491 78.9742 113.576 78.9676 113.642L81.7981 109.214H82.8633V114.5H82.0545V111.383C82.0545 111.278 82.0545 111.14 82.0545 110.969C82.0611 110.798 82.0677 110.631 82.0743 110.466C82.0808 110.295 82.0874 110.167 82.094 110.082L79.2832 114.5H78.2082V109.214H79.0268V112.439ZM90.2164 109.214V114.5H89.4373V111.127C89.4373 110.989 89.4406 110.844 89.4472 110.693C89.4603 110.542 89.4735 110.394 89.4866 110.249H89.457L87.7311 114.5H87.0013L85.3247 110.249H85.2951C85.3083 110.394 85.3148 110.542 85.3148 110.693C85.3214 110.844 85.3247 110.999 85.3247 111.157V114.5H84.5456V109.214H85.6995L87.3662 113.464L89.0625 109.214H90.2164ZM98.557 114.5H97.6792V109.934H96.121C96.0552 110.769 95.9731 111.482 95.8744 112.074C95.7758 112.659 95.6509 113.136 95.4997 113.504C95.3484 113.872 95.1676 114.142 94.9572 114.313C94.7468 114.484 94.5003 114.569 94.2175 114.569C94.1321 114.569 94.0466 114.562 93.9611 114.549C93.8822 114.543 93.8165 114.526 93.7639 114.5V113.849C93.8033 113.862 93.8461 113.872 93.8921 113.879C93.9381 113.885 93.9841 113.889 94.0302 113.889C94.1748 113.889 94.3063 113.829 94.4247 113.711C94.543 113.593 94.6482 113.412 94.7403 113.169C94.8389 112.925 94.9276 112.62 95.0065 112.251C95.0854 111.877 95.1545 111.436 95.2136 110.93C95.2728 110.424 95.3254 109.852 95.3714 109.214H98.557V114.5ZM101.053 112.439C101.053 112.498 101.05 112.583 101.044 112.695C101.044 112.8 101.04 112.915 101.034 113.04C101.027 113.159 101.021 113.274 101.014 113.386C101.007 113.491 101.001 113.576 100.994 113.642L103.825 109.214H104.89V114.5H104.081V111.383C104.081 111.278 104.081 111.14 104.081 110.969C104.088 110.798 104.094 110.631 104.101 110.466C104.107 110.295 104.114 110.167 104.121 110.082L101.31 114.5H100.235V109.214H101.053V112.439ZM112.243 109.214V114.5H111.464V111.127C111.464 110.989 111.467 110.844 111.474 110.693C111.487 110.542 111.5 110.394 111.513 110.249H111.484L109.758 114.5H109.028L107.351 110.249H107.322C107.335 110.394 107.341 110.542 107.341 110.693C107.348 110.844 107.351 110.999 107.351 111.157V114.5H106.572V109.214H107.726L109.393 113.464L111.089 109.214H112.243ZM114.749 112.439C114.749 112.498 114.746 112.583 114.739 112.695C114.739 112.8 114.736 112.915 114.729 113.04C114.723 113.159 114.716 113.274 114.71 113.386C114.703 113.491 114.696 113.576 114.69 113.642L117.52 109.214H118.585V114.5H117.777V111.383C117.777 111.278 117.777 111.14 117.777 110.969C117.783 110.798 117.79 110.631 117.796 110.466C117.803 110.295 117.81 110.167 117.816 110.082L115.005 114.5H113.93V109.214H114.749V112.439ZM123.917 109.944H122.191V114.5H121.333V109.944H119.627V109.214H123.917V109.944ZM125.165 114.559C124.994 114.559 124.85 114.5 124.731 114.382C124.613 114.263 124.554 114.119 124.554 113.948C124.554 113.777 124.613 113.632 124.731 113.514C124.85 113.395 124.994 113.336 125.165 113.336C125.33 113.336 125.468 113.395 125.58 113.514C125.698 113.632 125.757 113.777 125.757 113.948C125.757 114.119 125.698 114.263 125.58 114.382C125.468 114.5 125.33 114.559 125.165 114.559ZM125.165 110.338C124.994 110.338 124.85 110.279 124.731 110.161C124.613 110.042 124.554 109.898 124.554 109.727C124.554 109.556 124.613 109.411 124.731 109.293C124.85 109.174 124.994 109.115 125.165 109.115C125.33 109.115 125.468 109.174 125.58 109.293C125.698 109.411 125.757 109.556 125.757 109.727C125.757 109.898 125.698 110.042 125.58 110.161C125.468 110.279 125.33 110.338 125.165 110.338ZM59.1739 126.78C60.0089 126.109 60.6631 125.56 61.1365 125.133C61.6099 124.699 62.0077 124.249 62.3298 123.782C62.6586 123.308 62.823 122.845 62.823 122.391C62.823 121.964 62.7178 121.629 62.5074 121.385C62.3035 121.135 61.9715 121.011 61.5113 121.011C61.0642 121.011 60.7157 121.152 60.4659 121.435C60.2226 121.711 60.0911 122.082 60.0714 122.549H59.2035C59.2298 121.813 59.4533 121.244 59.8741 120.843C60.2949 120.442 60.8373 120.241 61.5014 120.241C62.1786 120.241 62.7145 120.429 63.109 120.803C63.51 121.178 63.7106 121.694 63.7106 122.352C63.7106 122.898 63.5462 123.43 63.2175 123.95C62.8953 124.462 62.5271 124.916 62.1129 125.311C61.6987 125.698 61.1694 126.152 60.525 126.672H63.9177V127.421H59.1739V126.78ZM64.7382 125.912V125.232L68.1999 120.439H69.2749V125.133H70.2611V125.912H69.2749V127.5H68.3873V125.912H64.7382ZM68.4267 121.375L65.7737 125.133H68.4267V121.375ZM71.5916 127.559C71.4207 127.559 71.276 127.5 71.1577 127.382C71.0393 127.263 70.9801 127.119 70.9801 126.948C70.9801 126.777 71.0393 126.632 71.1577 126.514C71.276 126.395 71.4207 126.336 71.5916 126.336C71.756 126.336 71.8941 126.395 72.0058 126.514C72.1242 126.632 72.1834 126.777 72.1834 126.948C72.1834 127.119 72.1242 127.263 72.0058 127.382C71.8941 127.5 71.756 127.559 71.5916 127.559ZM73.2284 123.861C73.2284 122.73 73.4125 121.849 73.7807 121.218C74.1489 120.58 74.7932 120.261 75.7137 120.261C76.6276 120.261 77.2687 120.58 77.6369 121.218C78.0051 121.849 78.1892 122.73 78.1892 123.861C78.1892 125.011 78.0051 125.906 77.6369 126.543C77.2687 127.181 76.6276 127.5 75.7137 127.5C74.7932 127.5 74.1489 127.181 73.7807 126.543C73.4125 125.906 73.2284 125.011 73.2284 123.861ZM77.3015 123.861C77.3015 123.289 77.2621 122.806 77.1832 122.411C77.1109 122.01 76.9564 121.688 76.7197 121.445C76.4895 121.201 76.1542 121.08 75.7137 121.08C75.2666 121.08 74.9247 121.201 74.688 121.445C74.4579 121.688 74.3034 122.01 74.2245 122.411C74.1522 122.806 74.116 123.289 74.116 123.861C74.116 124.453 74.1522 124.949 74.2245 125.35C74.3034 125.751 74.4579 126.073 74.688 126.317C74.9247 126.56 75.2666 126.681 75.7137 126.681C76.1542 126.681 76.4895 126.56 76.7197 126.317C76.9564 126.073 77.1109 125.751 77.1832 125.35C77.2621 124.949 77.3015 124.453 77.3015 123.861ZM80.5752 125.587C80.6409 125.961 80.7921 126.251 81.0288 126.455C81.2721 126.658 81.5976 126.76 82.0052 126.76C82.5509 126.76 82.952 126.547 83.2084 126.119C83.4714 125.692 83.5963 124.972 83.5832 123.959C83.4451 124.255 83.215 124.489 82.8928 124.66C82.5706 124.824 82.2123 124.906 81.8178 124.906C81.3773 124.906 80.9828 124.817 80.6343 124.64C80.2924 124.456 80.0229 124.19 79.8256 123.841C79.6284 123.493 79.5297 123.072 79.5297 122.579C79.5297 121.875 79.7336 121.31 80.1412 120.882C80.5489 120.448 81.1275 120.231 81.877 120.231C82.7975 120.231 83.4418 120.531 83.81 121.129C84.1848 121.727 84.3722 122.618 84.3722 123.802C84.3722 124.63 84.2966 125.314 84.1453 125.853C84.0007 126.392 83.7508 126.803 83.3958 127.086C83.0473 127.369 82.5674 127.51 81.9559 127.51C81.2852 127.51 80.7625 127.329 80.3878 126.967C80.013 126.606 79.7993 126.146 79.7467 125.587H80.5752ZM81.9658 124.147C82.4063 124.147 82.7679 124.012 83.0506 123.742C83.3333 123.466 83.4747 123.095 83.4747 122.628C83.4747 122.135 83.3366 121.737 83.0605 121.435C82.7843 121.132 82.3964 120.981 81.8967 120.981C81.4365 120.981 81.0683 121.126 80.7921 121.415C80.5226 121.704 80.3878 122.086 80.3878 122.559C80.3878 123.039 80.5226 123.424 80.7921 123.713C81.0617 124.002 81.4529 124.147 81.9658 124.147ZM86.0673 127.559C85.8964 127.559 85.7517 127.5 85.6334 127.382C85.515 127.263 85.4559 127.119 85.4559 126.948C85.4559 126.777 85.515 126.632 85.6334 126.514C85.7517 126.395 85.8964 126.336 86.0673 126.336C86.2317 126.336 86.3698 126.395 86.4816 126.514C86.5999 126.632 86.6591 126.777 86.6591 126.948C86.6591 127.119 86.5999 127.263 86.4816 127.382C86.3698 127.5 86.2317 127.559 86.0673 127.559ZM87.5956 126.78C88.4306 126.109 89.0848 125.56 89.5582 125.133C90.0316 124.699 90.4294 124.249 90.7516 123.782C91.0803 123.308 91.2447 122.845 91.2447 122.391C91.2447 121.964 91.1395 121.629 90.9291 121.385C90.7253 121.135 90.3933 121.011 89.933 121.011C89.4859 121.011 89.1374 121.152 88.8876 121.435C88.6443 121.711 88.5128 122.082 88.4931 122.549H87.6252C87.6515 121.813 87.8751 121.244 88.2959 120.843C88.7166 120.442 89.2591 120.241 89.9231 120.241C90.6004 120.241 91.1362 120.429 91.5307 120.803C91.9318 121.178 92.1323 121.694 92.1323 122.352C92.1323 122.898 91.9679 123.43 91.6392 123.95C91.317 124.462 90.9488 124.916 90.5346 125.311C90.1204 125.698 89.5911 126.152 88.9468 126.672H92.3394V127.421H87.5956V126.78ZM93.3769 123.861C93.3769 122.73 93.561 121.849 93.9292 121.218C94.2974 120.58 94.9417 120.261 95.8622 120.261C96.7761 120.261 97.4172 120.58 97.7854 121.218C98.1536 121.849 98.3377 122.73 98.3377 123.861C98.3377 125.011 98.1536 125.906 97.7854 126.543C97.4172 127.181 96.7761 127.5 95.8622 127.5C94.9417 127.5 94.2974 127.181 93.9292 126.543C93.561 125.906 93.3769 125.011 93.3769 123.861ZM97.4501 123.861C97.4501 123.289 97.4106 122.806 97.3317 122.411C97.2594 122.01 97.1049 121.688 96.8682 121.445C96.6381 121.201 96.3027 121.08 95.8622 121.08C95.4151 121.08 95.0732 121.201 94.8365 121.445C94.6064 121.688 94.4519 122.01 94.373 122.411C94.3007 122.806 94.2645 123.289 94.2645 123.861C94.2645 124.453 94.3007 124.949 94.373 125.35C94.4519 125.751 94.6064 126.073 94.8365 126.317C95.0732 126.56 95.4151 126.681 95.8622 126.681C96.3027 126.681 96.6381 126.56 96.8682 126.317C97.1049 126.073 97.2594 125.751 97.3317 125.35C97.4106 124.949 97.4501 124.453 97.4501 123.861ZM99.4613 126.78C100.296 126.109 100.951 125.56 101.424 125.133C101.897 124.699 102.295 124.249 102.617 123.782C102.946 123.308 103.11 122.845 103.11 122.391C103.11 121.964 103.005 121.629 102.795 121.385C102.591 121.135 102.259 121.011 101.799 121.011C101.352 121.011 101.003 121.152 100.753 121.435C100.51 121.711 100.378 122.082 100.359 122.549H99.4909C99.5172 121.813 99.7407 121.244 100.162 120.843C100.582 120.442 101.125 120.241 101.789 120.241C102.466 120.241 103.002 120.429 103.396 120.803C103.797 121.178 103.998 121.694 103.998 122.352C103.998 122.898 103.834 123.43 103.505 123.95C103.183 124.462 102.814 124.916 102.4 125.311C101.986 125.698 101.457 126.152 100.812 126.672H104.205V127.421H99.4613V126.78ZM105.026 125.912V125.232L108.487 120.439H109.562V125.133H110.549V125.912H109.562V127.5H108.675V125.912H105.026ZM108.714 121.375L106.061 125.133H108.714V121.375ZM113.838 121.188V120.37H115.692V127.5H114.784V121.188H113.838ZM118.387 125.587C118.453 125.961 118.604 126.251 118.841 126.455C119.084 126.658 119.41 126.76 119.817 126.76C120.363 126.76 120.764 126.547 121.021 126.119C121.284 125.692 121.409 124.972 121.395 123.959C121.257 124.255 121.027 124.489 120.705 124.66C120.383 124.824 120.024 124.906 119.63 124.906C119.189 124.906 118.795 124.817 118.447 124.64C118.105 124.456 117.835 124.19 117.638 123.841C117.441 123.493 117.342 123.072 117.342 122.579C117.342 121.875 117.546 121.31 117.953 120.882C118.361 120.448 118.94 120.231 119.689 120.231C120.61 120.231 121.254 120.531 121.622 121.129C121.997 121.727 122.184 122.618 122.184 123.802C122.184 124.63 122.109 125.314 121.958 125.853C121.813 126.392 121.563 126.803 121.208 127.086C120.859 127.369 120.38 127.51 119.768 127.51C119.097 127.51 118.575 127.329 118.2 126.967C117.825 126.606 117.611 126.146 117.559 125.587H118.387ZM119.778 124.147C120.218 124.147 120.58 124.012 120.863 123.742C121.146 123.466 121.287 123.095 121.287 122.628C121.287 122.135 121.149 121.737 120.873 121.435C120.597 121.132 120.209 120.981 119.709 120.981C119.249 120.981 118.88 121.126 118.604 121.415C118.335 121.704 118.2 122.086 118.2 122.559C118.2 123.039 118.335 123.424 118.604 123.713C118.874 124.002 119.265 124.147 119.778 124.147ZM123.88 127.559C123.709 127.559 123.564 127.5 123.446 127.382C123.327 127.263 123.268 127.119 123.268 126.948C123.268 126.777 123.327 126.632 123.446 126.514C123.564 126.395 123.709 126.336 123.88 126.336C124.044 126.336 124.182 126.395 124.294 126.514C124.412 126.632 124.471 126.777 124.471 126.948C124.471 127.119 124.412 127.263 124.294 127.382C124.182 127.5 124.044 127.559 123.88 127.559ZM123.88 123.338C123.709 123.338 123.564 123.279 123.446 123.161C123.327 123.042 123.268 122.898 123.268 122.727C123.268 122.556 123.327 122.411 123.446 122.293C123.564 122.174 123.709 122.115 123.88 122.115C124.044 122.115 124.182 122.174 124.294 122.293C124.412 122.411 124.471 122.556 124.471 122.727C124.471 122.898 124.412 123.042 124.294 123.161C124.182 123.279 124.044 123.338 123.88 123.338ZM125.328 125.912V125.232L128.79 120.439H129.865V125.133H130.851V125.912H129.865V127.5H128.977V125.912H125.328ZM129.017 121.375L126.364 125.133H129.017V121.375ZM136.294 121.149H132.833V123.397C132.984 123.187 133.207 123.016 133.503 122.884C133.799 122.746 134.118 122.677 134.46 122.677C135.006 122.677 135.449 122.792 135.791 123.022C136.133 123.246 136.376 123.539 136.521 123.9C136.672 124.255 136.748 124.633 136.748 125.034C136.748 125.508 136.659 125.932 136.482 126.307C136.304 126.681 136.031 126.977 135.663 127.194C135.301 127.411 134.851 127.52 134.312 127.52C133.622 127.52 133.063 127.342 132.635 126.987C132.208 126.632 131.948 126.159 131.856 125.567H132.734C132.819 125.942 133 126.234 133.276 126.445C133.552 126.655 133.901 126.76 134.322 126.76C134.841 126.76 135.232 126.606 135.495 126.297C135.758 125.981 135.89 125.567 135.89 125.054C135.89 124.541 135.758 124.147 135.495 123.871C135.232 123.588 134.844 123.447 134.332 123.447C133.983 123.447 133.677 123.532 133.414 123.703C133.158 123.867 132.971 124.094 132.852 124.383H132.004V120.36H136.294V121.149Z" fill="#585858"/>
<defs>
<filter id="filter0_d_43_1906" x="0.682258" y="0.544628" width="196.429" height="171.429" filterUnits="userSpaceOnUse" color-interpolation-filters="sRGB">
<feFlood flood-opacity="0" result="BackgroundImageFix"/>
<feColorMatrix in="SourceAlpha" type="matrix" values="0 0 0 0 0 0 0 0 0 0 0 0 0 0 0 0 0 0 127 0" result="hardAlpha"/>
<feOffset dx="0.896579" dy="10.7589"/>
<feGaussianBlur stdDeviation="8.60716"/>
<feComposite in2="hardAlpha" operator="out"/>
<feColorMatrix type="matrix" values="0 0 0 0 0.332922 0 0 0 0 0.400106 0 0 0 0 0.601667 0 0 0 0.22 0"/>
<feBlend mode="normal" in2="BackgroundImageFix" result="effect1_dropShadow_43_1906"/>
<feBlend mode="normal" in="SourceGraphic" in2="effect1_dropShadow_43_1906" result="shape"/>
</filter>
</defs>
</svg>
