<svg width="269" height="129" viewBox="0 0 269 129" fill="none" xmlns="http://www.w3.org/2000/svg">
<g filter="url(#filter0_d_43_2862)">
<rect x="17" y="6.47266" width="233.61" height="93.6971" rx="10.7589" fill="white"/>
</g>
<path d="M35.7922 55.9891C35.7922 54.5288 36.0539 53.385 36.5772 52.5578C37.109 51.7305 37.9869 51.3169 39.2109 51.3169C40.4349 51.3169 41.3085 51.7305 41.8319 52.5578C42.3637 53.385 42.6296 54.5288 42.6296 55.9891C42.6296 57.4579 42.3637 58.6101 41.8319 59.4458C41.3085 60.2814 40.4349 60.6993 39.2109 60.6993C37.9869 60.6993 37.109 60.2814 36.5772 59.4458C36.0539 58.6101 35.7922 57.4579 35.7922 55.9891ZM40.8822 55.9891C40.8822 55.3645 40.84 54.8411 40.7556 54.419C40.6797 53.9885 40.5193 53.6382 40.2745 53.3681C40.0381 53.098 39.6836 52.9629 39.2109 52.9629C38.7382 52.9629 38.3794 53.098 38.1346 53.3681C37.8983 53.6382 37.7379 53.9885 37.6535 54.419C37.5775 54.8411 37.5395 55.3645 37.5395 55.9891C37.5395 56.6306 37.5775 57.1709 37.6535 57.6098C37.7295 58.0403 37.8898 58.3906 38.1346 58.6607C38.3794 58.9224 38.7382 59.0533 39.2109 59.0533C39.6836 59.0533 40.0423 58.9224 40.2871 58.6607C40.5319 58.3906 40.6923 58.0403 40.7683 57.6098C40.8443 57.1709 40.8822 56.6306 40.8822 55.9891ZM46.0291 58.1289C46.0966 58.5004 46.2485 58.7874 46.4849 58.9899C46.7297 59.1841 47.0547 59.2812 47.4598 59.2812C47.9832 59.2812 48.363 59.0659 48.5994 58.6354C48.8357 58.1965 48.9539 57.4621 48.9539 56.4323C48.7598 56.7024 48.4854 56.9134 48.1309 57.0654C47.7848 57.2173 47.4092 57.2933 47.004 57.2933C46.4638 57.2933 45.9742 57.1835 45.5352 56.9641C45.1047 56.7362 44.7629 56.4027 44.5096 55.9638C44.2564 55.5164 44.1298 54.9762 44.1298 54.3431C44.1298 53.4061 44.4083 52.6633 44.9655 52.1146C45.5226 51.5575 46.2823 51.2789 47.2446 51.2789C48.4432 51.2789 49.2874 51.663 49.7769 52.4312C50.275 53.1993 50.524 54.3557 50.524 55.9005C50.524 56.9978 50.4269 57.8968 50.2328 58.5974C50.0471 59.2981 49.7221 59.8298 49.2578 60.1928C48.802 60.5558 48.1773 60.7373 47.3839 60.7373C46.7592 60.7373 46.2274 60.6191 45.7885 60.3827C45.3495 60.1379 45.0119 59.8214 44.7755 59.4331C44.5476 59.0364 44.4168 58.6017 44.383 58.1289H46.0291ZM47.3712 55.8498C47.8101 55.8498 48.1562 55.7148 48.4095 55.4447C48.6627 55.1745 48.7893 54.8116 48.7893 54.3557C48.7893 53.8577 48.6543 53.4736 48.3841 53.2035C48.1225 52.925 47.7637 52.7857 47.3079 52.7857C46.8521 52.7857 46.4891 52.9292 46.219 53.2162C45.9573 53.4947 45.8265 53.8662 45.8265 54.3304C45.8265 54.7778 45.9531 55.145 46.2063 55.432C46.468 55.7105 46.8563 55.8498 47.3712 55.8498ZM52.8914 60.8132C52.5707 60.8132 52.3048 60.7162 52.0937 60.522C51.8912 60.3194 51.7899 60.0704 51.7899 59.775C51.7899 59.4795 51.8912 59.2347 52.0937 59.0406C52.3048 58.838 52.5707 58.7367 52.8914 58.7367C53.2038 58.7367 53.4612 58.838 53.6638 59.0406C53.8664 59.2347 53.9677 59.4795 53.9677 59.775C53.9677 60.0704 53.8664 60.3194 53.6638 60.522C53.4612 60.7162 53.2038 60.8132 52.8914 60.8132ZM52.8914 55.5713C52.5707 55.5713 52.3048 55.4742 52.0937 55.28C51.8912 55.0775 51.7899 54.8284 51.7899 54.533C51.7899 54.2376 51.8912 53.9928 52.0937 53.7986C52.3048 53.596 52.5707 53.4947 52.8914 53.4947C53.2038 53.4947 53.4612 53.596 53.6638 53.7986C53.8664 53.9928 53.9677 54.2376 53.9677 54.533C53.9677 54.8284 53.8664 55.0775 53.6638 55.28C53.4612 55.4742 53.2038 55.5713 52.8914 55.5713ZM55.0148 53.1275V51.4942H58.0662V60.7246H56.2429V53.1275H55.0148ZM59.8174 55.9891C59.8174 54.5288 60.0791 53.385 60.6025 52.5578C61.1342 51.7305 62.0121 51.3169 63.2361 51.3169C64.4601 51.3169 65.3337 51.7305 65.8571 52.5578C66.3889 53.385 66.6548 54.5288 66.6548 55.9891C66.6548 57.4579 66.3889 58.6101 65.8571 59.4458C65.3337 60.2814 64.4601 60.6993 63.2361 60.6993C62.0121 60.6993 61.1342 60.2814 60.6025 59.4458C60.0791 58.6101 59.8174 57.4579 59.8174 55.9891ZM64.9075 55.9891C64.9075 55.3645 64.8653 54.8411 64.7808 54.419C64.7049 53.9885 64.5445 53.6382 64.2997 53.3681C64.0633 53.098 63.7088 52.9629 63.2361 52.9629C62.7634 52.9629 62.4046 53.098 62.1599 53.3681C61.9235 53.6382 61.7631 53.9885 61.6787 54.419C61.6027 54.8411 61.5647 55.3645 61.5647 55.9891C61.5647 56.6306 61.6027 57.1709 61.6787 57.6098C61.7547 58.0403 61.9151 58.3906 62.1599 58.6607C62.4046 58.9224 62.7634 59.0533 63.2361 59.0533C63.7088 59.0533 64.0676 58.9224 64.3124 58.6607C64.5571 58.3906 64.7175 58.0403 64.7935 57.6098C64.8695 57.1709 64.9075 56.6306 64.9075 55.9891Z" fill="#191C30"/>
<path d="M37.2166 69.3003C37.6674 69.3003 38.0447 69.3434 38.3486 69.4295C38.6576 69.5156 38.888 69.6574 39.0399 69.8549C39.1969 70.0524 39.2755 70.3158 39.2755 70.645C39.2755 70.8577 39.2349 71.0476 39.1539 71.2148C39.0779 71.3768 38.9614 71.5136 38.8044 71.625C38.6525 71.7314 38.4651 71.8048 38.2423 71.8453V71.8833C38.4702 71.9188 38.6753 71.9846 38.8576 72.0808C39.045 72.1771 39.1919 72.3138 39.2982 72.4911C39.4046 72.6683 39.4578 72.8988 39.4578 73.1824C39.4578 73.5116 39.3818 73.7927 39.2299 74.0257C39.0779 74.2536 38.8601 74.4283 38.5765 74.5499C38.298 74.6664 37.9637 74.7246 37.5737 74.7246H35.6668V69.3003H37.2166ZM37.3534 71.6098C37.8193 71.6098 38.1384 71.5364 38.3106 71.3895C38.4828 71.2376 38.5689 71.0147 38.5689 70.721C38.5689 70.4221 38.4626 70.2094 38.2498 70.0828C38.0422 69.9511 37.7079 69.8853 37.247 69.8853H36.3506V71.6098H37.3534ZM36.3506 72.1796V74.1472H37.4446C37.9257 74.1472 38.26 74.0535 38.4474 73.8661C38.6348 73.6787 38.7285 73.4331 38.7285 73.1292C38.7285 72.9368 38.6854 72.7696 38.5993 72.6278C38.5183 72.486 38.379 72.3771 38.1815 72.3011C37.989 72.2201 37.7257 72.1796 37.3914 72.1796H36.3506ZM42.0589 70.5842C42.5553 70.5842 42.9225 70.6931 43.1605 70.9109C43.3986 71.1287 43.5176 71.4756 43.5176 71.9517V74.7246H43.0314L42.9022 74.1472H42.8718C42.7553 74.2941 42.6338 74.4182 42.5072 74.5195C42.3856 74.6157 42.2438 74.6866 42.0817 74.7322C41.9247 74.7778 41.7323 74.8006 41.5044 74.8006C41.2613 74.8006 41.0409 74.7575 40.8434 74.6714C40.651 74.5853 40.499 74.4536 40.3876 74.2764C40.2762 74.0941 40.2205 73.8661 40.2205 73.5926C40.2205 73.1875 40.38 72.876 40.6991 72.6582C41.0181 72.4354 41.5094 72.3138 42.1729 72.2935L42.8642 72.2708V72.0277C42.8642 71.6883 42.7908 71.4528 42.6439 71.3211C42.497 71.1894 42.2894 71.1236 42.021 71.1236C41.8082 71.1236 41.6057 71.1565 41.4132 71.2224C41.2207 71.2831 41.0409 71.354 40.8738 71.4351L40.6687 70.9337C40.8459 70.8374 41.0561 70.7564 41.2992 70.6906C41.5423 70.6197 41.7956 70.5842 42.0589 70.5842ZM42.2565 72.757C41.75 72.7772 41.398 72.8583 41.2005 73.0001C41.008 73.1419 40.9118 73.3419 40.9118 73.6002C40.9118 73.8282 40.9802 73.9953 41.1169 74.1017C41.2587 74.208 41.4385 74.2612 41.6563 74.2612C42.0007 74.2612 42.2869 74.1675 42.5148 73.9801C42.7427 73.7876 42.8566 73.4939 42.8566 73.0988V72.7342L42.2565 72.757ZM46.7125 70.5766C47.2139 70.5766 47.6166 70.7513 47.9204 71.1008C48.2294 71.4503 48.3839 71.977 48.3839 72.681C48.3839 73.1419 48.3129 73.5319 48.1711 73.8509C48.0344 74.165 47.8394 74.403 47.5862 74.5651C47.338 74.7221 47.0442 74.8006 46.7049 74.8006C46.4973 74.8006 46.3124 74.7727 46.1503 74.717C45.9882 74.6613 45.849 74.5904 45.7325 74.5043C45.6211 74.4131 45.5248 74.3144 45.4438 74.208H45.3982C45.4083 74.2941 45.4185 74.403 45.4286 74.5347C45.4387 74.6664 45.4438 74.7803 45.4438 74.8766V76.5479H44.7753V70.6526H45.3222L45.4134 71.2072H45.4438C45.5248 71.0907 45.6211 70.9843 45.7325 70.8881C45.849 70.7919 45.9857 70.7159 46.1427 70.6602C46.3048 70.6045 46.4947 70.5766 46.7125 70.5766ZM46.5909 71.1388C46.3175 71.1388 46.0971 71.192 45.93 71.2983C45.7629 71.3996 45.6413 71.5541 45.5653 71.7618C45.4894 71.9694 45.4489 72.2328 45.4438 72.5518V72.681C45.4438 73.0153 45.4792 73.2989 45.5502 73.5319C45.6211 73.7648 45.7401 73.9421 45.9072 74.0637C46.0794 74.1852 46.3124 74.246 46.6061 74.246C46.8543 74.246 47.0569 74.1776 47.2139 74.0409C47.376 73.9041 47.495 73.7193 47.571 73.4863C47.652 73.2482 47.6925 72.9773 47.6925 72.6734C47.6925 72.2074 47.6014 71.8352 47.419 71.5566C47.2418 71.2781 46.9657 71.1388 46.5909 71.1388ZM54.9723 70.6526V74.7246H49.4492V70.6526H50.1178V74.1624H51.8727V70.6526H52.5412V74.1624H54.3037V70.6526H54.9723ZM57.8169 70.5842C58.3133 70.5842 58.6804 70.6931 58.9185 70.9109C59.1565 71.1287 59.2755 71.4756 59.2755 71.9517V74.7246H58.7893L58.6602 74.1472H58.6298C58.5133 74.2941 58.3918 74.4182 58.2651 74.5195C58.1436 74.6157 58.0018 74.6866 57.8397 74.7322C57.6827 74.7778 57.4902 74.8006 57.2623 74.8006C57.0192 74.8006 56.7989 74.7575 56.6014 74.6714C56.4089 74.5853 56.257 74.4536 56.1456 74.2764C56.0341 74.0941 55.9784 73.8661 55.9784 73.5926C55.9784 73.1875 56.138 72.876 56.457 72.6582C56.7761 72.4354 57.2674 72.3138 57.9309 72.2935L58.6222 72.2708V72.0277C58.6222 71.6883 58.5488 71.4528 58.4019 71.3211C58.255 71.1894 58.0474 71.1236 57.7789 71.1236C57.5662 71.1236 57.3636 71.1565 57.1712 71.2224C56.9787 71.2831 56.7989 71.354 56.6318 71.4351L56.4267 70.9337C56.6039 70.8374 56.8141 70.7564 57.0572 70.6906C57.3003 70.6197 57.5535 70.5842 57.8169 70.5842ZM58.0144 72.757C57.508 72.7772 57.156 72.8583 56.9584 73.0001C56.766 73.1419 56.6698 73.3419 56.6698 73.6002C56.6698 73.8282 56.7381 73.9953 56.8749 74.1017C57.0167 74.208 57.1965 74.2612 57.4143 74.2612C57.7587 74.2612 58.0448 74.1675 58.2727 73.9801C58.5006 73.7876 58.6146 73.4939 58.6146 73.0988V72.7342L58.0144 72.757ZM63.8076 71.6782C63.8076 71.9314 63.7316 72.1289 63.5796 72.2708C63.4277 72.4126 63.2327 72.5088 62.9947 72.5594V72.5898C63.2479 72.6253 63.4682 72.7165 63.6556 72.8633C63.843 73.0051 63.9367 73.228 63.9367 73.5319C63.9367 73.7041 63.9038 73.8636 63.8379 74.0105C63.7772 74.1574 63.6809 74.284 63.5493 74.3903C63.4176 74.4967 63.2479 74.5803 63.0402 74.641C62.8326 74.6968 62.5819 74.7246 62.2881 74.7246H60.5332V70.6526H62.2805C62.5692 70.6526 62.8275 70.6855 63.0554 70.7513C63.2884 70.8121 63.4707 70.9185 63.6024 71.0704C63.7392 71.2173 63.8076 71.4199 63.8076 71.6782ZM63.2454 73.5319C63.2454 73.2989 63.1567 73.1318 62.9795 73.0305C62.8022 72.9292 62.5414 72.8785 62.197 72.8785H61.2018V74.1852H62.2122C62.5464 74.1852 62.8022 74.1371 62.9795 74.0409C63.1567 73.9396 63.2454 73.7699 63.2454 73.5319ZM63.1314 71.7618C63.1314 71.5693 63.0605 71.43 62.9187 71.3439C62.7819 71.2528 62.5566 71.2072 62.2426 71.2072H61.2018V72.3239H62.121C62.4502 72.3239 62.7009 72.2784 62.8731 72.1872C63.0453 72.096 63.1314 71.9542 63.1314 71.7618ZM66.4526 70.5842C66.949 70.5842 67.3162 70.6931 67.5542 70.9109C67.7922 71.1287 67.9113 71.4756 67.9113 71.9517V74.7246H67.4251L67.2959 74.1472H67.2655C67.149 74.2941 67.0275 74.4182 66.9009 74.5195C66.7793 74.6157 66.6375 74.6866 66.4754 74.7322C66.3184 74.7778 66.126 74.8006 65.898 74.8006C65.6549 74.8006 65.4346 74.7575 65.2371 74.6714C65.0446 74.5853 64.8927 74.4536 64.7813 74.2764C64.6699 74.0941 64.6141 73.8661 64.6141 73.5926C64.6141 73.1875 64.7737 72.876 65.0928 72.6582C65.4118 72.4354 65.9031 72.3138 66.5666 72.2935L67.2579 72.2708V72.0277C67.2579 71.6883 67.1845 71.4528 67.0376 71.3211C66.8907 71.1894 66.6831 71.1236 66.4146 71.1236C66.2019 71.1236 65.9993 71.1565 65.8069 71.2224C65.6144 71.2831 65.4346 71.354 65.2675 71.4351L65.0624 70.9337C65.2396 70.8374 65.4498 70.7564 65.6929 70.6906C65.936 70.6197 66.1893 70.5842 66.4526 70.5842ZM66.6502 72.757C66.1437 72.7772 65.7917 72.8583 65.5942 73.0001C65.4017 73.1419 65.3055 73.3419 65.3055 73.6002C65.3055 73.8282 65.3739 73.9953 65.5106 74.1017C65.6524 74.208 65.8322 74.2612 66.05 74.2612C66.3944 74.2612 66.6805 74.1675 66.9085 73.9801C67.1364 73.7876 67.2503 73.4939 67.2503 73.0988V72.7342L66.6502 72.757Z" fill="#585858"/>
<path d="M35.6295 85.7246V80.3003H39.7016V85.7246H39.0254V80.9005H36.3133V85.7246H35.6295ZM41.7638 81.6526V83.3467H43.9745V81.6526H44.643V85.7246H43.9745V83.9089H41.7638V85.7246H41.0952V81.6526H41.7638ZM47.6007 80.8625V80.2319H49.029V85.7246H48.3301V80.8625H47.6007ZM50.2165 82.9213C50.2165 82.0502 50.3583 81.3715 50.6419 80.8853C50.9256 80.394 51.4219 80.1484 52.131 80.1484C52.835 80.1484 53.3288 80.394 53.6124 80.8853C53.896 81.3715 54.0378 82.0502 54.0378 82.9213C54.0378 83.8076 53.896 84.4964 53.6124 84.9877C53.3288 85.479 52.835 85.7246 52.131 85.7246C51.4219 85.7246 50.9256 85.479 50.6419 84.9877C50.3583 84.4964 50.2165 83.8076 50.2165 82.9213ZM53.3541 82.9213C53.3541 82.4807 53.3237 82.1084 53.2629 81.8045C53.2072 81.4956 53.0882 81.2474 52.9059 81.06C52.7286 80.8726 52.4703 80.7789 52.131 80.7789C51.7866 80.7789 51.5232 80.8726 51.3409 81.06C51.1636 81.2474 51.0446 81.4956 50.9838 81.8045C50.9281 82.1084 50.9002 82.4807 50.9002 82.9213C50.9002 83.3771 50.9281 83.7595 50.9838 84.0684C51.0446 84.3774 51.1636 84.6256 51.3409 84.813C51.5232 85.0004 51.7866 85.0941 52.131 85.0941C52.4703 85.0941 52.7286 85.0004 52.9059 84.813C53.0882 84.6256 53.2072 84.3774 53.2629 84.0684C53.3237 83.7595 53.3541 83.3771 53.3541 82.9213ZM57.2858 80.3003H57.924V83.2784C57.924 83.405 57.9214 83.5443 57.9164 83.6962C57.9164 83.8431 57.9138 83.9899 57.9088 84.1368C57.9037 84.2837 57.8961 84.4154 57.886 84.5319C57.8809 84.6433 57.8758 84.7294 57.8708 84.7902H57.9012L60.8868 80.3003H61.6465V85.7246H61.0084V82.7769C61.0084 82.6402 61.0109 82.4933 61.016 82.3363C61.021 82.1742 61.0261 82.0198 61.0312 81.8729C61.0413 81.721 61.0489 81.5867 61.0539 81.4703C61.059 81.3538 61.0641 81.2677 61.0691 81.212H61.0388L58.0455 85.7246H57.2858V80.3003ZM68.3059 83.681C68.3059 84.1318 68.2325 84.5167 68.0856 84.8358C67.9387 85.1498 67.7311 85.3903 67.4627 85.5575C67.1942 85.7195 66.8752 85.8006 66.5054 85.8006C66.161 85.8006 65.8597 85.7297 65.6014 85.5879C65.3431 85.441 65.138 85.2283 64.986 84.9497C64.8341 84.6661 64.7454 84.3192 64.7201 83.9089H63.6869V85.7246H63.0184V81.6526H63.6869V83.3467H64.7277C64.7632 82.9618 64.8569 82.6402 65.0088 82.3819C65.1658 82.1185 65.3709 81.9185 65.6242 81.7817C65.8825 81.645 66.1813 81.5766 66.5206 81.5766C66.8701 81.5766 67.179 81.6602 67.4475 81.8273C67.7159 81.9894 67.9261 82.2274 68.078 82.5414C68.23 82.8504 68.3059 83.2302 68.3059 83.681ZM65.4039 83.681C65.4039 84.0203 65.4418 84.3065 65.5178 84.5395C65.5988 84.7724 65.7204 84.9497 65.8825 85.0713C66.0445 85.1878 66.2547 85.246 66.513 85.246C66.7713 85.246 66.9815 85.1878 67.1436 85.0713C67.3057 84.9497 67.4247 84.7724 67.5006 84.5395C67.5766 84.3065 67.6146 84.0203 67.6146 83.681C67.6146 83.3417 67.5766 83.058 67.5006 82.8301C67.4247 82.6022 67.3057 82.43 67.1436 82.3135C66.9815 82.197 66.7713 82.1388 66.513 82.1388C66.2547 82.1388 66.0445 82.197 65.8825 82.3135C65.7204 82.43 65.5988 82.6022 65.5178 82.8301C65.4418 83.058 65.4039 83.3417 65.4039 83.681ZM70.0376 81.6526V83.3467H72.2483V81.6526H72.9169V85.7246H72.2483V83.9089H70.0376V85.7246H69.369V81.6526H70.0376Z" fill="#585858"/>
<path d="M102.987 43.538C102.894 43.0696 102.605 42.8353 102.12 42.8353C101.744 42.8353 101.463 42.9809 101.278 43.2722C101.092 43.5592 101.001 44.034 101.005 44.6966C101.103 44.4771 101.263 44.3062 101.487 44.1838C101.715 44.0572 101.968 43.9939 102.246 43.9939C102.681 43.9939 103.027 44.1289 103.285 44.3991C103.546 44.6692 103.677 45.0427 103.677 45.5196C103.677 45.8066 103.62 46.0641 103.506 46.292C103.396 46.5199 103.228 46.7014 103 46.8364C102.776 46.9715 102.504 47.039 102.183 47.039C101.748 47.039 101.409 46.942 101.164 46.7478C100.919 46.5537 100.748 46.2857 100.651 45.9438C100.554 45.6019 100.505 45.1799 100.505 44.6776C100.505 43.1287 101.046 42.3542 102.126 42.3542C102.54 42.3542 102.865 42.466 103.101 42.6897C103.337 42.9134 103.477 43.1962 103.519 43.538H102.987ZM102.126 44.4814C101.945 44.4814 101.774 44.5193 101.613 44.5953C101.453 44.6671 101.322 44.7789 101.221 44.9308C101.124 45.0786 101.075 45.2601 101.075 45.4753C101.075 45.7961 101.168 46.0577 101.354 46.2603C101.539 46.4587 101.805 46.5579 102.151 46.5579C102.447 46.5579 102.681 46.4671 102.854 46.2857C103.031 46.0999 103.12 45.8509 103.12 45.5386C103.12 45.2094 103.036 44.9519 102.867 44.7662C102.698 44.5763 102.451 44.4814 102.126 44.4814ZM105.087 44.8675C105.087 45.0659 105.142 45.2136 105.252 45.3107C105.366 45.4036 105.528 45.45 105.74 45.45C105.951 45.45 106.143 45.4183 106.316 45.355C106.489 45.2875 106.666 45.1989 106.847 45.0891V43.633H107.405V47.0264H106.847V45.5133C106.657 45.6357 106.47 45.7328 106.284 45.8045C106.102 45.872 105.883 45.9058 105.626 45.9058C105.279 45.9058 105.009 45.8151 104.815 45.6336C104.625 45.4521 104.53 45.2094 104.53 44.9055V43.633H105.087V44.8675ZM112.943 42.9493H110.721V44.3927C110.818 44.2577 110.962 44.1479 111.152 44.0635C111.342 43.9749 111.546 43.9306 111.766 43.9306C112.116 43.9306 112.401 44.0044 112.62 44.1521C112.84 44.2956 112.996 44.4835 113.089 44.7156C113.186 44.9435 113.235 45.1862 113.235 45.4436C113.235 45.7475 113.178 46.0198 113.064 46.2603C112.95 46.5009 112.774 46.6908 112.538 46.8301C112.306 46.9694 112.017 47.039 111.671 47.039C111.228 47.039 110.869 46.9251 110.595 46.6972C110.32 46.4692 110.154 46.1654 110.094 45.7855H110.658C110.713 46.0261 110.829 46.2139 111.006 46.349C111.183 46.484 111.407 46.5516 111.677 46.5516C112.011 46.5516 112.262 46.4524 112.431 46.254C112.599 46.0514 112.684 45.7855 112.684 45.4563C112.684 45.1271 112.599 44.8739 112.431 44.6966C112.262 44.5151 112.013 44.4244 111.683 44.4244C111.46 44.4244 111.264 44.4792 111.095 44.589C110.93 44.6945 110.81 44.8401 110.734 45.0258H110.189V42.4428H112.943V42.9493ZM114 44.6903C114 43.9643 114.118 43.3988 114.355 42.9936C114.591 42.5842 115.005 42.3795 115.596 42.3795C116.182 42.3795 116.594 42.5842 116.83 42.9936C117.066 43.3988 117.185 43.9643 117.185 44.6903C117.185 45.4289 117.066 46.0029 116.83 46.4123C116.594 46.8217 116.182 47.0264 115.596 47.0264C115.005 47.0264 114.591 46.8217 114.355 46.4123C114.118 46.0029 114 45.4289 114 44.6903ZM116.615 44.6903C116.615 44.3231 116.589 44.0129 116.539 43.7596C116.492 43.5022 116.393 43.2954 116.241 43.1392C116.094 42.983 115.878 42.905 115.596 42.905C115.309 42.905 115.089 42.983 114.937 43.1392C114.789 43.2954 114.69 43.5022 114.64 43.7596C114.593 44.0129 114.57 44.3231 114.57 44.6903C114.57 45.0701 114.593 45.3888 114.64 45.6462C114.69 45.9037 114.789 46.1105 114.937 46.2667C115.089 46.4228 115.309 46.5009 115.596 46.5009C115.878 46.5009 116.094 46.4228 116.241 46.2667C116.393 46.1105 116.492 45.9037 116.539 45.6462C116.589 45.3888 116.615 45.0701 116.615 44.6903ZM121.761 43.633V47.0264H121.261V44.8612C121.261 44.7726 121.263 44.6797 121.268 44.5826C121.276 44.4856 121.284 44.3906 121.293 44.2978H121.274L120.166 47.0264H119.697L118.621 44.2978H118.602C118.611 44.3906 118.615 44.4856 118.615 44.5826C118.619 44.6797 118.621 44.7789 118.621 44.8802V47.0264H118.121V43.633H118.862L119.932 46.3616L121.021 43.633H121.761Z" fill="#585858"/>
<path d="M137.973 43.633V47.0264H137.416V44.1078H135.662V47.0264H135.105V43.633H137.973ZM140.67 43.5697C141.088 43.5697 141.423 43.7153 141.677 44.0065C141.934 44.2978 142.063 44.7367 142.063 45.3234C142.063 45.7074 142.004 46.0324 141.886 46.2983C141.772 46.56 141.609 46.7584 141.398 46.8934C141.191 47.0243 140.947 47.0897 140.664 47.0897C140.491 47.0897 140.337 47.0665 140.202 47.02C140.067 46.9736 139.95 46.9145 139.853 46.8428C139.761 46.7668 139.68 46.6845 139.613 46.5959H139.575C139.583 46.6676 139.592 46.7584 139.6 46.8681C139.609 46.9778 139.613 47.0728 139.613 47.153V48.5458H139.056V43.633H139.512L139.588 44.0952H139.613C139.68 43.9981 139.761 43.9095 139.853 43.8293C139.95 43.7491 140.064 43.6858 140.195 43.6393C140.33 43.5929 140.489 43.5697 140.67 43.5697ZM140.569 44.0382C140.341 44.0382 140.157 44.0825 140.018 44.1711C139.879 44.2555 139.777 44.3843 139.714 44.5573C139.651 44.7304 139.617 44.9498 139.613 45.2157V45.3234C139.613 45.6019 139.642 45.8383 139.701 46.0324C139.761 46.2266 139.86 46.3743 139.999 46.4756C140.143 46.5769 140.337 46.6275 140.581 46.6275C140.788 46.6275 140.957 46.5705 141.088 46.4566C141.223 46.3426 141.322 46.1886 141.385 45.9944C141.453 45.7961 141.487 45.5703 141.487 45.317C141.487 44.9287 141.411 44.6185 141.259 44.3864C141.111 44.1543 140.881 44.0382 140.569 44.0382ZM143.16 47.0264H142.514L143.482 45.6019C143.352 45.5682 143.225 45.5154 143.103 45.4436C142.98 45.3677 142.881 45.2643 142.805 45.1334C142.729 44.9984 142.691 44.8317 142.691 44.6333C142.691 44.3083 142.801 44.0614 143.02 43.8926C143.24 43.7195 143.531 43.633 143.894 43.633H145.413V47.0264H144.856V45.6779H144.033L143.16 47.0264ZM143.229 44.6396C143.229 44.8338 143.301 44.9794 143.445 45.0765C143.592 45.1693 143.797 45.2157 144.059 45.2157H144.856V44.0952H143.951C143.694 44.0952 143.508 44.1458 143.394 44.2471C143.284 44.3484 143.229 44.4792 143.229 44.6396ZM150.127 43.633V47.0264H149.627V44.8612C149.627 44.7726 149.629 44.6797 149.634 44.5826C149.642 44.4856 149.65 44.3906 149.659 44.2978H149.64L148.532 47.0264H148.063L146.987 44.2978H146.968C146.977 44.3906 146.981 44.4856 146.981 44.5826C146.985 44.6797 146.987 44.7789 146.987 44.8802V47.0264H146.487V43.633H147.228L148.298 46.3616L149.387 43.633H150.127ZM154.161 45.3234C154.161 45.6061 154.123 45.8573 154.047 46.0767C153.975 46.292 153.87 46.4756 153.73 46.6275C153.595 46.7795 153.428 46.8955 153.23 46.9757C153.036 47.0517 152.819 47.0897 152.578 47.0897C152.354 47.0897 152.147 47.0517 151.958 46.9757C151.768 46.8955 151.603 46.7795 151.464 46.6275C151.324 46.4756 151.215 46.292 151.135 46.0767C151.059 45.8573 151.021 45.6061 151.021 45.3234C151.021 44.9477 151.084 44.6312 151.211 44.3737C151.337 44.112 151.519 43.9137 151.755 43.7786C151.991 43.6393 152.272 43.5697 152.597 43.5697C152.905 43.5697 153.175 43.6393 153.407 43.7786C153.644 43.9137 153.827 44.112 153.958 44.3737C154.093 44.6312 154.161 44.9477 154.161 45.3234ZM151.597 45.3234C151.597 45.5893 151.63 45.8214 151.698 46.0198C151.77 46.2139 151.879 46.3637 152.027 46.4692C152.175 46.5748 152.363 46.6275 152.591 46.6275C152.819 46.6275 153.006 46.5748 153.154 46.4692C153.302 46.3637 153.409 46.2139 153.477 46.0198C153.549 45.8214 153.585 45.5893 153.585 45.3234C153.585 45.0532 153.549 44.8232 153.477 44.6333C153.405 44.4434 153.295 44.2978 153.148 44.1965C153.004 44.0909 152.816 44.0382 152.584 44.0382C152.238 44.0382 151.987 44.1521 151.831 44.3801C151.675 44.608 151.597 44.9224 151.597 45.3234ZM157.791 42.2276C157.774 42.4386 157.722 42.6159 157.633 42.7594C157.549 42.9029 157.422 43.0105 157.253 43.0822C157.084 43.154 156.865 43.1899 156.595 43.1899C156.32 43.1899 156.099 43.154 155.93 43.0822C155.765 43.0105 155.645 42.905 155.569 42.7657C155.493 42.6222 155.447 42.4428 155.43 42.2276H155.949C155.97 42.4555 156.029 42.6095 156.126 42.6897C156.228 42.7657 156.388 42.8037 156.607 42.8037C156.802 42.8037 156.953 42.7636 157.063 42.6834C157.177 42.599 157.245 42.447 157.266 42.2276H157.791ZM155.569 45.7032C155.569 45.7412 155.567 45.7961 155.563 45.8678C155.563 45.9353 155.561 46.0092 155.556 46.0894C155.552 46.1654 155.548 46.2392 155.544 46.311C155.54 46.3785 155.535 46.4334 155.531 46.4756L157.348 43.633H158.032V47.0264H157.513V45.0258C157.513 44.9583 157.513 44.8696 157.513 44.7599C157.517 44.6502 157.521 44.5426 157.525 44.437C157.53 44.3273 157.534 44.245 157.538 44.1901L155.734 47.0264H155.044V43.633H155.569V45.7032Z" fill="#3D7B50"/>
<line x1="79.6751" y1="53.4582" x2="179.07" y2="53.4582" stroke="#B5B5C2" stroke-width="1.26618" stroke-linecap="round"/>
<path fill-rule="evenodd" clip-rule="evenodd" d="M135.999 66.0334C135.679 65.7911 135.074 65.5608 134.631 65.5122C134.55 65.5035 132.863 65.4864 130.88 65.4744C128.898 65.4623 127.162 65.4513 127.023 65.4499C126.884 65.4485 126.708 65.463 126.632 65.482C126.515 65.5112 126.23 65.6204 126.201 65.6469C126.196 65.6513 126.264 65.6592 126.351 65.6644C126.561 65.6769 126.665 65.7159 126.76 65.8186C126.974 66.0495 126.915 66.3876 126.636 66.5277C126.546 66.5731 126.501 66.5787 126.321 66.5679L126.111 66.5553L126.208 66.6143C126.261 66.6467 126.4 66.7098 126.515 66.7544C126.69 66.8217 126.778 66.8397 127.028 66.8605C132.097 67.2807 134.466 67.4698 134.608 67.4658C135.241 67.4477 135.997 67.1562 136.247 66.8341C136.409 66.6248 136.395 66.452 136.197 66.2264C136.136 66.1565 136.047 66.0697 135.999 66.0334ZM134.986 66.0191C134.887 66.0041 134.794 66.0518 134.765 66.1329C134.741 66.1986 134.748 66.2173 134.844 66.3526C134.917 66.4555 134.921 66.5798 134.854 66.7008C134.777 66.8402 134.798 66.9465 134.912 66.9939C135.057 67.0542 135.225 66.8548 135.263 66.5783C135.28 66.4534 135.217 66.2467 135.125 66.1248C135.063 66.0427 135.043 66.0279 134.986 66.0191ZM130.66 61.6065C130.626 61.5933 130.48 61.5786 130.336 61.5737L130.075 61.5649L130.429 62.0382L130.503 62.0432C130.661 62.0539 130.809 61.9635 130.818 61.8516C130.826 61.7375 130.769 61.6476 130.66 61.6065ZM131.892 63.3861C131.847 63.3652 131.412 63.332 131.394 63.3481C131.388 63.3539 131.464 63.4624 131.562 63.5893L131.74 63.8201L131.825 63.8183C132.059 63.8136 132.109 63.4875 131.892 63.3861ZM128.851 60.5807C128.743 60.5017 128.55 60.4269 128.413 60.4114C128.325 60.4014 128.293 60.4078 128.255 60.4431C128.227 60.4685 128.208 60.5068 128.209 60.533C128.21 60.5581 128.252 60.6928 128.302 60.8323C128.658 61.8234 129.044 63.2957 129.3 64.6383C129.343 64.8614 129.391 65.0546 129.41 65.0743C129.451 65.1192 129.532 65.1223 130.855 65.1305C131.817 65.1364 131.92 65.1328 131.965 65.0914C131.995 65.0635 132.017 65.0194 132.022 64.978C132.029 64.9152 132.01 64.8823 131.777 64.5354C131.638 64.3293 131.362 63.9402 131.163 63.6707C130.964 63.4011 130.401 62.6296 129.912 61.956C129.423 61.2825 129.002 60.7109 128.977 60.6859C128.952 60.6609 128.895 60.6136 128.851 60.5807ZM131.829 67.6185C131.023 67.5409 129.497 67.436 129.462 67.4557C129.402 67.4884 129.381 67.5354 129.32 67.7708C129.053 68.8081 128.39 70.6696 127.881 71.8116C127.809 71.975 127.795 72.0612 127.835 72.1043C127.867 72.1393 128.058 72.1407 128.185 72.1068C128.338 72.0662 128.5 71.982 128.596 71.893C128.635 71.857 129.109 71.3073 129.65 70.6713C130.192 70.0354 130.8 69.3247 131.003 69.092C131.54 68.4746 132.034 67.8549 132.04 67.7917C132.048 67.7035 131.96 67.631 131.829 67.6185ZM131.764 68.995C131.734 68.9764 131.686 68.9615 131.657 68.9619C131.607 68.9626 131.592 68.9756 131.427 69.1609C131.33 69.27 131.246 69.372 131.24 69.3877C131.226 69.4266 131.702 69.4179 131.75 69.3783C131.912 69.2423 131.918 69.0925 131.764 68.995ZM125.632 63.628C125.497 63.6161 125.401 63.6469 125.368 63.7127C125.352 63.7446 125.384 64.0106 125.467 64.5528C125.62 65.5521 125.619 65.5503 125.956 65.3729C126.045 65.3259 126.185 65.2626 126.267 65.2321C126.442 65.1671 126.51 65.112 126.51 65.0358C126.509 65.0002 126.387 64.762 126.149 64.3356C125.951 63.9801 125.778 63.6777 125.766 63.6635C125.753 63.6493 125.693 63.6333 125.632 63.628ZM125.755 65.9867C125.115 65.9702 125.034 65.9729 124.998 66.012C124.967 66.0452 124.963 66.0688 124.981 66.1095C125.004 66.1614 125.029 66.1641 125.733 66.1896C126.33 66.2112 126.47 66.2093 126.502 66.1792C126.543 66.1409 126.541 66.0804 126.496 66.0316C126.481 66.0162 126.171 65.9974 125.755 65.9867ZM130.274 70.6299L130.162 70.622L129.99 70.8142C129.728 71.1063 129.733 71.0853 129.915 71.0942C129.999 71.0983 130.136 71.0984 130.219 71.0943C130.345 71.0881 130.38 71.078 130.429 71.0322C130.54 70.929 130.544 70.809 130.439 70.6959C130.395 70.6487 130.365 70.6364 130.274 70.6299ZM126.245 67.0397C126.184 67.0149 126.06 66.9469 125.97 66.8887C125.795 66.775 125.705 66.7562 125.637 66.8193C125.601 66.8522 125.19 68.4975 125.197 68.5768C125.199 68.5986 125.22 68.6381 125.244 68.6646C125.307 68.7334 125.519 68.7411 125.587 68.677C125.663 68.6053 126.432 67.31 126.435 67.2494C126.438 67.1645 126.372 67.0909 126.245 67.0397Z" fill="#19191E"/>
<path d="M83.4721 64.1382L82.1933 68.5508H81.5475L80.5219 64.9992L79.4583 68.5508L78.8189 68.5571L77.5844 64.1382H78.1985L79.1608 67.8797L80.2244 64.1382H80.8701L81.883 67.867L82.8517 64.1382H83.4721ZM86.7109 67.5695H84.7863L84.4318 68.5508H83.824L85.4194 64.1635H86.0841L87.6732 68.5508H87.0654L86.7109 67.5695ZM86.5463 67.101L85.7486 64.8725L84.9509 67.101H86.5463ZM93.9143 64.1382L92.6355 68.5508H91.9898L90.9642 64.9992L89.9006 68.5508L89.2611 68.5571L88.0266 64.1382H88.6407L89.603 67.8797L90.6666 64.1382H91.3123L92.3253 67.867L93.2939 64.1382H93.9143Z" fill="#19191E"/>
<path d="M166.886 64.1382C167.367 64.1382 167.783 64.2289 168.133 64.4104C168.488 64.5876 168.758 64.843 168.943 65.1764C169.133 65.5098 169.228 65.9024 169.228 66.354C169.228 66.8056 169.133 67.1981 168.943 67.5315C168.758 67.8607 168.488 68.114 168.133 68.2912C167.783 68.4643 167.367 68.5508 166.886 68.5508H165.512V64.1382H166.886ZM166.886 68.076C167.456 68.076 167.89 67.9261 168.19 67.6265C168.49 67.3226 168.639 66.8984 168.639 66.354C168.639 65.8053 168.488 65.3769 168.184 65.0688C167.884 64.7607 167.451 64.6066 166.886 64.6066H166.088V68.076H166.886ZM171.792 66.3476L173.147 68.5508H172.495L171.438 66.8288L170.431 68.5508H169.792L171.14 66.3476L169.786 64.1382H170.431L171.495 65.8665L172.508 64.1382H173.154L171.792 66.3476ZM176.13 66.278C176.29 66.3033 176.436 66.3687 176.567 66.4743C176.702 66.5798 176.807 66.7106 176.883 66.8668C176.963 67.0229 177.003 67.1896 177.003 67.3669C177.003 67.5906 176.946 67.7932 176.832 67.9747C176.718 68.1519 176.552 68.2933 176.332 68.3988C176.117 68.5001 175.862 68.5508 175.566 68.5508H173.92V64.1382H175.503C175.803 64.1382 176.058 64.1888 176.269 64.2901C176.48 64.3872 176.638 64.5201 176.744 64.6889C176.849 64.8578 176.902 65.0477 176.902 65.2587C176.902 65.5204 176.83 65.7378 176.687 65.9108C176.548 66.0796 176.362 66.202 176.13 66.278ZM174.496 66.0438H175.465C175.735 66.0438 175.944 65.9804 176.092 65.8538C176.239 65.7272 176.313 65.5521 176.313 65.3284C176.313 65.1047 176.239 64.9295 176.092 64.8029C175.944 64.6763 175.731 64.613 175.452 64.613H174.496V66.0438ZM175.516 68.076C175.803 68.076 176.026 68.0084 176.187 67.8734C176.347 67.7383 176.427 67.5505 176.427 67.3099C176.427 67.0651 176.343 66.8731 176.174 66.7338C176.005 66.5903 175.779 66.5186 175.497 66.5186H174.496V68.076H175.516Z" fill="#19191E"/>
<path d="M193.763 53.1275V51.4942H196.814V60.7246H194.991V53.1275H193.763ZM203.352 53.7986C203.267 53.4441 203.12 53.1782 202.909 53.0009C202.706 52.8237 202.41 52.735 202.022 52.735C201.44 52.735 201.009 52.9714 200.731 53.4441C200.461 53.9084 200.321 54.6681 200.313 55.7232C200.515 55.3856 200.811 55.1239 201.199 54.9382C201.587 54.744 202.01 54.647 202.465 54.647C203.014 54.647 203.499 54.7651 203.921 55.0015C204.344 55.2378 204.673 55.5839 204.909 56.0398C205.145 56.4871 205.264 57.0274 205.264 57.6605C205.264 58.2598 205.141 58.7958 204.896 59.2685C204.66 59.7328 204.31 60.0957 203.845 60.3574C203.381 60.6191 202.828 60.7499 202.187 60.7499C201.309 60.7499 200.617 60.5558 200.11 60.1675C199.612 59.7792 199.262 59.239 199.059 58.5468C198.865 57.8462 198.768 56.9852 198.768 55.9638C198.768 54.419 199.034 53.2542 199.566 52.4691C200.098 51.6757 200.938 51.2789 202.086 51.2789C202.972 51.2789 203.66 51.5195 204.149 52.0007C204.639 52.4818 204.922 53.0811 204.998 53.7986H203.352ZM202.06 56.1031C201.613 56.1031 201.237 56.2339 200.933 56.4956C200.629 56.7573 200.477 57.1371 200.477 57.6351C200.477 58.1332 200.617 58.5257 200.895 58.8127C201.182 59.0997 201.583 59.2432 202.098 59.2432C202.554 59.2432 202.913 59.1039 203.174 58.8253C203.445 58.5468 203.58 58.1712 203.58 57.6984C203.58 57.2089 203.449 56.8206 203.187 56.5336C202.934 56.2466 202.558 56.1031 202.06 56.1031ZM207.652 60.8132C207.331 60.8132 207.066 60.7162 206.855 60.522C206.652 60.3194 206.551 60.0704 206.551 59.775C206.551 59.4795 206.652 59.2347 206.855 59.0406C207.066 58.838 207.331 58.7367 207.652 58.7367C207.965 58.7367 208.222 58.838 208.425 59.0406C208.627 59.2347 208.728 59.4795 208.728 59.775C208.728 60.0704 208.627 60.3194 208.425 60.522C208.222 60.7162 207.965 60.8132 207.652 60.8132ZM207.652 55.5713C207.331 55.5713 207.066 55.4742 206.855 55.28C206.652 55.0775 206.551 54.8284 206.551 54.533C206.551 54.2376 206.652 53.9928 206.855 53.7986C207.066 53.596 207.331 53.4947 207.652 53.4947C207.965 53.4947 208.222 53.596 208.425 53.7986C208.627 53.9928 208.728 54.2376 208.728 54.533C208.728 54.8284 208.627 55.0775 208.425 55.28C208.222 55.4742 207.965 55.5713 207.652 55.5713ZM209.991 55.9891C209.991 54.5288 210.252 53.385 210.776 52.5578C211.308 51.7305 212.186 51.3169 213.409 51.3169C214.633 51.3169 215.507 51.7305 216.03 52.5578C216.562 53.385 216.828 54.5288 216.828 55.9891C216.828 57.4579 216.562 58.6101 216.03 59.4458C215.507 60.2814 214.633 60.6993 213.409 60.6993C212.186 60.6993 211.308 60.2814 210.776 59.4458C210.252 58.6101 209.991 57.4579 209.991 55.9891ZM215.081 55.9891C215.081 55.3645 215.039 54.8411 214.954 54.419C214.878 53.9885 214.718 53.6382 214.473 53.3681C214.237 53.098 213.882 52.9629 213.409 52.9629C212.937 52.9629 212.578 53.098 212.333 53.3681C212.097 53.6382 211.936 53.9885 211.852 54.419C211.776 54.8411 211.738 55.3645 211.738 55.9891C211.738 56.6306 211.776 57.1709 211.852 57.6098C211.928 58.0403 212.088 58.3906 212.333 58.6607C212.578 58.9224 212.937 59.0533 213.409 59.0533C213.882 59.0533 214.241 58.9224 214.486 58.6607C214.731 58.3906 214.891 58.0403 214.967 57.6098C215.043 57.1709 215.081 56.6306 215.081 55.9891ZM218.176 55.9891C218.176 54.5288 218.438 53.385 218.961 52.5578C219.493 51.7305 220.371 51.3169 221.595 51.3169C222.819 51.3169 223.693 51.7305 224.216 52.5578C224.748 53.385 225.014 54.5288 225.014 55.9891C225.014 57.4579 224.748 58.6101 224.216 59.4458C223.693 60.2814 222.819 60.6993 221.595 60.6993C220.371 60.6993 219.493 60.2814 218.961 59.4458C218.438 58.6101 218.176 57.4579 218.176 55.9891ZM223.266 55.9891C223.266 55.3645 223.224 54.8411 223.14 54.419C223.064 53.9885 222.904 53.6382 222.659 53.3681C222.422 53.098 222.068 52.9629 221.595 52.9629C221.122 52.9629 220.764 53.098 220.519 53.3681C220.283 53.6382 220.122 53.9885 220.038 54.419C219.962 54.8411 219.924 55.3645 219.924 55.9891C219.924 56.6306 219.962 57.1709 220.038 57.6098C220.114 58.0403 220.274 58.3906 220.519 58.6607C220.764 58.9224 221.122 59.0533 221.595 59.0533C222.068 59.0533 222.427 58.9224 222.671 58.6607C222.916 58.3906 223.077 58.0403 223.153 57.6098C223.228 57.1709 223.266 56.6306 223.266 55.9891Z" fill="#191C30"/>
<path d="M197.483 69.3003V74.1168H198.175V76.1529H197.521V74.7246H193.791V76.1529H193.138V74.1168H193.556C193.738 73.8028 193.91 73.4508 194.072 73.0609C194.239 72.6709 194.386 72.2632 194.513 71.8377C194.64 71.4072 194.743 70.9767 194.824 70.5462C194.905 70.1157 194.956 69.7004 194.976 69.3003H197.483ZM195.577 69.9157C195.556 70.2094 195.506 70.5412 195.425 70.9109C195.349 71.2806 195.25 71.6605 195.128 72.0504C195.012 72.4354 194.88 72.8076 194.733 73.1672C194.591 73.5268 194.44 73.8434 194.277 74.1168H196.807V69.9157H195.577ZM198.353 70.6526H199.067L199.948 72.9697C199.999 73.1064 200.044 73.2381 200.085 73.3647C200.13 73.4914 200.171 73.6154 200.206 73.737C200.242 73.8535 200.27 73.9674 200.29 74.0789H200.32C200.351 73.9522 200.399 73.7876 200.465 73.5851C200.53 73.3774 200.599 73.1697 200.67 72.9621L201.498 70.6526H202.219L200.465 75.2868C200.368 75.54 200.254 75.7603 200.123 75.9477C199.996 76.1402 199.839 76.2871 199.652 76.3884C199.469 76.4947 199.246 76.5479 198.983 76.5479C198.862 76.5479 198.755 76.5403 198.664 76.5251C198.573 76.515 198.494 76.5023 198.429 76.4871V75.9553C198.484 75.9655 198.55 75.9756 198.626 75.9857C198.707 75.9959 198.791 76.0009 198.877 76.0009C199.034 76.0009 199.168 75.9705 199.279 75.9098C199.396 75.854 199.495 75.7705 199.576 75.659C199.657 75.5527 199.725 75.4261 199.781 75.2792L199.994 74.7398L198.353 70.6526ZM202.651 72.2784C202.651 71.6858 202.709 71.1818 202.825 70.7665C202.947 70.3462 203.132 70.0119 203.38 69.7637C203.633 69.5105 203.957 69.3408 204.352 69.2547C204.682 69.1838 205.003 69.1205 205.317 69.0648C205.631 69.0091 205.925 68.9584 206.199 68.9129L206.312 69.4978C206.181 69.5181 206.034 69.5434 205.872 69.5738C205.71 69.5991 205.545 69.627 205.378 69.6574C205.211 69.6827 205.049 69.7105 204.892 69.7409C204.74 69.7663 204.606 69.7916 204.489 69.8169C204.322 69.8524 204.173 69.9131 204.041 69.9992C203.909 70.0803 203.795 70.1917 203.699 70.3335C203.608 70.4753 203.535 70.6501 203.479 70.8577C203.423 71.0654 203.39 71.311 203.38 71.5946H203.426C203.497 71.4984 203.593 71.3996 203.714 71.2983C203.841 71.197 203.99 71.1109 204.163 71.04C204.34 70.9691 204.54 70.9337 204.763 70.9337C205.117 70.9337 205.411 71.0122 205.644 71.1692C205.882 71.3211 206.059 71.5338 206.176 71.8073C206.297 72.0808 206.358 72.3999 206.358 72.7646C206.358 73.2153 206.28 73.5926 206.123 73.8965C205.966 74.2004 205.748 74.4283 205.469 74.5803C205.191 74.7271 204.867 74.8006 204.497 74.8006C204.218 74.8006 203.965 74.7474 203.737 74.641C203.509 74.5296 203.314 74.3675 203.152 74.1548C202.99 73.9421 202.866 73.6787 202.78 73.3647C202.694 73.0507 202.651 72.6886 202.651 72.2784ZM204.55 74.246C204.773 74.246 204.965 74.2004 205.127 74.1092C205.294 74.0181 205.424 73.8687 205.515 73.661C205.606 73.4534 205.652 73.1773 205.652 72.8329C205.652 72.4176 205.573 72.091 205.416 71.8529C205.264 71.6098 205.011 71.4883 204.656 71.4883C204.433 71.4883 204.231 71.5389 204.049 71.6402C203.866 71.7364 203.714 71.8479 203.593 71.9745C203.471 72.1011 203.385 72.2074 203.334 72.2935C203.334 72.5417 203.352 72.7823 203.388 73.0153C203.423 73.2482 203.484 73.4584 203.57 73.6458C203.661 73.8282 203.785 73.975 203.942 74.0865C204.104 74.1928 204.307 74.246 204.55 74.246ZM208.953 70.5842C209.45 70.5842 209.817 70.6931 210.055 70.9109C210.293 71.1287 210.412 71.4756 210.412 71.9517V74.7246H209.926L209.797 74.1472H209.766C209.65 74.2941 209.528 74.4182 209.402 74.5195C209.28 74.6157 209.138 74.6866 208.976 74.7322C208.819 74.7778 208.627 74.8006 208.399 74.8006C208.156 74.8006 207.935 74.7575 207.738 74.6714C207.545 74.5853 207.394 74.4536 207.282 74.2764C207.171 74.0941 207.115 73.8661 207.115 73.5926C207.115 73.1875 207.275 72.876 207.594 72.6582C207.913 72.4354 208.404 72.3138 209.067 72.2935L209.759 72.2708V72.0277C209.759 71.6883 209.685 71.4528 209.538 71.3211C209.392 71.1894 209.184 71.1236 208.915 71.1236C208.703 71.1236 208.5 71.1565 208.308 71.2224C208.115 71.2831 207.935 71.354 207.768 71.4351L207.563 70.9337C207.74 70.8374 207.951 70.7564 208.194 70.6906C208.437 70.6197 208.69 70.5842 208.953 70.5842ZM209.151 72.757C208.645 72.7772 208.293 72.8583 208.095 73.0001C207.903 73.1419 207.806 73.3419 207.806 73.6002C207.806 73.8282 207.875 73.9953 208.011 74.1017C208.153 74.208 208.333 74.2612 208.551 74.2612C208.895 74.2612 209.181 74.1675 209.409 73.9801C209.637 73.7876 209.751 73.4939 209.751 73.0988V72.7342L209.151 72.757ZM214.967 68.966C214.947 69.2193 214.883 69.432 214.777 69.6042C214.676 69.7764 214.524 69.9055 214.321 69.9916C214.119 70.0777 213.855 70.1208 213.531 70.1208C213.202 70.1208 212.936 70.0777 212.733 69.9916C212.536 69.9055 212.392 69.7789 212.3 69.6118C212.209 69.4396 212.153 69.2243 212.133 68.966H212.756C212.781 69.2395 212.852 69.4244 212.969 69.5206C213.09 69.6118 213.283 69.6574 213.546 69.6574C213.779 69.6574 213.962 69.6093 214.093 69.513C214.23 69.4117 214.311 69.2294 214.336 68.966H214.967ZM212.3 73.1368C212.3 73.1824 212.298 73.2482 212.293 73.3343C212.293 73.4154 212.29 73.504 212.285 73.6002C212.28 73.6914 212.275 73.78 212.27 73.8661C212.265 73.9472 212.26 74.013 212.255 74.0637L214.435 70.6526H215.256V74.7246H214.633V72.3239C214.633 72.2429 214.633 72.1365 214.633 72.0049C214.638 71.8732 214.643 71.744 214.648 71.6174C214.653 71.4857 214.658 71.387 214.663 71.3211L212.498 74.7246H211.67V70.6526H212.3V73.1368Z" fill="#585858"/>
<path d="M193.902 85.7246V80.3003H197.974V85.7246H197.298V80.9005H194.586V85.7246H193.902ZM200.036 81.6526V83.3467H202.247V81.6526H202.916V85.7246H202.247V83.9089H200.036V85.7246H199.368V81.6526H200.036ZM205.873 80.8625V80.2319H207.301V85.7246H206.603V80.8625H205.873ZM208.489 82.9213C208.489 82.0502 208.631 81.3715 208.914 80.8853C209.198 80.394 209.694 80.1484 210.403 80.1484C211.107 80.1484 211.601 80.394 211.885 80.8853C212.168 81.3715 212.31 82.0502 212.31 82.9213C212.31 83.8076 212.168 84.4964 211.885 84.9877C211.601 85.479 211.107 85.7246 210.403 85.7246C209.694 85.7246 209.198 85.479 208.914 84.9877C208.631 84.4964 208.489 83.8076 208.489 82.9213ZM211.627 82.9213C211.627 82.4807 211.596 82.1084 211.535 81.8045C211.48 81.4956 211.361 81.2474 211.178 81.06C211.001 80.8726 210.743 80.7789 210.403 80.7789C210.059 80.7789 209.796 80.8726 209.613 81.06C209.436 81.2474 209.317 81.4956 209.256 81.8045C209.201 82.1084 209.173 82.4807 209.173 82.9213C209.173 83.3771 209.201 83.7595 209.256 84.0684C209.317 84.3774 209.436 84.6256 209.613 84.813C209.796 85.0004 210.059 85.0941 210.403 85.0941C210.743 85.0941 211.001 85.0004 211.178 84.813C211.361 84.6256 211.48 84.3774 211.535 84.0684C211.596 83.7595 211.627 83.3771 211.627 82.9213ZM215.558 80.3003H216.196V83.2784C216.196 83.405 216.194 83.5443 216.189 83.6962C216.189 83.8431 216.186 83.9899 216.181 84.1368C216.176 84.2837 216.169 84.4154 216.158 84.5319C216.153 84.6433 216.148 84.7294 216.143 84.7902H216.174L219.159 80.3003H219.919V85.7246H219.281V82.7769C219.281 82.6402 219.283 82.4933 219.288 82.3363C219.293 82.1742 219.299 82.0198 219.304 81.8729C219.314 81.721 219.321 81.5867 219.326 81.4703C219.331 81.3538 219.337 81.2677 219.342 81.212H219.311L216.318 85.7246H215.558V80.3003ZM226.578 83.681C226.578 84.1318 226.505 84.5167 226.358 84.8358C226.211 85.1498 226.004 85.3903 225.735 85.5575C225.467 85.7195 225.148 85.8006 224.778 85.8006C224.433 85.8006 224.132 85.7297 223.874 85.5879C223.616 85.441 223.41 85.2283 223.258 84.9497C223.107 84.6661 223.018 84.3192 222.993 83.9089H221.959V85.7246H221.291V81.6526H221.959V83.3467H223C223.036 82.9618 223.129 82.6402 223.281 82.3819C223.438 82.1185 223.643 81.9185 223.897 81.7817C224.155 81.645 224.454 81.5766 224.793 81.5766C225.143 81.5766 225.451 81.6602 225.72 81.8273C225.988 81.9894 226.199 82.2274 226.35 82.5414C226.502 82.8504 226.578 83.2302 226.578 83.681ZM223.676 83.681C223.676 84.0203 223.714 84.3065 223.79 84.5395C223.871 84.7724 223.993 84.9497 224.155 85.0713C224.317 85.1878 224.527 85.246 224.785 85.246C225.044 85.246 225.254 85.1878 225.416 85.0713C225.578 84.9497 225.697 84.7724 225.773 84.5395C225.849 84.3065 225.887 84.0203 225.887 83.681C225.887 83.3417 225.849 83.058 225.773 82.8301C225.697 82.6022 225.578 82.43 225.416 82.3135C225.254 82.197 225.044 82.1388 224.785 82.1388C224.527 82.1388 224.317 82.197 224.155 82.3135C223.993 82.43 223.871 82.6022 223.79 82.8301C223.714 83.058 223.676 83.3417 223.676 83.681ZM228.31 81.6526V83.3467H230.521V81.6526H231.189V85.7246H230.521V83.9089H228.31V85.7246H227.642V81.6526H228.31Z" fill="#585858"/>
<mask id="mask0_43_2862" style="mask-type:alpha" maskUnits="userSpaceOnUse" x="34" y="21" width="19" height="19">
<circle cx="43.4228" cy="30.6894" r="8.96579" fill="#D9D9D9"/>
</mask>
<g mask="url(#mask0_43_2862)">
<path d="M34.457 21.126H52.3886V39.6553H34.457V21.126Z" fill="#D71A21"/>
<path d="M44.3383 25.2108C44.2332 25.3465 44.1759 25.513 44.1753 25.6846V27.172C44.1675 27.2847 44.1247 27.3895 44.0549 27.4788C44.016 27.5177 43.7869 27.7235 43.7675 27.7468L43.8957 27.7507C43.9383 27.7119 44.3811 27.3196 44.4238 27.2653C44.552 27.1255 44.6257 26.9429 44.6257 26.7527V25.3235C44.6239 25.2513 44.6364 25.1796 44.6624 25.1123C44.6884 25.0449 44.7274 24.9834 44.7772 24.9312C44.8316 24.8729 45.0025 24.7293 45.0335 24.6943L44.8976 24.6904C44.8704 24.7254 44.385 25.1642 44.3383 25.2108ZM43.2471 30.6207L43.7869 31.0906H44.1481C44.4937 31.0906 44.8277 30.9547 45.0724 30.7101C45.2937 30.4887 45.3753 30.1896 45.3753 29.91V29.1372C45.3714 28.9624 45.2976 28.7954 45.1656 28.6789C45.1423 28.6556 44.9831 28.5041 44.9831 28.5041V29.0983C44.9831 29.0983 45.1578 29.277 45.1889 29.3119C45.3481 29.4828 45.3481 29.7935 44.8393 30.2867C44.75 30.3721 44.4976 30.6129 44.1481 30.6129L43.2471 30.6207Z" fill="white"/>
<path d="M44.7522 27.4479C44.6939 27.5101 44.6357 27.6654 44.6357 27.8052V28.0965H44.9308C45.0474 28.0965 45.1988 27.9917 45.2299 27.9373V27.6459C45.2737 27.7098 45.3274 27.7662 45.3891 27.8129C45.4202 27.774 45.6921 27.4479 45.9172 27.444C46.294 27.4401 46.2086 27.9178 46.0571 28.0693C46.0066 28.1197 45.7853 28.3217 45.7154 28.3877C45.5367 28.5586 45.2299 28.477 45.2299 28.0382C45.2299 28.0382 44.9037 28.3489 44.8532 28.3915C44.8027 28.4343 44.6357 28.6129 44.6357 28.6129V29.3858C44.6357 29.7547 44.5153 29.879 44.4143 29.9916C44.3754 30.0343 43.96 30.415 43.9017 30.4577L43.7657 30.4615C43.7657 30.4615 44.0104 30.2402 44.057 30.1897C44.1114 30.1314 44.1774 30.0149 44.1774 29.8207C44.1774 29.7703 44.1697 28.609 44.1697 28.609H42.2744C41.6142 28.609 41.4744 27.879 41.4705 27.6808V26.947C41.4705 26.8266 41.3929 26.6246 41.2725 26.5625H41.4589C41.4822 26.5702 41.5987 26.6168 41.5987 27.0673C41.5987 27.0673 41.5909 27.5878 41.5909 27.6188C41.5909 27.848 41.7734 28.1081 42.0337 28.1081L44.1774 28.1042C44.1774 28.0459 44.2357 27.8285 44.3405 27.712C44.3988 27.646 44.8609 27.2266 44.9115 27.1839H45.0473C45.0279 27.2033 44.8027 27.4013 44.7561 27.4557L44.7522 27.4479ZM45.4552 27.8867C45.5107 27.9624 45.5717 28.0338 45.6377 28.1004C45.8707 28.2868 45.9794 28.0848 45.8241 27.8751C45.7619 27.7897 45.525 27.813 45.4551 27.8867H45.4552Z" fill="white"/>
<path d="M43.1544 29.2692C43.1544 29.374 42.8243 29.6498 42.8049 29.6653C42.7816 29.5527 42.6961 29.4323 42.4515 29.1837L42.8126 28.8226C43.0573 29.0673 43.1544 29.1217 43.1544 29.2692ZM43.7836 25.1176C43.8574 25.1914 44.0127 25.3856 43.9195 25.4827C43.8491 25.5535 43.7792 25.6247 43.7097 25.6963C43.702 25.6496 43.5816 25.5332 43.5816 25.5332V25.9254C43.5778 26.0846 43.5195 26.1274 43.5195 26.1274C43.5195 26.1274 43.8107 26.4147 43.8107 26.7875V27.1681C43.8124 27.2038 43.8068 27.2395 43.7941 27.2729C43.7814 27.3063 43.7619 27.3368 43.7369 27.3624C43.7097 27.3934 43.4418 27.6653 43.3991 27.7002C43.3369 27.7546 43.2593 27.7856 43.1777 27.7817H42.172C42.0127 27.7817 41.8496 27.6575 41.8496 27.5332C41.8496 27.5021 41.8535 27.1604 41.8535 27.1604C41.9039 27.2186 41.9583 27.2885 42.0826 27.2885C42.1836 27.2885 42.2845 27.2109 42.3117 27.1798C42.3389 27.1488 43.073 26.3875 43.073 26.3875C43.073 26.3875 42.7312 26.0691 42.506 25.9176C42.3972 25.8439 42.2496 25.9371 42.2263 26.0342C42.1564 26.3371 42.2263 26.7953 42.2263 26.7953L41.9506 26.5196C41.838 26.407 41.8418 26.1546 41.9777 26.0225C41.9971 25.9992 42.203 25.7739 42.4593 25.7739H42.8593C43.1273 25.7739 43.4224 26.0419 43.4224 26.0419C43.4458 26.0147 43.4613 25.9836 43.4652 25.9487C43.4652 25.8089 43.4613 25.44 43.4613 25.44C43.2594 25.238 43.2322 25.0283 43.3292 24.9312C43.5118 24.7487 43.5778 24.6865 43.5778 24.6865C43.5778 24.6865 43.57 24.9079 43.7836 25.1176ZM42.5214 27.1371C42.4204 27.2419 42.4049 27.2653 42.3117 27.3235H43.4457C43.7525 27.3235 43.6904 27.1332 43.636 27.0361C43.5233 26.8381 43.1661 26.473 43.1661 26.473C43.1661 26.473 42.5408 27.1177 42.5214 27.1371Z" fill="white"/>
<path d="M41.2294 28.1699H41.043C41.043 28.1699 41.241 28.2787 41.241 28.5622V29.467C41.241 30.0534 41.7265 30.5972 42.3168 30.5972H42.81C43.1051 30.5972 43.21 30.5272 43.3887 30.368C43.4546 30.3097 43.5401 30.2126 43.5712 30.1777C43.6722 30.0611 43.7848 29.968 43.7848 29.6651V29.3699C43.7848 29.1136 43.6372 29.0087 43.5634 28.935C43.5067 28.879 43.4498 28.8234 43.3926 28.768V29.3738C43.3926 29.3738 43.5168 29.5058 43.5712 29.5486C43.8275 29.7505 43.6255 30.1001 43.3848 30.1001H42.3012C41.9051 30.1078 41.3653 29.7544 41.3653 29.1563V28.667C41.3691 28.1699 41.2294 28.1699 41.2294 28.1699Z" fill="white"/>
<path d="M42.4172 29.2728C42.4172 29.3776 42.0871 29.6534 42.0677 29.6689C42.0444 29.5563 41.959 29.4359 41.7143 29.1873L42.0755 28.8262C42.3163 29.067 42.4172 29.1213 42.4172 29.2728ZM38.6307 33.2923H38.0482C37.8656 33.2923 37.8812 33.1409 37.8618 33.0127V32.1816C37.8618 32.1816 37.9899 32.1777 38.1336 32.1777C38.2929 32.1777 38.4948 32.1544 38.689 32.2632C38.6396 32.1587 38.5606 32.0711 38.4619 32.011C38.3632 31.951 38.2491 31.9212 38.1336 31.9253H37.8656V31.6573C37.8656 31.6573 37.8656 31.4243 37.8074 31.3583H38.1918C38.522 31.3583 38.7783 31.3544 39.0462 31.5291C39.0462 31.5291 38.9958 31.0903 38.355 31.0903H37.1045C37.1045 31.0903 37.3219 31.2767 37.3141 31.6534L37.3219 33.168C37.3219 33.5487 37.4734 33.5603 37.4734 33.5603H38.7045C38.9841 33.5603 39.0812 33.3622 39.0812 33.2535L39.0851 33.1098C39.0851 33.1098 38.9958 33.2923 38.6307 33.2923ZM41.9085 33.1642V32.104C41.9085 31.6923 41.5745 31.5835 41.3221 31.5835C40.9919 31.5835 40.891 31.8593 40.8483 31.9564C40.7745 31.7001 40.5143 31.5836 40.3046 31.5836C39.9046 31.5836 39.8035 31.9641 39.8035 31.9641C39.8035 31.9641 39.7958 31.5952 39.4735 31.5952H39.1589C39.1589 31.5952 39.3414 31.669 39.3414 31.9874V33.1642C39.3414 33.5525 39.4968 33.5603 39.4968 33.5603H40.0172C39.8929 33.4671 39.8191 33.3195 39.8191 33.1603V32.1156C39.8269 32.069 39.9045 31.9137 40.1259 31.9137C40.254 31.9137 40.3939 32.0457 40.39 32.1933V33.1642C40.39 33.5564 40.5454 33.5603 40.5454 33.5603H41.0657C40.9415 33.4632 40.8677 33.3195 40.8677 33.1603V32.1156C40.892 32.0421 40.9445 31.9812 41.0136 31.9462C41.0828 31.9113 41.163 31.9051 41.2366 31.9292C41.3532 31.968 41.4347 32.0729 41.4386 32.1972V33.1642C41.4425 33.5603 41.5939 33.5564 41.5939 33.5564H42.1144C42.0521 33.5114 42.001 33.4525 41.9653 33.3845C41.9296 33.3164 41.9101 33.241 41.9085 33.1642ZM42.8172 33.1642C42.8174 33.241 42.8353 33.3168 42.8697 33.3855C42.904 33.4543 42.9539 33.5141 43.0153 33.5603H42.4949C42.4949 33.5603 42.3357 33.5642 42.3357 33.168V31.9836C42.3357 31.6729 42.1571 31.5913 42.1571 31.5913H42.4716C42.5842 31.5913 42.8134 31.5913 42.8134 32.0301V33.1564L42.8172 33.1642ZM44.4173 31.7427C44.4173 31.7427 44.3668 31.603 44.1532 31.603C43.827 31.603 43.7493 31.9913 43.7493 31.9913C43.7221 31.6845 43.6406 31.5952 43.4114 31.5952H43.0968C43.0968 31.5952 43.2794 31.669 43.2794 31.9874V33.1642C43.2794 33.5525 43.4348 33.5603 43.4348 33.5603H43.9552C43.8937 33.5141 43.8439 33.4543 43.8095 33.3855C43.7752 33.3168 43.7572 33.241 43.7571 33.1642V32.1972C43.7688 32.1156 43.8154 32.0418 43.8853 31.9991C44.06 31.8826 44.2892 31.9176 44.425 32.0768L44.4173 31.7427ZM46.8368 31.8127C46.9455 31.8127 47.0504 31.8398 47.1436 31.8904V31.5952H46.7086V31.1447C46.6154 31.2923 46.495 31.4244 46.3591 31.5369C46.2116 31.6573 45.9009 31.8088 45.9009 31.8088L46.231 31.8127V33.1797C46.231 33.5603 46.3902 33.5603 46.3902 33.5603H46.9067C46.8457 33.516 46.7958 33.4583 46.7608 33.3917C46.7257 33.325 46.7066 33.2511 46.7048 33.1758V31.8127H46.8368ZM48.4135 32.4069C48.1223 32.7098 47.8931 32.6632 47.7105 32.8884C47.7105 32.8884 47.7417 33.1914 47.9708 33.2962C48.0485 33.3312 48.3708 33.4477 48.5766 33.0904V33.4088C48.5766 33.4088 48.4446 33.5642 48.0213 33.5642C47.5126 33.5642 47.163 33.1642 47.163 32.6205C47.163 32.0845 47.4466 31.5913 47.9863 31.5874C48.5106 31.5797 48.798 32.0069 48.4135 32.4069ZM48.0951 32.2826C48.1805 32.1234 48.2505 31.7195 47.9553 31.7427C47.6135 31.77 47.6795 32.6748 47.6795 32.6748C47.7922 32.5506 47.963 32.5234 48.0951 32.2826ZM42.5765 31.436C42.7085 31.4321 42.8095 31.3233 42.8095 31.1952C42.8056 31.0631 42.6968 30.9622 42.5687 30.9622C42.4406 30.966 42.3357 31.0709 42.3357 31.1991C42.3357 31.3311 42.4444 31.4359 42.5765 31.4359V31.436ZM44.9571 33.3351C44.8406 33.3351 44.7552 33.2108 44.7552 33.0865C44.7552 32.5972 45.1552 32.5273 45.2639 32.3991V33.2263C45.2135 33.2652 45.1668 33.3351 44.9571 33.3351ZM45.2639 32.2088C45.1435 32.4185 44.2037 32.4651 44.3474 33.1914C44.4057 33.4787 44.596 33.5642 44.8367 33.5642C45.0698 33.5642 45.2135 33.4438 45.2717 33.3273C45.3067 33.5448 45.4193 33.5603 45.4193 33.5603H45.9397C45.8154 33.4671 45.7377 33.3234 45.7377 33.168V32.0613C45.7377 31.7972 45.4464 31.5914 45.1357 31.5914C44.9629 31.5875 44.7932 31.6377 44.6503 31.735V32.0768C44.6503 32.0768 44.7591 31.805 45.027 31.805C45.2911 31.805 45.3106 31.937 45.3106 32.0031C45.3144 32.0729 45.3028 32.1467 45.2639 32.2089V32.2088ZM49.5631 33.0244C49.567 33.1642 49.4427 33.3467 49.1787 33.3467C48.9068 33.3467 48.798 33.071 48.798 33.071V33.4205C48.9456 33.5137 49.1165 33.5603 49.2912 33.5603C49.6447 33.5603 50.0058 33.2923 49.998 32.9156C49.9942 32.792 49.9522 32.6726 49.8777 32.5739C49.7573 32.4147 49.5397 32.302 49.3689 32.1972C49.2718 32.1389 49.2213 32.0301 49.2213 31.9952C49.2174 31.9292 49.2524 31.7972 49.5126 31.7972C49.7689 31.7972 49.8816 32.069 49.8816 32.069V31.7389C49.7379 31.6379 49.563 31.5836 49.3844 31.5836C49.0737 31.5836 48.7902 31.7894 48.798 32.0534C48.8019 32.2865 48.899 32.4341 49.0893 32.5777C49.1748 32.6393 49.2643 32.6951 49.3573 32.7447C49.5048 32.8263 49.5592 32.9272 49.5631 33.0244Z" fill="white"/>
</g>
<defs>
<filter id="filter0_d_43_2862" x="0.682258" y="0.0172844" width="268.038" height="128.126" filterUnits="userSpaceOnUse" color-interpolation-filters="sRGB">
<feFlood flood-opacity="0" result="BackgroundImageFix"/>
<feColorMatrix in="SourceAlpha" type="matrix" values="0 0 0 0 0 0 0 0 0 0 0 0 0 0 0 0 0 0 127 0" result="hardAlpha"/>
<feOffset dx="0.896579" dy="10.7589"/>
<feGaussianBlur stdDeviation="8.60716"/>
<feComposite in2="hardAlpha" operator="out"/>
<feColorMatrix type="matrix" values="0 0 0 0 0.332922 0 0 0 0 0.400106 0 0 0 0 0.601667 0 0 0 0.22 0"/>
<feBlend mode="normal" in2="BackgroundImageFix" result="effect1_dropShadow_43_2862"/>
<feBlend mode="normal" in="SourceGraphic" in2="effect1_dropShadow_43_2862" result="shape"/>
</filter>
</defs>
</svg>
