<svg width="18" height="17" viewBox="0 0 18 17" fill="none" xmlns="http://www.w3.org/2000/svg">
<circle cx="9" cy="8.50053" r="8" stroke="#3968BF"/>
<path fill-rule="evenodd" clip-rule="evenodd" d="M9.69564 5.33515C9.81604 5.2068 9.9825 5.13152 10.1584 5.12588C10.3343 5.12023 10.5052 5.18469 10.6336 5.30507L12.9936 7.5173C13.0598 7.57936 13.1125 7.65434 13.1486 7.73759C13.1846 7.82085 13.2032 7.91061 13.2032 8.00133C13.2032 8.09206 13.1846 8.18182 13.1486 8.26507C13.1125 8.34832 13.0598 8.4233 12.9936 8.48537L10.6336 10.6976C10.5047 10.815 10.3348 10.8769 10.1606 10.87C9.98645 10.8632 9.82196 10.788 9.70271 10.6609C9.58346 10.5337 9.51903 10.3648 9.52334 10.1905C9.52764 10.0162 9.60034 9.85063 9.72572 9.72952L10.861 8.665H7.82055C7.525 8.665 7.0737 8.75349 6.71709 8.99418C6.39587 9.21098 6.12421 9.56317 6.12421 10.2136C6.12421 10.3896 6.05429 10.5584 5.92983 10.6828C5.80537 10.8073 5.63656 10.8772 5.46054 10.8772C5.28453 10.8772 5.11572 10.8073 4.99126 10.6828C4.8668 10.5584 4.79688 10.3896 4.79688 10.2136C4.79688 9.09417 5.31188 8.34024 5.97378 7.89337C6.60117 7.4704 7.32944 7.33766 7.82055 7.33766H10.861L9.72572 6.27314C9.59737 6.15273 9.52209 5.98627 9.51645 5.81037C9.5108 5.63447 9.57526 5.46354 9.69564 5.33515Z" fill="#3968BF"/>
</svg>
