<svg width="54" height="32" viewBox="0 0 54 32" fill="none" xmlns="http://www.w3.org/2000/svg">
<path d="M54 16C54 24.7795 46.8615 32 38 32C29.2205 32 22 24.7795 22 16C22 7.22051 29.1385 0 37.918 0C46.8615 0 54 7.22051 54 16Z" fill="#F9B50B"/>
<path d="M32.5846 16.0821C32.5846 14.9333 32.4205 13.7846 32.2564 12.7179H22.4103C22.4923 12.1436 22.6564 11.6513 22.8205 10.9949H31.6C31.4359 10.4205 31.1898 9.84615 30.9436 9.2718H23.4769C23.7231 8.69744 24.0513 8.20513 24.3795 7.54872H30.041C29.7128 6.97436 29.3026 6.4 28.8103 5.82564H25.6923C26.1846 5.25128 26.6769 4.75897 27.3334 4.18462C24.5436 1.55897 20.7693 0 16.5846 0C7.8872 0.246154 0.666687 7.22051 0.666687 16C0.666687 24.7795 7.80515 32 16.6667 32C20.8513 32 24.5436 30.359 27.4154 27.8154C27.9898 27.3231 28.4821 26.7487 29.0564 26.0923H25.7744C25.3641 25.6 24.9539 25.0256 24.6257 24.4513H30.2051C30.5334 23.959 30.8616 23.3846 31.1077 22.7282H23.641C23.3949 22.2359 23.1487 21.6615 22.9846 21.0051H31.7641C32.2564 19.5282 32.5846 17.8872 32.5846 16.0821Z" fill="#C8191C"/>
<path d="M22.3282 20.1034L22.5744 18.6265C22.4923 18.6265 22.3282 18.7085 22.1641 18.7085C21.5898 18.7085 21.5077 18.3803 21.5898 18.2162L22.0821 15.2624H22.9846L23.2308 13.6213H22.4103L22.5744 12.6367H20.8513C20.8513 12.6367 19.8667 18.2162 19.8667 18.8726C19.8667 19.8572 20.4411 20.3495 21.2616 20.3495C21.7539 20.3495 22.1641 20.1854 22.3282 20.1034Z" fill="white"/>
<path d="M22.9025 17.3942C22.9025 19.7737 24.5436 20.348 25.8564 20.348C27.0871 20.348 27.6615 20.1019 27.6615 20.1019L27.9897 18.4608C27.9897 18.4608 27.0871 18.8711 26.1846 18.8711C24.2974 18.8711 24.6256 17.4762 24.6256 17.4762H28.0718C28.0718 17.4762 28.3179 16.4096 28.3179 15.9172C28.3179 14.8506 27.7436 13.4557 25.8564 13.4557C24.2153 13.3737 22.9025 15.2608 22.9025 17.3942ZM25.8564 14.9326C26.7589 14.9326 26.5948 15.9993 26.5948 16.0813H24.7077C24.7897 15.9993 24.9538 14.9326 25.8564 14.9326Z" fill="white"/>
<path d="M36.6051 20.1016L36.9334 18.2145C36.9334 18.2145 36.1128 18.6247 35.4564 18.6247C34.3077 18.6247 33.7334 17.7221 33.7334 16.6555C33.7334 14.6042 34.718 13.5375 35.9487 13.5375C36.7692 13.5375 37.5077 14.0298 37.5077 14.0298L37.7539 12.2247C37.7539 12.2247 36.7692 11.8145 35.7846 11.8145C33.8154 11.8145 31.9282 13.5375 31.9282 16.7375C31.9282 18.8709 32.9128 20.2657 34.9641 20.2657C35.7026 20.3478 36.6051 20.1016 36.6051 20.1016Z" fill="white"/>
<path d="M13.0564 13.373C11.9077 13.373 11.0052 13.7013 11.0052 13.7013L10.759 15.1782C10.759 15.1782 11.4975 14.85 12.6462 14.85C13.2205 14.85 13.7129 14.932 13.7129 15.4243C13.7129 15.7525 13.6308 15.8346 13.6308 15.8346H12.8923C11.4154 15.8346 9.85645 16.4089 9.85645 18.3782C9.85645 19.9372 10.8411 20.2654 11.4975 20.2654C12.6462 20.2654 13.2205 19.5269 13.3026 19.5269L13.2205 20.1833H14.6154L15.2718 15.5064C15.2718 13.4551 13.6308 13.373 13.0564 13.373ZM13.3847 17.1474C13.3847 17.3936 13.2205 18.7884 12.2359 18.7884C11.7436 18.7884 11.5795 18.3782 11.5795 18.132C11.5795 17.7218 11.8257 17.1474 13.1385 17.1474C13.3026 17.1474 13.3847 17.1474 13.3847 17.1474Z" fill="white"/>
<path d="M16.9128 20.2673C17.323 20.2673 19.4564 20.3494 19.4564 18.0519C19.4564 15.9186 17.4051 16.3289 17.4051 15.5084C17.4051 15.0981 17.7333 14.934 18.3077 14.934C18.5538 14.934 19.4564 15.016 19.4564 15.016L19.7025 13.4571C19.7025 13.4571 19.1282 13.293 18.0615 13.293C16.8307 13.293 15.5179 13.7853 15.5179 15.5084C15.5179 17.4776 17.6513 17.3135 17.6513 18.0519C17.6513 18.5443 17.0769 18.6263 16.6666 18.6263C15.9282 18.6263 15.1077 18.3801 15.1077 18.3801L14.8615 19.9391C15.0256 20.1032 15.5179 20.2673 16.9128 20.2673Z" fill="white"/>
<path d="M50.7179 12.0605L50.3897 14.358C50.3897 14.358 49.7333 13.5375 48.7487 13.5375C47.1897 13.5375 45.8769 15.4246 45.8769 17.64C45.8769 19.0349 46.5333 20.4298 48.0102 20.4298C48.9948 20.4298 49.6513 19.7734 49.6513 19.7734L49.5692 20.3477H51.2923L52.523 12.2246L50.7179 12.0605ZM49.8974 16.4913C49.8974 17.3939 49.4871 18.6247 48.5025 18.6247C47.9282 18.6247 47.6 18.1323 47.6 17.2298C47.6 15.8349 48.1743 15.0144 48.9948 15.0144C49.5692 15.0964 49.8974 15.5067 49.8974 16.4913Z" fill="white"/>
<path d="M3.78458 20.1836L4.7692 14.1118L4.9333 20.1836H6.08202L8.2974 14.1118L7.39484 20.1836H9.19996L10.5948 12.0605H7.80509L6.08202 17.0657L5.99996 12.0605H3.53843L2.14355 20.1836H3.78458Z" fill="white"/>
<path d="M30.041 20.1852C30.5333 17.3955 30.6153 15.098 31.8461 15.5083C32.0102 14.4416 32.2564 13.9493 32.4205 13.5391H32.0923C31.3538 13.5391 30.6974 14.5237 30.6974 14.5237L30.8615 13.6211H29.2205L28.1538 20.1852H30.041Z" fill="white"/>
<path d="M40.5436 13.373C39.3949 13.373 38.4923 13.7013 38.4923 13.7013L38.2462 15.1782C38.2462 15.1782 38.9847 14.85 40.1334 14.85C40.7077 14.85 41.2 14.932 41.2 15.4243C41.2 15.7525 41.118 15.8346 41.118 15.8346H40.3795C38.9026 15.8346 37.3436 16.4089 37.3436 18.3782C37.3436 19.9372 38.3282 20.2654 38.9847 20.2654C40.1334 20.2654 40.7077 19.5269 40.7898 19.5269L40.7077 20.1833H42.2667L42.9231 15.5064C42.9231 13.4551 41.118 13.373 40.5436 13.373ZM40.9539 17.1474C40.9539 17.3936 40.7898 18.7884 39.8052 18.7884C39.3129 18.7884 39.1488 18.3782 39.1488 18.132C39.1488 17.7218 39.3949 17.1474 40.7077 17.1474C40.8718 17.1474 40.8718 17.1474 40.9539 17.1474Z" fill="white"/>
<path d="M44.2359 20.1852C44.7282 17.3955 44.8103 15.098 46.0411 15.5083C46.2052 14.4416 46.4513 13.9493 46.6154 13.5391H46.2872C45.5488 13.5391 44.8923 14.5237 44.8923 14.5237L45.0564 13.6211H43.4154L42.3488 20.1852H44.2359Z" fill="white"/>
</svg>
