<svg width="54" height="33" viewBox="0 0 54 33" fill="none" xmlns="http://www.w3.org/2000/svg">
<path d="M53.9999 16.5C53.9999 25.2795 46.8615 32.5 37.9999 32.5C29.2205 32.5 21.9999 25.2795 21.9999 16.5C21.9999 7.72051 29.1384 0.5 37.9179 0.5C46.8615 0.5 53.9999 7.72051 53.9999 16.5Z" fill="#F9B50B"/>
<path d="M32.5846 16.5821C32.5846 15.4333 32.4205 14.2846 32.2564 13.2179H22.4102C22.4923 12.6436 22.6564 12.1513 22.8205 11.4949H31.6C31.4359 10.9205 31.1897 10.3462 30.9436 9.7718H23.4769C23.723 9.19744 24.0512 8.70513 24.3794 8.04872H30.041C29.7128 7.47436 29.3025 6.9 28.8102 6.32564H25.6923C26.1846 5.75128 26.6769 5.25897 27.3333 4.68462C24.5435 2.05897 20.7692 0.5 16.5846 0.5C7.88714 0.746154 0.666626 7.72051 0.666626 16.5C0.666626 25.2795 7.80509 32.5 16.6666 32.5C20.8512 32.5 24.5435 30.859 27.4153 28.3154C27.9897 27.8231 28.482 27.2487 29.0564 26.5923H25.7743C25.3641 26.1 24.9538 25.5256 24.6256 24.9513H30.2051C30.5333 24.459 30.8615 23.8846 31.1077 23.2282H23.641C23.3948 22.7359 23.1487 22.1615 22.9846 21.5051H31.7641C32.2564 20.0282 32.5846 18.3872 32.5846 16.5821Z" fill="#C8191C"/>
<path d="M22.3282 20.6034L22.5743 19.1265C22.4923 19.1265 22.3282 19.2085 22.1641 19.2085C21.5897 19.2085 21.5077 18.8803 21.5897 18.7162L22.082 15.7624H22.9846L23.2307 14.1213H22.4102L22.5743 13.1367H20.8513C20.8513 13.1367 19.8666 18.7162 19.8666 19.3726C19.8666 20.3572 20.441 20.8495 21.2615 20.8495C21.7538 20.8495 22.1641 20.6854 22.3282 20.6034Z" fill="white"/>
<path d="M22.9025 17.8942C22.9025 20.2737 24.5435 20.848 25.8563 20.848C27.0871 20.848 27.6614 20.6019 27.6614 20.6019L27.9896 18.9608C27.9896 18.9608 27.0871 19.3711 26.1845 19.3711C24.2973 19.3711 24.6255 17.9762 24.6255 17.9762H28.0717C28.0717 17.9762 28.3179 16.9096 28.3179 16.4172C28.3179 15.3506 27.7435 13.9557 25.8563 13.9557C24.2153 13.8737 22.9025 15.7608 22.9025 17.8942ZM25.8563 15.4326C26.7589 15.4326 26.5948 16.4993 26.5948 16.5813H24.7076C24.7896 16.4993 24.9537 15.4326 25.8563 15.4326Z" fill="white"/>
<path d="M36.6051 20.6026L36.9333 18.7154C36.9333 18.7154 36.1128 19.1257 35.4564 19.1257C34.3077 19.1257 33.7333 18.2231 33.7333 17.1565C33.7333 15.1052 34.7179 14.0385 35.9487 14.0385C36.7692 14.0385 37.5077 14.5308 37.5077 14.5308L37.7538 12.7257C37.7538 12.7257 36.7692 12.3154 35.7846 12.3154C33.8153 12.3154 31.9282 14.0385 31.9282 17.2385C31.9282 19.3718 32.9128 20.7667 34.9641 20.7667C35.7025 20.8488 36.6051 20.6026 36.6051 20.6026Z" fill="white"/>
<path d="M13.0564 13.874C11.9077 13.874 11.0051 14.2022 11.0051 14.2022L10.7589 15.6792C10.7589 15.6792 11.4974 15.3509 12.6461 15.3509C13.2205 15.3509 13.7128 15.433 13.7128 15.9253C13.7128 16.2535 13.6307 16.3356 13.6307 16.3356H12.8923C11.4154 16.3356 9.85638 16.9099 9.85638 18.8792C9.85638 20.4381 10.841 20.7663 11.4974 20.7663C12.6461 20.7663 13.2205 20.0279 13.3025 20.0279L13.2205 20.6843H14.6154L15.2718 16.0074C15.2718 13.9561 13.6307 13.874 13.0564 13.874ZM13.3846 17.6484C13.3846 17.8945 13.2205 19.2894 12.2359 19.2894C11.7436 19.2894 11.5795 18.8792 11.5795 18.633C11.5795 18.2227 11.8256 17.6484 13.1384 17.6484C13.3025 17.6484 13.3846 17.6484 13.3846 17.6484Z" fill="white"/>
<path d="M16.9127 20.7673C17.323 20.7673 19.4563 20.8494 19.4563 18.5519C19.4563 16.4186 17.405 16.8289 17.405 16.0084C17.405 15.5981 17.7332 15.434 18.3076 15.434C18.5538 15.434 19.4563 15.516 19.4563 15.516L19.7025 13.9571C19.7025 13.9571 19.1281 13.793 18.0615 13.793C16.8307 13.793 15.5179 14.2853 15.5179 16.0084C15.5179 17.9776 17.6512 17.8135 17.6512 18.5519C17.6512 19.0443 17.0768 19.1263 16.6666 19.1263C15.9281 19.1263 15.1076 18.8801 15.1076 18.8801L14.8615 20.4391C15.0256 20.6032 15.5179 20.7673 16.9127 20.7673Z" fill="white"/>
<path d="M50.7179 12.5615L50.3897 14.859C50.3897 14.859 49.7332 14.0384 48.7486 14.0384C47.1897 14.0384 45.8768 15.9256 45.8768 18.141C45.8768 19.5359 46.5332 20.9308 48.0102 20.9308C48.9948 20.9308 49.6512 20.2743 49.6512 20.2743L49.5691 20.8487H51.2922L52.523 12.7256L50.7179 12.5615ZM49.8973 16.9923C49.8973 17.8949 49.4871 19.1256 48.5025 19.1256C47.9281 19.1256 47.5999 18.6333 47.5999 17.7308C47.5999 16.3359 48.1743 15.5154 48.9948 15.5154C49.5691 15.5974 49.8973 16.0077 49.8973 16.9923Z" fill="white"/>
<path d="M3.78452 20.6846L4.76913 14.6128L4.93324 20.6846H6.08196L8.29734 14.6128L7.39478 20.6846H9.1999L10.5948 12.5615H7.80503L6.08196 17.5667L5.9999 12.5615H3.53837L2.14349 20.6846H3.78452Z" fill="white"/>
<path d="M30.0409 20.6852C30.5332 17.8955 30.6153 15.598 31.8461 16.0083C32.0102 14.9416 32.2563 14.4493 32.4204 14.0391H32.0922C31.3537 14.0391 30.6973 15.0237 30.6973 15.0237L30.8614 14.1211H29.2204L28.1537 20.6852H30.0409Z" fill="white"/>
<path d="M40.5436 13.874C39.3948 13.874 38.4923 14.2022 38.4923 14.2022L38.2461 15.6792C38.2461 15.6792 38.9846 15.3509 40.1333 15.3509C40.7077 15.3509 41.2 15.433 41.2 15.9253C41.2 16.2535 41.1179 16.3356 41.1179 16.3356H40.3795C38.9025 16.3356 37.3436 16.9099 37.3436 18.8792C37.3436 20.4381 38.3282 20.7663 38.9846 20.7663C40.1333 20.7663 40.7077 20.0279 40.7897 20.0279L40.7077 20.6843H42.2666L42.9231 16.0074C42.9231 13.9561 41.1179 13.874 40.5436 13.874ZM40.9538 17.6484C40.9538 17.8945 40.7897 19.2894 39.8051 19.2894C39.3128 19.2894 39.1487 18.8792 39.1487 18.633C39.1487 18.2227 39.3948 17.6484 40.7077 17.6484C40.8718 17.6484 40.8718 17.6484 40.9538 17.6484Z" fill="white"/>
<path d="M44.2359 20.6852C44.7282 17.8955 44.8102 15.598 46.041 16.0083C46.2051 14.9416 46.4513 14.4493 46.6154 14.0391H46.2872C45.5487 14.0391 44.8923 15.0237 44.8923 15.0237L45.0564 14.1211H43.4154L42.3487 20.6852H44.2359Z" fill="white"/>
</svg>
