<svg width="63" height="24" viewBox="0 0 63 24" fill="none" xmlns="http://www.w3.org/2000/svg">
<g clip-path="url(#clip0_5802_50352)">
<path d="M43.2077 13.6318L43.8311 13.8188C43.7895 13.9955 43.7272 14.1409 43.6337 14.2552C43.5401 14.3695 43.4363 14.463 43.3012 14.5149C43.1661 14.5773 42.9999 14.6084 42.7921 14.6084C42.5427 14.6084 42.3453 14.5773 42.1791 14.5045C42.0233 14.4318 41.8882 14.3071 41.7739 14.1201C41.6596 13.9435 41.5973 13.7045 41.5973 13.424C41.5973 13.05 41.7012 12.7591 41.8986 12.5513C42.096 12.3435 42.3869 12.25 42.7505 12.25C43.0414 12.25 43.2596 12.3123 43.4259 12.4266C43.5921 12.5409 43.7168 12.7175 43.7895 12.9669L43.1661 13.1019C43.1453 13.0292 43.1246 12.9773 43.0934 12.9461C43.0518 12.8942 43.0103 12.8526 42.9479 12.8214C42.8856 12.7903 42.8233 12.7799 42.7609 12.7799C42.6051 12.7799 42.4804 12.8422 42.3973 12.9773C42.335 13.0708 42.3038 13.2266 42.3038 13.424C42.3038 13.6734 42.3453 13.85 42.4181 13.9435C42.4908 14.037 42.6051 14.089 42.7401 14.089C42.8752 14.089 42.9791 14.0474 43.0414 13.9747C43.1246 13.8812 43.1765 13.7773 43.2077 13.6318Z" fill="#225E63"/>
<path d="M44.0807 13.4247C44.0807 13.0506 44.1846 12.7597 44.3924 12.5519C44.6002 12.3441 44.8911 12.2402 45.2651 12.2402C45.6495 12.2402 45.9404 12.3441 46.1482 12.5415C46.356 12.7493 46.4599 13.0298 46.4599 13.4039C46.4599 13.674 46.4184 13.8922 46.3248 14.0584C46.2313 14.2246 46.1067 14.3597 45.93 14.4532C45.7638 14.5467 45.5456 14.5987 45.2963 14.5987C45.0365 14.5987 44.8287 14.5571 44.6521 14.474C44.4859 14.3909 44.3508 14.2662 44.2365 14.0792C44.1222 13.8922 44.0807 13.6948 44.0807 13.4247ZM44.7872 13.4247C44.7872 13.6532 44.8287 13.8195 44.9119 13.9234C44.995 14.0272 45.1093 14.0792 45.2651 14.0792C45.4209 14.0792 45.5352 14.0272 45.6184 13.9337C45.7015 13.8298 45.743 13.6532 45.743 13.4039C45.743 13.1857 45.7015 13.0298 45.608 12.9363C45.5248 12.8324 45.4002 12.7909 45.2547 12.7909C45.1093 12.7909 44.995 12.8428 44.9119 12.9467C44.8287 13.0298 44.7872 13.1961 44.7872 13.4247Z" fill="#225E63"/>
<path d="M46.8231 12.2812H47.7478L48.1011 13.6735L48.4543 12.2812H49.379V14.567H48.7972V12.8215L48.3504 14.567H47.8309L47.3842 12.8215V14.567H46.8024V12.2812H46.8231Z" fill="#225E63"/>
<path d="M49.8365 12.2812H51.0106C51.2703 12.2812 51.4573 12.3436 51.582 12.4683C51.7067 12.5929 51.769 12.7592 51.769 12.9877C51.769 13.2163 51.6963 13.4033 51.5612 13.528C51.4262 13.6631 51.208 13.7254 50.9275 13.7254H50.543V14.5774H49.8365V12.2812ZM50.543 13.2579H50.7197C50.8547 13.2579 50.9482 13.2371 51.0106 13.1851C51.0625 13.1332 51.0937 13.0813 51.0937 13.0085C51.0937 12.9358 51.0729 12.8735 51.021 12.8215C50.969 12.7696 50.8859 12.7488 50.7508 12.7488H50.5534V13.2579H50.543Z" fill="#225E63"/>
<path d="M52.1432 12.2812H52.8497V14.0059H53.951V14.567H52.1432V12.2812Z" fill="#225E63"/>
<path d="M54.3033 12.2812H55.0098V14.567H54.3033V12.2812Z" fill="#225E63"/>
<path d="M56.9219 14.1832H56.1219L56.0077 14.5572H55.2908L56.1531 12.2715H56.9219L57.7843 14.5572H57.0466L56.9219 14.1832ZM56.7765 13.6949L56.5271 12.8741L56.2778 13.6949H56.7765Z" fill="#225E63"/>
<path d="M58.0026 12.2812H58.6571L59.5194 13.5488V12.2812H60.1844V14.567H59.5194L58.6675 13.3098V14.567H58.0026V12.2812Z" fill="#225E63"/>
<path d="M60.4957 12.2812H62.6464V12.8423H61.9295V14.567H61.223V12.8423H60.5061V12.2812H60.4957Z" fill="#225E63"/>
<path d="M34.709 15.7619L36.7558 15.1178L36.0908 13.6424C35.6025 14.2554 35.1142 15.045 34.709 15.7619ZM34.0129 9.01905L30.0025 0.0839844L0.641479 1.74632L8.77655 23.9385L24.4337 19.0035C23.4363 17.5697 23.0726 15.8658 24.2259 15.0346C25.5142 14.0996 27.4571 15.1801 28.6934 16.7074C29.8882 14.7126 33.2441 10.0684 34.0129 9.01905Z" fill="#225E63"/>
<path d="M29.0885 6.54115C30.3145 6.54115 31.3119 5.60609 31.3119 4.44245C31.3119 3.27881 30.3145 2.34375 29.0885 2.34375C27.8625 2.34375 26.8651 3.27881 26.8651 4.44245C26.8651 5.5957 27.8625 6.54115 29.0885 6.54115ZM27.2703 7.44505H30.9067V16.9515H27.2703V7.44505Z" fill="#FEFEFE"/>
<path d="M25.4725 10.2183C25.5037 10.2287 25.5245 10.2183 25.5245 10.1872V7.77677C25.5245 7.7456 25.5037 7.71443 25.4725 7.69365C25.4725 7.69365 24.9946 7.38196 23.5401 7.29884C23.4673 7.25729 22.1894 7.2469 21.8466 7.29884C16.5479 7.72482 16.3505 11.5586 16.3505 11.7248V12.6599C16.3505 12.7742 16.3505 16.6911 21.8466 17.0339C22.3868 17.0755 23.4362 17.0339 23.5401 17.0339C24.8076 17.0339 25.6803 16.6495 25.6803 16.6495C25.7115 16.6391 25.7323 16.6079 25.7323 16.5768V14.3222C25.7323 14.2911 25.7115 14.2807 25.6907 14.3014C25.6907 14.3014 25.2959 14.6131 23.5712 14.7898C23.0829 14.8417 22.844 14.8209 22.6673 14.7898C20.2154 14.3742 20.1011 12.5872 20.1011 12.5872C20.1011 12.556 20.0907 12.504 20.0907 12.4833V11.7975C20.0907 11.7664 20.0907 11.7144 20.1011 11.6937C20.1011 11.6937 20.2673 9.77157 22.6673 9.56378H23.5712C24.6206 9.69885 25.4725 10.2183 25.4725 10.2183Z" fill="#FEFEFE"/>
<path d="M6.25183 16.9196C6.25183 16.9508 6.27261 16.9715 6.30378 16.9715H9.84664C9.87781 16.9715 9.89858 16.9508 9.89858 16.9196V14.156C9.89858 14.1248 9.91936 14.104 9.95053 14.104C9.95053 14.104 15.6129 14.5092 15.6129 10.717C15.6129 7.7144 12.0596 7.39232 10.896 7.44427C10.8752 7.44427 6.30378 7.44427 6.30378 7.44427C6.27261 7.44427 6.25183 7.46505 6.25183 7.49622V16.9196ZM9.83625 11.9949V9.5118H10.709C10.709 9.5118 11.9661 9.56375 12.07 10.4261C12.0908 10.4884 12.0908 10.9144 12.07 10.9352C11.9038 11.943 10.8129 11.9949 10.8129 11.9949H9.83625Z" fill="#FEFEFE"/>
<path d="M29.1921 21.5386C29.483 21.5386 29.7116 21.5386 30.0856 21.3723C31.3739 20.697 35.7272 10.0684 40.3194 6.7957C40.3506 6.77492 40.3817 6.74375 40.4025 6.71259C40.4337 6.67103 40.4337 6.62947 40.4337 6.62947C40.4337 6.62947 40.4337 6.41129 39.7584 6.41129C35.6752 6.297 31.4259 14.8684 29.1921 18.2554C29.161 18.297 29.0155 18.2554 29.0155 18.2554C29.0155 18.2554 27.5194 16.4892 26.2207 15.8139C26.1895 15.8035 26.0441 15.7515 25.8882 15.7619C25.7843 15.7619 25.1817 15.8866 24.9012 16.1775C24.5687 16.5308 24.5791 16.7282 24.5791 17.1541C24.5791 17.1853 24.5999 17.3308 24.6415 17.4035C24.9636 17.9645 26.4077 19.9593 27.6025 21.0606C27.7791 21.1957 28.0597 21.5386 29.1921 21.5386Z" fill="#2BBC5D"/>
<path d="M41.5243 3.58594H44.9217C45.597 3.58594 46.1373 3.67944 46.5425 3.85607C46.9581 4.04308 47.3009 4.30282 47.5607 4.63529C47.8308 4.97815 48.0282 5.37295 48.1425 5.8197C48.2672 6.26646 48.3295 6.74438 48.3295 7.25347C48.3295 8.04308 48.236 8.65607 48.0594 9.09243C47.8827 9.52879 47.6334 9.89243 47.3113 10.1937C46.9892 10.4846 46.6464 10.682 46.2827 10.7859C45.784 10.921 45.3269 10.9833 44.9217 10.9833H41.5243V3.58594ZM43.81 5.25867V9.30022H44.371C44.849 9.30022 45.1918 9.24828 45.3892 9.14438C45.5866 9.04048 45.7529 8.85347 45.8672 8.59373C45.9814 8.33399 46.0438 7.89762 46.0438 7.30542C46.0438 6.51581 45.9191 5.98594 45.6594 5.69503C45.3996 5.40412 44.984 5.25867 44.3814 5.25867H43.81Z" fill="#225E63"/>
<path d="M48.9628 8.54208L51.1446 8.40702C51.1965 8.76026 51.29 9.03039 51.4355 9.21741C51.6745 9.51871 52.0069 9.66416 52.4433 9.66416C52.7654 9.66416 53.0251 9.59143 53.2017 9.43559C53.3784 9.27974 53.4719 9.10312 53.4719 8.90572C53.4719 8.71871 53.3887 8.54208 53.2225 8.38624C53.0563 8.23039 52.6615 8.09533 52.0485 7.96026C51.0407 7.73169 50.3342 7.43039 49.8978 7.05637C49.4615 6.68234 49.2537 6.20442 49.2537 5.6226C49.2537 5.23819 49.368 4.88494 49.5861 4.54208C49.8043 4.19923 50.1368 3.93948 50.5835 3.74208C51.0303 3.54468 51.6329 3.45117 52.4017 3.45117C53.3472 3.45117 54.0745 3.6278 54.5628 3.98104C55.0615 4.33429 55.3524 4.89533 55.4459 5.66416L53.2848 5.78884C53.2225 5.45637 53.1082 5.21741 52.9212 5.06156C52.7342 4.90572 52.4848 4.83299 52.1628 4.83299C51.8926 4.83299 51.6952 4.88494 51.5602 4.99922C51.4251 5.11351 51.3628 5.24858 51.3628 5.41481C51.3628 5.52909 51.4147 5.64338 51.529 5.73689C51.6329 5.83039 51.8926 5.9239 52.2978 6.00701C53.2952 6.2252 54.0121 6.44338 54.4485 6.66156C54.8848 6.87974 55.1965 7.16026 55.3939 7.48234C55.5913 7.80442 55.6848 8.17845 55.6848 8.58364C55.6848 9.06156 55.5498 9.49793 55.29 9.89273C55.0303 10.2979 54.6563 10.5992 54.1887 10.807C53.7212 11.0148 53.1186 11.1187 52.4017 11.1187C51.1446 11.1187 50.2719 10.8797 49.7835 10.3914C49.3056 9.90312 49.0355 9.29013 48.9628 8.54208Z" fill="#225E63"/>
<path d="M56.2675 8.54208L58.4493 8.40702C58.5012 8.76026 58.5947 9.03039 58.7402 9.21741C58.9791 9.51871 59.3116 9.66416 59.748 9.66416C60.0701 9.66416 60.3298 9.59143 60.5064 9.43559C60.683 9.27974 60.7765 9.10312 60.7765 8.90572C60.7765 8.71871 60.6934 8.54208 60.5272 8.38624C60.361 8.23039 59.9662 8.09533 59.3532 7.96026C58.3454 7.73169 57.6389 7.43039 57.2025 7.05637C56.7765 6.68234 56.5584 6.20442 56.5584 5.6226C56.5584 5.23819 56.6727 4.88494 56.8908 4.54208C57.109 4.19923 57.4415 3.93948 57.8882 3.74208C58.335 3.54468 58.9376 3.45117 59.7064 3.45117C60.6519 3.45117 61.3791 3.6278 61.8675 3.98104C62.3662 4.33429 62.6571 4.89533 62.7506 5.66416L60.5895 5.78884C60.5272 5.45637 60.4129 5.21741 60.2259 5.06156C60.0389 4.90572 59.7895 4.83299 59.4675 4.83299C59.1973 4.83299 58.9999 4.88494 58.8649 4.99922C58.7298 5.11351 58.6675 5.24858 58.6675 5.41481C58.6675 5.52909 58.7194 5.64338 58.8337 5.73689C58.9376 5.83039 59.1973 5.9239 59.6025 6.00701C60.5999 6.2252 61.3168 6.44338 61.7532 6.66156C62.1895 6.87974 62.5012 7.16026 62.6986 7.48234C62.896 7.80442 62.9895 8.17845 62.9895 8.58364C62.9895 9.06156 62.8545 9.49793 62.5947 9.89273C62.335 10.2979 61.961 10.5992 61.4934 10.807C61.0259 11.0148 60.4233 11.1187 59.7064 11.1187C58.4493 11.1187 57.5765 10.8797 57.0882 10.3914C56.5999 9.90312 56.3298 9.29013 56.2675 8.54208Z" fill="#225E63"/>
</g>
<defs>
<clipPath id="clip0_5802_50352">
<rect width="62.4416" height="24" fill="white" transform="translate(0.558472)"/>
</clipPath>
</defs>
</svg>
