<svg width="20" height="20" viewBox="0 0 20 20" fill="none" xmlns="http://www.w3.org/2000/svg">
<path d="M13.2709 16.9584C12.0075 16.9584 10.9941 16.5827 10.1088 15.8571C7.87455 14.0336 5.83127 11.9879 4.01044 9.75145C2.51728 7.91806 2.70272 5.11719 4.40952 3.47166C4.70573 3.1733 5.10767 3.00384 5.52807 3.00006C5.94847 2.99629 6.35339 3.15851 6.6549 3.4515C7.00561 3.78287 7.34907 4.1239 7.67721 4.47462C8.28672 5.11961 8.29317 6.01615 7.70543 6.67565C7.11768 7.33515 7.11284 8.01642 7.70301 8.70011C8.81799 9.98186 10.0243 11.1812 11.3125 12.2887C11.9753 12.8603 12.6533 12.8579 13.3056 12.2806C13.9763 11.6864 14.885 11.6921 15.5356 12.3072C15.8807 12.6329 16.2166 12.9686 16.5434 13.3142C17.1803 13.989 17.1586 14.9589 16.491 15.6031C15.5622 16.4997 14.4496 16.9479 13.2709 16.9584Z" fill="#306DDE"/>
</svg>
