<svg width="24" height="24" viewBox="0 0 24 24" fill="none" xmlns="http://www.w3.org/2000/svg">
<path d="M3.61092 15C3.53963 14.2558 3.46927 13.5281 3.39892 12.8015C3.27041 11.4703 3.15034 10.142 3.01338 8.81372C2.93928 8.09391 3.17379 7.51278 3.69628 7.20708C3.92544 7.05867 4.19897 7.00305 4.46492 7.05076C4.73088 7.09847 4.97075 7.2462 5.139 7.4659C5.59395 8.01187 6.04328 8.56271 6.49542 9.10965C6.56858 9.19853 6.6455 9.28448 6.7243 9.3675C7.24867 9.92127 7.63327 9.92616 8.16795 9.39094C9.16854 8.39017 10.1691 7.39005 11.1697 6.39058C11.6725 5.88954 12.2719 5.86903 12.8094 6.33784C13.83 7.22759 14.8469 8.12223 15.8675 9.01101C16.4143 9.48763 16.768 9.46712 17.282 8.94264C17.7961 8.41816 18.3045 7.90931 18.8054 7.37995C19.2022 6.96194 19.6497 6.74707 20.1937 7.00589C20.7566 7.27252 21.022 7.77063 20.9986 8.3957C20.9742 9.06668 20.8898 9.7357 20.826 10.4057C20.7406 11.3179 20.6506 12.2301 20.5614 13.1404C20.5014 13.7508 20.4404 14.3613 20.3738 14.9961L3.61092 15Z" fill="#306DDE"/>
<path d="M19.7147 16.2861C19.6806 16.8517 19.6229 17.3763 19.3737 17.8434C19.0293 18.488 18.5458 18.8504 17.8813 18.8493C13.9759 18.8493 10.0704 18.8381 6.16585 18.8576C5.19452 18.8576 4.5047 17.9881 4.35608 16.9739C4.32373 16.7542 4.31061 16.5304 4.28613 16.2861H19.7147Z" fill="#306DDE"/>
</svg>
