<svg width="24" height="24" viewBox="0 0 24 24" fill="none" xmlns="http://www.w3.org/2000/svg">
<path fill-rule="evenodd" clip-rule="evenodd" d="M11.9941 15.5347L11.9941 15.5347C11.4244 15.4917 10.8711 15.45 10.3249 15.3601C7.83969 14.9527 5.60424 14.0509 4.03494 11.9499C2.95501 10.4998 2.40031 8.8421 2.16716 7.07167C2.07691 6.38512 2.04793 5.68865 2.01901 4.99361L2.01901 4.99361C2.01345 4.85994 2.00789 4.72631 2.0019 4.59282C1.98268 4.10858 2.10439 4.01635 2.58606 4.0061C4.27294 3.95605 5.95478 4.21436 7.54889 4.76833C10.3237 5.74321 12.0736 7.67761 12.9357 10.455C13.0152 10.7113 13.0838 10.971 13.1561 11.2444L13.1561 11.2445C13.1922 11.381 13.2291 11.5209 13.2688 11.6656C13.3343 11.5284 13.3953 11.3953 13.4548 11.2656L13.4548 11.2656C13.5791 10.9945 13.6964 10.7387 13.8325 10.4934C14.742 8.86259 16.2024 7.98891 17.9729 7.62125C18.582 7.49529 19.209 7.45141 19.8348 7.40762C20.0618 7.39173 20.2887 7.37585 20.5145 7.35607C20.8207 7.33045 20.9936 7.48417 20.9987 7.81084C21.0218 9.53899 20.7361 11.1941 19.8035 12.6789C18.8927 14.1303 17.5053 14.8964 15.8835 15.2615C15.3768 15.3763 14.8594 15.4414 14.3234 15.5087H14.3234L14.3234 15.5087C14.076 15.5398 13.8246 15.5714 13.5686 15.6087V15.9763V19.2725C13.5686 19.5492 13.5353 19.8169 13.1843 19.8169C12.8333 19.8169 12.7999 19.5607 12.7999 19.2763C12.8073 18.2796 12.8069 17.2761 12.8065 16.2713V16.2711L12.8064 15.601C12.5314 15.5752 12.2609 15.5548 11.9941 15.5347ZM2.75644 4.76192L2.75644 4.76193C4.84967 4.76194 6.80326 5.10398 8.61466 6.06861C10.5632 7.10627 11.6623 8.80111 12.2644 10.8649C12.5909 12.0065 12.7696 13.1853 12.796 14.3724V14.8246L12.7961 14.8246V14.3724C12.7696 13.1853 12.591 12.0065 12.2645 10.8649C11.6624 8.8011 10.5632 7.10626 8.61473 6.0686C6.80331 5.10397 4.8497 4.76192 2.75644 4.76192ZM2.75644 5.17955C2.74813 5.04407 2.74792 4.90822 2.7558 4.77273C2.74875 4.90827 2.7498 5.04413 2.75894 5.17956C2.80421 5.50759 2.84248 5.83757 2.88075 6.16766C2.97027 6.93972 3.05986 7.7123 3.23934 8.46163C3.61648 9.99421 4.29624 11.3236 5.37426 12.3546C4.29607 11.3236 3.61576 9.99421 3.23684 8.46162C3.05347 7.7147 2.96566 6.94467 2.87789 6.17508L2.87789 6.17507C2.83997 5.84252 2.80206 5.51004 2.75644 5.17955ZM13.584 14.7913C15.5055 14.7145 17.317 14.3929 18.6659 12.921C19.13 12.4154 19.4611 11.8611 19.6966 11.2724C19.4598 11.861 19.1267 12.4153 18.6608 12.9208C17.317 14.3927 15.5043 14.7143 13.584 14.7911C13.5853 14.2738 13.6189 13.7878 13.6834 13.3327C13.6188 13.7878 13.5853 14.2739 13.584 14.7913ZM20.2301 8.53552C20.2372 8.40335 20.2427 8.27064 20.2467 8.13751C20.2463 8.13751 20.2459 8.13751 20.2455 8.13751C20.2419 8.27064 20.2368 8.40335 20.2301 8.53552Z" fill="#306DDE"/>
<path d="M12.6426 19.3926C12.6426 19.6687 12.8664 19.8926 13.1426 19.8926C13.4187 19.8926 13.6426 19.6687 13.6426 19.3926L12.6426 19.3926ZM12.6426 14.3926L12.6426 19.3926L13.6426 19.3926L13.6426 14.3926L12.6426 14.3926Z" fill="#306DDE"/>
</svg>
