<svg width="178" height="178" viewBox="0 0 178 178" fill="none" xmlns="http://www.w3.org/2000/svg">
<g clip-path="url(#clip0_150_6710)">
<path d="M174 6H6V174H174V6Z" fill="white"/>
<path d="M51.0741 14.1953H46.9766V18.2929H51.0741V14.1953Z" fill="black"/>
<path d="M55.1718 14.1953H51.0742V18.2929H55.1718V14.1953Z" fill="black"/>
<path d="M59.2694 14.1953H55.1719V18.2929H59.2694V14.1953Z" fill="black"/>
<path d="M71.5605 14.1953H67.4629V18.2929H71.5605V14.1953Z" fill="black"/>
<path d="M75.6601 14.1953H71.5625V18.2929H75.6601V14.1953Z" fill="black"/>
<path d="M87.9511 14.1953H83.8535V18.2929H87.9511V14.1953Z" fill="black"/>
<path d="M92.0468 14.1953H87.9492V18.2929H92.0468V14.1953Z" fill="black"/>
<path d="M96.1483 14.1953H92.0508V18.2929H96.1483V14.1953Z" fill="black"/>
<path d="M104.342 14.1953H100.244V18.2929H104.342V14.1953Z" fill="black"/>
<path d="M112.537 14.1953H108.439V18.2929H112.537V14.1953Z" fill="black"/>
<path d="M116.635 14.1953H112.537V18.2929H116.635V14.1953Z" fill="black"/>
<path d="M124.83 14.1953H120.732V18.2929H124.83V14.1953Z" fill="black"/>
<path d="M51.0741 18.291H46.9766V22.3886H51.0741V18.291Z" fill="black"/>
<path d="M55.1718 18.291H51.0742V22.3886H55.1718V18.291Z" fill="black"/>
<path d="M63.3651 18.291H59.2676V22.3886H63.3651V18.291Z" fill="black"/>
<path d="M67.4647 18.291H63.3672V22.3886H67.4647V18.291Z" fill="black"/>
<path d="M79.7558 18.291H75.6582V22.3886H79.7558V18.291Z" fill="black"/>
<path d="M87.9511 18.291H83.8535V22.3886H87.9511V18.291Z" fill="black"/>
<path d="M92.0468 18.291H87.9492V22.3886H92.0468V18.291Z" fill="black"/>
<path d="M100.244 18.291H96.1465V22.3886H100.244V18.291Z" fill="black"/>
<path d="M104.342 18.291H100.244V22.3886H104.342V18.291Z" fill="black"/>
<path d="M133.023 18.291H128.926V22.3886H133.023V18.291Z" fill="black"/>
<path d="M51.0741 22.3906H46.9766V26.4882H51.0741V22.3906Z" fill="black"/>
<path d="M59.2694 22.3906H55.1719V26.4882H59.2694V22.3906Z" fill="black"/>
<path d="M63.3651 22.3906H59.2676V26.4882H63.3651V22.3906Z" fill="black"/>
<path d="M75.6601 22.3906H71.5625V26.4882H75.6601V22.3906Z" fill="black"/>
<path d="M83.8554 22.3906H79.7578V26.4882H83.8554V22.3906Z" fill="black"/>
<path d="M100.244 22.3906H96.1465V26.4882H100.244V22.3906Z" fill="black"/>
<path d="M104.342 22.3906H100.244V26.4882H104.342V22.3906Z" fill="black"/>
<path d="M116.633 22.3906H112.535V26.4882H116.633V22.3906Z" fill="black"/>
<path d="M120.732 22.3906H116.635V26.4882H120.732V22.3906Z" fill="black"/>
<path d="M124.83 22.3906H120.732V26.4882H124.83V22.3906Z" fill="black"/>
<path d="M128.928 22.3906H124.83V26.4882H128.928V22.3906Z" fill="black"/>
<path d="M67.4647 26.4883H63.3672V30.5858H67.4647V26.4883Z" fill="black"/>
<path d="M71.5605 26.4883H67.4629V30.5858H71.5605V26.4883Z" fill="black"/>
<path d="M79.7558 26.4883H75.6582V30.5858H79.7558V26.4883Z" fill="black"/>
<path d="M83.8554 26.4883H79.7578V30.5858H83.8554V26.4883Z" fill="black"/>
<path d="M87.9511 26.4863H83.8535V30.5839H87.9511V26.4863Z" fill="black"/>
<path d="M92.0468 26.4883H87.9492V30.5858H92.0468V26.4883Z" fill="black"/>
<path d="M96.1483 26.4883H92.0508V30.5858H96.1483V26.4883Z" fill="black"/>
<path d="M104.342 26.4883H100.244V30.5858H104.342V26.4883Z" fill="black"/>
<path d="M120.732 26.4883H116.635V30.5858H120.732V26.4883Z" fill="black"/>
<path d="M133.023 26.4883H128.926V30.5858H133.023V26.4883Z" fill="black"/>
<path d="M51.0741 30.5859H46.9766V34.6835H51.0741V30.5859Z" fill="black"/>
<path d="M55.1718 30.5859H51.0742V34.6835H55.1718V30.5859Z" fill="black"/>
<path d="M63.3651 30.5859H59.2676V34.6835H63.3651V30.5859Z" fill="black"/>
<path d="M67.4647 30.5859H63.3672V34.6835H67.4647V30.5859Z" fill="black"/>
<path d="M71.5605 30.5859H67.4629V34.6835H71.5605V30.5859Z" fill="black"/>
<path d="M75.6601 30.5859H71.5625V34.6835H75.6601V30.5859Z" fill="black"/>
<path d="M79.7558 30.5859H75.6582V34.6835H79.7558V30.5859Z" fill="black"/>
<path d="M87.9511 30.5859H83.8535V34.6835H87.9511V30.5859Z" fill="black"/>
<path d="M92.0468 30.5859H87.9492V34.6835H92.0468V30.5859Z" fill="black"/>
<path d="M96.1483 30.5859H92.0508V34.6835H96.1483V30.5859Z" fill="black"/>
<path d="M108.437 30.5859H104.34V34.6835H108.437V30.5859Z" fill="black"/>
<path d="M124.83 30.5859H120.732V34.6835H124.83V30.5859Z" fill="black"/>
<path d="M133.023 30.5859H128.926V34.6835H133.023V30.5859Z" fill="black"/>
<path d="M55.1718 34.6816H51.0742V38.7792H55.1718V34.6816Z" fill="black"/>
<path d="M67.4647 34.6816H63.3672V38.7792H67.4647V34.6816Z" fill="black"/>
<path d="M79.7558 34.6816H75.6582V38.7792H79.7558V34.6816Z" fill="black"/>
<path d="M87.9511 34.6816H83.8535V38.7792H87.9511V34.6816Z" fill="black"/>
<path d="M92.0468 34.6816H87.9492V38.7792H92.0468V34.6816Z" fill="black"/>
<path d="M104.342 34.6816H100.244V38.7792H104.342V34.6816Z" fill="black"/>
<path d="M112.537 34.6816H108.439V38.7792H112.537V34.6816Z" fill="black"/>
<path d="M120.732 34.6816H116.635V38.7792H120.732V34.6816Z" fill="black"/>
<path d="M51.0741 38.7812H46.9766V42.8788H51.0741V38.7812Z" fill="black"/>
<path d="M59.2694 38.7812H55.1719V42.8788H59.2694V38.7812Z" fill="black"/>
<path d="M67.4647 38.7812H63.3672V42.8788H67.4647V38.7812Z" fill="black"/>
<path d="M75.6601 38.7812H71.5625V42.8788H75.6601V38.7812Z" fill="black"/>
<path d="M83.8554 38.7812H79.7578V42.8788H83.8554V38.7812Z" fill="black"/>
<path d="M92.0468 38.7812H87.9492V42.8788H92.0468V38.7812Z" fill="black"/>
<path d="M100.244 38.7812H96.1465V42.8788H100.244V38.7812Z" fill="black"/>
<path d="M108.437 38.7812H104.34V42.8788H108.437V38.7812Z" fill="black"/>
<path d="M116.633 38.7812H112.535V42.8788H116.633V38.7812Z" fill="black"/>
<path d="M124.83 38.7812H120.732V42.8788H124.83V38.7812Z" fill="black"/>
<path d="M133.023 38.7812H128.926V42.8788H133.023V38.7812Z" fill="black"/>
<path d="M55.1718 42.877H51.0742V46.9745H55.1718V42.877Z" fill="black"/>
<path d="M71.5605 42.877H67.4629V46.9745H71.5605V42.877Z" fill="black"/>
<path d="M75.6601 42.877H71.5625V46.9745H75.6601V42.877Z" fill="black"/>
<path d="M79.7558 42.877H75.6582V46.9745H79.7558V42.877Z" fill="black"/>
<path d="M83.8554 42.877H79.7578V46.9745H83.8554V42.877Z" fill="black"/>
<path d="M96.1483 42.877H92.0508V46.9745H96.1483V42.877Z" fill="black"/>
<path d="M100.244 42.877H96.1465V46.9745H100.244V42.877Z" fill="black"/>
<path d="M104.342 42.877H100.244V46.9745H104.342V42.877Z" fill="black"/>
<path d="M112.537 42.877H108.439V46.9745H112.537V42.877Z" fill="black"/>
<path d="M120.732 42.877H116.635V46.9745H120.732V42.877Z" fill="black"/>
<path d="M124.83 42.877H120.732V46.9745H124.83V42.877Z" fill="black"/>
<path d="M128.928 42.877H124.83V46.9745H128.928V42.877Z" fill="black"/>
<path d="M133.023 42.877H128.926V46.9745H133.023V42.877Z" fill="black"/>
<path d="M18.2929 46.9766H14.1953V51.0741H18.2929V46.9766Z" fill="black"/>
<path d="M30.5858 46.9766H26.4883V51.0741H30.5858V46.9766Z" fill="black"/>
<path d="M34.6835 46.9766H30.5859V51.0741H34.6835V46.9766Z" fill="black"/>
<path d="M38.7792 46.9766H34.6816V51.0741H38.7792V46.9766Z" fill="black"/>
<path d="M42.8788 46.9766H38.7812V51.0741H42.8788V46.9766Z" fill="black"/>
<path d="M46.9745 46.9766H42.877V51.0741H46.9745V46.9766Z" fill="black"/>
<path d="M51.0741 46.9766H46.9766V51.0741H51.0741V46.9766Z" fill="black"/>
<path d="M55.1718 46.9766H51.0742V51.0741H55.1718V46.9766Z" fill="black"/>
<path d="M59.2694 46.9766H55.1719V51.0741H59.2694V46.9766Z" fill="black"/>
<path d="M63.3651 46.9766H59.2676V51.0741H63.3651V46.9766Z" fill="black"/>
<path d="M67.4647 46.9766H63.3672V51.0741H67.4647V46.9766Z" fill="black"/>
<path d="M83.8554 46.9766H79.7578V51.0741H83.8554V46.9766Z" fill="black"/>
<path d="M92.0468 46.9766H87.9492V51.0741H92.0468V46.9766Z" fill="black"/>
<path d="M96.1483 46.9766H92.0508V51.0741H96.1483V46.9766Z" fill="black"/>
<path d="M100.244 46.9766H96.1465V51.0741H100.244V46.9766Z" fill="black"/>
<path d="M104.342 46.9766H100.244V51.0741H104.342V46.9766Z" fill="black"/>
<path d="M112.537 46.9766H108.439V51.0741H112.537V46.9766Z" fill="black"/>
<path d="M116.633 46.9766H112.535V51.0741H116.633V46.9766Z" fill="black"/>
<path d="M137.121 46.9766H133.023V51.0741H137.121V46.9766Z" fill="black"/>
<path d="M149.414 46.9766H145.316V51.0741H149.414V46.9766Z" fill="black"/>
<path d="M157.609 46.9766H153.512V51.0741H157.609V46.9766Z" fill="black"/>
<path d="M161.709 46.9766H157.611V51.0741H161.709V46.9766Z" fill="black"/>
<path d="M165.807 46.9766H161.709V51.0741H165.807V46.9766Z" fill="black"/>
<path d="M18.2929 51.0742H14.1953V55.1718H18.2929V51.0742Z" fill="black"/>
<path d="M26.4882 51.0742H22.3906V55.1718H26.4882V51.0742Z" fill="black"/>
<path d="M38.7792 51.0742H34.6816V55.1718H38.7792V51.0742Z" fill="black"/>
<path d="M46.9745 51.0742H42.877V55.1718H46.9745V51.0742Z" fill="black"/>
<path d="M51.0741 51.0742H46.9766V55.1718H51.0741V51.0742Z" fill="black"/>
<path d="M59.2694 51.0742H55.1719V55.1718H59.2694V51.0742Z" fill="black"/>
<path d="M67.4647 51.0742H63.3672V55.1718H67.4647V51.0742Z" fill="black"/>
<path d="M87.9511 51.0742H83.8535V55.1718H87.9511V51.0742Z" fill="black"/>
<path d="M100.244 51.0742H96.1465V55.1718H100.244V51.0742Z" fill="black"/>
<path d="M108.437 51.0742H104.34V55.1718H108.437V51.0742Z" fill="black"/>
<path d="M124.83 51.0742H120.732V55.1718H124.83V51.0742Z" fill="black"/>
<path d="M128.928 51.0742H124.83V55.1718H128.928V51.0742Z" fill="black"/>
<path d="M137.121 51.0742H133.023V55.1718H137.121V51.0742Z" fill="black"/>
<path d="M145.318 51.0742H141.221V55.1718H145.318V51.0742Z" fill="black"/>
<path d="M149.414 51.0742H145.316V55.1718H149.414V51.0742Z" fill="black"/>
<path d="M153.514 51.0742H149.416V55.1718H153.514V51.0742Z" fill="black"/>
<path d="M157.609 51.0742H153.512V55.1718H157.609V51.0742Z" fill="black"/>
<path d="M161.709 51.0742H157.611V55.1718H161.709V51.0742Z" fill="black"/>
<path d="M26.4882 55.1719H22.3906V59.2694H26.4882V55.1719Z" fill="black"/>
<path d="M30.5839 55.1719H26.4863V59.2694H30.5839V55.1719Z" fill="black"/>
<path d="M34.6835 55.1719H30.5859V59.2694H34.6835V55.1719Z" fill="black"/>
<path d="M42.8788 55.1719H38.7812V59.2694H42.8788V55.1719Z" fill="black"/>
<path d="M55.1718 55.1719H51.0742V59.2694H55.1718V55.1719Z" fill="black"/>
<path d="M59.2694 55.1719H55.1719V59.2694H59.2694V55.1719Z" fill="black"/>
<path d="M67.4647 55.1719H63.3672V59.2694H67.4647V55.1719Z" fill="black"/>
<path d="M71.5605 55.1719H67.4629V59.2694H71.5605V55.1719Z" fill="black"/>
<path d="M104.342 55.1719H100.244V59.2694H104.342V55.1719Z" fill="black"/>
<path d="M108.437 55.1719H104.34V59.2694H108.437V55.1719Z" fill="black"/>
<path d="M116.635 55.1719H112.537V59.2694H116.635V55.1719Z" fill="black"/>
<path d="M120.732 55.1719H116.635V59.2694H120.732V55.1719Z" fill="black"/>
<path d="M128.928 55.1719H124.83V59.2694H128.928V55.1719Z" fill="black"/>
<path d="M137.121 55.1719H133.023V59.2694H137.121V55.1719Z" fill="black"/>
<path d="M141.221 55.1719H137.123V59.2694H141.221V55.1719Z" fill="black"/>
<path d="M149.414 55.1719H145.316V59.2694H149.414V55.1719Z" fill="black"/>
<path d="M153.514 55.1719H149.416V59.2694H153.514V55.1719Z" fill="black"/>
<path d="M165.807 55.1719H161.709V59.2694H165.807V55.1719Z" fill="black"/>
<path d="M26.4882 59.2676H22.3906V63.3651H26.4882V59.2676Z" fill="black"/>
<path d="M34.6835 59.2676H30.5859V63.3651H34.6835V59.2676Z" fill="black"/>
<path d="M46.9745 59.2676H42.877V63.3651H46.9745V59.2676Z" fill="black"/>
<path d="M55.1718 59.2676H51.0742V63.3651H55.1718V59.2676Z" fill="black"/>
<path d="M59.2694 59.2676H55.1719V63.3651H59.2694V59.2676Z" fill="black"/>
<path d="M67.4647 59.2676H63.3672V63.3651H67.4647V59.2676Z" fill="black"/>
<path d="M75.6601 59.2676H71.5625V63.3651H75.6601V59.2676Z" fill="black"/>
<path d="M79.7558 59.2676H75.6582V63.3651H79.7558V59.2676Z" fill="black"/>
<path d="M87.9511 59.2676H83.8535V63.3651H87.9511V59.2676Z" fill="black"/>
<path d="M108.437 59.2676H104.34V63.3651H108.437V59.2676Z" fill="black"/>
<path d="M124.83 59.2676H120.732V63.3651H124.83V59.2676Z" fill="black"/>
<path d="M133.023 59.2676H128.926V63.3651H133.023V59.2676Z" fill="black"/>
<path d="M137.121 59.2676H133.023V63.3651H137.121V59.2676Z" fill="black"/>
<path d="M141.221 59.2676H137.123V63.3651H141.221V59.2676Z" fill="black"/>
<path d="M145.318 59.2676H141.221V63.3651H145.318V59.2676Z" fill="black"/>
<path d="M157.609 59.2676H153.512V63.3651H157.609V59.2676Z" fill="black"/>
<path d="M161.709 59.2676H157.611V63.3651H161.709V59.2676Z" fill="black"/>
<path d="M165.807 59.2676H161.709V63.3651H165.807V59.2676Z" fill="black"/>
<path d="M18.2929 63.3672H14.1953V67.4647H18.2929V63.3672Z" fill="black"/>
<path d="M26.4882 63.3672H22.3906V67.4647H26.4882V63.3672Z" fill="black"/>
<path d="M30.5858 63.3672H26.4883V67.4647H30.5858V63.3672Z" fill="black"/>
<path d="M42.8788 63.3672H38.7812V67.4647H42.8788V63.3672Z" fill="black"/>
<path d="M55.1718 63.3672H51.0742V67.4647H55.1718V63.3672Z" fill="black"/>
<path d="M63.3651 63.3672H59.2676V67.4647H63.3651V63.3672Z" fill="black"/>
<path d="M67.4647 63.3672H63.3672V67.4647H67.4647V63.3672Z" fill="black"/>
<path d="M71.5605 63.3672H67.4629V67.4647H71.5605V63.3672Z" fill="black"/>
<path d="M75.6601 63.3672H71.5625V67.4647H75.6601V63.3672Z" fill="black"/>
<path d="M96.1483 63.3672H92.0508V67.4647H96.1483V63.3672Z" fill="black"/>
<path d="M116.633 63.3672H112.535V67.4647H116.633V63.3672Z" fill="black"/>
<path d="M133.023 63.3672H128.926V67.4647H133.023V63.3672Z" fill="black"/>
<path d="M141.221 63.3672H137.123V67.4647H141.221V63.3672Z" fill="black"/>
<path d="M165.807 63.3672H161.709V67.4647H165.807V63.3672Z" fill="black"/>
<path d="M26.4882 67.4629H22.3906V71.5605H26.4882V67.4629Z" fill="black"/>
<path d="M30.5858 67.4629H26.4883V71.5605H30.5858V67.4629Z" fill="black"/>
<path d="M34.6835 67.4629H30.5859V71.5605H34.6835V67.4629Z" fill="black"/>
<path d="M38.7792 67.4629H34.6816V71.5605H38.7792V67.4629Z" fill="black"/>
<path d="M55.1718 67.4629H51.0742V71.5605H55.1718V67.4629Z" fill="black"/>
<path d="M59.2694 67.4629H55.1719V71.5605H59.2694V67.4629Z" fill="black"/>
<path d="M63.3651 67.4629H59.2676V71.5605H63.3651V67.4629Z" fill="black"/>
<path d="M71.5605 67.4629H67.4629V71.5605H71.5605V67.4629Z" fill="black"/>
<path d="M79.7558 67.4629H75.6582V71.5605H79.7558V67.4629Z" fill="black"/>
<path d="M83.8554 67.4629H79.7578V71.5605H83.8554V67.4629Z" fill="black"/>
<path d="M87.9511 67.4629H83.8535V71.5605H87.9511V67.4629Z" fill="black"/>
<path d="M92.0468 67.4629H87.9492V71.5605H92.0468V67.4629Z" fill="black"/>
<path d="M112.537 67.4629H108.439V71.5605H112.537V67.4629Z" fill="black"/>
<path d="M116.633 67.4629H112.535V71.5605H116.633V67.4629Z" fill="black"/>
<path d="M120.732 67.4629H116.635V71.5605H120.732V67.4629Z" fill="black"/>
<path d="M124.83 67.4629H120.732V71.5605H124.83V67.4629Z" fill="black"/>
<path d="M128.928 67.4629H124.83V71.5605H128.928V67.4629Z" fill="black"/>
<path d="M133.023 67.4629H128.926V71.5605H133.023V67.4629Z" fill="black"/>
<path d="M149.414 67.4629H145.316V71.5605H149.414V67.4629Z" fill="black"/>
<path d="M153.514 67.4629H149.416V71.5605H153.514V67.4629Z" fill="black"/>
<path d="M18.2929 71.5625H14.1953V75.6601H18.2929V71.5625Z" fill="black"/>
<path d="M22.3886 71.5625H18.291V75.6601H22.3886V71.5625Z" fill="black"/>
<path d="M30.5839 71.5625H26.4863V75.6601H30.5839V71.5625Z" fill="black"/>
<path d="M34.6835 71.5625H30.5859V75.6601H34.6835V71.5625Z" fill="black"/>
<path d="M38.7792 71.5625H34.6816V75.6601H38.7792V71.5625Z" fill="black"/>
<path d="M42.8788 71.5625H38.7812V75.6601H42.8788V71.5625Z" fill="black"/>
<path d="M59.2694 71.5625H55.1719V75.6601H59.2694V71.5625Z" fill="black"/>
<path d="M63.3651 71.5625H59.2676V75.6601H63.3651V71.5625Z" fill="black"/>
<path d="M67.4647 71.5625H63.3672V75.6601H67.4647V71.5625Z" fill="black"/>
<path d="M71.5605 71.5625H67.4629V75.6601H71.5605V71.5625Z" fill="black"/>
<path d="M75.6601 71.5625H71.5625V75.6601H75.6601V71.5625Z" fill="black"/>
<path d="M79.7558 71.5625H75.6582V75.6601H79.7558V71.5625Z" fill="black"/>
<path d="M83.8554 71.5625H79.7578V75.6601H83.8554V71.5625Z" fill="black"/>
<path d="M87.9511 71.5625H83.8535V75.6601H87.9511V71.5625Z" fill="black"/>
<path d="M96.1483 71.5625H92.0508V75.6601H96.1483V71.5625Z" fill="black"/>
<path d="M104.342 71.5625H100.244V75.6601H104.342V71.5625Z" fill="black"/>
<path d="M108.437 71.5625H104.34V75.6601H108.437V71.5625Z" fill="black"/>
<path d="M124.83 71.5625H120.732V75.6601H124.83V71.5625Z" fill="black"/>
<path d="M128.928 71.5625H124.83V75.6601H128.928V71.5625Z" fill="black"/>
<path d="M141.221 71.5625H137.123V75.6601H141.221V71.5625Z" fill="black"/>
<path d="M149.414 71.5625H145.316V75.6601H149.414V71.5625Z" fill="black"/>
<path d="M153.514 71.5625H149.416V75.6601H153.514V71.5625Z" fill="black"/>
<path d="M157.609 71.5625H153.512V75.6601H157.609V71.5625Z" fill="black"/>
<path d="M161.709 71.5625H157.611V75.6601H161.709V71.5625Z" fill="black"/>
<path d="M165.807 71.5625H161.709V75.6601H165.807V71.5625Z" fill="black"/>
<path d="M18.2929 75.6582H14.1953V79.7558H18.2929V75.6582Z" fill="black"/>
<path d="M22.3886 75.6582H18.291V79.7558H22.3886V75.6582Z" fill="black"/>
<path d="M34.6835 75.6582H30.5859V79.7558H34.6835V75.6582Z" fill="black"/>
<path d="M46.9745 75.6582H42.877V79.7558H46.9745V75.6582Z" fill="black"/>
<path d="M59.2694 75.6582H55.1719V79.7558H59.2694V75.6582Z" fill="black"/>
<path d="M71.5605 75.6582H67.4629V79.7558H71.5605V75.6582Z" fill="black"/>
<path d="M87.9511 75.6582H83.8535V79.7558H87.9511V75.6582Z" fill="black"/>
<path d="M92.0468 75.6582H87.9492V79.7558H92.0468V75.6582Z" fill="black"/>
<path d="M100.244 75.6582H96.1465V79.7558H100.244V75.6582Z" fill="black"/>
<path d="M124.83 75.6582H120.732V79.7558H124.83V75.6582Z" fill="black"/>
<path d="M128.928 75.6582H124.83V79.7558H128.928V75.6582Z" fill="black"/>
<path d="M145.318 75.6582H141.221V79.7558H145.318V75.6582Z" fill="black"/>
<path d="M153.514 75.6582H149.416V79.7558H153.514V75.6582Z" fill="black"/>
<path d="M157.609 75.6582H153.512V79.7558H157.609V75.6582Z" fill="black"/>
<path d="M161.709 75.6582H157.611V79.7558H161.709V75.6582Z" fill="black"/>
<path d="M165.807 75.6582H161.709V79.7558H165.807V75.6582Z" fill="black"/>
<path d="M34.6835 79.7578H30.5859V83.8554H34.6835V79.7578Z" fill="black"/>
<path d="M42.8788 79.7578H38.7812V83.8554H42.8788V79.7578Z" fill="black"/>
<path d="M46.9745 79.7578H42.877V83.8554H46.9745V79.7578Z" fill="black"/>
<path d="M51.0741 79.7578H46.9766V83.8554H51.0741V79.7578Z" fill="black"/>
<path d="M55.1718 79.7578H51.0742V83.8554H55.1718V79.7578Z" fill="black"/>
<path d="M83.8554 79.7578H79.7578V83.8554H83.8554V79.7578Z" fill="black"/>
<path d="M87.9511 79.7578H83.8535V83.8554H87.9511V79.7578Z" fill="black"/>
<path d="M100.244 79.7578H96.1465V83.8554H100.244V79.7578Z" fill="black"/>
<path d="M104.342 79.7578H100.244V83.8554H104.342V79.7578Z" fill="black"/>
<path d="M116.633 79.7578H112.535V83.8554H116.633V79.7578Z" fill="black"/>
<path d="M120.732 79.7578H116.635V83.8554H120.732V79.7578Z" fill="black"/>
<path d="M128.928 79.7578H124.83V83.8554H128.928V79.7578Z" fill="black"/>
<path d="M141.221 79.7578H137.123V83.8554H141.221V79.7578Z" fill="black"/>
<path d="M145.318 79.7578H141.221V83.8554H145.318V79.7578Z" fill="black"/>
<path d="M157.609 79.7578H153.512V83.8554H157.609V79.7578Z" fill="black"/>
<path d="M161.709 79.7578H157.611V83.8554H161.709V79.7578Z" fill="black"/>
<path d="M18.2929 83.8535H14.1953V87.9511H18.2929V83.8535Z" fill="black"/>
<path d="M22.3886 83.8535H18.291V87.9511H22.3886V83.8535Z" fill="black"/>
<path d="M26.4882 83.8535H22.3906V87.9511H26.4882V83.8535Z" fill="black"/>
<path d="M34.6835 83.8535H30.5859V87.9511H34.6835V83.8535Z" fill="black"/>
<path d="M38.7792 83.8535H34.6816V87.9511H38.7792V83.8535Z" fill="black"/>
<path d="M51.0741 83.8535H46.9766V87.9511H51.0741V83.8535Z" fill="black"/>
<path d="M55.1718 83.8535H51.0742V87.9511H55.1718V83.8535Z" fill="black"/>
<path d="M59.2694 83.8535H55.1719V87.9511H59.2694V83.8535Z" fill="black"/>
<path d="M63.3651 83.8535H59.2676V87.9511H63.3651V83.8535Z" fill="black"/>
<path d="M75.6601 83.8535H71.5625V87.9511H75.6601V83.8535Z" fill="black"/>
<path d="M83.8554 83.8535H79.7578V87.9511H83.8554V83.8535Z" fill="black"/>
<path d="M87.9511 83.8535H83.8535V87.9511H87.9511V83.8535Z" fill="black"/>
<path d="M92.0468 83.8535H87.9492V87.9511H92.0468V83.8535Z" fill="black"/>
<path d="M100.244 83.8535H96.1465V87.9511H100.244V83.8535Z" fill="black"/>
<path d="M104.342 83.8535H100.244V87.9511H104.342V83.8535Z" fill="black"/>
<path d="M112.537 83.8535H108.439V87.9511H112.537V83.8535Z" fill="black"/>
<path d="M116.635 83.8535H112.537V87.9511H116.635V83.8535Z" fill="black"/>
<path d="M120.732 83.8535H116.635V87.9511H120.732V83.8535Z" fill="black"/>
<path d="M128.928 83.8535H124.83V87.9511H128.928V83.8535Z" fill="black"/>
<path d="M137.121 83.8535H133.023V87.9511H137.121V83.8535Z" fill="black"/>
<path d="M145.318 83.8535H141.221V87.9511H145.318V83.8535Z" fill="black"/>
<path d="M153.514 83.8535H149.416V87.9511H153.514V83.8535Z" fill="black"/>
<path d="M18.2929 87.9492H14.1953V92.0468H18.2929V87.9492Z" fill="black"/>
<path d="M26.4882 87.9492H22.3906V92.0468H26.4882V87.9492Z" fill="black"/>
<path d="M30.5858 87.9492H26.4883V92.0468H30.5858V87.9492Z" fill="black"/>
<path d="M34.6835 87.9492H30.5859V92.0468H34.6835V87.9492Z" fill="black"/>
<path d="M42.8788 87.9492H38.7812V92.0468H42.8788V87.9492Z" fill="black"/>
<path d="M51.0741 87.9492H46.9766V92.0468H51.0741V87.9492Z" fill="black"/>
<path d="M55.1718 87.9492H51.0742V92.0468H55.1718V87.9492Z" fill="black"/>
<path d="M63.3651 87.9492H59.2676V92.0468H63.3651V87.9492Z" fill="black"/>
<path d="M67.4647 87.9492H63.3672V92.0468H67.4647V87.9492Z" fill="black"/>
<path d="M71.5605 87.9492H67.4629V92.0468H71.5605V87.9492Z" fill="black"/>
<path d="M75.6601 87.9492H71.5625V92.0468H75.6601V87.9492Z" fill="black"/>
<path d="M79.7558 87.9492H75.6582V92.0468H79.7558V87.9492Z" fill="black"/>
<path d="M87.9511 87.9492H83.8535V92.0468H87.9511V87.9492Z" fill="black"/>
<path d="M100.244 87.9492H96.1465V92.0468H100.244V87.9492Z" fill="black"/>
<path d="M112.537 87.9492H108.439V92.0468H112.537V87.9492Z" fill="black"/>
<path d="M120.732 87.9492H116.635V92.0468H120.732V87.9492Z" fill="black"/>
<path d="M128.928 87.9492H124.83V92.0468H128.928V87.9492Z" fill="black"/>
<path d="M133.023 87.9492H128.926V92.0468H133.023V87.9492Z" fill="black"/>
<path d="M145.318 87.9492H141.221V92.0468H145.318V87.9492Z" fill="black"/>
<path d="M157.609 87.9492H153.512V92.0468H157.609V87.9492Z" fill="black"/>
<path d="M165.807 87.9492H161.709V92.0468H165.807V87.9492Z" fill="black"/>
<path d="M18.2929 92.0508H14.1953V96.1483H18.2929V92.0508Z" fill="black"/>
<path d="M30.5858 92.0508H26.4883V96.1483H30.5858V92.0508Z" fill="black"/>
<path d="M34.6835 92.0508H30.5859V96.1483H34.6835V92.0508Z" fill="black"/>
<path d="M38.7792 92.0508H34.6816V96.1483H38.7792V92.0508Z" fill="black"/>
<path d="M46.9745 92.0508H42.877V96.1483H46.9745V92.0508Z" fill="black"/>
<path d="M51.0741 92.0508H46.9766V96.1483H51.0741V92.0508Z" fill="black"/>
<path d="M71.5605 92.0508H67.4629V96.1483H71.5605V92.0508Z" fill="black"/>
<path d="M75.6601 92.0508H71.5625V96.1483H75.6601V92.0508Z" fill="black"/>
<path d="M92.0468 92.0508H87.9492V96.1483H92.0468V92.0508Z" fill="black"/>
<path d="M108.437 92.0508H104.34V96.1483H108.437V92.0508Z" fill="black"/>
<path d="M120.732 92.0508H116.635V96.1483H120.732V92.0508Z" fill="black"/>
<path d="M124.83 92.0508H120.732V96.1483H124.83V92.0508Z" fill="black"/>
<path d="M133.023 92.0508H128.926V96.1483H133.023V92.0508Z" fill="black"/>
<path d="M141.221 92.0508H137.123V96.1483H141.221V92.0508Z" fill="black"/>
<path d="M153.514 92.0508H149.416V96.1483H153.514V92.0508Z" fill="black"/>
<path d="M165.807 92.0508H161.709V96.1483H165.807V92.0508Z" fill="black"/>
<path d="M18.2929 96.1465H14.1953V100.244H18.2929V96.1465Z" fill="black"/>
<path d="M22.3886 96.1465H18.291V100.244H22.3886V96.1465Z" fill="black"/>
<path d="M42.8788 96.1465H38.7812V100.244H42.8788V96.1465Z" fill="black"/>
<path d="M46.9745 96.1465H42.877V100.244H46.9745V96.1465Z" fill="black"/>
<path d="M51.0741 96.1465H46.9766V100.244H51.0741V96.1465Z" fill="black"/>
<path d="M55.1718 96.1465H51.0742V100.244H55.1718V96.1465Z" fill="black"/>
<path d="M75.6601 96.1465H71.5625V100.244H75.6601V96.1465Z" fill="black"/>
<path d="M79.7558 96.1465H75.6582V100.244H79.7558V96.1465Z" fill="black"/>
<path d="M83.8554 96.1465H79.7578V100.244H83.8554V96.1465Z" fill="black"/>
<path d="M87.9511 96.1465H83.8535V100.244H87.9511V96.1465Z" fill="black"/>
<path d="M100.244 96.1465H96.1465V100.244H100.244V96.1465Z" fill="black"/>
<path d="M116.633 96.1465H112.535V100.244H116.633V96.1465Z" fill="black"/>
<path d="M124.83 96.1465H120.732V100.244H124.83V96.1465Z" fill="black"/>
<path d="M133.023 96.1465H128.926V100.244H133.023V96.1465Z" fill="black"/>
<path d="M137.121 96.1465H133.023V100.244H137.121V96.1465Z" fill="black"/>
<path d="M141.221 96.1465H137.123V100.244H141.221V96.1465Z" fill="black"/>
<path d="M145.318 96.1465H141.221V100.244H145.318V96.1465Z" fill="black"/>
<path d="M149.414 96.1465H145.316V100.244H149.414V96.1465Z" fill="black"/>
<path d="M153.514 96.1465H149.416V100.244H153.514V96.1465Z" fill="black"/>
<path d="M18.2929 100.244H14.1953V104.342H18.2929V100.244Z" fill="black"/>
<path d="M22.3886 100.244H18.291V104.342H22.3886V100.244Z" fill="black"/>
<path d="M34.6835 100.244H30.5859V104.342H34.6835V100.244Z" fill="black"/>
<path d="M38.7792 100.244H34.6816V104.342H38.7792V100.244Z" fill="black"/>
<path d="M46.9745 100.244H42.877V104.342H46.9745V100.244Z" fill="black"/>
<path d="M59.2694 100.244H55.1719V104.342H59.2694V100.244Z" fill="black"/>
<path d="M63.3651 100.244H59.2676V104.342H63.3651V100.244Z" fill="black"/>
<path d="M67.4647 100.244H63.3672V104.342H67.4647V100.244Z" fill="black"/>
<path d="M71.5605 100.244H67.4629V104.342H71.5605V100.244Z" fill="black"/>
<path d="M79.7558 100.244H75.6582V104.342H79.7558V100.244Z" fill="black"/>
<path d="M92.0468 100.244H87.9492V104.342H92.0468V100.244Z" fill="black"/>
<path d="M96.1483 100.244H92.0508V104.342H96.1483V100.244Z" fill="black"/>
<path d="M104.342 100.244H100.244V104.342H104.342V100.244Z" fill="black"/>
<path d="M112.537 100.244H108.439V104.342H112.537V100.244Z" fill="black"/>
<path d="M120.732 100.244H116.635V104.342H120.732V100.244Z" fill="black"/>
<path d="M124.83 100.244H120.732V104.342H124.83V100.244Z" fill="black"/>
<path d="M128.928 100.244H124.83V104.342H128.928V100.244Z" fill="black"/>
<path d="M149.414 100.244H145.316V104.342H149.414V100.244Z" fill="black"/>
<path d="M157.609 100.244H153.512V104.342H157.609V100.244Z" fill="black"/>
<path d="M26.4882 104.34H22.3906V108.437H26.4882V104.34Z" fill="black"/>
<path d="M30.5858 104.34H26.4883V108.437H30.5858V104.34Z" fill="black"/>
<path d="M38.7792 104.34H34.6816V108.437H38.7792V104.34Z" fill="black"/>
<path d="M42.8788 104.34H38.7812V108.437H42.8788V104.34Z" fill="black"/>
<path d="M51.0741 104.34H46.9766V108.437H51.0741V104.34Z" fill="black"/>
<path d="M71.5605 104.34H67.4629V108.437H71.5605V104.34Z" fill="black"/>
<path d="M79.7558 104.34H75.6582V108.437H79.7558V104.34Z" fill="black"/>
<path d="M83.8554 104.34H79.7578V108.437H83.8554V104.34Z" fill="black"/>
<path d="M87.9511 104.34H83.8535V108.437H87.9511V104.34Z" fill="black"/>
<path d="M92.0468 104.34H87.9492V108.437H92.0468V104.34Z" fill="black"/>
<path d="M108.437 104.34H104.34V108.437H108.437V104.34Z" fill="black"/>
<path d="M112.537 104.34H108.439V108.437H112.537V104.34Z" fill="black"/>
<path d="M124.83 104.34H120.732V108.437H124.83V104.34Z" fill="black"/>
<path d="M128.928 104.34H124.83V108.437H128.928V104.34Z" fill="black"/>
<path d="M137.121 104.34H133.023V108.437H137.121V104.34Z" fill="black"/>
<path d="M141.221 104.34H137.123V108.437H141.221V104.34Z" fill="black"/>
<path d="M145.318 104.34H141.221V108.437H145.318V104.34Z" fill="black"/>
<path d="M153.514 104.34H149.416V108.437H153.514V104.34Z" fill="black"/>
<path d="M165.807 104.34H161.709V108.437H165.807V104.34Z" fill="black"/>
<path d="M18.2929 108.439H14.1953V112.537H18.2929V108.439Z" fill="black"/>
<path d="M34.6835 108.439H30.5859V112.537H34.6835V108.439Z" fill="black"/>
<path d="M38.7792 108.439H34.6816V112.537H38.7792V108.439Z" fill="black"/>
<path d="M46.9745 108.439H42.877V112.537H46.9745V108.439Z" fill="black"/>
<path d="M59.2694 108.439H55.1719V112.537H59.2694V108.439Z" fill="black"/>
<path d="M63.3651 108.439H59.2676V112.537H63.3651V108.439Z" fill="black"/>
<path d="M71.5605 108.439H67.4629V112.537H71.5605V108.439Z" fill="black"/>
<path d="M83.8554 108.439H79.7578V112.537H83.8554V108.439Z" fill="black"/>
<path d="M87.9511 108.439H83.8535V112.537H87.9511V108.439Z" fill="black"/>
<path d="M104.342 108.439H100.244V112.537H104.342V108.439Z" fill="black"/>
<path d="M108.437 108.439H104.34V112.537H108.437V108.439Z" fill="black"/>
<path d="M128.928 108.439H124.83V112.537H128.928V108.439Z" fill="black"/>
<path d="M141.221 108.439H137.123V112.537H141.221V108.439Z" fill="black"/>
<path d="M145.318 108.439H141.221V112.537H145.318V108.439Z" fill="black"/>
<path d="M149.414 108.439H145.316V112.537H149.414V108.439Z" fill="black"/>
<path d="M153.514 108.439H149.416V112.537H153.514V108.439Z" fill="black"/>
<path d="M157.609 108.439H153.512V112.537H157.609V108.439Z" fill="black"/>
<path d="M42.8788 112.535H38.7812V116.633H42.8788V112.535Z" fill="black"/>
<path d="M51.0741 112.535H46.9766V116.633H51.0741V112.535Z" fill="black"/>
<path d="M55.1718 112.535H51.0742V116.633H55.1718V112.535Z" fill="black"/>
<path d="M63.3651 112.535H59.2676V116.633H63.3651V112.535Z" fill="black"/>
<path d="M67.4647 112.535H63.3672V116.633H67.4647V112.535Z" fill="black"/>
<path d="M75.6601 112.537H71.5625V116.635H75.6601V112.537Z" fill="black"/>
<path d="M83.8554 112.535H79.7578V116.633H83.8554V112.535Z" fill="black"/>
<path d="M87.9511 112.537H83.8535V116.635H87.9511V112.537Z" fill="black"/>
<path d="M92.0468 112.535H87.9492V116.633H92.0468V112.535Z" fill="black"/>
<path d="M96.1483 112.535H92.0508V116.633H96.1483V112.535Z" fill="black"/>
<path d="M104.342 112.535H100.244V116.633H104.342V112.535Z" fill="black"/>
<path d="M133.023 112.535H128.926V116.633H133.023V112.535Z" fill="black"/>
<path d="M141.221 112.535H137.123V116.633H141.221V112.535Z" fill="black"/>
<path d="M145.318 112.537H141.221V116.635H145.318V112.537Z" fill="black"/>
<path d="M18.2929 116.635H14.1953V120.732H18.2929V116.635Z" fill="black"/>
<path d="M46.9745 116.635H42.877V120.732H46.9745V116.635Z" fill="black"/>
<path d="M55.1718 116.635H51.0742V120.732H55.1718V116.635Z" fill="black"/>
<path d="M59.2694 116.635H55.1719V120.732H59.2694V116.635Z" fill="black"/>
<path d="M63.3651 116.635H59.2676V120.732H63.3651V116.635Z" fill="black"/>
<path d="M75.6601 116.635H71.5625V120.732H75.6601V116.635Z" fill="black"/>
<path d="M83.8554 116.635H79.7578V120.732H83.8554V116.635Z" fill="black"/>
<path d="M96.1483 116.635H92.0508V120.732H96.1483V116.635Z" fill="black"/>
<path d="M100.244 116.635H96.1465V120.732H100.244V116.635Z" fill="black"/>
<path d="M112.537 116.635H108.439V120.732H112.537V116.635Z" fill="black"/>
<path d="M120.732 116.635H116.635V120.732H120.732V116.635Z" fill="black"/>
<path d="M124.83 116.635H120.732V120.732H124.83V116.635Z" fill="black"/>
<path d="M128.928 116.635H124.83V120.732H128.928V116.635Z" fill="black"/>
<path d="M133.023 116.635H128.926V120.732H133.023V116.635Z" fill="black"/>
<path d="M137.121 116.635H133.023V120.732H137.121V116.635Z" fill="black"/>
<path d="M145.318 116.635H141.221V120.732H145.318V116.635Z" fill="black"/>
<path d="M149.414 116.635H145.316V120.732H149.414V116.635Z" fill="black"/>
<path d="M18.2929 120.732H14.1953V124.83H18.2929V120.732Z" fill="black"/>
<path d="M22.3886 120.732H18.291V124.83H22.3886V120.732Z" fill="black"/>
<path d="M26.4882 120.732H22.3906V124.83H26.4882V120.732Z" fill="black"/>
<path d="M38.7792 120.732H34.6816V124.83H38.7792V120.732Z" fill="black"/>
<path d="M42.8788 120.732H38.7812V124.83H42.8788V120.732Z" fill="black"/>
<path d="M51.0741 120.732H46.9766V124.83H51.0741V120.732Z" fill="black"/>
<path d="M55.1718 120.732H51.0742V124.83H55.1718V120.732Z" fill="black"/>
<path d="M63.3651 120.732H59.2676V124.83H63.3651V120.732Z" fill="black"/>
<path d="M67.4647 120.732H63.3672V124.83H67.4647V120.732Z" fill="black"/>
<path d="M75.6601 120.732H71.5625V124.83H75.6601V120.732Z" fill="black"/>
<path d="M83.8554 120.732H79.7578V124.83H83.8554V120.732Z" fill="black"/>
<path d="M96.1483 120.732H92.0508V124.83H96.1483V120.732Z" fill="black"/>
<path d="M100.244 120.732H96.1465V124.83H100.244V120.732Z" fill="black"/>
<path d="M108.437 120.732H104.34V124.83H108.437V120.732Z" fill="black"/>
<path d="M116.633 120.732H112.535V124.83H116.633V120.732Z" fill="black"/>
<path d="M120.732 120.732H116.635V124.83H120.732V120.732Z" fill="black"/>
<path d="M124.83 120.732H120.732V124.83H124.83V120.732Z" fill="black"/>
<path d="M128.928 120.732H124.83V124.83H128.928V120.732Z" fill="black"/>
<path d="M141.221 120.732H137.123V124.83H141.221V120.732Z" fill="black"/>
<path d="M161.709 120.732H157.611V124.83H161.709V120.732Z" fill="black"/>
<path d="M165.807 120.732H161.709V124.83H165.807V120.732Z" fill="black"/>
<path d="M18.2929 124.83H14.1953V128.928H18.2929V124.83Z" fill="black"/>
<path d="M34.6835 124.83H30.5859V128.928H34.6835V124.83Z" fill="black"/>
<path d="M38.7792 124.83H34.6816V128.928H38.7792V124.83Z" fill="black"/>
<path d="M46.9745 124.83H42.877V128.928H46.9745V124.83Z" fill="black"/>
<path d="M55.1718 124.83H51.0742V128.928H55.1718V124.83Z" fill="black"/>
<path d="M63.3651 124.83H59.2676V128.928H63.3651V124.83Z" fill="black"/>
<path d="M67.4647 124.83H63.3672V128.928H67.4647V124.83Z" fill="black"/>
<path d="M75.6601 124.83H71.5625V128.928H75.6601V124.83Z" fill="black"/>
<path d="M79.7558 124.83H75.6582V128.928H79.7558V124.83Z" fill="black"/>
<path d="M100.244 124.83H96.1465V128.928H100.244V124.83Z" fill="black"/>
<path d="M108.437 124.83H104.34V128.928H108.437V124.83Z" fill="black"/>
<path d="M112.537 124.83H108.439V128.928H112.537V124.83Z" fill="black"/>
<path d="M116.635 124.83H112.537V128.928H116.635V124.83Z" fill="black"/>
<path d="M137.121 124.83H133.023V128.928H137.121V124.83Z" fill="black"/>
<path d="M141.221 124.83H137.123V128.928H141.221V124.83Z" fill="black"/>
<path d="M145.318 124.83H141.221V128.928H145.318V124.83Z" fill="black"/>
<path d="M153.514 124.83H149.416V128.928H153.514V124.83Z" fill="black"/>
<path d="M157.609 124.83H153.512V128.928H157.609V124.83Z" fill="black"/>
<path d="M161.709 124.83H157.611V128.928H161.709V124.83Z" fill="black"/>
<path d="M165.807 124.83H161.709V128.928H165.807V124.83Z" fill="black"/>
<path d="M18.2929 128.926H14.1953V133.023H18.2929V128.926Z" fill="black"/>
<path d="M30.5858 128.926H26.4883V133.023H30.5858V128.926Z" fill="black"/>
<path d="M38.7792 128.926H34.6816V133.023H38.7792V128.926Z" fill="black"/>
<path d="M42.8788 128.926H38.7812V133.023H42.8788V128.926Z" fill="black"/>
<path d="M46.9745 128.926H42.877V133.023H46.9745V128.926Z" fill="black"/>
<path d="M55.1718 128.926H51.0742V133.023H55.1718V128.926Z" fill="black"/>
<path d="M59.2694 128.926H55.1719V133.023H59.2694V128.926Z" fill="black"/>
<path d="M63.3651 128.926H59.2676V133.023H63.3651V128.926Z" fill="black"/>
<path d="M67.4647 128.926H63.3672V133.023H67.4647V128.926Z" fill="black"/>
<path d="M71.5605 128.926H67.4629V133.023H71.5605V128.926Z" fill="black"/>
<path d="M75.6601 128.926H71.5625V133.023H75.6601V128.926Z" fill="black"/>
<path d="M100.244 128.926H96.1465V133.023H100.244V128.926Z" fill="black"/>
<path d="M108.437 128.926H104.34V133.023H108.437V128.926Z" fill="black"/>
<path d="M112.537 128.926H108.439V133.023H112.537V128.926Z" fill="black"/>
<path d="M116.633 128.926H112.535V133.023H116.633V128.926Z" fill="black"/>
<path d="M120.732 128.926H116.635V133.023H120.732V128.926Z" fill="black"/>
<path d="M124.83 128.926H120.732V133.023H124.83V128.926Z" fill="black"/>
<path d="M128.928 128.926H124.83V133.023H128.928V128.926Z" fill="black"/>
<path d="M133.023 128.926H128.926V133.023H133.023V128.926Z" fill="black"/>
<path d="M137.121 128.926H133.023V133.023H137.121V128.926Z" fill="black"/>
<path d="M141.221 128.926H137.123V133.023H141.221V128.926Z" fill="black"/>
<path d="M145.318 128.926H141.221V133.023H145.318V128.926Z" fill="black"/>
<path d="M149.414 128.926H145.316V133.023H149.414V128.926Z" fill="black"/>
<path d="M153.514 128.926H149.416V133.023H153.514V128.926Z" fill="black"/>
<path d="M157.609 128.926H153.512V133.023H157.609V128.926Z" fill="black"/>
<path d="M161.709 128.926H157.611V133.023H161.709V128.926Z" fill="black"/>
<path d="M165.807 128.926H161.709V133.023H165.807V128.926Z" fill="black"/>
<path d="M51.0741 133.023H46.9766V137.121H51.0741V133.023Z" fill="black"/>
<path d="M55.1718 133.023H51.0742V137.121H55.1718V133.023Z" fill="black"/>
<path d="M59.2694 133.023H55.1719V137.121H59.2694V133.023Z" fill="black"/>
<path d="M63.3651 133.023H59.2676V137.121H63.3651V133.023Z" fill="black"/>
<path d="M79.7558 133.023H75.6582V137.121H79.7558V133.023Z" fill="black"/>
<path d="M96.1483 133.023H92.0508V137.121H96.1483V133.023Z" fill="black"/>
<path d="M100.244 133.023H96.1465V137.121H100.244V133.023Z" fill="black"/>
<path d="M108.437 133.023H104.34V137.121H108.437V133.023Z" fill="black"/>
<path d="M120.732 133.023H116.635V137.121H120.732V133.023Z" fill="black"/>
<path d="M133.023 133.023H128.926V137.121H133.023V133.023Z" fill="black"/>
<path d="M149.414 133.023H145.316V137.121H149.414V133.023Z" fill="black"/>
<path d="M157.609 133.023H153.512V137.121H157.609V133.023Z" fill="black"/>
<path d="M51.0741 137.123H46.9766V141.221H51.0741V137.123Z" fill="black"/>
<path d="M55.1718 137.123H51.0742V141.221H55.1718V137.123Z" fill="black"/>
<path d="M59.2694 137.123H55.1719V141.221H59.2694V137.123Z" fill="black"/>
<path d="M63.3651 137.123H59.2676V141.221H63.3651V137.123Z" fill="black"/>
<path d="M79.7558 137.123H75.6582V141.221H79.7558V137.123Z" fill="black"/>
<path d="M96.1483 137.123H92.0508V141.221H96.1483V137.123Z" fill="black"/>
<path d="M104.342 137.123H100.244V141.221H104.342V137.123Z" fill="black"/>
<path d="M108.437 137.123H104.34V141.221H108.437V137.123Z" fill="black"/>
<path d="M112.537 137.123H108.439V141.221H112.537V137.123Z" fill="black"/>
<path d="M120.732 137.123H116.635V141.221H120.732V137.123Z" fill="black"/>
<path d="M133.023 137.123H128.926V141.221H133.023V137.123Z" fill="black"/>
<path d="M141.221 137.123H137.123V141.221H141.221V137.123Z" fill="black"/>
<path d="M149.414 137.123H145.316V141.221H149.414V137.123Z" fill="black"/>
<path d="M161.709 137.123H157.611V141.221H161.709V137.123Z" fill="black"/>
<path d="M165.807 137.123H161.709V141.221H165.807V137.123Z" fill="black"/>
<path d="M51.0741 141.221H46.9766V145.318H51.0741V141.221Z" fill="black"/>
<path d="M55.1718 141.221H51.0742V145.318H55.1718V141.221Z" fill="black"/>
<path d="M63.3651 141.221H59.2676V145.318H63.3651V141.221Z" fill="black"/>
<path d="M67.4647 141.221H63.3672V145.318H67.4647V141.221Z" fill="black"/>
<path d="M71.5605 141.221H67.4629V145.318H71.5605V141.221Z" fill="black"/>
<path d="M87.9511 141.221H83.8535V145.318H87.9511V141.221Z" fill="black"/>
<path d="M92.0468 141.221H87.9492V145.318H92.0468V141.221Z" fill="black"/>
<path d="M108.437 141.221H104.34V145.318H108.437V141.221Z" fill="black"/>
<path d="M112.537 141.221H108.439V145.318H112.537V141.221Z" fill="black"/>
<path d="M116.635 141.221H112.537V145.318H116.635V141.221Z" fill="black"/>
<path d="M120.732 141.221H116.635V145.318H120.732V141.221Z" fill="black"/>
<path d="M124.83 141.221H120.732V145.318H124.83V141.221Z" fill="black"/>
<path d="M133.023 141.221H128.926V145.318H133.023V141.221Z" fill="black"/>
<path d="M149.414 141.221H145.316V145.318H149.414V141.221Z" fill="black"/>
<path d="M161.709 141.221H157.611V145.318H161.709V141.221Z" fill="black"/>
<path d="M51.0741 145.316H46.9766V149.414H51.0741V145.316Z" fill="black"/>
<path d="M59.2694 145.316H55.1719V149.414H59.2694V145.316Z" fill="black"/>
<path d="M63.3651 145.316H59.2676V149.414H63.3651V145.316Z" fill="black"/>
<path d="M71.5605 145.316H67.4629V149.414H71.5605V145.316Z" fill="black"/>
<path d="M79.7558 145.316H75.6582V149.414H79.7558V145.316Z" fill="black"/>
<path d="M104.342 145.316H100.244V149.414H104.342V145.316Z" fill="black"/>
<path d="M108.437 145.316H104.34V149.414H108.437V145.316Z" fill="black"/>
<path d="M128.928 145.316H124.83V149.414H128.928V145.316Z" fill="black"/>
<path d="M133.023 145.316H128.926V149.414H133.023V145.316Z" fill="black"/>
<path d="M137.121 145.316H133.023V149.414H137.121V145.316Z" fill="black"/>
<path d="M141.221 145.316H137.123V149.414H141.221V145.316Z" fill="black"/>
<path d="M145.318 145.316H141.221V149.414H145.318V145.316Z" fill="black"/>
<path d="M149.414 145.316H145.316V149.414H149.414V145.316Z" fill="black"/>
<path d="M165.807 145.316H161.709V149.414H165.807V145.316Z" fill="black"/>
<path d="M51.0741 149.416H46.9766V153.514H51.0741V149.416Z" fill="black"/>
<path d="M59.2694 149.416H55.1719V153.514H59.2694V149.416Z" fill="black"/>
<path d="M71.5605 149.416H67.4629V153.514H71.5605V149.416Z" fill="black"/>
<path d="M75.6601 149.416H71.5625V153.514H75.6601V149.416Z" fill="black"/>
<path d="M83.8554 149.416H79.7578V153.514H83.8554V149.416Z" fill="black"/>
<path d="M92.0468 149.416H87.9492V153.514H92.0468V149.416Z" fill="black"/>
<path d="M112.537 149.416H108.439V153.514H112.537V149.416Z" fill="black"/>
<path d="M120.732 149.416H116.635V153.514H120.732V149.416Z" fill="black"/>
<path d="M128.928 149.416H124.83V153.514H128.928V149.416Z" fill="black"/>
<path d="M133.023 149.416H128.926V153.514H133.023V149.416Z" fill="black"/>
<path d="M137.121 149.416H133.023V153.514H137.121V149.416Z" fill="black"/>
<path d="M141.221 149.416H137.123V153.514H141.221V149.416Z" fill="black"/>
<path d="M153.514 149.416H149.416V153.514H153.514V149.416Z" fill="black"/>
<path d="M165.807 149.416H161.709V153.514H165.807V149.416Z" fill="black"/>
<path d="M79.7558 153.512H75.6582V157.609H79.7558V153.512Z" fill="black"/>
<path d="M83.8554 153.512H79.7578V157.609H83.8554V153.512Z" fill="black"/>
<path d="M87.9511 153.512H83.8535V157.609H87.9511V153.512Z" fill="black"/>
<path d="M96.1483 153.512H92.0508V157.609H96.1483V153.512Z" fill="black"/>
<path d="M100.244 153.512H96.1465V157.609H100.244V153.512Z" fill="black"/>
<path d="M104.342 153.512H100.244V157.609H104.342V153.512Z" fill="black"/>
<path d="M108.437 153.512H104.34V157.609H108.437V153.512Z" fill="black"/>
<path d="M112.537 153.512H108.439V157.609H112.537V153.512Z" fill="black"/>
<path d="M120.732 153.512H116.635V157.609H120.732V153.512Z" fill="black"/>
<path d="M128.928 153.512H124.83V157.609H128.928V153.512Z" fill="black"/>
<path d="M133.023 153.512H128.926V157.609H133.023V153.512Z" fill="black"/>
<path d="M149.414 153.512H145.316V157.609H149.414V153.512Z" fill="black"/>
<path d="M157.609 153.512H153.512V157.609H157.609V153.512Z" fill="black"/>
<path d="M165.807 153.512H161.709V157.609H165.807V153.512Z" fill="black"/>
<path d="M55.1718 157.611H51.0742V161.709H55.1718V157.611Z" fill="black"/>
<path d="M59.2694 157.611H55.1719V161.709H59.2694V157.611Z" fill="black"/>
<path d="M67.4647 157.611H63.3672V161.709H67.4647V157.611Z" fill="black"/>
<path d="M75.6601 157.611H71.5625V161.709H75.6601V157.611Z" fill="black"/>
<path d="M83.8554 157.611H79.7578V161.709H83.8554V157.611Z" fill="black"/>
<path d="M87.9511 157.611H83.8535V161.709H87.9511V157.611Z" fill="black"/>
<path d="M92.0468 157.611H87.9492V161.709H92.0468V157.611Z" fill="black"/>
<path d="M96.1483 157.611H92.0508V161.709H96.1483V157.611Z" fill="black"/>
<path d="M100.244 157.611H96.1465V161.709H100.244V157.611Z" fill="black"/>
<path d="M112.537 157.611H108.439V161.709H112.537V157.611Z" fill="black"/>
<path d="M141.221 157.611H137.123V161.709H141.221V157.611Z" fill="black"/>
<path d="M149.414 157.611H145.316V161.709H149.414V157.611Z" fill="black"/>
<path d="M153.514 157.611H149.416V161.709H153.514V157.611Z" fill="black"/>
<path d="M157.609 157.611H153.512V161.709H157.609V157.611Z" fill="black"/>
<path d="M161.709 157.611H157.611V161.709H161.709V157.611Z" fill="black"/>
<path d="M165.807 157.611H161.709V161.709H165.807V157.611Z" fill="black"/>
<path d="M51.0741 161.709H46.9766V165.807H51.0741V161.709Z" fill="black"/>
<path d="M79.7558 161.709H75.6582V165.807H79.7558V161.709Z" fill="black"/>
<path d="M83.8554 161.709H79.7578V165.807H83.8554V161.709Z" fill="black"/>
<path d="M100.244 161.709H96.1465V165.807H100.244V161.709Z" fill="black"/>
<path d="M108.437 161.709H104.34V165.807H108.437V161.709Z" fill="black"/>
<path d="M116.633 161.709H112.535V165.807H116.633V161.709Z" fill="black"/>
<path d="M133.023 161.709H128.926V165.807H133.023V161.709Z" fill="black"/>
<path d="M137.121 161.709H133.023V165.807H137.121V161.709Z" fill="black"/>
<path d="M145.318 161.709H141.221V165.807H145.318V161.709Z" fill="black"/>
<path d="M153.514 161.709H149.416V165.807H153.514V161.709Z" fill="black"/>
<path d="M165.807 161.709H161.709V165.807H165.807V161.709Z" fill="black"/>
<path d="M38.5758 14.1953H18.4978H14.1953V18.4978V38.5758V42.8782H18.4978H38.5758H42.8782V38.5758V18.4978V14.1953H38.5758ZM38.5758 38.5758H18.4978V18.4978H38.5758V38.5758Z" fill="black"/>
<path d="M161.504 14.1953H141.425H137.123V18.4978V38.5758V42.8782H141.425H161.504H165.806V38.5758V18.4978V14.1953H161.504ZM161.504 38.5758H141.425V18.4978H161.504V38.5758Z" fill="black"/>
<path d="M38.5758 137.123H18.4978H14.1953V141.425V161.504V165.806H18.4978H38.5758H42.8782V161.504V141.425V137.123H38.5758ZM38.5758 161.504H18.4978V141.425H38.5758V161.504Z" fill="black"/>
<path d="M34.6833 22.3906H22.3906V34.6833H34.6833V22.3906Z" fill="black"/>
<path d="M157.609 22.3906H145.316V34.6833H157.609V22.3906Z" fill="black"/>
<path d="M34.6833 145.316H22.3906V157.609H34.6833V145.316Z" fill="black"/>
</g>
<rect x="0.5" y="0.5" width="177" height="177" rx="8.5" stroke="#ABABC8" stroke-opacity="0.5"/>
<defs>
<clipPath id="clip0_150_6710">
<rect width="168" height="168" fill="white" transform="translate(6 6)"/>
</clipPath>
</defs>
</svg>
