<svg width="16" height="16" viewBox="0 0 16 16" fill="none" xmlns="http://www.w3.org/2000/svg">
<path fill-rule="evenodd" clip-rule="evenodd" d="M4.92625 1.88974C5.76783 1.53139 6.69395 1.3331 7.66638 1.3331C11.5324 1.3331 14.6664 4.46711 14.6664 8.3331C14.6664 12.1991 11.5324 15.3331 7.66638 15.3331C3.80039 15.3331 0.666382 12.1991 0.666382 8.3331C0.666382 7.67652 0.756778 7.04106 0.925804 6.43847L2.20959 6.79857C2.07086 7.29314 1.99972 7.80772 1.99972 8.3331C1.99972 11.4627 4.53677 13.9998 7.66638 13.9998C10.796 13.9998 13.333 11.4627 13.333 8.3331C13.333 5.20349 10.796 2.66643 7.66638 2.66643C7.03222 2.66643 6.41462 2.77039 5.8322 2.96941L6.62604 3.91547C6.67225 3.97055 6.69942 4.03909 6.70349 4.11087C6.7139 4.29467 6.57335 4.45212 6.38955 4.46253L3.1449 4.6464C3.11259 4.64823 3.08018 4.64535 3.0487 4.63784C2.86963 4.59513 2.75909 4.41533 2.80181 4.23626L3.55414 1.08217C3.57074 1.01257 3.6093 0.950159 3.66412 0.904165C3.80514 0.785831 4.01539 0.804226 4.13373 0.94525L4.92625 1.88974Z" fill="#3968BF"/>
</svg>
