<svg width="24" height="24" viewBox="0 0 24 24" fill="none" xmlns="http://www.w3.org/2000/svg">
<path d="M12.0077 5.06161V5.36526C12.0077 6.72049 12.0077 8.07544 12.0077 9.43014C12.0077 10.6192 12.8067 11.4278 13.9982 11.4278C15.3454 11.4278 16.6918 11.4278 18.0391 11.4278H18.3587C18.3651 11.5669 18.3755 11.6763 18.3755 11.7858C18.3755 13.5549 18.3827 15.3241 18.3755 17.0932C18.3691 18.6978 17.435 19.89 15.8824 20.2839C15.6579 20.3381 15.4277 20.365 15.1968 20.3638C13.0771 20.3692 10.9572 20.3692 8.83696 20.3638C7.06382 20.3582 5.65585 19.0102 5.64067 17.2395C5.61457 14.227 5.61457 11.2145 5.64067 8.20196C5.65585 6.41204 7.05822 5.06721 8.84335 5.05842C9.78386 5.05442 10.7244 5.05842 11.6649 5.05842L12.0077 5.06161ZM11.3772 15.5606C11.3772 16.3006 11.3772 17.0405 11.3772 17.7804C11.3772 18.1304 11.525 18.3318 11.8119 18.4117C12.2666 18.5388 12.6341 18.2583 12.6357 17.7724C12.6397 16.4036 12.6357 15.0356 12.6357 13.6668C12.6357 13.5318 12.6357 13.3951 12.627 13.2609C12.6177 13.1453 12.5727 13.0355 12.4983 12.9466C12.4238 12.8577 12.3236 12.7941 12.2114 12.7647C11.7648 12.6352 11.3836 12.9021 11.378 13.3688C11.37 14.0967 11.3764 14.8287 11.3772 15.5606ZM13.9207 16.5419C13.9207 16.9478 13.9207 17.3537 13.9207 17.7597C13.9246 18.1824 14.166 18.4405 14.5519 18.4421C14.9379 18.4437 15.1912 18.1944 15.196 17.794C15.2064 16.9582 15.208 16.1224 15.196 15.2873C15.1896 14.8878 14.9187 14.6321 14.5511 14.6401C14.1612 14.6481 13.9254 14.9022 13.9215 15.3249C13.9167 15.7268 13.9207 16.1359 13.9207 16.5419ZM10.0931 17.1755C10.0931 16.9766 10.0931 16.776 10.0931 16.5786C10.0859 16.1903 9.87016 15.9482 9.51297 15.9234C9.13421 15.8962 8.85134 16.1056 8.82817 16.4915C8.801 16.9522 8.801 17.4141 8.82817 17.8747C8.84894 18.2407 9.1422 18.4628 9.49699 18.4397C9.57697 18.4386 9.65595 18.4217 9.72934 18.3899C9.80272 18.358 9.86904 18.3119 9.92444 18.2542C9.97983 18.1965 10.0232 18.1284 10.052 18.0538C10.0808 17.9792 10.0945 17.8996 10.0923 17.8196C10.0987 17.6054 10.0923 17.3905 10.0931 17.1755Z" fill="#306DDE"/>
<path d="M18.0873 10.1709H17.8252C16.5755 10.1709 15.3257 10.1709 14.076 10.1709C13.5166 10.1709 13.2889 9.94241 13.2881 9.39424C13.2881 8.12851 13.2881 6.86278 13.2881 5.59705V5.37012C13.3928 5.40767 13.4719 5.43005 13.5462 5.46361C14.047 5.6922 14.5023 6.00948 14.8902 6.40012C15.6318 7.14406 16.3765 7.8848 17.1156 8.63193C17.5487 9.06727 17.8805 9.59275 18.0873 10.1709Z" fill="#306DDE"/>
</svg>
