<?xml version="1.0" encoding="UTF-8"?>
<svg xmlns="http://www.w3.org/2000/svg" xmlns:xlink="http://www.w3.org/1999/xlink" width="20px" height="20px" viewBox="0 0 20 20" version="1.1">
<g id="surface1">
<path style=" stroke:none;fill-rule:nonzero;fill:rgb(94.117647%,94.117647%,94.117647%);fill-opacity:1;" d="M 20 10 C 20 4.476562 15.523438 0 10 0 C 4.476562 0 0 4.476562 0 10 C 0 15.523438 4.476562 20 10 20 C 15.523438 20 20 15.523438 20 10 Z M 20 10 "/>
<path style=" stroke:none;fill-rule:nonzero;fill:rgb(0%,32.156864%,70.588237%);fill-opacity:1;" d="M 19.378906 13.476562 C 19.78125 12.394531 20 11.222656 20 10 C 20 8.777344 19.78125 7.605469 19.378906 6.523438 L 0.621094 6.523438 C 0.21875 7.605469 0 8.777344 0 10 C 0 11.222656 0.21875 12.394531 0.621094 13.476562 L 10 14.347656 Z M 19.378906 13.476562 "/>
<path style=" stroke:none;fill-rule:nonzero;fill:rgb(84.705883%,0%,15.294118%);fill-opacity:1;" d="M 10 20 C 14.300781 20 17.964844 17.285156 19.378906 13.476562 L 0.621094 13.476562 C 2.035156 17.285156 5.699219 20 10 20 Z M 10 20 "/>
</g>
</svg>
