<svg width="24" height="25" viewBox="0 0 24 25" fill="none" xmlns="http://www.w3.org/2000/svg">
<path opacity="0.3" d="M14.2929 17.2071C13.9024 16.8166 13.9024 16.1834 14.2929 15.7929C14.6834 15.4024 15.3166 15.4024 15.7071 15.7929L19.7071 19.7929C20.0976 20.1834 20.0976 20.8166 19.7071 21.2071C19.3166 21.5976 18.6834 21.5976 18.2929 21.2071L14.2929 17.2071Z" fill="#B5B5C2"/>
<path d="M11 16.5C13.7614 16.5 16 14.2614 16 11.5C16 8.73858 13.7614 6.5 11 6.5C8.23858 6.5 6 8.73858 6 11.5C6 14.2614 8.23858 16.5 11 16.5ZM11 18.5C7.13401 18.5 4 15.366 4 11.5C4 7.63401 7.13401 4.5 11 4.5C14.866 4.5 18 7.63401 18 11.5C18 15.366 14.866 18.5 11 18.5Z" fill="#B5B5C2"/>
</svg>
