<svg width="56" height="56" viewBox="0 0 56 56" fill="none" xmlns="http://www.w3.org/2000/svg">
<circle cx="28" cy="28" r="28" fill="#306DDE"/>
<path d="M16.0099 24.8456C15.5122 24.7893 15.1159 24.7686 14.731 24.6972C14.0361 24.5677 13.792 24.0324 14.1938 23.4502C14.4389 23.0912 14.7721 22.8012 15.1614 22.6078C15.5508 22.4145 15.9832 22.3243 16.4174 22.346C16.9075 22.346 17.1141 22.7216 17.2212 23.2455C17.3301 23.0859 17.409 22.9808 17.4803 22.87C17.9367 22.0286 18.4494 21.2117 18.825 20.3347C19.2907 19.2492 20.1189 18.7027 21.21 18.5074C22.2015 18.306 23.2053 18.1711 24.2148 18.1036C27.3285 17.974 30.446 17.9008 33.5522 18.2914C33.9616 18.3421 34.3653 18.4304 34.7691 18.5168C35.8696 18.7553 36.7222 19.268 37.2105 20.3797C37.6311 21.3544 38.2002 22.2671 38.6697 23.1441C38.9082 22.8906 39.0922 22.5507 39.3683 22.438C39.6842 22.3256 40.0309 22.3363 40.3392 22.4681C40.8658 22.6929 41.3436 23.0182 41.7458 23.4258C42.251 23.9892 41.9674 24.5921 41.2106 24.7216C40.8256 24.7893 40.4331 24.808 40.1026 24.8437C40.4669 25.4559 40.9571 26.0494 41.1899 26.7311C41.4228 27.4128 41.4622 28.1978 41.4923 28.9415C41.5374 30.1209 41.5036 31.304 41.5036 32.5453C41.2688 32.5585 41.0679 32.5792 40.8688 32.5792C32.2864 32.5792 23.7034 32.5835 15.1197 32.5923C14.6164 32.5923 14.4737 32.4496 14.4924 31.9575C14.5281 30.981 14.5225 30.0026 14.4924 29.026C14.453 27.4504 14.7516 26.025 16.0099 24.8456ZM18.3125 24.962H38.0305C37.9216 24.7085 37.8598 24.5903 37.7753 24.4307C37.1518 23.2532 36.5613 22.23 35.9885 21.03C35.8468 20.7138 35.6551 20.3665 35.3791 20.1571C35.1031 19.9478 34.8407 19.7967 34.4981 19.7454C34.263 19.6821 34.0076 19.6684 33.7652 19.6454C31.1229 19.5384 28.5638 19.434 25.9214 19.4471C24.3214 19.4565 22.6481 19.6972 21.0406 19.8962C20.5729 19.9526 20.4216 20.1083 20.1944 20.5515C19.5352 21.836 18.8911 23.108 18.2094 24.3812C18.1287 24.5427 18.0693 24.6972 17.9547 24.962H18.3125ZM18.0306 30.857C19.2212 30.658 20.1752 30.5021 21.1368 30.3368C21.2494 30.3252 21.3554 30.2779 21.4391 30.2016C21.6081 29.9988 21.8917 29.7453 21.8579 29.5631C21.8148 29.4316 21.7413 29.3121 21.6434 29.2142C21.5455 29.1163 21.426 29.0429 21.2945 28.9997C19.7076 28.6241 18.1019 28.3142 16.515 27.9969C15.9667 27.8879 15.6568 28.2185 15.7282 28.7706C15.7995 29.3227 16.008 29.7547 16.5432 30.0176C17.116 30.3087 17.67 30.6523 18.0306 30.857ZM39.7908 27.9405L38.5495 28.2016C37.2668 28.4645 35.9785 28.7086 34.7052 29.011C34.5739 29.0545 34.4546 29.1281 34.3568 29.226C34.259 29.3238 34.1854 29.4431 34.1418 29.5744C34.1062 29.7622 34.3578 30.0739 34.5644 30.1997C34.8455 30.3389 35.1498 30.4255 35.4621 30.4551C35.9766 30.5453 36.5438 30.4965 37.0058 30.6993C37.6762 30.996 38.1927 30.8007 38.7317 30.4645L39.7289 29.8354C40.2547 29.5049 40.2829 28.9565 40.2397 28.4438C40.2284 28.2466 39.9167 28.072 39.7908 27.9405ZM23.7866 29.5162C23.9889 29.5624 24.1941 29.595 24.4007 29.6138C26.8045 29.6138 29.2084 29.6138 31.6122 29.6138C31.8057 29.5832 31.9948 29.5296 32.1756 29.4542C31.9614 29.9561 24.4906 30.3368 23.7866 29.5162ZM26.1767 31.3954L25.5557 30.7537C25.6533 30.8007 25.7435 30.8871 25.8486 30.889C27.2747 30.899 28.6994 30.899 30.1229 30.889C30.2244 30.889 30.3277 30.7819 30.4291 30.7237L30.123 31.1898L26.1767 31.3954Z" fill="white"/>
<path d="M14.3973 33.096L27.9787 33.0957H41.3296C41.3371 33.5206 41.3833 33.7003 41.3296 34.1218C41.1944 34.8186 40.6629 35.1942 39.8817 35.1942C31.8802 35.1942 23.8787 35.1942 15.8772 35.1942C14.9814 35.1942 14.4405 34.6627 14.3974 33.7707C14.3823 33.4739 14.3973 33.4228 14.3973 33.096Z" fill="white"/>
<path d="M36.7606 35.6076C38.2742 35.3391 39.786 35.9006 41.217 35.1738C41.217 35.7372 41.2565 36.3006 41.2058 36.8452C41.1867 37.1309 41.0596 37.3985 40.8503 37.5939C40.641 37.7892 40.3653 37.8975 40.079 37.8969C39.3503 37.9251 38.6179 37.9232 37.8892 37.8969C37.6045 37.8946 37.3309 37.7857 37.1224 37.5918C36.9138 37.3978 36.7854 37.1328 36.7625 36.849C36.7268 36.4546 36.7606 36.0415 36.7606 35.6076Z" fill="white"/>
<path d="M14.5752 35.1191C15.2776 35.6825 16.0457 35.5379 16.7856 35.5473C17.5255 35.5567 18.2411 35.5473 19.0599 35.5473C19.0591 36.0299 19.0309 36.5121 18.9754 36.9915C18.9275 37.2531 18.7875 37.489 18.5809 37.6564C18.3742 37.8238 18.1144 37.9117 17.8486 37.9042C17.1368 37.9267 16.4213 37.9286 15.7095 37.9042C15.1461 37.8873 14.6447 37.4929 14.5921 36.9652C14.5283 36.3905 14.5752 35.7971 14.5752 35.1191Z" fill="white"/>
</svg>
