<svg width="56" height="56" viewBox="0 0 56 56" fill="none" xmlns="http://www.w3.org/2000/svg">
<circle cx="28" cy="28" r="28" fill="#306DDE"/>
<path d="M26.0252 26.7039C25.0871 26.7545 24.196 26.7898 23.3126 26.8572C23.15 26.8956 23.0049 26.9857 22.8999 27.1133C22.359 27.6638 21.8383 28.2327 21.3005 28.7863C20.7627 29.3399 20.1342 29.297 19.6933 28.6713C19.5167 28.4214 19.3509 28.1622 19.1477 27.8555C18.7412 28.2879 18.3801 28.725 17.9611 29.1007C17.7202 29.3303 17.4203 29.4914 17.0934 29.5668C16.0162 29.7355 14.9296 29.8444 13.8461 29.9533C13.263 30.0131 13.0644 29.7708 13.0082 29.208C12.9566 28.6054 13.1536 28.1208 13.4928 27.6362C15.4533 24.8316 18.0158 22.8596 21.4256 22.0392C21.7273 21.9671 22.0353 21.9134 22.3418 21.8613C22.6482 21.8091 22.9452 21.7693 23.3111 21.7079C22.8749 21.297 22.4934 21.0378 21.904 21.1544C21.2661 21.2832 20.6079 21.3184 19.9591 21.3966C19.0789 21.5009 18.6568 21.1145 18.7193 20.2512C18.7396 19.9644 18.785 19.6792 18.8272 19.3311C18.2018 19.397 17.6077 19.4921 17.0105 19.5074C16.7053 19.518 16.4031 19.4447 16.1381 19.2958C15.2266 18.7438 14.3464 18.1365 13.4522 17.5492C13.2914 17.4522 13.1642 17.3099 13.0872 17.1408C13.0102 16.9717 12.987 16.7838 13.0207 16.6016C13.0371 16.4322 13.1058 16.2718 13.2175 16.1417C13.3292 16.0116 13.4787 15.9179 13.646 15.8732C17.8845 14.4639 21.9556 14.6725 25.7672 17.1459C26.638 17.7087 27.487 18.3175 27.9904 19.3618C28.5001 18.362 29.3396 17.7394 30.2136 17.1659C32.7666 15.4776 35.5808 14.7338 38.6404 15.0973C39.8677 15.2506 41.0715 15.5834 42.2832 15.8517C42.4626 15.8816 42.6273 15.9677 42.7527 16.097C42.8782 16.2264 42.9575 16.3921 42.9789 16.5694C43.02 16.7574 43.0007 16.9532 42.9238 17.1301C42.8468 17.3069 42.7158 17.456 42.549 17.5569C41.6406 18.1503 40.7463 18.7653 39.8239 19.3357C39.5826 19.4686 39.3076 19.5314 39.0313 19.5166C38.4309 19.4906 37.8321 19.4001 37.1942 19.3326C37.2333 19.7053 37.2802 20.0334 37.299 20.3631C37.3396 21.0869 36.93 21.481 36.1843 21.415C35.548 21.3583 34.9085 21.3062 34.2832 21.1896C33.6578 21.0731 33.1778 21.1651 32.7588 21.7095C33.2591 21.7984 33.75 21.8735 34.2363 21.9748C38.0729 22.7706 40.8527 24.9926 42.8476 28.2143C43.0743 28.5793 42.9945 29.1651 42.9367 29.6343C42.9211 29.7693 42.4677 29.9609 42.241 29.941C41.0934 29.8459 39.9474 29.7048 38.8014 29.5377C38.5326 29.4772 38.2872 29.342 38.0948 29.1482C37.6695 28.748 37.2865 28.3048 36.8644 27.8586C36.6533 28.1653 36.4735 28.4536 36.2734 28.7219C35.8607 29.2785 35.2462 29.3353 34.7584 28.8385C34.2707 28.3416 33.7829 27.8478 33.3279 27.3249C33.0481 27.0045 32.7494 26.7928 32.3054 26.7974C31.5456 26.8066 30.7858 26.7974 29.9791 26.7974C30.0447 27.5749 30.0901 28.3631 30.1839 29.1451C30.4121 31.0405 30.6044 32.9435 30.9218 34.8266C31.1923 36.4336 31.6128 38.0161 31.9724 39.6094C32.0647 40.0173 32.2851 40.1859 32.7541 40.1737C34.2347 40.1353 35.7246 40.1568 37.2005 40.1599C37.8915 40.1599 38.3043 40.5126 38.2949 41.0799C38.2855 41.6473 37.8587 42 37.1849 42H18.7944C18.133 42 17.7 41.6136 17.7 41.06C17.7 40.5064 18.1143 40.166 18.7709 40.1645C20.2687 40.1645 21.7664 40.1384 23.2642 40.1767C23.7207 40.1875 23.9193 40.0234 24.0115 39.6339C24.3242 38.3136 24.7354 37.0056 24.9324 35.6684C25.3513 32.7993 25.664 29.9119 26.0236 27.0321C26.033 26.96 26.0252 26.8833 26.0252 26.7039Z" fill="white"/>
</svg>
