<svg width="58" height="58" viewBox="0 0 58 58" fill="none" xmlns="http://www.w3.org/2000/svg">
<path d="M57 29C57 44.464 44.464 57 29 57C13.536 57 1 44.464 1 29C1 13.536 13.536 1 29 1C44.464 1 57 13.536 57 29Z" fill="#306DDE"/>
<path d="M27.7332 25.9108C26.6756 25.4014 25.6206 24.8866 24.5574 24.3965C24.4331 24.368 24.3031 24.379 24.1853 24.4282C23.7666 24.5479 23.3643 24.7269 22.9347 24.7999C22.3367 24.9017 22.0891 24.6278 22.1698 24.018C22.1985 23.8032 22.2683 23.5926 22.3312 23.3297L19.8478 22.1086C18.7532 21.5745 17.6585 21.0408 16.5639 20.5076C15.8962 20.1786 15.8209 19.7078 16.3409 19.1806C17.0743 18.4359 17.9623 18.2473 18.9406 18.4923C20.7614 18.9411 22.5748 19.4068 24.3809 19.8896C24.7162 19.979 24.9447 19.9474 25.1923 19.6679C25.6562 19.1462 26.1679 18.6671 26.666 18.1771C27.0327 17.8137 27.2803 17.8192 27.6388 18.1881C28.0315 18.59 28.4242 18.992 28.8101 19.4009C29.2206 19.8345 29.2206 20.041 28.7923 20.4746C28.6691 20.5999 28.5296 20.7086 28.3243 20.8876C29.0646 21.0789 29.6926 21.2441 30.3193 21.4038C30.5711 21.4671 30.8447 21.4781 31.0746 21.5869C31.7355 21.8994 32.1692 21.6888 32.6481 21.1601C33.4951 20.2103 34.4009 19.3073 35.33 18.4359C36.6422 17.2079 38.1692 16.3517 39.9575 16.0268C40.7333 15.8892 41.1274 16.2884 40.9632 17.0593C40.6136 18.7789 39.7828 20.3622 38.5687 21.6227C37.5397 22.6854 36.4492 23.6876 35.3751 24.7076C35.2778 24.7799 35.207 24.8826 35.1738 24.9997C35.1406 25.1167 35.1469 25.2416 35.1918 25.3546C35.4654 26.2866 35.709 27.2282 35.9662 28.1643C35.9952 28.2409 36.0295 28.3154 36.0688 28.3873C36.2563 28.2097 36.4136 28.0472 36.5847 27.8999C36.8392 27.6811 37.0964 27.6673 37.3441 27.922C37.7847 28.3735 38.2307 28.8181 38.6658 29.2738C38.9696 29.5904 38.96 29.8933 38.6481 30.2044C38.1527 30.6986 37.6588 31.1941 37.1498 31.6732C37.0659 31.7403 37.0054 31.8324 36.9769 31.9363C36.9483 32.0402 36.9533 32.1505 36.9911 32.2514C37.5028 34.2116 38.0173 36.1719 38.4962 38.1418C38.6232 38.6028 38.6183 39.0905 38.482 39.5488C38.3457 40.0071 38.0836 40.4174 37.7258 40.7326C37.2647 41.1676 36.768 41.0657 36.4821 40.4724C35.5831 38.6071 34.6787 36.7473 33.7975 34.8751C33.6511 34.5654 33.5101 34.447 33.19 34.5998C33.0876 34.6387 32.9802 34.6628 32.8712 34.6714C32.2021 34.7802 31.8846 34.4801 32.0351 33.8152C32.1309 33.3926 32.3389 32.9975 32.4798 32.5845C32.5382 32.455 32.5512 32.3094 32.5168 32.1715C32.057 31.1928 31.5768 30.2236 31.0896 29.2242C31.0067 29.2801 30.9285 29.3428 30.8557 29.4114C29.3916 31.1033 27.5909 32.3808 25.7711 33.6197C25.2238 33.9996 24.6765 34.3947 24.1292 34.7829C23.3657 35.3336 23.1139 36.0645 23.2836 36.9855C23.3999 37.6187 23.4833 38.2588 23.5695 38.8976C23.6174 39.261 23.0961 39.9562 22.739 39.9809C22.578 39.9838 22.4222 39.9242 22.3039 39.8144C20.6127 38.139 18.9324 36.4458 17.2481 34.7581C16.9936 34.5021 17.051 34.2832 17.2481 34.001C17.6449 33.4228 18.1703 33.427 18.7655 33.5467C19.2868 33.6514 19.8163 33.7216 20.3445 33.7863C21.1655 33.8881 21.8058 33.5674 22.2792 32.886C23.1919 31.5686 24.0758 30.2209 25.0487 28.953C25.7574 28.0362 26.6003 27.2227 27.3925 26.3719C27.5245 26.2509 27.6674 26.1426 27.8194 26.0484L27.7332 25.9108Z" fill="white"/>
<path d="M29 57.125C44.533 57.125 57.125 44.533 57.125 29C57.125 13.467 44.533 0.875 29 0.875C13.467 0.875 0.875 13.467 0.875 29C0.875 44.533 13.467 57.125 29 57.125Z" stroke="white" stroke-width="0.25"/>
</svg>
