<svg width="56" height="56" viewBox="0 0 56 56" fill="none" xmlns="http://www.w3.org/2000/svg">
<circle cx="28" cy="28" r="28" fill="#306DDE"/>
<path d="M39.9724 35.9968H16.003C16.003 36.3306 16.0163 36.6333 16.003 36.9361C16.005 37.0692 15.9807 37.2015 15.9313 37.3252C15.882 37.4488 15.8087 37.5615 15.7155 37.6567C15.6224 37.7519 15.5114 37.8277 15.3888 37.8798C15.2662 37.9318 15.1345 37.9591 15.0014 37.9599C14.7428 37.9593 14.4949 37.8565 14.3119 37.6739C14.1288 37.4912 14.0254 37.2436 14.0242 36.985C14.0087 34.5367 13.9686 32.1061 14.0465 29.6711C14.0932 28.2043 15.382 27.0736 16.8688 27.0002C17.3139 26.9734 17.7591 27.0002 18.2043 27.0002H38.4255C40.836 27.0002 41.9868 28.1331 41.9868 30.5258C41.9868 32.5869 41.9868 34.6479 41.9868 36.709C41.9868 37.517 41.5884 38 40.9585 37.9799C40.3286 37.9599 39.9991 37.5014 39.9902 36.7179C39.9702 36.4731 39.9724 36.2616 39.9724 35.9968Z" fill="white"/>
<path d="M38.9785 24.96H35.9782C35.9782 24.664 35.9782 24.4014 35.9782 24.1409C35.9604 22.8411 35.1546 22.0175 33.8681 21.9997C32.9578 21.9864 32.0497 21.9997 31.1415 21.9997C29.8372 22.0131 29.0337 22.8077 29.0026 24.112C29.0026 24.3724 29.0026 24.6351 29.0026 25.0023H26.9994C26.9994 24.6618 26.9994 24.3635 26.9994 24.0653C26.9682 22.8455 26.158 22.0287 24.9383 22.0086C24.0302 21.9931 23.122 22.0086 22.2117 22.0086C20.8273 22.0086 20.0304 22.8144 20.0171 24.201C20.0171 24.4414 20.0171 24.684 20.0171 24.9667H17.0701C17.0383 24.7976 17.0175 24.6266 17.0078 24.4548C17.0078 22.7261 17.0078 20.9974 17.0078 19.2687C17.0123 18.3316 17.3528 18 18.3077 18H37.672C38.6513 18 38.9852 18.3316 38.9897 19.3199C38.9852 21.1806 38.9785 23.037 38.9785 24.96Z" fill="white"/>
</svg>
