<svg width="256" height="73" viewBox="0 0 256 73" fill="none" xmlns="http://www.w3.org/2000/svg">
<path fill-rule="evenodd" clip-rule="evenodd" d="M1.35627 46.2053C2.01502 48.3203 29.331 45.43 41.2709 40.7406C52.5297 36.3148 65.9818 19.4316 64.1253 16.5714C55.5989 4.18944 43.2397 -1.82463 28.1557 1.1937C9.1266 4.99484 -3.15771 23.9253 0.712482 43.4579C0.892143 44.3912 1.10923 45.3095 1.35627 46.2053Z" fill="#437CAF"/>
<path fill-rule="evenodd" clip-rule="evenodd" d="M2.57112 49.8338C6.9803 61.0641 16.5547 69.1707 27.7611 71.745C30.98 72.2794 35.8833 69.2987 37.2532 67.0556C39.0722 64.09 39.5289 62.2685 39.9481 60.4243C41.9468 51.6629 28.2177 49.1865 22.4012 48.6144C16.944 48.0725 6.68835 47.809 2.84062 48.208C1.96477 48.2983 2.24175 48.9983 2.57112 49.8338Z" fill="#437CAF"/>
<path fill-rule="evenodd" clip-rule="evenodd" d="M50.1718 57.3309C44.5649 58.4524 40.3204 65.1891 39.3023 66.6418C37.9623 68.5537 37.4009 70.3903 37.9624 71.8957C38.3366 72.8892 40.777 72.2269 42.1469 71.9559C49.558 70.4731 55.9584 66.6795 60.7643 61.4632C62.4337 59.6116 55.5017 56.2621 50.1718 57.3309Z" fill="#437CAF"/>
<path fill-rule="evenodd" clip-rule="evenodd" d="M65.975 19.4325C64.9868 17.7465 61.5059 28.1639 58.811 36.3533C55.5921 46.161 61.5059 60.6505 63.5945 57.9859C69.1864 50.1428 71.6568 39.9963 69.6131 29.6768C68.8496 25.838 67.7566 22.6767 65.975 19.4325Z" fill="#437CAF"/>
<path d="M97.6809 58.5871C95.2704 57.5484 93.4439 56.1785 92.1862 54.4699C90.9361 52.7687 90.2624 50.9397 90.1875 48.9751C90.1875 48.659 90.3073 48.373 90.5468 48.1321C90.7864 47.8913 91.0858 47.7708 91.4377 47.7708H94.3646C95.0833 47.7708 95.5773 48.1697 95.8543 48.9676C96.2136 50.6537 97.2392 52.0989 98.931 53.3258C100.623 54.5451 103.041 55.1548 106.185 55.1548C109.568 55.1548 112.099 54.5527 113.768 53.3559C115.437 52.1591 116.276 50.4956 116.276 48.373C116.276 47.0106 115.864 45.8891 115.048 45.0084C114.232 44.1277 113.019 43.36 111.402 42.6976C109.793 42.0352 107.368 41.2298 104.149 40.2664C101.079 39.3857 98.6465 38.4448 96.835 37.4438C95.0234 36.4427 93.6609 35.2158 92.7402 33.748C91.8269 32.2877 91.3628 30.4361 91.3628 28.1931C91.3628 26.0328 91.9392 24.0984 93.092 22.3973C94.2448 20.6962 95.9217 19.3563 98.1076 18.3703C100.293 17.3918 102.884 16.895 105.87 16.895C108.977 16.895 111.635 17.4445 113.843 18.5434C116.051 19.6424 117.736 21.0273 118.888 22.6908C120.041 24.3543 120.662 26.0253 120.745 27.7038C120.745 28.0651 120.625 28.3662 120.385 28.607C120.146 28.8479 119.847 28.9683 119.487 28.9683H116.5C116.178 28.9683 115.879 28.8705 115.602 28.6673C115.325 28.464 115.123 28.163 115.003 27.764C114.764 26.0403 113.805 24.6177 112.136 23.4962C110.467 22.3747 108.371 21.8102 105.863 21.8102C103.153 21.8102 101.005 22.3446 99.4101 23.4059C97.8156 24.4672 97.0221 26.0403 97.0221 28.1178C97.0221 29.5178 97.3889 30.6619 98.13 31.5426C98.8636 32.4232 100.001 33.206 101.536 33.8835C103.071 34.5609 105.309 35.3437 108.258 36.2244C111.642 37.1878 114.299 38.1438 116.231 39.1072C118.162 40.0707 119.607 41.2599 120.558 42.6825C121.516 44.1052 121.995 45.9342 121.995 48.1773C121.995 51.9408 120.573 54.8763 117.728 56.9764C114.883 59.0764 111.028 60.1302 106.17 60.1302C102.928 60.1452 100.091 59.6259 97.6809 58.5871Z" fill="#437CAF"/>
<path d="M128.44 22.0434C128.178 21.7875 128.051 21.4563 128.051 21.0499V17.9262C128.051 17.5272 128.178 17.1885 128.44 16.9025C128.695 16.624 129.024 16.481 129.428 16.481H132.954C133.351 16.481 133.688 16.624 133.972 16.9025C134.249 17.181 134.391 17.5272 134.391 17.9262V21.0499C134.391 21.4488 134.249 21.78 133.972 22.0434C133.695 22.3069 133.351 22.4348 132.954 22.4348H129.428C129.024 22.4348 128.695 22.3069 128.44 22.0434ZM128.919 59.1591C128.657 58.8957 128.53 58.572 128.53 58.1656V29.6984C128.53 29.2995 128.657 28.9683 128.919 28.7048C129.181 28.4489 129.503 28.3134 129.907 28.3134H132.535C132.932 28.3134 133.261 28.4414 133.523 28.7048C133.777 28.9683 133.912 29.2995 133.912 29.6984V58.1656C133.912 58.5645 133.777 58.8957 133.523 59.1591C133.261 59.4226 132.932 59.5505 132.535 59.5505H129.907C129.503 59.5505 129.174 59.4151 128.919 59.1591Z" fill="#437CAF"/>
<path d="M142.659 59.1594C142.397 58.896 142.27 58.5723 142.27 58.1659V29.7589C142.27 29.36 142.397 29.0213 142.659 28.7352C142.921 28.4567 143.25 28.3137 143.647 28.3137H146.155C146.589 28.3137 146.941 28.4417 147.203 28.7051C147.457 28.9686 147.592 29.3148 147.592 29.7589V32.4009C149.224 29.6761 151.994 28.3213 155.894 28.3213H158.222C158.656 28.3213 159 28.4417 159.24 28.6826C159.48 28.9234 159.599 29.2621 159.599 29.7062V31.9267C159.599 32.3256 159.48 32.6568 159.24 32.9202C159 33.1837 158.664 33.3117 158.222 33.3117H154.816C152.63 33.3117 150.901 33.9515 149.651 35.231C148.393 36.5106 147.772 38.2569 147.772 40.4548V58.1734C147.772 58.5723 147.629 58.9035 147.352 59.167C147.075 59.4304 146.731 59.5584 146.334 59.5584H143.647C143.243 59.5508 142.913 59.4153 142.659 59.1594Z" fill="#437CAF"/>
<path d="M166.094 56.337C163.661 53.7929 162.329 50.3229 162.089 45.9196L162.029 43.8798L162.089 41.9002C162.329 37.5797 163.661 34.1323 166.094 31.5731C168.52 29.0139 171.768 27.7268 175.833 27.7268C180.212 27.7268 183.611 29.1268 186.014 31.9344C188.424 34.7345 189.63 38.5431 189.63 43.3454V44.4293C189.63 44.8282 189.502 45.1594 189.24 45.4228C188.978 45.6863 188.649 45.8142 188.252 45.8142H167.531V46.3562C167.651 48.9605 168.445 51.181 169.919 53.0251C171.394 54.8692 173.34 55.7875 175.773 55.7875C177.645 55.7875 179.164 55.4187 180.34 54.6735C181.515 53.9359 182.398 53.1606 182.997 52.3627C183.357 51.881 183.634 51.595 183.836 51.4896C184.038 51.3917 184.375 51.339 184.854 51.339H187.481C187.841 51.339 188.148 51.4369 188.41 51.6401C188.664 51.8434 188.799 52.0993 188.799 52.4229C188.799 53.3036 188.26 54.3649 187.182 55.6069C186.104 56.8488 184.584 57.9177 182.615 58.8209C180.647 59.7241 178.386 60.1682 175.833 60.1682C171.768 60.1457 168.527 58.8811 166.094 56.337ZM184.195 41.712V41.5313C184.195 38.7313 183.439 36.4506 181.927 34.6818C180.407 32.9204 178.378 32.0398 175.833 32.0398C173.243 32.0398 171.214 32.9204 169.74 34.6818C168.265 36.4431 167.531 38.7238 167.531 41.5313V41.712H184.195Z" fill="#437CAF"/>
<path d="M196.706 59.1595C196.451 58.8961 196.316 58.5724 196.316 58.166V29.6988C196.316 29.2999 196.451 28.9687 196.706 28.7052C196.968 28.4493 197.29 28.3138 197.694 28.3138H200.261C200.696 28.3138 201.04 28.4343 201.28 28.6751C201.519 28.916 201.639 29.2547 201.639 29.6988V32.3408C202.837 30.858 204.214 29.7214 205.786 28.916C207.358 28.1181 209.319 27.7117 211.67 27.7117C215.488 27.7117 218.46 28.9461 220.571 31.4074C222.682 33.8688 223.737 37.1204 223.737 41.17V58.166C223.737 58.5649 223.602 58.8961 223.348 59.1595C223.086 59.423 222.764 59.5509 222.36 59.5509H219.612C219.216 59.5509 218.886 59.423 218.624 59.1595C218.362 58.8961 218.235 58.5724 218.235 58.166V41.5313C218.235 38.6484 217.539 36.4054 216.146 34.8021C214.754 33.1989 212.763 32.401 210.173 32.401C207.628 32.401 205.591 33.2139 204.079 34.8322C202.567 36.4505 201.811 38.686 201.811 41.5313V58.166C201.811 58.5649 201.684 58.8961 201.422 59.1595C201.16 59.423 200.838 59.5509 200.434 59.5509H197.686C197.297 59.5509 196.968 59.4155 196.706 59.1595Z" fill="#437CAF"/>
<path d="M234.995 58.9479C233.34 58.15 232.03 57.0586 231.05 55.6736C230.076 54.2962 229.59 52.7606 229.59 51.0821C229.59 48.4401 230.668 46.2799 232.816 44.5938C234.965 42.9153 237.892 41.7938 241.597 41.2293L250.558 39.9723V38.2335C250.558 34.1087 248.185 32.0463 243.454 32.0463C241.62 32.0463 240.145 32.4151 239.037 33.1603C237.922 33.9055 237.106 34.7711 236.589 35.7722C236.432 36.1711 236.26 36.4421 236.08 36.5851C235.9 36.7281 235.653 36.7959 235.332 36.7959H233.003C232.644 36.7959 232.337 36.6679 232.083 36.4044C231.821 36.1485 231.693 35.8324 231.693 35.4711C231.693 34.5528 232.12 33.484 232.981 32.2571C233.834 31.0377 235.159 29.9764 236.948 29.0731C238.738 28.1699 240.931 27.7183 243.521 27.7183C247.983 27.7183 251.172 28.757 253.103 30.842C255.034 32.927 256 35.5238 256 38.6475V58.165C256 58.564 255.873 58.8952 255.611 59.1586C255.349 59.4221 255.019 59.55 254.623 59.55H251.995C251.598 59.55 251.276 59.4221 251.037 59.1586C250.797 58.8952 250.678 58.5715 250.678 58.165V55.5231C249.802 56.8403 248.529 57.9468 246.852 58.8274C245.183 59.7081 243.027 60.1522 240.399 60.1522C238.446 60.1447 236.642 59.7457 234.995 58.9479ZM248.043 53.1822C249.712 51.4585 250.55 48.9595 250.55 45.6777V43.9992L243.558 45.0229C240.691 45.4218 238.521 46.1068 237.046 47.0627C235.571 48.0262 234.837 49.223 234.837 50.6681C234.837 52.309 235.504 53.5736 236.836 54.4542C238.169 55.3349 239.756 55.779 241.59 55.779C244.217 55.7639 246.373 54.9058 248.043 53.1822Z" fill="#437CAF"/>
</svg>
