<svg width="24" height="24" viewBox="0 0 24 24" fill="none" xmlns="http://www.w3.org/2000/svg">
<g clip-path="url(#clip0_327_6127)">
<path fill-rule="evenodd" clip-rule="evenodd" d="M12 18.0004L7.91559 20.1477C7.42675 20.4047 6.82212 20.2168 6.56512 19.7279C6.46278 19.5333 6.42746 19.3103 6.46464 19.0935L7.24469 14.5455L3.94036 11.3246C3.54487 10.9391 3.53678 10.306 3.92228 9.9105C4.07579 9.75301 4.27693 9.65052 4.49457 9.6189L9.06104 8.95535L11.1032 4.81742C11.3477 4.32217 11.9473 4.11883 12.4425 4.36325C12.6397 4.46058 12.7994 4.62021 12.8967 4.81742L14.9389 8.95535L19.5054 9.6189C20.0519 9.69832 20.4306 10.2058 20.3512 10.7523C20.3196 10.9699 20.2171 11.1711 20.0596 11.3246L16.7553 14.5455L17.5353 19.0935C17.6287 19.6379 17.2631 20.1548 16.7187 20.2482C16.502 20.2854 16.279 20.2501 16.0844 20.1477L12 18.0004Z" fill="#F9B411"/>
</g>
<defs>
<clipPath id="clip0_327_6127">
<rect width="24" height="24" fill="white"/>
</clipPath>
</defs>
</svg>
