<svg width="51" height="24" viewBox="0 0 51 24" fill="none" xmlns="http://www.w3.org/2000/svg">
<path fill-rule="evenodd" clip-rule="evenodd" d="M44.7345 12.2312C44.7345 9.46989 43.3969 7.29102 40.8405 7.29102C38.2733 7.29102 36.7201 9.46989 36.7201 12.2097C36.7201 15.4564 38.5538 17.096 41.1857 17.096C42.4693 17.096 43.4401 16.8047 44.1736 16.3948V14.2375C43.4401 14.6043 42.5987 14.8308 41.5309 14.8308C40.4846 14.8308 39.5569 14.464 39.4383 13.1912H44.7129C44.7129 13.051 44.7345 12.4901 44.7345 12.2312ZM39.4059 11.2065C39.4059 9.98765 40.1502 9.48068 40.8298 9.48068C41.4877 9.48068 42.1889 9.98765 42.1889 11.2065H39.4059Z" fill="#635BFF"/>
<path fill-rule="evenodd" clip-rule="evenodd" d="M32.5565 7.29102C31.4994 7.29102 30.8199 7.7872 30.4423 8.13236L30.3021 7.4636H27.9291V20.0407L30.6257 19.469L30.6365 16.4164C31.0248 16.6969 31.5965 17.096 32.5457 17.096C34.4765 17.096 36.2347 15.5427 36.2347 12.1234C36.2239 8.99529 34.4441 7.29102 32.5565 7.29102ZM31.9093 14.7229C31.2729 14.7229 30.8954 14.4964 30.6365 14.216L30.6257 10.2142C30.9062 9.90135 31.2945 9.68562 31.9093 9.68562C32.8909 9.68562 33.5704 10.7858 33.5704 12.1989C33.5704 13.6443 32.9017 14.7229 31.9093 14.7229Z" fill="#635BFF"/>
<path fill-rule="evenodd" clip-rule="evenodd" d="M24.2183 6.65495L26.9257 6.07248V3.88281L24.2183 4.4545V6.65495Z" fill="#635BFF"/>
<path d="M26.9257 7.47461H24.2183V16.9128H26.9257V7.47461Z" fill="#635BFF"/>
<path fill-rule="evenodd" clip-rule="evenodd" d="M21.3163 8.27298L21.1437 7.47478H18.8138V16.913H21.5105V10.5166C22.1469 9.68601 23.2255 9.83702 23.5599 9.95568V7.47478C23.2147 7.34534 21.9527 7.10803 21.3163 8.27298Z" fill="#635BFF"/>
<path fill-rule="evenodd" clip-rule="evenodd" d="M15.9233 5.13477L13.2914 5.69566L13.2806 14.3357C13.2806 15.9321 14.4779 17.1078 16.0743 17.1078C16.9588 17.1078 17.606 16.946 17.962 16.7518V14.5622C17.6168 14.7024 15.9126 15.1986 15.9126 13.6022V9.77297H17.962V7.47544H15.9126L15.9233 5.13477Z" fill="#635BFF"/>
<path fill-rule="evenodd" clip-rule="evenodd" d="M8.6317 10.2142C8.6317 9.79349 8.97687 9.63169 9.54855 9.63169C10.3683 9.63169 11.4038 9.87978 12.2236 10.322V7.7872C11.3283 7.43124 10.4438 7.29102 9.54855 7.29102C7.35889 7.29102 5.90271 8.43439 5.90271 10.3436C5.90271 13.3207 10.0016 12.8461 10.0016 14.1297C10.0016 14.6258 9.57013 14.7876 8.96608 14.7876C8.0708 14.7876 6.92743 14.4209 6.02136 13.9247V16.4919C7.02451 16.9234 8.03844 17.1067 8.96608 17.1067C11.2097 17.1067 12.7521 15.9957 12.7521 14.0649C12.7414 10.8506 8.6317 11.4223 8.6317 10.2142Z" fill="#635BFF"/>
</svg>
