<svg width="20" height="20" viewBox="0 0 20 20" fill="none" xmlns="http://www.w3.org/2000/svg">
<path opacity="0.3" d="M13.3334 14.1667C13.7937 14.1667 14.1667 13.7936 14.1667 13.3333C14.1667 12.8731 13.7937 12.5 13.3334 12.5L5.00008 12.5C4.53984 12.5 4.16675 12.8731 4.16675 13.3333C4.16675 13.7936 4.53984 14.1667 5.00008 14.1667L13.3334 14.1667Z" fill="#3968BF"/>
<path d="M11.9108 11.4224C11.5854 11.097 11.5854 10.5694 11.9108 10.2439C12.2363 9.91848 12.7639 9.91848 13.0893 10.2439L15.5893 12.7439C15.9148 13.0694 15.9148 13.597 15.5893 13.9224L13.0893 16.4224C12.7639 16.7479 12.2363 16.7479 11.9108 16.4224C11.5854 16.097 11.5854 15.5694 11.9108 15.2439L13.8216 13.3332L11.9108 11.4224Z" fill="#3968BF"/>
<path opacity="0.3" d="M6.66659 7.50016C6.20635 7.50016 5.83325 7.12707 5.83325 6.66683C5.83325 6.20659 6.20635 5.8335 6.66659 5.8335L14.9999 5.8335C15.4602 5.8335 15.8333 6.20659 15.8333 6.66683C15.8333 7.12707 15.4602 7.50016 14.9999 7.50016L6.66659 7.50016Z" fill="#3968BF"/>
<path d="M8.08917 4.75592C8.41461 4.43049 8.41461 3.90285 8.08917 3.57741C7.76374 3.25197 7.2361 3.25197 6.91066 3.57741L4.41066 6.07741C4.08523 6.40285 4.08523 6.93049 4.41066 7.25592L6.91066 9.75592C7.2361 10.0814 7.76374 10.0814 8.08917 9.75592C8.41461 9.43049 8.41461 8.90285 8.08917 8.57741L6.17843 6.66667L8.08917 4.75592Z" fill="#3968BF"/>
</svg>
