<svg width="35" height="46" viewBox="0 0 35 46" fill="none" xmlns="http://www.w3.org/2000/svg">
<g clip-path="url(#clip0_133_3907)">
<path d="M0 0C11.4138 0 22.8276 0 34.5873 0C34.5873 15.18 34.5873 30.36 34.5873 46C23.1735 46 11.7597 46 0 46C0 30.82 0 15.64 0 0Z" fill="#DAC05F"/>
<path d="M0 0C11.4138 0 22.8276 0 34.5873 0C34.5873 15.18 34.5873 30.36 34.5873 46C23.1735 46 11.7597 46 0 46C0 30.82 0 15.64 0 0ZM1.51392 1.16456C1.51392 15.5759 1.51392 29.9873 1.51392 44.8354C11.9286 44.8354 22.3432 44.8354 33.0734 44.8354C33.0734 30.4241 33.0734 16.0127 33.0734 1.16456C22.6588 1.16456 12.2442 1.16456 1.51392 1.16456Z" fill="#D0B854"/>
<path d="M1.51367 1.16455C11.9283 1.16455 22.3429 1.16455 33.0732 1.16455C33.0732 15.5759 33.0732 29.9873 33.0732 44.8354C22.6585 44.8354 12.2439 44.8354 1.51367 44.8354C1.51367 30.424 1.51367 16.0127 1.51367 1.16455ZM1.97949 1.63037C1.97949 15.7343 1.97949 29.8383 1.97949 44.3696C12.0867 44.3696 22.1939 44.3696 32.6073 44.3696C32.6073 30.2657 32.6073 16.1617 32.6073 1.63037C22.5002 1.63037 12.393 1.63037 1.97949 1.63037Z" fill="black"/>
<path d="M22.6504 8.67598C23.1506 8.6719 23.6507 8.66881 24.1509 8.66693C24.3832 8.66602 24.6156 8.6648 24.8479 8.6628C25.0729 8.66088 25.298 8.65985 25.523 8.6594C25.608 8.65909 25.6931 8.65847 25.7781 8.65751C26.7926 8.64657 27.851 8.75505 28.6224 9.48753C29.2361 10.167 29.2848 10.8354 29.2443 11.7217C29.2151 12.0449 29.1097 12.3046 28.939 12.5772C28.9117 12.621 28.8844 12.6648 28.8562 12.7098C28.3685 13.4139 27.6122 13.7643 26.7846 13.9165C26.2298 13.9656 25.5762 14.0037 25.096 13.6836C25.096 15.0286 25.096 16.3737 25.096 17.7595C25.3842 17.7595 25.6724 17.7595 25.9694 17.7595C25.9694 17.8364 25.9694 17.9132 25.9694 17.9924C24.8741 17.9924 23.7788 17.9924 22.6504 17.9924C22.6504 17.9156 22.6504 17.8387 22.6504 17.7595C22.9194 17.7595 23.1884 17.7595 23.4656 17.7595C23.4656 14.8388 23.4656 11.9181 23.4656 8.90889C23.1966 8.90889 22.9276 8.90889 22.6504 8.90889C22.6504 8.83203 22.6504 8.75517 22.6504 8.67598Z" fill="#020201"/>
<path d="M17.967 8.79605C18.6079 9.19579 18.8807 9.85703 19.0765 10.5611C19.1051 10.6892 19.1316 10.8179 19.1566 10.9468C19.1685 11.0063 19.1685 11.0063 19.1807 11.0669C19.5341 12.9026 19.641 15.6131 18.6735 17.2696C18.4314 17.6127 18.1661 17.8251 17.7591 17.9342C17.3493 17.9825 16.9794 17.9914 16.6396 17.737C16.1511 17.2926 15.9042 16.8184 15.743 16.1837C15.7311 16.1404 15.7193 16.097 15.707 16.0523C15.4882 15.2113 15.4666 14.3719 15.47 13.5089C15.4701 13.4536 15.4702 13.3984 15.4704 13.3414C15.4805 10.2035 15.4805 10.2035 16.4319 9.17794C16.8662 8.77532 17.3799 8.55335 17.967 8.79605Z" fill="#E4C86B"/>
<path d="M17.3632 8.49033C17.427 8.48926 17.427 8.48926 17.4921 8.48817C18.2714 8.4861 18.933 8.82042 19.489 9.3551C19.5333 9.39999 19.5776 9.44487 19.6232 9.49112C19.6842 9.55124 19.6842 9.55124 19.7465 9.61258C20.7556 10.6689 21.1107 12.1554 21.1036 13.5768C21.0659 14.9541 20.5257 16.3206 19.5559 17.3046C18.8529 17.958 18.1549 18.2178 17.2056 18.1871C16.5751 18.1497 16.0908 17.919 15.6055 17.5266C15.5655 17.4968 15.5256 17.467 15.4845 17.4363C14.534 16.6822 13.9832 15.292 13.8168 14.1171C13.6846 12.4975 14.0328 10.9928 15.0814 9.72403C15.1186 9.67569 15.1559 9.62736 15.1942 9.57755C15.7139 8.95158 16.5518 8.49103 17.3632 8.49033ZM16.2976 9.33486C15.4629 10.5221 15.4726 12.1001 15.4672 13.4906C15.4667 13.5432 15.4663 13.5958 15.4658 13.65C15.4574 14.8939 15.4993 16.5772 16.4218 17.5318C16.8054 17.8799 17.0532 17.9584 17.5741 17.9485C17.9326 17.9208 18.2064 17.7741 18.4723 17.5334C19.6132 16.1653 19.4498 13.6694 19.3131 11.9961C19.1975 10.9393 19.0289 9.62711 18.1507 8.91794C17.4787 8.4638 16.7706 8.76889 16.2976 9.33486Z" fill="#020201"/>
<path d="M5.41548 8.67596C7.70209 8.67596 9.9887 8.67596 12.3446 8.67596C12.4137 8.81419 12.4099 8.89737 12.4094 9.05152C12.4094 9.13194 12.4094 9.13194 12.4094 9.21399C12.4091 9.27198 12.4088 9.32997 12.4085 9.38971C12.4084 9.449 12.4083 9.50828 12.4083 9.56937C12.4079 9.75923 12.4072 9.94908 12.4065 10.1389C12.4062 10.2674 12.4059 10.396 12.4057 10.5245C12.405 10.8399 12.4041 11.1554 12.4028 11.4709C12.326 11.4709 12.2491 11.4709 12.1699 11.4709C12.166 11.4168 12.166 11.4168 12.162 11.3616C12.1496 11.1954 12.1361 11.0293 12.1226 10.8631C12.1185 10.8064 12.1144 10.7497 12.1102 10.6913C12.0636 10.1341 11.9677 9.63761 11.5294 9.25824C10.9776 8.9505 10.3413 8.95294 9.72435 8.90888C9.72435 11.8296 9.72435 14.7503 9.72435 17.7595C10.051 17.7595 10.3777 17.7595 10.7142 17.7595C10.7142 17.8364 10.7142 17.9132 10.7142 17.9924C9.50366 17.9924 8.29311 17.9924 7.04586 17.9924C7.04586 17.9156 7.04586 17.8387 7.04586 17.7595C7.39174 17.7595 7.73761 17.7595 8.09397 17.7595C8.09397 14.8388 8.09397 11.9181 8.09397 8.90888C6.99188 8.93687 6.99188 8.93687 6.08874 9.44384C5.91596 9.67032 5.83508 9.91654 5.76485 10.1899C5.75497 10.2257 5.74509 10.2614 5.73491 10.2983C5.70594 10.4258 5.69473 10.5443 5.6882 10.6748C5.68576 10.7214 5.68332 10.7679 5.68081 10.8158C5.67852 10.8639 5.67623 10.9119 5.67387 10.9614C5.67136 11.0103 5.66884 11.0593 5.66625 11.1097C5.66009 11.2301 5.65422 11.3505 5.6484 11.4709C5.55232 11.4709 5.45624 11.4709 5.35726 11.4709C5.35578 11.232 5.35475 10.993 5.35406 10.7541C5.35377 10.6733 5.35338 10.5925 5.35286 10.5117C5.34906 9.89597 5.37922 9.29243 5.41548 8.67596Z" fill="#010100"/>
<path d="M14.3238 31.676C14.7621 31.8528 15.0771 32.1957 15.2893 32.6149C15.448 33.0026 15.538 33.3549 15.5466 33.7722C15.5483 33.8132 15.55 33.8543 15.5518 33.8966C15.5895 34.8242 15.5197 35.7427 14.9133 36.4943C14.6463 36.7832 14.4418 36.9301 14.0399 36.9529C13.7334 36.9411 13.5485 36.8808 13.3191 36.6776C13.0035 36.3345 12.8075 35.9698 12.6934 35.519C12.6836 35.4823 12.6738 35.4455 12.6637 35.4077C12.5776 35.0615 12.5566 34.7322 12.5587 34.3763C12.5591 34.3203 12.5594 34.2643 12.5597 34.2067C12.5719 33.4838 12.6658 32.8559 13.101 32.2582C13.137 32.2042 13.173 32.1502 13.2102 32.0945C13.5319 31.7633 13.8567 31.588 14.3238 31.676Z" fill="#070602"/>
<path d="M25.0967 8.90887C25.8531 8.90887 26.5082 8.91673 27.0923 9.43361C27.7259 10.1083 27.7487 10.8042 27.7365 11.689C27.7145 12.3011 27.5259 12.783 27.0889 13.2248C26.6737 13.577 26.3056 13.6577 25.7658 13.6583C25.5625 13.6253 25.5625 13.6253 25.0967 13.3924C25.0967 11.9128 25.0967 10.4333 25.0967 8.90887Z" fill="#CDB551"/>
<path d="M5.93945 25.8531C7.56983 25.8531 7.56983 25.8531 8.03566 26.0278C8.31652 26.3207 8.40362 26.4888 8.39731 26.8831C8.37075 27.1742 8.24097 27.3515 8.02474 27.5345C7.9707 27.5753 7.91665 27.6161 7.86097 27.6582C7.8919 27.671 7.92282 27.6837 7.95468 27.6969C8.24685 27.828 8.43048 27.9336 8.55971 28.2405C8.60642 28.5857 8.63455 28.9362 8.43597 29.2376C8.20952 29.4961 7.95982 29.5716 7.62806 29.638C7.07082 29.638 6.51358 29.638 5.93945 29.638C5.93945 28.389 5.93945 27.14 5.93945 25.8531Z" fill="#C9B14F"/>
<path d="M26.0859 20.4962C26.3467 20.4894 26.6075 20.4853 26.8684 20.4817C26.9417 20.4797 27.0151 20.4778 27.0907 20.4757C27.6207 20.4702 28.004 20.5452 28.4332 20.8601C28.8452 21.2817 28.9016 21.75 28.8975 22.3195C28.8652 22.7367 28.7299 23.1765 28.4151 23.4658C28.0345 23.712 27.7463 23.823 27.2914 23.8209C27.2213 23.8207 27.1511 23.8205 27.0788 23.8203C27.0057 23.8198 26.9327 23.8193 26.8575 23.8188C26.7835 23.8186 26.7096 23.8183 26.6334 23.818C26.4509 23.8174 26.2684 23.8164 26.0859 23.8152C26.0859 23.7768 26.0859 23.7383 26.0859 23.6987C26.182 23.6987 26.2781 23.6987 26.3771 23.6987C26.3771 22.6611 26.3771 21.6235 26.3771 20.5544C26.281 20.5544 26.1849 20.5544 26.0859 20.5544C26.0859 20.5352 26.0859 20.516 26.0859 20.4962Z" fill="black"/>
<path d="M5.76428 20.4962C6.0294 20.489 6.29446 20.4837 6.55966 20.4802C6.64968 20.4788 6.7397 20.4768 6.8297 20.4743C7.73279 20.4495 7.73279 20.4495 8.07315 20.7129C8.26721 20.897 8.26721 20.897 8.28764 21.0578C8.29378 21.5559 8.29378 21.5559 8.16982 21.7809C8.03419 21.8945 7.90047 21.9858 7.74403 22.0684C7.77495 22.0811 7.80588 22.0939 7.83774 22.107C8.12908 22.2378 8.30591 22.3484 8.44276 22.6506C8.48988 22.924 8.47078 23.1176 8.34814 23.3676C8.14459 23.5979 7.93318 23.7617 7.62757 23.8152C7.4793 23.82 7.33271 23.822 7.1845 23.8209C7.14218 23.8208 7.09986 23.8207 7.05625 23.8206C6.92158 23.8203 6.78692 23.8196 6.65226 23.8188C6.56075 23.8186 6.46923 23.8183 6.37772 23.818C6.15383 23.8174 5.92994 23.8164 5.70605 23.8152C5.70605 23.7768 5.70605 23.7383 5.70605 23.6988C5.82135 23.6988 5.93664 23.6988 6.05542 23.6988C6.05542 22.6611 6.05542 21.6235 6.05542 20.5544C5.95935 20.5544 5.86327 20.5544 5.76428 20.5544C5.76428 20.5352 5.76428 20.516 5.76428 20.4962Z" fill="#060502"/>
<path d="M8.08055 31.8277C8.43117 32.0476 8.67994 32.3859 8.79225 32.7823C8.85995 33.3789 8.733 33.8422 8.38102 34.3253C7.98949 34.7995 7.50241 35.1849 7.02244 35.5654C6.84624 35.7144 6.68453 35.8799 6.52137 36.043C7.58781 36.0719 7.58781 36.0719 8.6758 36.1013C8.69501 35.8899 8.71423 35.6785 8.73402 35.4608C8.79167 35.4608 8.84931 35.4608 8.90871 35.4608C8.89085 35.6706 8.87253 35.8805 8.85412 36.0903C8.84905 36.15 8.84399 36.2096 8.83877 36.2711C8.8337 36.3283 8.82863 36.3855 8.82341 36.4445C8.81884 36.4972 8.81426 36.55 8.80955 36.6043C8.79225 36.7418 8.79225 36.7418 8.73402 36.9164C7.79248 36.9164 6.85094 36.9164 5.88086 36.9164C5.96939 36.2967 6.29775 35.9636 6.73517 35.5381C7.44422 34.829 7.8773 34.0813 7.88328 33.0699C7.87671 32.6889 7.81055 32.3892 7.56947 32.0835C7.37452 31.9044 7.19298 31.8774 6.92828 31.8884C6.67119 31.9338 6.50938 32.0968 6.32849 32.2728C6.19723 32.4867 6.18889 32.6496 6.172 32.8987C6.23805 32.9071 6.3041 32.9155 6.37216 32.9242C6.57959 32.957 6.57959 32.957 6.63782 33.0152C6.6476 33.1314 6.6476 33.1314 6.64874 33.2736C6.64956 33.3203 6.65039 33.3671 6.65124 33.4153C6.63782 33.5392 6.63782 33.5392 6.52137 33.6557C6.35396 33.6812 6.35396 33.6812 6.172 33.6557C6.01803 33.5034 5.94634 33.4032 5.90611 33.189C5.90664 32.75 5.95397 32.4334 6.23023 32.0835C6.37216 31.9452 6.37216 31.9452 6.52137 31.8506C6.5694 31.817 6.61744 31.7834 6.66694 31.7487C7.12802 31.5841 7.6375 31.6238 8.08055 31.8277Z" fill="#070603"/>
<path d="M14.2005 31.8227C14.324 31.8507 14.324 31.8507 14.466 31.9707C14.7362 32.4788 14.7406 33.0549 14.7414 33.6182C14.7416 33.6685 14.7418 33.7188 14.742 33.7707C14.7423 33.8765 14.7424 33.9823 14.7424 34.0882C14.7425 34.2475 14.7436 34.4068 14.7447 34.5661C14.7501 36.2011 14.7501 36.2011 14.4145 36.6617C14.2755 36.7847 14.1543 36.8164 13.9706 36.8216C13.7691 36.7829 13.685 36.6685 13.5671 36.5089C13.3576 36.1004 13.3823 35.6439 13.3806 35.1965C13.3802 35.1314 13.3799 35.0664 13.3795 34.9993C13.379 34.8618 13.3786 34.7243 13.3784 34.5868C13.3778 34.3782 13.376 34.1697 13.3742 33.9612C13.3738 33.8271 13.3735 33.6929 13.3733 33.5588C13.3726 33.4973 13.3718 33.4358 13.3711 33.3724C13.3725 32.8777 13.4384 32.399 13.6617 31.9525C13.8442 31.8181 13.9771 31.8091 14.2005 31.8227Z" fill="#CBB450"/>
<path d="M21.2963 31.8277C21.648 32.0449 21.8996 32.3862 22.01 32.7823C22.0942 33.421 21.9313 33.8765 21.5494 34.3865C21.2123 34.7816 20.8122 35.1096 20.4145 35.4413C20.2903 35.5449 20.1673 35.6498 20.0448 35.7555C20.0103 35.785 19.9758 35.8145 19.9402 35.8449C19.8413 35.9346 19.8413 35.9346 19.7391 36.1013C20.4501 36.1013 21.1611 36.1013 21.8936 36.1013C21.9128 35.8899 21.932 35.6785 21.9518 35.4608C22.0094 35.4608 22.0671 35.4608 22.1265 35.4608C22.1087 35.6816 22.0903 35.9023 22.0719 36.1231C22.0668 36.186 22.0618 36.2489 22.0565 36.3137C22.0515 36.3738 22.0464 36.4338 22.0412 36.4957C22.0366 36.5512 22.032 36.6067 22.0273 36.6638C22.01 36.8 22.01 36.8 21.9518 36.9165C21.0103 36.9165 20.0687 36.9165 19.0986 36.9165C19.2641 36.2545 19.579 35.8993 20.0598 35.4316C20.6295 34.8602 21.0863 34.1836 21.0976 33.3527C21.0972 33.311 21.0969 33.2692 21.0966 33.2263C21.0962 33.1827 21.0959 33.1392 21.0956 33.0944C21.0866 32.688 21.0493 32.3227 20.7508 32.0217C20.4986 31.8769 20.3145 31.8543 20.0303 31.9089C19.7483 32.0472 19.5944 32.2146 19.448 32.4911C19.4016 32.7085 19.4016 32.7085 19.3898 32.8987C19.4546 32.9047 19.5195 32.9107 19.5863 32.9169C19.6908 32.9367 19.6908 32.9367 19.7974 32.957C19.9138 33.1316 19.9138 33.1316 19.8993 33.3391C19.8556 33.5392 19.8556 33.5392 19.7391 33.6557C19.5681 33.6775 19.5681 33.6775 19.3898 33.6557C19.1922 33.4581 19.1468 33.2475 19.1387 32.9752C19.1432 32.586 19.2782 32.3363 19.5208 32.0399C20.0554 31.6024 20.6595 31.5379 21.2963 31.8277Z" fill="#070603"/>
<path d="M11.0635 20.4962C11.3152 20.4919 11.5669 20.4887 11.8187 20.4866C11.9043 20.4857 11.9898 20.4845 12.0754 20.483C12.1987 20.4809 12.3219 20.4799 12.4453 20.4792C12.5564 20.4778 12.5564 20.4778 12.6698 20.4764C12.9478 20.5041 13.0925 20.6092 13.2943 20.7946C13.4319 21.029 13.431 21.2206 13.3926 21.4861C13.3155 21.7052 13.2579 21.8055 13.0723 21.9446C12.9268 22.0101 12.9268 22.0101 12.7521 22.0101C12.7521 22.0486 12.7521 22.087 12.7521 22.1266C12.7845 22.129 12.8169 22.1314 12.8503 22.1339C13.0567 22.212 13.1473 22.36 13.2761 22.5342C13.3265 22.6851 13.3446 22.7869 13.3528 22.9425C13.3552 22.9866 13.3577 23.0307 13.3602 23.0761C13.3625 23.1218 13.3648 23.1676 13.3671 23.2147C13.3696 23.2611 13.3721 23.3076 13.3747 23.3554C13.3809 23.4698 13.3868 23.5843 13.3926 23.6987C13.5079 23.6987 13.6232 23.6987 13.742 23.6987C13.742 23.7372 13.742 23.7756 13.742 23.8152C13.5068 23.8318 13.2779 23.8411 13.0432 23.8152C12.7311 23.5394 12.7268 23.2195 12.6998 22.827C12.6776 22.6048 12.6463 22.4911 12.5146 22.3042C12.3148 22.1442 12.3148 22.1442 11.8787 22.1266C11.8787 22.6454 11.8787 23.1642 11.8787 23.6987C11.994 23.6987 12.1092 23.6987 12.228 23.6987C12.228 23.7372 12.228 23.7756 12.228 23.8152C11.8437 23.8152 11.4594 23.8152 11.0635 23.8152C11.0635 23.7768 11.0635 23.7383 11.0635 23.6987C11.1596 23.6987 11.2556 23.6987 11.3546 23.6987C11.3546 22.6611 11.3546 21.6235 11.3546 20.5544C11.2585 20.5544 11.1625 20.5544 11.0635 20.5544C11.0635 20.5352 11.0635 20.516 11.0635 20.4962Z" fill="#060502"/>
<path d="M27.8328 31.5595C27.8904 31.5595 27.9481 31.5595 28.0075 31.5595C27.8863 31.8079 27.744 32.0408 27.5999 32.2764C27.5714 32.323 27.543 32.3695 27.5137 32.4174C27.2876 32.7849 27.0514 33.1446 26.8101 33.5022C26.5821 33.8406 26.3639 34.1853 26.1442 34.5291C26.5477 34.5291 26.9512 34.5291 27.367 34.5291C27.3453 34.2553 27.3453 34.2553 27.3233 33.976C27.2996 33.3502 27.5028 32.9966 27.9072 32.5355C27.9595 32.4824 28.0118 32.4294 28.0657 32.3747C28.0849 32.3747 28.1041 32.3747 28.1239 32.3747C28.1239 33.0857 28.1239 33.7966 28.1239 34.5291C28.3353 34.5291 28.5466 34.5291 28.7644 34.5291C28.7644 34.7021 28.7644 34.875 28.7644 35.0532C28.5531 35.0532 28.3417 35.0532 28.1239 35.0532C28.1239 35.6104 28.1239 36.1677 28.1239 36.7418C28.3353 36.7418 28.5466 36.7418 28.7644 36.7418C28.7644 36.7802 28.7644 36.8186 28.7644 36.8582C28.1111 36.8582 27.4578 36.8582 26.7847 36.8582C26.7847 36.8198 26.7847 36.7814 26.7847 36.7418C26.9768 36.7418 27.169 36.7418 27.367 36.7418C27.367 36.1845 27.367 35.6273 27.367 35.0532C26.7905 35.0532 26.214 35.0532 25.6201 35.0532C25.7219 34.7988 25.8386 34.596 25.9915 34.3731C26.0443 34.2951 26.097 34.2171 26.1497 34.1391C26.1773 34.0983 26.205 34.0574 26.2335 34.0153C26.3782 33.8006 26.5203 33.5842 26.6625 33.3678C26.6913 33.3239 26.7202 33.2801 26.7499 33.235C26.8084 33.146 26.8669 33.057 26.9254 32.968C27.0152 32.8313 27.1052 32.6947 27.1951 32.558C27.2529 32.4701 27.3107 32.3821 27.3685 32.2942C27.4084 32.2337 27.4084 32.2337 27.449 32.172C27.474 32.134 27.4989 32.096 27.5246 32.0569C27.5595 32.0039 27.5595 32.0039 27.5952 31.9498C27.6514 31.8612 27.7024 31.7694 27.7526 31.6774C27.7791 31.6385 27.8055 31.5996 27.8328 31.5595Z" fill="#010100"/>
<path d="M16.7904 25.8519C16.9441 25.9114 16.9441 25.9114 17.0437 26.0936C17.0745 26.1751 17.104 26.257 17.1324 26.3393C17.1487 26.3833 17.165 26.4273 17.1818 26.4726C17.2347 26.6163 17.2859 26.7606 17.3371 26.9049C17.373 27.0034 17.409 27.1019 17.4451 27.2003C17.517 27.3966 17.5883 27.5932 17.6592 27.7899C17.7467 28.0322 17.837 28.2731 17.929 28.5137C17.9535 28.578 17.9781 28.6423 18.0034 28.7085C18.0483 28.8258 18.0933 28.9431 18.1384 29.0603C18.1676 29.1375 18.1676 29.1375 18.1974 29.2163C18.2141 29.2602 18.2309 29.3041 18.2482 29.3494C18.2833 29.4633 18.2833 29.4633 18.2833 29.638C18.2257 29.638 18.1681 29.638 18.1087 29.638C17.9549 29.2345 17.8012 28.831 17.6428 28.4152C17.0664 28.4152 16.4899 28.4152 15.896 28.4152C15.7423 28.8187 15.5886 29.2223 15.4302 29.638C15.3533 29.638 15.2765 29.638 15.1973 29.638C15.3399 29.197 15.5014 28.7645 15.6667 28.3315C15.6949 28.2577 15.723 28.1839 15.7511 28.11C15.809 27.958 15.867 27.806 15.9251 27.6541C15.9829 27.5028 16.0406 27.3514 16.0982 27.2C16.1786 26.9888 16.2593 26.7776 16.34 26.5665C16.3648 26.5014 16.3895 26.4363 16.4151 26.3692C16.4379 26.3097 16.4607 26.2502 16.4842 26.1889C16.5042 26.1365 16.5242 26.0842 16.5448 26.0302C16.6191 25.8535 16.6191 25.8535 16.7904 25.8519Z" fill="#0D0C06"/>
<path d="M26.96 20.5544C27.3888 20.5544 27.5178 20.5946 27.8334 20.8456C28.2654 21.3004 28.2592 21.8545 28.2535 22.45C28.2261 22.8897 28.0943 23.2195 27.7752 23.5241C27.4669 23.6953 27.3305 23.6987 26.96 23.6987C26.96 22.6611 26.96 21.6235 26.96 20.5544Z" fill="#DDC266"/>
<path d="M19.1572 26.0278C19.419 26.023 19.6808 26.0182 19.9506 26.0133C20.0325 26.0111 20.1145 26.009 20.1989 26.0068C20.8707 26.0009 20.8707 26.0009 21.137 26.2607C21.3161 26.4437 21.3382 26.5825 21.3408 26.8357C21.3352 27.0646 21.3259 27.2223 21.1806 27.4035C20.9172 27.631 20.7576 27.6728 20.4082 27.6696C20.3426 27.6693 20.277 27.669 20.2094 27.6687C20.1264 27.6676 20.0434 27.6666 19.9579 27.6655C19.6937 27.6631 19.4294 27.6607 19.1572 27.6582C19.1572 27.1202 19.1572 26.5822 19.1572 26.0278Z" fill="#E7CA6E"/>
<path d="M17.7592 20.438C17.8687 20.4507 17.8687 20.4507 17.9921 20.4962C18.0551 20.6092 18.0551 20.6092 18.1031 20.7592C18.1308 20.8432 18.1308 20.8432 18.159 20.9289C18.178 20.9899 18.197 21.0509 18.2166 21.1137C18.2368 21.1762 18.257 21.2386 18.2778 21.3029C18.3205 21.4353 18.3627 21.5678 18.4045 21.7004C18.4683 21.903 18.5334 22.1052 18.5988 22.3073C18.6401 22.4359 18.6813 22.5645 18.7224 22.6932C18.7418 22.7536 18.7611 22.814 18.7811 22.8763C18.8669 23.1494 18.9467 23.4135 18.9819 23.6987C19.0588 23.6987 19.1357 23.6987 19.2149 23.6987C19.2149 23.7372 19.2149 23.7756 19.2149 23.8152C18.8113 23.8152 18.4078 23.8152 17.9921 23.8152C17.9921 23.7768 17.9921 23.7383 17.9921 23.6987C18.1074 23.6987 18.2227 23.6987 18.3414 23.6987C18.3253 23.6566 18.3092 23.6144 18.2925 23.5709C18.2714 23.5146 18.2504 23.4583 18.2286 23.4003C18.2077 23.3449 18.1867 23.2895 18.1652 23.2325C18.1085 23.0582 18.1085 23.0582 18.0503 22.7089C17.7621 22.7281 17.4738 22.7473 17.1769 22.7671C17.1481 22.8572 17.1192 22.9472 17.0895 23.04C17.0733 23.0907 17.0571 23.1414 17.0404 23.1936C17.0023 23.349 16.9953 23.4812 17.0022 23.6405C17.1175 23.6597 17.2328 23.679 17.3516 23.6987C17.3516 23.7372 17.3516 23.7756 17.3516 23.8152C17.0441 23.8152 16.7367 23.8152 16.4199 23.8152C16.4199 23.7768 16.4199 23.7383 16.4199 23.6987C16.4655 23.6947 16.5111 23.6907 16.5581 23.6865C16.7187 23.6568 16.7187 23.6568 16.7812 23.5253C16.7971 23.4744 16.813 23.4235 16.8293 23.371C16.848 23.3129 16.8667 23.2548 16.886 23.1949C16.9147 23.0984 16.9147 23.0984 16.944 23C16.9649 22.9323 16.9859 22.8646 17.0074 22.7949C17.0751 22.5737 17.1408 22.3521 17.206 22.1302C17.6262 20.7039 17.6262 20.7039 17.7592 20.438Z" fill="#060503"/>
<path d="M6.11426 26.0279C6.33523 26.0243 6.55621 26.0206 6.78388 26.0169C6.88695 26.0146 6.88695 26.0146 6.99211 26.0121C7.40167 26.0089 7.77748 26.0144 8.09219 26.3104C8.21038 26.5566 8.19222 26.8107 8.15223 27.076C8.05042 27.3107 7.88834 27.4124 7.65912 27.5211C7.35108 27.6312 7.04886 27.6191 6.72565 27.6109C6.52389 27.6073 6.32213 27.6037 6.11426 27.6C6.11426 27.0812 6.11426 26.5624 6.11426 26.0279Z" fill="#CAB350"/>
<path d="M21.0205 20.438C21.1882 20.4237 21.3547 20.4134 21.5227 20.4052C21.5698 20.4008 21.6168 20.3964 21.6653 20.3919C21.814 20.3865 21.9266 20.3926 22.0686 20.438C22.2263 20.588 22.3153 20.7718 22.418 20.962C22.4787 21.0614 22.5394 21.1607 22.6008 21.2596C22.6896 21.403 22.7768 21.5474 22.8641 21.6917C22.9319 21.804 22.9999 21.9161 23.0679 22.0282C23.3987 22.5742 23.3987 22.5742 23.4661 22.7089C23.4661 21.9979 23.4661 21.2869 23.4661 20.5544C23.3508 20.5544 23.2355 20.5544 23.1167 20.5544C23.1167 20.516 23.1167 20.4776 23.1167 20.438C23.4242 20.438 23.7316 20.438 24.0484 20.438C24.0484 20.4764 24.0484 20.5148 24.0484 20.5544C23.9331 20.5736 23.8178 20.5929 23.699 20.6127C23.6414 20.7855 23.6319 20.9045 23.6288 21.0851C23.6276 21.1457 23.6265 21.2063 23.6253 21.2688C23.6238 21.3668 23.6238 21.3668 23.6223 21.4667C23.6211 21.5337 23.6199 21.6007 23.6187 21.6696C23.6149 21.8838 23.6114 22.098 23.608 22.3122C23.6055 22.4573 23.603 22.6023 23.6004 22.7474C23.5941 23.1033 23.5882 23.4593 23.5825 23.8152C23.3063 23.7758 23.3063 23.7758 23.1723 23.6066C23.134 23.5404 23.0957 23.4742 23.0562 23.406C23.0349 23.3698 23.0135 23.3336 22.9916 23.2963C22.9232 23.1798 22.8562 23.0627 22.7892 22.9454C22.7455 22.8703 22.7018 22.7953 22.6579 22.7203C22.5197 22.4836 22.3815 22.2469 22.2433 22.0101C22.0319 21.6643 21.8206 21.3184 21.6028 20.962C21.6028 21.8459 21.6028 22.7298 21.6028 23.6405C21.7373 23.6597 21.8718 23.6789 22.0104 23.6987C22.0104 23.7179 22.0104 23.7372 22.0104 23.757C21.7029 23.757 21.3955 23.757 21.0787 23.757C21.0787 23.7377 21.0787 23.7185 21.0787 23.6987C21.194 23.6603 21.3093 23.6219 21.4281 23.5823C21.4281 22.6023 21.4281 21.6223 21.4281 20.6127C21.2936 20.5934 21.1591 20.5742 21.0205 20.5544C21.0205 20.516 21.0205 20.4776 21.0205 20.438Z" fill="#030301"/>
<path d="M5.93945 25.8531C7.56983 25.8531 7.56983 25.8531 8.03566 26.0278C8.31652 26.3207 8.40362 26.4888 8.39731 26.8831C8.37075 27.1742 8.24097 27.3515 8.02474 27.5345C7.9707 27.5753 7.91665 27.6161 7.86097 27.6582C7.8919 27.671 7.92282 27.6837 7.95468 27.6969C8.24685 27.828 8.43048 27.9336 8.55971 28.2405C8.60642 28.5857 8.63455 28.9362 8.43597 29.2376C8.20952 29.4961 7.95982 29.5716 7.62806 29.638C7.07082 29.638 6.51358 29.638 5.93945 29.638C5.93945 28.389 5.93945 27.14 5.93945 25.8531ZM6.11414 26.0278C6.11414 26.5466 6.11414 27.0655 6.11414 27.6C6.3147 27.6048 6.51525 27.6096 6.72189 27.6145C6.784 27.6167 6.8461 27.6188 6.91009 27.621C7.36322 27.6262 7.71233 27.5336 8.06841 27.247C8.19901 26.9801 8.19458 26.7266 8.15211 26.4354C8.04393 26.2234 7.97222 26.1648 7.75179 26.0795C7.43634 25.9951 7.11124 26.0156 6.7874 26.0206C6.45413 26.0242 6.45413 26.0242 6.11414 26.0278ZM6.11414 27.7164C6.11414 28.2929 6.11414 28.8694 6.11414 29.4633C6.35553 29.4657 6.59692 29.4681 6.84562 29.4706C6.92095 29.4716 6.99628 29.4727 7.07389 29.4738C7.6383 29.4923 7.6383 29.4923 8.1371 29.2652C8.35526 28.9695 8.43519 28.7249 8.38502 28.3569C8.25381 28.0994 8.12523 27.9503 7.86097 27.8329C7.471 27.7162 7.09726 27.7019 6.69278 27.7092C6.40635 27.7128 6.40635 27.7128 6.11414 27.7164Z" fill="#0B0904"/>
<path d="M18.9238 25.8531C20.7871 25.8531 20.7871 25.8531 21.2529 26.0861C21.5072 26.3534 21.5651 26.5765 21.5605 26.9354C21.5236 27.2514 21.3833 27.4762 21.151 27.6873C21.1078 27.7161 21.0646 27.745 21.02 27.7747C21.0444 27.7965 21.0687 27.8183 21.0938 27.8408C21.3984 28.1472 21.4283 28.4168 21.4458 28.8373C21.4527 28.9517 21.4598 29.066 21.467 29.1803C21.4693 29.2305 21.4717 29.2806 21.4741 29.3323C21.4817 29.4731 21.4817 29.4731 21.5441 29.638C21.4672 29.638 21.3904 29.638 21.3112 29.638C21.2589 29.4813 21.2402 29.3644 21.2279 29.2017C21.2236 29.151 21.2194 29.1004 21.215 29.0482C21.2064 28.9421 21.1982 28.8359 21.1904 28.7297C21.1591 28.3389 21.1591 28.3389 20.9618 28.0076C20.7418 27.8988 20.555 27.8742 20.3111 27.867C20.2503 27.8649 20.1896 27.8629 20.127 27.8607C20.0124 27.8578 20.0124 27.8578 19.8955 27.8547C19.6517 27.8475 19.4079 27.8403 19.1567 27.8329C19.1567 28.4286 19.1567 29.0242 19.1567 29.638C19.0799 29.638 19.003 29.638 18.9238 29.638C18.9238 28.389 18.9238 27.14 18.9238 25.8531ZM19.1567 26.0278C19.1567 26.5659 19.1567 27.1039 19.1567 27.6582C19.4185 27.663 19.6804 27.6678 19.9501 27.6728C20.073 27.676 20.073 27.676 20.1984 27.6792C20.7179 27.6918 20.7179 27.6918 21.1365 27.4253C21.3156 27.2424 21.3377 27.1036 21.3403 26.8503C21.3347 26.6214 21.3254 26.4637 21.1802 26.2826C20.9167 26.0551 20.7571 26.0133 20.4077 26.0165C20.3421 26.0168 20.2765 26.017 20.2089 26.0173C20.1259 26.0184 20.0429 26.0195 19.9574 26.0206C19.5611 26.0242 19.5611 26.0242 19.1567 26.0278Z" fill="#1B180D"/>
<path d="M7.43166 20.4707C7.77362 20.4776 8.03331 20.6684 8.26868 20.9038C8.30793 21.2128 8.32251 21.5048 8.17042 21.7808C8.03479 21.8945 7.90107 21.9858 7.74463 22.0683C7.77556 22.0811 7.80648 22.0938 7.83834 22.107C8.12968 22.2378 8.30651 22.3484 8.44337 22.6506C8.49049 22.924 8.47138 23.1176 8.34875 23.3675C8.05859 23.6959 7.82023 23.7829 7.3939 23.8106C7.35592 23.8121 7.31794 23.8136 7.27881 23.8152C7.24999 23.7287 7.24999 23.7287 7.22058 23.6405C7.27583 23.6285 7.33107 23.6165 7.38799 23.6041C7.57933 23.5419 7.57933 23.5419 7.65001 23.3785C7.70849 23.051 7.73666 22.74 7.62818 22.4213C7.45643 22.2442 7.28043 22.1996 7.0459 22.1266C7.19443 21.978 7.34019 21.8328 7.5008 21.6971C7.64498 21.5512 7.64498 21.5512 7.65729 21.3441C7.62532 21.1163 7.58316 20.9775 7.45349 20.7873C7.27588 20.6766 7.27588 20.6766 7.10413 20.6126C7.22058 20.4962 7.22058 20.4962 7.43166 20.4707Z" fill="#060502"/>
<path d="M27.4254 20.4962C27.8682 20.5278 28.1915 20.6294 28.5172 20.9402C28.8743 21.4268 28.9477 21.9417 28.8811 22.5342C28.7657 23.011 28.5964 23.3648 28.1715 23.626C27.9015 23.769 27.6705 23.8008 27.3672 23.8152C27.3672 23.7576 27.3672 23.6999 27.3672 23.6405C27.438 23.6117 27.5089 23.5829 27.5819 23.5532C27.8604 23.4144 28.0015 23.2244 28.1241 22.9418C28.2804 22.3502 28.2419 21.612 27.9713 21.0603C27.795 20.8608 27.599 20.7399 27.3672 20.6127C27.3864 20.5742 27.4056 20.5358 27.4254 20.4962Z" fill="#090704"/>
<path d="M11.0635 20.4962C11.4862 20.4962 11.9089 20.4962 12.3445 20.4962C12.3253 20.5346 12.3061 20.5731 12.2863 20.6127C12.1518 20.5935 12.0172 20.5742 11.8787 20.5544C11.8787 21.0348 11.8787 21.5152 11.8787 22.0101C11.994 22.0101 12.1092 22.0101 12.228 22.0101C12.2088 22.0486 12.1896 22.087 12.1698 22.1266C12.0737 22.1266 11.9777 22.1266 11.8787 22.1266C11.8787 22.6454 11.8787 23.1642 11.8787 23.6987C11.994 23.6987 12.1092 23.6987 12.228 23.6987C12.228 23.7372 12.228 23.7756 12.228 23.8152C11.8437 23.8152 11.4594 23.8152 11.0635 23.8152C11.0635 23.7768 11.0635 23.7383 11.0635 23.6987C11.1596 23.6987 11.2556 23.6987 11.3546 23.6987C11.3546 22.6611 11.3546 21.6235 11.3546 20.5544C11.2585 20.5544 11.1625 20.5544 11.0635 20.5544C11.0635 20.5352 11.0635 20.516 11.0635 20.4962Z" fill="#010100"/>
<path d="M28.1121 25.9337C28.3855 26.1344 28.5276 26.3937 28.5788 26.7266C28.5824 26.7842 28.586 26.8419 28.5897 26.9012C28.5129 26.9012 28.436 26.9012 28.3568 26.9012C28.3531 26.8675 28.3495 26.8337 28.3457 26.7989C28.2935 26.4659 28.2046 26.3009 27.9406 26.0915C27.6644 25.9284 27.3285 25.9277 27.0176 25.9696C26.7957 26.0614 26.6092 26.167 26.4819 26.3747C26.3894 26.6108 26.404 26.8265 26.5008 27.0577C26.7996 27.4262 27.2106 27.5143 27.6485 27.6363C28.408 27.8596 28.408 27.8596 28.6013 28.1824C28.7124 28.4595 28.6905 28.7936 28.6079 29.0764C28.4845 29.3506 28.3369 29.4967 28.0657 29.638C27.8481 29.7113 27.6315 29.708 27.4033 29.7107C27.3284 29.7122 27.2535 29.7137 27.1763 29.7153C26.865 29.6879 26.6312 29.579 26.4244 29.3432C26.2266 29.1013 26.1549 28.8321 26.0859 28.5316C26.2012 28.5028 26.2012 28.5028 26.3188 28.4734C26.3281 28.5121 26.3373 28.5507 26.3468 28.5905C26.4572 29.0083 26.594 29.2197 26.9594 29.4633C27.1606 29.4841 27.1606 29.4841 27.3851 29.4815C27.4983 29.4829 27.4983 29.4829 27.6137 29.4844C27.9221 29.4546 28.1104 29.366 28.3204 29.1394C28.4471 28.8714 28.4692 28.6484 28.4151 28.3569C28.1472 27.9462 27.594 27.8471 27.1486 27.7164C26.7798 27.6046 26.5585 27.5032 26.297 27.2142C26.1688 26.9479 26.1555 26.726 26.2024 26.4354C26.3582 26.1238 26.5678 25.9269 26.8829 25.7804C27.3382 25.6773 27.6998 25.7042 28.1121 25.9337Z" fill="#0E0D07"/>
<path d="M9.49121 25.8531C10.2406 25.8531 10.99 25.8531 11.7621 25.8531C11.7621 25.9108 11.7621 25.9684 11.7621 26.0278C11.0704 26.0278 10.3786 26.0278 9.66589 26.0278C9.66589 26.5466 9.66589 27.0655 9.66589 27.6C10.3 27.6 10.9341 27.6 11.5874 27.6C11.5874 27.6576 11.5874 27.7153 11.5874 27.7747C10.9533 27.7747 10.3192 27.7747 9.66589 27.7747C9.66589 28.3319 9.66589 28.8891 9.66589 29.4633C10.3769 29.4633 11.0878 29.4633 11.8203 29.4633C11.8203 29.5209 11.8203 29.5786 11.8203 29.638C11.0517 29.638 10.2831 29.638 9.49121 29.638C9.49121 28.389 9.49121 27.14 9.49121 25.8531Z" fill="#0C0A05"/>
<path d="M16.7111 26.1443C16.7495 26.1443 16.7879 26.1443 16.8275 26.1443C16.9354 26.4251 17.0432 26.706 17.1509 26.9869C17.1876 27.0826 17.2243 27.1782 17.2611 27.2738C17.3138 27.4109 17.3663 27.5481 17.4189 27.6853C17.4355 27.7283 17.452 27.7713 17.4691 27.8156C17.5845 28.1174 17.5845 28.1174 17.5845 28.1823C17.0465 28.1823 16.5084 28.1823 15.9541 28.1823C16.191 27.4953 16.4333 26.8157 16.7111 26.1443Z" fill="#DABF62"/>
<path d="M22.4762 25.8531C22.5339 25.8531 22.5915 25.8531 22.6509 25.8531C22.6512 25.8863 22.6516 25.9194 22.6519 25.9535C22.6557 26.3002 22.6606 26.6469 22.6662 26.9936C22.6681 27.1228 22.6697 27.2519 22.6711 27.3811C22.673 27.5674 22.6761 27.7537 22.6793 27.94C22.6799 28.0258 22.6799 28.0258 22.6805 28.1132C22.6883 28.4875 22.7067 28.9157 22.9683 29.2085C23.3611 29.5439 23.7915 29.4973 24.2813 29.4633C24.5412 29.3951 24.688 29.2528 24.8272 29.0266C24.943 28.777 24.9868 28.5858 24.992 28.3122C24.9931 28.2574 24.9943 28.2026 24.9955 28.1462C24.9965 28.0876 24.9974 28.0289 24.9984 27.9685C24.9996 27.908 25.0008 27.8476 25.0021 27.7854C25.0059 27.5926 25.0093 27.3998 25.0128 27.2069C25.0153 27.0762 25.0178 26.9454 25.0204 26.8146C25.0266 26.4941 25.0325 26.1736 25.0382 25.8531C25.0959 25.8531 25.1535 25.8531 25.2129 25.8531C25.2174 26.251 25.2204 26.6487 25.2225 27.0466C25.2234 27.1818 25.2246 27.317 25.2261 27.4522C25.2282 27.647 25.2292 27.8418 25.23 28.0367C25.2309 28.0967 25.2318 28.1567 25.2327 28.2185C25.2328 28.6251 25.1999 28.978 24.9295 29.3027C24.8716 29.3498 24.8716 29.3498 24.8126 29.3978C24.7743 29.43 24.736 29.4623 24.6966 29.4956C24.2885 29.7722 23.8219 29.7336 23.3496 29.6962C23.024 29.616 22.8367 29.4443 22.6513 29.1708C22.4608 28.7971 22.4608 28.4585 22.4648 28.0481C22.465 27.9852 22.4652 27.9224 22.4653 27.8577C22.466 27.6577 22.4674 27.4578 22.4689 27.2579C22.4695 27.122 22.47 26.9862 22.4705 26.8503C22.4718 26.5179 22.4738 26.1855 22.4762 25.8531Z" fill="#070603"/>
<path d="M6.69629 22.0684C7.37248 22.136 7.37248 22.136 7.62793 22.3595C7.78888 22.6189 7.77385 22.8787 7.74439 23.1747C7.66946 23.4036 7.61231 23.4936 7.41686 23.6332C7.22034 23.6987 7.22034 23.6987 6.69629 23.6987C6.69629 23.1607 6.69629 22.6227 6.69629 22.0684Z" fill="#D2B958"/>
<path d="M6.69629 20.5544C7.0798 20.5544 7.23246 20.5545 7.51148 20.7874C7.68422 21.0381 7.72455 21.2427 7.68616 21.5443C7.54754 21.7671 7.45938 21.8324 7.22034 21.9519C7.0474 21.9519 6.87447 21.9519 6.69629 21.9519C6.69629 21.4907 6.69629 21.0296 6.69629 20.5544Z" fill="#D4BB5B"/>
<path d="M11.8789 20.5544C12.3797 20.5544 12.3797 20.5544 12.6359 20.7291C12.8083 20.982 12.843 21.1834 12.8106 21.4861C12.7324 21.7119 12.6738 21.8096 12.4757 21.9446C12.2865 22.0101 12.2865 22.0101 11.8789 22.0101C11.8789 21.5298 11.8789 21.0494 11.8789 20.5544Z" fill="#D9BF64"/>
<path d="M12.752 25.8531C12.8096 25.8531 12.8672 25.8531 12.9266 25.8531C12.9266 27.0445 12.9266 28.2358 12.9266 29.4633C13.58 29.4633 14.2333 29.4633 14.9064 29.4633C14.9064 29.5209 14.9064 29.5786 14.9064 29.638C14.1954 29.638 13.4845 29.638 12.752 29.638C12.752 28.389 12.752 27.14 12.752 25.8531Z" fill="#0B0904"/>
<path d="M7.16202 31.6759C7.16202 31.7336 7.16202 31.7912 7.16202 31.8506C7.05933 31.8686 7.05933 31.8686 6.95458 31.887C6.67256 31.9601 6.46242 32.0786 6.2886 32.3164C6.22396 32.5089 6.19168 32.6969 6.17214 32.8987C6.23819 32.9071 6.30425 32.9155 6.3723 32.9242C6.57974 32.9569 6.57974 32.9569 6.63796 33.0152C6.64775 33.1314 6.64775 33.1314 6.64888 33.2736C6.64971 33.3203 6.65053 33.3671 6.65138 33.4153C6.63796 33.5392 6.63796 33.5392 6.52151 33.6557C6.3541 33.6812 6.3541 33.6812 6.17214 33.6557C6.01818 33.5034 5.94649 33.4032 5.90625 33.1889C5.90678 32.75 5.95412 32.4334 6.23037 32.0835C6.49212 31.8285 6.7876 31.6429 7.16202 31.6759Z" fill="#080703"/>
<path d="M20.3797 31.7342C20.3797 31.7726 20.3797 31.811 20.3797 31.8506C20.31 31.8638 20.2403 31.877 20.1686 31.8907C19.8665 31.9662 19.6692 32.1086 19.488 32.3674C19.4316 32.542 19.4108 32.7169 19.3898 32.8987C19.4546 32.9047 19.5195 32.9107 19.5863 32.9169C19.6908 32.9367 19.6908 32.9367 19.7974 32.957C19.9138 33.1316 19.9138 33.1316 19.8993 33.3391C19.8556 33.5392 19.8556 33.5392 19.7391 33.6557C19.5681 33.6775 19.5681 33.6775 19.3898 33.6557C19.1922 33.4581 19.1468 33.2475 19.1387 32.9752C19.1432 32.586 19.2782 32.3363 19.5208 32.0399C19.7799 31.8278 20.0395 31.6175 20.3797 31.7342Z" fill="#0C0A05"/>
<path d="M17.5847 21.4861C17.6939 21.6498 17.757 21.7902 17.8249 21.9737C17.8455 22.0282 17.866 22.0827 17.8872 22.1389C17.9341 22.3013 17.9341 22.3013 17.9341 22.5924C17.7035 22.5924 17.4729 22.5924 17.2354 22.5924C17.3033 22.1901 17.403 21.8512 17.5847 21.4861Z" fill="#E4C86F"/>
<path d="M28.1124 25.9337C28.3859 26.1344 28.528 26.3937 28.5792 26.7266C28.5828 26.7842 28.5864 26.8419 28.5901 26.9013C28.5132 26.9013 28.4364 26.9013 28.3572 26.9013C28.3535 26.8675 28.3498 26.8337 28.346 26.7989C28.2938 26.4659 28.205 26.3009 27.9409 26.0915C27.737 25.9711 27.5426 25.9605 27.3091 25.9587C27.2598 25.9579 27.2106 25.957 27.1599 25.9562C27.0161 25.9611 27.0161 25.9611 26.8942 26.0322C26.785 26.0861 26.785 26.0861 26.6104 26.0278C27.013 25.582 27.6186 25.6588 28.1124 25.9337Z" fill="#18150B"/>
<path d="M27.8329 31.5595C27.8905 31.5595 27.9482 31.5595 28.0076 31.5595C27.8864 31.8079 27.7441 32.0408 27.6 32.2764C27.5718 32.3226 27.5435 32.3687 27.5144 32.4163C27.326 32.7224 27.1331 33.0252 26.934 33.3245C26.9107 33.3597 26.8874 33.3948 26.8634 33.4309C26.4897 33.987 26.4897 33.987 26.2607 34.0633C26.354 33.7904 26.5021 33.5703 26.6627 33.3336C26.6905 33.2921 26.7184 33.2505 26.7471 33.2077C26.8358 33.0755 26.9249 32.9434 27.0141 32.8114C27.1029 32.6793 27.1917 32.5472 27.2804 32.4151C27.3356 32.333 27.3908 32.251 27.4461 32.1691C27.4714 32.1316 27.4966 32.0941 27.5226 32.0555C27.5463 32.0204 27.57 31.9854 27.5944 31.9493C27.6513 31.8613 27.7026 31.7696 27.753 31.6777C27.7793 31.6387 27.8057 31.5997 27.8329 31.5595Z" fill="#131009"/>
<path d="M7.1622 31.676C7.1622 31.7336 7.1622 31.7913 7.1622 31.8507C7.05951 31.8687 7.05951 31.8687 6.95476 31.8871C6.67291 31.9596 6.46582 32.0826 6.28878 32.3165C6.22527 32.4895 6.19224 32.6576 6.17232 32.8405C5.99644 32.6435 5.99644 32.6435 6.00128 32.4984C6.15656 32.1465 6.36861 31.9251 6.69637 31.7342C6.86688 31.6774 6.98496 31.6712 7.1622 31.676Z" fill="#211D0D"/>
<path d="M20.3794 31.7341C20.3794 31.7726 20.3794 31.811 20.3794 31.8506C20.3097 31.8638 20.2401 31.877 20.1683 31.8906C19.866 31.9662 19.6654 32.1088 19.4878 32.371C19.4362 32.5256 19.4115 32.6792 19.3895 32.8405C19.2985 32.7713 19.2985 32.7713 19.2148 32.6658C19.2219 32.4034 19.3437 32.225 19.506 32.0253C19.777 31.8215 20.0354 31.6274 20.3794 31.7341Z" fill="#1B180C"/>
<path d="M16.944 23C17.0784 23.232 17.0526 23.3785 17.0022 23.6405C17.1751 23.6693 17.1751 23.6693 17.3516 23.6987C17.3516 23.7372 17.3516 23.7756 17.3516 23.8152C17.0441 23.8152 16.7367 23.8152 16.4199 23.8152C16.4199 23.7768 16.4199 23.7383 16.4199 23.6987C16.4652 23.6958 16.5104 23.6929 16.5571 23.6899C16.7245 23.6557 16.7245 23.6557 16.7904 23.4947C16.8178 23.4066 16.8178 23.4066 16.8457 23.3166C16.8647 23.2577 16.8837 23.1988 16.9033 23.1381C16.9167 23.0925 16.9301 23.0469 16.944 23Z" fill="#0F0D07"/>
<path d="M17.5846 21.3696C17.5846 21.5375 17.5614 21.6342 17.5082 21.7906C17.4924 21.8374 17.4767 21.8841 17.4604 21.9322C17.4354 22.005 17.4354 22.005 17.4099 22.0793C17.3933 22.1285 17.3766 22.1777 17.3594 22.2284C17.3183 22.3498 17.2768 22.4711 17.2352 22.5924C17.4658 22.5924 17.6964 22.5924 17.934 22.5924C17.9532 22.554 17.9724 22.5156 17.9922 22.476C17.9922 22.5336 17.9922 22.5912 17.9922 22.6506C17.7232 22.6506 17.4542 22.6506 17.177 22.6506C17.1083 22.3757 17.1656 22.2046 17.2498 21.9446C17.2625 21.9022 17.2752 21.8598 17.2882 21.8161C17.3879 21.5008 17.3879 21.5008 17.5846 21.3696Z" fill="#3D351D"/>
<path d="M23.1162 20.438C23.4237 20.438 23.7311 20.438 24.0479 20.438C24.0479 20.4764 24.0479 20.5148 24.0479 20.5544C23.9926 20.5604 23.9374 20.5665 23.8805 20.5726C23.6815 20.5944 23.6815 20.5944 23.582 20.7874C23.582 20.7489 23.582 20.7105 23.582 20.6709C23.5436 20.6709 23.5052 20.6709 23.4656 20.6709C23.4656 20.6325 23.4656 20.594 23.4656 20.5544C23.3503 20.5544 23.235 20.5544 23.1162 20.5544C23.1162 20.516 23.1162 20.4776 23.1162 20.438Z" fill="#141209"/>
<path d="M27.8328 31.5595C27.8904 31.5595 27.9481 31.5595 28.0074 31.5595C27.9269 31.7265 27.8373 31.8833 27.7381 32.0399C27.7122 32.081 27.6862 32.1222 27.6594 32.1645C27.6398 32.1955 27.6201 32.2264 27.5999 32.2582C27.5614 32.2198 27.523 32.1814 27.4834 32.1418C27.5372 32.0443 27.592 31.9473 27.6472 31.8506C27.6776 31.7966 27.708 31.7426 27.7393 31.6869C27.7856 31.6238 27.7856 31.6238 27.8328 31.5595Z" fill="#1C180D"/>
<path d="M21.9518 35.4608C22.0094 35.4608 22.0671 35.4608 22.1265 35.4608C22.1073 35.6721 22.088 35.8835 22.0682 36.1013C22.0106 36.082 21.9529 36.0628 21.8936 36.043C21.9128 35.8509 21.932 35.6587 21.9518 35.4608Z" fill="#24200F"/>
<path d="M17.1194 22.5342C17.1386 22.5726 17.1578 22.611 17.1776 22.6506C17.4274 22.6506 17.6772 22.6506 17.9346 22.6506C17.9346 22.6699 17.9346 22.6891 17.9346 22.7089C17.5599 22.7377 17.5599 22.7377 17.1776 22.7671C17.1392 22.8824 17.1008 22.9977 17.0612 23.1165C17.0419 23.1165 17.0227 23.1165 17.0029 23.1165C17.0111 23.0303 17.0197 22.9442 17.0284 22.8581C17.0331 22.8101 17.0379 22.7621 17.0427 22.7127C17.0612 22.5924 17.0612 22.5924 17.1194 22.5342Z" fill="#0E0C07"/>
<path d="M26.3773 33.9468C26.3965 33.9853 26.4158 34.0237 26.4355 34.0633C26.3837 34.1766 26.3837 34.1766 26.3045 34.3035C26.279 34.3457 26.2535 34.3879 26.2272 34.4313C26.1999 34.4636 26.1726 34.4959 26.1444 34.5291C26.0868 34.5291 26.0291 34.5291 25.9697 34.5291C26.0509 34.2709 26.1797 34.1289 26.3773 33.9468Z" fill="#080704"/>
<path d="M8.73401 35.4608C8.79165 35.4608 8.8493 35.4608 8.90869 35.4608C8.88948 35.6337 8.87026 35.8066 8.85046 35.9848C8.79282 35.9848 8.73517 35.9848 8.67578 35.9848C8.695 35.8119 8.71421 35.6389 8.73401 35.4608Z" fill="#1B180A"/>
<path d="M16.9442 23C17.0607 23.2329 17.0607 23.2329 17.0206 23.4185C16.9828 23.4996 16.9828 23.4996 16.9442 23.5823C16.8866 23.6015 16.8289 23.6207 16.7695 23.6405C16.8272 23.4291 16.8848 23.2178 16.9442 23Z" fill="#292413"/>
<path d="M19.8558 31.8506C19.7747 32.0467 19.6824 32.141 19.5065 32.2582C19.4873 32.2198 19.468 32.1814 19.4482 32.1418C19.7248 31.8506 19.7248 31.8506 19.8558 31.8506Z" fill="#0F0D06"/>
</g>
<defs>
<clipPath id="clip0_133_3907">
<rect width="34.5873" height="46" fill="white"/>
</clipPath>
</defs>
</svg>
