<svg width="24" height="24" viewBox="0 0 24 24" fill="none" xmlns="http://www.w3.org/2000/svg">
<path d="M10.8245 10.4071C10.2645 10.4379 9.73252 10.4594 9.2052 10.5004C9.10812 10.5238 9.0215 10.5786 8.9588 10.6563C8.63587 10.9912 8.32508 11.3374 8.00402 11.6742C7.68296 12.0111 7.30776 11.9849 7.04457 11.6042C6.9391 11.4522 6.84017 11.2945 6.71884 11.1079C6.47618 11.371 6.26058 11.6369 6.01045 11.8655C5.86667 12.0052 5.68763 12.1032 5.49246 12.1491C4.8494 12.2518 4.20074 12.318 3.55395 12.3843C3.20583 12.4207 3.0873 12.2732 3.0537 11.9308C3.0229 11.5641 3.14049 11.2693 3.34302 10.9744C4.51341 9.26787 6.04312 8.06796 8.07868 7.56877C8.25881 7.52492 8.44268 7.49226 8.62561 7.46054C8.80854 7.42881 8.98587 7.40456 9.20426 7.36723C8.94387 7.11717 8.71614 6.95949 8.36428 7.0304C7.98348 7.10878 7.59056 7.13024 7.20323 7.17782C6.67777 7.24127 6.42578 7.00614 6.46311 6.48083C6.47524 6.30635 6.50231 6.1328 6.52751 5.92099C6.15418 5.96112 5.79952 6.01897 5.44299 6.0283C5.26078 6.03474 5.0804 5.99014 4.9222 5.89953C4.37807 5.56363 3.85262 5.19414 3.31876 4.83678C3.22277 4.77774 3.14683 4.69112 3.10087 4.58825C3.05491 4.48537 3.04107 4.37102 3.06116 4.26015C3.07098 4.15711 3.11197 4.0595 3.17866 3.98033C3.24536 3.90115 3.33459 3.84416 3.43449 3.81695C5.96472 2.95947 8.39508 3.08637 10.6705 4.59139C11.1904 4.93382 11.6972 5.30424 11.9977 5.93966C12.3019 5.3313 12.8031 4.95248 13.3249 4.60352C14.849 3.57622 16.5289 3.12369 18.3555 3.34482C19.0881 3.43813 19.8068 3.6406 20.5301 3.80389C20.6372 3.82208 20.7355 3.87444 20.8104 3.95316C20.8853 4.03187 20.9326 4.1327 20.9454 4.24056C20.97 4.35495 20.9585 4.47414 20.9125 4.58173C20.8665 4.68933 20.7884 4.78006 20.6888 4.84145C20.1465 5.20254 19.6126 5.5767 19.062 5.92379C18.9179 6.00468 18.7538 6.04287 18.5888 6.03389C18.2304 6.01803 17.8729 5.96298 17.4921 5.92193C17.5155 6.14866 17.5435 6.34833 17.5547 6.54894C17.5789 6.98934 17.3344 7.22914 16.8892 7.18902C16.5093 7.1545 16.1276 7.12277 15.7543 7.05186C15.381 6.98095 15.0944 7.03693 14.8443 7.36817C15.143 7.42228 15.436 7.468 15.7263 7.52958C18.0167 8.01384 19.6761 9.36584 20.867 11.3262C21.0023 11.5483 20.9547 11.9047 20.9202 12.1902C20.9109 12.2723 20.6402 12.3889 20.5049 12.3768C19.8198 12.319 19.1357 12.2331 18.4516 12.1314C18.2911 12.0946 18.1446 12.0123 18.0297 11.8944C17.7759 11.6509 17.5472 11.3812 17.2952 11.1097C17.1692 11.2963 17.0619 11.4717 16.9424 11.635C16.696 11.9737 16.3292 12.0083 16.038 11.7059C15.7468 11.4036 15.4556 11.1032 15.184 10.785C15.017 10.59 14.8387 10.4612 14.5736 10.464C14.1201 10.4696 13.6665 10.464 13.1849 10.464C13.2241 10.9371 13.2511 11.4167 13.3071 11.8926C13.4434 13.0458 13.5582 14.2037 13.7477 15.3495C13.9091 16.3274 14.1602 17.2903 14.3748 18.2597C14.4299 18.5079 14.5615 18.6106 14.8415 18.6031C15.7254 18.5798 16.6148 18.5928 17.4959 18.5947C17.9084 18.5947 18.1548 18.8093 18.1492 19.1545C18.1436 19.4998 17.8888 19.7144 17.4865 19.7144H6.50791C6.11311 19.7144 5.85458 19.4792 5.85458 19.1424C5.85458 18.8056 6.10191 18.5984 6.49391 18.5975C7.38803 18.5975 8.28215 18.5816 9.17627 18.605C9.44879 18.6115 9.56733 18.5117 9.62239 18.2747C9.80906 17.4713 10.0545 16.6754 10.1721 15.8618C10.4222 14.116 10.6089 12.3591 10.8236 10.6068C10.8292 10.563 10.8245 10.5163 10.8245 10.4071Z" fill="#306DDE"/>
</svg>
