<svg width="24" height="24" viewBox="0 0 24 24" fill="none" xmlns="http://www.w3.org/2000/svg">
<path d="M4.34735 10.0293C4.02678 9.99304 3.77154 9.97973 3.52356 9.93376C3.07598 9.8503 2.91873 9.50554 3.1776 9.13054C3.33547 8.89929 3.55008 8.71245 3.80086 8.58791C4.05164 8.46337 4.33019 8.4053 4.60984 8.41926C4.92557 8.41926 5.05863 8.66119 5.12758 8.99869C5.19774 8.89587 5.24855 8.82813 5.29452 8.75675C5.58847 8.21482 5.91871 7.68862 6.16064 7.1237C6.46064 6.42451 6.9941 6.0725 7.69692 5.94669C8.33556 5.81695 8.98216 5.73006 9.63239 5.68661C11.638 5.60315 13.6461 5.55597 15.6469 5.80758C15.9106 5.84024 16.1707 5.8971 16.4307 5.95274C17.1396 6.10637 17.6888 6.43661 18.0033 7.15273C18.2743 7.78055 18.6408 8.36845 18.9432 8.93337C19.0968 8.77006 19.2154 8.55111 19.3932 8.47853C19.5967 8.40612 19.82 8.41303 20.0186 8.49789C20.3578 8.64272 20.6656 8.85227 20.9247 9.11482C21.2501 9.47772 21.0674 9.86602 20.5799 9.94949C20.3319 9.99304 20.0791 10.0051 19.8662 10.0281C20.1009 10.4225 20.4166 10.8047 20.5666 11.2438C20.7166 11.6829 20.742 12.1886 20.7614 12.6676C20.7904 13.4273 20.7686 14.1894 20.7686 14.989C20.6174 14.9974 20.488 15.0107 20.3597 15.0107C14.8316 15.0107 9.30296 15.0136 3.77396 15.0192C3.44977 15.0192 3.35784 14.9273 3.36993 14.6103C3.39292 13.9813 3.38929 13.3511 3.36993 12.7221C3.34453 11.7071 3.53687 10.789 4.34735 10.0293ZM5.83057 10.1043H18.5315C18.4614 9.94102 18.4215 9.86489 18.3671 9.76207C17.9655 9.00361 17.5851 8.34455 17.2162 7.57157C17.1249 7.36794 17.0015 7.14422 16.8237 7.00936C16.6459 6.87449 16.4768 6.77718 16.2562 6.74416C16.1048 6.70339 15.9402 6.69453 15.7841 6.67975C14.0821 6.6108 12.4337 6.54354 10.7317 6.55201C9.70105 6.55806 8.62324 6.71307 7.58777 6.8413C7.28656 6.87759 7.1891 6.97787 7.04273 7.26335C6.61813 8.09076 6.20327 8.91007 5.76416 9.73022C5.71214 9.83426 5.67389 9.93376 5.6001 10.1043H5.83057ZM5.64895 13.9015C6.41588 13.7733 7.03039 13.6729 7.64974 13.5664C7.72231 13.5589 7.79056 13.5284 7.8445 13.4793C7.95337 13.3487 8.13603 13.1854 8.11426 13.068C8.08646 12.9833 8.03912 12.9063 7.97608 12.8433C7.91304 12.7802 7.83606 12.7329 7.75136 12.7051C6.72919 12.4632 5.69492 12.2636 4.67275 12.0592C4.31952 11.989 4.11993 12.2019 4.1659 12.5575C4.21186 12.9132 4.34614 13.1914 4.69089 13.3608C5.05984 13.5483 5.41669 13.7696 5.64895 13.9015ZM19.6654 12.0229L18.8658 12.191C18.0396 12.3604 17.2098 12.5176 16.3896 12.7124C16.305 12.7404 16.2282 12.7878 16.1652 12.8509C16.1022 12.9139 16.0548 12.9907 16.0267 13.0753C16.0037 13.1962 16.1658 13.397 16.2989 13.4781C16.48 13.5677 16.6759 13.6235 16.8771 13.6426C17.2086 13.7007 17.5739 13.6692 17.8715 13.7999C18.3033 13.991 18.636 13.8652 18.9831 13.6487L19.6255 13.2434C19.9642 13.0305 19.9823 12.6773 19.9545 12.3471C19.9472 12.22 19.7464 12.1075 19.6654 12.0229ZM9.35659 13.0378C9.48689 13.0675 9.61904 13.0886 9.75215 13.1007C11.3005 13.1007 12.8489 13.1007 14.3973 13.1007C14.5219 13.081 14.6437 13.0464 14.7602 12.9979C14.6222 13.3211 9.81007 13.5664 9.35659 13.0378ZM10.8961 14.2483L10.4961 13.8349C10.559 13.8652 10.6171 13.9208 10.6848 13.922C11.6033 13.9285 12.5211 13.9285 13.438 13.922C13.5033 13.922 13.5699 13.8531 13.6352 13.8156L13.438 14.1158L10.8961 14.2483Z" fill="#306DDE"/>
<path d="M3.30901 15.3444L12.0572 15.3442H20.6569C20.6617 15.6179 20.6915 15.7336 20.6569 16.0051C20.5698 16.4539 20.2275 16.6959 19.7242 16.6959C14.5702 16.6959 9.41624 16.6959 4.26224 16.6959C3.68523 16.6959 3.33684 16.3535 3.30902 15.7789C3.29934 15.5878 3.30901 15.5549 3.30901 15.3444Z" fill="#306DDE"/>
<path d="M17.7134 16.9625C18.6884 16.7895 19.6622 17.1512 20.584 16.683C20.584 17.0459 20.6094 17.4088 20.5767 17.7596C20.5644 17.9436 20.4826 18.116 20.3478 18.2419C20.213 18.3677 20.0353 18.4375 19.8509 18.4371C19.3816 18.4552 18.9098 18.454 18.4404 18.4371C18.257 18.4355 18.0808 18.3654 17.9465 18.2405C17.8121 18.1156 17.7294 17.9449 17.7146 17.7621C17.6917 17.508 17.7134 17.2419 17.7134 16.9625Z" fill="#306DDE"/>
<path d="M3.42478 16.6459C3.87719 17.0088 4.37195 16.9157 4.84856 16.9217C5.32517 16.9278 5.78605 16.9217 6.31347 16.9217C6.31297 17.2326 6.2948 17.5432 6.25903 17.852C6.22819 18.0205 6.13805 18.1724 6.00493 18.2802C5.8718 18.3881 5.70448 18.4447 5.53323 18.4399C5.07477 18.4544 4.61388 18.4556 4.15542 18.4399C3.79252 18.429 3.46954 18.175 3.43566 17.835C3.39454 17.4649 3.42478 17.0826 3.42478 16.6459Z" fill="#306DDE"/>
</svg>
