<svg width="16" height="16" viewBox="0 0 16 16" fill="none" xmlns="http://www.w3.org/2000/svg">
<path d="M4 5.33398H12L11.4044 13.0773C11.3643 13.5983 10.9298 14.0007 10.4073 14.0007H5.5927C5.07016 14.0007 4.63572 13.5983 4.59564 13.0773L4 5.33398ZM5.33333 6.66732L5.63625 9.39361L10.3679 9.35659L10.6667 6.66732H5.33333Z" fill="#BF3939"/>
<path opacity="0.3" fill-rule="evenodd" clip-rule="evenodd" d="M9.3335 3V2.33333C9.3335 2.14924 9.18426 2 9.00016 2H7.00016C6.81607 2 6.66683 2.14924 6.66683 2.33333V3H3.66683C3.48273 3 3.3335 3.14924 3.3335 3.33333V3.66667C3.3335 3.85076 3.48273 4 3.66683 4H12.3335C12.5176 4 12.6668 3.85076 12.6668 3.66667V3.33333C12.6668 3.14924 12.5176 3 12.3335 3H9.3335Z" fill="#BF3939"/>
</svg>
