<svg width="152" height="37" viewBox="0 0 152 37" fill="none" xmlns="http://www.w3.org/2000/svg">
<g clip-path="url(#clip0_2565_3861)">
<path d="M27.4435 30.2634C27.0187 30.2634 26.7183 30.1758 26.5425 30.0007C26.3814 29.8255 26.3008 29.5482 26.3008 29.1687V16.4916C26.3008 16.1121 26.3887 15.8348 26.5645 15.6596C26.7403 15.4699 27.0333 15.375 27.4435 15.375H29.5752C30.0001 15.375 30.3004 15.4699 30.4763 15.6596C30.6521 15.8348 30.74 16.1121 30.74 16.4916V21.2209H35.7505V16.4916C35.7505 16.1121 35.8384 15.8348 36.0143 15.6596C36.1901 15.4699 36.4904 15.375 36.9153 15.375H39.047C39.4718 15.375 39.7722 15.4699 39.948 15.6596C40.1238 15.8348 40.2117 16.1121 40.2117 16.4916V29.1687C40.2117 29.5482 40.1238 29.8255 39.948 30.0007C39.7722 30.1758 39.4718 30.2634 39.047 30.2634H36.9153C36.4904 30.2634 36.1901 30.1758 36.0143 30.0007C35.8384 29.8255 35.7505 29.5482 35.7505 29.1687V24.3956H30.74V29.1687C30.74 29.5482 30.6521 29.8255 30.4763 30.0007C30.3004 30.1758 30.0001 30.2634 29.5752 30.2634H27.4435Z" fill="#052263"/>
<path d="M49.0187 30.5918C47.6268 30.5918 46.3962 30.3656 45.3267 29.9131C44.2718 29.4606 43.4514 28.8038 42.8653 27.9426C42.2793 27.0814 41.9863 26.0596 41.9863 24.8773V16.4916C41.9863 16.1121 42.0742 15.8348 42.25 15.6596C42.4258 15.4699 42.7188 15.375 43.129 15.375H45.2607C45.6856 15.375 45.986 15.4699 46.1618 15.6596C46.3376 15.8348 46.4255 16.1121 46.4255 16.4916V24.943C46.4255 25.7604 46.6526 26.3881 47.1067 26.8259C47.5756 27.2492 48.2129 27.4609 49.0187 27.4609C49.8245 27.4609 50.4544 27.2492 50.9086 26.8259C51.3628 26.3881 51.5899 25.7604 51.5899 24.943V16.4916C51.5899 16.1121 51.6778 15.8348 51.8536 15.6596C52.0294 15.4699 52.3224 15.375 52.7326 15.375H54.8643C55.2892 15.375 55.5895 15.4699 55.7654 15.6596C55.9558 15.8348 56.051 16.1121 56.051 16.4916V24.8773C56.051 26.0596 55.7507 27.0814 55.15 27.9426C54.564 28.8038 53.7435 29.4606 52.6887 29.9131C51.6338 30.3656 50.4105 30.5918 49.0187 30.5918Z" fill="#052263"/>
<path d="M58.9699 30.2634C58.5451 30.2634 58.2447 30.1758 58.0689 30.0007C57.9077 29.8255 57.8272 29.5482 57.8272 29.1687V16.4916C57.8272 16.1121 57.9151 15.8348 58.0909 15.6596C58.2667 15.4699 58.5597 15.375 58.9699 15.375H65.5188C67.233 15.375 68.5003 15.7545 69.3207 16.5135C70.1412 17.2579 70.5514 18.3016 70.5514 19.6445C70.5514 20.3013 70.3829 20.8998 70.0459 21.4398C69.7236 21.9653 69.2987 22.3375 68.7713 22.5565C70.2217 23.0236 70.9469 24.0818 70.9469 25.7312C70.9469 27.0595 70.4781 28.1469 69.5405 28.9935C68.6175 29.8401 67.255 30.2634 65.4529 30.2634H58.9699ZM64.6837 21.199C65.1379 21.199 65.4895 21.0895 65.7386 20.8706C65.9877 20.637 66.1122 20.3013 66.1122 19.8634C66.1122 19.3963 65.995 19.0606 65.7606 18.8563C65.5262 18.6519 65.1672 18.5497 64.6837 18.5497H62.2664V21.199H64.6837ZM65.0573 27.0887C65.5262 27.0887 65.8851 26.9573 66.1342 26.6946C66.3979 26.4172 66.5297 26.0596 66.5297 25.6217C66.5297 25.1255 66.3906 24.7532 66.1122 24.5051C65.8338 24.257 65.4529 24.1329 64.9694 24.1329H62.2664V27.0887H65.0573Z" fill="#052263"/>
<path d="M25.5684 6.52675H30.4775V7.10275H28.5504V10.7811C28.5504 10.9293 28.5267 11.0337 28.4794 11.0943C28.4388 11.1482 28.3407 11.1752 28.1852 11.1752H27.5056V7.10275H25.5684V6.52675Z" fill="#052263"/>
<path d="M34.3254 9.36633C34.3254 9.36633 34.2375 9.36633 34.0617 9.36633C33.8926 9.36633 33.6661 9.36633 33.3821 9.36633C33.0981 9.36633 32.7904 9.3697 32.4591 9.37643V11.1752H31.4144V7.08254C31.4144 6.88717 31.4549 6.74906 31.5361 6.66822C31.624 6.58064 31.7761 6.53349 31.9925 6.52675C32.0939 6.52001 32.2326 6.51664 32.4084 6.51664C32.5842 6.51664 32.7837 6.51664 33.0068 6.51664C33.2299 6.50991 33.4565 6.50654 33.6864 6.50654C33.923 6.50654 34.1496 6.50654 34.3659 6.50654C34.5823 6.50654 34.7717 6.50991 34.9339 6.51664C35.103 6.52338 35.2315 6.53012 35.3194 6.53685C35.6777 6.57054 35.9415 6.68506 36.1105 6.88043C36.2796 7.0758 36.3641 7.37222 36.3641 7.7697C36.3641 8.0998 36.3235 8.3558 36.2424 8.5377C36.168 8.71285 36.053 8.84759 35.8975 8.94191C35.8705 8.96212 35.8265 8.97896 35.7657 8.99243C35.7116 9.00591 35.6541 9.01264 35.5932 9.01264V9.04296C35.627 9.04296 35.6642 9.04296 35.7048 9.04296C35.7454 9.04296 35.7792 9.04296 35.8062 9.04296C36.0632 9.09012 36.2187 9.19117 36.2728 9.34612C36.3269 9.50107 36.3539 9.65938 36.3539 9.82107V10.8922C36.3539 10.9798 36.3607 11.0472 36.3742 11.0943C36.3945 11.1415 36.408 11.1684 36.4148 11.1752H35.6541C35.5391 11.1752 35.4478 11.1583 35.3802 11.1246C35.3126 11.0842 35.2788 10.9899 35.2788 10.8417V9.8918C35.2788 9.68296 35.2315 9.54485 35.1368 9.47749C35.0489 9.40338 34.89 9.36633 34.6601 9.36633H34.3254ZM32.4591 8.83075C32.547 8.83075 32.6822 8.83412 32.8648 8.84085C33.0541 8.84085 33.2604 8.84422 33.4835 8.85096C33.7067 8.85096 33.9129 8.85096 34.1022 8.85096C34.2916 8.85096 34.4268 8.85096 34.5079 8.85096C34.7176 8.85096 34.9001 8.78696 35.0557 8.65896C35.2179 8.53096 35.2991 8.2918 35.2991 7.94149C35.2991 7.69896 35.2517 7.50696 35.1571 7.36549C35.0692 7.22401 34.9238 7.14317 34.7209 7.12296C34.5992 7.10275 34.4403 7.09264 34.2442 7.09264C34.0481 7.08591 33.8453 7.08254 33.6357 7.08254C33.426 7.08254 33.2333 7.08591 33.0575 7.09264C32.8885 7.09264 32.76 7.09601 32.6721 7.10275C32.6518 7.10275 32.6112 7.11285 32.5504 7.13307C32.4895 7.15328 32.4591 7.21728 32.4591 7.32507V8.83075Z" fill="#052263"/>
<path d="M37.0564 11.1752L38.4764 7.24422C38.5711 7.0017 38.6996 6.81643 38.8618 6.68843C39.0241 6.5537 39.2878 6.48633 39.653 6.48633C39.9776 6.48633 40.2244 6.54696 40.3934 6.66822C40.5692 6.78949 40.7045 6.98149 40.7991 7.24422L42.2496 11.1752H41.1237L40.6876 9.96254H38.2837L37.8577 11.1752H37.0564ZM38.446 9.52801H40.4948L39.8558 7.67875C39.8288 7.59117 39.7916 7.5137 39.7443 7.44633C39.7037 7.37896 39.6124 7.34528 39.4704 7.34528C39.3217 7.34528 39.2236 7.38233 39.1763 7.45643C39.1289 7.5238 39.0917 7.59791 39.0647 7.67875L38.446 9.52801Z" fill="#052263"/>
<path d="M44.3843 11.1752C44.1071 11.1752 43.8975 11.1145 43.7555 10.9933C43.6202 10.872 43.5019 10.68 43.4005 10.4173L41.9906 6.52675H43.1266L44.2423 9.91201C44.2896 10.0535 44.3505 10.1512 44.4249 10.2051C44.4993 10.259 44.5804 10.2859 44.6683 10.2859H44.8002L46.1086 6.52675H46.8997L45.1552 11.1752H44.3843Z" fill="#052263"/>
<path d="M47.868 11.1752V6.91075C47.868 6.76254 47.8883 6.66149 47.9288 6.60759C47.9762 6.5537 48.0742 6.52675 48.223 6.52675H52.4424V7.10275H48.9127V8.46696H52.1381V9.04296H48.9127V10.5992H52.4424V11.1752H47.868Z" fill="#052263"/>
<path d="M54.6178 6.52675V10.5992H57.7012V11.1752H53.5832V6.92085C53.5832 6.83328 53.5866 6.76254 53.5934 6.70864C53.6002 6.64801 53.6306 6.60422 53.6847 6.57728C53.7388 6.54359 53.8233 6.52675 53.9382 6.52675H54.6178Z" fill="#052263"/>
<g clip-path="url(#clip1_2565_3861)">
<path d="M18.6545 19.2593L18.2169 18.9717L17.5276 19.9064L17.4818 19.9688L17.4752 19.9776L17.4681 19.9868L17.4593 19.9991L17.3932 20.0886L17.3487 20.1492L17.3227 20.1844L15.0959 23.2038L15.1051 23.5036L15.1373 24.5192C15.1439 24.744 15.4313 24.8318 15.5652 24.6526C16.7397 23.0558 17.855 21.2688 18.5681 19.4814L18.6545 19.2593Z" fill="#59CBAF"/>
<path d="M17.6568 20.0056L17.6281 20.0451L17.551 20.1501L17.5387 20.122L17.5277 20.1409L17.5122 20.1545L17.4669 20.1896L17.4382 20.219L15.103 23.5032L15.0933 23.2033L14.9902 19.9345L14.9862 19.9341V19.7422L17.2152 19.9622L17.3664 19.9771L17.4536 19.9854L17.4655 19.9867L17.4708 19.9872L17.4757 19.9876L17.5942 19.9995L17.6568 20.0056Z" fill="#A1D04C"/>
<path d="M17.5426 20.1576L17.4915 20.1914L17.4783 20.2002L17.4417 20.1962L17.4373 20.1958L17.4175 20.1936L17.3787 20.1896L17.324 20.1839L14.9941 19.9346L14.9902 19.9341V19.8085L14.8901 16.6416L14.8809 16.3488C14.8809 16.3479 14.8809 16.3466 14.8809 16.3457L17.2817 19.5737L17.4029 19.737L17.4968 19.863L17.5012 19.8687L17.529 19.9065L17.5982 19.9995L17.6321 20.0452L17.6594 20.0816L17.5426 20.1576Z" fill="#E5ED28"/>
<path d="M17.4365 20.2291L17.4316 20.2321L17.3792 20.19L17.3505 20.1487L17.2197 19.9621L14.8906 16.6415L14.8813 16.3487C14.8813 16.3478 14.8813 16.3465 14.8813 16.3456C14.8695 15.9004 15.0748 15.478 15.4366 15.2177L16.2021 14.6636L16.2739 14.6113L17.403 19.7369L17.4576 19.9854L17.4607 19.9986L17.4673 20.0289L17.47 20.0407L17.5017 20.1847L17.4894 20.186L17.4708 20.1887L17.4365 20.2291Z" fill="#DEDD23"/>
<path d="M18.7933 12.6533L18.7841 12.7043L18.7783 12.7354L17.5008 19.8683L17.4827 19.968L17.4792 19.9873L17.4695 20.0409L17.4417 20.1963L17.4364 20.2266L17.436 20.2284L17.4355 20.2275L17.4329 20.2222L17.4175 20.1937L17.3941 20.0879L17.3694 19.9764L17.2809 19.5733L16.2012 14.6633L16.273 14.6111L17.1694 13.9626C17.7564 13.538 18.2513 13.1354 18.6541 12.7547C18.6779 12.7324 18.7008 12.7104 18.7237 12.688L18.7933 12.6533Z" fill="#C5DF26"/>
<path d="M18.6554 19.259C19.1208 18.0344 19.3905 16.8138 19.3544 15.6578C19.3315 14.9637 19.2402 14.2893 19.0833 13.6408C19.064 13.556 19.09 13.4713 19.1521 13.4125C19.472 13.1157 19.7435 12.8285 19.9678 12.5488L19.9991 12.5098L18.7841 12.7047L18.7603 12.7087L18.755 12.7398L17.4969 19.8631L17.4766 19.9777L17.4748 19.9873L17.4673 20.0291L17.4378 20.1959L17.4316 20.2315L17.4365 20.2284L17.4788 20.2003L17.5017 20.1854L17.555 20.1502L17.659 20.0817L18.5695 19.4811L18.6554 19.259Z" fill="#9DC62A"/>
<path d="M20.7652 10.9286C20.6841 11.4375 20.4329 11.9591 19.9988 12.5092L19.9676 12.5483L18.7781 12.7353L18.7543 12.7393L18.6543 12.7551C18.6781 12.7327 18.701 12.7107 18.7239 12.6883C19.459 11.9802 19.8706 11.3488 19.9583 10.7951C19.9839 10.6309 19.9803 10.4768 19.9464 10.3337C19.9283 10.256 19.901 10.1818 19.8649 10.1102L20.2782 9.29883C20.3029 9.32473 20.3272 9.35151 20.3505 9.37918C20.3814 9.41518 20.4104 9.45294 20.4387 9.49157C20.7357 9.90209 20.8503 10.3973 20.7652 10.9286Z" fill="#B7C017"/>
<path d="M20.3459 9.3799L19.9418 10.3344C19.9237 10.2567 19.8964 10.1825 19.8603 10.1109C19.8347 10.0604 19.8052 10.0117 19.7708 9.96472C19.6012 9.73026 19.3561 9.58669 19.0362 9.53444C18.5052 9.44839 17.8124 9.62489 16.9583 10.0618L16.9548 10.0635L16.5996 9.13666L16.6018 9.13885C16.6045 9.14149 16.6071 9.14412 16.6093 9.14676C16.6811 9.21832 16.7891 9.23808 16.8803 9.19549C17.7718 8.78146 18.5197 8.63482 19.1631 8.7358C19.6069 8.80649 19.9868 8.99923 20.2732 9.29911C20.2988 9.32545 20.3226 9.35223 20.3459 9.3799Z" fill="#E9D912"/>
<path d="M15.7109 10.809C15.5315 10.9293 15.3469 11.0584 15.1574 11.1958L14.1724 11.9097L14.1641 11.9158L15.7052 8.3125C15.7082 8.3147 15.7113 8.31733 15.7144 8.31996C15.7307 8.33314 15.7475 8.34631 15.7638 8.35992C15.7673 8.36299 15.7713 8.36563 15.7748 8.3687L15.7162 10.8055L15.7109 10.809Z" fill="#F3D71A"/>
<path d="M15.7126 8.32062L14.1706 11.9103L14.1622 11.9165L13.0953 12.6901L12.9486 12.7968C12.9455 12.799 12.9424 12.8012 12.9393 12.8034C12.9375 12.8047 12.9358 12.8056 12.934 12.8069C12.9336 12.8073 12.9331 12.8078 12.9323 12.8078C12.9305 12.8091 12.9283 12.81 12.9265 12.8113C12.9256 12.8117 12.9252 12.8122 12.9243 12.8126C12.9226 12.8135 12.9208 12.8144 12.919 12.8152C12.9182 12.8157 12.9168 12.8166 12.916 12.817C12.9146 12.8179 12.9129 12.8183 12.9115 12.8192C12.9107 12.8196 12.9098 12.8201 12.9085 12.8205C12.9063 12.8214 12.9041 12.8223 12.9018 12.8231C12.9014 12.8231 12.9014 12.8236 12.901 12.8236C12.8992 12.8245 12.897 12.8253 12.8948 12.8258C12.8913 12.8271 12.8877 12.8284 12.8842 12.8293C12.882 12.8302 12.8798 12.8306 12.8776 12.8311C12.8772 12.8311 12.8767 12.8315 12.8767 12.8315C12.8754 12.8319 12.8736 12.8324 12.8723 12.8328C12.8697 12.8332 12.8675 12.8341 12.8648 12.8346C12.8635 12.835 12.8617 12.8354 12.8604 12.8354C12.8582 12.8359 12.856 12.8363 12.8538 12.8368C12.8512 12.8372 12.849 12.8376 12.8463 12.8381C12.8459 12.8381 12.8454 12.8381 12.845 12.8381C12.8424 12.8385 12.8402 12.8385 12.8379 12.839C12.8353 12.8394 12.8327 12.8394 12.83 12.8394L12.0332 7.40606L12.0319 7.39772L11.9671 6.95471L11.8438 6.4375C11.8539 6.4397 11.864 6.44233 11.8746 6.44452C11.8816 6.44628 11.8883 6.4476 11.8949 6.44935C11.8958 6.44979 11.8971 6.44979 11.8984 6.45023C11.9103 6.45287 11.9222 6.45594 11.9341 6.45857C11.9442 6.46121 11.9548 6.4634 11.9649 6.46604C13.3514 6.80367 14.6223 7.44206 15.7033 8.31359C15.7064 8.31535 15.7095 8.31798 15.7126 8.32062Z" fill="#F9B411"/>
<path d="M13.0946 12.6897L12.9478 12.7963C12.9447 12.7985 12.9416 12.8007 12.9386 12.8029C12.9368 12.8043 12.935 12.8051 12.9333 12.8064C12.9328 12.8069 12.9324 12.8073 12.9315 12.8073C12.9297 12.8086 12.9275 12.8095 12.9258 12.8108C12.9249 12.8113 12.9245 12.8117 12.9236 12.8122C12.9218 12.813 12.92 12.8139 12.9183 12.8148C12.9174 12.8152 12.9161 12.8161 12.9152 12.8165C12.9139 12.8174 12.9121 12.8179 12.9108 12.8187C12.9099 12.8192 12.909 12.8196 12.9077 12.8201C12.9055 12.8209 12.9033 12.8218 12.9011 12.8227C12.9007 12.8227 12.9007 12.8231 12.9002 12.8231C12.8985 12.824 12.8962 12.8249 12.894 12.8253C12.8905 12.8266 12.887 12.828 12.8835 12.8288C12.8813 12.8297 12.8791 12.8302 12.8769 12.8306C12.8764 12.8306 12.876 12.831 12.876 12.831C12.8747 12.8315 12.8729 12.8319 12.8716 12.8324C12.8689 12.8328 12.8667 12.8337 12.8641 12.8341C12.8628 12.8345 12.861 12.835 12.8597 12.835C12.8575 12.8354 12.8553 12.8359 12.8531 12.8363C12.8504 12.8367 12.8482 12.8372 12.8456 12.8376C12.8451 12.8376 12.8447 12.8376 12.8442 12.8376C12.8416 12.8381 12.8394 12.8381 12.8372 12.8385C12.8345 12.8389 12.8319 12.8389 12.8293 12.8389C12.8266 12.8389 12.824 12.8394 12.8209 12.8394C12.8112 12.8398 12.8015 12.8394 12.7918 12.8385C12.7883 12.8381 12.7848 12.8381 12.7812 12.8372C12.7795 12.8372 12.7777 12.8367 12.7759 12.8363C12.7724 12.8359 12.7689 12.8354 12.7658 12.8345C12.7632 12.8341 12.7605 12.8337 12.7579 12.8328C12.7486 12.8306 12.7389 12.828 12.7297 12.8249L12.5195 12.7489L12.5164 12.7476L9.0521 7.47893L9.05078 7.47673L12.0316 7.39682L12.0792 7.39551H12.0845L13.0946 12.6897Z" fill="#F8950C"/>
<path d="M8.98047 5.91602H8.98356L8.98047 5.9169V5.91602Z" fill="#F97008"/>
<path d="M12.0831 7.40472L12.0355 7.40604L9.05867 7.47936H9.05471H9.05118V7.47892V7.47848L8.99609 6.21751C8.9983 6.21751 9.00006 6.21707 9.00226 6.21707C9.00491 6.21707 9.00799 6.21663 9.01064 6.21663C9.13535 6.20785 9.26095 6.2017 9.38743 6.19775C9.48614 6.19468 9.58486 6.19336 9.68269 6.19336C9.69283 6.19336 9.70252 6.19336 9.71266 6.19336C9.72279 6.19336 9.73249 6.19336 9.74262 6.19336C9.74615 6.19336 9.74923 6.19336 9.75232 6.19336C9.76378 6.19336 9.77523 6.19336 9.78669 6.1938H9.78713C9.80079 6.1938 9.8149 6.19424 9.82856 6.19424C9.84134 6.19424 9.85412 6.19468 9.86646 6.19468C9.86778 6.19468 9.8691 6.19468 9.87042 6.19468C9.87219 6.19468 9.87351 6.19468 9.87527 6.19468C9.87924 6.19468 9.88364 6.19468 9.88761 6.19512C9.88981 6.19512 9.89158 6.19512 9.89378 6.19512C9.89598 6.19512 9.89775 6.19512 9.89995 6.19512C9.91273 6.19555 9.92595 6.19555 9.93873 6.19599C9.94843 6.19599 9.95856 6.19643 9.9687 6.19687C9.97883 6.19731 9.98941 6.19731 9.99955 6.19775C10.0097 6.19819 10.0194 6.19819 10.0295 6.19863C10.0383 6.19907 10.0467 6.19907 10.0555 6.19951C10.0656 6.19995 10.0758 6.20038 10.0859 6.20082C10.0947 6.20126 10.1035 6.2017 10.1124 6.20214C10.1194 6.20258 10.1269 6.20258 10.134 6.20302C10.1441 6.20346 10.1547 6.2039 10.1648 6.20434C10.1697 6.20477 10.1749 6.20477 10.1798 6.20521C10.1807 6.20521 10.1816 6.20521 10.1824 6.20521C10.1833 6.20521 10.1842 6.20521 10.1851 6.20521C10.1873 6.20521 10.1899 6.20521 10.1921 6.20565L10.2239 6.20741C10.2358 6.20785 10.2477 6.20873 10.2596 6.2096C10.2657 6.21004 10.2715 6.21048 10.2776 6.21048C10.2864 6.21092 10.2957 6.21136 10.3045 6.21224C10.316 6.21312 10.3274 6.21356 10.3389 6.21443C10.3517 6.21531 10.3649 6.21619 10.3777 6.21707C10.3803 6.21707 10.3825 6.21751 10.3852 6.21751L10.394 6.21795C10.3988 6.21839 10.4037 6.21882 10.4089 6.21882C10.4323 6.22058 10.4557 6.22234 10.4786 6.22409C10.4892 6.22497 10.4993 6.22585 10.5099 6.22673C10.5191 6.22761 10.5288 6.22848 10.5381 6.22936C10.5486 6.23024 10.5597 6.23112 10.5702 6.23244C10.5857 6.23375 10.6006 6.23507 10.6161 6.23683C10.6258 6.2377 10.6359 6.23858 10.646 6.2399C10.6469 6.2399 10.6482 6.2399 10.6491 6.24034C10.6571 6.24122 10.665 6.24209 10.6725 6.24253C10.6747 6.24297 10.6773 6.24297 10.6795 6.24341C10.6879 6.24429 10.6958 6.24517 10.7042 6.24605C10.7073 6.24649 10.7104 6.24649 10.7135 6.24692C10.7254 6.24824 10.7373 6.24956 10.7492 6.25088C10.7509 6.25088 10.7531 6.25131 10.7549 6.25131C10.773 6.25351 10.791 6.25527 10.8095 6.25746C10.8355 6.26054 10.8615 6.26361 10.8871 6.26668C10.8955 6.26756 10.9043 6.26888 10.9131 6.26976C10.9254 6.27151 10.9382 6.27283 10.9506 6.27458C10.9616 6.2759 10.973 6.27766 10.984 6.27898C10.9951 6.28029 11.0065 6.28205 11.0175 6.28337C11.029 6.28512 11.04 6.28644 11.051 6.2882C11.0621 6.28995 11.0726 6.29127 11.0836 6.29303C11.085 6.29303 11.0858 6.29346 11.0872 6.29346C11.0977 6.29478 11.1079 6.29654 11.1185 6.29829C11.1282 6.29961 11.1379 6.30137 11.1475 6.30268C11.1537 6.30356 11.1599 6.30444 11.1656 6.30532C11.1731 6.30664 11.1802 6.30751 11.1876 6.30883C11.1978 6.31059 11.2079 6.3119 11.2181 6.31366C11.2405 6.31717 11.2626 6.32069 11.2846 6.32464C11.2956 6.32639 11.3066 6.32859 11.3181 6.33035C11.3291 6.3321 11.3401 6.3343 11.3511 6.33605C11.3622 6.33781 11.3732 6.34 11.3842 6.34176C11.3952 6.34352 11.4062 6.34571 11.4172 6.34791C11.4393 6.35186 11.4613 6.35625 11.4834 6.3602C11.4944 6.3624 11.5054 6.36459 11.5164 6.36635C11.5274 6.36854 11.5384 6.37074 11.5495 6.37293C11.5587 6.37469 11.5675 6.37645 11.5768 6.3782C11.5812 6.37908 11.5856 6.37996 11.59 6.38084C11.5984 6.38259 11.6067 6.38435 11.6156 6.38611C11.6253 6.38786 11.6345 6.39006 11.6442 6.39181C11.6565 6.39445 11.6689 6.39708 11.6812 6.39972C11.6922 6.40191 11.7033 6.40455 11.7138 6.40674C11.7248 6.40894 11.7354 6.41157 11.7464 6.41377C11.7575 6.41596 11.7685 6.4186 11.7791 6.42079C11.7901 6.42343 11.8006 6.42562 11.8117 6.42825C11.8227 6.43089 11.8333 6.43308 11.8443 6.43572C11.8544 6.43791 11.8645 6.44055 11.8751 6.44274C11.8822 6.4445 11.8888 6.44582 11.8954 6.44757C11.8963 6.44801 11.8976 6.44801 11.8989 6.44845C11.9108 6.45109 11.9227 6.45416 11.9346 6.45679C11.9448 6.45943 11.9553 6.46162 11.9655 6.46426L12.0232 6.93317L12.08 7.39462L12.0831 7.40472Z" fill="#F97008"/>
<path d="M9.0564 7.49753L9.05551 7.4984L5.83054 10.3325L5.81688 10.3448L5.8063 10.354L5.80146 10.3395L5.79352 10.3198L4.70898 7.57304C4.75526 7.54494 4.80197 7.51728 4.84868 7.4905C6.08041 6.77528 7.48666 6.3248 8.99338 6.21768C8.99558 6.21768 8.99734 6.21724 8.99955 6.21724C9.00219 6.21724 9.00528 6.2168 9.00792 6.2168C9.0066 6.2269 9.00572 6.23699 9.0066 6.23699L9.05551 7.47733V7.47953L9.05595 7.48567L9.0564 7.49753Z" fill="#F46E0F"/>
<path d="M5.79629 10.3195L5.79541 10.3191L3.03845 9.32242C2.87539 9.26359 2.82956 9.05196 2.95339 8.93122C3.48354 8.41445 4.07275 7.95783 4.71131 7.57278C4.75758 7.54468 4.80429 7.51702 4.85101 7.49023L5.79629 10.3195Z" fill="#F24C1C"/>
<path d="M12.5209 12.7492L9.05441 7.47876L9.05309 7.47656L9.05088 7.47832L5.81445 10.3252L12.5178 12.7479L12.5209 12.7492Z" fill="#FD5E12"/>
<path d="M16.9585 10.0635C16.5765 10.2593 16.1622 10.5069 15.7158 10.8063L15.7109 10.8099L15.7634 8.36035C15.7669 8.36342 15.7709 8.36606 15.7744 8.36913C16.0657 8.60798 16.3424 8.86439 16.6038 9.13617L16.606 9.13836L16.9621 10.0613L16.9585 10.0635Z" fill="#F2E21B"/>
<path d="M0.736526 18.2663L4.6362 17.3816L4.74549 17.3566L4.78251 17.3483L4.78427 17.3478L4.7944 17.3456L4.80763 17.3426L4.81027 17.3421L4.82525 17.3386L4.82437 17.3004L4.77061 14.6156L4.76929 14.5462L4.76664 14.4193L4.76532 14.3622L4.75695 13.9403L2.38559 13.3849L2.30406 13.366L1.94754 13.2826L1.91097 13.2743L1.60645 13.2031L1.50641 13.3647L1.46675 13.4292L0.000573051 15.7984C-0.000749021 15.9442 0.00013236 16.0948 0.00409858 16.2497C0.0115903 16.5909 0.0256924 16.8429 0.0437607 17.0321C0.0816601 17.4321 0.135865 17.5494 0.173764 17.6249C0.288344 17.8466 0.446993 18.0328 0.636489 18.1886L0.736526 18.2663Z" fill="#E62878"/>
<path d="M3.19096 12.4842L2.38362 13.3847L2.14917 13.6464L2.14873 13.6469L2.14697 13.6486L2.14212 13.6539L2.13771 13.6587L2.12802 13.6425L2.06059 13.5288L1.90899 13.2732L0.966797 11.6856C0.982221 11.6619 0.999408 11.6395 1.01748 11.6189C1.2083 11.4028 1.54146 11.3519 1.79397 11.5245L2.90804 12.2897L3.19096 12.4842Z" fill="#EA4118"/>
<path d="M2.15302 13.6502L2.14905 13.6489L2.14773 13.6485L2.1301 13.6428L1.46686 13.4285L0.400391 13.0838C0.404798 13.0689 0.409645 13.0544 0.414052 13.0399C0.564768 12.5671 0.743248 12.1508 0.927897 11.7592C0.939796 11.7333 0.953457 11.7087 0.968881 11.6859C0.984306 11.6622 1.00149 11.6398 1.01956 11.6191L1.99922 13.2248L2.19092 13.5677L2.14861 13.6428L2.14993 13.6454L2.15081 13.6471L2.15125 13.648L2.15302 13.6502Z" fill="#DB292F"/>
<path d="M2.19697 13.5686L2.14982 13.6445L2.14894 13.6463L2.14762 13.648L2.14409 13.6537L0.0437607 17.0314C0.0256924 16.8422 0.0111496 16.5897 0.00409858 16.249C0.00013236 16.094 -0.000749021 15.9439 0.000573051 15.7977C0.012031 14.6785 0.172002 13.8127 0.399839 13.083C0.404246 13.068 0.409093 13.0536 0.4135 13.0391L1.50597 13.3635L2.06212 13.5286L2.08945 13.537L2.19036 13.5668L2.19697 13.5686Z" fill="#D61D4C"/>
<path d="M6.9434 15.0604L4.76727 14.4185L4.62801 14.3772L4.57513 14.3619L4.53811 14.3509L2.15133 13.6466H2.15045L2.14913 13.6462L2.14648 13.6453L2.14869 13.6418V13.6414L2.19099 13.5667L2.30425 13.3652L2.9102 12.2891L3.19312 12.4836L6.55912 14.7961V14.7965L6.57983 14.8106L6.9434 15.0604Z" fill="#E8313E"/>
<path d="M7.51189 15.4524L6.94208 15.0607L6.57851 14.8109L6.5578 14.7969V14.7964L4.76463 14.3618L4.57381 14.3152L4.53282 14.3056L4.5293 14.3047L4.53326 14.3095L4.57381 14.3622L4.76991 14.6151L5.94479 16.1325L5.94964 16.1386L5.96374 16.1571L6.01398 16.1347L6.08405 16.1035L7.52379 15.4607L7.51189 15.4524Z" fill="#E92B5F"/>
<path d="M6.00108 16.0738L4.52917 14.2627L4.78918 17.4173L6.00108 16.0738Z" fill="#F5368D"/>
<path d="M0.634766 18.1881L0.734802 18.2658C1.40686 18.7563 2.40061 18.9161 3.19914 18.956L3.21325 18.9569L4.78255 17.3596L4.78387 17.3583L4.79312 17.3491L4.78343 17.3508L4.78166 17.3513L4.78078 17.3184L4.61685 17.3561L0.634766 18.1881Z" fill="#C91D7B"/>
<path d="M3.21527 18.9567C3.41975 18.9668 3.61101 18.969 3.78024 18.9668C4.18567 18.9637 4.57877 18.8355 4.91017 18.6015L4.92868 18.5884L4.81322 17.3941L4.80969 17.3603L4.80793 17.3423L4.80749 17.3388L4.80573 17.3199L4.79471 17.3313L4.78413 17.3164L4.78193 17.3186L4.77973 17.3208L4.74535 17.3564L4.74227 17.3599L3.20117 18.9558L3.21527 18.9567Z" fill="#8D1171"/>
<path d="M7.51128 15.4531L6.057 16.0731L6.00059 16.0744L5.96401 16.1126L5.98649 16.146L5.94727 16.1302L5.94903 16.1398L5.96445 16.2254L6.22093 17.6528C6.25443 17.6287 6.28792 17.6041 6.32185 17.5799C6.32494 17.5777 6.32802 17.5755 6.33111 17.5733C6.7978 17.2353 7.26449 16.8972 7.73118 16.56C8.06082 16.3189 8.05421 15.8268 7.71796 15.5954L7.52362 15.4619L7.51128 15.4531Z" fill="#EB2D7D"/>
<path d="M6.32203 17.5793C6.28854 17.6035 6.25505 17.628 6.22112 17.6522C6.01708 17.8002 5.8126 17.9481 5.60856 18.0961C5.59225 18.1079 5.5755 18.1198 5.5592 18.1316L4.82677 17.3795L4.8087 17.3607L4.79372 17.3453L4.78711 17.3383L4.79636 17.3286L4.80474 17.3198L4.82369 17.3001L5.94436 16.1326L5.94745 16.1295L5.96419 16.1124L6.00077 16.0742L6.00518 16.0949L6.01355 16.1348L6.0206 16.1673L6.32203 17.5793Z" fill="#F0328E"/>
<path d="M4.92825 18.5882C4.92957 18.5873 4.93045 18.5864 4.93178 18.5855C5.1411 18.434 5.35087 18.2826 5.5602 18.1311C5.57651 18.1192 5.59325 18.1074 5.60956 18.0955L4.83835 17.368L4.81015 17.3417L4.80706 17.3386L4.79648 17.3289L4.7837 17.3166L4.78106 17.3145L4.7793 17.321L4.78194 17.3483L4.78238 17.3518L4.78326 17.3601L4.9093 18.6018" fill="#CF2284"/>
<path d="M10.9553 20.6189L8.48344 23.6181L8.45303 23.6554L8.44775 23.662L8.43937 23.6717L8.4288 23.6848L8.42659 23.6875L8.42483 23.6897L8.41602 23.7006V19.8492L8.42924 19.8418C9.07044 19.4751 9.57591 19.2539 9.80816 19.1911C10.1272 19.0822 10.5304 19.1797 10.6287 19.5089L10.8975 20.42L10.898 20.4222L10.9553 20.6189Z" fill="#FC772A"/>
<path d="M8.4145 19.8488C8.0593 20.053 7.6781 20.3191 7.31145 20.6637C7.29691 20.6773 7.28237 20.6909 7.26782 20.705L8.40304 23.6366L8.40877 23.6511L8.4145 23.666L8.41979 23.6796L8.42375 23.6893L8.42552 23.6936L8.42816 23.7002V23.6994V23.6844V23.6432V23.6405V23.6309V23.6269V19.8418L8.4145 19.8488Z" fill="#C32979"/>
<path d="M5.48438 24.5119L8.41629 23.7229L8.43039 23.7194L8.45287 23.7132L8.4467 23.6961L8.43744 23.6711L8.43303 23.6592L8.42687 23.6425L8.42554 23.639L8.42246 23.6316V23.6311L8.41364 23.6074L7.3106 20.6631C7.29605 20.6767 7.28151 20.6903 7.26697 20.7044C6.96642 20.9928 6.67688 21.3348 6.4204 21.7401C5.9352 22.5027 5.60865 23.427 5.50156 24.3472L5.48438 24.5119Z" fill="#891F85"/>
<path d="M12.6002 26.1988L8.4595 23.7045L8.45289 23.7006L8.44716 23.6966L8.43967 23.6927L8.42689 23.6848L8.42337 23.6826L8.41896 23.6799L8.41367 23.6768L8.39648 23.6663L8.40794 23.6514L8.41367 23.6439L8.41543 23.6413L8.4194 23.636L8.42249 23.6321L8.42293 23.6316L8.42689 23.6264L10.8952 20.4199L10.8956 20.4221L10.9538 20.6188L12.576 26.1167L12.5808 26.1334L12.5817 26.136L12.6002 26.1988Z" fill="#AABF56"/>
<path d="M8.47023 23.6659L8.46053 23.7041L8.45701 23.7169L8.44247 23.7744L7.23277 28.4999C7.2244 28.4916 7.21602 28.4833 7.20765 28.4754C6.30732 27.5898 6.02043 27.131 6.02043 27.131C5.55815 26.3951 5.40302 25.4612 5.48631 24.512L5.50306 24.3473L8.40368 23.6361L8.41514 23.633H8.41558L8.41691 23.6326L8.4244 23.6308H8.42484L8.4288 23.626L8.47023 23.6659Z" fill="#5C40AE"/>
<path d="M9.81479 30.8034L9.75309 30.7814C9.69228 30.7551 9.63587 30.716 9.58783 30.6642L9.34942 30.4096C9.34589 30.4061 9.34325 30.403 9.34016 30.3995C9.33488 30.3933 9.33003 30.3876 9.32342 30.3837C9.02992 30.1128 8.81134 29.9139 8.77211 29.8809C8.12915 29.344 7.625 28.8825 7.2341 28.4997C7.22573 28.4913 7.21736 28.483 7.20898 28.4751L8.41912 23.7227L8.42661 23.6933L8.42749 23.6902L8.42926 23.6836L8.43543 23.6591L8.43895 23.6454L8.43587 23.6318L8.446 23.6498L8.44821 23.6613L8.4557 23.6999L8.45878 23.7166L9.43888 28.8399L9.49132 29.1152L9.81479 30.8034Z" fill="#203BA4"/>
<path d="M12.7869 26.8285L9.50724 29.123L9.50416 29.1085L9.49006 29.1133L9.43717 28.8402L8.89512 26.0074L8.45531 23.7687L8.45047 23.7428L8.44474 23.7133L8.44077 23.6936L8.44033 23.6923L8.43901 23.6848L8.43813 23.6813L8.43725 23.6765L8.43372 23.6589L8.42755 23.626L8.44033 23.6339L8.44121 23.6343L8.48352 23.6598L12.5767 26.1163L12.5815 26.133L12.5824 26.1356L12.6009 26.1984L12.7644 26.7534L12.786 26.8258L12.7869 26.8285Z" fill="#306DDE"/>
<path d="M12.8721 27.9433C12.0313 28.8864 11.3178 29.6192 10.9031 30.0446C10.7096 30.2431 10.5814 30.3748 10.536 30.4297C10.5316 30.4319 10.5289 30.4354 10.5254 30.4394C10.5237 30.4415 10.5219 30.4437 10.5192 30.4464L10.3139 30.665C10.1821 30.8055 9.98645 30.8529 9.81326 30.8042L9.75156 30.7823L9.49023 29.1156L9.49156 29.1147L9.50434 29.1055L12.765 26.7539L12.7862 26.8259L12.787 26.8285L12.9765 27.47C13.0255 27.6369 12.9862 27.816 12.8721 27.9433Z" fill="#306DDE" stroke="#306DDE" stroke-width="0.0078207"/>
<path d="M17.4499 5.07324C16.8074 5.07324 16.2869 5.59265 16.2869 6.23279C16.2869 6.87338 16.8078 7.39234 17.4499 7.39234C18.0924 7.39234 18.6129 6.87294 18.6129 6.23279C18.6129 5.59265 18.0924 5.07324 17.4499 5.07324Z" fill="#E3D01E"/>
<path d="M1.77189 19.2988C1.38452 19.2988 1.07031 19.6119 1.07031 19.9982C1.07031 20.3846 1.38452 20.6977 1.77189 20.6977C2.15926 20.6977 2.47347 20.3846 2.47347 19.9982C2.47347 19.6119 2.15926 19.2988 1.77189 19.2988Z" fill="#C91D7B"/>
</g>
<g opacity="0.45" filter="url(#filter0_f_2565_3861)">
<ellipse cx="10.1418" cy="33.3509" rx="8.45238" ry="0.842105" fill="#306DDE"/>
</g>
<g opacity="0.14" filter="url(#filter1_f_2565_3861)">
<ellipse cx="10.4244" cy="33.3509" rx="3.6627" ry="0.842105" fill="#306DDE"/>
</g>
</g>
<line x1="84.5" y1="13" x2="84.5" y2="30" stroke="#052263"/>
<path d="M110.745 24.6175C110.745 26.0488 110.214 27.1776 109.152 28.004C108.104 28.8155 106.599 29.2213 104.636 29.2213C102.615 29.2213 101.065 28.8377 99.9881 28.0704C98.9109 27.2883 98.3723 26.1964 98.3723 24.7945C98.3723 23.8797 98.5936 23.1492 99.0363 22.6033C99.4938 22.0425 100.106 21.622 100.873 21.3416C100.136 21.0613 99.5749 20.6407 99.1913 20.08C98.8224 19.5045 98.6379 18.8479 98.6379 18.1101C98.6379 16.7378 99.1544 15.6679 100.187 14.9006C101.235 14.1186 102.725 13.7275 104.658 13.7275C106.636 13.7275 108.111 14.1038 109.085 14.8564C110.059 15.5942 110.546 16.605 110.546 17.8887C110.546 18.7593 110.347 19.475 109.948 20.0357C109.55 20.5817 108.96 20.9949 108.178 21.2752C108.974 21.5261 109.602 21.9319 110.059 22.4926C110.517 23.0533 110.745 23.7616 110.745 24.6175ZM104.658 20.2571C105.736 20.2571 106.547 20.0726 107.093 19.7037C107.639 19.3201 107.912 18.7815 107.912 18.0879C107.912 17.4534 107.639 16.9591 107.093 16.605C106.562 16.2361 105.743 16.0516 104.636 16.0516C103.53 16.0516 102.688 16.2361 102.113 16.605C101.552 16.9739 101.272 17.4829 101.272 18.1322C101.272 18.8257 101.545 19.3569 102.091 19.7258C102.637 20.08 103.493 20.2571 104.658 20.2571ZM104.614 22.4041C103.507 22.4041 102.644 22.5885 102.024 22.9574C101.405 23.3263 101.095 23.8723 101.095 24.5953C101.095 25.3331 101.397 25.9012 102.002 26.2997C102.607 26.6981 103.478 26.8973 104.614 26.8973C105.721 26.8973 106.569 26.6981 107.16 26.2997C107.765 25.8865 108.067 25.3331 108.067 24.6396C108.067 23.9018 107.779 23.3411 107.204 22.9574C106.628 22.5738 105.765 22.3893 104.614 22.4041Z" fill="#052263"/>
<path d="M121.394 22.4418C121.404 22.0213 121.415 21.5145 121.426 20.9214C121.437 20.3284 121.442 19.703 121.442 19.0453C121.453 18.3768 121.458 17.6975 121.458 17.0074C121.469 16.3065 121.475 15.638 121.475 15.0019H128.979V26H127.588V16.2958H122.833C122.833 16.7917 122.828 17.3363 122.817 17.9293C122.817 18.5223 122.812 19.1046 122.801 19.6761C122.801 20.2475 122.795 20.7974 122.785 21.3258C122.774 21.8433 122.763 22.28 122.752 22.6359C122.72 23.7788 122.477 24.6252 122.024 25.1751C121.582 25.725 120.86 26 119.857 26H119.129V24.7061H119.695C120.17 24.7061 120.563 24.5659 120.876 24.2856C121.2 23.9945 121.372 23.3799 121.394 22.4418ZM131.772 26V15.0019H139.439V16.2958H133.163V19.8055H139.229V21.067H133.163V24.7061H139.39V26H131.772ZM140.87 16.2958V15.0019H150.428V16.2958H146.352V26H144.961V16.2958H140.87Z" fill="#052263"/>
<rect x="106.609" y="10.6084" width="9.7832" height="9.7832" rx="4.8916" fill="white"/>
<path d="M110.877 19.1679V16.2781H108.001V14.8898H110.877V12H112.293V14.8898H115.169V16.2781H112.293V19.1679H110.877Z" fill="#052263"/>
<defs>
<filter id="filter0_f_2565_3861" x="-3.31055" y="27.5088" width="26.9048" height="11.6841" filterUnits="userSpaceOnUse" color-interpolation-filters="sRGB">
<feFlood flood-opacity="0" result="BackgroundImageFix"/>
<feBlend mode="normal" in="SourceGraphic" in2="BackgroundImageFix" result="shape"/>
<feGaussianBlur stdDeviation="2.5" result="effect1_foregroundBlur_2565_3861"/>
</filter>
<filter id="filter1_f_2565_3861" x="3.76172" y="29.5088" width="13.3254" height="7.68408" filterUnits="userSpaceOnUse" color-interpolation-filters="sRGB">
<feFlood flood-opacity="0" result="BackgroundImageFix"/>
<feBlend mode="normal" in="SourceGraphic" in2="BackgroundImageFix" result="shape"/>
<feGaussianBlur stdDeviation="1.5" result="effect1_foregroundBlur_2565_3861"/>
</filter>
<clipPath id="clip0_2565_3861">
<rect width="71" height="32" fill="white" transform="translate(0 5)"/>
</clipPath>
<clipPath id="clip1_2565_3861">
<rect width="20.7905" height="25.7516" fill="white" transform="translate(0 5.07324)"/>
</clipPath>
</defs>
</svg>
