<svg width="136" height="50" viewBox="0 0 136 50" fill="none" xmlns="http://www.w3.org/2000/svg">
<g clip-path="url(#clip0_2208_2543)">
<path d="M52.5698 48.9474C51.756 48.9474 51.1807 48.7777 50.8439 48.4383C50.5352 48.099 50.3809 47.5616 50.3809 46.8263V22.2645C50.3809 21.5292 50.5492 20.9919 50.886 20.6525C51.2228 20.2849 51.784 20.1011 52.5698 20.1011H56.653C57.4669 20.1011 58.0422 20.2849 58.379 20.6525C58.7157 20.9919 58.8841 21.5292 58.8841 22.2645V31.4275H68.4818V22.2645C68.4818 21.5292 68.6502 20.9919 68.987 20.6525C69.3237 20.2849 69.899 20.1011 70.7129 20.1011H74.7961C75.6099 20.1011 76.1852 20.2849 76.522 20.6525C76.8588 20.9919 77.0271 21.5292 77.0271 22.2645V46.8263C77.0271 47.5616 76.8588 48.099 76.522 48.4383C76.1852 48.7777 75.6099 48.9474 74.7961 48.9474H70.7129C69.899 48.9474 69.3237 48.7777 68.987 48.4383C68.6502 48.099 68.4818 47.5616 68.4818 46.8263V37.5785H58.8841V46.8263C58.8841 47.5616 58.7157 48.099 58.379 48.4383C58.0422 48.7777 57.4669 48.9474 56.653 48.9474H52.5698Z" fill="#052263"/>
<path d="M93.8968 49.5837C91.2308 49.5837 88.8734 49.1454 86.8248 48.2687C84.8042 47.392 83.2327 46.1193 82.1101 44.4508C80.9876 42.7822 80.4263 40.8025 80.4263 38.5118V22.2645C80.4263 21.5292 80.5947 20.9919 80.9315 20.6525C81.2682 20.2849 81.8295 20.1011 82.6153 20.1011H86.6985C87.5124 20.1011 88.0877 20.2849 88.4244 20.6525C88.7612 20.9919 88.9296 21.5292 88.9296 22.2645V38.6391C88.9296 40.2228 89.3646 41.4389 90.2345 42.2873C91.1326 43.1074 92.3533 43.5175 93.8968 43.5175C95.4403 43.5175 96.647 43.1074 97.517 42.2873C98.387 41.4389 98.822 40.2228 98.822 38.6391V22.2645C98.822 21.5292 98.9903 20.9919 99.3271 20.6525C99.6639 20.2849 100.225 20.1011 101.011 20.1011H105.094C105.908 20.1011 106.483 20.2849 106.82 20.6525C107.185 20.9919 107.367 21.5292 107.367 22.2645V38.5118C107.367 40.8025 106.792 42.7822 105.641 44.4508C104.519 46.1193 102.947 47.392 100.927 48.2687C98.9061 49.1454 96.5628 49.5837 93.8968 49.5837Z" fill="#052263"/>
<path d="M112.958 48.9474C112.145 48.9474 111.569 48.7777 111.232 48.4383C110.924 48.099 110.769 47.5616 110.769 46.8263V22.2645C110.769 21.5292 110.938 20.9919 111.275 20.6525C111.611 20.2849 112.173 20.1011 112.958 20.1011H125.503C128.786 20.1011 131.214 20.8364 132.785 22.307C134.357 23.7493 135.143 25.7714 135.143 28.3732C135.143 29.6458 134.82 30.8053 134.174 31.8517C133.557 32.8698 132.743 33.591 131.733 34.0152C134.511 34.9202 135.9 36.9705 135.9 40.1662C135.9 42.7398 135.002 44.8467 133.206 46.487C131.438 48.1272 128.828 48.9474 125.376 48.9474H112.958ZM123.903 31.3851C124.773 31.3851 125.447 31.173 125.924 30.7488C126.401 30.2963 126.639 29.6458 126.639 28.7974C126.639 27.8924 126.415 27.242 125.966 26.846C125.517 26.4501 124.829 26.2521 123.903 26.2521H119.273V31.3851H123.903ZM124.619 42.7963C125.517 42.7963 126.204 42.5418 126.681 42.0328C127.187 41.4954 127.439 40.8025 127.439 39.9541C127.439 38.9926 127.173 38.2714 126.639 37.7907C126.106 37.3099 125.376 37.0695 124.45 37.0695H119.273V42.7963H124.619Z" fill="#052263"/>
<path d="M48.9785 2.95844H58.3819V4.07444H54.6905V11.2012C54.6905 11.4883 54.6452 11.6907 54.5545 11.8081C54.4768 11.9125 54.289 11.9648 53.9911 11.9648H52.6894V4.07444H48.9785V2.95844Z" fill="#052263"/>
<path d="M65.7525 8.46013C65.7525 8.46013 65.5841 8.46013 65.2474 8.46013C64.9236 8.46013 64.4896 8.46013 63.9456 8.46013C63.4016 8.46013 62.8123 8.46665 62.1776 8.47971V11.9648H60.1765V4.03528C60.1765 3.65676 60.2542 3.38918 60.4096 3.23255C60.578 3.06286 60.8695 2.9715 61.2839 2.95844C61.4782 2.94539 61.7437 2.93886 62.0805 2.93886C62.4173 2.93886 62.7994 2.93886 63.2268 2.93886C63.6542 2.92581 64.0881 2.91929 64.5285 2.91929C64.9818 2.91929 65.4157 2.91929 65.8302 2.91929C66.2447 2.91929 66.6074 2.92581 66.9182 2.93886C67.242 2.95192 67.4881 2.96497 67.6565 2.97802C68.343 3.04328 68.8481 3.26518 69.1719 3.64371C69.4957 4.02223 69.6576 4.59655 69.6576 5.36665C69.6576 6.00623 69.5799 6.50223 69.4245 6.85465C69.282 7.19402 69.0618 7.45507 68.7639 7.63781C68.7121 7.67697 68.6279 7.7096 68.5114 7.73571C68.4077 7.76181 68.2976 7.77486 68.1811 7.77486V7.8336C68.2458 7.8336 68.3171 7.8336 68.3948 7.8336C68.4725 7.8336 68.5373 7.8336 68.5891 7.8336C69.0813 7.92497 69.3792 8.12076 69.4828 8.42097C69.5864 8.72118 69.6382 9.02792 69.6382 9.34118V11.4165C69.6382 11.5862 69.6512 11.7168 69.6771 11.8081C69.7159 11.8995 69.7418 11.9517 69.7548 11.9648H68.2976C68.0775 11.9648 67.9026 11.9321 67.7731 11.8669C67.6436 11.7885 67.5788 11.6058 67.5788 11.3187V9.47823C67.5788 9.0736 67.4881 8.80602 67.3068 8.6755C67.1384 8.53192 66.834 8.46013 66.3936 8.46013H65.7525ZM62.1776 7.42244C62.346 7.42244 62.6051 7.42897 62.9548 7.44202C63.3175 7.44202 63.7125 7.44855 64.1399 7.4616C64.5674 7.4616 64.9624 7.4616 65.3251 7.4616C65.6877 7.4616 65.9468 7.4616 66.1022 7.4616C66.5037 7.4616 66.8535 7.3376 67.1514 7.0896C67.4622 6.8416 67.6176 6.37823 67.6176 5.6995C67.6176 5.2296 67.527 4.8576 67.3456 4.5835C67.1773 4.30939 66.8988 4.15276 66.5102 4.1136C66.2771 4.07444 65.9727 4.05486 65.5971 4.05486C65.2215 4.04181 64.8329 4.03528 64.4314 4.03528C64.0298 4.03528 63.6607 4.04181 63.3239 4.05486C63.0001 4.05486 62.754 4.06139 62.5856 4.07444C62.5468 4.07444 62.4691 4.09402 62.3525 4.13318C62.2359 4.17234 62.1776 4.29634 62.1776 4.50518V7.42244Z" fill="#052263"/>
<path d="M70.9838 11.9648L73.7038 4.34855C73.8851 3.87865 74.1312 3.51971 74.4421 3.27171C74.7529 3.01065 75.2581 2.88013 75.9575 2.88013C76.5792 2.88013 77.052 2.9976 77.3758 3.23255C77.7126 3.46749 77.9716 3.83949 78.1529 4.34855L80.9312 11.9648H78.7747L77.9392 9.61529H73.3347L72.5187 11.9648H70.9838ZM73.6455 8.77339H77.5701L76.3461 5.19044C76.2943 5.02076 76.223 4.87065 76.1324 4.74013C76.0547 4.6096 75.8798 4.54434 75.6078 4.54434C75.3228 4.54434 75.135 4.61613 75.0444 4.75971C74.9537 4.89023 74.8825 5.03381 74.8307 5.19044L73.6455 8.77339Z" fill="#052263"/>
<path d="M85.0203 11.9648C84.4893 11.9648 84.0878 11.8473 83.8158 11.6123C83.5567 11.3774 83.3301 11.0054 83.1358 10.4963L80.4352 2.95844H82.6112L84.7483 9.51739C84.839 9.7915 84.9556 9.98076 85.098 10.0852C85.2405 10.1896 85.396 10.2418 85.5643 10.2418H85.8169L88.3232 2.95844H89.8386L86.4969 11.9648H85.0203Z" fill="#052263"/>
<path d="M91.6933 11.9648V3.70244C91.6933 3.41528 91.7322 3.21949 91.8099 3.11507C91.9005 3.01065 92.0883 2.95844 92.3733 2.95844H100.456V4.07444H93.6944V6.7176H99.8727V7.8336H93.6944V10.8488H100.456V11.9648H91.6933Z" fill="#052263"/>
<path d="M104.623 2.95844V10.8488H110.529V11.9648H102.641V3.72202C102.641 3.55234 102.647 3.41528 102.66 3.31086C102.673 3.19339 102.732 3.10855 102.835 3.05634C102.939 2.99107 103.101 2.95844 103.321 2.95844H104.623Z" fill="#052263"/>
<g clip-path="url(#clip1_2208_2543)">
<path d="M35.7305 27.6265L34.8923 27.0693L33.572 28.8804L33.4842 29.0012L33.4716 29.0182L33.4581 29.0361L33.4412 29.0599L33.3146 29.2334L33.2293 29.3508L33.1795 29.4189L28.9141 35.269L28.9318 35.85L28.9934 37.8176C29.0061 38.2531 29.5565 38.4233 29.8131 38.0762C32.0627 34.9823 34.1992 31.5201 35.565 28.057L35.7305 27.6265Z" fill="#59CBAF"/>
<path d="M33.8245 29.0727L33.7696 29.1492L33.6219 29.3525L33.5982 29.2981L33.5771 29.3347L33.5476 29.361L33.4606 29.4291L33.4058 29.4861L28.9327 35.8491L28.9141 35.2681L28.7166 28.9349L28.709 28.934V28.5623L32.9786 28.9884L33.2682 29.0174L33.4353 29.0335L33.4581 29.0361L33.4682 29.0369L33.4775 29.0378L33.7046 29.0608L33.8245 29.0727Z" fill="#A1D04C"/>
<path d="M33.5986 29.368L33.5007 29.4335L33.4754 29.4505L33.4053 29.4428L33.3969 29.442L33.3589 29.4377L33.2846 29.4301L33.1799 29.419L28.7169 28.9358L28.7093 28.935V28.6917L28.5177 22.5558L28.5 21.9884C28.5 21.9867 28.5 21.9841 28.5 21.9824L33.0989 28.2366L33.331 28.553L33.5108 28.7972L33.5193 28.8082L33.5724 28.8814L33.705 29.0617L33.77 29.1502L33.8223 29.2208L33.5986 29.368Z" fill="#E5ED28"/>
<path d="M33.3953 29.505L33.386 29.5109L33.2855 29.4293L33.2307 29.3493L32.9799 28.9878L28.5187 22.5541L28.5009 21.9867C28.5009 21.985 28.5009 21.9825 28.5009 21.9808C28.4781 21.1182 28.8715 20.2998 29.5646 19.7954L31.0308 18.7218L31.1684 18.6206L33.3311 28.5514L33.4358 29.0328L33.4417 29.0584L33.4543 29.1171L33.4594 29.14L33.5202 29.419L33.4966 29.4216L33.4611 29.4267L33.3953 29.505Z" fill="#DEDD23"/>
<path d="M35.9945 14.8281L35.9768 14.9268L35.9658 14.9872L33.5187 28.8072L33.4841 29.0003L33.4773 29.0378L33.4587 29.1416L33.4055 29.4427L33.3954 29.5014L33.3946 29.5048L33.3937 29.5031L33.3887 29.4929L33.3591 29.4376L33.3144 29.2326L33.2671 29.0165L33.0974 28.2356L31.0293 18.7225L31.1669 18.6213L32.8839 17.3648C34.0083 16.5422 34.9562 15.7622 35.7278 15.0246C35.7734 14.9812 35.8173 14.9387 35.8612 14.8953L35.9945 14.8281Z" fill="#C5DF26"/>
<path d="M35.7309 27.6266C36.6223 25.2541 37.1389 22.8892 37.0697 20.6494C37.0258 19.3045 36.8511 17.9978 36.5506 16.7414C36.5134 16.5772 36.5632 16.413 36.6822 16.299C37.2951 15.724 37.8151 15.1676 38.2447 14.6258L38.3047 14.55L35.9774 14.9277L35.9318 14.9354L35.9217 14.9958L33.5116 28.7971L33.4728 29.0191L33.4694 29.0379L33.4551 29.1187L33.3985 29.4419L33.3867 29.5108L33.396 29.5049L33.477 29.4504L33.5209 29.4215L33.6231 29.3535L33.8223 29.2208L35.5663 28.057L35.7309 27.6266Z" fill="#9DC62A"/>
<path d="M39.7719 11.4868C39.6166 12.4727 39.1355 13.4833 38.304 14.5492L38.2441 14.6249L35.9657 14.9873L35.9201 14.995L35.7285 15.0256C35.7741 14.9822 35.818 14.9397 35.8619 14.8963C37.2699 13.5242 38.0583 12.3009 38.2263 11.2282C38.2753 10.91 38.2685 10.6115 38.2035 10.3341C38.1689 10.1836 38.1166 10.0398 38.0474 9.90115L38.8392 8.3291C38.8864 8.37929 38.9329 8.43118 38.9776 8.48477C39.0367 8.55453 39.0924 8.62769 39.1464 8.70255C39.7154 9.49793 39.9349 10.4575 39.7719 11.4868Z" fill="#B7C017"/>
<path d="M38.9768 8.4847L38.2027 10.3341C38.1681 10.1835 38.1158 10.0397 38.0466 9.90108C37.9976 9.80325 37.9411 9.70882 37.8752 9.6178C37.5502 9.16354 37.0809 8.88537 36.468 8.78414C35.4508 8.61741 34.1239 8.95938 32.4879 9.8058L32.4812 9.8092L31.8008 8.01343L31.805 8.01769C31.8101 8.02279 31.8151 8.02789 31.8194 8.033C31.9569 8.17166 32.1638 8.20994 32.3385 8.12742C34.0462 7.32524 35.4787 7.04111 36.7111 7.23677C37.5612 7.37373 38.2888 7.74717 38.8375 8.32818C38.8865 8.37922 38.9321 8.43111 38.9768 8.4847Z" fill="#E9D912"/>
<path d="M30.0918 11.2554C29.7483 11.4885 29.3946 11.7386 29.0316 12.0048L27.1449 13.388L27.1289 13.3999L30.0809 6.41846C30.0868 6.42271 30.0927 6.42781 30.0986 6.43292C30.1298 6.45844 30.1619 6.48396 30.1931 6.51033C30.1999 6.51628 30.2075 6.52139 30.2142 6.52734L30.102 11.2486L30.0918 11.2554Z" fill="#F3D71A"/>
<path d="M30.0982 6.43296L27.1446 13.3881L27.1285 13.4L25.0849 14.8989L24.8038 15.1056C24.7978 15.1098 24.7919 15.1141 24.786 15.1183C24.7827 15.1209 24.7793 15.1226 24.7759 15.1251C24.7751 15.126 24.7742 15.1268 24.7725 15.1268C24.7691 15.1294 24.7649 15.1311 24.7616 15.1336C24.7599 15.1345 24.759 15.1353 24.7573 15.1362C24.754 15.1379 24.7506 15.1396 24.7472 15.1413C24.7455 15.1422 24.743 15.1439 24.7413 15.1447C24.7388 15.1464 24.7354 15.1473 24.7329 15.149C24.7312 15.1498 24.7295 15.1507 24.7269 15.1515C24.7227 15.1532 24.7185 15.1549 24.7143 15.1566C24.7134 15.1566 24.7134 15.1575 24.7126 15.1575C24.7092 15.1592 24.705 15.1609 24.7008 15.1617C24.694 15.1643 24.6873 15.1668 24.6805 15.1685C24.6763 15.1702 24.6721 15.1711 24.6679 15.1719C24.667 15.1719 24.6662 15.1728 24.6662 15.1728C24.6636 15.1736 24.6603 15.1745 24.6577 15.1753C24.6527 15.1762 24.6484 15.1779 24.6434 15.1787C24.6408 15.1796 24.6375 15.1804 24.6349 15.1804C24.6307 15.1813 24.6265 15.1821 24.6223 15.183C24.6172 15.1838 24.613 15.1847 24.6079 15.1855C24.6071 15.1855 24.6062 15.1855 24.6054 15.1855C24.6003 15.1864 24.5961 15.1864 24.5919 15.1872C24.5868 15.1881 24.5817 15.1881 24.5767 15.1881L23.0505 4.66101L23.0479 4.64485L22.9239 3.78652L22.6875 2.78442C22.7069 2.78868 22.7263 2.79378 22.7466 2.79803C22.7601 2.80144 22.7728 2.80399 22.7854 2.80739C22.7871 2.80824 22.7896 2.80824 22.7922 2.80909C22.815 2.8142 22.8378 2.82015 22.8605 2.82526C22.88 2.83036 22.9002 2.83461 22.9196 2.83972C25.5753 3.49389 28.0098 4.73076 30.0805 6.41935C30.0864 6.42275 30.0923 6.42786 30.0982 6.43296Z" fill="#F9B411"/>
<path d="M25.0837 14.8988L24.8026 15.1055C24.7967 15.1097 24.7908 15.114 24.7849 15.1182C24.7815 15.1208 24.7781 15.1225 24.7748 15.1251C24.7739 15.1259 24.7731 15.1268 24.7714 15.1268C24.768 15.1293 24.7638 15.131 24.7604 15.1336C24.7587 15.1344 24.7579 15.1353 24.7562 15.1361C24.7528 15.1378 24.7494 15.1395 24.7461 15.1412C24.7444 15.1421 24.7418 15.1438 24.7401 15.1446C24.7376 15.1463 24.7342 15.1472 24.7317 15.1489C24.73 15.1497 24.7283 15.1506 24.7258 15.1514C24.7216 15.1531 24.7174 15.1548 24.7131 15.1565C24.7123 15.1565 24.7123 15.1574 24.7114 15.1574C24.7081 15.1591 24.7039 15.1608 24.6996 15.1616C24.6929 15.1642 24.6861 15.1667 24.6794 15.1684C24.6752 15.1701 24.6709 15.171 24.6667 15.1718C24.6659 15.1718 24.665 15.1727 24.665 15.1727C24.6625 15.1735 24.6591 15.1744 24.6566 15.1752C24.6515 15.1761 24.6473 15.1778 24.6422 15.1786C24.6397 15.1795 24.6363 15.1803 24.6338 15.1803C24.6296 15.1812 24.6253 15.182 24.6211 15.1829C24.6161 15.1837 24.6118 15.1846 24.6068 15.1855C24.6059 15.1855 24.6051 15.1855 24.6042 15.1855C24.5992 15.1863 24.595 15.1863 24.5907 15.1872C24.5857 15.188 24.5806 15.188 24.5755 15.188C24.5705 15.188 24.5654 15.1889 24.5595 15.1889C24.5409 15.1897 24.5224 15.1889 24.5038 15.1872C24.497 15.1863 24.4903 15.1863 24.4835 15.1846C24.4802 15.1846 24.4768 15.1837 24.4734 15.1829C24.4666 15.182 24.4599 15.1812 24.454 15.1795C24.4489 15.1786 24.4439 15.1778 24.4388 15.1761C24.4211 15.1718 24.4025 15.1667 24.3848 15.1608L23.9821 15.0136L23.9762 15.0111L17.3404 4.80299L17.3379 4.79873L23.0476 4.64391L23.1388 4.64136H23.1489L25.0837 14.8988Z" fill="#F8950C"/>
<path d="M17.2031 1.77466H17.2091L17.2031 1.77637V1.77466Z" fill="#F97008"/>
<path d="M23.1417 4.65853L23.0505 4.66108L17.3484 4.80315H17.3408H17.334V4.80229V4.80144L17.2285 2.35831C17.2327 2.35831 17.2361 2.35746 17.2403 2.35746C17.2454 2.35746 17.2513 2.35661 17.2564 2.35661C17.4953 2.3396 17.7358 2.32769 17.9781 2.32003C18.1672 2.31408 18.3563 2.31152 18.5437 2.31152C18.5631 2.31152 18.5817 2.31152 18.6011 2.31152C18.6205 2.31152 18.6391 2.31152 18.6585 2.31152C18.6652 2.31152 18.6712 2.31152 18.6771 2.31152C18.699 2.31152 18.721 2.31152 18.7429 2.31237H18.7437C18.7699 2.31237 18.7969 2.31322 18.8231 2.31322C18.8476 2.31322 18.8721 2.31408 18.8957 2.31408C18.8982 2.31408 18.9008 2.31408 18.9033 2.31408C18.9067 2.31408 18.9092 2.31408 18.9126 2.31408C18.9202 2.31408 18.9286 2.31408 18.9362 2.31493C18.9404 2.31493 18.9438 2.31493 18.948 2.31493C18.9522 2.31493 18.9556 2.31493 18.9598 2.31493C18.9843 2.31578 19.0096 2.31578 19.0341 2.31663C19.0527 2.31663 19.0721 2.31748 19.0915 2.31833C19.1109 2.31918 19.1312 2.31918 19.1506 2.32003C19.17 2.32088 19.1886 2.32088 19.208 2.32173C19.2249 2.32258 19.2409 2.32258 19.2578 2.32343C19.2772 2.32428 19.2967 2.32513 19.3161 2.32598C19.333 2.32684 19.3498 2.32769 19.3667 2.32854C19.3802 2.32939 19.3946 2.32939 19.4081 2.33024C19.4275 2.33109 19.4478 2.33194 19.4672 2.33279C19.4765 2.33364 19.4866 2.33364 19.4959 2.33449C19.4976 2.33449 19.4993 2.33449 19.5009 2.33449C19.5026 2.33449 19.5043 2.33449 19.506 2.33449C19.5102 2.33449 19.5153 2.33449 19.5195 2.33534L19.5803 2.33874C19.6031 2.3396 19.6259 2.3413 19.6487 2.343C19.6605 2.34385 19.6715 2.3447 19.6833 2.3447C19.7002 2.34555 19.7179 2.3464 19.7348 2.3481C19.7567 2.3498 19.7787 2.35065 19.8006 2.35236C19.8251 2.35406 19.8504 2.35576 19.8749 2.35746C19.88 2.35746 19.8842 2.35831 19.8892 2.35831L19.9061 2.35916C19.9154 2.36001 19.9247 2.36086 19.9348 2.36086C19.9796 2.36427 20.0243 2.36767 20.0682 2.37107C20.0885 2.37277 20.1079 2.37447 20.1281 2.37617C20.1459 2.37788 20.1644 2.37958 20.1822 2.38128C20.2024 2.38298 20.2235 2.38468 20.2438 2.38723C20.2733 2.38979 20.302 2.39234 20.3316 2.39574C20.3501 2.39744 20.3696 2.39914 20.389 2.40169C20.3907 2.40169 20.3932 2.40169 20.3949 2.40255C20.4101 2.40425 20.4253 2.40595 20.4396 2.4068C20.4438 2.40765 20.4489 2.40765 20.4531 2.4085C20.4692 2.4102 20.4844 2.4119 20.5004 2.4136C20.5063 2.41445 20.5122 2.41445 20.5181 2.41531C20.5409 2.41786 20.5637 2.42041 20.5865 2.42296C20.5899 2.42296 20.5941 2.42381 20.5975 2.42381C20.6321 2.42807 20.6667 2.43147 20.7022 2.43572C20.752 2.44168 20.8018 2.44763 20.8507 2.45359C20.8668 2.45529 20.8836 2.45784 20.9005 2.45954C20.9242 2.46294 20.9486 2.4655 20.9723 2.4689C20.9934 2.47145 21.0153 2.47485 21.0364 2.4774C21.0575 2.47996 21.0795 2.48336 21.1006 2.48591C21.1225 2.48931 21.1436 2.49187 21.1647 2.49527C21.1858 2.49867 21.2061 2.50122 21.2272 2.50463C21.2297 2.50463 21.2314 2.50548 21.234 2.50548C21.2542 2.50803 21.2736 2.51143 21.2939 2.51483C21.3125 2.51739 21.331 2.52079 21.3496 2.52334C21.3614 2.52504 21.3732 2.52674 21.3842 2.52845C21.3986 2.531 21.4121 2.5327 21.4264 2.53525C21.4458 2.53865 21.4653 2.54121 21.4847 2.54461C21.5277 2.55141 21.5699 2.55822 21.6121 2.56587C21.6332 2.56928 21.6543 2.57353 21.6763 2.57693C21.6974 2.58034 21.7185 2.58459 21.7396 2.58799C21.7607 2.59139 21.7818 2.59565 21.8029 2.59905C21.824 2.60245 21.8451 2.60671 21.8662 2.61096C21.9084 2.61862 21.9506 2.62712 21.9928 2.63478C22.0139 2.63903 22.035 2.64329 22.0561 2.64669C22.0773 2.65094 22.0984 2.6552 22.1195 2.65945C22.1372 2.66285 22.1541 2.66625 22.1718 2.66966C22.1802 2.67136 22.1887 2.67306 22.1971 2.67476C22.2132 2.67816 22.2292 2.68157 22.2461 2.68497C22.2647 2.68837 22.2824 2.69262 22.301 2.69603C22.3246 2.70113 22.3482 2.70624 22.3719 2.71134C22.393 2.71559 22.4141 2.7207 22.4343 2.72495C22.4554 2.7292 22.4757 2.73431 22.4968 2.73856C22.5179 2.74281 22.539 2.74792 22.5593 2.75217C22.5804 2.75728 22.6006 2.76153 22.6217 2.76663C22.6428 2.77174 22.6631 2.77599 22.6842 2.78109C22.7036 2.78535 22.723 2.79045 22.7433 2.79471C22.7568 2.79811 22.7694 2.80066 22.7821 2.80406C22.7838 2.80491 22.7863 2.80491 22.7889 2.80576C22.8117 2.81087 22.8344 2.81682 22.8572 2.82193C22.8767 2.82703 22.8969 2.83128 22.9163 2.83639L23.0269 3.74491L23.1358 4.63897L23.1417 4.65853Z" fill="#F97008"/>
<path d="M17.3489 4.83786L17.3472 4.83956L11.1698 10.3307L11.1437 10.3545L11.1234 10.3723L11.1141 10.3443L11.0989 10.306L9.02148 4.98417C9.11012 4.92973 9.1996 4.87614 9.28908 4.82425C11.6484 3.4385 14.3421 2.56571 17.2282 2.35815C17.2324 2.35815 17.2358 2.3573 17.24 2.3573C17.2451 2.3573 17.251 2.35645 17.2561 2.35645C17.2535 2.37601 17.2518 2.39558 17.2535 2.39558L17.3472 4.79873V4.80298L17.3481 4.81489L17.3489 4.83786Z" fill="#F46E0F"/>
<path d="M11.1022 10.3052L11.1005 10.3044L5.8196 8.37334C5.50727 8.25935 5.41948 7.84933 5.65668 7.61539C6.67218 6.61415 7.80079 5.72945 9.02395 4.98341C9.11259 4.92897 9.20207 4.87538 9.29154 4.82349L11.1022 10.3052Z" fill="#F24C1C"/>
<path d="M23.9809 15.0146L17.3409 4.80308L17.3383 4.79883L17.3341 4.80223L11.1348 10.318L23.975 15.012L23.9809 15.0146Z" fill="#FD5E12"/>
<path d="M32.4816 9.80928C31.7497 10.1887 30.9562 10.6685 30.1011 11.2486L30.0918 11.2554L30.1923 6.50952C30.199 6.51548 30.2066 6.52058 30.2134 6.52653C30.7713 6.9893 31.3014 7.48609 31.802 8.01266L31.8062 8.01691L32.4883 9.80503L32.4816 9.80928Z" fill="#F2E21B"/>
<path d="M1.41081 25.7023L8.8806 23.9882L9.08995 23.9397L9.16086 23.9235L9.16423 23.9227L9.18365 23.9184L9.20897 23.9125L9.21404 23.9116L9.24274 23.9048L9.24105 23.8308L9.13806 18.6289L9.13553 18.4945L9.13047 18.2487L9.12794 18.1381L9.1119 17.3206L4.56958 16.2445L4.41342 16.2079L3.73051 16.0463L3.66044 16.0301L3.07714 15.8923L2.88552 16.2054L2.80955 16.3304L0.00109768 20.9207C-0.00143474 21.2031 0.000253535 21.4949 0.00785079 21.7952C0.0222012 22.4561 0.0492136 22.9444 0.0838234 23.3111C0.156419 24.086 0.260249 24.3131 0.332845 24.4595C0.552321 24.8891 0.856211 25.2497 1.21919 25.5517L1.41081 25.7023Z" fill="#E62878"/>
<path d="M6.11584 14.4999L4.56938 16.2447L4.1203 16.7517L4.11945 16.7525L4.11607 16.7559L4.10679 16.7661L4.09835 16.7755L4.07978 16.744L3.95062 16.5237L3.66024 16.0286L1.85547 12.9525C1.88501 12.9066 1.91794 12.8632 1.95254 12.8232C2.31806 12.4047 2.95623 12.306 3.43992 12.6403L5.5739 14.1231L6.11584 14.4999Z" fill="#EA4118"/>
<path d="M4.12277 16.7592L4.11517 16.7566L4.11264 16.7558L4.07887 16.7447L2.80844 16.3296L0.765625 15.6618C0.774066 15.6329 0.783352 15.6048 0.791793 15.5768C1.08049 14.6606 1.42237 13.8541 1.77606 13.0953C1.79885 13.0451 1.82502 12.9975 1.85457 12.9533C1.88411 12.9073 1.91703 12.864 1.95164 12.824L3.82816 15.9349L4.19536 16.5993L4.11433 16.7447L4.11686 16.7498L4.11855 16.7532L4.11939 16.7549L4.12277 16.7592Z" fill="#DB292F"/>
<path d="M4.20829 16.6018L4.11797 16.749L4.11628 16.7524L4.11375 16.7558L4.10699 16.7669L0.0838234 23.3111C0.0492136 22.9445 0.021357 22.4553 0.00785079 21.7952C0.000253535 21.4949 -0.00143474 21.204 0.00109768 20.9207C0.0230453 18.7523 0.329468 17.0748 0.765888 15.661C0.77433 15.6321 0.783615 15.604 0.792057 15.5759L2.88468 16.2046L3.94998 16.5244L4.00232 16.5406L4.19563 16.5984L4.20829 16.6018Z" fill="#D61D4C"/>
<path d="M13.2998 19.4925L9.13143 18.2488L8.86468 18.1688L8.76338 18.1391L8.69247 18.1178L4.12061 16.7533H4.11893L4.11639 16.7525L4.11133 16.7508L4.11555 16.744V16.7431L4.19659 16.5985L4.41353 16.208L5.57422 14.123L6.11616 14.4999L12.5637 18.9804V18.9812L12.6034 19.0085L13.2998 19.4925Z" fill="#E8313E"/>
<path d="M14.3909 20.2512L13.2994 19.4924L12.603 19.0084L12.5633 18.9812V18.9803L9.12851 18.1382L8.76299 18.048L8.68449 18.0293L8.67773 18.0276L8.68533 18.0369L8.76299 18.139L9.13863 18.629L11.3891 21.5689L11.3984 21.5808L11.4254 21.6166L11.5216 21.5732L11.6559 21.5128L14.4137 20.2674L14.3909 20.2512Z" fill="#E92B5F"/>
<path d="M11.4972 21.4551L8.67773 17.946L9.17578 24.0581L11.4972 21.4551Z" fill="#F5368D"/>
<path d="M1.21875 25.5519L1.41037 25.7025C2.69768 26.6527 4.60122 26.9623 6.1308 27.0397L6.15781 27.0414L9.16379 23.9467L9.16632 23.9441L9.18405 23.9262L9.16548 23.9296L9.1621 23.9305L9.16041 23.8667L8.8464 23.9399L1.21875 25.5519Z" fill="#C91D7B"/>
<path d="M6.15787 27.0414C6.54955 27.061 6.91591 27.0652 7.24006 27.061C8.01667 27.055 8.76964 26.8066 9.40443 26.3532L9.43989 26.3277L9.21872 24.0138L9.21197 23.9483L9.20859 23.9135L9.20775 23.9067L9.20437 23.8701L9.18327 23.8922L9.16301 23.8633L9.15879 23.8675L9.15457 23.8718L9.08872 23.9407L9.08282 23.9475L6.13086 27.0397L6.15787 27.0414Z" fill="#8D1171"/>
<path d="M14.3904 20.2512L11.6047 21.4524L11.4967 21.4549L11.4266 21.5289L11.4697 21.5936L11.3945 21.563L11.3979 21.5817L11.4275 21.7476L11.9187 24.5131C11.9829 24.4663 12.0471 24.4187 12.112 24.3719C12.118 24.3676 12.1239 24.3634 12.1298 24.3591C13.0237 23.7041 13.9177 23.0491 14.8116 22.3958C15.443 21.9287 15.4304 20.9751 14.7863 20.5268L14.414 20.2682L14.3904 20.2512Z" fill="#EB2D7D"/>
<path d="M12.112 24.3712C12.0479 24.418 11.9837 24.4656 11.9187 24.5124C11.5279 24.7991 11.1362 25.0858 10.7454 25.3724C10.7141 25.3954 10.682 25.4184 10.6508 25.4413L9.24785 23.9841L9.21324 23.9476L9.18454 23.9178L9.17188 23.9042L9.1896 23.8855L9.20564 23.8684L9.24194 23.8302L11.3886 21.5682L11.3945 21.5623L11.4266 21.5291L11.4966 21.4551L11.5051 21.4951L11.5211 21.5725L11.5346 21.6354L12.112 24.3712Z" fill="#F0328E"/>
<path d="M9.44157 26.3267C9.4441 26.325 9.44579 26.3233 9.44832 26.3216C9.84929 26.0281 10.2511 25.7346 10.6521 25.4411C10.6833 25.4182 10.7154 25.3952 10.7466 25.3722L9.26936 23.9627L9.21534 23.9116L9.20943 23.9057L9.18917 23.887L9.16469 23.8631L9.15963 23.8589L9.15625 23.8716L9.16131 23.9244L9.16216 23.9312L9.16385 23.9474L9.40527 26.3531" fill="#CF2284"/>
<path d="M20.985 30.2604L16.2502 36.0713L16.192 36.1436L16.1819 36.1564L16.1658 36.1751L16.1456 36.2006L16.1414 36.2057L16.138 36.21L16.1211 36.2312V28.7691L16.1464 28.7547C17.3746 28.0444 18.3429 27.6156 18.7877 27.494C19.3989 27.283 20.1713 27.4719 20.3595 28.1099L20.8744 29.875L20.8753 29.8793L20.985 30.2604Z" fill="#FC772A"/>
<path d="M16.1183 28.769C15.4379 29.1645 14.7078 29.6801 14.0054 30.3478C13.9776 30.3742 13.9497 30.4006 13.9219 30.4278L16.0964 36.1077L16.1074 36.1358L16.1183 36.1647L16.1285 36.1911L16.1361 36.2098L16.1394 36.2183L16.1445 36.2311V36.2294V36.2005V36.1205V36.1154V36.0967V36.089V28.7554L16.1183 28.769Z" fill="#C32979"/>
<path d="M10.5078 37.8039L16.1239 36.2753L16.1509 36.2685L16.1939 36.2566L16.1821 36.2234L16.1644 36.1749L16.156 36.1519L16.1441 36.1196L16.1416 36.1128L16.1357 36.0983V36.0975L16.1188 36.0515L14.0059 30.3469C13.9781 30.3733 13.9502 30.3997 13.9224 30.4269C13.3467 30.9858 12.7921 31.6485 12.3008 32.4336C11.3714 33.9112 10.7459 35.7019 10.5407 37.4849L10.5078 37.8039Z" fill="#891F85"/>
<path d="M24.1382 41.0716L16.2066 36.2389L16.194 36.2312L16.183 36.2236L16.1687 36.2159L16.1442 36.2006L16.1374 36.1963L16.129 36.1912L16.1189 36.1853L16.0859 36.1649L16.1079 36.136L16.1189 36.1215L16.1222 36.1164L16.1298 36.1062L16.1357 36.0985L16.1366 36.0977L16.1442 36.0875L20.8722 29.875L20.8731 29.8793L20.9845 30.2604L24.0918 40.9125L24.101 40.9448L24.1027 40.9499L24.1382 41.0716Z" fill="#AABF56"/>
<path d="M16.2255 36.1638L16.207 36.2378L16.2002 36.2625L16.1724 36.374L13.8552 45.5297C13.8392 45.5136 13.8231 45.4974 13.8071 45.4821C12.0825 43.7663 11.533 42.8773 11.533 42.8773C10.6475 41.4516 10.3503 39.6422 10.5099 37.8031L10.542 37.4841L16.0981 36.106L16.12 36.1H16.1209L16.1234 36.0992L16.1378 36.0958H16.1386L16.1462 36.0864L16.2255 36.1638Z" fill="#5C40AE"/>
<path d="M18.798 49.9943L18.6799 49.9517C18.5634 49.9007 18.4553 49.825 18.3633 49.7246L17.9066 49.2312C17.8999 49.2244 17.8948 49.2184 17.8889 49.2116C17.8788 49.1997 17.8695 49.1887 17.8568 49.181C17.2946 48.6562 16.8759 48.2708 16.8008 48.207C15.5692 47.1666 14.6035 46.2726 13.8548 45.5308C13.8387 45.5146 13.8227 45.4985 13.8066 45.4831L16.1246 36.2755L16.139 36.2185L16.1407 36.2125L16.1441 36.1997L16.1559 36.1521L16.1626 36.1257L16.1567 36.0994L16.1761 36.1342L16.1804 36.1564L16.1947 36.2312L16.2006 36.2635L18.078 46.1901L18.1784 46.7234L18.798 49.9943Z" fill="#203BA4"/>
<path d="M24.4948 42.2922L18.2127 46.7378L18.2068 46.7098L18.1798 46.7191L18.0785 46.19L17.0402 40.7015L16.1977 36.3639L16.1884 36.3137L16.1775 36.2567L16.1699 36.2184L16.169 36.2159L16.1665 36.2014L16.1648 36.1946L16.1631 36.1852L16.1563 36.1512L16.1445 36.0874L16.169 36.1027L16.1707 36.1036L16.2517 36.1529L24.0921 40.9124L24.1014 40.9447L24.1031 40.9498L24.1385 41.0715L24.4517 42.1467L24.4931 42.2871L24.4948 42.2922Z" fill="#286EC3"/>
<path d="M24.6557 44.4519C23.045 46.2792 21.6784 47.699 20.884 48.5233C20.5135 48.9078 20.2678 49.163 20.1809 49.2693C20.1724 49.2736 20.1674 49.2804 20.1606 49.288C20.1572 49.2923 20.1539 49.2965 20.1488 49.3016L19.7554 49.7253C19.503 49.9975 19.1282 50.0893 18.7965 49.9949L18.6783 49.9524L18.1777 46.7232L18.1803 46.7215L18.2047 46.7037L24.4505 42.1475L24.4911 42.287L24.4927 42.2921L24.8557 43.5349C24.9494 43.8582 24.8743 44.2052 24.6557 44.4519Z" fill="#2A66C6" stroke="#2A66C6" stroke-width="0.0078207"/>
<path d="M33.423 0.141357C32.1922 0.141357 31.1953 1.1477 31.1953 2.38799C31.1953 3.62912 32.1931 4.63461 33.423 4.63461C34.6538 4.63461 35.6507 3.62827 35.6507 2.38799C35.6507 1.1477 34.6538 0.141357 33.423 0.141357Z" fill="#E3D01E"/>
<path d="M3.39465 27.7041C2.65265 27.7041 2.05078 28.3106 2.05078 29.0592C2.05078 29.8078 2.65265 30.4143 3.39465 30.4143C4.13665 30.4143 4.73852 29.8078 4.73852 29.0592C4.73852 28.3106 4.13665 27.7041 3.39465 27.7041Z" fill="#C91D7B"/>
</g>
</g>
<defs>
<clipPath id="clip0_2208_2543">
<rect width="136" height="50" fill="white"/>
</clipPath>
<clipPath id="clip1_2208_2543">
<rect width="39.824" height="49.8937" fill="white" transform="translate(0 0.141357)"/>
</clipPath>
</defs>
</svg>
