<svg width="21" height="26" viewBox="0 0 21 26" fill="none" xmlns="http://www.w3.org/2000/svg">
<g clip-path="url(#clip0_438_2788)">
<path d="M18.5977 14.1859L18.1615 13.8983L17.4743 14.8331L17.4286 14.8954L17.422 14.9042L17.415 14.9134L17.4062 14.9257L17.3403 15.0153L17.2959 15.0759L17.27 15.111L15.0498 18.1304L15.059 18.4303L15.0911 19.4458C15.0977 19.6706 15.3842 19.7584 15.5177 19.5793C16.6887 17.9824 17.8007 16.1955 18.5116 14.4081L18.5977 14.1859Z" fill="#59CBAF"/>
<path d="M17.606 14.9324L17.5774 14.9719L17.5005 15.0768L17.4882 15.0487L17.4772 15.0676L17.4619 15.0812L17.4166 15.1163L17.388 15.1458L15.0598 18.4299L15.0501 18.13L14.9473 14.8613L14.9434 14.8608V14.6689L17.1657 14.8889L17.3164 14.9038L17.4034 14.9122L17.4153 14.9135L17.4206 14.9139L17.4254 14.9144L17.5436 14.9262L17.606 14.9324Z" fill="#A1D04C"/>
<path d="M17.4888 15.0847L17.4378 15.1185L17.4246 15.1273L17.3882 15.1234L17.3838 15.1229L17.364 15.1207L17.3253 15.1168L17.2708 15.1111L14.9479 14.8617L14.9439 14.8612V14.7357L14.8442 11.5688L14.835 11.2759C14.835 11.275 14.835 11.2737 14.835 11.2728L17.2287 14.5008L17.3495 14.6641L17.4431 14.7901L17.4475 14.7958L17.4752 14.8336L17.5441 14.9267L17.578 14.9723L17.6052 15.0088L17.4888 15.0847Z" fill="#E5ED28"/>
<path d="M17.382 15.1553L17.3771 15.1584L17.3248 15.1163L17.2963 15.075L17.1658 14.8884L14.8437 11.5678L14.8345 11.2749C14.8345 11.2741 14.8345 11.2728 14.8345 11.2719C14.8226 10.8267 15.0274 10.4043 15.3881 10.1439L16.1513 9.58985L16.2229 9.5376L17.3486 14.6631L17.4031 14.9117L17.4061 14.9248L17.4127 14.9551L17.4154 14.967L17.447 15.111L17.4347 15.1123L17.4162 15.1149L17.382 15.1553Z" fill="#DEDD23"/>
<path d="M18.7348 7.58032L18.7256 7.63125L18.7199 7.66243L17.4461 14.7953L17.4281 14.895L17.4246 14.9143L17.4149 14.9679L17.3872 15.1233L17.382 15.1536L17.3815 15.1554L17.3811 15.1545L17.3784 15.1492L17.3631 15.1207L17.3398 15.0149L17.3152 14.9034L17.2269 14.5003L16.1504 9.59033L16.222 9.53808L17.1157 8.88959C17.7009 8.46502 18.1944 8.06241 18.5959 7.68174C18.6197 7.65935 18.6425 7.6374 18.6654 7.61501L18.7348 7.58032Z" fill="#C5DF26"/>
<path d="M18.5981 14.186C19.062 12.9614 19.3309 11.7408 19.2949 10.5848C19.2721 9.89066 19.1811 9.21627 19.0247 8.56778C19.0054 8.48304 19.0313 8.3983 19.0932 8.33947C19.4122 8.04267 19.6829 7.75552 19.9065 7.47584L19.9377 7.43677L18.7264 7.63171L18.7026 7.63566L18.6974 7.66683L17.443 14.7901L17.4227 14.9047L17.421 14.9143L17.4135 14.9561L17.3841 15.1229L17.3779 15.1585L17.3828 15.1554L17.4249 15.1273L17.4478 15.1124L17.501 15.0772L17.6046 15.0087L18.5124 14.4081L18.5981 14.186Z" fill="#9DC62A"/>
<path d="M20.7013 5.85573C20.6204 6.3646 20.37 6.8862 19.9372 7.43634L19.906 7.47541L18.7201 7.66245L18.6964 7.6664L18.5967 7.68221C18.6204 7.65982 18.6433 7.63787 18.6661 7.61547C19.399 6.90727 19.8094 6.27591 19.8968 5.72226C19.9223 5.55805 19.9188 5.40394 19.8849 5.26081C19.8669 5.1831 19.8397 5.1089 19.8036 5.03733L20.2158 4.22595C20.2404 4.25186 20.2645 4.27864 20.2878 4.3063C20.3186 4.3423 20.3476 4.38006 20.3757 4.4187C20.6718 4.82922 20.7861 5.32447 20.7013 5.85573Z" fill="#B7C017"/>
<path d="M20.2879 4.30629L19.8849 5.2608C19.8669 5.18308 19.8397 5.10888 19.8037 5.03732C19.7782 4.98683 19.7487 4.93809 19.7145 4.89111C19.5453 4.65665 19.301 4.51308 18.982 4.46084C18.4526 4.37478 17.7619 4.55128 16.9104 4.98814L16.9069 4.9899L16.5527 4.06305L16.5549 4.06524C16.5576 4.06788 16.5602 4.07051 16.5624 4.07315C16.634 4.14471 16.7417 4.16447 16.8326 4.12188C17.7215 3.70785 18.4671 3.56121 19.1086 3.66219C19.551 3.73288 19.9298 3.92562 20.2154 4.2255C20.2408 4.25184 20.2646 4.27863 20.2879 4.30629Z" fill="#E9D912"/>
<path d="M15.6623 5.73622C15.4835 5.85653 15.2994 5.98561 15.1105 6.12303L14.1285 6.83694L14.1201 6.84309L15.6566 3.23975C15.6597 3.24194 15.6628 3.24458 15.6658 3.24721C15.6821 3.26038 15.6988 3.27355 15.715 3.28716C15.7186 3.29024 15.7225 3.29287 15.726 3.29595L15.6676 5.73271L15.6623 5.73622Z" fill="#F3D71A"/>
<path d="M15.6668 3.24725L14.1295 6.83698L14.1211 6.84313L13.0574 7.61675L12.9111 7.72344C12.908 7.72563 12.9049 7.72783 12.9019 7.73003C12.9001 7.73134 12.8983 7.73222 12.8966 7.73354C12.8961 7.73398 12.8957 7.73442 12.8948 7.73442C12.8931 7.73573 12.8909 7.73661 12.8891 7.73793C12.8882 7.73837 12.8878 7.73881 12.8869 7.73925C12.8852 7.74012 12.8834 7.741 12.8816 7.74188C12.8808 7.74232 12.8794 7.7432 12.8786 7.74364C12.8772 7.74451 12.8755 7.74495 12.8742 7.74583C12.8733 7.74627 12.8724 7.74671 12.8711 7.74715C12.8689 7.74803 12.8667 7.7489 12.8645 7.74978C12.8641 7.74978 12.8641 7.75022 12.8636 7.75022C12.8619 7.7511 12.8597 7.75198 12.8575 7.75242C12.854 7.75373 12.8504 7.75505 12.8469 7.75593C12.8447 7.75681 12.8425 7.75725 12.8403 7.75769C12.8399 7.75769 12.8395 7.75813 12.8395 7.75813C12.8381 7.75856 12.8364 7.759 12.8351 7.75944C12.8324 7.75988 12.8302 7.76076 12.8276 7.7612C12.8263 7.76164 12.8245 7.76208 12.8232 7.76208C12.821 7.76252 12.8188 7.76296 12.8166 7.76339C12.814 7.76383 12.8118 7.76427 12.8091 7.76471C12.8087 7.76471 12.8083 7.76471 12.8078 7.76471C12.8052 7.76515 12.803 7.76515 12.8008 7.76559C12.7982 7.76603 12.7955 7.76603 12.7929 7.76603L11.9985 2.3327L11.9972 2.32435L11.9326 1.88135L11.8096 1.36414C11.8197 1.36633 11.8298 1.36897 11.8403 1.37116C11.8474 1.37292 11.8539 1.37423 11.8605 1.37599C11.8614 1.37643 11.8627 1.37643 11.8641 1.37687C11.8759 1.3795 11.8878 1.38258 11.8996 1.38521C11.9097 1.38784 11.9203 1.39004 11.9304 1.39267C13.3127 1.73031 14.5798 2.3687 15.6576 3.24023C15.6607 3.24198 15.6638 3.24462 15.6668 3.24725Z" fill="#F9B411"/>
<path d="M13.0561 7.61678L12.9098 7.72347C12.9067 7.72567 12.9036 7.72786 12.9006 7.73006C12.8988 7.73138 12.8971 7.73225 12.8953 7.73357C12.8949 7.73401 12.8944 7.73445 12.8935 7.73445C12.8918 7.73577 12.8896 7.73665 12.8878 7.73796C12.887 7.7384 12.8865 7.73884 12.8856 7.73928C12.8839 7.74016 12.8821 7.74104 12.8804 7.74191C12.8795 7.74235 12.8782 7.74323 12.8773 7.74367C12.876 7.74455 12.8742 7.74499 12.8729 7.74587C12.872 7.7463 12.8711 7.74674 12.8698 7.74718C12.8676 7.74806 12.8654 7.74894 12.8632 7.74982C12.8628 7.74982 12.8628 7.75026 12.8623 7.75026C12.8606 7.75113 12.8584 7.75201 12.8562 7.75245C12.8527 7.75377 12.8492 7.75509 12.8456 7.75596C12.8435 7.75684 12.8413 7.75728 12.8391 7.75772C12.8386 7.75772 12.8382 7.75816 12.8382 7.75816C12.8369 7.7586 12.8351 7.75904 12.8338 7.75948C12.8311 7.75992 12.829 7.76079 12.8263 7.76123C12.825 7.76167 12.8232 7.76211 12.8219 7.76211C12.8197 7.76255 12.8175 7.76299 12.8153 7.76343C12.8127 7.76387 12.8105 7.76431 12.8079 7.76474C12.8074 7.76474 12.807 7.76474 12.8065 7.76474C12.8039 7.76518 12.8017 7.76518 12.7995 7.76562C12.7969 7.76606 12.7942 7.76606 12.7916 7.76606C12.789 7.76606 12.7863 7.7665 12.7833 7.7665C12.7736 7.76694 12.7639 7.7665 12.7543 7.76562C12.7507 7.76518 12.7472 7.76518 12.7437 7.76431C12.742 7.76431 12.7402 7.76387 12.7384 7.76343C12.7349 7.76299 12.7314 7.76255 12.7283 7.76167C12.7257 7.76123 12.7231 7.76079 12.7204 7.75992C12.7112 7.75772 12.7015 7.75509 12.6923 7.75201L12.4827 7.67606L12.4797 7.67474L9.02573 2.40605L9.02441 2.40386L11.9963 2.32395L12.0438 2.32263H12.0491L13.0561 7.61678Z" fill="#F8950C"/>
<path d="M8.9541 0.843018H8.95719L8.9541 0.843899V0.843018Z" fill="#F97008"/>
<path d="M12.0456 2.33135L11.9981 2.33267L9.03016 2.40599H9.02621H9.0227V2.40555V2.40512L8.96777 1.14414C8.96997 1.14414 8.97173 1.1437 8.97392 1.1437C8.97656 1.1437 8.97964 1.14327 8.98227 1.14327C9.10662 1.13448 9.23184 1.12834 9.35794 1.12439C9.45636 1.12131 9.55478 1.12 9.65232 1.12C9.66242 1.12 9.67209 1.12 9.6822 1.12C9.6923 1.12 9.70197 1.12 9.71207 1.12C9.71559 1.12 9.71866 1.12 9.72174 1.12C9.73316 1.12 9.74459 1.12 9.75601 1.12043H9.75645C9.77007 1.12043 9.78413 1.12087 9.79775 1.12087C9.81049 1.12087 9.82323 1.12131 9.83554 1.12131C9.83686 1.12131 9.83817 1.12131 9.83949 1.12131C9.84125 1.12131 9.84257 1.12131 9.84432 1.12131C9.84828 1.12131 9.85267 1.12131 9.85663 1.12175C9.85882 1.12175 9.86058 1.12175 9.86278 1.12175C9.86497 1.12175 9.86673 1.12175 9.86893 1.12175C9.88167 1.12219 9.89485 1.12219 9.90759 1.12263C9.91726 1.12263 9.92737 1.12307 9.93747 1.12351C9.94758 1.12395 9.95812 1.12395 9.96823 1.12439C9.97833 1.12482 9.988 1.12482 9.99811 1.12526C10.0069 1.1257 10.0152 1.1257 10.024 1.12614C10.0341 1.12658 10.0442 1.12702 10.0543 1.12746C10.0631 1.1279 10.0719 1.12834 10.0807 1.12878C10.0877 1.12922 10.0952 1.12922 10.1022 1.12965C10.1123 1.13009 10.1229 1.13053 10.133 1.13097C10.1378 1.13141 10.1431 1.13141 10.1479 1.13185C10.1488 1.13185 10.1497 1.13185 10.1506 1.13185C10.1514 1.13185 10.1523 1.13185 10.1532 1.13185C10.1554 1.13185 10.158 1.13185 10.1602 1.13229L10.1919 1.13404C10.2037 1.13448 10.2156 1.13536 10.2275 1.13624C10.2336 1.13668 10.2393 1.13712 10.2455 1.13712C10.2543 1.13756 10.2635 1.138 10.2723 1.13887C10.2837 1.13975 10.2951 1.14019 10.3065 1.14107C10.3193 1.14195 10.3325 1.14283 10.3452 1.1437C10.3478 1.1437 10.35 1.14414 10.3527 1.14414L10.3615 1.14458C10.3663 1.14502 10.3711 1.14546 10.3764 1.14546C10.3997 1.14722 10.423 1.14897 10.4458 1.15073C10.4564 1.15161 10.4665 1.15249 10.477 1.15336C10.4863 1.15424 10.4959 1.15512 10.5051 1.156C10.5157 1.15688 10.5267 1.15775 10.5372 1.15907C10.5526 1.16039 10.5675 1.16171 10.5829 1.16346C10.5926 1.16434 10.6027 1.16522 10.6128 1.16654C10.6137 1.16654 10.615 1.16654 10.6159 1.16697C10.6238 1.16785 10.6317 1.16873 10.6392 1.16917C10.6413 1.16961 10.644 1.16961 10.6462 1.17005C10.6545 1.17093 10.6624 1.1718 10.6708 1.17268C10.6739 1.17312 10.6769 1.17312 10.68 1.17356C10.6919 1.17488 10.7037 1.17619 10.7156 1.17751C10.7174 1.17751 10.7196 1.17795 10.7213 1.17795C10.7393 1.18015 10.7573 1.1819 10.7758 1.1841C10.8017 1.18717 10.8276 1.19024 10.8531 1.19332C10.8615 1.1942 10.8703 1.19551 10.8791 1.19639C10.8914 1.19815 10.9041 1.19946 10.9164 1.20122C10.9274 1.20254 10.9388 1.20429 10.9498 1.20561C10.9608 1.20693 10.9722 1.20868 10.9832 1.21C10.9946 1.21176 11.0056 1.21308 11.0166 1.21483C11.0276 1.21659 11.0381 1.2179 11.0491 1.21966C11.0504 1.21966 11.0513 1.2201 11.0526 1.2201C11.0631 1.22142 11.0733 1.22317 11.0838 1.22493C11.0935 1.22625 11.1031 1.228 11.1128 1.22932C11.1189 1.2302 11.1251 1.23108 11.1308 1.23195C11.1383 1.23327 11.1453 1.23415 11.1528 1.23547C11.1629 1.23722 11.173 1.23854 11.1831 1.2403C11.2055 1.24381 11.2275 1.24732 11.2494 1.25127C11.2604 1.25303 11.2714 1.25522 11.2828 1.25698C11.2938 1.25874 11.3048 1.26093 11.3158 1.26269C11.3268 1.26444 11.3378 1.26664 11.3487 1.2684C11.3597 1.27015 11.3707 1.27235 11.3817 1.27454C11.4037 1.27849 11.4256 1.28289 11.4476 1.28684C11.4586 1.28903 11.4696 1.29123 11.4806 1.29298C11.4915 1.29518 11.5025 1.29737 11.5135 1.29957C11.5227 1.30133 11.5315 1.30308 11.5407 1.30484C11.5451 1.30572 11.5495 1.30659 11.5539 1.30747C11.5623 1.30923 11.5706 1.31098 11.5794 1.31274C11.5891 1.3145 11.5983 1.31669 11.608 1.31845C11.6203 1.32108 11.6326 1.32372 11.6449 1.32635C11.6559 1.32855 11.6668 1.33118 11.6774 1.33338C11.6884 1.33557 11.6989 1.33821 11.7099 1.3404C11.7209 1.3426 11.7319 1.34523 11.7424 1.34743C11.7534 1.35006 11.7639 1.35226 11.7749 1.35489C11.7859 1.35753 11.7965 1.35972 11.8074 1.36235C11.8176 1.36455 11.8277 1.36718 11.8382 1.36938C11.8452 1.37114 11.8518 1.37245 11.8584 1.37421C11.8593 1.37465 11.8606 1.37465 11.8619 1.37509C11.8738 1.37772 11.8857 1.3808 11.8975 1.38343C11.9076 1.38606 11.9182 1.38826 11.9283 1.39089L11.9858 1.85981L12.0425 2.32126L12.0456 2.33135Z" fill="#F97008"/>
<path d="M9.03071 2.42404L9.02983 2.42492L5.8145 5.25903L5.80087 5.27133L5.79033 5.28055L5.7855 5.26606L5.77759 5.2463L4.69629 2.49956C4.74242 2.47146 4.789 2.4438 4.83557 2.41702C6.06362 1.70179 7.46566 1.25132 8.96788 1.14419C8.97008 1.14419 8.97184 1.14375 8.97403 1.14375C8.97667 1.14375 8.97975 1.14331 8.98238 1.14331C8.98106 1.15341 8.98018 1.16351 8.98106 1.16351L9.02983 2.40384V2.40604L9.03027 2.41219L9.03071 2.42404Z" fill="#F46E0F"/>
<path d="M5.77782 5.24591L5.77694 5.24547L3.02821 4.24881C2.86565 4.18998 2.81995 3.97835 2.94342 3.85761C3.47198 3.34084 4.05943 2.88422 4.69608 2.49917C4.74221 2.47107 4.78879 2.44341 4.83536 2.41663L5.77782 5.24591Z" fill="#F24C1C"/>
<path d="M12.4823 7.67645L9.02618 2.406L9.02486 2.40381L9.02266 2.40556L5.7959 5.25241L12.4792 7.67513L12.4823 7.67645Z" fill="#FD5E12"/>
<path d="M16.907 4.98985C16.526 5.18567 16.113 5.43329 15.6679 5.73273L15.6631 5.73624L15.7154 3.28674C15.7189 3.28982 15.7228 3.29245 15.7264 3.29552C16.0168 3.53437 16.2927 3.79078 16.5533 4.06256L16.5555 4.06475L16.9105 4.98765L16.907 4.98985Z" fill="#F2E21B"/>
<path d="M0.734326 13.1927L4.62235 12.308L4.73131 12.283L4.76822 12.2747L4.76998 12.2742L4.78008 12.272L4.79326 12.2689L4.7959 12.2685L4.81084 12.265L4.80996 12.2268L4.75635 9.54196L4.75504 9.47259L4.7524 9.34571L4.75108 9.28863L4.74273 8.86669L2.37846 8.31129L2.29718 8.29241L1.94173 8.20899L1.90526 8.20064L1.60165 8.12952L1.50191 8.29109L1.46237 8.35563L0.000571339 10.7248C-0.000746783 10.8705 0.000131965 11.0211 0.00408633 11.1761C0.0115557 11.5173 0.0256157 11.7693 0.04363 11.9585C0.0814161 12.3585 0.135459 12.4757 0.173245 12.5513C0.287483 12.773 0.445657 12.9591 0.634588 13.115L0.734326 13.1927Z" fill="#E62878"/>
<path d="M3.18334 7.41088L2.37841 8.31138L2.14466 8.57306L2.14422 8.5735L2.14246 8.57525L2.13763 8.58052L2.13324 8.58535L2.12357 8.56911L2.05635 8.45539L1.9052 8.19986L0.96582 6.61223C0.981198 6.58852 0.998334 6.56613 1.01635 6.54549C1.2066 6.32948 1.53876 6.27855 1.79053 6.4511L2.90126 7.21637L3.18334 7.41088Z" fill="#EA4118"/>
<path d="M2.1468 8.57698L2.14285 8.57566L2.14153 8.57522L2.12396 8.56951L1.4627 8.35525L0.399414 8.01059C0.403808 7.99566 0.408641 7.98118 0.413035 7.96669C0.563301 7.49382 0.741247 7.0776 0.925345 6.68596C0.937208 6.66005 0.950828 6.63547 0.966206 6.61263C0.981584 6.58893 0.99872 6.56653 1.01673 6.5459L1.99346 8.15153L2.18459 8.49443L2.14241 8.56951L2.14373 8.57215L2.14461 8.5739L2.14505 8.57478L2.1468 8.57698Z" fill="#DB292F"/>
<path d="M2.19041 8.49569L2.1434 8.57165L2.14252 8.5734L2.1412 8.57516L2.13769 8.58087L0.04363 11.9585C0.0256157 11.7693 0.0111163 11.5168 0.00408633 11.1761C0.000131965 11.0211 -0.000746783 10.871 0.000571339 10.7248C0.0119951 9.60563 0.171488 8.73981 0.398644 8.01009C0.403038 7.99516 0.407871 7.98068 0.412265 7.96619L1.50147 8.29065L2.05596 8.45574L2.0832 8.46408L2.18382 8.49393L2.19041 8.49569Z" fill="#D61D4C"/>
<path d="M6.92223 9.98764L4.7526 9.34574L4.61376 9.30446L4.56104 9.2891L4.52413 9.27812L2.14448 8.57387H2.1436L2.14228 8.57343L2.13965 8.57256L2.14185 8.56904V8.5686L2.18403 8.49397L2.29694 8.29244L2.90108 7.21631L3.18316 7.41081L6.5391 9.72333V9.72376L6.55975 9.73781L6.92223 9.98764Z" fill="#E8313E"/>
<path d="M7.49028 10.3793L6.92217 9.98762L6.55969 9.7378L6.53904 9.72375V9.72331L4.75123 9.28864L4.56098 9.2421L4.52012 9.23245L4.5166 9.23157L4.52056 9.2364L4.56098 9.28908L4.7565 9.54198L5.92787 11.0594L5.9327 11.0655L5.94676 11.0839L5.99685 11.0616L6.06671 11.0304L7.50215 10.3876L7.49028 10.3793Z" fill="#E92B5F"/>
<path d="M5.98411 11.0006L4.5166 9.18945L4.77583 12.3441L5.98411 11.0006Z" fill="#F5368D"/>
<path d="M0.634766 13.1151L0.734504 13.1928C1.40455 13.6833 2.39534 13.8431 3.19148 13.883L3.20554 13.8839L4.77015 12.2866L4.77147 12.2853L4.7807 12.2761L4.77103 12.2779L4.76927 12.2783L4.7684 12.2454L4.60495 12.2831L0.634766 13.1151Z" fill="#C91D7B"/>
<path d="M3.20547 13.8838C3.40934 13.8939 3.60002 13.8961 3.76874 13.8939C4.17297 13.8909 4.56489 13.7627 4.8953 13.5286L4.91375 13.5155L4.79864 12.3212L4.79512 12.2874L4.79336 12.2694L4.79292 12.2659L4.79117 12.247L4.78018 12.2585L4.76964 12.2435L4.76744 12.2457L4.76524 12.2479L4.73097 12.2835L4.7279 12.287L3.19141 13.883L3.20547 13.8838Z" fill="#8D1171"/>
<path d="M7.49 10.3793L6.04007 10.9992L5.98383 11.0005L5.94736 11.0387L5.96977 11.0721L5.93066 11.0563L5.93242 11.066L5.9478 11.1516L6.20352 12.5789C6.23691 12.5548 6.2703 12.5302 6.30413 12.5061C6.30721 12.5039 6.31028 12.5017 6.31336 12.4995C6.77866 12.1614 7.24395 11.8233 7.70925 11.4861C8.0379 11.2451 8.03131 10.7529 7.69607 10.5215L7.5023 10.3881L7.49 10.3793Z" fill="#EB2D7D"/>
<path d="M6.30378 12.5057C6.27038 12.5298 6.23699 12.5544 6.20316 12.5786C5.99973 12.7265 5.79586 12.8745 5.59243 13.0225C5.57617 13.0343 5.55948 13.0462 5.54322 13.058L4.81298 12.3059L4.79497 12.287L4.78003 12.2717L4.77344 12.2647L4.78266 12.255L4.79101 12.2462L4.80991 12.2265L5.92723 11.059L5.93031 11.0559L5.947 11.0388L5.98347 11.0006L5.98787 11.0212L5.99622 11.0612L6.00324 11.0937L6.30378 12.5057Z" fill="#F0328E"/>
<path d="M4.91413 13.515C4.91545 13.5142 4.91633 13.5133 4.91765 13.5124C5.12635 13.3609 5.33549 13.2095 5.5442 13.058C5.56045 13.0461 5.57715 13.0343 5.59341 13.0224L4.8245 12.2949L4.79638 12.2686L4.79331 12.2655L4.78276 12.2558L4.77002 12.2435L4.76738 12.2413L4.76562 12.2479L4.76826 12.2751L4.7687 12.2787L4.76958 12.287L4.89524 13.5286" fill="#CF2284"/>
<path d="M10.9223 15.5453L8.45785 18.5445L8.42753 18.5818L8.42226 18.5884L8.41391 18.598L8.40337 18.6112L8.40117 18.6138L8.39941 18.616L8.39062 18.627V14.7756L8.40381 14.7681C9.0431 14.4015 9.54706 14.1802 9.77861 14.1175C10.0967 14.0086 10.4987 14.106 10.5967 14.4353L10.8647 15.3464L10.8652 15.3486L10.9223 15.5453Z" fill="#FC772A"/>
<path d="M8.38934 14.7756C8.03521 14.9797 7.65515 15.2458 7.28959 15.5905C7.27509 15.6041 7.26059 15.6177 7.24609 15.6317L8.37792 18.5633L8.38363 18.5778L8.38934 18.5927L8.39462 18.6064L8.39857 18.616L8.40033 18.6204L8.40297 18.627V18.6261V18.6112V18.5699V18.5673V18.5576V18.5537V14.7686L8.38934 14.7756Z" fill="#C32979"/>
<path d="M5.46973 19.4387L8.39288 18.6498L8.40694 18.6462L8.42935 18.6401L8.4232 18.623L8.41397 18.5979L8.40958 18.5861L8.40343 18.5694L8.40211 18.5659L8.39903 18.5584V18.558L8.39024 18.5343L7.29049 15.59C7.27599 15.6036 7.26149 15.6172 7.24699 15.6312C6.94734 15.9197 6.65867 16.2617 6.40296 16.667C5.91921 17.4296 5.59363 18.3538 5.48686 19.2741L5.46973 19.4387Z" fill="#891F85"/>
<path d="M12.5642 21.1252L8.43588 18.6309L8.42929 18.6269L8.42357 18.623L8.41611 18.619L8.40336 18.6111L8.39985 18.6089L8.39545 18.6063L8.39018 18.6032L8.37305 18.5927L8.38447 18.5778L8.39018 18.5703L8.39194 18.5677L8.39589 18.5624L8.39897 18.5585L8.39941 18.558L8.40336 18.5527L10.8643 15.3463L10.8647 15.3485L10.9227 15.5452L12.5401 21.0431L12.5449 21.0598L12.5458 21.0624L12.5642 21.1252Z" fill="#AABF56"/>
<path d="M8.44563 18.5923L8.43596 18.6305L8.43244 18.6433L8.41794 18.7008L7.21186 23.4263C7.20352 23.418 7.19517 23.4097 7.18682 23.4018C6.28918 22.5162 6.00315 22.0574 6.00315 22.0574C5.54224 21.3215 5.38758 20.3876 5.47062 19.4384L5.48732 19.2737L8.37928 18.5625L8.3907 18.5594H8.39114L8.39246 18.559L8.39993 18.5572H8.40037L8.40432 18.5524L8.44563 18.5923Z" fill="#5C40AE"/>
<path d="M9.78454 25.7305L9.72303 25.7086C9.6624 25.6822 9.60616 25.6431 9.55826 25.5913L9.32056 25.3367C9.31705 25.3332 9.31441 25.3301 9.31134 25.3266C9.30606 25.3204 9.30123 25.3147 9.29464 25.3108C9.00202 25.0399 8.78409 24.841 8.74498 24.8081C8.10394 24.2711 7.60129 23.8096 7.21157 23.4268C7.20322 23.4184 7.19487 23.4101 7.18652 23.4022L8.39304 18.6498L8.40051 18.6204L8.40139 18.6174L8.40315 18.6108L8.4093 18.5862L8.41282 18.5726L8.40974 18.559L8.41985 18.577L8.42204 18.5884L8.42951 18.627L8.43259 18.6437L9.40976 23.7671L9.46204 24.0423L9.78454 25.7305Z" fill="#203BA4"/>
<path d="M12.7496 21.7553L9.47979 24.0499L9.47671 24.0354L9.46265 24.0402L9.40993 23.7671L8.8695 20.9343L8.431 18.6956L8.42617 18.6696L8.42046 18.6402L8.4165 18.6205L8.41606 18.6192L8.41474 18.6117L8.41387 18.6082L8.41299 18.6033L8.40947 18.5858L8.40332 18.5529L8.41606 18.5608L8.41694 18.5612L8.45912 18.5867L12.54 21.0432L12.5449 21.0599L12.5457 21.0625L12.5642 21.1253L12.7272 21.6803L12.7487 21.7527L12.7496 21.7553Z" fill="#286EC3"/>
<path d="M12.8337 22.8701C11.9953 23.8132 11.284 24.546 10.8705 24.9714C10.6777 25.1699 10.5498 25.3016 10.5045 25.3565C10.5002 25.3586 10.4975 25.3622 10.494 25.3661C10.4922 25.3683 10.4905 25.3705 10.4879 25.3731L10.2831 25.5918C10.1517 25.7323 9.95665 25.7797 9.78398 25.731L9.72246 25.709L9.46191 24.0424L9.46323 24.0415L9.47597 24.0323L12.7269 21.6807L12.748 21.7527L12.7489 21.7553L12.9378 22.3968C12.9866 22.5636 12.9475 22.7427 12.8337 22.8701Z" fill="#2A66C6" stroke="#2A66C6" stroke-width="0.0078207"/>
<path d="M17.3968 0C16.7562 0 16.2373 0.519405 16.2373 1.15955C16.2373 1.80013 16.7566 2.3191 17.3968 2.3191C18.0374 2.3191 18.5563 1.7997 18.5563 1.15955C18.5563 0.519405 18.0374 0 17.3968 0Z" fill="#E3D01E"/>
<path d="M1.76687 14.2258C1.38066 14.2258 1.06738 14.5389 1.06738 14.9252C1.06738 15.3116 1.38066 15.6247 1.76687 15.6247C2.15308 15.6247 2.46635 15.3116 2.46635 14.9252C2.46635 14.5389 2.15308 14.2258 1.76687 14.2258Z" fill="#C91D7B"/>
</g>
<defs>
<clipPath id="clip0_438_2788">
<rect width="20.7283" height="25.7516" fill="white"/>
</clipPath>
</defs>
</svg>
