<svg width="21" height="20" viewBox="0 0 21 20" fill="none" xmlns="http://www.w3.org/2000/svg">
<g clip-path="url(#clip0_903_4964)">
<rect x="0.484863" width="20" height="20" rx="10" fill="white"/>
<path fill-rule="evenodd" clip-rule="evenodd" d="M-2.51514 11.9805V13.6141H23.6233V11.9805H-2.51514Z" fill="#E31D1C"/>
<path fill-rule="evenodd" clip-rule="evenodd" d="M-2.51514 14.9746V16.6083H23.6233V14.9746H-2.51514Z" fill="#E31D1C"/>
<path fill-rule="evenodd" clip-rule="evenodd" d="M-2.51514 5.99023V7.62388H23.6233V5.99023H-2.51514Z" fill="#E31D1C"/>
<path fill-rule="evenodd" clip-rule="evenodd" d="M-2.51514 17.9697V19.6034H23.6233V17.9697H-2.51514Z" fill="#E31D1C"/>
<path fill-rule="evenodd" clip-rule="evenodd" d="M-2.51514 8.98535V10.619H23.6233V8.98535H-2.51514Z" fill="#E31D1C"/>
<path fill-rule="evenodd" clip-rule="evenodd" d="M-2.51514 0V1.63365H23.6233V0H-2.51514Z" fill="#E31D1C"/>
<path fill-rule="evenodd" clip-rule="evenodd" d="M-2.51514 2.99512V4.62877H23.6233V2.99512H-2.51514Z" fill="#E31D1C"/>
<path d="M-2.51514 0H13.8214V10.6187H-2.51514V0Z" fill="#2E42A5"/>
<path fill-rule="evenodd" clip-rule="evenodd" d="M-1.10847 2.40044L-1.70139 2.81611L-1.50121 2.07638L-2.02783 1.6076H-1.34L-1.1093 1.00391L-0.838794 1.6076H-0.252428L-0.71315 2.07638L-0.534788 2.81611L-1.10847 2.40044ZM2.15883 2.40044L1.56591 2.81611L1.76608 2.07638L1.23947 1.6076H1.9273L2.158 1.00391L2.4285 1.6076H3.01487L2.55415 2.07638L2.73251 2.81611L2.15883 2.40044ZM4.83321 2.81611L5.42613 2.40044L5.99981 2.81611L5.82142 2.07638L6.28219 1.6076H5.69579L5.4253 1.00391L5.1946 1.6076H4.50677L5.03338 2.07638L4.83321 2.81611ZM8.69345 2.40044L8.10052 2.81611L8.30072 2.07638L7.77403 1.6076H8.46188L8.69263 1.00391L8.96309 1.6076H9.54948L9.08871 2.07638L9.26711 2.81611L8.69345 2.40044ZM-1.70139 6.0834L-1.10847 5.66774L-0.534788 6.0834L-0.71315 5.34368L-0.252428 4.8749H-0.838794L-1.1093 4.2712L-1.34 4.8749H-2.02783L-1.50121 5.34368L-1.70139 6.0834ZM2.15883 5.66774L1.56591 6.0834L1.76608 5.34368L1.23947 4.8749H1.9273L2.158 4.2712L2.4285 4.8749H3.01487L2.55415 5.34368L2.73251 6.0834L2.15883 5.66774ZM4.83321 6.0834L5.42613 5.66774L5.99981 6.0834L5.82142 5.34368L6.28219 4.8749H5.69579L5.4253 4.2712L5.1946 4.8749H4.50677L5.03338 5.34368L4.83321 6.0834ZM8.69345 5.66774L8.10052 6.0834L8.30072 5.34368L7.77403 4.8749H8.46188L8.69263 4.2712L8.96309 4.8749H9.54948L9.08871 5.34368L9.26711 6.0834L8.69345 5.66774ZM-1.70139 9.35071L-1.10847 8.93503L-0.534788 9.35071L-0.71315 8.61099L-0.252428 8.14219H-0.838794L-1.1093 7.5385L-1.34 8.14219H-2.02783L-1.50121 8.61099L-1.70139 9.35071ZM2.15883 8.93503L1.56591 9.35071L1.76608 8.61099L1.23947 8.14219H1.9273L2.158 7.5385L2.4285 8.14219H3.01487L2.55415 8.61099L2.73251 9.35071L2.15883 8.93503ZM4.83321 9.35071L5.42613 8.93503L5.99981 9.35071L5.82142 8.61099L6.28219 8.14219H5.69579L5.4253 7.5385L5.1946 8.14219H4.50677L5.03338 8.61099L4.83321 9.35071ZM8.69345 8.93503L8.10052 9.35071L8.30072 8.61099L7.77403 8.14219H8.46188L8.69263 7.5385L8.96309 8.14219H9.54948L9.08871 8.61099L9.26711 9.35071L8.69345 8.93503ZM11.3678 2.81611L11.9608 2.40044L12.5344 2.81611L12.356 2.07638L12.8168 1.6076H12.2304L11.9599 1.00391L11.7292 1.6076H11.0413L11.568 2.07638L11.3678 2.81611ZM11.9608 5.66774L11.3678 6.0834L11.568 5.34368L11.0413 4.8749H11.7292L11.9599 4.2712L12.2304 4.8749H12.8168L12.356 5.34368L12.5344 6.0834L11.9608 5.66774ZM11.3678 9.35071L11.9608 8.93503L12.5344 9.35071L12.356 8.61099L12.8168 8.14219H12.2304L11.9599 7.5385L11.7292 8.14219H11.0413L11.568 8.61099L11.3678 9.35071ZM0.525181 4.03409L-0.0677357 4.44975L0.132435 3.71003L-0.394179 3.24125H0.293652L0.524348 2.63756L0.794856 3.24125H1.38122L0.9205 3.71003L1.09886 4.44975L0.525181 4.03409ZM3.19956 4.44975L3.79248 4.03409L4.36616 4.44975L4.1878 3.71003L4.64852 3.24125H4.06215L3.79165 2.63756L3.56095 3.24125H2.87312L3.39973 3.71003L3.19956 4.44975ZM7.0598 4.03409L6.46687 4.44975L6.66707 3.71003L6.14038 3.24125H6.82823L7.05898 2.63756L7.32944 3.24125H7.91584L7.45506 3.71003L7.63346 4.44975L7.0598 4.03409ZM-0.0677357 7.71705L0.525181 7.30139L1.09886 7.71705L0.9205 6.97733L1.38122 6.50854H0.794856L0.524348 5.90485L0.293652 6.50854H-0.394179L0.132435 6.97733L-0.0677357 7.71705ZM3.79248 7.30139L3.19956 7.71705L3.39973 6.97733L2.87312 6.50854H3.56095L3.79165 5.90485L4.06215 6.50854H4.64852L4.1878 6.97733L4.36616 7.71705L3.79248 7.30139ZM6.46687 7.71705L7.0598 7.30139L7.63346 7.71705L7.45506 6.97733L7.91584 6.50854H7.32944L7.05898 5.90485L6.82823 6.50854H6.14038L6.66707 6.97733L6.46687 7.71705ZM10.3271 4.03409L9.73417 4.44975L9.93437 3.71003L9.40768 3.24125H10.0955L10.3263 2.63756L10.5967 3.24125H11.1831L10.7224 3.71003L10.9008 4.44975L10.3271 4.03409ZM9.73417 7.71705L10.3271 7.30139L10.9008 7.71705L10.7224 6.97733L11.1831 6.50854H10.5967L10.3263 5.90485L10.0955 6.50854H9.40768L9.93437 6.97733L9.73417 7.71705Z" fill="#F7FCFF"/>
</g>
<defs>
<clipPath id="clip0_903_4964">
<rect x="0.484863" width="20" height="20" rx="10" fill="white"/>
</clipPath>
</defs>
</svg>
