<svg width="20" height="22" viewBox="0 0 20 22" fill="none" xmlns="http://www.w3.org/2000/svg">
<path d="M0.545135 10.108C0.545135 7.7519 0.582285 5.39585 0.531953 3.03739C0.500794 1.61129 1.51105 0.990522 2.55605 1.00011C6.35738 1.03606 10.1599 1.01329 13.9612 1.01449C15.2795 1.01449 15.9698 1.71196 15.9686 3.0302C15.9686 5.17055 15.9686 7.31089 15.9686 9.45124C15.9686 9.71009 16.0201 9.84791 16.2969 9.94018C17.1897 10.2386 18.0658 10.5873 18.9562 10.8989C19.2594 11.0044 19.3936 11.1626 19.3888 11.4981C19.3732 12.6701 19.3888 13.8422 19.3792 15.013C19.372 16.6752 18.6134 17.9886 17.451 19.1056C16.6312 19.8735 15.7024 20.516 14.6947 21.0122C14.6059 21.0486 14.5103 21.0652 14.4145 21.0608C14.3186 21.0565 14.2249 21.0313 14.1398 20.987C13.3009 20.4597 12.4884 19.8953 11.6579 19.3572C11.5269 19.283 11.3781 19.2461 11.2277 19.2506C8.29879 19.2446 5.3699 19.2506 2.44101 19.2446C1.56018 19.2446 0.856719 18.7652 0.635015 17.997C0.574563 17.7416 0.548765 17.4792 0.558317 17.2169C0.547931 14.8456 0.544336 12.476 0.547532 10.108H0.545135ZM15.216 9.57707C15.2339 9.45723 15.2447 9.42008 15.2447 9.38532C15.2447 7.20783 15.2543 5.03153 15.2447 2.85523C15.2447 2.11582 14.8145 1.73353 14.0547 1.73233H4.65565C4.53581 1.73233 4.42316 1.74312 4.29613 1.74791V15.5535H9.46004C9.46004 14.2149 9.47203 12.8906 9.45165 11.5664C9.45165 11.1913 9.57988 11.008 9.93101 10.8869C11.1138 10.4747 12.2907 10.048 13.4639 9.60583C14.0343 9.38892 14.5928 9.11928 15.216 9.57946V9.57707ZM18.7045 13.6516H18.659C18.659 13.0524 18.6494 12.4532 18.659 11.854C18.659 11.6239 18.5847 11.5257 18.3654 11.449C17.1286 11.014 15.8991 10.5538 14.6623 10.1175C14.5067 10.0659 14.3386 10.0659 14.1829 10.1175C12.9222 10.5622 11.6663 11.0295 10.4104 11.4741C10.3305 11.4901 10.26 11.5366 10.2139 11.6038C10.1678 11.6709 10.1497 11.7534 10.1635 11.8337C10.1719 12.8379 10.1635 13.8434 10.1635 14.8476C10.1638 15.7631 10.4362 16.6578 10.9461 17.4182C11.7849 18.6981 12.9833 19.5478 14.3016 20.25C14.3541 20.2676 14.4097 20.2736 14.4648 20.2676C14.5198 20.2616 14.5729 20.2437 14.6204 20.2153C15.1501 19.8917 15.6989 19.5837 16.1891 19.2122C17.3144 18.3733 18.2443 17.3523 18.5343 15.9334C18.6901 15.1964 18.6554 14.4222 18.7045 13.6564V13.6516ZM3.53874 1.73473H2.48774C1.63808 1.73473 1.26897 2.10144 1.26897 2.9571C1.26897 7.16588 1.26897 11.3747 1.26897 15.5835C1.26897 15.6817 1.28575 15.78 1.29893 15.9142C2.01797 15.4516 2.78615 15.6098 3.53874 15.5547V1.73473ZM10.7172 18.5195C10.3756 17.8197 10.0449 17.127 9.69373 16.4439C9.65599 16.3994 9.60898 16.3637 9.55598 16.3393C9.50299 16.3148 9.44529 16.3023 9.38694 16.3025C7.07003 16.2945 4.75312 16.2945 2.43621 16.3025C1.77469 16.3025 1.29893 16.7555 1.28814 17.3727C1.28121 17.5228 1.30521 17.6727 1.35864 17.8132C1.41208 17.9536 1.49381 18.0816 1.59877 18.1891C1.70373 18.2967 1.82968 18.3815 1.96879 18.4383C2.1079 18.4952 2.25721 18.5228 2.40745 18.5195C5.18415 18.5267 7.96683 18.5195 10.7172 18.5195Z" fill="white" stroke="white" stroke-width="0.25"/>
<path d="M13.7407 15.8054L15.8979 13.973C15.9518 13.9263 16.0021 13.8436 16.0596 13.8388C16.2298 13.8232 16.4527 13.7717 16.5642 13.8544C16.7535 13.9946 16.7104 14.2139 16.527 14.3757C15.6738 15.1067 14.8193 15.8345 13.9636 16.5592C13.7659 16.7257 13.5682 16.6982 13.3956 16.504L12.3062 15.2673C12.1517 15.0911 12.1073 14.8982 12.2979 14.7316C12.4884 14.565 12.6909 14.6189 12.8575 14.8083C13.1403 15.1307 13.4268 15.4518 13.7407 15.8054Z" fill="white"/>
</svg>
