<svg width="21" height="18" viewBox="0 0 21 18" fill="none" xmlns="http://www.w3.org/2000/svg">
<g clip-path="url(#clip0_154_10593)">
<path d="M4.33342 3.59294C3.55822 4.45274 2.99527 5.42966 2.64122 6.45942L1.17437 6.40722C0.955343 6.39943 0.771473 6.57066 0.763679 6.78968C0.76065 6.87481 0.785095 6.95866 0.8334 7.02882L3.0224 10.2084C3.14668 10.3889 3.39377 10.4345 3.57428 10.3102C3.60602 10.2883 3.6344 10.262 3.65854 10.232L6.08251 7.21657C6.21982 7.04576 6.19266 6.79597 6.02185 6.65866C5.95514 6.60504 5.87287 6.57442 5.78734 6.57137L4.31803 6.51909C4.60635 5.84547 5.00678 5.21654 5.51231 4.65584C8.00714 1.88874 12.2728 1.66802 15.0399 4.16286C15.9349 4.9698 16.5635 5.962 16.92 7.02882L18.3852 6.40722C17.9385 5.1339 17.1756 3.9512 16.1028 2.98397C12.6846 -0.0978908 7.41528 0.174758 4.33342 3.59294Z" fill="white"/>
<path d="M17.0435 14.9364C17.8187 14.0766 18.3817 13.0996 18.7357 12.0699L20.2026 12.1221C20.4216 12.1299 20.6055 11.9586 20.6133 11.7396C20.6163 11.6545 20.5919 11.5706 20.5436 11.5005L18.3545 8.32094C18.2303 8.14042 17.9832 8.09483 17.8027 8.21911C17.7709 8.24096 17.7426 8.26731 17.7184 8.29734L15.2944 11.3127C15.1571 11.4835 15.1843 11.7333 15.3551 11.8706C15.4218 11.9243 15.5041 11.9549 15.5896 11.9579L17.0589 12.0102C16.7706 12.6838 16.3702 13.3128 15.8646 13.8735C13.3698 16.6406 9.10416 16.8613 6.33706 14.3664C5.44206 13.5595 4.81344 12.5673 4.45695 11.5005L2.99176 12.1221C3.43842 13.3954 4.20137 14.5781 5.27417 15.5453C8.69235 18.6272 13.9617 18.3545 17.0435 14.9364Z" fill="white"/>
</g>
<defs>
<clipPath id="clip0_154_10593">
<rect width="21" height="18" fill="white"/>
</clipPath>
</defs>
</svg>
