<svg width="19" height="17" viewBox="0 0 19 17" fill="none" xmlns="http://www.w3.org/2000/svg">
<path d="M9.67094 16.502C7.39378 16.502 5.11631 16.502 2.83852 16.502C1.83174 16.502 1.05411 15.9526 0.772365 15.0398C0.70591 14.8065 0.674263 14.5647 0.678449 14.3222C0.674066 10.2838 0.671875 6.24606 0.671875 2.20891C0.671875 0.869665 1.54436 0 2.89393 0C6.49406 0 10.0942 0 13.6943 0H16.478C17.7815 0 18.6719 0.879996 18.6719 2.18074C18.6719 6.21789 18.6719 10.2563 18.6719 14.2959C18.6719 15.6361 17.8003 16.5039 16.4508 16.5049C14.1905 16.5042 11.9306 16.5033 9.67094 16.502ZM1.79887 3.76229V14.264C1.79887 15.0153 2.16327 15.3741 2.92587 15.3741H16.4498C17.1683 15.3741 17.5449 15.0041 17.5449 14.2884C17.5449 10.8793 17.5449 7.4701 17.5449 4.06094V3.76229H1.79887ZM17.5129 2.61651C17.6792 1.60221 17.2537 1.11385 16.2601 1.11385C11.8207 1.13639 7.38126 1.12324 2.94183 1.12512C2.81142 1.12444 2.68124 1.13607 2.55302 1.15987C2.3621 1.19099 2.18652 1.28344 2.05282 1.42323C1.91913 1.56303 1.8346 1.74256 1.81202 1.93468C1.79976 2.16085 1.79976 2.38752 1.81202 2.61369L17.5129 2.61651Z" fill="white"/>
<path d="M9.69139 5.25793C10.5816 5.26263 11.4504 5.53153 12.1877 6.03054C12.9249 6.52955 13.4974 7.2362 13.8326 8.06094C14.1678 8.88567 14.2506 9.79135 14.0705 10.6632C13.8903 11.535 13.4555 12.3338 12.8209 12.9582C12.1863 13.5826 11.3807 14.0045 10.5061 14.1705C9.63144 14.3366 8.72721 14.2392 7.90799 13.8907C7.08877 13.5423 6.39144 12.9585 5.90438 12.2133C5.41733 11.4681 5.16248 10.5951 5.17214 9.70486C5.18281 8.51621 5.66467 7.38036 6.51196 6.54663C7.35925 5.7129 8.50272 5.24942 9.69139 5.25793ZM9.69139 6.38492C8.80077 6.37841 7.94388 6.72514 7.3084 7.34918C6.67293 7.97321 6.31068 8.82367 6.30101 9.71426C6.29162 11.5926 7.82152 13.1356 9.67637 13.1234C10.5603 13.1108 11.4039 12.7512 12.0252 12.1224C12.6466 11.4935 12.9959 10.6456 12.9978 9.76156C12.9998 8.87751 12.6543 8.0281 12.0358 7.39645C11.4173 6.7648 10.5753 6.40152 9.69139 6.38492Z" fill="white"/>
<path d="M9.18634 10.2711C9.77613 9.65317 10.3453 9.05586 10.9088 8.46419C11.1623 8.20122 11.4939 8.18244 11.7334 8.39657C11.7888 8.44404 11.8341 8.5023 11.8663 8.56782C11.8986 8.63333 11.9172 8.70472 11.9209 8.77765C11.9247 8.85057 11.9136 8.9235 11.8883 8.992C11.863 9.0605 11.824 9.12313 11.7737 9.17607C11.0543 9.94807 10.3227 10.7107 9.58642 11.4667C9.53973 11.517 9.48346 11.5576 9.42091 11.5859C9.35836 11.6143 9.29079 11.6299 9.22214 11.6318C9.15349 11.6337 9.08515 11.6219 9.02111 11.5971C8.95707 11.5723 8.89862 11.535 8.84918 11.4874C8.41904 11.1117 7.9983 10.7269 7.58694 10.3331C7.53375 10.2834 7.49106 10.2235 7.46139 10.1569C7.43172 10.0904 7.41566 10.0186 7.41418 9.9458C7.41269 9.87297 7.4258 9.80059 7.45273 9.73291C7.47966 9.66523 7.51986 9.60363 7.57098 9.55174C7.62031 9.498 7.67978 9.45456 7.74596 9.4239C7.81215 9.39324 7.88375 9.37597 7.95663 9.37309C8.02952 9.37021 8.10225 9.38177 8.17065 9.40711C8.23905 9.43245 8.30176 9.47107 8.35518 9.52075C8.63693 9.7546 8.89896 10.0082 9.18634 10.2711Z" fill="white"/>
</svg>
