<svg width="14" height="18" viewBox="0 0 14 18" fill="none" xmlns="http://www.w3.org/2000/svg">
<path d="M7.00335 13.5086C6.56852 13.5086 6.15151 13.3359 5.84404 13.0284C5.53657 12.721 5.36384 12.304 5.36384 11.8691C5.36384 10.9592 6.09342 10.2296 7.00335 10.2296C7.43817 10.2296 7.85519 10.4024 8.16266 10.7098C8.47012 11.0173 8.64286 11.4343 8.64286 11.8691C8.64286 12.304 8.47012 12.721 8.16266 13.0284C7.85519 13.3359 7.43817 13.5086 7.00335 13.5086ZM11.9219 15.9679V7.77037H2.08482V15.9679H11.9219ZM11.9219 6.13086C12.3567 6.13086 12.7737 6.30359 13.0812 6.61106C13.3887 6.91853 13.5614 7.33554 13.5614 7.77037V15.9679C13.5614 16.4027 13.3887 16.8198 13.0812 17.1272C12.7737 17.4347 12.3567 17.6074 11.9219 17.6074H2.08482C1.65 17.6074 1.23298 17.4347 0.925513 17.1272C0.618046 16.8198 0.445313 16.4027 0.445312 15.9679V7.77037C0.445312 6.86044 1.17489 6.13086 2.08482 6.13086H2.90458V4.49135C2.90458 3.40429 3.33641 2.36175 4.10508 1.59308C4.87375 0.824412 5.91629 0.392578 7.00335 0.392578C7.54161 0.392578 8.07459 0.498596 8.57188 0.704579C9.06917 0.910561 9.52101 1.21247 9.90162 1.59308C10.2822 1.97369 10.5841 2.42553 10.7901 2.92282C10.9961 3.4201 11.1021 3.95309 11.1021 4.49135V6.13086H11.9219ZM7.00335 2.03209C6.35111 2.03209 5.72559 2.29119 5.26439 2.75239C4.80318 3.21359 4.54408 3.83911 4.54408 4.49135V6.13086H9.46261V4.49135C9.46261 3.83911 9.20351 3.21359 8.74231 2.75239C8.28111 2.29119 7.65559 2.03209 7.00335 2.03209Z" fill="white"/>
</svg>
