<svg width="20" height="18" viewBox="0 0 20 18" fill="none" xmlns="http://www.w3.org/2000/svg">
<path d="M7.83194 6.45203C7.29787 4.75096 6.7779 3.10131 6.26574 1.45307C6.18117 1.18027 6.09816 0.906042 6.01985 0.631819C5.92745 0.3076 6.08093 0.0605134 6.42393 0.0362275C7.45136 -0.0223302 8.4882 -0.0723274 9.43731 0.416145C10.0605 0.748029 10.5694 1.2324 10.9063 1.81442C11.7881 3.2427 12.6887 4.65241 13.5689 6.07782C13.6224 6.18541 13.7117 6.27491 13.8242 6.33361C13.9366 6.39232 14.0665 6.41726 14.1953 6.4049C15.2071 6.4049 16.2314 6.40489 17.2306 6.49202C18.0544 6.56629 18.7623 6.96193 19.3716 7.47181C20.2063 8.17025 20.2126 9.16143 19.3716 9.86564C18.6348 10.5165 17.6605 10.8965 16.6354 10.9325C15.8398 10.9597 15.0426 10.9597 14.247 10.9396C14.1036 10.923 13.9581 10.9488 13.832 11.0134C13.7059 11.0779 13.606 11.1778 13.5469 11.2981C12.6824 12.7136 11.7803 14.1105 10.911 15.5258C10.164 16.7456 9.04731 17.3569 7.51244 17.3326C7.29317 17.3326 7.0739 17.3326 6.8562 17.3326C6.02612 17.3326 5.87733 17.1555 6.10129 16.4414C6.53774 15.0493 6.97418 13.6567 7.41062 12.2637C7.54532 11.8352 7.67845 11.3953 7.83037 10.9026C7.13342 10.8254 6.47405 10.7598 5.81468 10.6826C5.70596 10.6836 5.59738 10.675 5.49048 10.6569C4.50692 10.3541 3.99948 10.7583 3.55311 11.5481C2.87652 12.7464 1.88043 13.0792 0.430152 12.7693C0.0213713 12.6821 -0.0600688 12.4293 0.0370313 12.0837C0.314251 11.0925 0.597732 10.1027 0.842052 9.10577C0.910182 8.82015 0.910182 8.52443 0.842052 8.23881C0.610262 7.29761 0.333041 6.36491 0.0746213 5.42796C-0.105489 4.77381 0.0480013 4.58813 0.770012 4.58242C2.76219 4.56528 2.78882 4.55242 3.78491 6.14066C4.09815 6.6477 4.40042 6.88056 5.08171 6.75624C5.95564 6.59057 6.86559 6.55201 7.83194 6.45203ZM7.16787 16.3514C8.3723 16.5642 9.34491 16.15 9.97601 15.1502C10.9518 13.6105 11.9228 12.0695 12.875 10.5183C13.0833 10.1812 13.3245 10.0227 13.7615 10.0356C14.6041 10.0627 15.4483 10.0484 16.2909 10.0356C17.1592 10.0474 17.9996 9.75625 18.6402 9.22142C19.0959 8.83864 19.0944 8.47021 18.6308 8.10024C18.0246 7.59536 17.234 7.31427 16.413 7.31187C15.5548 7.31187 14.6902 7.29617 13.8367 7.31187C13.6369 7.33141 13.4354 7.2929 13.2611 7.2018C13.0867 7.1108 12.9483 6.97184 12.8656 6.80477C11.9118 5.23371 10.9283 3.68689 9.94631 2.13579C9.3433 1.18456 8.37071 0.780356 7.17256 0.966034C7.19449 1.04887 7.2133 1.13029 7.23835 1.21027C7.79174 2.9937 8.3477 4.77285 8.9063 6.54773C9.0629 7.05331 8.8985 7.27046 8.3284 7.32901C6.97836 7.47181 5.62831 7.59604 4.28139 7.74607C3.89298 7.78892 3.62673 7.70033 3.43408 7.37465C3.16627 6.92341 2.86243 6.49202 2.57268 6.05354C2.17174 5.4451 2.01669 5.38654 1.17252 5.52937C1.18111 5.62519 1.19523 5.72054 1.2148 5.81502C1.43094 6.61486 1.67526 7.40893 1.8585 8.21455C1.92666 8.52886 1.92346 8.85261 1.84911 9.16576C1.6408 10.0527 1.37925 10.9297 1.14119 11.8138C2.095 11.9452 2.16704 11.9152 2.61497 11.2281C2.90158 10.7883 3.16783 10.3341 3.49203 9.91841C3.61576 9.75991 3.89141 9.58571 4.07935 9.6014C5.52337 9.7185 6.96583 9.87277 8.4052 10.0298C8.90631 10.0856 9.04571 10.2955 8.92361 10.744C8.83121 11.074 8.71681 11.3981 8.61031 11.7267C8.13 13.2663 7.64921 14.8079 7.16787 16.3514Z" fill="white"/>
</svg>
