<svg width="21" height="21" viewBox="0 0 21 21" fill="none" xmlns="http://www.w3.org/2000/svg">
<path d="M12.2465 16.7559V17.8635C12.3855 17.8698 12.4887 17.8793 12.5908 17.8793C13.756 17.8793 14.9215 17.8793 16.0873 17.8793C16.9864 17.8793 17.636 17.4655 17.8519 16.6948C17.9498 16.3432 17.9361 15.9578 17.9761 15.5599L17.0896 15.7241V9.02489L17.9498 9.18387C17.9171 6.57914 16.9612 4.4124 14.8965 2.85104C12.2244 0.835906 9.3186 0.60007 6.3517 2.14143C3.52272 3.6154 2.14035 6.58967 2.24563 9.17545L3.08158 9.02594V15.7146C2.9005 15.6852 2.72888 15.6725 2.56464 15.6304C0.0704651 14.9882 -0.827607 12.0381 0.871676 10.1083C0.977754 9.97322 1.03491 9.8062 1.03381 9.63448C1.00854 8.14893 1.18647 6.70022 1.83186 5.34416C3.20793 2.44991 5.45784 0.652712 8.63215 0.12524C10.8516 -0.248708 13.1307 0.221664 15.0207 1.44377C16.9108 2.66588 18.2749 4.5512 18.8447 6.72865C19.075 7.65775 19.1718 8.61492 19.1321 9.57131C19.1255 9.68433 19.1419 9.79751 19.1805 9.90395C19.219 10.0104 19.2789 10.1079 19.3564 10.1904C19.8914 10.8071 20.1831 11.5978 20.1767 12.4142C20.1703 13.2307 19.8663 14.0167 19.3216 14.6249C19.2152 14.7589 19.153 14.9226 19.1437 15.0935C19.1142 15.5325 19.1437 15.9757 19.1142 16.4158C19.074 17.1211 18.7679 17.785 18.2575 18.2734C17.7472 18.7619 17.0706 19.0387 16.3642 19.0479C15.1008 19.0669 13.8437 19.0616 12.5835 19.0479C12.3266 19.0479 12.2234 19.1132 12.2465 19.3806C12.2687 19.6291 12.2465 19.8807 12.2465 20.1176C11.3379 20.1176 10.4567 20.186 9.58497 20.0987C8.71322 20.0113 8.1868 19.1911 8.24997 18.2551C8.30156 17.4908 9.02065 16.7917 9.82923 16.7633C10.5115 16.738 11.1979 16.7548 11.877 16.7538L12.2465 16.7559Z" fill="white"/>
<path d="M6.12294 16.672H4.30469V8.08398H6.12294V16.672Z" fill="white"/>
<path d="M14.0459 8.07422H15.8705V16.6654H14.0459V8.07422Z" fill="white"/>
</svg>
