<svg width="25" height="19" viewBox="0 0 25 19" fill="none" xmlns="http://www.w3.org/2000/svg">
<path d="M18.8202 13.7744C18.7277 14.7145 18.2276 15.2671 17.3007 15.4496C17.2525 15.4631 17.2084 15.4879 17.172 15.5219C17.1357 15.5558 17.1081 15.5979 17.0917 15.6446C16.9335 16.5797 16.3472 17.0423 15.4266 17.1448C15.2848 18.645 13.7134 19.3788 12.4117 18.2862C11.9457 18.835 11.348 19.1175 10.6149 18.9538C10.2959 18.8934 10.0029 18.7389 9.77461 18.5108C9.5463 18.2828 9.39337 17.9917 9.33596 17.6761C8.82946 17.4773 8.37108 17.3586 7.98234 17.121C7.55435 16.8585 7.39987 16.3872 7.37327 16.0096C6.90729 15.7409 6.46791 15.5533 6.11462 15.2596C5.72462 14.9395 5.65371 14.4482 5.68283 13.9356C5.03198 13.8031 4.53181 13.4768 4.28996 12.853C4.0481 12.2292 4.19372 11.6554 4.60525 11.1428C3.48462 9.47261 2.2551 7.91117 0.627967 6.68727C-0.202693 6.06219 -0.167238 6.02219 0.487413 5.22334C1.80093 3.61565 3.11403 2.00587 4.42671 0.394007C4.82178 -0.0898017 4.93321 -0.106054 5.46504 0.225236C5.78666 0.42401 6.11969 0.606532 6.42232 0.829059C7.3986 1.55165 8.50023 1.9542 9.67658 2.24923C10.349 2.41675 10.9669 2.49926 11.6152 2.22548C13.1347 1.5879 14.753 1.70542 16.3497 1.72542C16.6886 1.7367 17.0222 1.64077 17.3019 1.45163C17.9756 1.00783 18.6593 0.58778 19.3419 0.161479C19.7395 -0.0885516 19.9167 -0.0560477 20.2067 0.315247C21.505 1.97295 22.7979 3.6319 24.0852 5.2921C24.3524 5.63464 24.3283 5.82716 23.9953 6.1222C23.8826 6.22221 23.7687 6.32222 23.6534 6.41974C21.7224 8.04493 21.7224 8.04493 20.6588 10.3277C20.617 10.4177 20.5815 10.5115 20.5321 10.5977C20.4305 10.7489 20.3674 10.9221 20.3482 11.1026C20.329 11.283 20.3543 11.4654 20.422 11.6341C20.7866 12.663 20.075 13.5894 18.8202 13.7744ZM9.27645 3.10558C8.87125 2.99932 8.5015 2.87431 8.12289 2.8043C8.05178 2.79499 7.97945 2.80138 7.91113 2.82299C7.84282 2.84461 7.78021 2.88092 7.72782 2.92931C7.21246 3.52314 6.70596 4.13571 6.19946 4.74953L3.48462 8.01493L5.31942 10.4502C6.29316 9.66013 7.78354 10.0902 8.06591 11.2528C8.08491 11.3303 8.29384 11.4078 8.41286 11.4066C9.09411 11.4066 9.6196 11.6654 9.93996 12.2592C10.0561 12.5204 10.1506 12.7905 10.2223 13.0668C11.4101 13.3093 11.6241 13.5744 11.8685 15.122C12.9929 15.4621 13.4411 16.2684 13.1347 17.3623C13.1264 17.4164 13.1301 17.4715 13.1456 17.524C13.1611 17.5765 13.1881 17.625 13.2246 17.6661C13.3593 17.7891 13.5366 17.8566 13.7201 17.8546C13.9036 17.8526 14.0793 17.7813 14.2112 17.6554C14.3431 17.5295 14.4212 17.3584 14.4294 17.1775C14.4376 16.9965 14.3753 16.8193 14.2553 16.6822C13.9185 16.3072 13.55 15.9696 13.198 15.6121C12.927 15.3333 12.8941 15.067 13.0955 14.862C13.317 14.6345 13.5766 14.662 13.878 14.9558C14.2199 15.2883 14.5466 15.6359 14.891 15.9559C15.2354 16.2759 15.6431 16.2634 15.9382 15.9559C16.2142 15.6709 16.2104 15.2646 15.9217 14.9445C15.8217 14.8333 15.7115 14.7295 15.6052 14.6232C15.029 14.0457 14.4503 13.4718 13.878 12.8905C13.6716 12.6805 13.6539 12.4417 13.8691 12.2279C14.0844 12.0142 14.3186 12.0329 14.5415 12.2279C14.6175 12.2929 14.6884 12.3655 14.7593 12.4367L16.4624 14.1394C16.8625 14.5382 17.3019 14.5945 17.6236 14.2894C17.9452 13.9844 17.9097 13.5468 17.5109 13.1456C16.9005 12.5317 16.2864 11.9217 15.6748 11.3103C15.3101 10.9465 14.948 10.5815 14.5846 10.2164C14.363 9.99392 14.3313 9.74514 14.5592 9.52511C14.7872 9.30508 15.0379 9.34384 15.262 9.55762C15.3532 9.64388 15.4405 9.73514 15.5292 9.8239C16.4257 10.719 17.3226 11.6141 18.22 12.5092C18.5998 12.8843 19.0316 12.9118 19.352 12.5842C19.6521 12.2767 19.6192 11.8591 19.2507 11.4941C17.4594 9.71972 15.6638 7.94909 13.8641 6.18221C13.7492 6.07227 13.602 6.00096 13.4437 5.97843C12.9296 5.92343 12.4104 5.91592 11.895 5.86467C11.7914 5.8449 11.684 5.86157 11.5915 5.91181C11.4989 5.96205 11.4272 6.04267 11.3885 6.1397C11.0391 6.77478 10.6883 7.40986 10.2983 8.01493C9.93869 8.595 9.38154 8.82253 8.70663 8.75002C8.39575 8.72287 8.09997 8.60544 7.8566 8.41255C7.61322 8.21966 7.43315 7.95994 7.33908 7.66614C7.14661 7.15608 7.23399 6.66602 7.50623 6.19721C8.09124 5.18459 8.66991 4.16446 9.27645 3.10558ZM19.5331 10.4715C19.9446 9.62012 20.3181 8.82253 20.7157 8.03618C20.7657 7.95892 20.7872 7.86701 20.7766 7.77593C20.766 7.68485 20.7239 7.60016 20.6575 7.53612C19.4204 5.99343 18.1946 4.442 16.9499 2.91056C16.8216 2.77296 16.645 2.68889 16.4561 2.67553C15.5697 2.65303 14.6833 2.66053 13.8058 2.66803C13.6047 2.66997 13.4047 2.69727 13.2107 2.74929C12.2357 3.01807 11.2645 3.29311 10.3059 3.58314C10.1569 3.63467 10.03 3.73475 9.94629 3.86693C9.4056 4.77954 8.88138 5.70215 8.35208 6.62476C8.07731 7.10857 8.14948 7.49237 8.54835 7.72489C8.94722 7.95742 9.33469 7.81865 9.60947 7.34985C9.98934 6.69102 10.3857 6.03844 10.7402 5.36461C10.9314 5.00081 11.1809 4.86455 11.5886 4.90955C12.3281 4.98331 13.0739 5.00456 13.8134 5.08332C14.02 5.11659 14.2111 5.21223 14.3604 5.35711C15.2379 6.19846 16.099 7.05731 16.9626 7.91367C17.811 8.75002 18.6505 9.59137 19.5318 10.4715H19.5331ZM5.0801 1.09784L1.15473 5.90717L2.82238 7.3261L7.001 2.30299L5.0801 1.09784ZM23.1343 5.61339L19.6217 1.10409C18.962 1.52164 18.3428 1.91169 17.7059 2.31299L21.4679 7.03481L23.1343 5.61339ZM9.23846 13.0805C9.22836 12.9351 9.17836 12.795 9.09382 12.6754C9.00928 12.5559 8.89339 12.4612 8.75855 12.4017C8.63298 12.3392 8.49023 12.3187 8.35181 12.3432C8.2134 12.3678 8.08683 12.4362 7.9912 12.538C7.60626 12.898 7.23061 13.2668 6.86424 13.6444C6.79165 13.7097 6.73335 13.7889 6.69291 13.8773C6.65248 13.9656 6.63076 14.0612 6.6291 14.1581C6.62744 14.2551 6.64587 14.3513 6.68326 14.441C6.72065 14.5306 6.7762 14.6118 6.84651 14.6795C7.12002 14.9558 7.57207 14.9483 7.8975 14.6432C8.25332 14.3082 8.60787 13.9706 8.93836 13.6106C9.07638 13.4643 9.14349 13.2593 9.23846 13.0805ZM10.9871 14.6932C10.8137 14.4895 10.6845 14.2482 10.4806 14.1207C10.3547 14.0445 10.2059 14.0142 10.0597 14.035C9.91359 14.0558 9.77941 14.1263 9.68038 14.2344C9.30937 14.5907 8.94089 14.9495 8.58127 15.3171C8.26471 15.6384 8.24698 16.0672 8.52429 16.3522C8.82313 16.6597 9.25112 16.6597 9.60061 16.3322C9.95009 16.0046 10.311 15.6584 10.6415 15.2983C10.7833 15.1483 10.8542 14.9408 10.9909 14.6932H10.9871ZM7.23905 11.6254C7.08583 11.4353 6.95921 11.1653 6.76421 11.0816C6.64682 11.0402 6.52207 11.0231 6.3977 11.0312C6.27333 11.0394 6.15198 11.0727 6.04118 11.1291C5.75881 11.2941 5.53468 11.5666 5.31055 11.8191C5.1945 11.9528 5.13381 12.1248 5.14061 12.3007C5.14742 12.4766 5.22123 12.6435 5.34728 12.768C5.47622 12.8987 5.65123 12.9753 5.8359 12.9818C6.02057 12.9883 6.20068 12.9243 6.33875 12.803C6.55969 12.6184 6.7643 12.4156 6.95035 12.1967C7.06304 12.0604 7.11622 11.8754 7.23905 11.6254ZM11.6507 15.9784C11.3974 16.0872 11.2227 16.1272 11.096 16.2284C10.8661 16.4202 10.6515 16.6292 10.4541 16.8535C10.3287 16.9872 10.2609 17.1638 10.2649 17.346C10.2689 17.5281 10.3445 17.7016 10.4756 17.8299C10.5343 17.8958 10.6057 17.9495 10.6856 17.988C10.7655 18.0266 10.8523 18.0491 10.9411 18.0543C11.0298 18.0595 11.1188 18.0474 11.2027 18.0185C11.2867 17.9896 11.3641 17.9446 11.4303 17.8861C11.6812 17.6793 11.9126 17.4504 12.1217 17.2023C12.3116 16.981 12.3851 16.6922 12.2027 16.4447C12.0622 16.2634 11.8355 16.1334 11.6507 15.9809V15.9784Z" fill="white"/>
</svg>
