<svg width="22" height="23" viewBox="0 0 22 23" fill="none" xmlns="http://www.w3.org/2000/svg">
<path d="M20.1285 4.74999C20.0322 4.94049 19.9565 5.12895 19.8499 5.29488C19.4505 5.90941 19.0305 6.52395 18.6393 7.13849C18.5714 7.24115 18.5291 7.35862 18.5161 7.48101C18.5031 7.6034 18.5196 7.72712 18.5644 7.84177C18.6092 7.95642 18.6809 8.05863 18.7734 8.1398C18.8659 8.22096 18.9766 8.27871 19.0961 8.30817C19.8322 8.47887 20.5703 8.63388 21.3105 8.77317C21.7878 8.8633 22.0172 9.11117 22.009 9.60894C21.9947 10.5492 22.009 11.4894 22.009 12.4297C22.009 12.8926 21.8144 13.1364 21.3412 13.2142C20.6386 13.3351 19.9442 13.5051 19.2456 13.6506C18.5471 13.796 18.3156 14.3696 18.6885 14.9431C19.0613 15.5167 19.4628 16.1435 19.8745 16.7294C20.1756 17.1596 20.1162 17.5078 19.7496 17.8622C19.1022 18.487 18.4693 19.1261 17.8383 19.7673C17.4983 20.1114 17.1644 20.1544 16.7547 19.8656C16.1545 19.4416 15.5256 19.0462 14.9111 18.6529C14.8011 18.5737 14.6726 18.5242 14.5379 18.5091C14.4033 18.494 14.267 18.5139 14.1422 18.5668C14.0175 18.6197 13.9085 18.7039 13.8257 18.8112C13.7429 18.9185 13.6892 19.0453 13.6697 19.1794C13.5331 19.8622 13.3966 20.5416 13.26 21.2176C13.1596 21.7481 12.9159 22.037 12.3116 22.0185C11.4144 21.9796 10.5151 22.0022 9.6158 22.0185C9.15694 22.0185 8.89269 21.8403 8.80871 21.3712C8.67761 20.6481 8.50758 19.9373 8.36009 19.2142C8.34285 19.0755 8.28928 18.9439 8.20479 18.8326C8.1203 18.7213 8.00789 18.6344 7.87897 18.5805C7.75004 18.5266 7.60917 18.5078 7.47063 18.5259C7.33209 18.544 7.20079 18.5985 7.09004 18.6836C6.4878 19.0688 5.88555 19.4539 5.29764 19.8615C4.87565 20.1524 4.52742 20.1381 4.16484 19.757C3.55849 19.1193 2.9378 18.4979 2.30278 17.8929C1.88284 17.4935 1.86646 17.1207 2.20036 16.6639C2.61005 16.1005 2.97058 15.5085 3.3475 14.9268C3.42548 14.818 3.47489 14.6914 3.49121 14.5586C3.50752 14.4258 3.49021 14.291 3.44086 14.1666C3.39151 14.0422 3.31171 13.9322 3.20878 13.8467C3.10585 13.7612 2.98309 13.7029 2.85177 13.6772C2.11637 13.5154 1.37687 13.3597 0.63533 13.2183C0.543471 13.2123 0.453799 13.1876 0.371747 13.1459C0.289694 13.1042 0.216968 13.0462 0.157978 12.9755C0.098987 12.9049 0.054959 12.8229 0.0285608 12.7347C0.00216258 12.6465 -0.00605532 12.5539 0.00440377 12.4625C0.00440377 11.5427 0.0330823 10.6188 0.00440377 9.70522C-0.0201778 9.10297 0.26251 8.86535 0.807402 8.77317C1.4711 8.66255 2.12866 8.51302 2.78622 8.36348C3.44378 8.21394 3.70188 7.64037 3.32906 7.06475C2.95624 6.48913 2.55884 5.86025 2.15529 5.27235C1.8808 4.86265 1.88899 4.5308 2.24542 4.18461C2.89069 3.55778 3.52776 2.9248 4.15254 2.27749C4.50693 1.91286 4.84697 1.83912 5.2833 2.15048C5.88145 2.57452 6.50213 2.96987 7.12692 3.36727C7.23731 3.44593 7.36608 3.49489 7.50084 3.50945C7.63561 3.524 7.77186 3.50367 7.8965 3.45039C8.02115 3.39712 8.13001 3.3127 8.21262 3.20524C8.29524 3.09777 8.34884 2.97087 8.36828 2.83672C8.51577 2.11771 8.6817 1.40279 8.80871 0.679686C8.81403 0.582586 8.83898 0.487573 8.88208 0.400396C8.92517 0.313219 8.9855 0.23569 9.05941 0.172498C9.13333 0.109306 9.2193 0.0617651 9.31211 0.0327503C9.40493 0.00373552 9.50267 -0.00615028 9.59941 0.00369216C10.5397 0.00369216 11.4799 0.00369216 12.4201 0.00369216C12.9548 0.00369216 13.1781 0.310962 13.2682 0.786206C13.3966 1.46903 13.5331 2.15185 13.6779 2.83467C13.8172 3.48813 14.3949 3.7278 14.9561 3.36317C15.5707 2.96372 16.1852 2.56222 16.7998 2.14639C17.1542 1.90262 17.4696 1.88828 17.7851 2.20579C18.4754 2.90227 19.176 3.58851 19.8602 4.29113C19.9657 4.43406 20.0557 4.58789 20.1285 4.74999ZM3.43968 4.87289C3.67525 5.22933 3.90058 5.56527 4.12592 5.89712C4.37045 6.22243 4.59155 6.56471 4.78757 6.92136C4.90422 7.16462 4.9401 7.43878 4.88999 7.70387C4.78744 8.11904 4.62529 8.51716 4.4086 8.88584C4.27965 9.10523 4.07492 9.26989 3.83298 9.34879C3.16314 9.52291 2.4769 9.63762 1.79476 9.75848C1.42194 9.81994 1.21709 9.96333 1.25397 10.3874C1.28265 10.8157 1.28265 11.2455 1.25397 11.6738C1.24168 11.9893 1.32157 12.1531 1.66366 12.2043C2.3296 12.2982 2.98961 12.4302 3.64043 12.5997C3.90753 12.6616 4.14198 12.8208 4.29799 13.0463C5.06616 14.5109 5.05182 14.5171 4.15254 15.8793C4.06241 16.0145 3.97023 16.1497 3.88215 16.289C3.24712 17.2804 3.24712 16.9568 4.02554 17.7557C4.90433 18.6611 4.95759 18.7041 5.94905 17.9257C6.84628 17.221 7.6759 16.8892 8.74315 17.5631C9.09139 17.7823 9.38228 17.9237 9.45807 18.3723C9.58917 19.1712 9.77558 19.9598 9.9456 20.7792C10.5069 20.7792 11.019 20.7485 11.525 20.7895C12.0309 20.8304 12.2255 20.6911 12.2911 20.1421C12.4427 18.8823 12.4386 17.4566 14.1859 17.221C14.4862 17.1599 14.7975 17.1833 15.0852 17.2886C15.5992 17.5457 16.0806 17.8635 16.5191 18.235C17.0108 18.657 17.318 18.5198 17.7195 18.0957C18.6925 17.0715 18.7438 17.0715 17.91 15.9223C17.3139 15.1152 16.9575 14.4003 17.5741 13.4027C17.8547 12.95 18.0452 12.6468 18.6106 12.5567C20.9807 12.1818 20.9786 12.1634 20.8352 10.0432C20.8221 9.98428 20.8036 9.92669 20.7799 9.87115C20.3601 9.75616 19.9321 9.67329 19.4996 9.62328C18.332 9.57002 17.5249 9.09273 17.3242 7.88004C17.2515 7.56345 17.2786 7.2321 17.402 6.9316C17.7974 6.22283 18.2829 5.56527 18.8257 4.74794C18.6019 4.60692 18.389 4.44944 18.1886 4.27679C17.2074 3.30172 17.1644 3.23822 16.0746 4.07194C15.1549 4.78071 14.2822 5.08184 13.2764 4.36897C13.0043 4.19126 12.7939 3.93364 12.6742 3.63152C12.4693 2.96987 12.4058 2.27134 12.2481 1.5974C12.2112 1.44376 12.0432 1.21434 11.9142 1.20614C11.2873 1.16517 10.6585 1.18771 10.0091 1.18771C9.87675 1.67735 9.77886 2.17566 9.71618 2.67899C9.65677 3.75238 9.22864 4.44681 8.11223 4.71721C7.65747 4.82783 7.30923 4.87494 6.91592 4.59635C6.28705 4.14979 5.63563 3.73395 4.91048 3.25051L3.6814 4.57382C3.60356 4.6701 3.53596 4.76228 3.43149 4.87289H3.43968Z" fill="white"/>
<path d="M11.0504 15.6868C10.4367 15.6852 9.82933 15.5622 9.26329 15.3251C8.69725 15.0879 8.18367 14.7412 7.7521 14.3049C7.32053 13.8686 6.97947 13.3512 6.74854 12.7826C6.51762 12.214 6.40138 11.6054 6.40651 10.9917C6.39994 10.37 6.51738 9.75334 6.75195 9.17763C6.98653 8.60192 7.33353 8.07875 7.77267 7.63872C8.21181 7.1987 8.73427 6.85064 9.30951 6.6149C9.88474 6.37917 10.5012 6.26048 11.1228 6.2658C11.7445 6.27111 12.3588 6.4003 12.93 6.64583C13.5011 6.89136 14.0175 7.2483 14.4491 7.69576C14.8806 8.14323 15.2186 8.67224 15.4434 9.25188C15.6681 9.83151 15.7749 10.4501 15.7578 11.0716C15.7604 11.6862 15.6398 12.2951 15.403 12.8623C15.1662 13.4295 14.818 13.9434 14.3791 14.3737C13.9403 14.804 13.4195 15.1419 12.8478 15.3674C12.276 15.593 11.6648 15.7015 11.0504 15.6868ZM11.1036 7.52157C10.6356 7.51026 10.1699 7.59269 9.73419 7.764C9.29844 7.93531 8.90136 8.19206 8.5663 8.51911C8.23125 8.84617 7.965 9.23694 7.78321 9.66842C7.60142 10.0999 7.50777 10.5634 7.50777 11.0316C7.50777 11.4998 7.60142 11.9633 7.78321 12.3948C7.965 12.8263 8.23125 13.2171 8.5663 13.5441C8.90136 13.8712 9.29844 14.1279 9.73419 14.2992C10.1699 14.4705 10.6356 14.553 11.1036 14.5417C12.0328 14.5346 12.9215 14.1609 13.5764 13.5018C14.2313 12.8427 14.5993 11.9515 14.6004 11.0224C14.6028 10.5623 14.5141 10.1063 14.3392 9.68075C14.1644 9.25518 13.907 8.86847 13.5819 8.54295C13.2568 8.21744 12.8703 7.95958 12.445 7.78427C12.0196 7.60895 11.5637 7.51967 11.1036 7.52157Z" fill="white"/>
</svg>
