<svg width="17" height="18" viewBox="0 0 17 18" fill="none" xmlns="http://www.w3.org/2000/svg">
<path fill-rule="evenodd" clip-rule="evenodd" d="M7.90439 5.32617H7.97144C8.17531 5.32617 8.34601 5.48065 8.3663 5.68351L8.72739 9.29443L11.3052 10.7675C11.4289 10.8381 11.5052 10.9696 11.5052 11.112V11.2786C11.5052 11.4459 11.3695 11.5816 11.2021 11.5816C11.1751 11.5816 11.1483 11.5781 11.1223 11.571L7.45649 10.5712C7.27285 10.5211 7.15064 10.3477 7.16524 10.1579L7.50873 5.69256C7.52463 5.48582 7.69703 5.32617 7.90439 5.32617Z" fill="white"/>
<path fill-rule="evenodd" clip-rule="evenodd" d="M5.07127 1.62357C6.07315 1.19697 7.17567 0.960908 8.33333 0.960908C12.9357 0.960908 16.6667 4.69187 16.6667 9.29424C16.6667 13.8966 12.9357 17.6276 8.33333 17.6276C3.73096 17.6276 0 13.8966 0 9.29424C0 8.5126 0.107615 7.75609 0.308836 7.03873L1.83715 7.46742C1.672 8.0562 1.5873 8.66879 1.5873 9.29424C1.5873 13.02 4.6076 16.0403 8.33333 16.0403C12.0591 16.0403 15.0794 13.02 15.0794 9.29424C15.0794 5.56851 12.0591 2.54821 8.33333 2.54821C7.57838 2.54821 6.84314 2.67196 6.14978 2.90889L7.09483 4.03516C7.14985 4.10073 7.18219 4.18233 7.18703 4.26778C7.19943 4.48659 7.0321 4.67402 6.81329 4.68642L2.95062 4.90531C2.91215 4.90749 2.87357 4.90406 2.8361 4.89512C2.62292 4.84427 2.49132 4.63023 2.54217 4.41705L3.43781 0.662186C3.45757 0.579326 3.50348 0.505026 3.56873 0.450271C3.73662 0.309397 3.98692 0.331295 4.12779 0.499182L5.07127 1.62357Z" fill="white"/>
</svg>
