<svg width="15" height="15" viewBox="0 0 15 15" fill="none" xmlns="http://www.w3.org/2000/svg">
<path d="M15 10.1471C15 11.0047 14.6997 11.7338 14.0991 12.3344C13.4985 12.935 12.7694 13.2353 11.9118 13.2353L4.39324 13.2353C4.20206 13.75 3.91059 14.1726 3.51882 14.5032C3.12706 14.8338 2.69118 14.9994 2.21118 15C1.59706 15 1.075 14.7856 0.645 14.3568C0.215 13.9285 -6.95782e-08 13.4082 -9.6345e-08 12.7959C-1.23112e-07 12.1835 0.215 11.6626 0.645 11.2332C1.075 10.8038 1.59735 10.5888 2.21206 10.5882C2.69088 10.5882 3.12618 10.7535 3.51794 11.0841C3.90971 11.4147 4.20176 11.8376 4.39412 12.3529L11.9118 12.3529C12.5182 12.3529 13.0376 12.1365 13.47 11.7035C13.9018 11.2712 14.1176 10.7512 14.1176 10.1435C14.1176 9.53588 13.9018 9.01706 13.47 8.58706C13.0382 8.15706 12.5188 7.94177 11.9118 7.94118L3.08824 7.94118C2.23059 7.94118 1.50147 7.64088 0.900882 7.0403C0.300294 6.43971 -4.06053e-07 5.71059 -4.43542e-07 4.85294C-4.81031e-07 3.9953 0.300294 3.26618 0.900882 2.66559C1.50147 2.065 2.23059 1.76471 3.08823 1.76471L10.6068 1.76471C10.7979 1.25 11.0894 0.827061 11.4812 0.495885C11.8729 0.164708 12.3085 -0.000585853 12.7879 2.36165e-06C13.4026 2.33478e-06 13.925 0.21412 14.355 0.642356C14.785 1.07118 15 1.59177 15 2.20412C15 2.81647 14.785 3.33735 14.355 3.76677C13.925 4.19618 13.4029 4.41118 12.7888 4.41177C12.3094 4.41177 11.87 4.24618 11.4706 3.915C11.0712 3.58383 10.7832 3.16118 10.6068 2.64706L3.08823 2.64706C2.48176 2.64706 1.96235 2.86324 1.53 3.29559C1.09824 3.72853 0.882353 4.24883 0.882353 4.85647C0.882353 5.46412 1.09853 5.98294 1.53088 6.41294C1.96324 6.84294 2.48235 7.05824 3.08824 7.05882L11.9118 7.05882C12.7694 7.05882 13.4985 7.35912 14.0991 7.95971C14.6997 8.56029 15 9.28941 15 10.1471Z" fill="white"/>
</svg>
