<svg width="24" height="18" viewBox="0 0 24 18" fill="none" xmlns="http://www.w3.org/2000/svg">
<path d="M7.58753 7.72735C7.06156 8.02811 6.45241 8.2 5.80312 8.2C3.8149 8.2 2.20312 6.58822 2.20312 4.6C2.20312 2.61177 3.8149 1 5.80312 1C7.79135 1 9.40312 2.61177 9.40312 4.6C9.40312 4.9386 9.35638 5.26628 9.26899 5.57695" stroke="white" stroke-width="1.2" stroke-linecap="round"/>
<circle cx="11.8031" cy="10.1996" r="3" stroke="white" stroke-width="1.2"/>
<path d="M7 16.6004C7.4 15.5337 8.92 13.4004 11.8 13.4004C14.68 13.4004 16.0667 15.4004 16.6 16.6004" stroke="white" stroke-width="1.2" stroke-linecap="round"/>
<path d="M1 10.5992C1.4 9.79922 2.92 8.19922 5.8 8.19922" stroke="white" stroke-width="1.2" stroke-linecap="round"/>
<path d="M16.4125 7.72735C16.9384 8.02811 17.5476 8.2 18.1969 8.2C20.1851 8.2 21.7969 6.58822 21.7969 4.6C21.7969 2.61177 20.1851 1 18.1969 1C16.2087 1 14.5969 2.61177 14.5969 4.6C14.5969 4.9386 14.6436 5.26628 14.731 5.57695" stroke="white" stroke-width="1.2" stroke-linecap="round"/>
<path d="M23 10.5992C22.6 9.79922 21.08 8.19922 18.2 8.19922" stroke="white" stroke-width="1.2" stroke-linecap="round"/>
</svg>
