<svg width="18" height="16" viewBox="0 0 18 16" fill="none" xmlns="http://www.w3.org/2000/svg">
<path d="M11.5513 3.52056C9.96054 3.52056 8.37057 3.52056 6.77977 3.51556C6.59321 3.51556 6.51159 3.5672 6.44662 3.7471C6.09431 4.64994 5.21979 5.22046 4.2145 5.22213C3.1859 5.22213 2.3222 4.66826 1.95907 3.7521C1.8916 3.58052 1.81581 3.5089 1.62591 3.51473C1.26944 3.52472 1.01375 3.28402 1.00042 2.96836C0.997424 2.89072 1.01041 2.81329 1.03857 2.74088C1.06673 2.66847 1.10947 2.60262 1.16414 2.5474C1.2188 2.49219 1.28423 2.4488 1.35635 2.41992C1.42848 2.39104 1.50577 2.37729 1.58344 2.37951C1.8333 2.37951 1.90826 2.2679 1.99405 2.06552C2.37467 1.171 3.26752 0.644623 4.32528 0.664612C4.78514 0.68117 5.23026 0.831178 5.60634 1.09634C5.98243 1.36151 6.27323 1.73038 6.44329 2.15796C6.51159 2.33787 6.59987 2.36952 6.76811 2.36952C9.91584 2.36563 13.0633 2.36563 16.2105 2.36952C16.3993 2.37008 16.5854 2.41516 16.7535 2.50111C16.8551 2.56133 16.9322 2.65561 16.9709 2.76722C17.0096 2.87883 17.0075 3.00055 16.9651 3.11078C16.9268 3.23062 16.8508 3.33487 16.7484 3.40798C16.6461 3.48108 16.5228 3.51911 16.397 3.51639C15.5483 3.51639 14.6988 3.51639 13.8493 3.51639L11.5513 3.52056ZM5.39469 2.93754C5.3897 2.29955 4.86082 1.80982 4.18285 1.81315C3.52738 1.81898 2.99933 2.32121 2.99933 2.94504C2.99933 3.56886 3.54487 4.09524 4.20035 4.09191C4.85582 4.08858 5.39969 3.57053 5.39469 2.93921V2.93754Z" fill="white" stroke="white" stroke-width="0.166667"/>
<path d="M6.66593 7.70729C7.08237 6.58457 7.91025 5.99322 9.03464 6.00405C10.1116 6.01238 10.9503 6.62705 11.3317 7.70729H11.6191C13.1677 7.70729 14.716 7.70729 16.264 7.70729C16.3794 7.70289 16.4946 7.71694 16.6055 7.74894C16.7219 7.7843 16.8233 7.85715 16.894 7.95615C16.9647 8.05516 17.0006 8.17475 16.9962 8.2963C16.9919 8.41786 16.9474 8.53456 16.8698 8.62823C16.7922 8.7219 16.6858 8.78728 16.5672 8.81419C16.4548 8.84262 16.3392 8.85662 16.2232 8.85583C14.683 8.85583 13.1427 8.85583 11.6024 8.85583H11.3376C10.8678 9.99188 10.0624 10.5657 8.96385 10.5591C7.91525 10.5566 7.10569 9.9619 6.66593 8.85916H6.37526C4.84276 8.85916 3.31082 8.85916 1.77943 8.85916C1.66356 8.8601 1.54802 8.84667 1.43545 8.81919C1.30352 8.79048 1.18664 8.7145 1.10687 8.60557C1.02709 8.49664 0.989913 8.36229 1.00235 8.22784C1.01764 8.09003 1.08155 7.96218 1.1826 7.86724C1.28365 7.77229 1.41523 7.71647 1.55372 7.70979C1.65283 7.70229 1.75278 7.70979 1.85272 7.70979L6.66593 7.70729ZM9.00299 9.40803C9.67679 9.40803 10.2015 8.9083 10.1982 8.26532C10.1982 7.65066 9.65597 7.13677 9.00799 7.13094C8.36001 7.12511 7.80115 7.64899 7.80031 8.27198C7.79948 8.89498 8.33169 9.41303 9.00299 9.40803Z" fill="white" stroke="white" stroke-width="0.166667"/>
<path d="M6.45182 13.0489C8.03429 13.0489 9.61676 13.0489 11.1992 13.0489C11.3916 13.0489 11.4832 13.0014 11.5582 12.8057C11.8997 11.9112 12.8275 11.3065 13.8128 11.3165C14.7981 11.3265 15.6926 11.9179 16.0391 12.8115C16.1066 12.9865 16.1873 13.0506 16.3722 13.0514C16.7545 13.0514 16.9986 13.293 16.9927 13.6203C16.9869 13.9476 16.7429 14.1741 16.3523 14.1683C16.1615 14.1683 16.0974 14.2466 16.0383 14.4048C15.7051 15.2885 14.7981 15.8949 13.8153 15.904C12.8325 15.9132 11.8922 15.3102 11.5565 14.4198C11.4732 14.21 11.3733 14.17 11.1776 14.17C8.04484 14.175 4.91294 14.175 1.78186 14.17C1.69015 14.1715 1.59842 14.1684 1.50701 14.1608C1.37526 14.1415 1.2548 14.0756 1.1675 13.9751C1.0802 13.8745 1.03186 13.746 1.03126 13.6128C1.03065 13.4797 1.07782 13.3507 1.1642 13.2494C1.25058 13.1481 1.37044 13.0811 1.50202 13.0606C1.62612 13.0481 1.75188 13.0498 1.87681 13.0489H6.45182ZM13.7995 14.7563C14.4575 14.7563 15.0005 14.2333 14.9947 13.6061C14.9888 12.979 14.4583 12.4767 13.8086 12.4726C13.159 12.4684 12.6018 12.9815 12.6026 13.6086C12.6057 13.7626 12.639 13.9145 12.7009 14.0556C12.7627 14.1967 12.8517 14.3242 12.9629 14.4308C13.0741 14.5374 13.2052 14.621 13.3488 14.6769C13.4923 14.7328 13.6455 14.7597 13.7995 14.7563Z" fill="white" stroke="white" stroke-width="0.166667"/>
</svg>
