<svg width="18" height="18" viewBox="0 0 18 18" fill="none" xmlns="http://www.w3.org/2000/svg">
<path d="M5.71333 13.93L7.35736 12.286H9.00138L10.1193 11.168C11.2621 11.5662 12.5061 11.5646 13.6478 11.1636C14.7895 10.7625 15.7613 9.98585 16.4041 8.96059C17.0469 7.93533 17.3226 6.72224 17.1862 5.51986C17.0497 4.31748 16.5091 3.19703 15.6529 2.3419C14.7967 1.48676 13.6756 0.947593 12.4731 0.812637C11.2705 0.677681 10.0578 0.95493 9.03331 1.59901C8.00885 2.24309 7.23337 3.21584 6.83379 4.35806C6.43421 5.50029 6.43419 6.74432 6.83373 7.88656L0.78125 13.93V17.2181H4.0693L5.71333 15.574V13.93Z" stroke="white" stroke-width="1.2" stroke-linecap="round" stroke-linejoin="round"/>
<path d="M13.1111 5.71043C13.5651 5.71043 13.9331 5.3424 13.9331 4.88842C13.9331 4.43443 13.5651 4.06641 13.1111 4.06641C12.6571 4.06641 12.2891 4.43443 12.2891 4.88842C12.2891 5.3424 12.6571 5.71043 13.1111 5.71043Z" stroke="white" stroke-width="1.2" stroke-linecap="round" stroke-linejoin="round"/>
</svg>
