<svg width="20" height="14" viewBox="0 0 20 14" fill="none" xmlns="http://www.w3.org/2000/svg">
<path d="M3.25506 0.742188H4.51234C4.62053 0.778768 4.73177 0.803066 4.84437 0.81471C6.48533 0.819627 8.12666 0.819627 9.76836 0.81471C12.4246 0.81471 15.0786 0.81471 17.7304 0.81471C18.6756 0.81471 19.2799 1.48831 19.2799 2.53559C19.2799 3.53739 19.2799 4.53919 19.2799 5.53975C19.2902 5.65376 19.3099 5.76649 19.3385 5.87655V7.27293C19.31 7.39382 19.2908 7.51718 19.281 7.64169C19.281 9.09706 19.281 10.5512 19.281 12.0066C19.281 13.0047 18.6911 13.6562 17.7913 13.6562C12.5984 13.6562 7.40542 13.6562 2.21249 13.6562C1.26953 13.6611 0.678516 13.0084 0.671875 11.9722C0.671875 10.9888 0.671875 9.99191 0.671875 9.00241C0.671875 6.8382 0.671875 4.6744 0.671875 2.51101C0.671875 1.64565 1.10351 1.04211 1.86829 0.865107C2.15494 0.79996 2.4593 0.833148 2.7537 0.811023C2.92303 0.803647 3.08794 0.768001 3.25506 0.742188ZM18.0248 5.90483H1.92916C1.92916 7.94899 1.92916 9.96119 1.92916 11.982C1.92916 12.2954 2.10624 12.293 2.30546 12.293C7.42239 12.293 12.5393 12.293 17.6563 12.293C17.9662 12.293 18.0536 12.1701 18.0525 11.8382C18.0403 9.987 18.0481 8.12845 18.0481 6.27359C18.0481 6.15067 18.0315 6.02775 18.0248 5.90483ZM18.0481 4.47035C18.0481 3.86927 18.0481 3.28663 18.0481 2.70276C18.0481 2.22952 18.0292 2.21108 17.5987 2.21108H2.38072C2.29364 2.19895 2.20536 2.20311 2.11952 2.22337C2.04869 2.25164 1.94576 2.33646 1.94465 2.39792C1.93248 3.08873 1.93691 3.77954 1.93691 4.47035H18.0481Z" fill="white"/>
<path d="M14.5273 7.26781C15.0807 7.26781 15.6286 7.26781 16.1797 7.26781C16.7608 7.26781 17.1935 7.71278 17.2135 8.35196C17.2334 8.99115 17.2334 9.64754 17.2135 10.2941C17.2092 10.5799 17.1046 10.8526 16.9221 11.0541C16.7396 11.2556 16.4935 11.3702 16.2362 11.3733C15.1021 11.3938 13.9677 11.3938 12.8329 11.3733C12.2563 11.3635 11.86 10.8731 11.8545 10.229C11.8545 9.61435 11.8479 9.00713 11.8545 8.39622C11.8623 7.72876 12.2729 7.27519 12.8749 7.26781C13.425 7.26289 13.9762 7.26781 14.5273 7.26781ZM15.9518 8.66787H13.1052V9.96099H15.9518V8.66787Z" fill="white"/>
</svg>
