<svg width="18" height="19" viewBox="0 0 18 19" fill="none" xmlns="http://www.w3.org/2000/svg">
<g clip-path="url(#clip0_150_9178)">
<path d="M1.20094 7.30923C0.314216 6.92633 -0.0456735 6.2455 -0.00468608 5.31874C0.00930961 5.01881 -0.00468608 4.71889 -0.00468608 4.41896C-0.00670197 4.18049 0.0389127 3.94401 0.129483 3.72339C0.220054 3.50278 0.353757 3.30247 0.522754 3.13421C0.691751 2.96595 0.892639 2.83312 1.11364 2.74352C1.33464 2.65392 1.5713 2.60935 1.80976 2.61242C2.68848 2.60242 3.56821 2.61242 4.44794 2.61242H4.79983C4.79983 2.41247 4.79983 2.23052 4.79983 2.05356C4.81483 0.874857 5.77054 0.0680611 6.93618 0.228021C7.34144 0.279817 7.73246 0.411241 8.08675 0.61473C8.44103 0.818219 8.75159 1.08976 9.00054 1.41372C9.4225 0.867543 10.0123 0.475175 10.679 0.297003C11.7727 -0.00292095 12.7654 0.444966 13.0903 1.43772C13.2052 1.78963 13.1903 2.18253 13.2452 2.60942H13.5212C14.3809 2.60942 15.2406 2.60942 16.0994 2.60942C17.236 2.60942 17.9918 3.37323 17.9988 4.50894C17.9988 4.77887 17.9988 5.0488 17.9988 5.31774C17.9988 6.36647 17.7259 6.82535 16.7991 7.31723V16.209C16.7991 17.4697 16.0704 18.2025 14.8148 18.2035H3.18233C1.93072 18.2035 1.20094 17.4667 1.20094 16.204C1.20094 13.3454 1.20094 10.4871 1.20094 7.62915V7.30923ZM6.57729 17.0068V7.4262H2.40257V13.9426C2.40257 14.7424 2.40257 15.5422 2.40257 16.342C2.40257 16.7419 2.6235 16.9978 2.98639 17.0008C4.17603 17.0108 5.36466 17.0018 6.57729 17.0018V17.0068ZM11.4058 17.0068H14.8168C15.3946 17.0068 15.5955 16.8068 15.5955 16.236C15.5955 13.4067 15.5955 10.5777 15.5955 7.74912V7.4342H11.4058V17.0068ZM9.02953 3.81012C6.67226 3.81012 4.31498 3.81012 1.95771 3.81012C1.40188 3.81012 1.20494 4.01007 1.20394 4.57392C1.20394 4.89384 1.19894 5.21376 1.20394 5.53268C1.20994 5.96857 1.43687 6.20651 1.86774 6.20651C6.62227 6.20651 11.3768 6.20651 16.1313 6.20651C16.5622 6.20651 16.7891 5.97057 16.7951 5.53368C16.7951 5.22376 16.7951 4.91384 16.7951 4.60492C16.7951 4.00507 16.6042 3.81112 16.0104 3.81112L9.02953 3.81012ZM10.1772 16.9918V7.4342H7.81591V16.9918H10.1772ZM6.00146 2.59542H8.28576C8.17678 2.29066 7.98688 2.02133 7.73644 1.81631C7.486 1.6113 7.18447 1.47835 6.8642 1.43172C6.31137 1.33174 6.00546 1.59068 6.00246 2.15653C6.00146 2.2955 6.00146 2.43346 6.00146 2.59742V2.59542ZM9.73532 2.58643H11.9916C11.9916 2.37548 12.0016 2.18653 11.9916 1.99757C11.988 1.84092 11.9232 1.69192 11.8111 1.58244C11.699 1.47295 11.5485 1.41168 11.3918 1.41172C10.692 1.38373 9.97124 1.8846 9.73532 2.58842V2.58643Z" fill="white"/>
</g>
<defs>
<clipPath id="clip0_150_9178">
<rect width="18" height="18" fill="white" transform="translate(0 0.203125)"/>
</clipPath>
</defs>
</svg>
