<svg width="55" height="32" viewBox="0 0 55 32" fill="none" xmlns="http://www.w3.org/2000/svg">
<g clip-path="url(#clip0_5802_50257)">
<path d="M51.587 7.83984H48.147C47.107 7.83984 46.307 8.15984 45.827 9.19984L39.267 24.1598H43.907C43.907 24.1598 44.707 22.1598 44.867 21.6798C45.347 21.6798 49.907 21.6798 50.547 21.6798C50.707 22.2398 51.107 24.0798 51.107 24.0798H55.267L51.587 7.83984ZM46.147 18.3198C46.547 17.3598 47.907 13.7598 47.907 13.7598C47.907 13.8398 48.307 12.7998 48.467 12.2398L48.787 13.6798C48.787 13.6798 49.667 17.5998 49.827 18.3998H46.147V18.3198Z" fill="#3362AB"/>
<path d="M39.5866 18.7996C39.5866 22.1596 36.5466 24.3996 31.8266 24.3996C29.8266 24.3996 27.9066 23.9996 26.8666 23.5196L27.5066 19.8396L28.0666 20.0796C29.5066 20.7196 30.4666 20.9596 32.2266 20.9596C33.5066 20.9596 34.8666 20.4796 34.8666 19.3596C34.8666 18.6396 34.3066 18.1596 32.5466 17.3596C30.8666 16.5596 28.6266 15.2796 28.6266 12.9596C28.6266 9.75961 31.7466 7.59961 36.1466 7.59961C37.8266 7.59961 39.2666 7.91961 40.1466 8.31961L39.5066 11.8396L39.1866 11.5196C38.3866 11.1996 37.3466 10.8796 35.8266 10.8796C34.1466 10.9596 33.3466 11.6796 33.3466 12.3196C33.3466 13.0396 34.3066 13.5996 35.8266 14.3196C38.3866 15.5196 39.5866 16.8796 39.5866 18.7996Z" fill="#3362AB"/>
<path d="M0.546265 7.99969L0.626265 7.67969H7.50627C8.46627 7.67969 9.18627 7.99969 9.42627 9.03969L10.9463 16.2397C9.42627 12.3997 5.90626 9.27969 0.546265 7.99969Z" fill="#F9B50B"/>
<path d="M20.6267 7.83977L13.6667 24.0798H8.94666L4.94666 10.4798C7.82666 12.3198 10.2267 15.1998 11.1067 17.1998L11.5867 18.8798L15.9067 7.75977H20.6267V7.83977Z" fill="#3362AB"/>
<path d="M22.4664 7.75977H26.8664L24.0664 24.0798H19.6664L22.4664 7.75977Z" fill="#3362AB"/>
</g>
<defs>
<clipPath id="clip0_5802_50257">
<rect width="54.4" height="32" fill="white" transform="translate(0.599976)"/>
</clipPath>
</defs>
</svg>
