<svg width="55" height="33" viewBox="0 0 55 33" fill="none" xmlns="http://www.w3.org/2000/svg">
<g clip-path="url(#clip0_1867_24939)">
<path d="M51.5867 8.33984H48.1467C47.1067 8.33984 46.3067 8.65984 45.8267 9.69984L39.2667 24.6598H43.9067C43.9067 24.6598 44.7067 22.6598 44.8667 22.1798C45.3467 22.1798 49.9067 22.1798 50.5467 22.1798C50.7067 22.7398 51.1067 24.5798 51.1067 24.5798H55.2667L51.5867 8.33984ZM46.1467 18.8198C46.5467 17.8598 47.9067 14.2598 47.9067 14.2598C47.9067 14.3398 48.3067 13.2998 48.4667 12.7398L48.7867 14.1798C48.7867 14.1798 49.6667 18.0998 49.8267 18.8998H46.1467V18.8198Z" fill="#3362AB"/>
<path d="M39.5866 19.2996C39.5866 22.6596 36.5466 24.8996 31.8266 24.8996C29.8266 24.8996 27.9066 24.4996 26.8666 24.0196L27.5066 20.3396L28.0666 20.5796C29.5066 21.2196 30.4666 21.4596 32.2266 21.4596C33.5066 21.4596 34.8666 20.9796 34.8666 19.8596C34.8666 19.1396 34.3066 18.6596 32.5466 17.8596C30.8666 17.0596 28.6266 15.7796 28.6266 13.4596C28.6266 10.2596 31.7466 8.09961 36.1466 8.09961C37.8266 8.09961 39.2666 8.41961 40.1466 8.81961L39.5066 12.3396L39.1866 12.0196C38.3866 11.6996 37.3466 11.3796 35.8266 11.3796C34.1466 11.4596 33.3466 12.1796 33.3466 12.8196C33.3466 13.5396 34.3066 14.0996 35.8266 14.8196C38.3866 16.0196 39.5866 17.3796 39.5866 19.2996Z" fill="#3362AB"/>
<path d="M0.546631 8.49969L0.626631 8.17969H7.50663C8.46663 8.17969 9.18663 8.49969 9.42663 9.53969L10.9466 16.7397C9.42663 12.8997 5.90663 9.77969 0.546631 8.49969Z" fill="#F9B50B"/>
<path d="M20.6267 8.33977L13.6667 24.5798H8.94666L4.94666 10.9798C7.82666 12.8198 10.2267 15.6998 11.1067 17.6998L11.5867 19.3798L15.9067 8.25977H20.6267V8.33977Z" fill="#3362AB"/>
<path d="M22.4669 8.25977H26.8669L24.0669 24.5798H19.6669L22.4669 8.25977Z" fill="#3362AB"/>
</g>
<defs>
<clipPath id="clip0_1867_24939">
<rect width="54.4" height="32" fill="white" transform="translate(0.599976 0.5)"/>
</clipPath>
</defs>
</svg>
