<svg width="24" height="24" viewBox="0 0 24 24" fill="none" xmlns="http://www.w3.org/2000/svg">
<path d="M2.57031 10.668H21.4093V11.0156C21.4093 13.1567 21.4093 15.2977 21.4093 17.4388C21.4093 18.6129 20.7308 19.2935 19.5512 19.2946C14.5073 19.2946 9.46335 19.2946 4.41945 19.2946C3.24313 19.2935 2.57031 18.6084 2.57031 17.4309C2.57031 15.1904 2.57031 12.9488 2.57031 10.668ZM4.18396 14.6197C4.18396 15.2925 4.17835 15.9653 4.18396 16.6381C4.17918 16.7727 4.20232 16.9068 4.25192 17.032C4.30152 17.1572 4.3765 17.2708 4.47215 17.3656C4.56779 17.4604 4.68203 17.5344 4.80767 17.5829C4.93331 17.6314 5.06762 17.6533 5.20216 17.6474C6.51192 17.6526 7.82242 17.6526 9.13367 17.6474C9.75603 17.6474 10.1721 17.2425 10.1765 16.6235C10.1893 15.3026 10.19 13.9797 10.1788 12.655C10.1788 12.0708 9.81434 11.6458 9.2402 11.6335C7.86316 11.6066 6.48575 11.6066 5.10797 11.6335C4.54168 11.6447 4.19181 12.0652 4.1862 12.6304C4.17947 13.2976 4.18396 13.9592 4.18396 14.6197ZM15.1891 14.965C16.4102 14.965 17.6325 14.9718 18.8537 14.9572C18.9333 14.956 19.012 14.9389 19.0849 14.907C19.1579 14.875 19.2238 14.8288 19.2787 14.771C19.4458 14.5468 19.2215 14.2967 18.857 14.2967C16.4244 14.2967 13.9922 14.2967 11.5603 14.2967C11.3024 14.2967 11.0557 14.3416 11.0658 14.6555C11.0759 14.9516 11.3192 14.9707 11.5603 14.9695C12.768 14.9628 13.978 14.965 15.1891 14.965ZM15.1891 17.2414C16.4001 17.2414 17.6101 17.2481 18.82 17.2336C18.9906 17.2328 19.1541 17.1652 19.2753 17.0452C19.4469 16.8209 19.217 16.572 18.8559 16.572C16.4248 16.572 13.9952 16.572 11.567 16.572C11.3091 16.572 11.0624 16.6123 11.0703 16.9263C11.0781 17.2403 11.3248 17.2459 11.5648 17.2448C12.7706 17.241 13.9783 17.2399 15.1879 17.2414H15.1891ZM15.2238 12.0416C13.9798 12.0416 12.7362 12.0416 11.493 12.0416C11.2688 12.0416 11.0692 12.0943 11.0613 12.3523C11.0535 12.6102 11.2542 12.7032 11.493 12.7077C11.5715 12.7077 11.65 12.7077 11.7285 12.7077H18.5857C18.7308 12.7162 18.8764 12.7117 19.0208 12.6943C19.2383 12.655 19.3673 12.5137 19.3112 12.2861C19.2551 12.0585 19.0566 12.0383 18.8537 12.0394C17.6419 12.0416 16.4315 12.0424 15.2227 12.0416H15.2238Z" fill="#306DDE"/>
<path d="M21.3779 9.96519H2.57031V7.87272C2.57031 7.39053 2.57031 6.90834 2.57031 6.42615C2.58265 5.47972 3.20837 4.8069 4.15705 4.71158C4.26918 4.70037 4.38132 4.69813 4.49346 4.69813C9.49101 4.69588 14.4901 4.69476 19.4906 4.69476C20.2004 4.69476 20.8071 4.88315 21.1659 5.53467C21.304 5.77455 21.3842 6.04331 21.4003 6.31962C21.4261 7.47463 21.4126 8.62852 21.4115 9.78353C21.4059 9.84499 21.3947 9.9058 21.3779 9.96519ZM14.8347 9.1578C14.9177 9.24975 15.0051 9.42805 15.1094 9.43814C15.2384 9.45048 15.4784 9.34731 15.503 9.25312C15.7015 8.45358 16.2611 8.34593 16.9474 8.44349C17.0023 8.45134 17.0673 8.42667 17.1133 8.44349C17.2292 8.48188 17.334 8.54811 17.4183 8.63637C17.5518 8.84046 17.6336 9.07819 17.7603 9.28788C17.9005 9.52113 18.1954 9.54692 18.2997 9.32489C18.3521 9.17433 18.3433 9.00921 18.2751 8.86513C17.8654 8.0084 17.4411 7.15915 17.0023 6.31738C16.9305 6.18057 16.75 6.00003 16.6356 6.01125C16.491 6.0247 16.3127 6.18618 16.2364 6.33084C15.8024 7.16177 15.401 7.99158 14.9883 8.82139C14.9435 8.9111 14.9053 9.00305 14.8347 9.1578ZM7.12418 8.13399C6.82926 7.42753 6.5635 6.78835 6.29661 6.1559C6.20915 5.94733 6.10262 5.75221 5.83013 5.8565C5.55763 5.96079 5.5823 6.19291 5.67762 6.41718C6.04655 7.28176 6.39417 8.15306 6.77544 9.01202C6.81078 9.08754 6.86206 9.1545 6.92575 9.20832C6.98943 9.26213 7.06401 9.30151 7.14437 9.32376C7.24193 9.33498 7.41349 9.14771 7.47181 9.01427C7.83176 8.19455 8.16817 7.36586 8.51356 6.53941C8.68849 6.12114 8.67167 5.92939 8.41936 5.85426C8.0594 5.74212 7.99773 6.04937 7.90017 6.27925C7.64786 6.87358 7.40116 7.47127 7.12418 8.13399ZM13.0854 6.01013C12.6974 5.96976 12.2926 6.04601 12.0021 6.42615C11.4975 7.08664 11.9057 7.99607 12.7579 8.09923C13.0214 8.13063 13.1953 8.23604 13.1796 8.51077C13.1639 8.78551 12.9721 8.85503 12.731 8.84718C12.5187 8.83912 12.306 8.84286 12.0941 8.8584C11.8934 8.87858 11.7285 9.00642 11.7891 9.21275C11.8183 9.28267 11.8633 9.34492 11.9205 9.39469C11.9776 9.44447 12.0455 9.48044 12.1187 9.49982C12.3968 9.5301 12.6773 9.5301 12.9553 9.49982C13.1129 9.48833 13.265 9.4369 13.3972 9.35038C13.5294 9.26387 13.6374 9.14511 13.7111 9.0053C14.1092 8.33248 13.692 7.55761 12.8611 7.43538C12.6144 7.39838 12.4563 7.29297 12.4686 7.03169C12.4809 6.77041 12.657 6.67173 12.9026 6.67285C13.1156 6.67285 13.3377 6.70874 13.5373 6.65828C13.6651 6.62464 13.8614 6.44746 13.8479 6.36224C13.8266 6.22991 13.673 6.0875 13.5395 6.01573C13.4352 5.96527 13.2771 6.01013 13.0854 6.01013ZM10.4401 7.59013C10.4401 7.15392 10.4401 6.71771 10.4401 6.28262C10.4401 6.04152 10.3582 5.83407 10.1037 5.83407C9.8491 5.83407 9.76724 6.03031 9.76724 6.27589C9.77397 7.14682 9.77397 8.01812 9.76724 8.8898C9.76724 9.12977 9.82331 9.33834 10.0936 9.33834C10.3638 9.33834 10.4401 9.1365 10.4401 8.8898C10.4389 8.46143 10.4401 8.02522 10.4401 7.59013Z" fill="#306DDE"/>
<path d="M4.85156 16.2094V14.765C4.85156 14.1046 4.85156 13.443 4.85156 12.7825C4.85156 12.3967 4.94351 12.2969 5.31805 12.2947C6.56165 12.2947 7.80524 12.2947 9.04884 12.2947C9.32021 12.2947 9.51084 12.3777 9.50972 12.6916V16.2015C7.95214 15.125 6.42035 15.1071 4.85156 16.2094ZM8.3592 13.7939C8.36347 13.6374 8.33595 13.4816 8.27831 13.336C8.22067 13.1904 8.1341 13.058 8.02383 12.9467C7.91356 12.8355 7.78189 12.7478 7.63677 12.689C7.49165 12.6301 7.3361 12.6012 7.17952 12.6042C6.946 12.6037 6.71758 12.6725 6.52309 12.8017C6.32861 12.931 6.17677 13.115 6.08674 13.3304C5.99672 13.5459 5.97254 13.7832 6.01726 14.0124C6.06197 14.2416 6.17359 14.4524 6.33801 14.6183C6.50243 14.7841 6.71229 14.8975 6.9411 14.9442C7.16991 14.9908 7.40741 14.9687 7.62364 14.8805C7.83987 14.7923 8.02514 14.642 8.15605 14.4487C8.28695 14.2553 8.35765 14.0275 8.3592 13.7939Z" fill="#306DDE"/>
<path d="M5.0957 16.9581C6.25856 15.6741 8.38691 15.876 9.22457 16.9581H5.0957Z" fill="#306DDE"/>
<path d="M16.2793 7.74858C16.3915 7.51294 16.4947 7.31208 16.6238 7.0495C16.7562 7.30759 16.8583 7.50845 16.9806 7.74858H16.2793Z" fill="#306DDE"/>
<path d="M7.17326 14.2946C7.10636 14.2926 7.0405 14.2774 6.97945 14.25C6.9184 14.2225 6.86335 14.1833 6.81745 14.1346C6.77154 14.0859 6.73569 14.0286 6.71192 13.9661C6.68815 13.9035 6.67695 13.8368 6.67894 13.7699C6.68093 13.703 6.69607 13.6372 6.72351 13.5761C6.75096 13.5151 6.79015 13.46 6.83887 13.4141C6.88759 13.3682 6.94487 13.3324 7.00744 13.3086C7.07001 13.2848 7.13666 13.2736 7.20356 13.2756C7.33868 13.2796 7.46667 13.3372 7.55938 13.4355C7.65208 13.5339 7.7019 13.6651 7.69789 13.8002C7.69387 13.9354 7.63634 14.0634 7.53795 14.1561C7.43957 14.2488 7.30838 14.2986 7.17326 14.2946Z" fill="#306DDE"/>
</svg>
