<svg width="20" height="20" viewBox="0 0 20 20" fill="none" xmlns="http://www.w3.org/2000/svg">
<path opacity="0.3" d="M9.99996 18.3327C14.6023 18.3327 18.3333 14.6017 18.3333 9.99935C18.3333 5.39698 14.6023 1.66602 9.99996 1.66602C5.39759 1.66602 1.66663 5.39698 1.66663 9.99935C1.66663 14.6017 5.39759 18.3327 9.99996 18.3327Z" fill="#BF3939"/>
<path d="M10.8333 6.66732C10.8333 6.20708 10.4602 5.83398 9.99996 5.83398C9.53972 5.83398 9.16663 6.20708 9.16663 6.66732V11.6673C9.16663 12.1276 9.53972 12.5007 9.99996 12.5007C10.4602 12.5007 10.8333 12.1276 10.8333 11.6673V6.66732Z" fill="#BF3939"/>
<path d="M10.8333 14.1673C10.8333 13.7071 10.4602 13.334 9.99996 13.334C9.53972 13.334 9.16663 13.7071 9.16663 14.1673C9.16663 14.6276 9.53972 15.0007 9.99996 15.0007C10.4602 15.0007 10.8333 14.6276 10.8333 14.1673Z" fill="#BF3939"/>
</svg>
