<svg width="568" height="581" viewBox="0 0 568 581" fill="none" xmlns="http://www.w3.org/2000/svg">
<path d="M279 211.217C181.108 262.858 73.7069 319.566 0 358.5V403.5L279 259V211.217Z" fill="#DFE9F8"/>
<path d="M0 580.5L224 513.5C259.148 511.603 309.312 509.127 360.5 506.673V456.5H568V431.5L228 443V394.5L568 373.5V109.5L324 248V187.482C310.942 194.368 297.57 201.421 284 208.579V261.5L0 409.5V580.5Z" fill="#DFE9F8"/>
<path d="M568 427V378L398 389.131L398.724 432.542L568 427Z" fill="#DFE9F8"/>
<path d="M568 497V461H364V506.505C464.639 501.685 568 497 568 497Z" fill="#DFE9F8"/>
<path d="M568 0L548.5 55.5C545 62.1667 533.8 77.6 517 86C508.979 90.0104 428.458 132.398 328.5 185.109V239.5L568 102V0Z" fill="#DFE9F8"/>
<path fill-rule="evenodd" clip-rule="evenodd" d="M232 438V400L393.5 389.426L394 432.696L232 438Z" fill="#DFE9F8"/>
</svg>
