<svg width="568" height="581" viewBox="0 0 568 581" fill="none" xmlns="http://www.w3.org/2000/svg">
<path d="M289 211.217C386.892 262.858 494.293 319.566 568 358.5V403.5L289 259V211.217Z" fill="#DFE9F8"/>
<path d="M568 580.5L344 513.5C308.852 511.603 258.688 509.127 207.5 506.673V456.5H0V431.5L340 443V394.5L0 373.5V109.5L244 248V187.482C257.058 194.368 270.43 201.421 284 208.579V261.5L568 409.5V580.5Z" fill="#DFE9F8"/>
<path d="M0 427V378L170 389.131L169.276 432.542L0 427Z" fill="#DFE9F8"/>
<path d="M0 497V461H204V506.505C103.361 501.685 0 497 0 497Z" fill="#DFE9F8"/>
<path d="M0 0L19.5 55.5C23 62.1667 34.2 77.6 51 86C59.0208 90.0104 139.542 132.398 239.5 185.109V239.5L0 102V0Z" fill="#DFE9F8"/>
<path fill-rule="evenodd" clip-rule="evenodd" d="M336 438V400L174.5 389.426L174 432.696L336 438Z" fill="#DFE9F8"/>
</svg>
