<svg width="16" height="16" viewBox="0 0 16 16" fill="none" xmlns="http://www.w3.org/2000/svg">
<path fill-rule="evenodd" clip-rule="evenodd" d="M7.30864 5H7.36497C7.53622 5 7.67961 5.12976 7.69665 5.30017L7.99996 8.33333L10.1653 9.57069C10.2692 9.63004 10.3333 9.74049 10.3333 9.86011V10C10.3333 10.1406 10.2193 10.2546 10.0787 10.2546C10.0561 10.2546 10.0335 10.2516 10.0117 10.2456L6.9324 9.40582C6.77815 9.36375 6.6755 9.21808 6.68776 9.05866L6.97629 5.30777C6.98965 5.1341 7.13446 5 7.30864 5Z" fill="#B5B5C2"/>
<path opacity="0.3" fill-rule="evenodd" clip-rule="evenodd" d="M4.92649 1.88974C5.76807 1.53139 6.69419 1.3331 7.66663 1.3331C11.5326 1.3331 14.6666 4.46711 14.6666 8.3331C14.6666 12.1991 11.5326 15.3331 7.66663 15.3331C3.80063 15.3331 0.666626 12.1991 0.666626 8.3331C0.666626 7.67652 0.757022 7.04106 0.926048 6.43847L2.20983 6.79857C2.07111 7.29314 1.99996 7.80772 1.99996 8.3331C1.99996 11.4627 4.53701 13.9998 7.66663 13.9998C10.7962 13.9998 13.3333 11.4627 13.3333 8.3331C13.3333 5.20349 10.7962 2.66643 7.66663 2.66643C7.03247 2.66643 6.41487 2.77039 5.83244 2.96941L6.62628 3.91547C6.6725 3.97055 6.69967 4.03909 6.70373 4.11087C6.71415 4.29467 6.57359 4.45212 6.38979 4.46253L3.14515 4.6464C3.11283 4.64823 3.08043 4.64535 3.04895 4.63784C2.86988 4.59513 2.75934 4.41533 2.80205 4.23626L3.55438 1.08217C3.57099 1.01257 3.60955 0.950159 3.66436 0.904165C3.80538 0.785831 4.01564 0.804226 4.13397 0.94525L4.92649 1.88974Z" fill="#B5B5C2"/>
</svg>
