<svg width="806" height="522" viewBox="0 0 806 522" fill="none" xmlns="http://www.w3.org/2000/svg">
<g clip-path="url(#clip0_356_4459)">
<path d="M806 449.281H0V449.683H806V449.281Z" fill="#EBEBEB"/>
<path d="M725.239 475.19H671.849V475.592H725.239V475.19Z" fill="#EBEBEB"/>
<path d="M533.927 479.57H519.918V479.972H533.927V479.57Z" fill="#EBEBEB"/>
<path d="M670.237 460.247H639.303V460.649H670.237V460.247Z" fill="#EBEBEB"/>
<path d="M154.188 462.952H84.5654V463.354H154.188V462.952Z" fill="#EBEBEB"/>
<path d="M178.755 462.952H168.551V463.354H178.755V462.952Z" fill="#EBEBEB"/>
<path d="M362.942 469.747H211.93V470.15H362.942V469.747Z" fill="#EBEBEB"/>
<path d="M382.044 377.463H70.7829C68.3445 377.459 66.0074 376.488 64.2847 374.764C62.562 373.04 61.5945 370.704 61.5945 368.268V-68.8054C61.5945 -71.2412 62.562 -73.5774 64.2847 -75.3013C66.0074 -77.0251 68.3445 -77.9957 70.7829 -78H382.044C384.485 -78 386.826 -77.0313 388.553 -75.307C390.279 -73.5826 391.249 -71.244 391.249 -68.8054V368.268C391.249 369.476 391.01 370.671 390.548 371.787C390.085 372.902 389.407 373.916 388.553 374.77C387.698 375.624 386.683 376.301 385.566 376.763C384.45 377.225 383.253 377.463 382.044 377.463ZM70.7829 -77.5974C68.4514 -77.5932 66.2168 -76.665 64.5697 -75.0166C62.9226 -73.3683 61.9975 -71.1344 61.9975 -68.8054V368.268C61.9975 370.597 62.9226 372.831 64.5697 374.479C66.2168 376.128 68.4514 377.056 70.7829 377.06H382.044C384.377 377.056 386.613 376.128 388.263 374.48C389.913 372.833 390.841 370.599 390.845 368.268V-68.8054C390.841 -71.1359 389.913 -73.3697 388.263 -75.0176C386.613 -76.6655 384.377 -77.5932 382.044 -77.5974H70.7829Z" fill="#EBEBEB"/>
<path d="M730.736 377.463H419.459C417.019 377.459 414.68 376.488 412.955 374.765C411.229 373.042 410.258 370.706 410.254 368.268V-68.8054C410.258 -71.2427 411.229 -73.5789 412.955 -75.3023C414.68 -77.0257 417.019 -77.9957 419.459 -78H730.736C733.171 -77.9915 735.504 -77.019 737.223 -75.2956C738.943 -73.5722 739.908 -71.2384 739.908 -68.8054V368.268C739.908 370.701 738.943 373.035 737.223 374.758C735.504 376.482 733.171 377.454 730.736 377.463ZM419.459 -77.5974C417.126 -77.5932 414.889 -76.6655 413.24 -75.0176C411.59 -73.3697 410.661 -71.1359 410.657 -68.8054V368.268C410.661 370.599 411.59 372.833 413.24 374.48C414.889 376.128 417.126 377.056 419.459 377.06H730.736C733.069 377.056 735.305 376.128 736.955 374.48C738.604 372.833 739.533 370.599 739.537 368.268V-68.8054C739.533 -71.1359 738.604 -73.3697 736.955 -75.0176C735.305 -76.6655 733.069 -77.5932 730.736 -77.5974H419.459Z" fill="#EBEBEB"/>
<path d="M578.724 215.97H542.776V231.251H578.724V215.97Z" fill="#FAFAFA"/>
<path d="M535.232 215.97H499.285V231.251H535.232V215.97Z" fill="#FAFAFA"/>
<path d="M491.741 215.97H455.793V231.251H491.741V215.97Z" fill="#FAFAFA"/>
<path d="M600.47 237.241H564.522V252.523H600.47V237.241Z" fill="#FAFAFA"/>
<path d="M556.978 237.241H521.031V252.523H556.978V237.241Z" fill="#FAFAFA"/>
<path d="M513.486 237.241H477.539V252.523H513.486V237.241Z" fill="#FAFAFA"/>
<path d="M469.995 237.241H434.047V252.523H469.995V237.241Z" fill="#FAFAFA"/>
<path d="M670.576 258.513H634.628V273.794H670.576V258.513Z" fill="#FAFAFA"/>
<path d="M627.084 258.513H591.136V273.794H627.084V258.513Z" fill="#FAFAFA"/>
<path d="M535.232 258.513H499.285V273.794H535.232V258.513Z" fill="#FAFAFA"/>
<path d="M491.741 258.513H455.793V273.794H491.741V258.513Z" fill="#FAFAFA"/>
<path d="M448.249 258.513H412.301V273.794H448.249V258.513Z" fill="#FAFAFA"/>
<path d="M648.83 279.768H612.882V295.049H648.83V279.768Z" fill="#FAFAFA"/>
<path d="M556.978 279.768H521.031V295.049H556.978V279.768Z" fill="#FAFAFA"/>
<path d="M513.486 279.768H477.539V295.049H513.486V279.768Z" fill="#FAFAFA"/>
<path d="M469.995 279.768H434.047V295.049H469.995V279.768Z" fill="#FAFAFA"/>
<path d="M300.332 -0.691223H264.384V14.5902H300.332V-0.691223Z" fill="#FAFAFA"/>
<path d="M256.84 -0.691223H220.892V14.5902H256.84V-0.691223Z" fill="#FAFAFA"/>
<path d="M322.077 20.5803H286.13V35.8617H322.077V20.5803Z" fill="#FAFAFA"/>
<path d="M278.586 20.5803H242.638V35.8617H278.586V20.5803Z" fill="#FAFAFA"/>
<path d="M191.603 20.5803H155.655V35.8617H191.603V20.5803Z" fill="#FAFAFA"/>
<path d="M148.111 20.5803H112.163V35.8617H148.111V20.5803Z" fill="#FAFAFA"/>
<path d="M256.84 41.8358H220.892V57.1172H256.84V41.8358Z" fill="#FAFAFA"/>
<path d="M652.763 123.782H616.816V139.063H652.763V123.782Z" fill="#FAFAFA"/>
<path d="M577.032 123.782H541.084V139.063H577.032V123.782Z" fill="#FAFAFA"/>
<path d="M674.525 145.054H638.578V160.335H674.525V145.054Z" fill="#FAFAFA"/>
<path d="M631.017 145.054H595.07V160.335H631.017V145.054Z" fill="#FAFAFA"/>
<path d="M259.919 102.317H223.971V117.599H259.919V102.317Z" fill="#FAFAFA"/>
<path d="M168.051 102.317H132.103V117.599H168.051V102.317Z" fill="#FAFAFA"/>
<path d="M281.665 123.589H245.717V138.87H281.665V123.589Z" fill="#FAFAFA"/>
<path d="M222.037 123.589H186.089V138.87H222.037V123.589Z" fill="#FAFAFA"/>
<path d="M652.763 166.309H616.816V181.59H652.763V166.309Z" fill="#FAFAFA"/>
<path d="M577.032 166.309H541.084V181.59H577.032V166.309Z" fill="#FAFAFA"/>
<path d="M169.856 41.8358H133.909V57.1172H169.856V41.8358Z" fill="#FAFAFA"/>
<path d="M679.12 -0.111572H643.172V15.1698H679.12V-0.111572Z" fill="#FAFAFA"/>
<path d="M635.628 -0.111572H599.68V15.1698H635.628V-0.111572Z" fill="#FAFAFA"/>
<path d="M657.374 21.1439H621.426V36.4253H657.374V21.1439Z" fill="#FAFAFA"/>
<path d="M484.277 0.226624H448.329V15.508H484.277V0.226624Z" fill="#FAFAFA"/>
<path d="M440.785 0.226624H404.838V15.508H440.785V0.226624Z" fill="#FAFAFA"/>
<path d="M506.023 21.4821H470.075V36.7635H506.023V21.4821Z" fill="#FAFAFA"/>
<path d="M462.531 21.4821H426.583V36.7635H462.531V21.4821Z" fill="#FAFAFA"/>
<path d="M419.04 21.4821H383.092V36.7635H419.04V21.4821Z" fill="#FAFAFA"/>
<path d="M527.769 42.7536H491.821V58.035H527.769V42.7536Z" fill="#FAFAFA"/>
<path d="M484.277 42.7536H448.329V58.035H484.277V42.7536Z" fill="#FAFAFA"/>
<path d="M440.785 42.7536H404.838V58.035H440.785V42.7536Z" fill="#FAFAFA"/>
<path d="M506.023 64.0091H470.075V79.2905H506.023V64.0091Z" fill="#FAFAFA"/>
<path d="M462.531 64.0091H426.583V79.2905H462.531V64.0091Z" fill="#FAFAFA"/>
<path d="M213.687 210.189H177.739V225.47H213.687V210.189Z" fill="#FAFAFA"/>
<path d="M170.179 210.189H134.231V225.47H170.179V210.189Z" fill="#FAFAFA"/>
<path d="M338.552 212.137H302.604V227.419H338.552V212.137Z" fill="#FAFAFA"/>
<path d="M235.433 231.46H199.485V246.742H235.433V231.46Z" fill="#FAFAFA"/>
<path d="M191.925 231.46H155.977V246.742H191.925V231.46Z" fill="#FAFAFA"/>
<path d="M360.298 233.409H324.35V248.69H360.298V233.409Z" fill="#FAFAFA"/>
<path d="M316.79 233.409H280.843V248.69H316.79V233.409Z" fill="#FAFAFA"/>
<path d="M432.21 164.651H396.262V179.932H432.21V164.651Z" fill="#FAFAFA"/>
<path d="M206.707 154.522H170.759V169.803H206.707V154.522Z" fill="#FAFAFA"/>
<path d="M383.189 89.2258H347.241V104.507H383.189V89.2258Z" fill="#FAFAFA"/>
<path d="M410.463 143.379H374.516V158.66H410.463V143.379Z" fill="#FAFAFA"/>
<path d="M453.955 143.379H418.008V158.66H453.955V143.379Z" fill="#FAFAFA"/>
<path d="M617.235 433.709H581.287V448.991H617.235V433.709Z" fill="#FAFAFA"/>
<path d="M638.981 412.438H603.033V427.719H638.981V412.438Z" fill="#FAFAFA"/>
<path d="M213.687 252.732H177.739V268.013H213.687V252.732Z" fill="#FAFAFA"/>
<path d="M170.179 252.732H134.231V268.013H170.179V252.732Z" fill="#FAFAFA"/>
<path d="M235.433 273.987H199.485V289.269H235.433V273.987Z" fill="#FAFAFA"/>
<path d="M191.925 273.987H155.977V289.269H191.925V273.987Z" fill="#FAFAFA"/>
<path d="M281.939 332.826H245.991V348.108H281.939V332.826Z" fill="#FAFAFA"/>
<path d="M238.447 332.826H202.499V348.108H238.447V332.826Z" fill="#FAFAFA"/>
<path d="M194.939 332.826H158.992V348.108H194.939V332.826Z" fill="#FAFAFA"/>
<path d="M151.447 332.826H115.5V348.108H151.447V332.826Z" fill="#FAFAFA"/>
<path d="M303.685 354.098H267.737V369.379H303.685V354.098Z" fill="#FAFAFA"/>
<path d="M260.193 354.098H224.245V369.379H260.193V354.098Z" fill="#FAFAFA"/>
<path d="M173.193 354.098H137.246V369.379H173.193V354.098Z" fill="#FAFAFA"/>
<path d="M325.43 375.354H289.483V390.635H325.43V375.354Z" fill="#FAFAFA"/>
<path d="M281.939 375.354H245.991V390.635H281.939V375.354Z" fill="#FAFAFA"/>
<path d="M238.447 375.354H202.499V390.635H238.447V375.354Z" fill="#FAFAFA"/>
<path d="M303.685 396.625H267.737V411.906H303.685V396.625Z" fill="#FAFAFA"/>
<path d="M260.193 396.625H224.245V411.906H260.193V396.625Z" fill="#FAFAFA"/>
<path d="M216.701 396.625H180.754V411.906H216.701V396.625Z" fill="#FAFAFA"/>
<path d="M576.177 331.844H540.229V347.126H576.177V331.844Z" fill="#FAFAFA"/>
<path d="M484.325 331.844H448.378V347.126H484.325V331.844Z" fill="#FAFAFA"/>
<path d="M440.834 331.844H404.886V347.126H440.834V331.844Z" fill="#FAFAFA"/>
<path d="M597.939 353.116H561.991V368.397H597.939V353.116Z" fill="#FAFAFA"/>
<path d="M506.071 353.116H470.124V368.397H506.071V353.116Z" fill="#FAFAFA"/>
<path d="M462.58 353.116H426.632V368.397H462.58V353.116Z" fill="#FAFAFA"/>
<path d="M419.088 353.116H383.14V368.397H419.088V353.116Z" fill="#FAFAFA"/>
<path d="M619.685 374.371H583.737V389.652H619.685V374.371Z" fill="#FAFAFA"/>
<path d="M576.177 374.371H540.229V389.652H576.177V374.371Z" fill="#FAFAFA"/>
<path d="M484.325 374.371H448.378V389.652H484.325V374.371Z" fill="#FAFAFA"/>
<path d="M440.834 374.371H404.886V389.652H440.834V374.371Z" fill="#FAFAFA"/>
<path d="M549.563 395.643H513.615V410.924H549.563V395.643Z" fill="#FAFAFA"/>
<path d="M506.071 395.643H470.124V410.924H506.071V395.643Z" fill="#FAFAFA"/>
<path d="M462.58 395.643H426.632V410.924H462.58V395.643Z" fill="#FAFAFA"/>
<path d="M419.088 395.643H383.14V410.924H419.088V395.643Z" fill="#FAFAFA"/>
<path d="M498.156 260.703H653.424V83.3L498.156 83.3V260.703Z" fill="#E0E0E0"/>
<path d="M498.447 260.703H647.734V83.3L498.447 83.3V260.703Z" fill="#E0E0E0"/>
<path d="M493.304 260.703H648.572V83.3L493.304 83.3V260.703Z" fill="#F0F0F0"/>
<path d="M500.365 252.555L641.802 252.555V88.9521L500.365 88.9521V252.555Z" fill="white"/>
<path d="M500.365 252.555H504.782V88.9521H500.365V252.555Z" fill="#E0E0E0"/>
<path d="M504.314 206.598V211.01H642.205V206.598H504.314Z" fill="#E0E0E0"/>
<path d="M500.365 206.598L644.171 206.598V199.191L500.365 199.191V206.598Z" fill="#F0F0F0"/>
<path d="M170.711 260.703H325.979V83.3L170.711 83.3L170.711 260.703Z" fill="#E0E0E0"/>
<path d="M171.017 260.703H320.304V83.3L171.017 83.3L171.017 260.703Z" fill="#E0E0E0"/>
<path d="M165.875 260.703H321.143V83.3L165.875 83.3L165.875 260.703Z" fill="#F0F0F0"/>
<path d="M172.919 252.555L314.356 252.555V88.9521L172.919 88.9521L172.919 252.555Z" fill="white"/>
<path d="M172.919 252.555H177.336L177.336 88.9521H172.919L172.919 252.555Z" fill="#E0E0E0"/>
<path d="M176.869 206.582V210.994H314.759V206.582H176.869Z" fill="#E0E0E0"/>
<path d="M172.919 206.598L316.726 206.598V199.191L172.919 199.191V206.598Z" fill="#F0F0F0"/>
<path d="M403 522C575.617 522 715.551 513.839 715.551 503.772C715.551 493.705 575.617 485.544 403 485.544C230.383 485.544 90.4492 493.705 90.4492 503.772C90.4492 513.839 230.383 522 403 522Z" fill="#F5F5F5"/>
<path d="M144.08 462.179C144.08 462.179 141.856 445.802 131.362 443.999C120.868 442.195 124.027 434.337 121.303 431.23C118.579 428.122 111.437 437.204 117.547 445.964C123.656 454.723 118.659 451.986 121.303 460.134C123.947 468.282 145.08 475.769 144.08 462.179Z" fill="#263238"/>
<path opacity="0.2" d="M144.08 462.179C144.08 462.179 141.856 445.802 131.362 443.999C120.868 442.195 124.027 434.337 121.303 431.23C118.579 428.122 111.437 437.204 117.547 445.964C123.656 454.723 118.659 451.986 121.303 460.134C123.947 468.282 145.08 475.769 144.08 462.179Z" fill="white"/>
<path d="M143.646 472.823C143.646 472.823 135.586 456.124 139.825 428.895C144.065 401.665 159.894 391.086 146.128 361.119C132.362 331.152 116.596 309.767 124.479 288.512" stroke="#263238" stroke-width="1.4868" stroke-linecap="round" stroke-linejoin="round"/>
<path d="M137.6 469.49C137.6 469.49 130.814 459.297 140.599 454.047C150.384 448.798 152.35 453.017 158.331 449.216C164.311 445.416 168.97 436.334 170.002 442.147C171.033 447.96 164.053 451.342 166.52 454.015C168.986 456.688 150.126 474.143 137.6 469.49Z" fill="#263238"/>
<path d="M121.593 297.03C121.593 297.03 115 276.983 130.024 276.548C145.048 276.113 128.476 294.889 121.593 297.03Z" fill="#263238"/>
<path d="M134.65 312.441C134.65 312.441 139.132 294.212 149.787 298.061C160.442 301.909 145.273 312.779 134.65 312.441Z" fill="#263238"/>
<path d="M116.564 314.019C116.564 314.019 118.176 299.526 106.892 299.188C95.6078 298.85 100.573 311.684 116.564 314.019Z" fill="#263238"/>
<path d="M124.124 343.712C124.124 343.712 108.939 330.186 103.474 340.25C98.0096 350.314 114.903 352.407 124.124 343.712Z" fill="#263238"/>
<path d="M150.948 341.313C150.948 341.313 153.801 318.849 166.068 325.902C178.336 332.955 161.635 343.551 150.948 341.313Z" fill="#263238"/>
<path d="M161.748 373.47C161.748 373.47 152.689 350.781 169.518 353.325C186.347 355.869 173.629 368.043 161.748 373.47Z" fill="#263238"/>
<path d="M135.924 381.569C135.924 381.569 121.722 364.822 110.857 370.136C99.9924 375.45 108.875 392.068 135.924 381.569Z" fill="#263238"/>
<path d="M148.82 418.605C148.82 418.605 160.926 391.762 171.694 400.892C182.462 410.023 164.827 423.388 148.82 418.605Z" fill="#263238"/>
<path d="M131.233 417.043C131.233 417.043 134.457 396.207 122.448 397.881C110.438 399.556 113.614 412.309 131.233 417.043Z" fill="#263238"/>
<g opacity="0.2">
<path d="M121.593 297.03C121.593 297.03 115 276.983 130.024 276.548C145.048 276.113 128.476 294.889 121.593 297.03Z" fill="white"/>
<path d="M134.65 312.441C134.65 312.441 139.132 294.212 149.787 298.061C160.442 301.909 145.273 312.779 134.65 312.441Z" fill="white"/>
<path d="M116.564 314.019C116.564 314.019 118.176 299.526 106.892 299.188C95.6078 298.85 100.573 311.684 116.564 314.019Z" fill="white"/>
<path d="M124.124 343.712C124.124 343.712 108.939 330.186 103.474 340.25C98.0096 350.314 114.903 352.407 124.124 343.712Z" fill="white"/>
<path d="M150.948 341.313C150.948 341.313 153.801 318.849 166.068 325.902C178.336 332.955 161.635 343.551 150.948 341.313Z" fill="white"/>
<path d="M161.748 373.47C161.748 373.47 152.689 350.781 169.518 353.325C186.347 355.869 173.629 368.043 161.748 373.47Z" fill="white"/>
<path d="M135.924 381.569C135.924 381.569 121.722 364.822 110.857 370.136C99.9924 375.45 108.875 392.068 135.924 381.569Z" fill="white"/>
<path d="M148.82 418.605C148.82 418.605 160.926 391.762 171.694 400.892C182.462 410.023 164.827 423.388 148.82 418.605Z" fill="white"/>
<path d="M131.233 417.043C131.233 417.043 134.457 396.207 122.448 397.881C110.438 399.556 113.614 412.309 131.233 417.043Z" fill="white"/>
</g>
<path d="M112.84 309.252C112.84 309.252 119.288 318.914 128.154 323.745C128.154 323.745 133.989 312.473 138.551 309.735" stroke="#263238" stroke-width="1.4868" stroke-linecap="round" stroke-linejoin="round"/>
<path d="M112.421 342.359C112.421 342.359 128.863 341.844 141.872 351.667C141.872 351.667 149.094 339.429 158.572 333.857" stroke="#263238" stroke-width="1.4868" stroke-linecap="round" stroke-linejoin="round"/>
<path d="M166.697 362.713C166.697 362.713 159.653 381.263 150.577 388.477C150.577 388.477 131.91 377.672 118.192 377.399" stroke="#263238" stroke-width="1.4868" stroke-linecap="round" stroke-linejoin="round"/>
<path d="M123.834 404.644C123.834 404.644 133.055 422.631 139.954 426.56C145.207 420.159 152.313 415.536 160.297 413.323" stroke="#263238" stroke-width="1.4868" stroke-linecap="round" stroke-linejoin="round"/>
<path d="M138.632 467.106C138.632 467.106 132.813 457.864 126.252 456.559C119.691 455.255 116.854 447.687 114.436 452.228C112.018 456.769 118.692 471.824 138.632 467.106Z" fill="#263238"/>
<path d="M114.952 503.385H163.441L166.681 464.272H111.712L114.952 503.385Z" fill="#3968BF"/>
<path d="M110.567 471.695H167.809L168.551 463.403H109.842L110.567 471.695Z" fill="#3968BF"/>
<path opacity="0.3" d="M110.567 471.695H167.809L168.551 463.403H109.842L110.567 471.695Z" fill="white"/>
<path d="M206.9 232.894C207.076 232.706 207.277 232.543 207.497 232.41L236.609 174.972L223.23 177.565L211.494 200.576C211.563 200.56 211.635 200.56 211.704 200.576C211.911 200.722 212.054 200.943 212.102 201.192C212.15 201.441 212.1 201.699 211.962 201.912C211.688 202.315 211.478 202.749 211.237 203.168C211.446 203.297 211.64 203.458 211.849 203.571C212.008 203.678 212.131 203.831 212.203 204.009C212.274 204.186 212.292 204.381 212.252 204.569C212.214 204.754 212.121 204.923 211.986 205.055C211.851 205.187 211.68 205.275 211.494 205.31L211.172 205.406H211.091H210.995C210.779 205.495 210.569 205.597 210.366 205.712L210.221 205.793L209.995 205.97C209.818 206.102 209.65 206.247 209.496 206.405L209.238 206.678L209.125 206.807L208.673 207.387C208.351 207.822 208.061 208.273 207.755 208.707C207.683 208.814 207.59 208.905 207.482 208.974C207.374 209.043 207.253 209.09 207.126 209.11L189.958 242.716L191.57 251.379L199.195 249.898C199.443 249.173 199.85 248.512 200.388 247.966C200.644 247.731 200.925 247.526 201.226 247.354C201.218 247.295 201.218 247.235 201.226 247.177C201.585 243.277 202.855 239.515 204.934 236.195C204.83 236.034 204.775 235.846 204.775 235.655C204.775 235.464 204.83 235.277 204.934 235.116C205.197 234.652 205.299 234.114 205.224 233.586C205.232 233.396 205.294 233.211 205.403 233.055C205.512 232.899 205.664 232.777 205.84 232.705C206.017 232.632 206.21 232.611 206.398 232.644C206.586 232.678 206.76 232.764 206.9 232.894Z" fill="#3968BF"/>
<path d="M257.049 227.757C257.033 227.998 256.967 228.234 256.856 228.449C256.37 229.378 255.595 230.124 254.648 230.575C254.454 230.848 254.245 231.122 254.067 231.412C253.958 231.554 253.814 231.666 253.648 231.734C253.59 231.881 253.542 232.032 253.503 232.185C253.412 232.424 253.233 232.62 253.002 232.73C252.771 232.841 252.506 232.859 252.262 232.781C252.023 232.69 251.828 232.51 251.72 232.278C251.611 232.047 251.598 231.782 251.681 231.541C251.84 230.988 252.045 230.449 252.294 229.931L251.375 230.108C251.123 230.15 250.865 230.094 250.654 229.949C250.444 229.805 250.298 229.585 250.247 229.335C250.222 229.267 250.222 229.193 250.247 229.125L249.683 229.222L246.039 210.43L234.401 212.685L238.044 231.476L209.238 237.064C209.044 237.161 208.867 237.306 208.673 237.402V237.547C208.781 237.776 208.796 238.039 208.715 238.279C208.634 238.519 208.463 238.718 208.238 238.835C208.032 238.932 207.799 238.954 207.579 238.898C207.358 238.843 207.164 238.712 207.029 238.529C206.492 238.985 206.001 239.492 205.562 240.043C205.765 239.997 205.977 240.019 206.166 240.105C206.355 240.19 206.51 240.336 206.609 240.518C206.708 240.701 206.744 240.91 206.712 241.115C206.68 241.32 206.582 241.509 206.433 241.653L205.659 242.297C205.757 242.46 205.809 242.647 205.809 242.837C205.809 243.027 205.757 243.213 205.659 243.376V243.505C205.65 243.564 205.65 243.624 205.659 243.682C205.659 243.908 205.659 244.149 205.659 244.391C205.621 244.822 205.433 245.227 205.127 245.534C204.775 245.836 204.345 246.032 203.886 246.098C203.886 246.098 203.886 246.098 203.773 246.098C203.818 246.573 203.888 247.046 203.982 247.515C204.202 247.957 204.375 248.421 204.498 248.899L239.785 242.072L243.863 263.376L255.889 261.057L251.762 239.769L268.221 236.549L266.157 225.905L257.049 227.757Z" fill="#3968BF"/>
<path d="M326.914 169.787L326.14 170.448C325.769 170.77 325.415 171.108 325.076 171.446C324.737 171.784 324.786 171.784 324.641 171.913V171.993L324.399 172.267C324.121 172.662 323.71 172.944 323.242 173.062C322.773 173.18 322.278 173.126 321.846 172.909C321.414 172.692 321.074 172.328 320.889 171.882C320.704 171.436 320.685 170.938 320.836 170.48L321.288 168.773C321.288 168.692 321.159 168.628 321.11 168.547C320.984 168.304 320.918 168.033 320.917 167.758C320.885 167.497 320.919 167.231 321.014 166.985C321.076 166.788 321.152 166.594 321.239 166.406C320.894 166.058 320.601 165.662 320.369 165.23V165.085C313.571 161.512 305.736 160.424 298.22 162.01C277.909 165.955 265.98 184.956 271.396 213.168C276.813 241.38 295.093 254.535 315.404 250.606C317.227 250.252 319.021 249.762 320.772 249.141C321.336 248.336 321.9 247.531 322.384 246.742C322.574 246.465 322.831 246.24 323.131 246.089C323.43 245.938 323.764 245.864 324.099 245.875C324.435 245.887 324.763 245.982 325.052 246.153C325.341 246.324 325.582 246.566 325.753 246.855C339.407 239.254 346.499 222.411 342.05 199.481C339.52 186.083 334.071 176.18 326.914 169.787ZM313.276 239.592C299.655 242.233 288.081 232.91 283.777 210.769C279.473 188.627 286.727 175.665 300.348 173.024C303.931 172.262 307.655 172.486 311.121 173.671C314.587 174.856 317.666 176.959 320.03 179.755C320.3 179.551 320.618 179.42 320.953 179.374C321.288 179.328 321.629 179.37 321.944 179.495C322.258 179.619 322.535 179.823 322.748 180.086C322.96 180.348 323.102 180.662 323.158 180.995C323.329 182.011 323.356 183.046 323.238 184.07C326.444 189.57 328.629 195.604 329.686 201.88C334.023 224.021 326.769 236.984 313.276 239.592Z" fill="#3968BF"/>
<path d="M415.171 197.146L411.528 178.338L399.873 180.592L403.532 199.4L370.212 205.841L402.081 142.928L388.702 145.521L376.724 168.966C376.612 171.893 376.018 174.782 374.967 177.517C374.894 177.697 374.768 177.852 374.605 177.961C374.443 178.07 374.252 178.129 374.057 178.129C373.861 178.129 373.67 178.07 373.508 177.961C373.346 177.852 373.22 177.697 373.146 177.517C372.82 180.011 371.648 182.319 369.825 184.054C369.706 184.165 369.559 184.24 369.399 184.272C369.24 184.303 369.074 184.289 368.922 184.231L355.365 210.768L356.977 219.432L377.031 215.551C378.738 214.186 380.761 213.272 382.915 212.894C384.803 212.452 386.731 212.193 388.669 212.121C390.124 212.016 391.585 212.13 393.006 212.459L405.16 210.108L409.287 231.38L421.296 229.061L417.17 207.773L433.644 204.553L431.581 193.909L415.171 197.146Z" fill="#3968BF"/>
<path d="M452.118 169.127L449.667 169.594C449.475 169.607 449.283 169.564 449.115 169.469C448.947 169.374 448.811 169.232 448.723 169.061C448.636 168.889 448.601 168.695 448.622 168.504C448.644 168.312 448.722 168.132 448.845 167.984L448.942 167.903C448.249 168.193 447.556 168.515 446.83 168.773C446.772 169.846 446.772 170.921 446.83 171.993L462.644 253.811L403.742 265.212C403.758 265.329 403.758 265.448 403.742 265.566C403.713 265.819 403.589 266.052 403.394 266.217C403.199 266.381 402.949 266.465 402.694 266.451C401.743 266.258 400.776 266.097 399.808 265.968L321.933 281.089C321.916 281.22 321.872 281.346 321.804 281.459C321.509 281.959 321.181 282.438 320.82 282.892C320.862 283.18 320.829 283.474 320.724 283.746C320.114 285.551 319.331 287.293 318.386 288.947C318.078 289.382 317.618 289.686 317.097 289.8C316.757 289.87 316.405 289.843 316.081 289.72C315.707 290.514 315.436 291.353 315.275 292.216L440.237 268.062C440.266 268.007 440.304 267.958 440.35 267.917C441.079 267.231 441.942 266.702 442.886 266.364C443.829 266.026 444.831 265.886 445.831 265.952C446.547 265.13 447.39 264.429 448.329 263.875C448.755 263.596 449.243 263.428 449.75 263.386C450.256 263.343 450.766 263.429 451.231 263.634C451.85 264 452.323 264.569 452.569 265.244C453.798 265.08 455.036 264.989 456.277 264.97L474.009 261.54L456.68 172.283C454.92 171.627 453.352 170.542 452.118 169.127Z" fill="#3968BF"/>
<path d="M290.579 52.4314L291.159 52.5602L302.814 50.2897L306.618 48.599C308.964 47.4964 311.484 46.8099 314.066 46.57C315.606 46.4914 317.146 46.7213 318.596 47.2463L418.83 27.8266L428.131 75.7319C428.235 75.5717 428.384 75.4458 428.56 75.3702C428.735 75.2947 428.929 75.2727 429.117 75.3072C429.305 75.3416 429.479 75.4309 429.616 75.5639C429.753 75.6968 429.848 75.8673 429.888 76.0539C430.429 78.1597 430.721 80.3214 430.759 82.495C430.708 83.5388 430.468 84.5646 430.049 85.5223L445.863 167.05C446.814 166.696 447.749 166.309 448.684 165.891C448.779 165.327 448.986 164.789 449.293 164.308C449.601 163.826 450.002 163.412 450.473 163.089C451.153 162.788 451.916 162.731 452.633 162.928C453.006 162.088 453.276 161.207 453.439 160.303C453.666 159.196 453.769 158.067 453.746 156.937L453.117 153.62C453.117 153.459 452.972 153.282 452.891 153.121C452.825 153 452.79 152.865 452.79 152.727C452.79 152.589 452.825 152.453 452.891 152.332L436.223 66.6178C436.127 66.6331 436.029 66.6331 435.933 66.6178C435.351 66.6799 434.762 66.5822 434.231 66.3354C433.7 66.0886 433.246 65.7019 432.919 65.2169C432.457 64.2732 432.315 63.2047 432.516 62.1735C432.677 60.9658 432.983 59.7903 433.225 58.5987C433.483 57.5458 433.559 56.4567 433.451 55.3782C433.413 55.1982 433.433 55.0109 433.508 54.8431C433.583 54.6753 433.71 54.5356 433.87 54.4442L426.487 16.4259L281.971 44.3801C279.287 45.9396 276.226 46.7359 273.121 46.6827C272.974 46.6735 272.832 46.6274 272.708 46.5485C272.584 46.4697 272.482 46.3607 272.412 46.2319L200.694 60.1445C200.657 60.3333 200.566 60.5072 200.431 60.6446C200.297 60.782 200.124 60.8769 199.936 60.9175L196.164 61.6582C196.144 62.2298 195.971 62.7855 195.665 63.2685C195.639 63.4932 195.53 63.7001 195.358 63.8481C195.107 64.0457 194.87 64.261 194.649 64.4922C194.214 64.8948 193.795 65.3296 193.343 65.716C193.193 65.8649 193.003 65.9658 192.795 66.0059C192.629 66.0339 192.458 66.0207 192.298 65.9673C192.137 65.914 191.993 65.8222 191.876 65.6999C191.709 65.4967 191.622 65.2385 191.635 64.9753C191.627 64.8896 191.627 64.8034 191.635 64.7177C191.054 64.7177 190.474 64.6372 189.91 64.5567C189.657 64.5321 189.424 64.4112 189.259 64.2192C189.094 64.0272 189.009 63.7789 189.023 63.5261C189.044 63.2725 189.164 63.0373 189.357 62.8715C189.55 62.7057 189.801 62.6227 190.055 62.6404C190.664 62.7287 191.277 62.7771 191.892 62.7854H192.376C192.446 62.7934 192.516 62.7934 192.586 62.7854C192.11 62.7121 191.676 62.4724 191.36 62.1091V61.9963L149.916 69.9832C150.109 69.9777 150.299 70.028 150.464 70.1282C150.672 70.2745 150.814 70.4954 150.862 70.7446C150.91 70.9937 150.86 71.2518 150.722 71.4647C150.39 71.906 150.017 72.3156 149.61 72.6885L149.497 72.8012C149.424 72.8804 149.359 72.9667 149.303 73.0588C149.303 73.0588 149.303 73.1716 149.303 73.236C149.296 73.284 149.296 73.3329 149.303 73.3809C149.296 73.4181 149.296 73.4565 149.303 73.4936C149.282 73.6592 149.22 73.8169 149.122 73.9523C149.024 74.0877 148.894 74.1964 148.743 74.2685C148.593 74.3405 148.426 74.3737 148.259 74.3649C148.093 74.3562 147.93 74.3057 147.788 74.2182L147.514 74.1216L147.208 74.025C147.212 74.4791 147.089 74.9253 146.853 75.3132C146.764 75.4513 146.639 75.562 146.491 75.6331C146.343 75.7042 146.178 75.7328 146.015 75.7158C145.786 76.5935 145.422 77.4302 144.935 78.1956C144.448 79.0241 143.788 79.7382 143 80.2889C143.16 80.4955 143.29 80.7231 143.387 80.9652L205.127 69.001V68.9044C205.394 68.4746 205.732 68.0934 206.126 67.7772C206.39 67.5794 206.696 67.4447 207.02 67.3832C207.344 67.3218 207.678 67.3354 207.996 67.4229C208.507 67.5788 208.983 67.8301 209.399 68.1636L289.338 52.689C289.483 52.5093 289.686 52.3854 289.912 52.3385C290.139 52.2915 290.374 52.3243 290.579 52.4314Z" fill="#3968BF"/>
<path d="M183.075 307.948L168.567 233.312C168.44 233.458 168.273 233.563 168.087 233.615C167.9 233.667 167.703 233.662 167.519 233.602C167.278 233.518 167.08 233.342 166.968 233.113C166.857 232.884 166.84 232.62 166.923 232.378C167.164 231.67 167.53 231.01 168.003 230.43L148.997 132.349L148.82 132.043C148.433 131.246 148.157 130.401 147.998 129.531C147.665 129.506 147.331 129.506 146.998 129.531C146.852 129.555 146.702 129.547 146.56 129.505C146.418 129.464 146.287 129.391 146.177 129.292C146.067 129.193 145.981 129.07 145.925 128.933C145.869 128.796 145.844 128.648 145.854 128.5C145.835 126.642 146.313 124.813 147.24 123.202L139.535 83.5256C139.406 83.314 139.293 83.0933 139.196 82.8654L138.809 82.1407C138.651 82.1367 138.497 82.0896 138.363 82.0044C138.23 81.9193 138.122 81.7994 138.052 81.6577C137.939 81.4266 137.921 81.1606 138.003 80.9168C138.084 80.6729 138.258 80.4706 138.487 80.3533C138.888 80.202 139.256 79.972 139.567 79.677C139.787 79.4212 139.966 79.1334 140.099 78.8236C140.355 78.1436 140.491 77.4245 140.502 76.6981C140.257 76.3722 140.081 75.9995 139.986 75.6031C139.911 75.0623 139.96 74.5115 140.131 73.9928C140.165 73.857 140.238 73.7339 140.341 73.6386C140.341 73.0267 140.244 72.4148 140.212 71.8029L127.88 74.1861L163.07 255.534C163.246 255.44 163.45 255.414 163.643 255.462C163.837 255.509 164.006 255.627 164.118 255.791C165.029 256.777 165.53 258.073 165.52 259.415C165.472 259.679 165.396 259.938 165.295 260.188C165.457 260.305 165.577 260.473 165.635 260.665C165.693 260.857 165.687 261.062 165.617 261.25C165.145 262.173 164.992 263.226 165.182 264.245C165.384 265.204 165.659 266.146 166.004 267.063C166.613 268.604 166.692 270.303 166.229 271.894L175.418 319.284L178.029 318.769C179.497 318.285 180.994 317.892 182.511 317.593C182.486 317.482 182.486 317.366 182.511 317.255C182.536 317.144 182.585 317.039 182.656 316.949C183.035 316.503 183.444 316.083 183.881 315.693C183.841 315.524 183.841 315.347 183.881 315.178C184.156 314.07 184.784 313.081 185.67 312.36C186.48 311.767 187.474 311.482 188.475 311.555C189.439 311.68 190.364 312.016 191.183 312.54C192.002 313.063 192.696 313.76 193.214 314.582C195.858 313.922 198.711 312.972 201.274 314.276L301.444 294.873C301.474 294.611 301.528 294.352 301.605 294.1C302.015 292.8 302.78 291.64 303.814 290.75C303.968 290.618 304.161 290.539 304.365 290.524C304.568 290.51 304.77 290.561 304.942 290.67C304.974 290.612 305.012 290.559 305.055 290.509C305.15 290.424 305.261 290.358 305.381 290.316C305.502 290.274 305.629 290.257 305.757 290.264C305.884 290.272 306.009 290.304 306.123 290.36C306.238 290.416 306.341 290.494 306.425 290.589C306.547 290.761 306.681 290.922 306.828 291.072C306.879 291.139 306.939 291.199 307.005 291.249C307.101 291.323 307.204 291.388 307.312 291.443L307.65 291.604C307.344 290.667 307.344 289.658 307.65 288.721C307.842 288.201 308.138 287.725 308.52 287.324C308.903 286.922 309.364 286.603 309.875 286.386C309.779 286.258 309.718 286.107 309.697 285.948C309.675 285.789 309.694 285.628 309.752 285.478C309.81 285.329 309.905 285.196 310.028 285.093C310.151 284.99 310.298 284.92 310.455 284.889C310.665 284.863 310.878 284.905 311.062 285.01C311.246 285.114 311.391 285.275 311.476 285.469C311.561 285.662 311.581 285.878 311.534 286.084C311.486 286.29 311.374 286.475 311.213 286.612C311.262 286.643 311.301 286.688 311.326 286.741C311.438 286.969 311.455 287.233 311.373 287.474C311.292 287.715 311.118 287.915 310.89 288.029L310.52 288.206L310.31 288.319H310.197C310.104 288.385 310.018 288.461 309.939 288.544L309.843 288.657C309.776 288.728 309.722 288.81 309.681 288.898V288.995C309.642 289.078 309.609 289.164 309.585 289.253C309.905 288.831 310.279 288.452 310.697 288.126C310.98 287.933 311.282 287.771 311.6 287.642C312.39 285.92 313.131 284.148 313.873 282.409L183.075 307.948Z" fill="#3968BF"/>
<path d="M312.357 343.422H381.254C383.127 343.422 384.981 343.791 386.711 344.507C388.441 345.223 390.013 346.273 391.336 347.597C392.66 348.92 393.709 350.492 394.424 352.22C395.139 353.949 395.506 355.802 395.504 357.673V381.827C395.506 383.697 395.139 385.55 394.424 387.279C393.709 389.008 392.66 390.579 391.336 391.903C390.013 393.226 388.441 394.276 386.711 394.992C384.981 395.709 383.127 396.078 381.254 396.078H335.473L314.517 418.46L325.801 396.078H312.293C308.509 396.078 304.881 394.576 302.205 391.904C299.53 389.231 298.027 385.606 298.027 381.827V357.673C298.027 355.796 298.398 353.937 299.119 352.204C299.84 350.471 300.896 348.897 302.228 347.573C303.559 346.249 305.14 345.201 306.878 344.488C308.616 343.776 310.478 343.413 312.357 343.422Z" fill="#3968BF"/>
<path opacity="0.7" d="M312.357 343.422H381.254C383.127 343.422 384.981 343.791 386.711 344.507C388.441 345.223 390.013 346.273 391.336 347.597C392.66 348.92 393.709 350.492 394.424 352.22C395.139 353.949 395.506 355.802 395.504 357.673V381.827C395.506 383.697 395.139 385.55 394.424 387.279C393.709 389.008 392.66 390.579 391.336 391.903C390.013 393.226 388.441 394.276 386.711 394.992C384.981 395.709 383.127 396.078 381.254 396.078H335.473L314.517 418.46L325.801 396.078H312.293C308.509 396.078 304.881 394.576 302.205 391.904C299.53 389.231 298.027 385.606 298.027 381.827V357.673C298.027 355.796 298.398 353.937 299.119 352.204C299.84 350.471 300.896 348.897 302.228 347.573C303.559 346.249 305.14 345.201 306.878 344.488C308.616 343.776 310.478 343.413 312.357 343.422Z" fill="white"/>
<path d="M315.726 368.413C315.665 366.788 316.092 365.181 316.951 363.799C317.811 362.417 319.064 361.323 320.55 360.658C322.036 359.992 323.687 359.785 325.292 360.064C326.896 360.342 328.381 361.093 329.555 362.22C330.73 363.347 331.54 364.799 331.883 366.389C332.226 367.979 332.085 369.636 331.479 371.146C330.873 372.656 329.829 373.95 328.482 374.863C327.134 375.777 325.544 376.267 323.915 376.271C322.854 376.322 321.793 376.155 320.798 375.782C319.803 375.41 318.895 374.838 318.128 374.102C317.362 373.367 316.753 372.483 316.34 371.505C315.928 370.527 315.719 369.475 315.726 368.413ZM329.864 368.413C329.876 367.228 329.536 366.065 328.885 365.074C328.234 364.082 327.303 363.306 326.209 362.845C325.116 362.384 323.91 362.258 322.744 362.484C321.579 362.71 320.508 363.277 319.666 364.113C318.824 364.949 318.251 366.017 318.019 367.179C317.786 368.342 317.905 369.548 318.361 370.642C318.817 371.737 319.588 372.672 320.577 373.327C321.566 373.983 322.728 374.329 323.915 374.323C324.7 374.347 325.482 374.211 326.213 373.923C326.943 373.635 327.607 373.202 328.164 372.648C328.721 372.095 329.159 371.434 329.451 370.706C329.743 369.978 329.884 369.198 329.864 368.413Z" fill="#3968BF"/>
<path d="M334.039 370.281C334.016 369.079 334.353 367.897 335.005 366.887C335.657 365.877 336.596 365.083 337.701 364.608C338.806 364.132 340.029 363.996 341.212 364.217C342.395 364.437 343.485 365.005 344.344 365.847C345.203 366.689 345.792 367.768 346.035 368.945C346.278 370.122 346.165 371.346 345.71 372.458C345.254 373.571 344.478 374.524 343.479 375.194C342.48 375.865 341.303 376.223 340.1 376.223C339.304 376.258 338.509 376.13 337.765 375.846C337.021 375.561 336.344 375.127 335.775 374.569C335.207 374.012 334.759 373.343 334.46 372.606C334.161 371.868 334.018 371.077 334.039 370.281ZM344.017 370.281C344.051 369.745 343.975 369.208 343.794 368.702C343.612 368.196 343.328 367.733 342.961 367.342C342.593 366.95 342.148 366.638 341.655 366.424C341.162 366.211 340.629 366.101 340.092 366.101C339.554 366.101 339.022 366.211 338.529 366.424C338.035 366.638 337.591 366.95 337.223 367.342C336.855 367.733 336.572 368.196 336.39 368.702C336.208 369.208 336.132 369.745 336.167 370.281C336.132 370.817 336.208 371.354 336.39 371.86C336.572 372.366 336.855 372.829 337.223 373.22C337.591 373.612 338.035 373.924 338.529 374.138C339.022 374.351 339.554 374.461 340.092 374.461C340.629 374.461 341.162 374.351 341.655 374.138C342.148 373.924 342.593 373.612 342.961 373.22C343.328 372.829 343.612 372.366 343.794 371.86C343.975 371.354 344.051 370.817 344.017 370.281Z" fill="#3968BF"/>
<path d="M361.088 370.281C361.129 371.067 361.006 371.852 360.725 372.587C360.445 373.323 360.014 373.991 359.46 374.551C358.907 375.11 358.242 375.547 357.509 375.835C356.776 376.123 355.991 376.255 355.204 376.223C354.427 376.25 353.653 376.094 352.948 375.766C352.242 375.439 351.623 374.95 351.142 374.339V380.361H349.03V364.468H351.045V366.304C351.532 365.67 352.164 365.163 352.887 364.824C353.611 364.485 354.406 364.324 355.204 364.355C355.99 364.321 356.775 364.45 357.508 364.737C358.241 365.023 358.906 365.459 359.46 366.017C360.014 366.575 360.445 367.243 360.725 367.977C361.006 368.711 361.129 369.496 361.088 370.281ZM358.96 370.281C358.922 369.517 358.661 368.781 358.209 368.164C357.757 367.547 357.134 367.075 356.417 366.808C355.699 366.541 354.919 366.489 354.173 366.66C353.427 366.831 352.747 367.217 352.218 367.769C351.688 368.322 351.333 369.017 351.195 369.769C351.057 370.522 351.143 371.298 351.442 372.002C351.74 372.706 352.239 373.307 352.877 373.731C353.514 374.155 354.261 374.383 355.027 374.387C355.566 374.407 356.102 374.313 356.602 374.111C357.101 373.91 357.553 373.606 357.927 373.218C358.301 372.831 358.589 372.369 358.773 371.863C358.957 371.357 359.031 370.818 358.993 370.281H358.96Z" fill="#3968BF"/>
<path d="M362.571 374.87L363.442 373.26C364.659 374.056 366.081 374.482 367.536 374.484C369.487 374.484 370.293 373.888 370.293 372.874C370.293 370.265 362.942 372.519 362.942 367.898C362.942 365.805 364.812 364.404 367.778 364.404C369.26 364.381 370.722 364.747 372.017 365.466L371.115 367.077C370.111 366.45 368.945 366.131 367.762 366.159C365.908 366.159 365.005 366.835 365.005 367.769C365.005 370.523 372.388 368.284 372.388 372.793C372.388 374.903 370.454 376.239 367.359 376.239C365.661 376.281 363.99 375.803 362.571 374.87Z" fill="#3968BF"/>
<path d="M374.564 374.822C374.564 374.634 374.602 374.448 374.676 374.275C374.749 374.101 374.857 373.945 374.992 373.814C375.127 373.683 375.288 373.581 375.464 373.514C375.639 373.446 375.827 373.415 376.015 373.421C376.387 373.421 376.744 373.569 377.007 373.831C377.27 374.094 377.418 374.45 377.418 374.822C377.418 375.194 377.27 375.55 377.007 375.813C376.744 376.075 376.387 376.223 376.015 376.223C375.827 376.229 375.639 376.198 375.464 376.131C375.288 376.063 375.127 375.961 374.992 375.83C374.857 375.699 374.749 375.543 374.676 375.37C374.602 375.196 374.564 375.01 374.564 374.822ZM374.758 360.732H377.208L376.789 371.247H375.177L374.758 360.732Z" fill="#3968BF"/>
<path d="M714.116 92.4142C714.116 97.6637 685.374 102.172 644.204 104.153L640.899 104.314L636.45 104.491C630.276 104.733 623.86 104.91 617.251 105.055H614.285H612.673C607.595 105.055 602.404 105.167 597.133 105.167C587.59 105.167 578.321 105.039 569.439 104.813L562.991 104.604C546.79 104.073 532.089 103.155 519.709 101.963C495.416 99.6121 480.086 96.1822 480.086 92.3015C480.086 86.5206 514.905 81.6576 562.798 80.0474L566.553 79.9186C569.896 79.8219 573.286 79.7414 576.725 79.677C580.868 79.677 585.091 79.5482 589.363 79.516H597.149C609.207 79.516 620.846 79.7092 631.791 80.0957L636.982 80.2728L643.736 80.5627L645.493 80.6593L649.991 80.8847C687.921 83.0264 714.116 87.4063 714.116 92.4142Z" fill="#263238"/>
<path opacity="0.4" d="M714.116 92.4142C714.116 97.6637 685.374 102.172 644.204 104.153L640.899 104.314L636.45 104.491C630.276 104.733 623.86 104.91 617.251 105.055H614.285H612.673C607.595 105.055 602.404 105.167 597.133 105.167C587.59 105.167 578.321 105.039 569.439 104.813L562.991 104.604C546.79 104.073 532.089 103.155 519.709 101.963C495.416 99.6121 480.086 96.1822 480.086 92.3015C480.086 90.5946 483.133 88.9521 488.662 87.4707C498.874 89.8608 509.253 91.4757 519.709 92.3015C532.089 93.4931 546.79 94.4109 562.991 94.9423L569.439 95.1517C578.321 95.3771 587.59 95.5059 597.133 95.5059C602.404 95.5059 607.595 95.5059 612.673 95.3932H614.285H617.251C623.86 95.2483 630.276 95.0711 636.45 94.8296L640.899 94.6525L644.204 94.4914C671.978 93.1549 694.079 90.6751 705.54 87.5834C710.989 89.081 714.116 90.6912 714.116 92.4142Z" fill="white"/>
<path d="M589.186 79.6287C589.069 81.5471 588.347 83.3791 587.123 84.8621C585.785 86.4723 584.64 87.6961 583.335 89.0327C582.561 89.8217 581.723 90.6429 580.997 91.3514C580.481 91.8828 579.949 92.382 579.385 92.8651C576.655 95.3839 573.769 97.7288 570.745 99.8858L570.213 100.256L568.81 101.19C566.879 102.48 564.865 103.642 562.782 104.668C562.008 105.055 561.17 105.425 560.396 105.779C558.465 106.591 556.477 107.259 554.448 107.776C552.642 108.259 550.917 108.678 549.209 109.032C546.807 109.564 544.372 110.047 542.067 110.481C537.667 111.335 533.282 112.092 528.865 112.736C525.109 113.299 521.353 113.831 517.581 114.346C514.55 114.716 511.52 115.038 508.457 115.296C508.12 115.337 507.779 115.337 507.442 115.296C506.421 115.157 505.478 114.674 504.769 113.928C504.06 113.181 503.626 112.215 503.541 111.19C503.524 110.986 503.524 110.782 503.541 110.578C503.581 109.687 503.887 108.828 504.418 108.112C504.949 107.395 505.682 106.852 506.523 106.552L506.91 106.423C511.085 104.926 515.276 103.509 519.483 102.14L525.851 100.079C532.299 97.9857 538.747 96.0212 545.017 93.944C546.629 93.4287 548.128 92.8973 549.563 92.3337C550.799 91.9247 551.988 91.3848 553.11 90.7234C553.835 90.3048 554.56 89.8378 555.302 89.3386C556.927 88.2475 558.493 87.0703 559.993 85.8121C562.121 84.057 564.248 82.1246 566.328 80.1118C569.67 80.0152 573.061 79.9347 576.5 79.8703C580.691 79.7092 584.914 79.6609 589.186 79.6287Z" fill="#FFB573"/>
<path d="M589.379 86.1342C589.267 86.4724 589.138 86.7944 589.009 87.1165C588.88 87.4385 588.735 87.7606 588.573 88.0826C588.432 88.3984 588.27 88.705 588.09 89.0005L587.558 89.9183C587.193 90.4873 586.806 91.0241 586.397 91.5286C585.962 92.0922 585.511 92.6397 585.027 93.1389L584.576 93.638C583.874 94.3873 583.132 95.097 582.351 95.7636C582.093 96.0051 581.819 96.2306 581.545 96.4399C581.451 96.535 581.349 96.6213 581.239 96.6975C578.822 98.6238 576.232 100.322 573.501 101.77L572.518 102.269L571.551 102.752L571.18 102.913L570.003 101.883L569.004 100.981L566.747 98.9841L555.463 89.0488L554.609 88.292C554.609 88.292 558.058 84.4434 562.669 79.9508L566.425 79.822C569.767 79.7254 573.157 79.6449 576.596 79.5805C580.739 79.5805 584.963 79.4516 589.234 79.4194H590.169C590.413 81.6885 590.143 83.9833 589.379 86.1342Z" fill="#3968BF"/>
<path opacity="0.7" d="M589.396 86.1342C589.283 86.468 589.154 86.7958 589.009 87.1165C588.88 87.4385 588.735 87.7606 588.573 88.0826C588.432 88.3984 588.27 88.705 588.09 89.0005L587.558 89.9183C587.193 90.4873 586.806 91.0241 586.397 91.5286C585.962 92.0922 585.511 92.6397 585.027 93.1389L584.576 93.638C583.874 94.3873 583.132 95.097 582.351 95.7636C582.093 96.0051 581.819 96.2306 581.545 96.4399C581.451 96.535 581.349 96.6213 581.239 96.6975C578.822 98.6238 576.232 100.322 573.501 101.77L572.518 102.269L571.551 102.752L571.18 102.913L570.003 101.883L569.004 100.981L566.747 98.9841L555.463 89.0488L554.609 88.292C554.609 88.292 558.058 84.4434 562.669 79.9508L566.425 79.822C569.767 79.7254 573.157 79.6449 576.596 79.5805C580.739 79.5805 584.963 79.4516 589.234 79.4194H590.185C590.43 81.6885 590.16 83.9834 589.396 86.1342Z" fill="white"/>
<path opacity="0.1" d="M581.126 96.8907C578.022 99.3688 574.628 101.461 571.019 103.122L566.586 99.129C568.927 92.2152 573.14 86.0843 578.756 81.4161C580.723 85.2324 581.368 93.0422 581.126 96.8907Z" fill="black"/>
<path d="M508.231 106.504L493.272 104.218L493.385 117.454C493.385 117.454 503.637 120.513 509.069 113.573L508.231 106.504Z" fill="#EBB376"/>
<path d="M483.068 107.792L485.534 117.631L493.369 117.454L493.256 104.218L483.068 107.792Z" fill="#EBB376"/>
<path d="M643.559 80.6432C643.43 80.9813 643.285 81.3195 643.156 81.6738C642.769 82.656 642.398 83.6544 642.044 84.6528C641.818 85.2647 641.608 85.8766 641.399 86.5046C641.189 87.1326 640.963 87.7606 640.77 88.3886C640.174 90.2565 639.593 92.1405 639.029 94.0567C639.01 94.1605 638.983 94.2628 638.948 94.3626C638.336 96.4882 637.788 98.662 637.256 100.804V101.077C636.982 102.205 636.692 103.332 636.434 104.475C636.305 104.99 636.192 105.49 636.079 106.085C635.644 108.066 635.225 110.063 634.838 112.043C634.693 112.784 634.548 113.525 634.419 114.249C634.29 114.974 634.112 115.86 633.984 116.552C633.984 116.713 633.983 116.874 633.903 117.035C633.822 117.454 633.742 117.872 633.677 118.291C633.468 119.467 633.274 120.626 633.081 121.769C633.081 121.946 633.081 122.107 633 122.285L632.807 123.492C632.42 125.843 632.081 128.146 631.775 130.384C631.767 130.513 631.767 130.642 631.775 130.771C631.437 133.234 631.146 135.601 630.888 137.904C630.776 138.854 630.663 139.788 630.566 140.706C630.421 141.994 630.292 143.234 630.179 144.442C630.082 145.327 630.002 146.197 629.921 147.034C629.841 147.872 629.776 148.645 629.712 149.337C629.647 150.029 629.583 150.818 629.518 151.511C629.357 153.475 629.228 155.247 629.115 156.776C629.115 157.453 629.035 158.065 628.986 158.644C628.857 160.786 628.793 162.284 628.761 162.96C628.761 163.234 628.761 163.378 628.761 163.378L600.18 160.754H599.761L594.925 160.303L587.655 159.627L578.708 158.709L576.596 158.516L565.909 157.533C565.909 156.519 565.812 155.537 565.796 154.538C565.796 154.264 565.796 153.991 565.796 153.717C565.49 144.925 565.651 136.857 566.118 129.563C566.376 125.741 566.709 122.107 567.118 118.661C567.698 113.702 568.423 109.145 569.246 104.942C569.423 103.992 569.616 103.058 569.81 102.156C569.939 101.528 570.068 100.933 570.213 100.337C571.294 95.5038 572.629 90.7309 574.211 86.0376C574.984 83.7832 575.823 81.7382 576.516 79.8864C580.659 79.8864 584.882 79.7575 589.154 79.7253H596.94C608.997 79.7253 620.636 79.9186 631.582 80.305L636.772 80.4822L643.559 80.6432Z" fill="#3968BF"/>
<path opacity="0.7" d="M643.559 80.6432C643.43 80.9813 643.285 81.3195 643.156 81.6738C642.769 82.656 642.398 83.6544 642.044 84.6528C641.818 85.2647 641.608 85.8766 641.399 86.5046C641.189 87.1326 640.963 87.7606 640.77 88.3886V88.5013C640.174 90.337 639.626 92.1727 639.077 94.0567C639.058 94.1605 639.031 94.2628 638.997 94.3626C638.223 97.1001 637.498 99.8858 636.821 102.688C636.676 103.283 636.547 103.895 636.418 104.491C636.289 105.087 636.176 105.506 636.063 106.101C635.628 108.082 635.209 110.079 634.822 112.059C634.661 112.8 634.515 113.541 634.387 114.282C634.241 115.038 634.096 115.892 633.967 116.568C633.967 116.729 633.967 116.906 633.871 117.067C633.79 117.486 633.709 117.905 633.645 118.323C633.435 119.499 633.242 120.658 633.049 121.802C633.049 121.979 633.049 122.14 632.968 122.317L632.774 123.524C632.404 125.875 632.049 128.178 631.743 130.416C631.735 130.545 631.735 130.674 631.743 130.803C631.404 133.267 631.114 135.634 630.856 137.936C630.743 138.886 630.631 139.82 630.534 140.738C630.389 142.026 630.26 143.266 630.147 144.474C630.05 145.36 629.97 146.229 629.889 147.067C629.808 147.904 629.744 148.677 629.679 149.369C629.615 150.062 629.55 150.851 629.486 151.543C629.325 153.508 629.196 155.279 629.083 156.809C629.083 157.485 629.002 158.097 628.954 158.677C628.825 160.818 628.761 162.316 628.728 162.992C628.728 163.266 628.728 163.411 628.728 163.411L600.148 160.786H599.728L594.892 160.335L587.622 159.659L578.708 158.709L576.596 158.516L565.909 157.533C565.909 156.519 565.812 155.537 565.796 154.538C565.796 154.264 565.796 153.991 565.796 153.717C565.49 144.925 565.651 136.857 566.118 129.563C566.376 125.741 566.709 122.107 567.118 118.661C567.698 113.702 568.423 109.145 569.246 104.942C569.423 103.992 569.616 103.058 569.81 102.156C569.939 101.528 570.068 100.933 570.213 100.337C571.294 95.5038 572.629 90.7309 574.211 86.0376C574.984 83.7832 575.823 81.7382 576.516 79.8864C580.659 79.8864 584.882 79.7575 589.154 79.7253H596.94C608.997 79.7253 620.636 79.9186 631.582 80.305L636.772 80.4822L643.559 80.6432Z" fill="white"/>
<path d="M489.242 294.373C489.242 294.373 509.424 286.064 510.085 277.707C510.092 277.508 510.141 277.314 510.228 277.135C510.315 276.956 510.438 276.797 510.59 276.668C510.741 276.54 510.918 276.444 511.109 276.387C511.299 276.33 511.5 276.314 511.697 276.338L527.076 277.272C527.439 277.299 527.789 277.424 528.087 277.634C528.385 277.844 528.62 278.131 528.768 278.464L534.926 292.683L530.654 293.262L528.865 291.314L527.253 293.713C504.105 296.934 494.078 297.996 489.306 297.191C488.436 295.227 489.242 294.373 489.242 294.373Z" fill="black"/>
<path d="M583.689 210.736L582.319 210.414L509.779 201.348L531.347 278.094L509.392 280.187C509.392 280.187 459.291 183.571 479.763 169.707C500.236 155.842 563.716 171.172 563.716 171.172L566.215 152.058L629.325 156.744C639.464 219.77 592.394 212.572 583.689 210.736Z" fill="#263238"/>
<path d="M562.781 432.453C562.781 432.453 584.511 430.376 587.59 422.582C587.652 422.399 587.752 422.23 587.882 422.086C588.013 421.943 588.171 421.827 588.348 421.747C588.525 421.667 588.716 421.624 588.91 421.621C589.104 421.618 589.297 421.655 589.476 421.729L603.984 427.107C604.32 427.238 604.616 427.457 604.84 427.74C605.063 428.023 605.208 428.36 605.258 428.717L606.998 444.096L602.743 443.419L601.582 441.036L599.39 442.872C576.338 439.168 566.408 437.316 562.088 435.142C561.685 432.985 562.781 432.453 562.781 432.453Z" fill="black"/>
<path d="M629.953 179.642C629.857 180.029 627.229 192.106 623.796 209.4C623.602 210.398 623.409 211.413 623.199 212.443C621.587 220.672 619.814 229.915 618.073 239.576C615.945 251.315 613.833 263.73 612.06 275.437C609.661 290.102 608.1 304.892 607.385 319.735C606.547 357.029 604.984 430.666 604.984 430.666L584.882 427.445C584.882 427.445 573.775 348.945 573.904 310.911C574.001 286.757 579.998 237 584.092 206.05C586.155 190.157 587.735 179.223 587.735 179.223L610.513 179.417L629.953 179.642Z" fill="#263238"/>
<path d="M628.374 162.895L629.712 162.992L629.647 158.644L628.47 158.564L628.374 162.895Z" fill="#263238"/>
<path d="M578.756 159.047L605.677 161.14L605.806 156.809L578.982 154.731L578.756 159.047Z" fill="#263238"/>
<path d="M576.903 154.57L565.522 153.701L565.119 157.984L576.645 158.886L576.903 154.57Z" fill="#263238"/>
<path d="M626.391 158.403L607.869 156.97L607.788 161.301L626.246 162.734L626.391 158.403Z" fill="#263238"/>
<g opacity="0.2">
<path d="M628.374 162.895L629.712 162.992L629.647 158.644L628.471 158.564L628.374 162.895Z" fill="white"/>
<path d="M578.756 159.047L605.677 161.14L605.806 156.809L578.982 154.731L578.756 159.047Z" fill="white"/>
<path d="M576.903 154.57L565.522 153.701L565.119 157.984L576.645 158.886L576.903 154.57Z" fill="white"/>
<path d="M626.391 158.403L607.869 156.97L607.789 161.301L626.246 162.734L626.391 158.403Z" fill="white"/>
</g>
<path d="M587.171 156.181L587.074 158.821C587.065 159.021 587.134 159.217 587.266 159.367C587.399 159.517 587.584 159.61 587.783 159.627L594.505 160.255C594.613 160.263 594.721 160.25 594.824 160.215C594.926 160.181 595.02 160.125 595.1 160.053C595.18 159.981 595.245 159.892 595.289 159.794C595.334 159.696 595.358 159.59 595.36 159.482V156.744C595.364 156.545 595.291 156.351 595.156 156.204C595.021 156.057 594.834 155.968 594.634 155.955L587.961 155.44C587.759 155.44 587.565 155.516 587.419 155.654C587.272 155.791 587.183 155.98 587.171 156.181Z" stroke="white" stroke-width="1.20596" stroke-miterlimit="10"/>
<path d="M592.426 157.839L594.473 158.049" stroke="white" stroke-width="1.20596" stroke-linecap="round" stroke-linejoin="round"/>
<path opacity="0.1" d="M638.948 94.2982C638.175 97.0356 637.449 99.8214 636.772 102.623C636.514 103.734 636.256 104.845 636.015 105.956C634.806 111.415 633.774 116.89 632.92 122.172L632.726 123.38C621.652 126.938 610.158 124.491 610.529 113.831C611.061 99.5476 623.248 92.8973 623.248 92.8973C628.68 89.9988 634.37 91.1904 638.948 94.2982Z" fill="black"/>
<path d="M530.606 503.385H545.517L497.028 120.626H482.117L530.606 503.385Z" fill="#263238"/>
<path opacity="0.4" d="M530.606 503.385H545.517L497.028 120.626H482.117L530.606 503.385Z" fill="white"/>
<path d="M499.43 177.372H546.839C547.429 177.34 547.999 177.141 548.481 176.799C548.963 176.457 549.338 175.986 549.563 175.439L552.577 168.998H493.691L496.705 175.439C496.93 175.986 497.305 176.457 497.788 176.799C498.27 177.141 498.839 177.34 499.43 177.372Z" fill="#263238"/>
<path opacity="0.4" d="M499.43 177.372H546.839C547.429 177.34 547.999 177.141 548.481 176.799C548.963 176.457 549.338 175.986 549.563 175.439L552.577 168.998H493.691L496.705 175.439C496.93 175.986 497.305 176.457 497.788 176.799C498.27 177.141 498.839 177.34 499.43 177.372Z" fill="white"/>
<path d="M494.481 172.106H551.771C553.472 172.106 554.85 170.729 554.85 169.031V168.338C554.85 166.64 553.472 165.263 551.771 165.263H494.481C492.78 165.263 491.402 166.64 491.402 168.338V169.031C491.402 170.729 492.78 172.106 494.481 172.106Z" fill="#263238"/>
<path opacity="0.1" d="M494.481 172.106H551.771C553.472 172.106 554.85 170.729 554.85 169.031V168.338C554.85 166.64 553.472 165.263 551.771 165.263H494.481C492.78 165.263 491.402 166.64 491.402 168.338V169.031C491.402 170.729 492.78 172.106 494.481 172.106Z" fill="white"/>
<path d="M508.086 232.072H555.479C556.071 232.046 556.643 231.85 557.126 231.507C557.61 231.165 557.983 230.69 558.203 230.14L561.218 223.699H502.347L505.346 230.14C505.568 230.691 505.945 231.166 506.431 231.509C506.917 231.852 507.492 232.047 508.086 232.072Z" fill="#263238"/>
<path opacity="0.4" d="M508.086 232.072H555.479C556.071 232.046 556.643 231.85 557.126 231.507C557.61 231.165 557.983 230.69 558.203 230.14L561.218 223.699H502.347L505.346 230.14C505.568 230.691 505.945 231.166 506.431 231.509C506.917 231.852 507.492 232.047 508.086 232.072Z" fill="white"/>
<path d="M503.137 226.807H560.428C562.128 226.807 563.507 225.43 563.507 223.731V223.039C563.507 221.34 562.128 219.963 560.428 219.963H503.137C501.437 219.963 500.058 221.34 500.058 223.039V223.731C500.058 225.43 501.437 226.807 503.137 226.807Z" fill="#263238"/>
<path opacity="0.1" d="M503.137 226.807H560.428C562.128 226.807 563.507 225.43 563.507 223.731V223.039C563.507 221.34 562.128 219.963 560.428 219.963H503.137C501.437 219.963 500.058 221.34 500.058 223.039V223.731C500.058 225.43 501.437 226.807 503.137 226.807Z" fill="white"/>
<path d="M516.726 304.502H564.2C564.793 304.473 565.366 304.276 565.851 303.934C566.337 303.592 566.714 303.118 566.94 302.569L569.939 296.128H511.004L514.018 302.569C514.239 303.116 514.611 303.588 515.09 303.93C515.57 304.273 516.138 304.471 516.726 304.502Z" fill="#263238"/>
<path opacity="0.4" d="M516.726 304.502H564.2C564.793 304.473 565.366 304.276 565.851 303.934C566.337 303.592 566.714 303.118 566.94 302.569L569.939 296.128H511.004L514.018 302.569C514.239 303.116 514.611 303.588 515.09 303.93C515.57 304.273 516.138 304.471 516.726 304.502Z" fill="white"/>
<path d="M511.778 299.22H569.068C570.768 299.22 572.147 297.843 572.147 296.145V295.452C572.147 293.754 570.768 292.377 569.068 292.377H511.778C510.077 292.377 508.699 293.754 508.699 295.452V296.145C508.699 297.843 510.077 299.22 511.778 299.22Z" fill="#263238"/>
<path opacity="0.1" d="M511.778 299.22H569.068C570.768 299.22 572.147 297.843 572.147 296.145V295.452C572.147 293.754 570.768 292.377 569.068 292.377H511.778C510.077 292.377 508.699 293.754 508.699 295.452V296.145C508.699 297.843 510.077 299.22 511.778 299.22Z" fill="white"/>
<path d="M525.367 376.932H572.776C573.366 376.9 573.936 376.701 574.418 376.359C574.9 376.017 575.275 375.546 575.5 374.999L578.514 368.558H519.628L522.642 374.999C522.867 375.546 523.242 376.017 523.725 376.359C524.207 376.701 524.776 376.9 525.367 376.932Z" fill="#263238"/>
<path opacity="0.4" d="M525.367 376.932H572.776C573.366 376.9 573.936 376.701 574.418 376.359C574.9 376.017 575.275 375.546 575.5 374.999L578.514 368.558H519.628L522.642 374.999C522.867 375.546 523.242 376.017 523.725 376.359C524.207 376.701 524.776 376.9 525.367 376.932Z" fill="white"/>
<path d="M520.418 371.65H577.709C579.409 371.65 580.788 370.273 580.788 368.574V367.882C580.788 366.183 579.409 364.806 577.709 364.806H520.418C518.718 364.806 517.339 366.183 517.339 367.882V368.574C517.339 370.273 518.718 371.65 520.418 371.65Z" fill="#263238"/>
<path opacity="0.1" d="M520.418 371.65H577.709C579.409 371.65 580.788 370.273 580.788 368.574V367.882C580.788 366.183 579.409 364.806 577.709 364.806H520.418C518.718 364.806 517.339 366.183 517.339 367.882V368.574C517.339 370.273 518.718 371.65 520.418 371.65Z" fill="white"/>
<path d="M534.023 449.361H581.416C582.008 449.333 582.579 449.136 583.062 448.794C583.544 448.451 583.919 447.978 584.14 447.429L587.155 440.988H528.268L531.283 447.429C531.509 447.978 531.886 448.451 532.372 448.793C532.857 449.135 533.43 449.332 534.023 449.361Z" fill="#263238"/>
<path opacity="0.4" d="M534.023 449.361H581.416C582.008 449.333 582.579 449.136 583.062 448.794C583.544 448.451 583.919 447.978 584.14 447.429L587.155 440.988H528.268L531.283 447.429C531.509 447.978 531.886 448.451 532.372 448.793C532.857 449.135 533.43 449.332 534.023 449.361Z" fill="white"/>
<path d="M529.058 444.079H586.349C588.049 444.079 589.428 442.702 589.428 441.004V440.311C589.428 438.613 588.049 437.236 586.349 437.236H529.058C527.358 437.236 525.98 438.613 525.98 440.311V441.004C525.98 442.702 527.358 444.079 529.058 444.079Z" fill="#263238"/>
<path opacity="0.1" d="M529.058 444.079H586.349C588.049 444.079 589.428 442.702 589.428 441.004V440.311C589.428 438.613 588.049 437.236 586.349 437.236H529.058C527.358 437.236 525.98 438.613 525.98 440.311V441.004C525.98 442.702 527.358 444.079 529.058 444.079Z" fill="white"/>
<path d="M588.17 503.385H603.081L554.592 120.626H539.681L588.17 503.385Z" fill="#263238"/>
<path opacity="0.7" d="M588.17 503.385H603.081L554.592 120.626H539.681L588.17 503.385Z" fill="white"/>
<path d="M431.629 503.385H416.718L465.191 120.626H480.102L431.629 503.385Z" fill="#263238"/>
<path opacity="0.4" d="M431.629 503.385H416.718L465.191 120.626H480.102L431.629 503.385Z" fill="white"/>
<path d="M520.353 177.372H472.961C472.367 177.343 471.794 177.146 471.309 176.804C470.824 176.461 470.446 175.988 470.22 175.439L467.222 168.998H526.092L523.078 175.439C522.856 175.988 522.482 176.462 521.999 176.804C521.516 177.147 520.945 177.344 520.353 177.372Z" fill="#263238"/>
<path opacity="0.5" d="M520.353 177.372H472.961C472.367 177.343 471.794 177.146 471.309 176.804C470.824 176.461 470.446 175.988 470.22 175.439L467.222 168.998H526.092L523.078 175.439C522.856 175.988 522.482 176.462 521.999 176.804C521.516 177.147 520.945 177.344 520.353 177.372Z" fill="white"/>
<path d="M525.302 165.246H468.012C466.312 165.246 464.933 166.623 464.933 168.322V169.014C464.933 170.713 466.312 172.09 468.012 172.09H525.302C527.003 172.09 528.381 170.713 528.381 169.014V168.322C528.381 166.623 527.003 165.246 525.302 165.246Z" fill="#263238"/>
<path opacity="0.2" d="M525.302 165.246H468.012C466.312 165.246 464.933 166.623 464.933 168.322V169.014C464.933 170.713 466.312 172.09 468.012 172.09H525.302C527.003 172.09 528.381 170.713 528.381 169.014V168.322C528.381 166.623 527.003 165.246 525.302 165.246Z" fill="white"/>
<path d="M511.713 232.072H464.256C463.664 232.044 463.093 231.847 462.61 231.505C462.127 231.162 461.753 230.689 461.532 230.14L458.517 223.699H517.452L514.437 230.14C514.216 230.689 513.842 231.162 513.359 231.505C512.876 231.847 512.305 232.044 511.713 232.072Z" fill="#263238"/>
<path opacity="0.5" d="M511.713 232.072H464.256C463.664 232.044 463.093 231.847 462.61 231.505C462.127 231.162 461.753 230.689 461.532 230.14L458.517 223.699H517.452L514.437 230.14C514.216 230.689 513.842 231.162 513.359 231.505C512.876 231.847 512.305 232.044 511.713 232.072Z" fill="white"/>
<path d="M516.662 219.963H459.372C457.671 219.963 456.293 221.34 456.293 223.039V223.731C456.293 225.43 457.671 226.807 459.372 226.807H516.662C518.363 226.807 519.741 225.43 519.741 223.731V223.039C519.741 221.34 518.363 219.963 516.662 219.963Z" fill="#263238"/>
<path opacity="0.2" d="M516.662 219.963H459.372C457.671 219.963 456.293 221.34 456.293 223.039V223.731C456.293 225.43 457.671 226.807 459.372 226.807H516.662C518.363 226.807 519.741 225.43 519.741 223.731V223.039C519.741 221.34 518.363 219.963 516.662 219.963Z" fill="white"/>
<path d="M503.057 304.502H455.664C455.072 304.474 454.501 304.277 454.018 303.934C453.535 303.592 453.161 303.118 452.94 302.569L449.925 296.128H508.795L505.797 302.569C505.571 303.118 505.194 303.592 504.708 303.934C504.223 304.276 503.65 304.473 503.057 304.502Z" fill="#263238"/>
<path opacity="0.5" d="M503.057 304.502H455.664C455.072 304.474 454.501 304.277 454.018 303.934C453.535 303.592 453.161 303.118 452.94 302.569L449.925 296.128H508.795L505.797 302.569C505.571 303.118 505.194 303.592 504.708 303.934C504.223 304.276 503.65 304.473 503.057 304.502Z" fill="white"/>
<path d="M508.006 292.393H450.715C449.015 292.393 447.636 293.77 447.636 295.468V296.161C447.636 297.859 449.015 299.236 450.715 299.236H508.006C509.706 299.236 511.084 297.859 511.084 296.161V295.468C511.084 293.77 509.706 292.393 508.006 292.393Z" fill="#263238"/>
<path opacity="0.2" d="M508.006 292.393H450.715C449.015 292.393 447.636 293.77 447.636 295.468V296.161C447.636 297.859 449.015 299.236 450.715 299.236H508.006C509.706 299.236 511.084 297.859 511.084 296.161V295.468C511.084 293.77 509.706 292.393 508.006 292.393Z" fill="white"/>
<path d="M494.416 376.932H447.024C446.433 376.892 445.865 376.69 445.382 376.349C444.899 376.009 444.519 375.541 444.283 374.999L441.285 368.558H500.155L497.141 374.999C496.919 375.548 496.545 376.022 496.062 376.364C495.579 376.707 495.008 376.904 494.416 376.932Z" fill="#263238"/>
<path opacity="0.5" d="M494.416 376.932H447.024C446.433 376.892 445.865 376.69 445.382 376.349C444.899 376.009 444.519 375.541 444.283 374.999L441.285 368.558H500.155L497.141 374.999C496.919 375.548 496.545 376.022 496.062 376.364C495.579 376.707 495.008 376.904 494.416 376.932Z" fill="white"/>
<path d="M499.365 364.822H442.075C440.374 364.822 438.996 366.199 438.996 367.898V368.59C438.996 370.289 440.374 371.666 442.075 371.666H499.365C501.066 371.666 502.444 370.289 502.444 368.59V367.898C502.444 366.199 501.066 364.822 499.365 364.822Z" fill="#263238"/>
<path opacity="0.2" d="M499.365 364.822H442.075C440.374 364.822 438.996 366.199 438.996 367.898V368.59C438.996 370.289 440.374 371.666 442.075 371.666H499.365C501.066 371.666 502.444 370.289 502.444 368.59V367.898C502.444 366.199 501.066 364.822 499.365 364.822Z" fill="white"/>
<path d="M485.776 449.361H438.367C437.777 449.329 437.207 449.131 436.725 448.789C436.243 448.447 435.868 447.975 435.643 447.429L432.628 440.988H491.515L488.5 447.429C488.279 447.978 487.905 448.451 487.422 448.794C486.939 449.136 486.368 449.333 485.776 449.361Z" fill="#263238"/>
<path opacity="0.5" d="M485.776 449.361H438.367C437.777 449.329 437.207 449.131 436.725 448.789C436.243 448.447 435.868 447.975 435.643 447.429L432.628 440.988H491.515L488.5 447.429C488.279 447.978 487.905 448.451 487.422 448.794C486.939 449.136 486.368 449.333 485.776 449.361Z" fill="white"/>
<path d="M490.725 437.252H433.435C431.734 437.252 430.356 438.629 430.356 440.328V441.02C430.356 442.719 431.734 444.096 433.435 444.096H490.725C492.425 444.096 493.804 442.719 493.804 441.02V440.328C493.804 438.629 492.425 437.252 490.725 437.252Z" fill="#263238"/>
<path opacity="0.2" d="M490.725 437.252H433.435C431.734 437.252 430.356 438.629 430.356 440.328V441.02C430.356 442.719 431.734 444.096 433.435 444.096H490.725C492.425 444.096 493.804 442.719 493.804 441.02V440.328C493.804 438.629 492.425 437.252 490.725 437.252Z" fill="white"/>
<path d="M489.177 503.385H474.266L522.755 120.626H537.666L489.177 503.385Z" fill="#263238"/>
<path opacity="0.7" d="M489.177 503.385H474.266L522.755 120.626H537.666L489.177 503.385Z" fill="white"/>
<path d="M556.978 122.59H462.483C461.89 122.559 461.318 122.359 460.835 122.014C460.353 121.669 459.979 121.193 459.758 120.642L456.744 114.201H562.717L559.718 120.642C559.495 121.194 559.118 121.67 558.633 122.016C558.147 122.361 557.573 122.56 556.978 122.59Z" fill="#263238"/>
<path opacity="0.5" d="M556.978 122.59H462.483C461.89 122.559 461.318 122.359 460.835 122.014C460.353 121.669 459.979 121.193 459.758 120.642L456.744 114.201H562.717L559.718 120.642C559.495 121.194 559.118 121.67 558.633 122.016C558.147 122.361 557.573 122.56 556.978 122.59Z" fill="white"/>
<path d="M561.927 110.465H457.55C455.85 110.465 454.471 111.842 454.471 113.541V114.233C454.471 115.932 455.85 117.309 457.55 117.309H561.927C563.627 117.309 565.006 115.932 565.006 114.233V113.541C565.006 111.842 563.627 110.465 561.927 110.465Z" fill="#263238"/>
<path opacity="0.2" d="M561.927 110.465H457.55C455.85 110.465 454.471 111.842 454.471 113.541V114.233C454.471 115.932 455.85 117.309 457.55 117.309H561.927C563.627 117.309 565.006 115.932 565.006 114.233V113.541C565.006 111.842 563.627 110.465 561.927 110.465Z" fill="white"/>
<path d="M563.587 120.98L551.191 112.269L545.388 124.169C545.388 124.169 553.19 131.479 561.153 127.679L563.587 120.98Z" fill="#EBB376"/>
<path d="M540.487 110.932L538.295 120.819L545.388 124.169L551.191 112.269L540.487 110.932Z" fill="#EBB376"/>
<path d="M648.33 93.4609C645.896 97.2129 643.414 100.804 640.818 104.314C638.868 106.907 636.869 109.467 634.773 111.979C634.145 112.752 633.5 113.589 632.855 114.266C631.581 115.731 630.292 117.196 628.938 118.645C627.326 120.449 625.504 122.22 623.618 123.959L622.538 124.925C621.13 126.226 619.65 127.447 618.105 128.581C615.806 130.302 613.285 131.705 610.609 132.751C609.818 133.059 609.004 133.307 608.175 133.492C607.385 133.685 606.708 133.782 605.983 133.911C604.705 134.085 603.419 134.192 602.13 134.233C599.696 134.313 597.423 134.233 595.183 134.12C590.733 133.879 586.446 133.283 582.206 132.655C576.79 131.801 571.47 130.739 566.199 129.434C564.248 128.983 562.314 128.484 560.379 127.969L557.301 127.115C556.319 126.828 555.465 126.216 554.879 125.378C554.293 124.541 554.01 123.529 554.077 122.51C554.099 122.184 554.153 121.86 554.238 121.544C554.469 120.707 554.94 119.956 555.593 119.384C556.246 118.812 557.053 118.443 557.913 118.323C558.186 118.291 558.462 118.291 558.735 118.323H558.816H559.944L567.247 118.565C572.679 118.758 578.095 118.903 583.367 118.984C587.413 119.064 591.427 118.984 595.311 118.855C597.246 118.855 599.132 118.613 600.841 118.372C602.12 118.282 603.375 117.971 604.548 117.454C605.684 116.829 606.748 116.084 607.724 115.232C608.691 114.394 609.707 113.46 610.706 112.446C610.996 112.172 611.27 111.882 611.544 111.592C612.109 111.013 612.657 110.401 613.156 109.789C614.543 108.275 615.881 106.697 617.219 105.071C617.815 104.33 618.428 103.589 619.024 102.833C621.926 99.1774 624.811 95.3288 627.6 91.4481C629.502 88.8234 631.372 86.1665 633.177 83.5578L633.274 83.3968C634.14 82.094 635.336 81.0438 636.74 80.3534L643.494 80.6432L645.251 80.7399C645.436 80.8409 645.613 80.9539 645.783 81.078C647.735 82.4072 649.092 84.4429 649.568 86.7541C650.043 89.0654 649.599 91.4708 648.33 93.4609Z" fill="#FFB573"/>
<path d="M644.123 104.153C641.078 108.546 637.664 112.672 633.919 116.488C632.92 117.518 631.856 118.581 630.695 119.708L628.89 118.694L613.076 109.805L611.609 108.984C611.609 108.984 612.641 107.454 614.172 105.135C616.09 102.237 618.815 98.0985 621.346 94.2016C623.312 91.1421 625.15 88.2275 626.359 86.1503C627.702 83.849 629.475 81.8265 631.582 80.1923L636.772 80.3695L643.527 80.6593L645.284 80.7559L649.781 80.9814C651.861 85.7799 651.409 93.3965 644.123 104.153Z" fill="#3968BF"/>
<path opacity="0.7" d="M644.123 104.153C641.078 108.546 637.664 112.672 633.919 116.488C632.92 117.518 631.856 118.581 630.695 119.708L628.89 118.694L613.076 109.805L611.609 108.984C611.609 108.984 612.641 107.454 614.172 105.135C616.09 102.237 618.815 98.0985 621.346 94.2016C623.312 91.1421 625.15 88.2275 626.359 86.1503C627.702 83.849 629.475 81.8265 631.582 80.1923L636.772 80.3695L643.527 80.6593L645.284 80.7559L649.781 80.9814C651.861 85.7799 651.409 93.3965 644.123 104.153Z" fill="white"/>
<path d="M408.384 503.112C408.392 503.203 408.392 503.294 408.384 503.385C408.391 503.428 408.391 503.472 408.384 503.514C408.365 503.597 408.338 503.678 408.303 503.756C408.257 503.864 408.197 503.967 408.126 504.062C408.056 504.177 407.975 504.284 407.884 504.384C407.123 505.124 406.225 505.709 405.241 506.107L404.451 506.445C403.677 506.767 402.839 507.073 401.823 507.379C401.211 507.572 400.566 507.749 399.873 507.942C388.589 510.986 366.907 513.433 339.648 514.786L336.424 514.947L331.137 515.172L325.705 515.366L321.949 515.495C318.966 515.575 315.952 515.656 312.889 515.704H311.777H309.697H307.682C304.861 515.704 302.008 515.784 299.139 515.801H291.353C281.939 515.801 272.767 515.688 263.949 515.446L260.048 515.317C258.919 515.317 257.791 515.317 256.679 515.221L251.488 515.044L244.734 514.754L242.977 514.657L238.479 514.432C231.08 514.013 224.132 513.53 217.749 512.95C202.467 511.598 190.345 509.843 182.849 507.814L182.204 507.636L181.495 507.427C180.286 507.073 179.238 506.703 178.271 506.348C177.933 506.203 177.61 506.075 177.32 505.93C176.838 505.705 176.37 505.452 175.918 505.173C175.764 505.084 175.618 504.982 175.482 504.867L175.128 504.593L174.789 504.255C174.699 504.161 174.618 504.059 174.547 503.949C174.429 503.778 174.341 503.587 174.289 503.385V503.208C174.281 503.133 174.281 503.058 174.289 502.983C174.289 497.733 203.031 493.225 244.202 491.244L247.506 491.083L251.956 490.906L258.79 490.664L262.482 490.552L271.155 490.342H271.622H274.121H275.813C278.36 490.342 280.923 490.342 283.519 490.262H284.292C286.63 490.262 288.983 490.262 291.353 490.262C300.896 490.262 310.165 490.391 319.047 490.616L325.495 490.825L328.235 490.922H328.509L331.508 491.035H333.474L338.568 491.26L343.404 491.502C352.625 492.001 361.136 492.629 368.809 493.37C393.054 495.849 408.384 499.279 408.384 503.112Z" fill="#263238"/>
<path opacity="0.4" d="M174.257 503.128C174.257 497.878 202.999 493.369 244.17 491.389L247.474 491.228L251.923 491.051C258.097 490.809 264.513 490.632 271.122 490.487H274.088H275.781C280.859 490.407 286.049 490.374 291.321 490.374C300.864 490.374 310.133 490.503 319.015 490.729L325.463 490.938C341.663 491.469 356.365 492.387 368.745 493.579C393.038 495.93 408.368 499.36 408.368 503.24C408.368 504.947 405.321 506.59 399.792 508.071C389.58 505.681 379.201 504.066 368.745 503.24C356.365 502.049 341.663 501.131 325.463 500.6L319.015 500.39C310.133 500.165 300.864 500.036 291.321 500.036C286.049 500.036 280.859 500.036 275.781 500.149H274.04H271.074C264.465 500.294 258.049 500.471 251.875 500.712L247.426 500.889L244.121 501.05C216.347 502.387 194.246 504.867 182.865 507.958C177.32 506.525 174.257 504.915 174.257 503.128Z" fill="white"/>
<path d="M281.471 497.17C280.585 498.233 279.763 499.15 278.941 500.036C278.521 500.471 278.118 500.906 277.683 501.34C276.909 502.129 276.152 502.951 275.362 503.659C274.846 504.174 274.314 504.674 273.75 505.173C271.019 507.696 268.127 510.042 265.093 512.193L264.578 512.548C264.126 512.87 263.659 513.176 263.175 513.498C262.16 514.174 261.112 514.834 259.951 515.446C258.823 515.446 257.694 515.446 256.582 515.35L251.391 515.172L244.637 514.883L242.88 514.786L238.383 514.561C230.984 514.142 224.036 513.659 217.652 513.079L220.167 512.274C226.615 510.181 233.063 508.216 239.35 506.155C240.962 505.624 242.461 505.108 243.896 504.545C245.132 504.136 246.321 503.596 247.442 502.934C248.151 502.516 248.893 502.049 249.634 501.55C250.021 501.292 250.424 501.018 250.827 500.712C251.988 499.891 253.149 498.973 254.293 498.023C256.614 496.123 258.887 494.03 261.144 491.856L262.353 490.664C263.078 489.972 263.788 489.279 264.481 488.555L267.705 485.334L267.898 485.125C268.871 484.115 270.063 483.343 271.382 482.868C272.702 482.393 274.113 482.229 275.507 482.388C277.54 482.62 279.434 483.535 280.877 484.983C282.321 486.431 283.23 488.327 283.454 490.358C283.596 491.568 283.494 492.795 283.153 493.965C282.813 495.135 282.241 496.224 281.471 497.17Z" fill="#FFB573"/>
<path d="M277.86 478.7C268.866 478.491 248.844 500.825 248.844 500.825L265.367 515.43C265.367 515.43 280.133 509.07 283.712 498.474C287.291 487.879 277.86 478.7 277.86 478.7Z" fill="#3968BF"/>
<path opacity="0.7" d="M283.712 498.474C282.002 502.749 279.139 506.466 275.442 509.215C272.336 511.694 268.943 513.792 265.335 515.462L260.902 511.533L248.812 500.841C248.812 500.841 268.817 478.507 277.828 478.716C277.86 478.7 287.371 487.846 283.712 498.474Z" fill="white"/>
<path opacity="0.1" d="M275.491 509.198C272.384 511.678 268.991 513.776 265.384 515.446L260.951 511.517C263.292 504.603 267.505 498.473 273.121 493.804C275.088 497.556 275.733 505.366 275.491 509.198Z" fill="black"/>
<path d="M339.987 488.104C339.89 488.313 339.793 488.507 339.713 488.716C339.455 489.28 339.213 489.843 338.971 490.423C338.826 490.722 338.697 491.028 338.584 491.341C338.551 491.402 338.524 491.467 338.504 491.534C338.385 491.774 338.283 492.021 338.198 492.275C337.923 492.919 337.666 493.579 337.408 494.255C337.15 494.932 336.779 495.865 336.473 496.799C336.473 496.799 336.473 496.88 336.473 496.912C336.247 497.524 336.037 498.136 335.828 498.764C335.618 499.392 335.393 500.02 335.199 500.648C335.192 500.712 335.192 500.777 335.199 500.841C335.006 501.421 334.812 502.001 334.635 502.58C334.264 503.804 333.893 505.028 333.539 506.284L333.442 506.622C332.668 509.36 331.943 512.145 331.266 514.947C331.258 515.006 331.258 515.065 331.266 515.124L325.833 515.317L322.078 515.446C319.095 515.527 316.081 515.607 313.018 515.656H311.906H309.826H307.811C304.99 515.656 302.137 515.736 299.268 515.752H291.482C282.068 515.752 272.895 515.64 264.078 515.398L264.32 514.206C264.32 513.949 264.432 513.707 264.497 513.466C264.561 513.224 264.594 512.983 264.658 512.741C264.691 512.624 264.718 512.506 264.739 512.387C265.459 509.166 266.211 506.23 266.995 503.579C267.286 502.645 267.544 501.759 267.818 500.873C267.914 500.6 267.995 500.326 268.092 500.052C268.301 499.392 268.511 498.764 268.72 498.152L269.059 497.17C269.236 496.671 269.413 496.171 269.591 495.704C269.768 495.237 269.994 494.593 270.187 494.094C270.381 493.595 270.542 493.176 270.719 492.742L271.686 490.407C272.428 488.635 273.153 487.09 273.83 485.721C273.959 485.495 274.072 485.254 274.185 485.028L274.862 483.724L275.652 482.291C275.701 482.219 275.744 482.144 275.781 482.066C276.055 481.566 276.329 481.116 276.571 480.729L277.199 479.731L277.957 478.636C282.741 478.179 287.549 478.023 292.352 478.169C293.368 478.169 294.399 478.249 295.447 478.314C296.495 478.378 297.446 478.475 298.542 478.603C300.847 478.861 303.378 479.215 306.07 479.65L311.132 480.52C312.825 480.826 314.501 481.132 316.113 481.454L316.967 481.631C318.241 481.872 319.482 482.13 320.627 482.372C321.417 482.533 322.239 482.71 322.98 482.903C323.383 482.999 323.77 483.08 324.157 483.193L325.334 483.483C326.801 483.853 328.251 484.256 329.622 484.642L330.96 485.045L333.458 485.817L335.651 486.526C338.149 487.347 339.81 487.959 340.051 488.04L339.987 488.104Z" fill="#3968BF"/>
<path opacity="0.7" d="M340.003 488.104C339.906 488.313 339.81 488.507 339.729 488.716C339.471 489.28 339.213 489.843 338.987 490.423C338.837 490.734 338.708 491.04 338.601 491.341C338.594 491.405 338.594 491.47 338.601 491.534C338.482 491.774 338.38 492.021 338.294 492.275C338.02 492.919 337.762 493.579 337.504 494.255C337.246 494.932 336.86 495.865 336.569 496.799C336.569 496.799 336.569 496.88 336.569 496.912C336.344 497.524 336.134 498.136 335.925 498.764C335.715 499.392 335.489 500.02 335.296 500.648V500.761C335.288 500.787 335.288 500.815 335.296 500.841C335.103 501.421 334.909 502.001 334.732 502.58C334.361 503.804 333.99 505.028 333.636 506.284L333.539 506.622C332.765 509.36 332.04 512.145 331.363 514.947C331.355 515.006 331.355 515.065 331.363 515.124L325.93 515.317L322.174 515.446C319.192 515.527 316.178 515.607 313.115 515.656H312.003H309.923H307.908C305.087 515.656 302.234 515.736 299.365 515.752H291.579C282.164 515.752 272.992 515.64 264.175 515.398L264.416 514.222C264.529 513.707 264.626 513.224 264.739 512.741C264.772 512.624 264.798 512.506 264.819 512.387C265.539 509.166 266.292 506.23 267.076 503.579C267.366 502.645 267.624 501.759 267.898 500.873C267.995 500.6 268.076 500.326 268.172 500.052C268.382 499.392 268.591 498.764 268.801 498.152L269.14 497.17C269.317 496.671 269.494 496.171 269.671 495.704C269.849 495.237 270.074 494.593 270.268 494.094C270.461 493.595 270.623 493.176 270.8 492.742L271.767 490.407C272.509 488.635 273.234 487.09 273.895 485.721C274.024 485.495 274.137 485.254 274.25 485.028L274.927 483.724L275.716 482.291C275.765 482.219 275.809 482.144 275.845 482.066L276.635 480.729L277.264 479.731L278.022 478.636C282.805 478.179 287.613 478.023 292.417 478.169C293.432 478.169 294.464 478.249 295.512 478.314C296.56 478.378 297.511 478.475 298.607 478.603C300.912 478.861 303.443 479.215 306.135 479.65L311.197 480.52C312.889 480.826 314.566 481.132 316.178 481.454L317.032 481.631C318.306 481.872 319.547 482.13 320.691 482.372C321.481 482.533 322.303 482.71 323.045 482.903C323.448 482.999 323.835 483.08 324.222 483.193L325.398 483.466C326.865 483.837 328.316 484.239 329.686 484.642L331.024 485.045L333.523 485.817L335.715 486.526C338.214 487.347 339.874 487.959 340.116 488.04L340.003 488.104Z" fill="white"/>
<path d="M310.842 459.023C310.842 459.023 311.342 476.156 312.97 478.684C314.598 481.212 320.482 482.42 320.482 482.42C320.482 482.42 306.344 489.441 299.735 488.12C293.126 486.8 289.95 478.169 289.95 478.169C289.95 478.169 294.561 478.362 295.689 477.718C296.818 477.074 294.803 465.754 294.803 465.754L310.842 459.023Z" fill="#EBB376"/>
<path opacity="0.2" d="M296.157 470.005C296.157 470.005 295.576 470.858 295.576 470.842C295.222 468.185 294.802 465.754 294.802 465.754L310.826 459.023C310.826 459.023 311.245 472.823 312.438 477.492C305.958 478.169 298.381 473.37 296.157 470.005Z" fill="black"/>
<path d="M305.361 430.247C309.746 432.534 316.016 439.909 309.149 442.373C302.282 444.836 297.833 426.334 305.361 430.247Z" fill="#263238"/>
<path d="M285.872 458.733C289.228 462.843 292.892 466.692 296.834 470.246C299.66 472.644 303.13 474.156 306.812 474.594C319.708 476.204 328.058 462.485 322.851 451.165C322.255 449.865 321.582 448.601 320.836 447.381C315.178 438.073 304.297 428.299 293.529 431.487C290.815 432.289 288.349 433.766 286.362 435.779C284.375 437.792 282.931 440.275 282.166 442.997C281.402 445.719 281.34 448.59 281.988 451.342C282.636 454.094 283.973 456.637 285.872 458.733Z" fill="#EBB376"/>
<path d="M291.176 457.976L291.772 459.828C292.903 463.54 294.635 467.043 296.898 470.198C299.724 472.595 303.195 474.108 306.876 474.546C319.772 476.156 328.123 462.436 322.916 451.116C322.32 449.816 321.647 448.553 320.901 447.332C320.901 447.332 321.868 451.857 321.03 453.983C321.03 453.983 316.194 452.743 313.808 454.723C313.808 454.723 308.682 453.322 304.329 458.749C302.348 460.059 299.995 460.693 297.623 460.553C295.252 460.414 292.989 459.509 291.176 457.976Z" fill="#263238"/>
<path opacity="0.5" d="M291.176 457.976L291.772 459.828C292.903 463.54 294.635 467.043 296.898 470.198C299.724 472.595 303.195 474.108 306.876 474.546C319.772 476.156 328.123 462.436 322.916 451.116C322.32 449.816 321.647 448.553 320.901 447.332C320.901 447.332 321.868 451.857 321.03 453.983C321.03 453.983 316.194 452.743 313.808 454.723C313.808 454.723 308.682 453.322 304.329 458.749C302.348 460.059 299.995 460.693 297.623 460.553C295.252 460.414 292.989 459.509 291.176 457.976Z" fill="white"/>
<path d="M272.428 452.71C266.576 447.88 272.122 440.714 278.247 438.299C278.909 438.037 279.473 437.575 279.859 436.978L287.129 448.121C286.468 448.443 285.808 448.749 285.179 448.991C285.179 448.991 293.674 456.495 292.852 463.966C280.988 467.251 269.542 461.148 272.428 452.71Z" fill="#263238"/>
<path d="M288.435 469.57C289.68 470.415 291.081 471.003 292.557 471.299C294.032 471.594 295.552 471.592 297.027 471.293C297.333 471.293 297.607 471.148 297.865 471.067C300.316 468.781 293.029 460.681 292.691 460.262C291.912 460.021 291.089 459.953 290.282 460.065C289.474 460.176 288.7 460.463 288.016 460.907C287.326 461.417 286.773 462.09 286.406 462.865C286.038 463.64 285.868 464.493 285.909 465.35C285.95 466.207 286.203 467.04 286.643 467.776C287.084 468.512 287.699 469.128 288.435 469.57Z" fill="#EBB376"/>
<path d="M302.347 449.925C302.943 450.697 303.846 451.003 304.362 450.601C304.878 450.198 304.781 449.232 304.168 448.459C303.556 447.686 302.653 447.38 302.153 447.783C301.654 448.185 301.734 449.152 302.347 449.925Z" fill="#263238"/>
<path d="M311.116 442.952C311.713 443.725 312.615 444.031 313.131 443.629C313.647 443.226 313.55 442.26 312.938 441.487C312.325 440.714 311.422 440.408 310.923 440.811C310.423 441.213 310.455 442.115 311.116 442.952Z" fill="#263238"/>
<path d="M308.585 445.545C311.336 447.083 314.287 448.232 317.354 448.958C316.967 451.245 314.13 452.517 314.13 452.517L308.585 445.545Z" fill="#D58745"/>
<path d="M298.881 443.918C298.792 443.972 298.718 444.047 298.667 444.138C298.616 444.228 298.59 444.33 298.591 444.434C298.601 445.164 298.44 445.886 298.121 446.543C297.802 447.2 297.333 447.774 296.753 448.218C296.628 448.306 296.541 448.437 296.508 448.586C296.475 448.735 296.499 448.891 296.576 449.023C296.661 449.151 296.793 449.24 296.943 449.273C297.093 449.306 297.25 449.28 297.382 449.2C298.133 448.642 298.739 447.912 299.149 447.072C299.558 446.231 299.76 445.304 299.735 444.369C299.735 444.218 299.676 444.073 299.571 443.965C299.466 443.857 299.322 443.794 299.171 443.79C299.064 443.803 298.963 443.848 298.881 443.918Z" fill="#263238"/>
<path d="M312.486 436.64C312.58 436.581 312.649 436.489 312.68 436.383C312.733 436.237 312.727 436.077 312.664 435.936C312.601 435.794 312.485 435.683 312.341 435.626C311.484 435.301 310.561 435.185 309.649 435.289C308.738 435.393 307.865 435.712 307.102 436.221C306.98 436.317 306.9 436.456 306.879 436.609C306.858 436.763 306.898 436.918 306.989 437.043C307.034 437.104 307.09 437.156 307.155 437.195C307.221 437.234 307.293 437.26 307.368 437.271C307.444 437.281 307.52 437.276 307.594 437.257C307.667 437.237 307.736 437.202 307.795 437.155C308.403 436.755 309.098 436.506 309.822 436.43C310.546 436.354 311.277 436.454 311.954 436.721C312.042 436.756 312.138 436.767 312.231 436.753C312.325 436.738 312.413 436.7 312.486 436.64Z" fill="#263238"/>
<path d="M314.082 463.048C314.388 462.936 314.695 462.775 315.001 462.63L315.791 456.285C315.791 456.285 315.404 456.285 314.807 456.285C312.809 456.285 308.359 456.736 307.167 459.007C307.039 459.27 306.936 459.545 306.86 459.828C306.559 460.851 306.634 461.947 307.07 462.92C307.795 464.369 309.73 465.077 314.082 463.048Z" fill="#263238"/>
<path d="M306.86 459.908L314.614 457.106L314.807 456.366C312.809 456.366 308.36 456.816 307.167 459.087C307.039 459.351 306.937 459.625 306.86 459.908Z" fill="white"/>
<path d="M314.082 463.048C312.728 460.794 309.117 461.953 307.07 462.936C307.795 464.369 309.73 465.077 314.082 463.048Z" fill="#DE5753"/>
<path d="M272.428 452.71C270.042 450.891 266.56 445.931 271.235 440.794C275.91 435.658 281.439 433.097 278.828 429.362C276.216 425.626 280.843 422.437 284.099 424.885C284.099 424.885 291.756 412.373 297.205 421.987C297.205 421.987 302.54 418.315 305.813 422.244C309.085 426.173 309.762 430.408 305.458 431.906C301.154 433.403 300.751 433.886 301.492 436.366C302.234 438.846 298.494 440.939 298.494 440.939C298.494 440.939 300.815 439.458 299.494 437.719C299.25 438.808 298.696 439.803 297.897 440.583C297.099 441.363 296.091 441.895 294.996 442.115C290.821 443.435 292.755 447.493 292.755 447.493C292.755 447.493 290.515 448.363 290.031 445.174C290.031 445.174 288.29 452.292 283.583 454.047C278.876 455.802 275.974 455.48 272.428 452.71Z" fill="#263238"/>
<path opacity="0.1" d="M333.313 506.67C332.54 509.408 331.814 512.193 331.137 514.995C331.13 515.054 331.13 515.114 331.137 515.172L325.705 515.366L321.949 515.495C318.967 515.575 315.952 515.656 312.889 515.704H311.777H309.697H307.682C309.638 512.033 312.392 508.847 315.742 506.38C316.339 505.928 316.963 505.514 317.612 505.141C318.953 504.405 320.408 503.899 321.916 503.643C325.965 503.128 330.056 504.214 333.313 506.67Z" fill="black"/>
<path d="M344.13 501.34C344.048 502.917 343.554 504.444 342.695 505.769C340.648 508.989 338.568 511.984 336.392 514.947L331.105 515.173L325.672 515.366L321.916 515.495C318.934 515.575 315.92 515.656 312.857 515.704C313.034 515.511 313.179 515.317 313.341 515.124C316.242 511.469 319.128 507.62 321.916 503.74C322.706 502.661 323.528 501.566 324.238 500.519C325.35 498.909 326.414 497.427 327.462 495.898L327.575 495.737C328.719 494.085 330.379 492.858 332.295 492.249C334.212 491.64 336.276 491.683 338.165 492.371C338.891 492.635 339.58 492.992 340.213 493.434C341.487 494.309 342.515 495.494 343.201 496.878C343.887 498.262 344.206 499.798 344.13 501.34Z" fill="#FFB573"/>
<path d="M345.049 501.389C344.188 506.188 342.326 510.753 339.584 514.786L336.36 514.947L331.073 515.173L325.64 515.366L321.884 515.495C318.902 515.575 315.887 515.656 312.825 515.704H311.712H309.633C311.422 512.999 313.631 509.617 315.71 506.413C317.129 504.191 318.483 502.065 319.579 500.262L320.788 498.474C322.586 495.37 325.164 492.789 328.268 490.986C331.831 488.966 335.894 487.994 339.987 488.185C341.362 489.076 342.519 490.265 343.372 491.663C345.061 494.606 345.654 498.051 345.049 501.389Z" fill="#3968BF"/>
<path opacity="0.7" d="M345.049 501.389C344.188 506.188 342.326 510.753 339.584 514.786L336.36 514.947L331.073 515.173L325.64 515.366L321.884 515.495C318.902 515.575 315.887 515.656 312.825 515.704H311.712H309.633C311.422 512.999 313.631 509.617 315.71 506.413C317.129 504.191 318.483 502.065 319.579 500.262L320.788 498.474C322.586 495.37 325.164 492.789 328.268 490.986C331.831 488.966 335.894 487.994 339.987 488.185C341.362 489.076 342.519 490.265 343.372 491.663C345.061 494.606 345.654 498.051 345.049 501.389Z" fill="white"/>
<path d="M205.239 136.995C205.853 139.947 206.037 142.711 205.793 145.285C205.576 147.817 204.901 150.109 203.768 152.163C202.67 154.209 201.06 155.935 198.937 157.34C196.85 158.738 194.258 159.758 191.159 160.401C188.061 161.044 185.258 161.144 182.751 160.699C180.272 160.211 178.107 159.269 176.256 157.872C174.433 156.431 172.896 154.579 171.645 152.315C170.43 150.044 169.515 147.432 168.901 144.479C168.08 140.53 168.007 136.964 168.683 133.781C169.394 130.59 170.918 127.917 173.256 125.762C175.623 123.564 178.889 122.033 183.056 121.168C187.188 120.311 190.759 120.423 193.77 121.505C196.774 122.552 199.224 124.419 201.12 127.106C203.045 129.749 204.418 133.046 205.239 136.995ZM177.406 142.77C177.961 145.438 178.777 147.663 179.853 149.443C180.929 151.224 182.287 152.482 183.926 153.218C185.565 153.955 187.506 154.09 189.75 153.624C192.065 153.144 193.81 152.244 194.984 150.924C196.194 149.597 196.92 147.906 197.161 145.852C197.438 143.79 197.3 141.425 196.745 138.757C195.909 134.737 194.506 131.744 192.537 129.777C190.568 127.811 187.874 127.182 184.455 127.892C182.175 128.365 180.431 129.265 179.221 130.592C178.011 131.92 177.267 133.614 176.99 135.675C176.713 137.737 176.851 140.102 177.406 142.77Z" fill="#3968BF"/>
<path d="M265.085 144.505L217.112 154.459L209.189 116.358L217.256 114.684L223.781 146.062L235.64 143.601L229.115 112.223L237.235 110.538L243.76 141.916L255.62 139.455L249.095 108.077L257.162 106.403L265.085 144.505Z" fill="#3968BF"/>
<path d="M266.784 104.407L274.049 102.899L277.878 121.31C278.063 122.199 278.252 123.199 278.446 124.309C278.64 125.419 278.83 126.512 279.016 127.586C279.195 128.625 279.348 129.54 279.475 130.33C279.595 131.085 279.666 131.608 279.69 131.9L279.85 131.867L291.465 99.2853L301.134 97.2789L309.057 135.381L301.845 136.877L298.039 118.573C297.839 117.613 297.639 116.56 297.438 115.414C297.229 114.232 297.032 113.104 296.846 112.03C296.695 110.948 296.556 110.012 296.429 109.222C296.33 108.388 296.272 107.844 296.256 107.587L296.042 107.632L284.43 140.491L274.707 142.508L266.784 104.407Z" fill="#3968BF"/>
<path d="M318.686 133.383L310.763 95.2809L334.856 90.2815L336.243 96.952L320.217 100.277L321.87 108.229L325.075 107.564C328.672 106.817 331.714 106.706 334.201 107.229C336.723 107.745 338.717 108.759 340.183 110.274C341.65 111.788 342.616 113.665 343.082 115.907C343.6 118.397 343.492 120.646 342.758 122.654C342.024 124.662 340.599 126.386 338.484 127.827C336.361 129.232 333.466 130.316 329.798 131.077L318.686 133.383ZM328.101 124.526C330.559 124.016 332.4 123.226 333.627 122.155C334.888 121.077 335.316 119.559 334.909 117.603C334.628 116.251 334.057 115.293 333.197 114.729C332.372 114.158 331.293 113.881 329.959 113.898C328.653 113.872 327.11 114.044 325.329 114.413L323.246 114.846L325.377 125.092L328.101 124.526Z" fill="#3968BF"/>
<path d="M383.844 119.862L374.655 121.769L356.802 105.322L360.819 124.64L352.753 126.314L344.829 88.212L352.896 86.5381L356.736 105.002L366.572 83.7003L375.173 81.9156L365.089 103.102L383.844 119.862Z" fill="#3968BF"/>
<path d="M411.99 114.022L407.326 105.526L393.436 108.408L392.545 118.057L383.837 119.864L389.343 78.8083L399.226 76.7576L420.698 112.215L411.99 114.022ZM399.373 90.8662C399.069 90.2984 398.679 89.5815 398.202 88.7157C397.724 87.8498 397.243 86.9662 396.759 86.0648C396.274 85.1633 395.869 84.3753 395.543 83.7008C395.513 84.4492 395.448 85.3904 395.35 86.5242C395.279 87.615 395.202 88.6702 395.116 89.6899C395.059 90.6666 395 91.3654 394.939 91.7863L394.057 101.21L403.993 99.1482L399.373 90.8662Z" fill="#3968BF"/>
</g>
<defs>
<clipPath id="clip0_356_4459">
<rect width="806" height="522" fill="white"/>
</clipPath>
</defs>
</svg>
