<svg width="29" height="12" viewBox="0 0 29 12" fill="none" xmlns="http://www.w3.org/2000/svg">
<path fill-rule="evenodd" clip-rule="evenodd" d="M4.62741 2.42887C5.14734 2.47273 5.66726 2.16572 5.99222 1.77648C6.31175 1.37627 6.52297 0.839002 6.46882 0.290771C6.00846 0.312701 5.4398 0.597781 5.11484 0.997989C4.81697 1.34337 4.56242 1.90257 4.62741 2.42887ZM10.8125 9.49002V0.943115H13.9808C15.6164 0.943115 16.7592 2.08343 16.7592 3.75005C16.7592 5.41667 15.5947 6.56796 13.9375 6.56796H12.1231V9.49002H10.8125ZM6.46305 2.53304C6.00501 2.50636 5.58706 2.67248 5.24947 2.80667C5.03223 2.89302 4.84826 2.96614 4.7083 2.96614C4.55124 2.96614 4.35968 2.88911 4.1446 2.80262C3.86277 2.68929 3.54057 2.55972 3.20269 2.56593C2.42821 2.5769 1.7079 3.02097 1.31254 3.72818C0.500156 5.14262 1.10132 7.23686 1.88662 8.38814C2.27115 8.9583 2.7315 9.58328 3.33808 9.56135C3.60494 9.55116 3.7969 9.4687 3.99557 9.38337C4.22428 9.28513 4.46188 9.18307 4.83287 9.18307C5.191 9.18307 5.4182 9.28247 5.63631 9.37788C5.84369 9.46861 6.04284 9.55573 6.33849 9.55039C6.96673 9.53942 7.36209 8.98023 7.74662 8.41007C8.16158 7.79814 8.34394 7.20092 8.37162 7.11028L8.37486 7.0998C8.3742 7.09913 8.36907 7.09675 8.36003 7.09256C8.22131 7.02828 7.16104 6.53693 7.15087 5.21937C7.14066 4.11347 7.99185 3.55315 8.12584 3.46494L8.12584 3.46494C8.134 3.45957 8.13949 3.45595 8.14198 3.45407C7.60039 2.64269 6.75551 2.55497 6.46305 2.53304ZM19.1529 9.55578C19.9761 9.55578 20.7397 9.13364 21.0863 8.4648H21.1134V9.48999H22.3266V5.23573C22.3266 4.00221 21.3517 3.20728 19.8515 3.20728C18.4596 3.20728 17.4306 4.01317 17.3927 5.1206H18.5734C18.6708 4.5943 19.1529 4.24891 19.8136 4.24891C20.6151 4.24891 21.0647 4.62719 21.0647 5.32344V5.79492L19.4291 5.8936C17.9072 5.9868 17.084 6.61727 17.084 7.71373C17.084 8.82115 17.9343 9.55578 19.1529 9.55578ZM19.5041 8.54174C18.8054 8.54174 18.3613 8.20183 18.3613 7.68102C18.3613 7.14375 18.7892 6.83126 19.607 6.78192L21.0639 6.68872V7.17116C21.0639 7.97158 20.3923 8.54174 19.5041 8.54174ZM26.3499 9.82445C25.8245 11.3211 25.2234 11.8145 23.9452 11.8145C23.8477 11.8145 23.5228 11.8036 23.447 11.7816V10.7564C23.5282 10.7674 23.7286 10.7784 23.8315 10.7784C24.411 10.7784 24.7359 10.5317 24.9363 9.89024L25.0555 9.51196L22.835 3.28955H24.2052L25.7487 8.33875H25.7758L27.3193 3.28955H28.6516L26.3499 9.82445ZM12.123 2.06152H13.6341C14.7714 2.06152 15.4213 2.67554 15.4213 3.75555C15.4213 4.83557 14.7714 5.45507 13.6287 5.45507H12.123V2.06152Z" fill="#19191E"/>
</svg>
