<svg width="28" height="23" viewBox="0 0 28 23" fill="none" xmlns="http://www.w3.org/2000/svg">
<path d="M0 19.2406V3.7243C0.0794709 3.41778 0.139256 3.10371 0.242787 2.80549C0.830434 1.10302 2.36152 0.00528483 4.15582 0C7.66566 0 11.1743 0 14.6817 0C17.7346 0 20.7878 0 23.8413 0C25.7726 0 27.3744 1.26458 27.8644 3.15278C27.9132 3.34152 27.9548 3.53027 28 3.72128V7.23569C27.8914 7.24022 27.7813 7.24928 27.6734 7.24928C26.0788 7.24928 24.4851 7.24399 22.8913 7.25456C22.5545 7.25434 22.2185 7.28797 21.888 7.35497C19.9851 7.74832 18.5699 9.63349 18.6647 11.6266C18.7661 13.7632 20.3183 15.5042 22.3167 15.6771C23.0137 15.7375 23.7173 15.7126 24.4187 15.7171C25.6115 15.7261 26.8043 15.7277 27.9971 15.7329V19.1839C27.9803 19.226 27.9662 19.2691 27.9548 19.313C27.4765 21.6852 25.9578 22.9641 23.6174 22.9641H11.8382C9.27841 22.9641 6.71857 22.9686 4.15873 22.9641C2.22883 22.9588 0.623373 21.695 0.135611 19.8113C0.0860327 19.6211 0.0452036 19.4301 0 19.2406Z" fill="#3D7B50"/>
<path d="M27.9971 8.48145V14.4835C26.1955 14.4835 24.3932 14.5145 22.5916 14.4835C21.0605 14.4563 19.8378 13.0913 19.8378 11.484C19.8378 9.87665 21.0583 8.5192 22.5916 8.48296C23.9929 8.44974 25.395 8.47013 26.797 8.46937C27.1951 8.46786 27.5968 8.47692 27.9971 8.48145ZM24.4974 11.4757C24.4963 11.1176 24.3927 10.7679 24.1997 10.4707C24.0067 10.1735 23.7331 9.9422 23.4132 9.80598C23.0934 9.66976 22.7417 9.63474 22.4027 9.70534C22.0637 9.77593 21.7524 9.94898 21.5083 10.2026C21.2641 10.4563 21.0981 10.7791 21.031 11.1304C20.964 11.4818 20.999 11.8458 21.1316 12.1765C21.2642 12.5072 21.4885 12.7899 21.7761 12.9887C22.0637 13.1875 22.4018 13.2937 22.7476 13.2937C23.2124 13.2925 23.6577 13.1004 23.9857 12.7595C24.3138 12.4186 24.4978 11.9569 24.4974 11.4757Z" fill="#3D7B50"/>
<path d="M22.7557 10.8716C22.9116 10.8771 23.0592 10.9459 23.1665 11.0632C23.2739 11.1804 23.3324 11.3367 23.3294 11.4982C23.3272 11.6584 23.2636 11.8111 23.1527 11.9227C23.0417 12.0344 22.8925 12.0958 22.7378 12.0935C22.5831 12.0912 22.4356 12.0254 22.3278 11.9105C22.22 11.7956 22.1607 11.641 22.1629 11.4808C22.1642 11.3189 22.2273 11.1641 22.3383 11.05C22.4493 10.9359 22.5993 10.8718 22.7557 10.8716Z" fill="#3D7B50"/>
</svg>
