<svg width="32" height="32" viewBox="0 0 32 32" fill="none" xmlns="http://www.w3.org/2000/svg">
<path d="M24.9989 13.7051V13.9784C24.9989 16.3987 24.9989 18.8192 24.9989 21.2398C24.9989 22.3686 24.4265 23.0329 23.4551 23.0329H8.54859C7.58046 23.0329 7.00854 22.3643 7.00854 21.2342C7.00854 18.814 7.00854 16.3935 7.00854 13.9728V13.7051H24.9989ZM20.4226 16.4931C19.8886 16.4931 19.3546 16.4894 18.8248 16.4931C18.2342 16.4981 17.8103 16.9974 17.8038 17.6891C17.8003 18.2881 17.8003 18.8868 17.8038 19.4853C17.8076 20.192 18.231 20.6932 18.8339 20.6951C19.8788 20.6996 20.9238 20.6996 21.969 20.6951C22.5724 20.6951 22.9959 20.197 23.0002 19.4878C23.0034 18.8964 23.0034 18.3051 23.0002 17.714C22.997 16.9899 22.5767 16.4962 21.9605 16.4931C21.4473 16.4906 20.9373 16.4931 20.4226 16.4931Z" fill="#3968BF"/>
<path d="M24.9989 12.2787H7.03952C6.87612 11.1506 7.212 10.2092 8.18548 9.97508C8.29134 9.95484 8.39867 9.94691 8.50588 9.95142C13.508 9.95142 18.5098 9.95142 23.5112 9.95142C24.4105 9.95142 24.9979 10.6363 25 11.6904C24.9995 11.8803 24.9989 12.067 24.9989 12.2787Z" fill="#3968BF"/>
<path d="M21.7864 19.2854H19.015V17.9126H21.7864V19.2854Z" fill="#3968BF"/>
</svg>
