<svg width="22" height="21" viewBox="0 0 22 21" fill="none" xmlns="http://www.w3.org/2000/svg">
<path d="M2.75 20.0359C2.02065 20.0359 1.32118 19.7461 0.805456 19.2304C0.289731 18.7147 0 18.0152 0 17.2859V13.3573C4.65775e-09 13.0447 0.124171 12.7449 0.345196 12.5239C0.566221 12.3029 0.865995 12.1787 1.17857 12.1787C1.49115 12.1787 1.79092 12.3029 2.01195 12.5239C2.23297 12.7449 2.35714 13.0447 2.35714 13.3573V17.2859C2.35714 17.5027 2.53314 17.6787 2.75 17.6787H19.25C19.3542 17.6787 19.4541 17.6373 19.5278 17.5636C19.6015 17.49 19.6429 17.39 19.6429 17.2859V13.3573C19.6429 13.0447 19.767 12.7449 19.9881 12.5239C20.2091 12.3029 20.5089 12.1787 20.8214 12.1787C21.134 12.1787 21.4338 12.3029 21.6548 12.5239C21.8758 12.7449 22 13.0447 22 13.3573V17.2859C22 18.0152 21.7103 18.7147 21.1945 19.2304C20.6788 19.7461 19.9793 20.0359 19.25 20.0359H2.75Z" fill="#3968BF"/>
<path d="M9.8215 10.1184V1.17857C9.8215 0.865995 9.94567 0.566221 10.1667 0.345196C10.3877 0.124171 10.6875 0 11.0001 0C11.3126 0 11.6124 0.124171 11.8334 0.345196C12.0545 0.566221 12.1786 0.865995 12.1786 1.17857V10.1184L15.2744 7.02429C15.3837 6.91491 15.5136 6.82815 15.6565 6.76896C15.7994 6.70977 15.9525 6.67931 16.1072 6.67931C16.2619 6.67931 16.415 6.70977 16.558 6.76896C16.7009 6.82815 16.8307 6.91491 16.9401 7.02429C17.0494 7.13366 17.1362 7.2635 17.1954 7.4064C17.2546 7.54931 17.2851 7.70247 17.2851 7.85714C17.2851 8.01182 17.2546 8.16498 17.1954 8.30788C17.1362 8.45078 17.0494 8.58063 16.9401 8.69L11.8329 13.7971C11.6119 14.0178 11.3124 14.1418 11.0001 14.1418C10.6877 14.1418 10.3882 14.0178 10.1672 13.7971L5.06007 8.69C4.9507 8.58063 4.86394 8.45078 4.80475 8.30788C4.74555 8.16498 4.71509 8.01182 4.71509 7.85714C4.71509 7.70247 4.74555 7.54931 4.80475 7.4064C4.86394 7.2635 4.9507 7.13366 5.06007 7.02429C5.16944 6.91491 5.29929 6.82815 5.44219 6.76896C5.58509 6.70977 5.73825 6.67931 5.89293 6.67931C6.0476 6.67931 6.20076 6.70977 6.34366 6.76896C6.48657 6.82815 6.61641 6.91491 6.72578 7.02429L9.8215 10.1184Z" fill="#3968BF"/>
</svg>
