<svg width="24" height="24" viewBox="0 0 24 24" fill="none" xmlns="http://www.w3.org/2000/svg">
<path d="M11.9656 22C6.52182 22.0014 1.5205 18.2248 1.437 11.4026C1.36815 5.66879 6.22004 0.970719 12.0373 0.980974C17.7638 0.991228 22.5952 5.75376 22.4985 11.4539C22.3857 18.2805 17.3653 22.0088 11.9656 22ZM11.0866 7.10004C10.9401 7.12202 10.8756 7.13667 10.8053 7.14546C10.1656 7.21172 9.57353 7.51387 9.14452 7.99299C8.71551 8.47211 8.48033 9.09384 8.48485 9.73694C8.45994 11.0642 9.26566 11.9695 10.6823 12.2024C11.4479 12.3284 12.2131 12.4559 12.9778 12.5848C13.514 12.6742 13.7411 12.9071 13.7206 13.3305C13.7164 13.4447 13.6897 13.5571 13.642 13.661C13.5942 13.765 13.5264 13.8584 13.4424 13.936C13.3584 14.0136 13.2598 14.0739 13.1524 14.1133C13.0451 14.1526 12.931 14.1704 12.8167 14.1655C12.2014 14.1743 11.5861 14.1655 10.9723 14.1655C10.7985 14.1739 10.6255 14.138 10.4694 14.0611C10.3133 13.9842 10.1794 13.8689 10.0802 13.726C9.72565 13.2587 9.23343 13.1693 8.81885 13.4725C8.40427 13.7758 8.35007 14.2944 8.67236 14.7632C8.89214 15.0938 9.18429 15.3701 9.52668 15.5712C9.86907 15.7722 10.2527 15.8926 10.6486 15.9234L11.0881 15.9644C11.0881 16.2325 11.0881 16.4508 11.0881 16.6676C11.0998 17.3048 11.4059 17.6564 11.9509 17.6608C12.5208 17.6608 12.8299 17.3136 12.8401 16.6485C12.8401 16.42 12.8401 16.1915 12.8401 15.963L13.2108 15.9131C14.5014 15.73 15.4082 14.6738 15.4448 13.3231C15.4756 12.034 14.6889 11.1257 13.3367 10.8811C12.5589 10.7434 11.778 10.6174 10.9928 10.487C10.42 10.3903 10.1856 10.1647 10.212 9.73255C10.2428 9.233 10.609 8.90485 11.1554 8.90046C11.7414 8.90046 12.3274 8.90778 12.9134 8.90046C13.0962 8.88976 13.2786 8.92617 13.4433 9.0062C13.608 9.08623 13.7493 9.2072 13.8539 9.35752C14.204 9.82337 14.7006 9.90688 15.1137 9.6007C15.5268 9.29453 15.584 8.79205 15.2602 8.31302C14.8956 7.75179 14.3264 7.35497 13.6737 7.20698C13.4085 7.14692 13.0335 7.18794 12.9017 7.0268C12.7698 6.86565 12.8592 6.49502 12.8372 6.21961C12.8221 5.99754 12.7226 5.78966 12.5591 5.63859C12.3957 5.48752 12.1806 5.40472 11.958 5.40715C11.7355 5.40959 11.5222 5.49708 11.3621 5.65169C11.202 5.8063 11.1071 6.01631 11.0968 6.23866C11.0807 6.51407 11.0939 6.79094 11.0939 7.10004H11.0866Z" fill="#B5B5C2"/>
</svg>
