<svg width="32" height="32" viewBox="0 0 32 32" fill="none" xmlns="http://www.w3.org/2000/svg">
<path d="M15.9382 6C14.0816 6 12.3012 6.7375 10.9884 8.05025C9.67566 9.36301 8.93816 11.1435 8.93816 13V16.528C8.93831 16.6831 8.90236 16.8362 8.83316 16.975L7.11616 20.408C7.03229 20.5757 6.99268 20.7621 7.00111 20.9494C7.00954 21.1368 7.06572 21.3188 7.16431 21.4783C7.2629 21.6379 7.40064 21.7695 7.56443 21.8608C7.72822 21.9521 7.91264 22 8.10016 22H23.7762C23.9637 22 24.1481 21.9521 24.3119 21.8608C24.4757 21.7695 24.6134 21.6379 24.712 21.4783C24.8106 21.3188 24.8668 21.1368 24.8752 20.9494C24.8836 20.7621 24.844 20.5757 24.7602 20.408L23.0442 16.975C22.9746 16.8362 22.9383 16.6832 22.9382 16.528V13C22.9382 11.1435 22.2007 9.36301 20.8879 8.05025C19.5752 6.7375 17.7947 6 15.9382 6ZM15.9382 25C15.3175 25.0003 14.712 24.8081 14.2052 24.4499C13.6983 24.0917 13.315 23.5852 13.1082 23H18.7682C18.5613 23.5852 18.178 24.0917 17.6711 24.4499C17.1643 24.8081 16.5588 25.0003 15.9382 25Z" fill="#3968BF"/>
</svg>
