<svg width="39" height="10" viewBox="0 0 39 10" fill="none" xmlns="http://www.w3.org/2000/svg">
<path d="M2.01861 0.464722V2.64805C2.01861 2.90034 2.01084 3.14875 1.99532 3.39329C1.98367 3.63394 1.97203 3.82219 1.96038 3.95804H2.01861C2.19327 3.67857 2.43586 3.44375 2.74638 3.25355C3.06078 3.05948 3.46251 2.96244 3.95158 2.96244C4.71622 2.96244 5.33144 3.24385 5.79721 3.80666C6.26299 4.36559 6.49588 5.19429 6.49588 6.29274C6.49588 7.02246 6.38914 7.63573 6.17565 8.13255C5.96217 8.62938 5.66136 9.00588 5.27321 9.26206C4.88895 9.51436 4.43676 9.6405 3.91664 9.6405C3.42758 9.6405 3.03167 9.55123 2.72891 9.37268C2.43004 9.19025 2.19521 8.97871 2.02443 8.73806H1.92545L1.6751 9.52406H0.650391V0.464722H2.01861ZM3.5906 4.07448C3.20245 4.07448 2.89388 4.15211 2.66487 4.30737C2.43975 4.46263 2.27672 4.69552 2.17581 5.00603C2.07489 5.31267 2.02249 5.70276 2.01861 6.1763V6.29856C2.01861 7.01663 2.13117 7.56586 2.35629 7.94624C2.5853 8.32663 3.00062 8.51682 3.60224 8.51682C4.07966 8.51682 4.44646 8.32469 4.70264 7.94042C4.95882 7.55228 5.0869 6.99723 5.0869 6.27527C5.0869 5.54556 4.95882 4.99633 4.70264 4.62759C4.45034 4.25885 4.07966 4.07448 3.5906 4.07448Z" fill="#19191E"/>
<path d="M10.5875 2.95662C11.1619 2.95662 11.6549 3.07501 12.0663 3.31178C12.4778 3.54854 12.7941 3.88429 13.0153 4.31902C13.2366 4.75374 13.3472 5.27386 13.3472 5.87936V6.61296H9.0446C9.06013 7.23788 9.22703 7.71918 9.54531 8.05687C9.86747 8.39455 10.3177 8.5634 10.8961 8.5634C11.3075 8.5634 11.6762 8.52458 12.0023 8.44695C12.3322 8.36544 12.6718 8.24706 13.0212 8.0918V9.20384C12.699 9.35522 12.371 9.46584 12.0372 9.5357C11.7034 9.60557 11.3036 9.6405 10.8378 9.6405C10.2052 9.6405 9.64817 9.51824 9.16687 9.2737C8.68945 9.02529 8.31488 8.65655 8.04318 8.16749C7.77536 7.67842 7.64145 7.07097 7.64145 6.34514C7.64145 5.62319 7.76372 5.00992 8.00825 4.50533C8.25278 4.00074 8.59629 3.61647 9.03878 3.35253C9.48127 3.08859 9.9975 2.95662 10.5875 2.95662ZM10.5875 3.98715C10.1566 3.98715 9.80731 4.12688 9.53949 4.40635C9.27555 4.68581 9.12029 5.09531 9.07371 5.63483H12.0081C12.0042 5.31267 11.9499 5.02738 11.8451 4.77897C11.7442 4.53056 11.5889 4.33648 11.3793 4.19675C11.1736 4.05702 10.9096 3.98715 10.5875 3.98715Z" fill="#19191E"/>
<path d="M17.6426 1.01201C18.741 1.01201 19.5426 1.24878 20.0472 1.72232C20.5517 2.19197 20.804 2.84018 20.804 3.66693C20.804 4.03955 20.7478 4.39664 20.6352 4.73821C20.5226 5.0759 20.3383 5.37671 20.0821 5.64065C19.8298 5.90459 19.4921 6.11419 19.069 6.26945C18.6459 6.42083 18.1239 6.49652 17.5029 6.49652H16.7285V9.52406H14.9236V1.01201H17.6426ZM17.5494 2.49085H16.7285V5.01768H17.3224C17.6601 5.01768 17.9531 4.97304 18.2015 4.88377C18.4499 4.7945 18.6421 4.65476 18.7779 4.46457C18.9138 4.27438 18.9817 4.02985 18.9817 3.73097C18.9817 3.31178 18.8652 3.00126 18.6324 2.79942C18.3995 2.5937 18.0385 2.49085 17.5494 2.49085Z" fill="#19191E"/>
<path d="M24.8782 2.88093C25.7515 2.88093 26.4211 3.07112 26.8868 3.45151C27.3526 3.83189 27.5855 4.41023 27.5855 5.18652V9.52406H26.3454L26.0019 8.63908H25.9553C25.769 8.87197 25.5788 9.06217 25.3847 9.20966C25.1906 9.35716 24.9675 9.46584 24.7152 9.5357C24.4629 9.60557 24.1562 9.6405 23.7953 9.6405C23.411 9.6405 23.0655 9.56675 22.7589 9.41926C22.4561 9.27176 22.2174 9.04664 22.0428 8.74389C21.8681 8.43725 21.7808 8.0491 21.7808 7.57945C21.7808 6.88854 22.0234 6.38007 22.5085 6.05403C22.9937 5.72411 23.7215 5.54168 24.6919 5.50674L25.8214 5.47181V5.18652C25.8214 4.84495 25.7321 4.5946 25.5536 4.43546C25.375 4.27632 25.1266 4.19675 24.8083 4.19675C24.4939 4.19675 24.1853 4.24139 23.8826 4.33066C23.5798 4.41993 23.2771 4.5325 22.9743 4.66835L22.3863 3.46897C22.7317 3.28655 23.1179 3.14293 23.5449 3.03813C23.9757 2.93333 24.4202 2.88093 24.8782 2.88093ZM25.8214 6.50816L25.1344 6.53145C24.5599 6.54698 24.1601 6.64983 23.935 6.84003C23.7137 7.03022 23.6031 7.28057 23.6031 7.59109C23.6031 7.86279 23.6827 8.05687 23.8418 8.17331C24.001 8.28587 24.2086 8.34215 24.4648 8.34215C24.8452 8.34215 25.1654 8.22959 25.4255 8.00447C25.6894 7.77934 25.8214 7.45912 25.8214 7.0438V6.50816Z" fill="#19191E"/>
<path d="M31.1356 3.01484V9.52406H29.3599V3.01484H31.1356ZM30.2507 0.464722C30.5146 0.464722 30.7417 0.526825 30.9319 0.651032C31.1221 0.771357 31.2172 0.998423 31.2172 1.33223C31.2172 1.66215 31.1221 1.89116 30.9319 2.01925C30.7417 2.14345 30.5146 2.20556 30.2507 2.20556C29.9828 2.20556 29.7538 2.14345 29.5637 2.01925C29.3773 1.89116 29.2842 1.66215 29.2842 1.33223C29.2842 0.998423 29.3773 0.771357 29.5637 0.651032C29.7538 0.526825 29.9828 0.464722 30.2507 0.464722Z" fill="#19191E"/>
<path d="M35.006 9.6405C34.2802 9.6405 33.6883 9.35716 33.2302 8.79046C32.7761 8.21989 32.549 7.38343 32.549 6.2811C32.549 5.16712 32.78 4.32484 33.2419 3.75426C33.7038 3.17981 34.3073 2.89258 35.0526 2.89258C35.3631 2.89258 35.6367 2.93527 35.8735 3.02067C36.1103 3.10606 36.3141 3.22056 36.4848 3.36418C36.6595 3.50779 36.807 3.66887 36.9273 3.84742H36.9856C36.9623 3.72321 36.9332 3.54078 36.8982 3.30013C36.8672 3.0556 36.8516 2.80524 36.8516 2.54907V0.464722H38.6332V9.52406H37.2708L36.9273 8.67984H36.8516C36.7391 8.85839 36.5974 9.02141 36.4266 9.16891C36.2597 9.31252 36.0598 9.42702 35.8269 9.51241C35.5941 9.59781 35.3204 9.6405 35.006 9.6405ZM35.629 8.22571C36.1142 8.22571 36.4557 8.0821 36.6537 7.79487C36.8555 7.50376 36.9623 7.06709 36.9739 6.48487V6.29274C36.9739 5.66006 36.8769 5.17682 36.6828 4.84301C36.4887 4.50533 36.1278 4.33648 35.5999 4.33648C35.2078 4.33648 34.9012 4.50533 34.68 4.84301C34.4587 5.1807 34.3481 5.66782 34.3481 6.30438C34.3481 6.94094 34.4587 7.42031 34.68 7.74247C34.9051 8.06463 35.2214 8.22571 35.629 8.22571Z" fill="#19191E"/>
</svg>
