<svg width="50" height="24" viewBox="0 0 50 24" fill="none" xmlns="http://www.w3.org/2000/svg">
<g clip-path="url(#clip0_493_14860)">
<path d="M-0.0405273 14.1273V-0.0664062H2.11631V4.36082C2.88849 3.2001 3.89227 2.20847 5.06577 1.44706C6.23927 0.685638 7.55763 0.170568 8.93958 -0.0664062L10.1363 2.0321C10.1363 2.0321 5.48776 2.58993 3.86231 5.5119L3.83552 5.73769C3.83552 5.73769 6.06827 7.0083 7.02835 8.36304C7.98843 9.71777 10.0202 12.8877 10.6499 13.9325V14.1007L8.08221 14.1273C7.10937 11.1987 5.04362 8.74995 2.30832 7.28279H2.16096V14.1273H-0.0405273Z" fill="#0C54A0"/>
<path d="M14.6509 23.6637V14.9863H15.9905V17.7091C16.4587 16.9964 17.0698 16.3869 17.7858 15.9185C18.5018 15.4501 19.3074 15.1328 20.1524 14.9863L20.8847 16.2702C20.8847 16.2702 18.0402 16.62 17.0444 18.3997V18.537C17.7879 18.9545 18.4502 19.5002 19.0003 20.1485C19.5763 20.9808 20.8311 22.9199 21.233 23.5574V23.6637H19.6076C19.0122 21.8698 17.7489 20.3687 16.0754 19.4667H15.9816V23.6637H14.6509Z" fill="#0C54A0"/>
<path d="M43.3684 23.9338V15.1191H44.7081V17.8793C45.1777 17.1554 45.7909 16.5366 46.5093 16.0617C47.2277 15.5868 48.0359 15.2659 48.8833 15.1191L49.6201 16.4072C49.6201 16.4072 46.7711 16.7618 45.7753 18.566V18.7051C46.5171 19.129 47.1779 19.6822 47.7267 20.3388C48.3028 21.1826 49.562 23.1483 49.9595 23.7946V23.9023H48.3876C47.7915 22.0828 46.5264 20.5608 44.851 19.6476H44.7081V23.8978L43.3684 23.9338Z" fill="#0C54A0"/>
<path d="M15.8923 -0.0664062H10.0871L11.199 2.14721H15.0483C15.0483 2.14721 17.4686 3.03265 17.7544 3.98451V5.28611H12.5297C12.5297 5.28611 9.16723 6.0166 9.4039 8.95628C9.47612 10.0817 9.8673 11.1641 10.5325 12.0788C11.1976 12.9936 12.1097 13.7037 13.1638 14.1273H19.9693V3.8694C19.9693 3.8694 20.1389 1.26176 15.8923 -0.0664062ZM17.7722 12.29C16.6433 12.3493 15.5119 12.3493 14.3829 12.29C13.6104 12.1793 11.4759 11.2186 11.5295 9.23963C11.5831 7.26066 12.9852 7.02601 12.9852 7.02601H17.7722V12.29Z" fill="#0C54A0"/>
<path d="M44.8512 -0.0664062H39.0461L40.1491 2.14721H43.9983C43.9983 2.14721 46.4186 3.03265 46.7044 3.98451V5.28611H41.4887C41.4887 5.28611 38.1262 6.0166 38.3629 8.95628C38.4343 10.0807 38.8242 11.1624 39.4877 12.077C40.1512 12.9917 41.0614 13.7023 42.1139 14.1273H48.9282V3.8694C48.9282 3.8694 49.0801 1.26176 44.8512 -0.0664062ZM46.7312 12.29C45.6022 12.3493 44.4709 12.3493 43.3419 12.29C42.5738 12.1793 40.4349 11.2186 40.4929 9.23963C40.551 7.26066 41.9353 7.01716 41.9353 7.01716H46.7223L46.7312 12.29Z" fill="#0C54A0"/>
<path d="M28.5879 -0.0664062H20.9072V14.1273H23.14L23.1757 9.25733C23.1757 9.25733 27.1946 9.21749 27.927 9.18207C28.6593 9.14665 31.4235 7.4466 31.4994 3.94466C31.5753 0.442725 28.5879 -0.0664062 28.5879 -0.0664062ZM29.5346 4.00222C29.5748 6.37521 27.2572 7.43332 27.2572 7.43332H23.1132V2.23132C24.5302 2.14044 25.9517 2.14044 27.3688 2.23132C29.7266 2.38185 29.5346 4.00222 29.5346 4.00222Z" fill="#0C54A0"/>
<path d="M32.1112 2.16492L30.7983 -0.0664062H37.8672L39.2917 2.16492H36.1301L36.0721 14.1273H33.8483L33.9644 2.16492H32.1112Z" fill="#0C54A0"/>
<path d="M-0.0405273 23.8408V15.1191H6.20223V23.8408L4.87152 23.8585L4.83133 16.3632L1.28572 16.3322L1.25447 23.8408H-0.0405273Z" fill="#0C54A0"/>
<path d="M28.8379 23.8408V15.1191H35.0807V23.8408L33.7499 23.8585L33.7142 16.3632L30.1641 16.3322L30.1374 23.8408H28.8379Z" fill="#0C54A0"/>
<path d="M10.2882 14.9863C8.99316 15.0439 7.51062 16.8679 7.51062 16.8679V23.8408C7.51062 23.8408 9.20751 23.8408 10.6365 23.8408C12.0654 23.8408 13.7623 21.2376 13.7623 21.2376V15.0395L10.2882 14.9863ZM12.378 21.1844C12.378 21.1844 11.5206 22.579 10.6499 22.579H8.89046V17.6427C8.89046 17.6427 9.08247 16.7926 10.315 16.2835H12.3691L12.378 21.1844Z" fill="#0C54A0"/>
<path d="M38.7603 15.0439C37.4653 15.1015 35.9872 16.9255 35.9872 16.9255V23.9338C35.9872 23.9338 37.6796 23.9338 39.113 23.9338C40.5465 23.9338 42.2389 21.3306 42.2389 21.3306V15.1325L38.7603 15.0439ZM40.8501 21.2421C40.8501 21.2421 39.9927 22.6366 39.122 22.6366H37.3715V17.7003C37.3715 17.7003 37.5635 16.8503 38.796 16.3411H40.8501V21.2421Z" fill="#0C54A0"/>
<path d="M20.9877 14.9863H22.2871C22.2871 14.9863 24.1984 18.931 25.8595 19.1878C26.0284 19.062 26.1593 18.8927 26.238 18.6984C26.3167 18.504 26.3403 18.292 26.3061 18.0854V14.9863H27.6011V18.2625C27.2885 20.3743 24.569 23.6637 21.7647 23.8408L21.394 22.5613C21.394 22.5613 23.7161 22.1806 24.8548 20.4894L24.9396 20.3256C24.9396 20.3256 21.461 17.9836 20.9877 14.9863Z" fill="#0C54A0"/>
</g>
<defs>
<clipPath id="clip0_493_14860">
<rect width="50" height="24" fill="white"/>
</clipPath>
</defs>
</svg>
