<svg width="24" height="24" viewBox="0 0 24 24" fill="none" xmlns="http://www.w3.org/2000/svg">
<path opacity="0.3" d="M12 4.56205L7.76822 9.64018C7.41465 10.0645 6.78409 10.1218 6.35981 9.76822C5.93553 9.41466 5.87821 8.78409 6.23177 8.35982L11.2318 2.35982C11.6316 1.88006 12.3684 1.88006 12.7682 2.35982L17.7682 8.35982C18.1218 8.78409 18.0645 9.41466 17.6402 9.76822C17.2159 10.1218 16.5853 10.0645 16.2318 9.64018L12 4.56205Z" fill="#B5B5C2"/>
<path fill-rule="evenodd" clip-rule="evenodd" d="M3.28078 9H20.7192C21.2715 9 21.7192 9.44772 21.7192 10C21.7192 10.0818 21.7092 10.1632 21.6894 10.2425L19.5681 18.7276C19.2342 20.0631 18.0343 21 16.6577 21H7.34234C5.96573 21 4.76579 20.0631 4.43191 18.7276L2.31064 10.2425C2.17669 9.70674 2.50245 9.16381 3.03825 9.02986C3.11757 9.01003 3.19902 9 3.28078 9ZM12 12C11.4477 12 11 12.4477 11 13V17C11 17.5523 11.4477 18 12 18C12.5523 18 13 17.5523 13 17V13C13 12.4477 12.5523 12 12 12ZM6.96473 12.1363C6.43127 12.2792 6.11468 12.8276 6.25763 13.361L7.2929 17.2247C7.43584 17.7582 7.98418 18.0748 8.51765 17.9319C9.05111 17.7889 9.36769 17.2406 9.22475 16.7071L8.18948 12.8434C8.04653 12.3099 7.4982 11.9934 6.96473 12.1363ZM17.0353 12.1363C16.5018 11.9934 15.9535 12.3099 15.8105 12.8434L14.7753 16.7071C14.6323 17.2406 14.9489 17.7889 15.4824 17.9319C16.0158 18.0748 16.5642 17.7582 16.7071 17.2247L17.7424 13.361C17.8853 12.8276 17.5688 12.2792 17.0353 12.1363Z" fill="#B5B5C2"/>
</svg>
