<svg width="26" height="26" viewBox="0 0 26 26" fill="none" xmlns="http://www.w3.org/2000/svg">
<g clip-path="url(#clip0_7871_1760)">
<path d="M23.038 22.9411C23.6054 22.3737 23.6286 21.4478 23.0731 20.8922L15.3769 13.196L22.8533 5.71964C23.4089 5.16409 23.4212 4.20362 22.8538 3.63622C22.2869 3.06931 21.3373 3.09253 20.7817 3.64807L13.3053 11.1245L5.59683 3.41598C5.04178 2.86092 4.11587 2.88413 3.54847 3.45153C2.98157 4.01843 2.96971 4.93298 3.52526 5.48853L11.2338 13.197L3.75735 20.6734C3.20181 21.229 3.17811 22.1781 3.74501 22.745C4.31191 23.3119 5.27338 23.3006 5.82892 22.745L13.3053 15.2686L21.0015 22.9648C21.557 23.5203 22.4721 23.5089 23.039 22.942" fill="white"/>
</g>
<defs>
<clipPath id="clip0_7871_1760">
<rect width="26" height="26" fill="white"/>
</clipPath>
</defs>
</svg>
