<svg width="21" height="20" viewBox="0 0 21 20" fill="none" xmlns="http://www.w3.org/2000/svg">
<rect x="0.484863" width="20" height="20" rx="10" fill="#3D58DB"/>
<path fill-rule="evenodd" clip-rule="evenodd" d="M9.90481 4.93028L9.76215 5.74112L10.5091 5.3583L11.2562 5.74112L11.1135 4.93028L11.7179 4.29688H10.8827L10.5091 3.5L10.1357 4.29688H9.30042L9.90481 4.93028ZM9.90481 15.6891L9.76215 16.5L10.5091 16.1171L11.2562 16.5L11.1135 15.6891L11.7179 15.0557H10.8827L10.5091 14.2588L10.1357 15.0557H9.30042L9.90481 15.6891ZM3.94656 11.1751L4.08923 10.3642L3.48486 9.73084H4.32008L4.69359 8.93394L5.06711 9.73084H5.90233L5.29796 10.3642L5.44063 11.1751L4.69359 10.7922L3.94656 11.1751ZM5.25719 12.9293L5.11452 13.7402L5.86156 13.3574L6.60859 13.7402L6.46592 12.9293L7.07031 12.2959H6.23507L5.86156 11.4991L5.48804 12.2959H4.65282L5.25719 12.9293ZM15.1639 13.3574L14.4169 13.7402L14.5596 12.9293L13.9552 12.2959H14.7904L15.1639 11.4991L15.5374 12.2959H16.3727L15.7683 12.9293L15.9109 13.7402L15.1639 13.3574ZM5.25719 7.73234L5.11452 8.54319L5.86156 8.16036L6.60859 8.54319L6.46592 7.73234L7.07031 7.09894H6.23507L5.86156 6.30206L5.48804 7.09894H4.65282L5.25719 7.73234ZM15.1639 8.16036L14.4169 8.54319L14.5596 7.73234L13.9552 7.09894H14.7904L15.1639 6.30206L15.5374 7.09894H16.3727L15.7683 7.73234L15.9109 8.54319L15.1639 8.16036ZM7.11333 14.9932L6.97067 15.804L7.71766 15.4212L8.46471 15.804L8.32205 14.9932L8.92645 14.3598H8.09119L7.71766 13.5629L7.34419 14.3598H6.50895L7.11333 14.9932ZM12.6214 15.804L12.764 14.9932L12.1596 14.3598H12.9949L13.3684 13.5629L13.7419 14.3598H14.5772L13.9728 14.9932L14.1154 15.804L13.3684 15.4212L12.6214 15.804ZM6.97067 6.44639L7.71766 6.06356L8.46471 6.44639L8.32205 5.63554L8.92645 5.00215H8.09119L7.71766 4.20527L7.34419 5.00215H6.50895L7.11333 5.63554L6.97067 6.44639ZM12.6214 6.44639L12.764 5.63554L12.1596 5.00215H12.9949L13.3684 4.20527L13.7419 5.00215H14.5772L13.9728 5.63554L14.1154 6.44639L13.3684 6.06356L12.6214 6.44639ZM15.6717 10.291L15.5291 11.1018L16.2761 10.719L17.0232 11.1018L16.8805 10.291L17.4849 9.65756H16.6497L16.2761 8.8607L15.9026 9.65756H15.0674L15.6717 10.291Z" fill="#FFD018"/>
</svg>
