<svg width="24" height="20" viewBox="0 0 24 20" fill="none" xmlns="http://www.w3.org/2000/svg">
<g clip-path="url(#clip0_243_1306)">
<path d="M18.5 4.1665H5.5C4.67157 4.1665 4 4.72615 4 5.4165C4 6.10686 4.67157 6.6665 5.5 6.6665H18.5C19.3284 6.6665 20 6.10686 20 5.4165C20 4.72615 19.3284 4.1665 18.5 4.1665Z" fill="#3968BF"/>
<path opacity="0.3" fill-rule="evenodd" clip-rule="evenodd" d="M7.5 9.1665H16.5C17.3284 9.1665 18 9.72615 18 10.4165C18 11.1069 17.3284 11.6665 16.5 11.6665H7.5C6.67157 11.6665 6 11.1069 6 10.4165C6 9.72615 6.67157 9.1665 7.5 9.1665ZM10.5 14.1665H13.5C14.3284 14.1665 15 14.7261 15 15.4165C15 16.1069 14.3284 16.6665 13.5 16.6665H10.5C9.67157 16.6665 9 16.1069 9 15.4165C9 14.7261 9.67157 14.1665 10.5 14.1665Z" fill="#3968BF"/>
</g>
<defs>
<clipPath id="clip0_243_1306">
<rect width="24" height="20" fill="white"/>
</clipPath>
</defs>
</svg>
