<svg width="53" height="24" viewBox="0 0 53 24" fill="none" xmlns="http://www.w3.org/2000/svg">
<path d="M12.2647 20.1006L10.4815 21.1346C10.4815 21.1346 7.74862 16.0053 7.36076 15.1113L5.39916 16.3213L4.49416 16.2085L4.80623 15.6124L7.03531 14.3166C7.03531 14.3166 4.37824 8.38803 4.03942 6.52323C3.7006 4.65842 5.94752 3.5567 6.71432 3.42124C7.48113 3.28578 10.1872 2.96972 10.4414 2.96972C10.6955 2.96972 15.2205 2.82523 16.2771 5.41699C16.2771 5.41699 16.4465 6.10782 15.2205 7.00184C13.9945 7.89587 10.3566 10.6366 10.3566 10.6366L9.46501 10.5779L13.8117 6.58192C13.8117 6.58192 14.9084 4.53651 11.5826 4.32429C8.25685 4.11208 5.29217 3.64249 6.37104 6.55483L9.0192 13.5264L11.5247 13.0071L12.0285 13.6438L9.67009 14.3346H9.44272C9.44272 14.3346 9.98662 15.8021 12.2647 20.1006Z" fill="#007536"/>
<path d="M20.0531 6.58185C20.0531 6.58185 17.1152 9.74253 16.5624 11.2867C16.5624 11.2867 15.2918 12.4427 17.1152 13.6889C18.9386 14.9351 26.5175 19.8974 29.2503 19.6355C29.2503 19.6355 29.5356 19.9561 29.5624 18.9762C29.5891 17.9964 30.4763 12.0589 28.8535 8.25249C27.2308 4.44613 26.5398 2.80709 26.5398 2.80709L28.7376 1.65118C28.7376 1.65118 29.3841 1.39381 29.8299 2.22914C30.2757 3.06446 32.9239 9.52128 32.6162 20.7417C32.6162 20.7417 29.9413 22.6471 27.8193 21.4912C27.8193 21.4912 17.2133 18.3306 13.4595 14.0004C13.4595 14.0004 11.9214 13.0567 15.0689 9.21424L18.845 5.69686C18.845 5.69686 20.0219 4.9112 20.441 5.22727C20.8601 5.54334 20.0531 6.58185 20.0531 6.58185Z" fill="#FFBB00"/>
<path d="M34.8274 20.8455C34.8274 20.8455 34.346 10.4152 32.3264 7.12814L32.4646 6.62243L34.4307 5.71937C34.4307 5.71937 42.9012 14.4383 46.2404 17.59C46.2404 17.59 47.0384 9.51671 44.9029 2.96506L47.3326 2.06201C47.3326 2.06201 48.9242 13.8017 49 21.4776L46.8868 22.3807L36.3923 11.3364L36.9941 19.5496L34.8274 20.8455Z" fill="#007536"/>
</svg>
