<svg width="65" height="24" viewBox="0 0 65 24" fill="none" xmlns="http://www.w3.org/2000/svg">
<g clip-path="url(#clip0_493_14851)">
<path d="M59.779 14.0487C59.5969 15.5434 58.9092 16.7423 57.917 16.7423C56.9222 16.7423 56.5554 15.5434 56.7401 14.0487C56.9222 12.546 57.5936 11.3337 58.5802 11.3337C59.5776 11.3311 59.9612 12.546 59.779 14.0487ZM64.424 18.0984C64.6847 17.5576 63.2252 18.2396 63.6083 15.0638C63.7934 13.689 64.5 9.13295 64.5 9.13295C64.5 9.05569 64.4403 9.03439 64.4403 9.03439H60.3877C60.3877 9.03439 60.2653 9.05569 60.2653 9.15161C60.2653 9.15161 60.1867 9.69514 60.0831 10.5317C59.5939 9.41274 58.7026 8.63472 57.3084 8.63472C54.65 8.63472 52.9104 11.0699 52.5681 13.8062C52.2202 16.4812 53.2966 19.4946 55.8458 19.4946C57.2676 19.4946 58.4823 18.538 59.3358 17.2405C59.4148 18.6553 60.4066 19.5186 61.809 19.5186C62.9455 19.5186 64.1383 18.7379 64.424 18.0984ZM46.2351 9.59123C46.4417 8.89051 47.0289 6.9349 47.8987 6.9349C48.4068 6.9349 48.4257 7.21731 48.4068 7.47575C48.244 8.69603 46.2351 9.59123 46.2351 9.59123ZM46.5396 13.1641C47.5507 13.3453 47.8798 14.046 47.817 15.1224C47.7981 15.7005 47.2952 17.3391 46.2351 17.3391C44.7566 17.3391 45.2025 14.1659 45.3653 13.2867C45.3653 13.2867 46.0152 13.0868 46.5396 13.1641ZM51.4865 14.1659C51.2662 11.3311 47.9992 10.7316 45.6861 11.5122L45.7897 11.1099C54.0603 10.212 52.7201 4.19862 48.6271 4.32118C43.8868 4.44108 41.2722 10.212 41.2722 14.5629C41.2722 17.3204 42.9302 19.5958 45.9988 19.5958C49.1327 19.5958 51.7284 17.4004 51.4865 14.1659ZM39.1141 19.1402C39.1141 19.1402 40.291 9.75375 40.3481 9.29548C40.3481 9.23422 40.31 9.21291 40.2883 9.21291H40.3073C37.149 8.57346 34.2897 8.61342 31.4902 9.21291C31.4684 9.21291 31.4086 9.23422 31.4086 9.31413C31.4086 9.31413 31.02 12.53 30.4139 14.086C29.2587 16.9608 28.0003 17.102 27.9595 17.4803C27.9024 17.9013 28.4053 19.681 30.2916 19.681C31.9332 19.681 33.0693 18.642 33.6754 16.2467C34.0858 14.6695 34.3277 12.911 34.4093 11.054H36.0482C35.684 14.0087 35.0344 19.1428 35.0344 19.1428C35.0344 19.2415 35.116 19.2415 35.116 19.2415H39.0298C39.0353 19.2361 39.1141 19.2361 39.1141 19.1402ZM22.6105 14.0487C22.4285 15.5434 21.7381 16.7423 20.746 16.7423C19.7512 16.7423 19.3897 15.5434 19.5719 14.0487C19.7512 12.546 20.4226 11.3337 21.4173 11.3337C22.4094 11.3311 22.79 12.546 22.6105 14.0487ZM27.2502 18.0984C27.5138 17.5576 26.0515 18.2396 26.4402 15.0638C26.6196 13.689 27.3317 9.13295 27.3317 9.13295C27.3317 9.05569 27.2746 9.03439 27.2746 9.03439H23.2167C23.2167 9.03439 23.0971 9.05569 23.0971 9.15161C23.0971 9.15161 23.0128 9.69514 22.9122 10.5317C22.4257 9.41274 21.537 8.63472 20.1372 8.63472C17.4817 8.63472 15.7422 11.0699 15.3943 13.8062C15.0491 16.4812 16.1227 19.4946 18.6803 19.4946C20.0964 19.4946 21.3141 18.538 22.1621 17.2405C22.2436 18.6553 23.2411 19.5186 24.6354 19.5186C25.7743 19.5186 26.9647 18.7379 27.2502 18.0984ZM14.4539 19.2361H8.98262C8.87932 19.2361 8.86029 19.1375 8.86029 19.1375L6.67235 13.8648C4.72627 15.221 5.79989 17.3791 6.18582 17.7761C6.34891 18.0372 5.31336 19.6731 3.4461 19.6731C1.68757 19.6731 0.407404 18.253 0.505252 16.4945C0.627561 14.4403 2.88076 12.3435 5.75638 11.5255L2.47307 5.07786C2.47307 5.07786 2.43502 4.93665 2.59538 4.93665H7.72418C7.82748 4.93665 7.86825 5.05654 7.86825 5.05654L9.98012 10.3479C12.0675 9.1463 10.8689 6.39403 10.4449 5.99438C10.3008 5.85584 10.8689 4.61692 12.7362 4.45706C14.761 4.27323 16.0385 5.65602 16.0004 7.43312C15.9624 9.52727 13.9103 11.6481 10.9749 12.5034L14.5218 19.1348C14.5164 19.1402 14.5762 19.2361 14.4539 19.2361Z" fill="#F26924"/>
</g>
<defs>
<clipPath id="clip0_493_14851">
<rect width="64" height="24" fill="white" transform="translate(0.5)"/>
</clipPath>
</defs>
</svg>
