<svg width="24" height="24" viewBox="0 0 24 24" fill="none" xmlns="http://www.w3.org/2000/svg">
<path d="M11.9949 20.4574C12.4873 20.4574 12.8992 20.0657 12.8992 19.5835V12.9043H19.3877C19.8699 12.9043 20.292 12.4928 20.292 12.0004C20.292 11.5084 19.8699 11.1064 19.3877 11.1064H12.8992V4.4164C12.8992 3.93468 12.4873 3.54297 11.9949 3.54297C11.5029 3.54297 11.1009 3.93468 11.1009 4.41683V11.1068H4.61229C4.13015 11.1068 3.70801 11.5084 3.70801 12.0004C3.70801 12.4924 4.13015 12.9047 4.61229 12.9047H11.1009V19.584C11.1009 20.0661 11.5029 20.4583 11.9949 20.4583" fill="#3968BF"/>
</svg>
