<svg width="24" height="24" viewBox="0 0 24 24" fill="none" xmlns="http://www.w3.org/2000/svg">
<path d="M0 12C0 5.37258 5.37258 0 12 0C18.6274 0 24 5.37258 24 12C24 18.6274 18.6274 24 12 24C5.37258 24 0 18.6274 0 12Z" fill="#0077B5"/>
<path fill-rule="evenodd" clip-rule="evenodd" d="M8.66094 7.41135C8.66094 8.1959 8.07039 8.82367 7.12216 8.82367H7.10478C6.19179 8.82367 5.60156 8.1959 5.60156 7.41135C5.60156 6.6102 6.20977 6 7.14008 6C8.07039 6 8.64329 6.6102 8.66094 7.41135ZM8.48183 9.93892V18.1098H5.76237V9.93892H8.48183ZM18.2891 18.1098L18.2893 13.4249C18.2893 10.9151 16.9477 9.74706 15.1581 9.74706C13.7143 9.74706 13.0678 10.5401 12.7069 11.0965V9.93914H9.98711C10.023 10.7059 9.98711 18.11 9.98711 18.11H12.7069V13.5467C12.7069 13.3025 12.7246 13.0589 12.7965 12.8841C12.993 12.3962 13.4405 11.8911 14.1918 11.8911C15.1763 11.8911 15.5698 12.6404 15.5698 13.7384V18.1098H18.2891Z" fill="white"/>
</svg>
