<svg width="14" height="17" viewBox="0 0 14 17" fill="none" xmlns="http://www.w3.org/2000/svg">
<path d="M11.9643 6.58036C11.9643 5.15245 11.3971 3.78303 10.3874 2.77334C9.37769 1.76366 8.00826 1.19643 6.58036 1.19643C5.15245 1.19643 3.78303 1.76366 2.77334 2.77334C1.76366 3.78303 1.19643 5.15245 1.19643 6.58036C1.19643 8.78896 2.96355 11.6676 6.58036 15.1157C10.1972 11.6676 11.9643 8.78896 11.9643 6.58036ZM6.58036 16.75C2.19305 12.7623 0 9.37162 0 6.58036C0 4.83514 0.693286 3.1614 1.92734 1.92734C3.1614 0.693286 4.83514 0 6.58036 0C8.32558 0 9.99932 0.693286 11.2334 1.92734C12.4674 3.1614 13.1607 4.83514 13.1607 6.58036C13.1607 9.37162 10.9677 12.7623 6.58036 16.75Z" fill="#3968BF"/>
<path d="M6.58043 8.37507C7.0564 8.37507 7.51287 8.18599 7.84943 7.84943C8.18599 7.51287 8.37507 7.0564 8.37507 6.58043C8.37507 6.10446 8.18599 5.64798 7.84943 5.31142C7.51287 4.97486 7.0564 4.78578 6.58043 4.78578C6.10446 4.78578 5.64798 4.97486 5.31142 5.31142C4.97486 5.64798 4.78578 6.10446 4.78578 6.58043C4.78578 7.0564 4.97486 7.51287 5.31142 7.84943C5.64798 8.18599 6.10446 8.37507 6.58043 8.37507ZM6.58043 9.5715C5.78715 9.5715 5.02635 9.25637 4.46542 8.69543C3.90449 8.1345 3.58936 7.37371 3.58936 6.58043C3.58936 5.78715 3.90449 5.02635 4.46542 4.46542C5.02635 3.90449 5.78715 3.58936 6.58043 3.58936C7.37371 3.58936 8.1345 3.90449 8.69543 4.46542C9.25637 5.02635 9.5715 5.78715 9.5715 6.58043C9.5715 7.37371 9.25637 8.1345 8.69543 8.69543C8.1345 9.25637 7.37371 9.5715 6.58043 9.5715Z" fill="#3968BF"/>
</svg>
