<svg width="23" height="20" viewBox="0 0 23 20" fill="none" xmlns="http://www.w3.org/2000/svg">
<path d="M0.000796168 11.7078C0.105094 11.2851 0.253181 10.8792 0.566076 10.5347C1.10349 9.94216 1.79695 9.61524 2.65761 9.60256C3.58514 9.58917 4.51427 9.5941 5.4442 9.60256C5.62493 9.60256 5.69977 9.55817 5.75789 9.40458C6.69684 6.89256 7.63976 4.38242 8.58667 1.87416C9.02377 0.716553 10.1344 8.12692e-06 11.4744 8.12692e-06C12.1042 -0.00137896 12.7182 0.174828 13.2273 0.503073C13.7364 0.831318 14.114 1.29453 14.3055 1.82554C14.4062 2.11649 14.4582 2.41889 14.46 2.72316C14.4759 4.12736 14.4672 5.53227 14.4672 6.93718V7.20069H14.745C16.4894 7.20069 18.2338 7.19646 19.979 7.20069C21.7481 7.20703 23.1072 8.45764 22.9933 10.0049C22.9583 10.4833 22.8054 10.9553 22.6924 11.4274C22.2593 13.2332 21.8293 15.0397 21.3819 16.8427C20.9185 18.7126 19.0857 19.9914 16.878 19.9935C13.5611 19.9968 10.2438 19.9968 6.92587 19.9935C5.57875 19.9935 4.23084 19.9703 2.88372 19.9992C1.2675 20.0337 0.1871 19.0015 0.0326429 17.9559C0.0250006 17.9377 0.0139664 17.9208 0 17.9059L0.000796168 11.7078ZM7.23558 18.3892C7.30245 18.3934 7.34624 18.3984 7.38924 18.3984C10.5795 18.3984 13.7697 18.4061 16.96 18.3942C18.3079 18.3892 19.3541 17.6001 19.6359 16.4326C20.1391 14.3485 20.6433 12.2649 21.1486 10.1817C21.1894 10.0341 21.2023 9.88146 21.1868 9.73009C21.1072 9.16643 20.6223 8.80569 19.9623 8.80428C17.8875 8.80428 15.8135 8.79231 13.7387 8.80992C13.163 8.81485 12.6424 8.53443 12.6527 7.84325C12.679 6.16004 12.6662 4.47683 12.6527 2.79362C12.6569 2.57502 12.6057 2.35836 12.503 2.15951C12.269 1.74663 11.8526 1.56344 11.3335 1.60854C10.8144 1.65363 10.4808 1.9108 10.3183 2.34129C9.30296 5.03226 8.2897 7.72418 7.27857 10.417C7.2476 10.5118 7.23363 10.6102 7.23717 10.7087C7.23717 13.1874 7.23717 15.6661 7.23717 18.1447L7.23558 18.3892ZM5.40439 18.3991V11.2153C5.37272 11.2066 5.3402 11.2004 5.30726 11.197C4.43147 11.197 3.55569 11.1871 2.6799 11.2005C2.17672 11.2076 1.80969 11.5613 1.8081 12.0227C1.80332 13.8701 1.80332 15.7175 1.8081 17.5649C1.8081 18.0581 2.18628 18.3864 2.73961 18.3934C3.18786 18.3998 3.6369 18.3934 4.08594 18.3934L5.40439 18.3991Z" fill="#3968BF"/>
</svg>
