<svg width="20" height="20" viewBox="0 0 20 20" fill="none" xmlns="http://www.w3.org/2000/svg">
<path fill-rule="evenodd" clip-rule="evenodd" d="M9.99999 14.9999L6.59634 16.7893C6.18897 17.0034 5.68511 16.8468 5.47094 16.4395C5.38566 16.2772 5.35623 16.0914 5.38721 15.9108L6.03725 12.1208L3.28364 9.43667C2.95407 9.11542 2.94733 8.58783 3.26858 8.25826C3.3965 8.12702 3.56412 8.04162 3.74548 8.01526L7.55088 7.46231L9.25271 4.01403C9.45639 3.60132 9.95608 3.43187 10.3688 3.63556C10.5331 3.71666 10.6662 3.84969 10.7473 4.01403L12.4491 7.46231L16.2545 8.01526C16.7099 8.08144 17.0255 8.50431 16.9593 8.95977C16.933 9.14113 16.8476 9.30875 16.7163 9.43667L13.9627 12.1208L14.6128 15.9108C14.6906 16.3644 14.3859 16.7952 13.9323 16.873C13.7517 16.904 13.5659 16.8746 13.4036 16.7893L9.99999 14.9999Z" fill="#19191E"/>
</svg>
