<svg width="24" height="24" viewBox="0 0 24 24" fill="none" xmlns="http://www.w3.org/2000/svg">
<path d="M8.22 5.00715L8.25625 5.0026L8.3125 5L8.35938 5.00195L8.43813 5.013L8.5075 5.0325L8.57688 5.0611L8.63813 5.0949L8.70313 5.14301L8.75438 5.19046L12.192 8.76564C12.3041 8.88262 12.3691 9.03958 12.374 9.20466C12.3788 9.36974 12.3231 9.53054 12.2181 9.65441C12.113 9.77829 11.9666 9.85594 11.8085 9.8716C11.6504 9.88726 11.4926 9.83976 11.3669 9.73874L11.3082 9.68478L8.93751 7.21986V17.3506C8.93734 17.5163 8.87634 17.6757 8.76698 17.7961C8.65762 17.9166 8.50816 17.9891 8.34913 17.9988C8.1901 18.0085 8.03351 17.9547 7.91135 17.8484C7.78918 17.742 7.71068 17.5912 7.69186 17.4267L7.68749 17.3506V7.21986L5.31681 9.68478C5.20919 9.7967 5.066 9.86394 4.9141 9.87387C4.76221 9.8838 4.61205 9.83575 4.49179 9.73874L4.43304 9.68478C4.32543 9.57285 4.26078 9.42393 4.25123 9.26596C4.24168 9.10798 4.28788 8.95181 4.38117 8.82674L4.43304 8.76564L7.87062 5.19046C7.89243 5.16769 7.91583 5.14661 7.94062 5.12741L8.00937 5.08125L8.08062 5.04615L8.14625 5.0234L8.22 5.00715ZM15.1876 5C15.3407 5.00002 15.4885 5.05847 15.6029 5.16427C15.7173 5.27007 15.7904 5.41586 15.8083 5.57398L15.8127 5.65003V15.7808L18.1833 13.3159L18.2421 13.2619C18.3623 13.165 18.5125 13.117 18.6643 13.1269C18.8162 13.1369 18.9593 13.2041 19.0669 13.316C19.1745 13.4279 19.2392 13.5768 19.2488 13.7347C19.2583 13.8927 19.2122 14.0488 19.119 14.1739L19.0671 14.235L15.6295 17.8102L15.602 17.8368L15.5595 17.8732L15.4908 17.9194L15.4195 17.9545L15.3539 17.9773L15.2808 17.9935L15.2245 18H15.1508L15.1133 17.9961L15.042 17.9831L14.9739 17.9616L14.9233 17.9395L14.862 17.9057L14.802 17.8622C14.7823 17.846 14.7635 17.8287 14.7458 17.8102L11.3082 14.235L11.2563 14.1739C11.1713 14.0599 11.1251 13.9197 11.1251 13.7754C11.1251 13.6312 11.1713 13.491 11.2563 13.377L11.3082 13.3159L11.3669 13.2619C11.4765 13.1735 11.6113 13.1255 11.7501 13.1255C11.8888 13.1255 12.0236 13.1735 12.1332 13.2619L12.192 13.3159L14.5626 15.7808V5.65003L14.567 5.57398C14.5849 5.41586 14.658 5.27007 14.7724 5.16427C14.8868 5.05847 15.0346 5.00002 15.1876 5Z" fill="#3968BF"/>
<path d="M8 18C8 18.2761 8.22386 18.5 8.5 18.5C8.77614 18.5 9 18.2761 9 18H8ZM8 7V18H9V7H8Z" fill="#3968BF"/>
</svg>
