<svg width="74" height="74" viewBox="0 0 74 74" fill="none" xmlns="http://www.w3.org/2000/svg">
<g clip-path="url(#clip0_4781_35497)">
<path d="M60.4425 40.7341L59.1887 39.9077L57.214 42.5938L57.0827 42.773L57.0638 42.7982L57.0436 42.8247L57.0183 42.86L56.8289 43.1174L56.7014 43.2915L56.6269 43.3925L50.2471 52.069L50.2736 52.9308L50.3658 55.849C50.3847 56.495 51.2079 56.7473 51.5917 56.2326C54.9565 51.6439 58.1521 46.5088 60.195 41.3725L60.4425 40.7341Z" fill="#59CBAF"/>
<path d="M57.5917 42.8791L57.5097 42.9926L57.2887 43.2942L57.2533 43.2134L57.2218 43.2677L57.1776 43.3068L57.0475 43.4077L56.9655 43.4923L50.275 52.9296L50.2472 52.0679L49.9518 42.6747L49.9404 42.6734V42.1221L56.3266 42.7542L56.7597 42.7971L57.0097 42.821L57.0438 42.8248L57.0589 42.8261L57.0728 42.8273L57.4124 42.8614L57.5917 42.8791Z" fill="#A1D04C"/>
<path d="M57.2549 43.3172L57.1085 43.4143L57.0706 43.4396L56.9658 43.4282L56.9532 43.4269L56.8964 43.4206L56.7853 43.4093L56.6287 43.3929L49.9534 42.6762L49.942 42.675V42.3141L49.6554 33.2137L49.6289 32.3721C49.6289 32.3696 49.6289 32.3658 49.6289 32.3633L56.5075 41.6391L56.8547 42.1085L57.1236 42.4706L57.1363 42.487L57.2158 42.5955L57.414 42.863L57.5113 42.9942L57.5895 43.0989L57.2549 43.3172Z" fill="#E5ED28"/>
<path d="M56.9489 43.5196L56.935 43.5285L56.7847 43.4074L56.7026 43.2888L56.3277 42.7525L49.6549 33.2105L49.6284 32.3689C49.6284 32.3664 49.6284 32.3626 49.6284 32.3601C49.5943 31.0808 50.1826 29.867 51.2192 29.1188L53.4123 27.5266L53.6181 27.3765L56.8529 42.1053L57.0095 42.8194L57.0183 42.8573L57.0372 42.9443L57.0448 42.9784L57.1357 43.3922L57.1004 43.396L57.0473 43.4036L56.9489 43.5196Z" fill="#DEDD23"/>
<path d="M60.8367 21.7515L60.8102 21.8978L60.7938 21.9874L57.1335 42.4846L57.0818 42.771L57.0717 42.8265L57.0439 42.9805L56.9643 43.4271L56.9492 43.5142L56.9479 43.5192L56.9467 43.5167L56.9391 43.5015L56.8949 43.4195L56.828 43.1155L56.7573 42.795L56.5035 41.6368L53.4102 27.5274L53.616 27.3773L56.1841 25.5138C57.8658 24.2937 59.2837 23.1368 60.4377 22.0429C60.5059 21.9786 60.5716 21.9155 60.6372 21.8511L60.8367 21.7515Z" fill="#C5DF26"/>
<path d="M60.4427 40.7334C61.776 37.2146 62.5487 33.7071 62.4452 30.3851C62.3795 28.3904 62.1182 26.4525 61.6687 24.589C61.6131 24.3454 61.6876 24.1019 61.8657 23.9329C62.7823 23.08 63.5601 22.2548 64.2027 21.4512L64.2924 21.3389L60.8114 21.8991L60.7432 21.9104L60.7281 22L57.1234 42.4695L57.0653 42.7988L57.0603 42.8265L57.0388 42.9464L56.9542 43.4258L56.9365 43.528L56.9504 43.5192L57.0716 43.4384L57.1373 43.3955L57.29 43.2946L57.588 43.0978L60.1965 41.3718L60.4427 40.7334Z" fill="#9DC62A"/>
<path d="M66.4873 16.7966C66.2549 18.2589 65.5353 19.7578 64.2916 21.3387L64.202 21.451L60.7942 21.9884L60.7261 21.9998L60.4395 22.0452C60.5076 21.9809 60.5733 21.9178 60.6389 21.8534C62.7449 19.8184 63.9242 18.0041 64.1755 16.4131C64.2487 15.9412 64.2386 15.4984 64.1414 15.0871C64.0896 14.8637 64.0113 14.6505 63.9078 14.4449L65.0921 12.1133C65.1628 12.1877 65.2322 12.2647 65.2992 12.3442C65.3875 12.4476 65.4709 12.5561 65.5517 12.6672C66.4027 13.8468 66.7309 15.27 66.4873 16.7966Z" fill="#B7C017"/>
<path d="M65.2987 12.3435L64.1409 15.0863C64.0891 14.863 64.0109 14.6498 63.9073 14.4442C63.8341 14.2991 63.7495 14.159 63.651 14.024C63.1649 13.3503 62.4629 12.9377 61.5463 12.7876C60.0249 12.5403 58.0401 13.0475 55.5932 14.3028L55.5831 14.3079L54.5654 11.6445L54.5717 11.6508C54.5793 11.6584 54.5869 11.6659 54.5932 11.6735C54.799 11.8792 55.1083 11.9359 55.3697 11.8136C57.9239 10.6238 60.0665 10.2024 61.9099 10.4926C63.1813 10.6957 64.2697 11.2496 65.0904 12.1113C65.1636 12.187 65.2318 12.264 65.2987 12.3435Z" fill="#E9D912"/>
<path d="M52.0088 16.4527C51.495 16.7984 50.9659 17.1693 50.423 17.5643L47.6011 19.6157L47.5771 19.6334L51.9924 9.27881C52.0013 9.28512 52.0101 9.29269 52.0189 9.30026C52.0657 9.33811 52.1136 9.37596 52.1603 9.41507C52.1704 9.4239 52.1818 9.43147 52.1919 9.4403L52.024 16.4426L52.0088 16.4527Z" fill="#F3D71A"/>
<path d="M52.0188 9.3005L47.601 19.616L47.5771 19.6337L44.5203 21.8567L44.0999 22.1633C44.091 22.1696 44.0822 22.1759 44.0734 22.1822C44.0683 22.186 44.0633 22.1886 44.0582 22.1923C44.057 22.1936 44.0557 22.1949 44.0532 22.1949C44.0481 22.1986 44.0418 22.2012 44.0368 22.205C44.0342 22.2062 44.033 22.2075 44.0304 22.2087C44.0254 22.2113 44.0203 22.2138 44.0153 22.2163C44.0128 22.2176 44.009 22.2201 44.0065 22.2214C44.0027 22.2239 43.9976 22.2251 43.9938 22.2277C43.9913 22.2289 43.9888 22.2302 43.985 22.2315C43.9787 22.234 43.9724 22.2365 43.966 22.239C43.9648 22.239 43.9648 22.2403 43.9635 22.2403C43.9585 22.2428 43.9522 22.2453 43.9458 22.2466C43.9357 22.2504 43.9256 22.2542 43.9155 22.2567C43.9092 22.2592 43.9029 22.2605 43.8966 22.2617C43.8953 22.2617 43.8941 22.263 43.8941 22.263C43.8903 22.2643 43.8852 22.2655 43.8815 22.2668C43.8739 22.268 43.8676 22.2706 43.86 22.2718C43.8562 22.2731 43.8512 22.2743 43.8474 22.2743C43.8411 22.2756 43.8347 22.2769 43.8284 22.2781C43.8208 22.2794 43.8145 22.2807 43.807 22.2819C43.8057 22.2819 43.8044 22.2819 43.8032 22.2819C43.7956 22.2832 43.7893 22.2832 43.783 22.2844C43.7754 22.2857 43.7678 22.2857 43.7602 22.2857L41.4775 6.67242L41.4737 6.64845L41.2881 5.37542L40.9346 3.88916C40.9636 3.89547 40.9926 3.90304 41.023 3.90935C41.0432 3.91439 41.0621 3.91818 41.081 3.92323C41.0836 3.92449 41.0873 3.92449 41.0911 3.92575C41.1252 3.93332 41.1593 3.94215 41.1934 3.94972C41.2224 3.95729 41.2527 3.9636 41.2818 3.97117C45.2539 4.9414 48.8952 6.77588 51.9923 9.28031C52.0012 9.28536 52.01 9.29293 52.0188 9.3005Z" fill="#F9B411"/>
<path d="M44.5191 21.8569L44.0987 22.1635C44.0898 22.1698 44.081 22.1761 44.0722 22.1824C44.0671 22.1862 44.0621 22.1887 44.057 22.1925C44.0557 22.1937 44.0545 22.195 44.052 22.195C44.0469 22.1988 44.0406 22.2013 44.0355 22.2051C44.033 22.2064 44.0318 22.2076 44.0292 22.2089C44.0242 22.2114 44.0191 22.2139 44.0141 22.2165C44.0116 22.2177 44.0078 22.2202 44.0052 22.2215C44.0014 22.224 43.9964 22.2253 43.9926 22.2278C43.9901 22.2291 43.9876 22.2303 43.9838 22.2316C43.9775 22.2341 43.9711 22.2366 43.9648 22.2392C43.9636 22.2392 43.9636 22.2404 43.9623 22.2404C43.9573 22.243 43.9509 22.2455 43.9446 22.2467C43.9345 22.2505 43.9244 22.2543 43.9143 22.2568C43.908 22.2594 43.9017 22.2606 43.8954 22.2619C43.8941 22.2619 43.8929 22.2631 43.8929 22.2631C43.8891 22.2644 43.884 22.2657 43.8802 22.2669C43.8727 22.2682 43.8664 22.2707 43.8588 22.272C43.855 22.2732 43.8499 22.2745 43.8462 22.2745C43.8398 22.2758 43.8335 22.277 43.8272 22.2783C43.8196 22.2795 43.8133 22.2808 43.8057 22.2821C43.8045 22.2821 43.8032 22.2821 43.802 22.2821C43.7944 22.2833 43.7881 22.2833 43.7818 22.2846C43.7742 22.2858 43.7666 22.2859 43.759 22.2859C43.7515 22.2859 43.7439 22.2871 43.735 22.2871C43.7073 22.2884 43.6795 22.2871 43.6517 22.2846C43.6416 22.2833 43.6315 22.2833 43.6214 22.2808C43.6164 22.2808 43.6113 22.2795 43.6063 22.2783C43.5962 22.277 43.5861 22.2758 43.5772 22.2732C43.5696 22.272 43.5621 22.2707 43.5545 22.2682C43.528 22.2619 43.5002 22.2543 43.4737 22.2455L42.8714 22.0272L42.8626 22.0234L32.9374 6.88327L32.9336 6.87697L41.4737 6.64734L41.6101 6.64355H41.6253L44.5191 21.8569Z" fill="#F8950C"/>
<path d="M32.7314 2.39062H32.7407L32.7314 2.39326V2.39062Z" fill="#F97008"/>
<path d="M41.614 6.66896L41.4776 6.67275L32.9488 6.88345H32.9375H32.9274V6.88218V6.88092L32.7695 3.25738C32.7758 3.25738 32.7809 3.25612 32.7872 3.25612C32.7948 3.25612 32.8036 3.25486 32.8112 3.25486C33.1685 3.22962 33.5283 3.21196 33.8907 3.20061C34.1735 3.19177 34.4564 3.18799 34.7366 3.18799C34.7657 3.18799 34.7935 3.18799 34.8225 3.18799C34.8515 3.18799 34.8793 3.18799 34.9084 3.18799C34.9185 3.18799 34.9273 3.18799 34.9361 3.18799C34.969 3.18799 35.0018 3.18799 35.0346 3.18925H35.0359C35.075 3.18925 35.1154 3.19051 35.1546 3.19051C35.1912 3.19051 35.2278 3.19177 35.2631 3.19177C35.2669 3.19177 35.2707 3.19177 35.2745 3.19177C35.2796 3.19177 35.2833 3.19177 35.2884 3.19177C35.2998 3.19177 35.3124 3.19177 35.3238 3.19303C35.3301 3.19303 35.3351 3.19303 35.3414 3.19303C35.3477 3.19303 35.3528 3.19303 35.3591 3.19303C35.3957 3.1943 35.4336 3.1943 35.4702 3.19556C35.498 3.19556 35.527 3.19682 35.5561 3.19808C35.5851 3.19934 35.6154 3.19934 35.6444 3.20061C35.6735 3.20187 35.7013 3.20187 35.7303 3.20313C35.7556 3.20439 35.7795 3.20439 35.8048 3.20565C35.8338 3.20691 35.8629 3.20817 35.8919 3.20944C35.9172 3.2107 35.9424 3.21196 35.9677 3.21322C35.9879 3.21448 36.0093 3.21448 36.0295 3.21574C36.0586 3.21701 36.0889 3.21827 36.1179 3.21953C36.1318 3.22079 36.147 3.22079 36.1608 3.22205C36.1634 3.22205 36.1659 3.22205 36.1684 3.22205C36.1709 3.22205 36.1735 3.22205 36.176 3.22205C36.1823 3.22205 36.1899 3.22205 36.1962 3.22332L36.2871 3.22836C36.3212 3.22962 36.3553 3.23215 36.3894 3.23467C36.4071 3.23593 36.4235 3.23719 36.4411 3.23719C36.4664 3.23846 36.4929 3.23972 36.5182 3.24224C36.551 3.24476 36.5838 3.24603 36.6166 3.24855C36.6533 3.25107 36.6911 3.2536 36.7277 3.25612C36.7353 3.25612 36.7416 3.25738 36.7492 3.25738L36.7745 3.25864C36.7884 3.2599 36.8022 3.26117 36.8174 3.26117C36.8843 3.26621 36.9512 3.27126 37.0169 3.27631C37.0472 3.27883 37.0762 3.28135 37.1065 3.28388C37.133 3.2864 37.1608 3.28892 37.1873 3.29145C37.2176 3.29397 37.2492 3.29649 37.2795 3.30028C37.3237 3.30406 37.3666 3.30785 37.4108 3.31289C37.4386 3.31542 37.4676 3.31794 37.4967 3.32173C37.4992 3.32173 37.503 3.32173 37.5055 3.32299C37.5282 3.32551 37.551 3.32803 37.5724 3.3293C37.5787 3.33056 37.5863 3.33056 37.5926 3.33182C37.6166 3.33434 37.6393 3.33687 37.6633 3.33939C37.6722 3.34065 37.681 3.34065 37.6898 3.34191C37.7239 3.3457 37.758 3.34948 37.7921 3.35327C37.7972 3.35327 37.8035 3.35453 37.8085 3.35453C37.8603 3.36084 37.9121 3.36589 37.9651 3.37219C38.0396 3.38103 38.1141 3.38986 38.1873 3.39869C38.2113 3.40121 38.2365 3.405 38.2618 3.40752C38.2971 3.41257 38.3338 3.41635 38.3691 3.4214C38.4007 3.42518 38.4335 3.43023 38.4651 3.43402C38.4966 3.4378 38.5295 3.44285 38.561 3.44663C38.5939 3.45168 38.6254 3.45546 38.657 3.46051C38.6886 3.46556 38.7189 3.46934 38.7504 3.47439C38.7542 3.47439 38.7567 3.47565 38.7605 3.47565C38.7908 3.47944 38.8199 3.48448 38.8502 3.48953C38.8779 3.49331 38.9057 3.49836 38.9335 3.50215C38.9512 3.50467 38.9688 3.50719 38.9853 3.50972C39.0067 3.5135 39.0269 3.51602 39.0484 3.51981C39.0774 3.52486 39.1065 3.52864 39.1355 3.53369C39.1999 3.54378 39.263 3.55388 39.3262 3.56523C39.3577 3.57028 39.3893 3.57659 39.4221 3.58163C39.4537 3.58668 39.4852 3.59299 39.5168 3.59803C39.5484 3.60308 39.5799 3.60939 39.6115 3.61444C39.6431 3.61948 39.6746 3.62579 39.7062 3.6321C39.7693 3.64345 39.8325 3.65607 39.8956 3.66743C39.9272 3.67373 39.9587 3.68004 39.9903 3.68509C40.0218 3.6914 40.0534 3.69771 40.085 3.70401C40.1115 3.70906 40.1367 3.71411 40.1633 3.71916C40.1759 3.72168 40.1885 3.7242 40.2011 3.72672C40.2251 3.73177 40.2491 3.73682 40.2744 3.74187C40.3021 3.74691 40.3287 3.75322 40.3564 3.75827C40.3918 3.76584 40.4271 3.77341 40.4625 3.78098C40.4941 3.78729 40.5256 3.79486 40.5559 3.80116C40.5875 3.80747 40.6178 3.81504 40.6494 3.82135C40.6809 3.82766 40.7125 3.83523 40.7428 3.84154C40.7743 3.84911 40.8047 3.85542 40.8362 3.86299C40.8678 3.87056 40.8981 3.87686 40.9296 3.88443C40.9587 3.89074 40.9877 3.89831 41.018 3.90462C41.0382 3.90967 41.0572 3.91345 41.0761 3.9185C41.0786 3.91976 41.0824 3.91976 41.0862 3.92102C41.1203 3.92859 41.1544 3.93743 41.1885 3.945C41.2175 3.95257 41.2478 3.95887 41.2769 3.96644L41.4423 5.31392L41.6051 6.63994L41.614 6.66896Z" fill="#F97008"/>
<path d="M32.9496 6.93422L32.9471 6.93675L23.7074 15.0809L23.6683 15.1162L23.638 15.1427L23.6241 15.1011L23.6014 15.0443L20.4941 7.15123C20.6267 7.07048 20.7605 6.991 20.8944 6.91404C24.4233 4.85876 28.4522 3.56428 32.769 3.25643C32.7753 3.25643 32.7804 3.25517 32.7867 3.25517C32.7943 3.25517 32.8031 3.25391 32.8107 3.25391C32.8069 3.28292 32.8044 3.31194 32.8069 3.31194L32.9471 6.87619V6.88249L32.9483 6.90016L32.9496 6.93422Z" fill="#F46E0F"/>
<path d="M23.605 15.0433L23.6025 15.0421L15.7037 12.1781C15.2365 12.009 15.1052 11.4009 15.46 11.0539C16.9789 9.56892 18.667 8.25677 20.4965 7.15028C20.6291 7.06953 20.7629 6.99005 20.8967 6.91309L23.605 15.0433Z" fill="#F24C1C"/>
<path d="M42.8694 22.028L32.9378 6.88277L32.934 6.87646L32.9277 6.88151L23.6553 15.0622L42.8605 22.0242L42.8694 22.028Z" fill="#FD5E12"/>
<path d="M55.5842 14.3076C54.4895 14.8703 53.3027 15.5819 52.0237 16.4424L52.0098 16.4525L52.16 9.41357C52.1701 9.42241 52.1815 9.42998 52.1916 9.43881C53.0262 10.1252 53.8191 10.862 54.5678 11.643L54.5741 11.6493L55.5943 14.3013L55.5842 14.3076Z" fill="#F2E21B"/>
<path d="M9.10919 37.8793L20.2818 35.337L20.595 35.2651L20.701 35.2411L20.7061 35.2398L20.7351 35.2335L20.773 35.2247L20.7806 35.2234L20.8235 35.2133L20.821 35.1036L20.6669 27.3884L20.6631 27.1891L20.6556 26.8244L20.6518 26.6604L20.6278 25.4479L13.8338 23.8519L13.6002 23.7977L12.5788 23.558L12.474 23.534L11.6015 23.3296L11.3149 23.7939L11.2013 23.9794L7.00067 30.7874C6.99688 31.2063 6.9994 31.639 7.01077 32.0844C7.03223 33.0647 7.07263 33.7889 7.1244 34.3327C7.23298 35.4821 7.38828 35.8189 7.49686 36.036C7.82514 36.6731 8.27967 37.2081 8.82258 37.656L9.10919 37.8793Z" fill="#E62878"/>
<path d="M16.1477 21.2656L13.8346 23.8533L13.1629 24.6053L13.1617 24.6065L13.1566 24.6116L13.1427 24.6267L13.1301 24.6406L13.1023 24.5939L12.9091 24.2671L12.4748 23.5328L9.77539 18.9706C9.81958 18.9025 9.86882 18.8381 9.92059 18.7788C10.4673 18.1581 11.4218 18.0117 12.1453 18.5076L15.3371 20.7067L16.1477 21.2656Z" fill="#EA4118"/>
<path d="M13.1678 24.6158L13.1564 24.612L13.1527 24.6108L13.1021 24.5944L11.202 23.9787L8.14648 22.9883C8.15911 22.9454 8.173 22.9037 8.18562 22.8621C8.61743 21.5033 9.12878 20.3072 9.6578 19.1818C9.69189 19.1073 9.73103 19.0367 9.77522 18.9711C9.81942 18.9029 9.86866 18.8386 9.92042 18.7793L12.7272 23.3933L13.2764 24.3786L13.1552 24.5944L13.159 24.6019L13.1615 24.607L13.1628 24.6095L13.1678 24.6158Z" fill="#DB292F"/>
<path d="M13.2934 24.3829L13.1583 24.6012L13.1558 24.6062L13.152 24.6113L13.1419 24.6277L7.1244 34.3338C7.07263 33.79 7.03097 33.0645 7.01077 32.0855C6.9994 31.6401 6.99688 31.2086 7.00067 30.7885C7.03349 27.5724 7.49181 25.0844 8.14457 22.9875C8.1572 22.9446 8.17109 22.903 8.18371 22.8613L11.3137 23.7937L12.9071 24.2681L12.9853 24.2921L13.2745 24.3779L13.2934 24.3829Z" fill="#D61D4C"/>
<path d="M26.8917 28.6698L20.6571 26.8252L20.2581 26.7066L20.1066 26.6624L20.0005 26.6309L13.1623 24.6072H13.1598L13.156 24.6059L13.1484 24.6034L13.1548 24.5933V24.592L13.276 24.3775L13.6004 23.7984L15.3365 20.7061L16.1471 21.265L25.7907 27.9102V27.9115L25.8501 27.9519L26.8917 28.6698Z" fill="#E8313E"/>
<path d="M28.5247 29.7946L26.8922 28.6692L25.8505 27.9513L25.7912 27.9109V27.9097L20.6537 26.6606L20.107 26.5269L19.9896 26.4991L19.9795 26.4966L19.9909 26.5105L20.107 26.6619L20.6689 27.3886L24.0349 31.7489L24.0488 31.7666L24.0892 31.8196L24.2332 31.7553L24.4339 31.6657L28.5588 29.8186L28.5247 29.7946Z" fill="#E92B5F"/>
<path d="M24.1965 31.5804L19.9795 26.376L20.7244 35.4411L24.1965 31.5804Z" fill="#F5368D"/>
<path d="M8.82324 37.6561L9.10985 37.8794C11.0353 39.2887 13.8824 39.748 16.1703 39.8628L16.2107 39.8653L20.7067 35.2753L20.7105 35.2716L20.737 35.2451L20.7093 35.2501L20.7042 35.2514L20.7017 35.1567L20.232 35.2652L8.82324 37.6561Z" fill="#C91D7B"/>
<path d="M16.2103 39.866C16.7962 39.895 17.3441 39.9013 17.829 39.895C18.9905 39.8862 20.1168 39.5178 21.0662 38.8453L21.1193 38.8074L20.7885 35.3757L20.7784 35.2785L20.7733 35.2268L20.7721 35.2167L20.767 35.1624L20.7354 35.1952L20.7051 35.1523L20.6988 35.1587L20.6925 35.165L20.594 35.2672L20.5852 35.2772L16.1699 39.8634L16.2103 39.866Z" fill="#8D1171"/>
<path d="M28.5249 29.7954L24.3583 31.5769L24.1967 31.5807L24.0919 31.6905L24.1563 31.7863L24.0439 31.7409L24.049 31.7687L24.0932 32.0147L24.828 36.1164C24.924 36.047 25.0199 35.9764 25.1171 35.907C25.126 35.9007 25.1348 35.8944 25.1437 35.8881C26.4807 34.9166 27.8178 33.9451 29.1549 32.9761C30.0993 32.2834 30.0804 30.8691 29.117 30.2042L28.5602 29.8206L28.5249 29.7954Z" fill="#EB2D7D"/>
<path d="M25.1154 35.9051C25.0194 35.9745 24.9235 36.0452 24.8262 36.1146C24.2417 36.5397 23.6558 36.9649 23.0712 37.3901C23.0245 37.4242 22.9765 37.4582 22.9298 37.4923L20.8314 35.331L20.7796 35.2768L20.7367 35.2326L20.7178 35.2124L20.7443 35.1847L20.7683 35.1595L20.8226 35.1027L24.0333 31.7479L24.0422 31.7391L24.0901 31.6898L24.1949 31.5801L24.2076 31.6394L24.2316 31.7542L24.2518 31.8476L25.1154 35.9051Z" fill="#F0328E"/>
<path d="M21.1201 38.8056C21.1239 38.8031 21.1264 38.8006 21.1302 38.7981C21.7299 38.3628 22.3309 37.9275 22.9307 37.4922C22.9774 37.4582 23.0254 37.4241 23.0721 37.39L20.8625 35.2994L20.7817 35.2237L20.7729 35.2149L20.7426 35.1871L20.706 35.1518L20.6984 35.1455L20.6934 35.1644L20.7009 35.2427L20.7022 35.2528L20.7047 35.2767L21.0658 38.8448" fill="#CF2284"/>
<path d="M38.3864 44.6396L31.3045 53.2581L31.2174 53.3653L31.2022 53.3843L31.1782 53.412L31.1479 53.4499L31.1416 53.4574L31.1366 53.4637L31.1113 53.4953V42.4278L31.1492 42.4064C32.9863 41.3529 34.4345 40.717 35.0998 40.5366C36.014 40.2237 37.1692 40.5038 37.4508 41.45L38.221 44.068L38.2222 44.0743L38.3864 44.6396Z" fill="#FC772A"/>
<path d="M31.1095 42.4284C30.0918 43.0151 28.9997 43.7796 27.9492 44.7701C27.9075 44.8092 27.8659 44.8483 27.8242 44.8887L31.0766 53.3129L31.0931 53.3545L31.1095 53.3974L31.1246 53.4365L31.136 53.4643L31.141 53.4769L31.1486 53.4958V53.4933V53.4504V53.3318V53.3242V53.2965V53.2851V42.4082L31.1095 42.4284Z" fill="#C32979"/>
<path d="M22.7178 55.8279L31.1178 53.5607L31.1582 53.5506L31.2226 53.533L31.2049 53.4837L31.1784 53.4118L31.1658 53.3778L31.1481 53.3298L31.1443 53.3197L31.1355 53.2983V53.297L31.1102 53.2289L27.9499 44.7681C27.9083 44.8072 27.8666 44.8463 27.8249 44.8867C26.9639 45.7156 26.1343 46.6984 25.3995 47.863C24.0094 50.0545 23.0738 52.7103 22.767 55.3548L22.7178 55.8279Z" fill="#891F85"/>
<path d="M43.1044 60.6741L31.2411 53.5065L31.2222 53.4951L31.2057 53.4838L31.1843 53.4724L31.1477 53.4497L31.1376 53.4434L31.1249 53.4358L31.1098 53.427L31.0605 53.3967L31.0934 53.3538L31.1098 53.3324L31.1148 53.3248L31.1262 53.3097L31.135 53.2983L31.1363 53.297L31.1477 53.2819L38.2194 44.0679L38.2207 44.0742L38.3874 44.6394L43.0349 60.4382L43.0488 60.4861L43.0514 60.4937L43.1044 60.6741Z" fill="#AABF56"/>
<path d="M31.2697 53.3956L31.2419 53.5053L31.2318 53.5419L31.1901 53.7072L27.7243 67.2867C27.7003 67.2627 27.6764 67.2387 27.6524 67.216C25.0729 64.6712 24.251 63.3527 24.251 63.3527C22.9265 61.2382 22.4821 58.5546 22.7207 55.8268L22.7687 55.3537L31.079 53.3098L31.1119 53.3009H31.1131L31.1169 53.2997L31.1384 53.2946H31.1396L31.151 53.2808L31.2697 53.3956Z" fill="#5C40AE"/>
<path d="M35.1161 73.909L34.9393 73.846C34.7651 73.7703 34.6035 73.658 34.4658 73.5091L33.7828 72.7773C33.7727 72.7672 33.7651 72.7584 33.7563 72.7483C33.7411 72.7306 33.7272 72.7142 33.7083 72.7029C32.8674 71.9244 32.2412 71.3529 32.1288 71.2583C30.2867 69.7152 28.8423 68.3892 27.7224 67.289C27.6984 67.265 27.6744 67.2411 27.6504 67.2184L31.1175 53.562L31.1389 53.4774L31.1414 53.4686L31.1465 53.4497L31.1642 53.379L31.1743 53.3399L31.1654 53.3008L31.1945 53.3525L31.2008 53.3853L31.2223 53.4963L31.2311 53.5443L34.0391 68.2668L34.1893 69.0579L35.1161 73.909Z" fill="#203BA4"/>
<path d="M43.637 62.4849L34.2408 69.0784L34.232 69.0368L34.1916 69.0507L34.0401 68.2659L32.4871 60.1256L31.227 53.6923L31.2131 53.6178L31.1967 53.5333L31.1853 53.4765L31.1841 53.4727L31.1803 53.4513L31.1778 53.4412L31.1752 53.4273L31.1651 53.3769L31.1475 53.2822L31.1841 53.3049L31.1866 53.3062L31.3078 53.3794L43.0347 60.4385L43.0486 60.4864L43.0512 60.494L43.1042 60.6744L43.5726 62.2692L43.6345 62.4773L43.637 62.4849Z" fill="#286EC3"/>
<path d="M43.8786 65.6889C41.4695 68.399 39.4254 70.5047 38.2373 71.7273C37.683 72.2976 37.3156 72.6761 37.1856 72.8338C37.173 72.8401 37.1654 72.8502 37.1553 72.8615C37.1502 72.8678 37.1452 72.8741 37.1376 72.8817L36.5492 73.51C36.1717 73.9138 35.6111 74.05 35.1149 73.91L34.9382 73.8469L34.1895 69.0576L34.1932 69.055L34.2299 69.0285L43.5718 62.271L43.6324 62.4779L43.6349 62.4855L44.1778 64.3288C44.3179 64.8082 44.2056 65.323 43.8786 65.6889Z" fill="#3968BF" stroke="#3968BF" stroke-width="0.023015"/>
<path d="M56.9912 -0.0307617C55.1503 -0.0307617 53.6592 1.4618 53.6592 3.30133C53.6592 5.14212 55.1516 6.63343 56.9912 6.63343C58.832 6.63343 60.3231 5.14086 60.3231 3.30133C60.3231 1.4618 58.832 -0.0307617 56.9912 -0.0307617Z" fill="#E3D01E"/>
<path d="M12.0784 40.8491C10.9686 40.8491 10.0684 41.7487 10.0684 42.859C10.0684 43.9693 10.9686 44.8688 12.0784 44.8688C13.1882 44.8688 14.0884 43.9693 14.0884 42.859C14.0884 41.7487 13.1882 40.8491 12.0784 40.8491Z" fill="#C91D7B"/>
</g>
<defs>
<clipPath id="clip0_4781_35497">
<rect width="74" height="74" fill="white"/>
</clipPath>
</defs>
</svg>
