<svg width="24" height="24" viewBox="0 0 24 24" fill="none" xmlns="http://www.w3.org/2000/svg">
<path d="M12 0C18.6274 0 24 5.37258 24 12C24 18.6274 18.6274 24 12 24C5.37258 24 0 18.6274 0 12C0 5.37258 5.37258 0 12 0Z" fill="#7F4DA0"/>
<path d="M15.1355 10.5933C15.0836 10.1717 14.954 9.84069 14.7239 9.54747C14.425 9.1699 14.0432 8.94381 13.4778 8.80969C13.1094 8.72029 12.9605 8.73056 12.8273 8.85228C12.7031 8.96632 12.6789 9.19494 12.7738 9.34298C12.8405 9.45044 12.9174 9.48893 13.1315 9.53094C13.4165 9.58339 13.6135 9.65144 13.7926 9.75389C14.1729 9.97349 14.35 10.3171 14.369 10.8734C14.3779 11.1346 14.4004 11.2149 14.4917 11.3076C14.6608 11.4769 14.9617 11.444 15.0894 11.2413C15.1362 11.165 15.1433 11.1317 15.1483 10.9543C15.1515 10.8445 15.1468 10.6811 15.1355 10.5933Z" fill="white"/>
<path d="M16.626 11.0682C16.5509 9.77652 16.0457 8.73732 15.1415 8.00616C14.6321 7.59532 14.0163 7.31281 13.3413 7.17543C13.0941 7.12629 12.6389 7.08646 12.5608 7.10924C12.4871 7.13034 12.3828 7.21014 12.3364 7.2823C12.2872 7.36055 12.2762 7.53528 12.3181 7.63634C12.3857 7.80529 12.5116 7.86498 12.864 7.89581C13.4073 7.94335 13.9677 8.13423 14.3911 8.41683C14.8745 8.73858 15.2588 9.17866 15.5074 9.6958C15.7222 10.1401 15.8543 10.7805 15.8506 11.3539C15.8494 11.5613 15.8814 11.6784 15.9648 11.764C16.0907 11.8957 16.2742 11.9244 16.4362 11.837C16.6156 11.7426 16.6576 11.5769 16.626 11.0682Z" fill="white"/>
<path d="M18.2733 16.0422C18.248 15.9684 18.1891 15.8545 18.147 15.7891C17.8816 15.3885 16.456 14.2728 15.7442 13.9079C15.3378 13.6991 15.0367 13.6295 14.8135 13.6949C14.5734 13.7624 14.447 13.8742 14.0448 14.374C13.8827 14.5744 13.7163 14.7621 13.6721 14.7916C13.5626 14.8675 13.3478 14.9287 13.1962 14.9287C12.8445 14.9265 12.2065 14.6988 11.7158 14.3993C11.3346 14.1673 10.8461 13.7519 10.4713 13.3406C10.029 12.8576 9.72792 12.4316 9.48994 11.9508C9.18251 11.3328 9.10459 10.9553 9.23303 10.679C9.26462 10.6094 9.30675 10.5356 9.32567 10.5124C9.34464 10.4913 9.5426 10.3289 9.76158 10.1518C10.1912 9.81012 10.2607 9.73208 10.3407 9.49798C10.4418 9.20059 10.4144 8.8969 10.2586 8.59111C10.1385 8.3591 9.82477 7.85295 9.59735 7.52606C9.29621 7.09584 8.54654 6.17631 8.397 6.05184C8.12746 5.83253 7.78214 5.79454 7.40095 5.9422C6.99877 6.09827 6.24487 6.70566 5.92267 7.12958C5.63207 7.51341 5.52049 7.78546 5.50363 8.14399C5.4889 8.43924 5.51416 8.56156 5.66999 8.93909C6.88927 11.9001 8.70867 14.2643 11.2083 16.1414C12.5139 17.122 13.8679 17.8686 15.2725 18.379C16.0917 18.6764 16.4476 18.6911 16.8666 18.4465C17.0435 18.3411 17.4815 17.8918 17.7258 17.5649C18.1301 17.0208 18.2796 16.7698 18.3217 16.5695C18.3512 16.4324 18.3281 16.1941 18.2733 16.0422Z" fill="white"/>
<path d="M18.1415 11.3646C18.1146 10.634 17.9915 10.0347 17.735 9.36654C17.4818 8.70928 17.2255 8.28039 16.7414 7.7003C16.2838 7.15639 15.9284 6.84583 15.3646 6.50014C14.5781 6.01849 13.621 5.69975 12.5483 5.5657C12.1825 5.51885 12.0997 5.5222 11.9875 5.59708C11.77 5.73894 11.7729 6.09276 11.9911 6.2325C12.0633 6.27695 12.1274 6.29314 12.42 6.33144C12.8692 6.39191 13.158 6.44891 13.5007 6.54242C14.8447 6.90981 15.8782 7.66076 16.5692 8.77552C17.1474 9.70468 17.3874 10.6339 17.3533 11.8207C17.3415 12.2219 17.3501 12.2925 17.4114 12.3889C17.5289 12.5686 17.8386 12.6041 17.9975 12.455C18.0964 12.3642 18.115 12.296 18.1345 11.9526C18.1438 11.7734 18.1458 11.509 18.1415 11.3646Z" fill="white"/>
</svg>
