<svg width="10" height="10" viewBox="0 0 10 10" fill="none" xmlns="http://www.w3.org/2000/svg">
<path d="M5.01905 3.75802C4.64337 3.57713 4.26867 3.39429 3.89105 3.22024C3.84689 3.2101 3.8007 3.21403 3.75886 3.23149C3.61014 3.27402 3.46726 3.33758 3.31466 3.36349C3.10228 3.39966 3.01431 3.30238 3.04299 3.0858C3.05319 3.00953 3.07798 2.93473 3.10033 2.84136L2.21825 2.40771C1.82945 2.21802 1.44065 2.0285 1.05186 1.83914C0.814691 1.72229 0.787961 1.55509 0.97264 1.36785C1.23313 1.10336 1.54855 1.03639 1.89603 1.12341C2.54273 1.28278 3.18684 1.44819 3.82836 1.61963C3.94743 1.6514 4.02859 1.64016 4.11655 1.54092C4.28131 1.35563 4.46307 1.1855 4.63997 1.01145C4.77022 0.882386 4.85818 0.884341 4.98552 1.01536C5.125 1.15812 5.26448 1.30087 5.40153 1.44607C5.54733 1.60007 5.54733 1.6734 5.39521 1.8274C5.35147 1.87189 5.3019 1.91051 5.229 1.97407C5.49192 2.04203 5.715 2.10069 5.93758 2.1574C6.02701 2.17989 6.12421 2.1838 6.20585 2.22242C6.44059 2.3334 6.59465 2.2586 6.76475 2.07087C7.06558 1.73354 7.38731 1.41283 7.7173 1.10336C8.18337 0.667275 8.72575 0.363188 9.36095 0.24781C9.63651 0.198922 9.77647 0.340699 9.71815 0.614476C9.59397 1.22519 9.29889 1.78748 8.86766 2.23514C8.50219 2.61256 8.11485 2.96847 7.73334 3.33073C7.69877 3.3564 7.67362 3.39288 7.66184 3.43445C7.65006 3.47602 7.6523 3.52035 7.66822 3.56051C7.76542 3.89148 7.85192 4.22588 7.94329 4.55833C7.95358 4.58555 7.96576 4.61202 7.97974 4.63753C8.04632 4.57446 8.10221 4.51677 8.16296 4.46446C8.25336 4.38673 8.34473 4.38184 8.43269 4.47228C8.58918 4.63264 8.74762 4.79055 8.90216 4.95237C9.01006 5.06481 9.00665 5.17237 8.89585 5.28286C8.71991 5.45837 8.54447 5.63437 8.36368 5.8045C8.33389 5.82832 8.31239 5.86104 8.30226 5.89793C8.29213 5.93483 8.29389 5.97401 8.3073 6.00983C8.48907 6.70601 8.6718 7.40218 8.8419 8.10178C8.88701 8.2655 8.88526 8.43871 8.83686 8.60147C8.78845 8.76424 8.69536 8.90996 8.56828 9.02186C8.4045 9.17635 8.22809 9.14017 8.12651 8.92946C7.80721 8.26702 7.48597 7.60654 7.17299 6.94165C7.12099 6.83165 7.07093 6.78961 6.9572 6.84387C6.92084 6.85766 6.88271 6.86622 6.84397 6.8693C6.60631 6.90792 6.49356 6.80134 6.54702 6.56521C6.58104 6.41512 6.65491 6.27481 6.70497 6.12814C6.7257 6.08215 6.73032 6.03045 6.71809 5.98148C6.5548 5.63388 6.38421 5.2897 6.2112 4.93477C6.18175 4.95462 6.15395 4.97686 6.12809 5.00126C5.60808 5.6021 4.96851 6.05579 4.32213 6.49579C4.12773 6.63072 3.93333 6.77103 3.73893 6.9089C3.46775 7.10445 3.37832 7.36405 3.43859 7.69111C3.4799 7.916 3.50954 8.14333 3.54016 8.37018C3.55717 8.49924 3.37201 8.74613 3.24516 8.75493C3.188 8.75596 3.13264 8.73477 3.09061 8.69578C2.48992 8.1008 1.89312 7.49947 1.29486 6.9001C1.20446 6.80916 1.22487 6.73143 1.29486 6.63121C1.43579 6.42588 1.62242 6.42734 1.83383 6.46987C2.01899 6.50703 2.20707 6.53196 2.39467 6.55494C2.68626 6.59112 2.91371 6.47721 3.08187 6.23521C3.40603 5.76734 3.71998 5.28872 4.06552 4.83846C4.31727 4.51286 4.61664 4.22393 4.89804 3.9218C4.9449 3.87882 4.99567 3.84035 5.04967 3.80691L5.01905 3.75802Z" fill="#306DDE"/>
</svg>
