<svg width="24" height="24" viewBox="0 0 24 24" fill="none" xmlns="http://www.w3.org/2000/svg">
<g clip-path="url(#clip0_4781_35716)">
<path fill-rule="evenodd" clip-rule="evenodd" d="M5.5 4H9.5C10.3284 4 11 4.67157 11 5.5V6.5C11 7.32843 10.3284 8 9.5 8H5.5C4.67157 8 4 7.32843 4 6.5V5.5C4 4.67157 4.67157 4 5.5 4ZM14.5 16H18.5C19.3284 16 20 16.6716 20 17.5V18.5C20 19.3284 19.3284 20 18.5 20H14.5C13.6716 20 13 19.3284 13 18.5V17.5C13 16.6716 13.6716 16 14.5 16Z" fill="#3D7B50"/>
<path opacity="0.3" fill-rule="evenodd" clip-rule="evenodd" d="M5.5 10H9.5C10.3284 10 11 10.6716 11 11.5V18.5C11 19.3284 10.3284 20 9.5 20H5.5C4.67157 20 4 19.3284 4 18.5V11.5C4 10.6716 4.67157 10 5.5 10ZM14.5 4H18.5C19.3284 4 20 4.67157 20 5.5V12.5C20 13.3284 19.3284 14 18.5 14H14.5C13.6716 14 13 13.3284 13 12.5V5.5C13 4.67157 13.6716 4 14.5 4Z" fill="#3D7B50"/>
</g>
<defs>
<clipPath id="clip0_4781_35716">
<rect width="24" height="24" fill="white"/>
</clipPath>
</defs>
</svg>
