<svg width="24" height="24" viewBox="0 0 24 24" fill="none" xmlns="http://www.w3.org/2000/svg">
<g clip-path="url(#clip0_4781_35769)">
<path opacity="0.3" fill-rule="evenodd" clip-rule="evenodd" d="M8 3V3.5C8 4.32843 8.67157 5 9.5 5H14.5C15.3284 5 16 4.32843 16 3.5V3H18C19.1046 3 20 3.89543 20 5V21C20 22.1046 19.1046 23 18 23H6C4.89543 23 4 22.1046 4 21V5C4 3.89543 4.89543 3 6 3H8Z" fill="#3D7B50"/>
<path fill-rule="evenodd" clip-rule="evenodd" d="M11 2C11 1.44772 11.4477 1 12 1C12.5523 1 13 1.44772 13 2H14.5C14.7761 2 15 2.22386 15 2.5V3.5C15 3.77614 14.7761 4 14.5 4H9.5C9.22386 4 9 3.77614 9 3.5V2.5C9 2.22386 9.22386 2 9.5 2H11Z" fill="#3D7B50"/>
<path opacity="0.3" d="M11 10H8C7.44772 10 7 10.4477 7 11C7 11.5523 7.44772 12 8 12H11C11.5523 12 12 11.5523 12 11C12 10.4477 11.5523 10 11 10Z" fill="#3D7B50"/>
<path opacity="0.3" d="M15 14H8C7.44772 14 7 14.4477 7 15C7 15.5523 7.44772 16 8 16H15C15.5523 16 16 15.5523 16 15C16 14.4477 15.5523 14 15 14Z" fill="#3D7B50"/>
</g>
<defs>
<clipPath id="clip0_4781_35769">
<rect width="24" height="24" fill="white"/>
</clipPath>
</defs>
</svg>
