<svg width="24" height="24" viewBox="0 0 24 24" fill="none" xmlns="http://www.w3.org/2000/svg">
<g clip-path="url(#clip0_4781_35791)">
<path opacity="0.3" fill-rule="evenodd" clip-rule="evenodd" d="M4 3.99982L11.6314 2.56892C11.875 2.52325 12.125 2.52325 12.3686 2.56892L20 3.99982V13.2828C20 16.2172 18.4883 18.9446 16 20.4998L12.53 22.6686C12.2057 22.8712 11.7943 22.8712 11.47 22.6686L8 20.4998C5.51165 18.9446 4 16.2172 4 13.2828V3.99982Z" fill="#3D7B50"/>
<path fill-rule="evenodd" clip-rule="evenodd" d="M11.1748 14.75C10.9352 14.75 10.6956 14.6542 10.504 14.4625L8.5873 12.5458C8.20397 12.1625 8.20397 11.5875 8.5873 11.2042C8.97064 10.8208 9.59355 10.8208 9.92897 11.2042L11.1748 12.45L14.3373 9.2875C14.7206 8.90417 15.2956 8.90417 15.679 9.2875C16.0623 9.67083 16.0623 10.2458 15.679 10.6292L11.8456 14.4625C11.654 14.6542 11.4144 14.75 11.1748 14.75Z" fill="#3D7B50"/>
</g>
<defs>
<clipPath id="clip0_4781_35791">
<rect width="24" height="24" fill="white"/>
</clipPath>
</defs>
</svg>
